<svg xmlns="http://www.w3.org/2000/svg" width="225.507" height="73.522" viewBox="0 0 225.507 73.522">
  <g id="cap-tit" transform="translate(-1.49 -1.49)">
    <path id="パス_1" data-name="パス 1" d="M193.693,22.121a36.4,36.4,0,0,1-3.084,5.588H201.56V50.282H181.982V27.709h6.526l.134-.671.134-.625c.223-1.163.492-2.772.67-4.292h-8.18l-1.788.358v-2.5l1.788.357h21.456l1.788-.357v2.5l-1.788-.358Zm-8.225,26.373h12.516V42.862H185.468Zm0-7.42h12.516V36.157H185.468Zm0-11.577v4.872h12.516V29.5Zm-5.9-2.816-1.788-.358h-4.247v20.16c2.146-.582,3.308-.939,6.079-1.788l.313,1.117c-3.531,2.235-7.286,3.934-13.5,6.169-.223.715-.447,1.028-.8,1.028-.312,0-.625-.358-.8-.805l-1.162-3.531c3.307-.581,4.738-.894,6.3-1.3V26.323h-4.246l-1.788.358v-2.5l1.788.357H177.78l1.788-.357ZM155.692,45.857v7.912h-3.576V51.981H141.209v4.112c.045,2.414-1.073,3.487-3.754,3.487h-5.677V57.7h3.889c1.475-.045,1.922-.536,1.966-2.011v-3.71H124.805l-1.788.357v-2.5l1.788.358h12.828V45.857H121l-1.743.357v-2.5l1.743.358h16.628V40H124.805l-1.788.358v-2.5l1.788.357h12.828V34.9h-13.41V27.038h13.41V23.731H121.318l-1.788.357v-2.5l1.788.358h16.315V18.456h3.353c.626,0,.938.179.938.581,0,.313-.134.492-.715.894v2.012h17.12l1.788-.358v2.5l-1.788-.357h-17.12v3.307h13.812V34.9H141.209v3.308h14.483v5.856h2.95l1.743-.358v2.5l-1.743-.357ZM137.633,28.826H127.8v4.291h9.834Zm13.812,4.291V28.826H141.209v4.291ZM152.116,40H141.209v4.068h10.907Zm0,5.856H141.209v4.336h10.907Zm-43.347,3.4,1.252-.805a23.163,23.163,0,0,1,7.107,7.018l-3.8,2.28A49.434,49.434,0,0,0,108.769,49.254ZM78.552,31.061l-1.743.358v-2.5l1.743.357h9.566v-.134a47.928,47.928,0,0,0-1.386-5.274H80.921l-1.788.357v-2.5l1.788.358H94.644V18.456H98.4c.626,0,.939.179.939.581,0,.313-.135.492-.716.894v2.146h14.036l1.788-.358v2.5l-1.788-.357h-5.9l-.045.134a22.334,22.334,0,0,1-3.576,5.274h11.89l1.743-.357v2.5l-1.743-.358Zm10.013-7.2A16.228,16.228,0,0,1,92.1,27.619l-3.263,1.654H101.26l.044-.134c.537-1.654.894-3,1.431-5.274Zm-5.319,24.9c-.626,4.2-1.341,6.392-3.04,9.119l-3.755-2.235a18.851,18.851,0,0,0,5.141-7.286Zm-39.5,9.208-1.788.358v-2.5l1.788.357H55.856V42.862H47.274l-1.788.358v-2.5l1.788.358h8.582V29.765H45.62l-1.743.358v-2.5l1.743.358H70.205l1.788-.358v2.5l-1.788-.358H59.7V41.074h8.582l1.788-.358v2.5l-1.788-.358H59.7v13.32H71.01l1.788-.357v2.5L71.01,57.97Zm8.18-38.441,1.028-1.073a27.988,27.988,0,0,1,9.342,5.632l-3.62,2.906A36.1,36.1,0,0,0,51.923,19.529ZM34.669,20.736l.626-1.207a27.861,27.861,0,0,1,8.671,3.665L41.195,26.9A40.774,40.774,0,0,0,34.669,20.736Zm3.8,17.924a34.065,34.065,0,0,0-6.794-6.392l.671-1.207a24.521,24.521,0,0,1,8.984,3.666Zm3.889,2.548a91.254,91.254,0,0,1-5.5,15.6l.134.76v.045a1.013,1.013,0,0,1-.894.983,1.25,1.25,0,0,1-.849-.4L32.434,55.6a112.034,112.034,0,0,0,8.627-14.84ZM98.488,53.322a26.922,26.922,0,0,0-4.067-5.364l.938-.805a19.65,19.65,0,0,1,6.348,3.442ZM81.726,34.1h30.127V46.17H81.726ZM85.3,44.382h22.975V40.94H85.3Zm0-5.23h22.975V35.889H85.3ZM91.783,48.4c0,.313-.134.491-.715.894v4.6c0,.983.76,1.341,2.861,1.385h8.716c1.654,0,2.369-.536,2.548-1.788l.179-2.547,1.788.134-.224,3.263c-.223,3.039-1.475,4.2-4.425,4.2H92.99c-4.246-.134-5.5-.894-5.587-3.441V47.824h3.442C91.47,47.824,91.783,48,91.783,48.4ZM188.821,53.1a1.238,1.238,0,0,1,.447.805c0,.447-.626.8-1.431.8h-.313a40.038,40.038,0,0,1-12.65,4.873l-.447-1.3a34.693,34.693,0,0,0,11.622-7.42ZM204.778,56l-2.324,3.352a68.974,68.974,0,0,0-8.717-6.75l.805-1.206A40.247,40.247,0,0,1,204.778,56Z" fill-rule="evenodd"/>
    <path id="パス_2" data-name="パス 2" d="M2.49,2.49H226V74.012H2.49Z" fill="none" stroke="#000" stroke-width="2" fill-rule="evenodd"/>
  </g>
</svg>
