<svg xmlns="http://www.w3.org/2000/svg" width="73.522" height="225.507" viewBox="0 0 73.522 225.507">
  <g id="cap-tit-sp" transform="translate(-1.488 -1.49)">
    <path id="パス_3" data-name="パス 3" d="M53.753,142.781v7.912H50.178V148.9H39.271v4.112c.045,2.414-1.073,3.487-3.755,3.487H29.839v-1.877h3.889c1.475-.045,1.922-.537,1.967-2.012V148.9H22.866l-1.788.358v-2.5l1.788.357H35.695v-4.336H19.067l-1.744.358v-2.5l1.744.357H35.695v-4.067H22.866l-1.788.357v-2.5l1.788.358H35.695V131.83H22.285v-7.867h13.41v-3.308H19.38l-1.788.358v-2.5l1.788.358H35.695V115.38h3.352c.626,0,.939.179.939.582,0,.312-.134.491-.715.894v2.011h17.12l1.788-.358v2.5l-1.788-.358H39.271v3.308H53.083v7.867H39.271v3.308H53.753v5.855H56.7l1.743-.357v2.5l-1.743-.358Zm-18.058-17.03H25.861v4.291h9.834Zm13.812,4.291v-4.291H39.271v4.291Zm.671,6.884H39.271v4.067H50.178Zm0,5.855H39.271v4.336H50.178ZM29.392,67.307l-1.788.358v-2.5l1.788.358H41.506V52.2H32.924l-1.788.357v-2.5l1.788.358h8.582V39.1H31.27l-1.744.357v-2.5l1.744.358H55.854l1.788-.358v2.5L55.854,39.1H45.35V50.411h8.582l1.788-.358v2.5L53.932,52.2H45.35v13.32H56.659l1.788-.358v2.5l-1.788-.358Zm8.18-38.442L38.6,27.793a27.978,27.978,0,0,1,9.343,5.632L44.322,36.33A36.126,36.126,0,0,0,37.572,28.865ZM20.318,30.072l.626-1.207a27.867,27.867,0,0,1,8.672,3.666l-2.772,3.71A40.729,40.729,0,0,0,20.318,30.072Zm.984,81.7-3.755-2.234a18.851,18.851,0,0,0,5.14-7.287l1.654.4C23.715,106.855,23,109.045,21.3,111.771Zm33.122-.134a49.434,49.434,0,0,0-4.559-8.493l1.251-.8a23.13,23.13,0,0,1,7.107,7.018ZM22.643,66.949a1.014,1.014,0,0,1-.894.984,1.252,1.252,0,0,1-.85-.4l-2.816-2.593A111.924,111.924,0,0,0,26.71,50.1l1.3.447a91.456,91.456,0,0,1-5.5,15.6l.134.76ZM57.866,82.806v2.5l-1.743-.357H19.648l-1.744.357v-2.5l1.744.358h9.565V83.03a47.982,47.982,0,0,0-1.385-5.275H22.017l-1.788.358v-2.5l1.788.357H35.74v-3.62h3.754c.626,0,.939.178.939.581,0,.313-.134.491-.715.894v2.145H53.753l1.788-.357v2.5l-1.788-.358h-5.9l-.045.134a22.331,22.331,0,0,1-3.576,5.275H56.123ZM29.66,77.755a16.237,16.237,0,0,1,3.532,3.755l-3.263,1.654H42.355l.045-.134c.536-1.654.894-2.995,1.43-5.275ZM22.821,87.991H52.949V100.06H22.821ZM26.4,98.272H49.373V94.83H26.4Zm0-5.23H49.373V89.779H26.4Zm10.058,8a19.643,19.643,0,0,1,6.347,3.441l-3.218,2.727a26.952,26.952,0,0,0-4.068-5.364Zm9.834,6.347.178-2.548,1.788.134-.223,3.263c-.224,3.04-1.475,4.2-4.425,4.2H34.086c-4.247-.134-5.5-.894-5.588-3.442v-7.286H31.94c.626,0,.939.179.939.581,0,.313-.134.492-.715.894v4.6c0,.984.76,1.341,2.86,1.386h8.717C45.4,109.179,46.11,108.643,46.289,107.391ZM24.118,48a34.073,34.073,0,0,0-6.8-6.392l.671-1.207a24.5,24.5,0,0,1,8.984,3.665ZM23.626,167.64H19.38L17.592,168v-2.5l1.788.358H31.448l1.788-.358V168l-1.788-.358H27.2V187.8c2.146-.581,3.308-.939,6.079-1.788l.313,1.117c-3.531,2.235-7.286,3.934-13.5,6.169-.224.715-.447,1.028-.8,1.028-.313,0-.626-.358-.8-.8l-1.163-3.532c3.308-.581,4.739-.894,6.3-1.3Zm18.863,26.775a1.24,1.24,0,0,1,.447.805c0,.447-.626.8-1.43.8h-.313a40.046,40.046,0,0,1-12.65,4.872l-.447-1.3a34.7,34.7,0,0,0,11.622-7.42ZM33.147,163.8v-2.5l1.788.358H56.391l1.788-.358v2.5l-1.788-.357h-9.03a36.275,36.275,0,0,1-3.084,5.587H55.229V191.6H35.65V169.026h6.526l.134-.67.135-.626c.223-1.162.491-2.771.67-4.291h-8.18Zm5.99,26.015H51.653v-5.632H39.137Zm0-7.42H51.653v-4.917H39.137Zm0-11.577v4.872H51.653v-4.872Zm19.31,26.507-2.324,3.352a69.134,69.134,0,0,0-8.717-6.749l.805-1.207A40.264,40.264,0,0,1,58.447,197.321Z" fill-rule="evenodd"/>
    <path id="パス_4" data-name="パス 4" d="M74.01,2.49V226H2.488V2.49Z" fill="none" stroke="#000" stroke-width="2" fill-rule="evenodd"/>
  </g>
</svg>
