<svg xmlns="http://www.w3.org/2000/svg" xmlns:xlink="http://www.w3.org/1999/xlink" width="429.781" height="44.756" viewBox="0 0 429.781 44.756">
  <defs>
    <clipPath id="clip-path">
      <rect id="長方形_144" data-name="長方形 144" width="97.868" height="43.497" fill="none"/>
    </clipPath>
  </defs>
  <g id="グループ_329" data-name="グループ 329" transform="translate(0 -718.287)">
    <path id="パス_587" data-name="パス 587" d="M38.887-34.214V-1.987h4.3V0H29.917V-1.987h4.3V-30.347L22.666-.054H20.2L20.142,0l-12-30.588v28.6H12.38V0H1.37V-1.987h4.4V-34.214H1.37v-2.041h9.292L22.451-6.1,33.945-36.255h9.238v2.041ZM62.749-23.149H59.231v-1.665h7.654V-1.638H70.4V-.054L62.857.322l-.107-2.739a8.075,8.075,0,0,1-1.088,1.141,6.684,6.684,0,0,1-1.49.967,9.367,9.367,0,0,1-1.947.671,10.8,10.8,0,0,1-2.457.255A11.4,11.4,0,0,1,52.41.148a6.706,6.706,0,0,1-2.632-1.49,6.983,6.983,0,0,1-1.732-2.645,10.887,10.887,0,0,1-.631-3.934V-23.149H43.951v-1.665H51.6V-7.922a9.962,9.962,0,0,0,.43,3.169,5.814,5.814,0,0,0,1.115,2.028A3.869,3.869,0,0,0,54.72-1.638a5.3,5.3,0,0,0,1.826.322,8.546,8.546,0,0,0,1.96-.255,5.6,5.6,0,0,0,2.028-.953,5.39,5.39,0,0,0,1.584-1.92A6.869,6.869,0,0,0,62.749-7.6Zm9.012,0v-1.611l7.654-.376.054,4.3A9.473,9.473,0,0,1,80.7-22.72,8.557,8.557,0,0,1,82.3-24.2a7.707,7.707,0,0,1,1.84-.967,5.808,5.808,0,0,1,1.987-.349,6.2,6.2,0,0,1,1.746.228,8.009,8.009,0,0,1,1.316.5,5.013,5.013,0,0,1,1.128.7v1.155l-2.766,2.686a6.051,6.051,0,0,0-.537-.577,3.7,3.7,0,0,0-.752-.551,4.954,4.954,0,0,0-.94-.4,3.546,3.546,0,0,0-1.074-.161,4.527,4.527,0,0,0-1.92.4,4.576,4.576,0,0,0-1.517,1.128,5.054,5.054,0,0,0-.994,1.746,6.846,6.846,0,0,0-.349,2.229v14.8H84.2V0H71.707V-1.638h3.625V-23.149ZM99.6-10.554a5.321,5.321,0,0,0-2.82,1.974,5.03,5.03,0,0,0-.833,2.806,5.109,5.109,0,0,0,.269,1.652,4.135,4.135,0,0,0,.792,1.4,3.761,3.761,0,0,0,1.276.953,4.105,4.105,0,0,0,1.746.349,5.514,5.514,0,0,0,2.78-.712,11.148,11.148,0,0,0,2.618-2.216V-12.6Zm-7.439-6.338a6.249,6.249,0,0,1,.349-3.531A7.111,7.111,0,0,1,94.482-23.1a9.106,9.106,0,0,1,3.035-1.678,11.18,11.18,0,0,1,3.558-.577,12.77,12.77,0,0,1,3.236.4,7.182,7.182,0,0,1,2.739,1.37,6.65,6.65,0,0,1,1.893,2.565,10.059,10.059,0,0,1,.7,4.015V-2.578a1.271,1.271,0,0,0,.161.685.987.987,0,0,0,.416.376,1.451,1.451,0,0,0,.564.134,2.407,2.407,0,0,0,.577-.04,2.721,2.721,0,0,0,.5-.188q.282-.134.577-.269.322-.161.671-.376l.671,1.316a8.921,8.921,0,0,1-1.316.806,11.325,11.325,0,0,1-1.41.551,5.624,5.624,0,0,1-1.732.255,3.811,3.811,0,0,1-1.907-.416,4.263,4.263,0,0,1-1.155-.927,4.018,4.018,0,0,1-.725-1.37,7.01,7.01,0,0,1-1.4,1.115,10.024,10.024,0,0,1-1.732.846,12.451,12.451,0,0,1-1.92.551,9.723,9.723,0,0,1-1.934.2A9.712,9.712,0,0,1,95.637.255,6.883,6.883,0,0,1,93.368-.913,5.269,5.269,0,0,1,91.9-2.739,5.32,5.32,0,0,1,91.381-5.1,5.826,5.826,0,0,1,92.7-9a9.385,9.385,0,0,1,4.243-2.551l8.486-2.874v-2.471a20.163,20.163,0,0,0-.188-2.914,6.041,6.041,0,0,0-.671-2.122,3.213,3.213,0,0,0-1.343-1.289,4.794,4.794,0,0,0-2.2-.443,4.331,4.331,0,0,0-3.585,1.329,4.547,4.547,0,0,0-.819,3.478l.215,1.96ZM132.4-23.149h-3.518v-1.665h7.654V-1.638h3.518V-.054l-7.546.376L132.4-2.417a8.075,8.075,0,0,1-1.088,1.141,6.684,6.684,0,0,1-1.49.967,9.367,9.367,0,0,1-1.947.671,10.8,10.8,0,0,1-2.457.255,11.4,11.4,0,0,1-3.357-.47,6.706,6.706,0,0,1-2.632-1.49A6.983,6.983,0,0,1,117.7-3.988a10.887,10.887,0,0,1-.631-3.934V-23.149h-3.464v-1.665h7.654V-7.922a9.962,9.962,0,0,0,.43,3.169A5.814,5.814,0,0,0,122.8-2.726a3.869,3.869,0,0,0,1.571,1.088,5.3,5.3,0,0,0,1.826.322,8.546,8.546,0,0,0,1.96-.255,5.6,5.6,0,0,0,2.028-.953,5.39,5.39,0,0,0,1.584-1.92A6.869,6.869,0,0,0,132.4-7.6Zm25.474,4.727a7.717,7.717,0,0,0-.416-1.947,6.108,6.108,0,0,0-.913-1.705,4.744,4.744,0,0,0-1.383-1.222,3.5,3.5,0,0,0-1.8-.47,5.721,5.721,0,0,0-3.062.779,6.256,6.256,0,0,0-2.068,2.095,9.526,9.526,0,0,0-1.168,3.048,17.864,17.864,0,0,0-.363,3.666,19.777,19.777,0,0,0,.524,4.539,14.861,14.861,0,0,0,1.517,3.975,8.887,8.887,0,0,0,2.457,2.82,5.464,5.464,0,0,0,3.317,1.074,6.487,6.487,0,0,0,2.565-.5,6.719,6.719,0,0,0,2.068-1.37,7.831,7.831,0,0,0,1.5-2.041,8.84,8.84,0,0,0,.846-2.511l1.692.054a10.215,10.215,0,0,1-1.007,3.384,9.878,9.878,0,0,1-2.054,2.78,9.507,9.507,0,0,1-2.968,1.893,9.8,9.8,0,0,1-3.746.7A10.727,10.727,0,0,1,148.3-.5a9.705,9.705,0,0,1-3.37-2.914,11.808,11.808,0,0,1-1.853-4.055,18.54,18.54,0,0,1-.564-4.512,19.168,19.168,0,0,1,.591-4.633,13.117,13.117,0,0,1,1.947-4.337,10.58,10.58,0,0,1,3.572-3.209,10.931,10.931,0,0,1,5.438-1.249,10.054,10.054,0,0,1,3.276.524,8.8,8.8,0,0,1,2.686,1.45,7.643,7.643,0,0,1,1.88,2.2,6.813,6.813,0,0,1,.859,2.806ZM164.1-36.416v-1.531l8.083-.564V-22.5a4.256,4.256,0,0,1,.9-.994,7.509,7.509,0,0,1,1.49-.953,9.714,9.714,0,0,1,2.041-.725,10.757,10.757,0,0,1,2.551-.282,14.436,14.436,0,0,1,1.934.134,8.751,8.751,0,0,1,1.92.483,6.973,6.973,0,0,1,1.746.967A6.083,6.083,0,0,1,186.2-22.3a7.831,7.831,0,0,1,.967,2.283,12.409,12.409,0,0,1,.349,3.129V-1.638h3.464V0H179.753V-1.638h3.572V-16.892a10.721,10.721,0,0,0-.376-3.035,5.892,5.892,0,0,0-1.034-2.068,3.951,3.951,0,0,0-1.571-1.182,5.1,5.1,0,0,0-1.96-.376,7.953,7.953,0,0,0-2.014.282,5.976,5.976,0,0,0-2.014.967A5.317,5.317,0,0,0,172.8-20.45a6.186,6.186,0,0,0-.618,2.914v15.9H175.7V0H164.526V-1.638h3.518V-36.416Zm32.215,13.267h-4v-1.611l8.137-.537v23.66h4.458V0H191.853V-1.638h4.458Zm-1.262-9.856a3.314,3.314,0,0,1,.255-1.3,3.254,3.254,0,0,1,.7-1.047,3.254,3.254,0,0,1,1.047-.7,3.314,3.314,0,0,1,1.3-.255,3.314,3.314,0,0,1,1.3.255,3.254,3.254,0,0,1,1.047.7,3.254,3.254,0,0,1,.7,1.047,3.314,3.314,0,0,1,.255,1.3,3.314,3.314,0,0,1-.255,1.3,3.254,3.254,0,0,1-.7,1.047,3.253,3.253,0,0,1-1.047.7,3.314,3.314,0,0,1-1.3.255,3.314,3.314,0,0,1-1.3-.255,3.253,3.253,0,0,1-1.047-.7,3.254,3.254,0,0,1-.7-1.047A3.314,3.314,0,0,1,195.049-33.005Zm60.133-1.208V-1.987h4.3V0H246.212V-1.987h4.3V-30.347L238.961-.054H236.49L236.437,0l-12-30.588v28.6h4.243V0H217.665V-1.987h4.4V-34.214h-4.4v-2.041h9.292L238.746-6.1,250.24-36.255h9.238v2.041Zm21.123-.054h-5.452v32.28h5.667V0H260.568V-1.987h5.667v-32.28h-5.452v-1.987h15.522Zm33.826-1.987v2.041h-4.619V0h-2.551L284.377-30.535V-1.987h4.673V0h-11.44V-1.987h4.4V-34.214h-4.4v-2.041h8.97L303.068-9.238V-34.214h-4.431v-2.041Zm16.827,1.987h-5.452v32.28h5.667V0H311.221V-1.987h5.667v-32.28h-5.452v-1.987h15.522Z" transform="translate(102.608 756.797)"/>
    <g id="グループ_321" data-name="グループ 321" transform="translate(0 719.546)">
      <g id="グループ_320" data-name="グループ 320" clip-path="url(#clip-path)">
        <path id="パス_584" data-name="パス 584" d="M42.75,17.169h-.782L39.24,24.784l-2.728-7.615H33.974V26.86h1.755V19.885l2.5,6.976h2.022l2.5-6.976V26.86h1.755V17.169H42.75ZM46.9,26.86h1.755V17.169H46.9ZM57.278,25l-3.7-7.834H50.944V26.86H52.7V19.026l3.7,7.834h2.633V17.169H57.278ZM61.7,26.86h1.755V17.169H61.7ZM97.869,10.3H67.149a21.752,21.752,0,0,0-36.988,0H0l3.143,3.205H28.524a21.575,21.575,0,0,0-1.1,3.528H6.6l3.143,3.205H26.959c-.034.5-.053,1-.053,1.509,0,.681.033,1.354.094,2.019H13.2l3.143,3.205H27.539a21.581,21.581,0,0,0,1.2,3.528H19.806L22.949,33.7h7.538a21.75,21.75,0,0,0,36.335,0h8.1L78.062,30.5H68.569a21.587,21.587,0,0,0,1.2-3.528H81.522l3.143-3.205H70.309c.061-.665.094-1.338.094-2.019,0-.507-.019-1.01-.053-1.509H88.124l3.143-3.205H69.889a21.572,21.572,0,0,0-1.1-3.528h25.94Zm-30.7,13.466a18.626,18.626,0,0,1-37.036,0,18.837,18.837,0,0,1-.109-2.019q0-.762.061-1.509a18.626,18.626,0,0,1,37.132,0q.06.747.061,1.509a18.835,18.835,0,0,1-.109,2.019" transform="translate(0 0.001)"/>
      </g>
    </g>
  </g>
</svg>
