<svg id="payment" xmlns="http://www.w3.org/2000/svg" width="542" height="214" viewBox="0 0 542 214">
  <path id="パス_15" data-name="パス 15" d="M0,0H542V214H0Z" fill="#bb3636" fill-rule="evenodd"/>
  <path id="パス_16" data-name="パス 16" d="M460.234,59.641h-2.808c6.76-5.928,10.4-14.248,10.4-23.87,0-9.672-3.692-18.2-10.4-23.972h2.808a29.9,29.9,0,0,1,11.388,23.92A29.9,29.9,0,0,1,460.234,59.641ZM446.4,56.365H412.342v2.6h-4.368V14.347h42.8V58.653H446.4Zm0-39.938H412.342V54.285H446.4Zm-6.5,28.706H418.582V25.007H439.9ZM435.8,27.087h-13.1V43.053h13.1ZM401.318,46.329a8.7,8.7,0,0,1-1.664,5.382,9.9,9.9,0,0,1-4.342,3.276,15.131,15.131,0,0,1-5.642,1.066,14.539,14.539,0,0,1-5.642-1.092,10.023,10.023,0,0,1-4.264-3.276,8.673,8.673,0,0,1-1.638-5.356,8.528,8.528,0,0,1,1.9-5.72,9.944,9.944,0,0,1,4.914-3.12,8.722,8.722,0,0,1-3.9-2.756,7.694,7.694,0,0,1-1.716-5.148,7.411,7.411,0,0,1,1.456-4.654,8.952,8.952,0,0,1,3.822-2.86,13.449,13.449,0,0,1,5.122-.962,13.661,13.661,0,0,1,5.07.936,8.882,8.882,0,0,1,3.848,2.86,7.438,7.438,0,0,1,1.482,4.68,7.694,7.694,0,0,1-1.716,5.148,8.722,8.722,0,0,1-3.9,2.756,9.962,9.962,0,0,1,4.914,3.12A8.538,8.538,0,0,1,401.318,46.329Zm-5.46-16.536a7.214,7.214,0,0,0-1.742-5.07,6.035,6.035,0,0,0-8.788,0,7.2,7.2,0,0,0-1.742,5.07,7.2,7.2,0,0,0,1.742,5.07,6.065,6.065,0,0,0,8.814,0A7.275,7.275,0,0,0,395.858,29.793Zm-.936,10.816a7.407,7.407,0,0,0-10.4,0,8.6,8.6,0,0,0-1.82,5.772,8.29,8.29,0,0,0,1.976,5.9,7.093,7.093,0,0,0,10.088,0,8.3,8.3,0,0,0,1.976-5.9A8.606,8.606,0,0,0,394.922,40.609Zm-28,14.118a12.232,12.232,0,0,1-11.518-.234,11.047,11.047,0,0,1-4.212-4.264l1.664-1.04a8.957,8.957,0,0,0,3.432,3.484,9.492,9.492,0,0,0,4.732,1.2,6.755,6.755,0,0,0,3.666-1.066,7.65,7.65,0,0,0,2.73-3.146,10.947,10.947,0,0,0,1.04-4.94,10.457,10.457,0,0,0-1.04-4.862,7.018,7.018,0,0,0-2.73-2.964,7.286,7.286,0,0,0-3.666-.962,5.951,5.951,0,0,0-3.12.78,9.652,9.652,0,0,0-2.34,1.976H353.53l1.248-16.9h16.536v4.16H356.39l-.728,10.088a9.147,9.147,0,0,1,2.99-1.768,11.062,11.062,0,0,1,3.926-.676,10.9,10.9,0,0,1,5.07,1.222,9.633,9.633,0,0,1,3.848,3.666,11.019,11.019,0,0,1,1.482,5.824,11.62,11.62,0,0,1-1.716,6.448A11.088,11.088,0,0,1,366.92,54.727Zm-23.008,4.914a30.079,30.079,0,0,1-11.336-23.922A30.078,30.078,0,0,1,343.912,11.8h2.86a23.411,23.411,0,0,0-5.044,5.668,32.879,32.879,0,0,0-5.356,18.3c0,9.622,3.64,17.994,10.4,23.87ZM310.06,51.529l.832-1.4c4.94,2.08,7.228,3.328,9.88,5.356l-2.652,3.9A69.262,69.262,0,0,0,310.06,51.529Zm.156-35.466a40.4,40.4,0,0,1-3.588,6.5h11.128V48.825H298.62V22.563h5.668c.572-2.7.832-4.368,1.144-6.5H298.2l-2.028.416V13.567l2.028.416H318.38l2.08-.416v2.912l-2.08-.416Zm-7.8,30.682h11.44V40.191h-11.44Zm0-8.634h11.44v-5.72h-11.44Zm0-13.468v5.668h11.44V24.643Zm-14.822-6.552h10.09a16.858,16.858,0,0,1-5.668,7.748l-1.248-.78a21.586,21.586,0,0,0,1.924-4.888H277.766a13.459,13.459,0,0,1-2.132,7.228l-2.7-3.484a14.075,14.075,0,0,0,3.276-7.592h1.612a6.633,6.633,0,0,1,.052,1.04v.728h5.616v-5.98h3.848c.728,0,1.092.208,1.092.728,0,.312-.156.52-.832.988ZM262.272,52.517c-.52.156-1.3.364-2.288.676a196.119,196.119,0,0,1-20.072,4.16c-.312.988-.676,1.4-1.144,1.4s-.728-.364-1.04-1.3l-1.458-4.368c3.33-.156,3.694-.156,5.722-.312l.312-1.4a276.257,276.257,0,0,0,6.916-38.846l4.888.676c1.092.156,1.508.468,1.508,1.04s-.416.988-1.456,1.456c-3.38,16.38-6.4,27.718-9.672,36.922,6.4-.468,11.336-.988,16.068-1.664l1.2-.156a135.052,135.052,0,0,0-4.94-14.3l1.716-.78a81.14,81.14,0,0,1,10.192,20.75l-4.836,2.5C263.156,56,262.9,54.909,262.272,52.517ZM240.744,34l.572,1.352a52.4,52.4,0,0,1-7.594,3.952V55.429c0,2.548-1.144,3.64-3.8,3.64h-6.24V56.885h3.952c1.3-.052,1.716-.468,1.768-1.768V41.075c-1.612.574-2.756.99-5.3,1.874-.364.988-.728,1.4-1.144,1.4a.988.988,0,0,1-.832-.78l-1.2-4.058c3.848-.832,6.188-1.4,8.476-2.08V24.695h-6.032l-2.028.416V22.2l2.028.416h6.032v-10.5h4c.78,0,1.144.208,1.144.676,0,.364-.156.572-.832,1.04v8.788h5.046l2.08-.416v2.912l-2.08-.416h-5.046V36.239C236.842,35.3,237.884,34.991,240.744,34Zm-26.26,25.326c-8.684-1.612-16.172-4.576-21.424-8.476-6.5,4.576-14.2,7.436-23.714,8.788l-.416-1.612a58.187,58.187,0,0,0,21.166-9.62c-4.786-4.524-6.762-8.062-8.894-15.55h-4.056l-2.08.416V30.363l2.08.416h13.262v-9.2H172l-2.08.416V19.079L172,19.5h18.41V12.059h4.368c.728,0,1.092.208,1.092.676,0,.364-.156.572-.832,1.04V19.5H213.7l2.08-.416v2.912l-2.08-.416H195.036v9.2h14.456A44.369,44.369,0,0,1,196.44,48.253a55.3,55.3,0,0,0,20.332,6.188A19.636,19.636,0,0,0,214.484,59.329ZM203.46,32.859H182.918a31,31,0,0,0,10.194,13.21A42.548,42.548,0,0,0,203.46,32.859Zm-49.5-16.692.832-.832a17.206,17.206,0,0,1,9.984,8.736l-4.316,2.444C158.428,21.783,156.348,18.455,153.956,16.167ZM138.512,23.4v8.788a34.08,34.08,0,0,1,5.824-.468c5.044,0,8.632.728,11.648,2.444a12.434,12.434,0,0,1,6.188,11.026c0,6.916-5.044,11.908-12.012,11.908a10.45,10.45,0,0,1-7.228-2.548l.78-1.456a10.266,10.266,0,0,0,4.888,1.3c5.1,0,8.84-4.056,8.84-9.516a9.8,9.8,0,0,0-4.732-8.79c-2.132-1.248-4.888-1.82-8.476-1.82a36.813,36.813,0,0,0-5.72.468V52.049c0,2.132-.572,3.848-1.508,4.68a7.267,7.267,0,0,1-4.578,1.352c-7.02,0-12.22-4.628-12.22-10.816,0-3.952,1.976-7.49,5.772-10.246a26.544,26.544,0,0,1,8.166-3.9V23.551c-1.042.052-1.874.052-3.226.052-3.068,0-5.1-.052-9.412-.312l-.312-3.38,3.12,1.04c2.7.208,4.368.26,6.916.26.832,0,1.664,0,2.914-.052V15.335l-.416-3.224,4.732.364c.624.052,1.092.416,1.092.884s-.26.78-1.04,1.3V21a70.349,70.349,0,0,0,10.868-1.144l3.172-1.612-.208,3.848C149.588,22.563,143.5,23.135,138.512,23.4Zm-4.368,12.428c-3.538,1.456-5.254,2.5-7.074,4.472a10.136,10.136,0,0,0-2.86,6.814c0,4.472,3.328,8.06,7.436,8.06,1.82,0,2.5-.936,2.5-3.536Zm-36.92,11.91a73.132,73.132,0,0,1,7.956,5.46l-3.432,4.056A91.9,91.9,0,0,0,83.91,43.261l.884-1.456a84.277,84.277,0,0,1,10.662,4.94l.1-.1a94.819,94.819,0,0,0,10.972-20.334H86.094A61.688,61.688,0,0,1,72.626,41.649L71.534,40.4c5.876-6.344,12.064-17.42,14.612-26.26l4.994,1.508a.918.918,0,0,1,.728.832c0,.52-.364.832-1.3,1.04a71,71,0,0,1-3.12,6.448h25.9C110.536,31.143,103.568,41.387,97.224,47.733ZM55.676,58.7h-9.62V56.521H53.44c1.664,0,2.392-.728,2.392-2.444V40.971H32.9c-1.144,9-4.368,14.146-11.7,18.67l-.988-1.248a26.045,26.045,0,0,0,7.332-12.688c1.2-5.046,1.508-9.83,1.508-25.846V13.723H60.408V54.285C60.46,57.353,59,58.7,55.676,58.7Zm.156-42.9H33.626v4.056l-.052,6.136H55.832Zm0,12.272H33.522v1.872c-.052,3.484-.1,5.2-.416,8.944H55.832Zm222.194,5.044.78-.884a37.186,37.186,0,0,1,6.136,1.716,36.122,36.122,0,0,0,3.484-5.772H281.51a28.078,28.078,0,0,1-7.384,7.072l-.884-1.04a33.1,33.1,0,0,0,7.9-12.48l3.536,1.092c.364.1.572.26.572.52,0,.52-.416.832-1.248.988-.624.988-.832,1.3-1.092,1.768H293.42c-.624,2.288-2.652,5.772-5.2,9.048l-.1.1A48.121,48.121,0,0,1,296.8,40.3l-1.924,3.8a64.115,64.115,0,0,0-8.79-6.554,31.185,31.185,0,0,1-8.216,5.93h15.446V54.753H281.042v2.652H277.3V43.781c-1.3.624-1.924.884-3.848,1.664l-.52-1.4a34.95,34.95,0,0,0,10.5-8.166A47.606,47.606,0,0,0,278.026,33.119Zm3.016,19.554h8.476V45.549h-8.476ZM305.9,52.2a1.338,1.338,0,0,1,.52.884c0,.52-.728.988-1.508.988a2.154,2.154,0,0,1-.52-.052,32.181,32.181,0,0,1-11.336,5.616l-.676-1.4a36.513,36.513,0,0,0,10.556-8.528Z" transform="translate(20.21 11.799)" fill="#fff" fill-rule="evenodd"/>
  <path id="パス_17" data-name="パス 17" d="M468.126,143.02H449.118v-4.536H463.05c4.212,0,6.048-1.836,6.048-6.048V99.928H403.11v43.74h-9.5V52.3h85v80.354C478.6,139.888,475.47,143.02,468.126,143.02Zm-37.26-86.4H403.11v38.99h27.756Zm38.232,0H440.262v38.99H469.1ZM363.582,132.35a24.916,24.916,0,0,1-31.17.064q-6.738-5.442-10.432-15.358a64.9,64.9,0,0,1-3.694-22.744,64.372,64.372,0,0,1,3.694-22.68q3.693-9.846,10.5-15.292a25.242,25.242,0,0,1,31.234-.066q6.8,5.379,10.5,15.228a64.327,64.327,0,0,1,3.694,22.68,63.932,63.932,0,0,1-3.758,22.746Q370.382,126.84,363.582,132.35Zm-2.01-67.2q-4.665-10.11-13.478-10.108T334.616,65.152q-4.665,10.11-4.666,29.16,0,19.182,4.666,29.29t13.478,10.108q8.811,0,13.478-10.108t4.666-29.29Q366.238,75.262,361.572,65.152Zm-65.9,67.2a24.916,24.916,0,0,1-31.17.064q-6.741-5.442-10.432-15.358a64.9,64.9,0,0,1-3.694-22.744,64.372,64.372,0,0,1,3.694-22.68q3.693-9.846,10.5-15.292a25.239,25.239,0,0,1,31.232-.066q6.8,5.379,10.5,15.228a64.372,64.372,0,0,1,3.694,22.68,63.932,63.932,0,0,1-3.758,22.746Q302.472,126.84,295.672,132.35Zm-2.01-67.2Q289,55.042,280.184,55.044T266.706,65.152q-4.665,10.11-4.666,29.16,0,19.182,4.666,29.29t13.478,10.108q8.811,0,13.478-10.108t4.666-29.29Q298.328,75.262,293.662,65.152ZM187.39,131.9q16.458-17.886,24.042-27.022t10.886-16.006a32.786,32.786,0,0,0,3.3-14.384q0-9.459-4.212-14.322a13.667,13.667,0,0,0-10.822-4.86c-6.724,0-8.682,1.9-11.274,5.7a27.4,27.4,0,0,0-4.406,14h-7V59.45a24.26,24.26,0,0,1,9.72-6.222,37,37,0,0,1,13.09-2.332,34.367,34.367,0,0,1,12.506,2.332,22.425,22.425,0,0,1,9.98,7.582q3.951,5.25,3.952,13.414a23.949,23.949,0,0,1-3.11,11.728,74.638,74.638,0,0,1-10.3,13.48q-7.194,7.842-25.986,26.892h40.566v10.108H187.39ZM158.62,153.02l-1.944-3.11a18.917,18.917,0,0,0,5.9-4.86,10.107,10.107,0,0,0,2.786-6.414,3.951,3.951,0,0,0-.13-1.168,8.086,8.086,0,0,1-1.554.13,6.839,6.839,0,0,1-5.25-2.008,7.2,7.2,0,0,1-1.878-5.12,6.924,6.924,0,0,1,2.138-5.184,7.263,7.263,0,0,1,5.248-2.074,7.509,7.509,0,0,1,5.768,2.658q2.4,2.658,2.4,7.452a19.5,19.5,0,0,1-3.63,11.664A25.292,25.292,0,0,1,158.62,153.02ZM99.392,131.766H112.74V62.69L99.91,70.984l-2.722-4.148,21.384-14.384h4.408v79.314h12.7v4.666H99.392ZM59.54,134.552a30.479,30.479,0,0,1-28.706-.582,27.542,27.542,0,0,1-10.5-10.628l4.148-2.592a22.3,22.3,0,0,0,8.552,8.684,23.675,23.675,0,0,0,11.794,2.98,16.809,16.809,0,0,0,9.138-2.656,19.053,19.053,0,0,0,6.8-7.842A27.255,27.255,0,0,0,63.364,109.6a26.045,26.045,0,0,0-2.592-12.116,17.49,17.49,0,0,0-6.8-7.388,18.175,18.175,0,0,0-9.138-2.4,14.831,14.831,0,0,0-7.776,1.944,24.207,24.207,0,0,0-5.832,4.926H26.168l3.11-42.12H70.492V62.82H33.3L31.482,87.962a22.857,22.857,0,0,1,7.452-4.406,27.552,27.552,0,0,1,9.784-1.686,27.176,27.176,0,0,1,12.636,3.046,24.028,24.028,0,0,1,9.59,9.136,27.46,27.46,0,0,1,3.694,14.516q0,9.462-4.276,16.07A27.631,27.631,0,0,1,59.54,134.552Z" transform="translate(20.336 50.896)" fill="#fff" fill-rule="evenodd"/>
</svg>
