<svg xmlns="http://www.w3.org/2000/svg" width="1134" height="184.789" viewBox="0 0 1134 184.789">
  <g id="tit03-sp" transform="translate(0 0.015)">
    <path id="パス_9" data-name="パス 9" d="M1129.551,82.4q-.675-5.852-6.431-5.855-3.267,0-5.28,3.552a16.839,16.839,0,0,0-2.016,8.447v24.19h8.255v2.88h-21.79v-2.88h6.335V75.106h-6.239V72.323l13.151-.768.1,6.911a12.15,12.15,0,0,1,4.656-5.231,12.029,12.029,0,0,1,6.575-2.064,10.77,10.77,0,0,1,4.032.768,7.136,7.136,0,0,1,2.88,1.92V82.4Zm-63.642,9.5a28.4,28.4,0,0,0,2.064,10.511,19.257,19.257,0,0,0,5.183,7.487,10.645,10.645,0,0,0,7.055,2.736,10.957,10.957,0,0,0,7.727-3.216,13.689,13.689,0,0,0,4.175-8.015h2.976a16.18,16.18,0,0,1-2.784,7.823,16.513,16.513,0,0,1-6.287,5.471,18.539,18.539,0,0,1-8.5,1.968,17.681,17.681,0,0,1-9.791-2.784,18.855,18.855,0,0,1-6.767-7.823,26.151,26.151,0,0,1-2.448-11.567,27.359,27.359,0,0,1,2.544-11.951,20.187,20.187,0,0,1,7.1-8.351,18.245,18.245,0,0,1,10.319-3.024,16.152,16.152,0,0,1,12.191,4.9q4.7,4.9,4.7,12.863c0,.576-.066,1.57-.192,2.976Zm18.67-14.015a7.964,7.964,0,0,0-7.151-3.84,9.646,9.646,0,0,0-7.919,3.984q-3.123,3.984-3.5,10.7h20.83Q1087.025,81.733,1084.58,77.89Zm-35.084-26.4a6.714,6.714,0,0,0-5.855,2.688q-1.923,2.688-1.92,8.351v9.7H1054.1v2.88H1041.72v37.628h9.311v2.88h-23.518v-2.88h7.007V75.106h-7.007v-2.88h7.007V64.259q0-7,4.031-11.327a13.77,13.77,0,0,1,10.559-4.32,15.336,15.336,0,0,1,10.367,4.032l-2.112,2.208A10.994,10.994,0,0,0,1049.5,51.493Zm-29.757,0a6.714,6.714,0,0,0-5.855,2.688q-1.923,2.688-1.92,8.351v9.7h12.383v2.88h-12.383v37.628h9.311v2.88H997.757v-2.88h7.007V75.106h-7.007v-2.88h7.007V64.259q0-7,4.032-11.327a13.77,13.77,0,0,1,10.559-4.32,15.336,15.336,0,0,1,10.367,4.032l-2.112,2.208A10.994,10.994,0,0,0,1019.738,51.493Zm-40.076,60.186q-6.29,5.09-16.078,5.087-9.122,0-15.022-4.416a25.2,25.2,0,0,1-8.591-11.471,42.066,42.066,0,0,1-2.688-15.118,46.452,46.452,0,0,1,2.736-15.79A28.2,28.2,0,0,1,948.994,57.3q6.236-5.039,15.934-5.039,9.116,0,15.118,4.416a25.975,25.975,0,0,1,8.831,11.471,39.99,39.99,0,0,1,2.832,15.022,44.493,44.493,0,0,1-2.88,15.742A29.4,29.4,0,0,1,979.663,111.679Zm1.344-39.5a28.014,28.014,0,0,0-6.575-12.047,15.4,15.4,0,0,0-11.615-4.7q-8.738,0-12.815,6.959t-4.08,17.71q0,13.919,4.8,23.71t15.167,9.791a14.124,14.124,0,0,0,12.863-7.055q4.32-7.055,4.32-18.862A57.132,57.132,0,0,0,981.006,72.179Zm-92.583,40.556h6.143v-59.8l-6.911-.1V50.053l14.207-.768v63.45h6.143v2.88H888.424Zm-10.367,3.936a7.289,7.289,0,0,1-4.224-1.248,6.741,6.741,0,0,1-2.592-3.36,18.149,18.149,0,0,1-5.615,3.456,19.767,19.767,0,0,1-7.055,1.152,12.372,12.372,0,0,1-8.4-2.784,9.074,9.074,0,0,1-3.216-7.2q0-8.255,10.463-11.711l13.631-4.7V85.665q0-6.239-1.776-8.879t-6-2.64a7.578,7.578,0,0,0-6.431,3.072q-2.3,3.075-2.5,8.831h-4.9V75.778a14.327,14.327,0,0,1,5.855-3.312,25.942,25.942,0,0,1,7.967-1.2q7.388,0,11.279,3.456T878.441,84.9v25.341a2.291,2.291,0,0,0,2.592,2.592,4.1,4.1,0,0,0,3.168-1.536l1.344,2.016a9.978,9.978,0,0,1-3.216,2.4A9.618,9.618,0,0,1,878.057,116.67Zm-7.007-23.23-9.983,3.552a8.623,8.623,0,0,0-6.143,8.735,7.3,7.3,0,0,0,1.968,5.183,6.254,6.254,0,0,0,4.751,2.112,10.433,10.433,0,0,0,4.9-1.152,15.365,15.365,0,0,0,4.512-3.936Zm-52.987,19.294h7.775V75.106h-7.007V72.323l14.207-.96v41.372h7.775v2.88h-22.75Zm10.943-48.379a6.063,6.063,0,1,1,4.272-1.776A5.81,5.81,0,0,1,829.006,64.355Zm-39.212,45.067a9.935,9.935,0,0,0,7.247,3.12,11.269,11.269,0,0,0,8.015-3.12,14.013,14.013,0,0,0,4.176-8.015h2.976a17.661,17.661,0,0,1-5.519,10.895,16.251,16.251,0,0,1-11.567,4.368,17.193,17.193,0,0,1-17.086-11.327,29.643,29.643,0,0,1-1.92-10.751,31.07,31.07,0,0,1,2.016-11.087,19.889,19.889,0,0,1,6.527-8.831q4.509-3.5,11.615-3.5a20.817,20.817,0,0,1,13.535,4.512V85.953h-4.9a13.945,13.945,0,0,0-2.88-8.687,8.7,8.7,0,0,0-7.007-3.216,9.557,9.557,0,0,0-8.735,4.7q-2.88,4.7-2.88,12a33.846,33.846,0,0,0,1.632,10.511A19.974,19.974,0,0,0,789.794,109.423ZM738.487,91.9a28.4,28.4,0,0,0,2.064,10.511,19.257,19.257,0,0,0,5.184,7.487,10.645,10.645,0,0,0,7.055,2.736,10.957,10.957,0,0,0,7.727-3.216,13.69,13.69,0,0,0,4.176-8.015h2.976a16.179,16.179,0,0,1-2.784,7.823A16.514,16.514,0,0,1,758.6,114.7a18.539,18.539,0,0,1-8.5,1.968,17.681,17.681,0,0,1-9.791-2.784,18.855,18.855,0,0,1-6.767-7.823A26.151,26.151,0,0,1,731.1,94.5a27.36,27.36,0,0,1,2.544-11.951,20.189,20.189,0,0,1,7.1-8.351,18.245,18.245,0,0,1,10.319-3.024,16.152,16.152,0,0,1,12.191,4.9q4.7,4.9,4.7,12.863c0,.576-.066,1.57-.192,2.976Zm18.67-14.015a7.965,7.965,0,0,0-7.151-3.84,9.646,9.646,0,0,0-7.919,3.984q-3.123,3.984-3.5,10.7h20.83Q759.6,81.733,757.157,77.89Zm-42.908,35.756a18.411,18.411,0,0,1-16.894,1.728,13.637,13.637,0,0,1-5.136-3.6v21.5h6.911v2.88H678.013v-2.88h7.007V72.227h7.1l.1,4.032a12.642,12.642,0,0,1,5.184-3.744,18.989,18.989,0,0,1,7.3-1.344,17.288,17.288,0,0,1,16.366,10.367,27.01,27.01,0,0,1,2.352,11.615,29.3,29.3,0,0,1-2.4,12.143A19.781,19.781,0,0,1,714.249,113.646Zm-1.968-33.5q-3.267-5.708-9.311-5.711a10.136,10.136,0,0,0-7.727,3.216,11.635,11.635,0,0,0-3.024,8.3V102.56a10.03,10.03,0,0,0,3.36,7.823,12.283,12.283,0,0,0,8.543,3.024q5.852,0,8.639-4.32t2.784-13.247Q715.545,85.857,712.281,80.146Zm-46.027,34.413a25.04,25.04,0,0,1-10.991,2.208,29.639,29.639,0,0,1-10.991-1.92,17.358,17.358,0,0,1-7.151-4.7V98.816H642.3q.957,8.159,4.32,11.471a12.033,12.033,0,0,0,8.831,3.312q5.948,0,9.167-3.12a11.166,11.166,0,0,0,3.216-8.4,10.736,10.736,0,0,0-5.279-9.6L645.472,81.442a20.486,20.486,0,0,1-6.1-5.663,13.654,13.654,0,0,1-2.16-7.871,14.162,14.162,0,0,1,5.039-11.375q5.04-4.269,13.871-4.272a27.962,27.962,0,0,1,9.839,1.632,18.507,18.507,0,0,1,7.151,4.608V70.115h-5.183q-.771-8.351-3.648-11.567t-8.159-3.216q-6.048,0-8.783,3.072a10.733,10.733,0,0,0-2.736,7.391,9.13,9.13,0,0,0,4.416,8.255l16.8,10.751a24.32,24.32,0,0,1,7.535,6.863,14.5,14.5,0,0,1,2.256,8.015,15.922,15.922,0,0,1-9.359,14.878Zm-86.823-2.4h9.407V56.868h-9.023V53.413H606.02v3.456H597v55.29H606.4v3.456H579.431Zm-13.055,3.456h-4.416L529.516,62.724v49.435H537.2v3.456H517.709v-3.456h7.679V56.868h-7.679V53.413h15.646l28.893,46.651v-43.2h-7.679V53.413h19.486v3.456h-7.679ZM484.4,112.159h9.407V56.868h-9.023V53.413H510.99v3.456h-9.023v55.29h9.407v3.456H484.4Zm-29.853,0h7.679V63.683l-20.542,48.379h-4.416L415.959,63.3v48.859h7.391v3.456h-19.2v-3.456h7.679V56.868h-7.679V53.413h16.414L441.685,101.5l20.35-48.091h16.03v3.456h-7.679v55.29h7.679v3.456H454.547Zm-101.942.576h7.775V75.106h-7.007V72.323l14.207-.96v41.372h7.775v2.88h-22.75Zm10.943-48.379a6.063,6.063,0,1,1,4.272-1.776A5.81,5.81,0,0,1,363.548,64.355ZM328.7,112.735h6.239V86.145q0-5.663-2.208-8.639t-6.719-2.976a10.359,10.359,0,0,0-7.583,2.928,10.107,10.107,0,0,0-2.976,7.535v27.741H321.6v2.88H302.115v-2.88h6.143v-59.8h-6.911V50.149l14.111-.864V76.066a11.9,11.9,0,0,1,5.087-3.6,19.879,19.879,0,0,1,7.391-1.3q6.911,0,10.607,3.792t3.7,11.183v26.589h6.047v2.88H328.7Zm-54.187-3.312a9.935,9.935,0,0,0,7.247,3.12,11.269,11.269,0,0,0,8.015-3.12,14.013,14.013,0,0,0,4.176-8.015h2.976a17.661,17.661,0,0,1-5.519,10.895,16.251,16.251,0,0,1-11.567,4.368,17.193,17.193,0,0,1-17.086-11.327,29.643,29.643,0,0,1-1.92-10.751,31.071,31.071,0,0,1,2.016-11.087,19.889,19.889,0,0,1,6.527-8.831q4.509-3.5,11.615-3.5a20.818,20.818,0,0,1,13.535,4.512V85.953h-4.9a13.946,13.946,0,0,0-2.88-8.687,8.7,8.7,0,0,0-7.007-3.216,9.557,9.557,0,0,0-8.735,4.7q-2.88,4.7-2.88,12a33.847,33.847,0,0,0,1.632,10.511A19.974,19.974,0,0,0,274.517,109.423Zm-33.453,1.968q-4.515,5.279-12.191,5.279-6.722,0-10.655-3.6t-3.936-11.279V75.106h-6.047v-2.88h13.343v29.565q0,6.143,2.448,8.831a8.012,8.012,0,0,0,6.191,2.688,12.252,12.252,0,0,0,7.487-2.5q3.357-2.5,3.36-8.447V75.106h-6.143v-2.88h13.343v40.508h6.143v2.784l-13.151.672Zm-43,5.279a7.289,7.289,0,0,1-4.224-1.248,6.741,6.741,0,0,1-2.592-3.36,18.149,18.149,0,0,1-5.615,3.456,19.767,19.767,0,0,1-7.055,1.152,12.372,12.372,0,0,1-8.4-2.784,9.074,9.074,0,0,1-3.216-7.2q0-8.255,10.463-11.711l13.631-4.7V85.665q0-6.239-1.776-8.879t-6-2.64a7.578,7.578,0,0,0-6.431,3.072q-2.3,3.075-2.5,8.831h-4.9V75.778a14.327,14.327,0,0,1,5.855-3.312,25.941,25.941,0,0,1,7.967-1.2q7.388,0,11.279,3.456T198.445,84.9v25.341a2.291,2.291,0,0,0,2.592,2.592,4.1,4.1,0,0,0,3.168-1.536l1.344,2.016a9.978,9.978,0,0,1-3.216,2.4A9.618,9.618,0,0,1,198.061,116.67Zm-7.007-23.23-9.983,3.552a8.623,8.623,0,0,0-6.143,8.735,7.3,7.3,0,0,0,1.968,5.183,6.254,6.254,0,0,0,4.752,2.112,10.433,10.433,0,0,0,4.9-1.152,15.366,15.366,0,0,0,4.512-3.936Zm-39.74-16.894q-3.267,0-5.279,3.552a16.839,16.839,0,0,0-2.016,8.447v24.19h8.255v2.88h-21.79v-2.88h6.335V75.106H130.58V72.323l13.151-.768.1,6.911a13.036,13.036,0,0,1,11.231-7.3,10.77,10.77,0,0,1,4.032.768,7.136,7.136,0,0,1,2.88,1.92V82.4h-4.224Q157.07,76.549,151.314,76.546Zm-39.356,34.844q-4.515,5.279-12.191,5.279-6.722,0-10.655-3.6t-3.936-11.279V75.106H79.129v-2.88H92.472v29.565q0,6.143,2.448,8.831a8.012,8.012,0,0,0,6.191,2.688,12.252,12.252,0,0,0,7.487-2.5q3.357-2.5,3.36-8.447V75.106h-6.143v-2.88h13.343v40.508H125.3v2.784l-13.151.672Zm-61.338.768H58.3V63.683L37.757,112.063H33.342L12.032,63.3v48.859h7.391v3.456H.225v-3.456H7.9V56.868H.225V53.413H16.639L37.757,101.5l20.35-48.091h16.03v3.456H66.458v55.29h7.679v3.456H50.62Z" transform="translate(0.225 48.618)" fill="#bb3636" fill-rule="evenodd"/>
    <path id="パス_10" data-name="パス 10" d="M0-.015H247.965V68.208H0Z" transform="translate(0 0)" fill="#ed5700" fill-rule="evenodd"/>
    <path id="パス_11" data-name="パス 11" d="M217.318,49.006l2.166-.432V51.6l-2.166-.432H192.2v2.97h-4.06V30.321a50.143,50.143,0,0,1-5.305,5.453l-.974-1.08a53.918,53.918,0,0,0,8.661-16.308l3.9,1.406c.758.27,1.03.54,1.03.864,0,.54-.434.864-1.516.972-1.3,2.268-1.842,3.186-2.438,4.05H202.16a66.841,66.841,0,0,0,2.056-6.859l4.17,1.3c.434.162.7.432.7.81,0,.54-.434.864-1.516,1.026a25,25,0,0,1-2.762,3.618l-.108.108h11.533l2.164-.432V28.27l-2.164-.432H205.949v5.345h8.661l2.166-.432v3.024l-2.166-.432h-8.661V40.96h8.661l2.166-.432v3.024l-2.166-.432h-8.661v5.885ZM202,27.838h-9.8v5.345H202Zm0,7.505h-9.8V40.96H202Zm0,7.777h-9.8v5.885H202Zm15.05-25.489H186.837V7.8h3.736c.758,0,1.138.216,1.138.7,0,.378-.162.594-.866,1.08v5.885h8.769V5.428h3.9c.758,0,1.136.216,1.136.7,0,.324-.162.54-.866,1.08v8.261h9.2V7.8h3.79c.758,0,1.138.216,1.138.7,0,.378-.162.594-.866,1.08Zm-36.436-.162V54.135H176.55V26.272a57.138,57.138,0,0,1-5.467,8.531L170,33.885a125.088,125.088,0,0,0,6.983-17.82,96.689,96.689,0,0,0,2.924-11.177l4.44,1.4a1.072,1.072,0,0,1,.812.918c0,.54-.434.972-1.246,1.08C182.452,12.609,181.748,14.715,180.612,17.469Zm-21.054,36.4h-7.471V51.6h4.548c1.732,0,2.49-.756,2.49-2.484v-25.6h-15.97V6.724H163.4V49.977C163.4,52.731,162.264,53.865,159.558,53.865Zm-.434-44.981H147.213v5.021h11.911Zm0,7.181H147.213v5.293h11.911Zm-36.706,38.07H118.14V6.724h19.546V23.518H122.418ZM133.625,8.884H122.418v5.021h11.207Zm0,12.475V16.065H122.418v5.293ZM104.18,24.652v7.667h4.114l2.166-.432v3.024l-2.166-.432H104.18V50.085c.054,3.024-1.354,4.322-4.6,4.322H91.889v-2.27H97.2c1.786,0,2.544-.756,2.544-2.538V34.479H83.066l-2.112.432V31.887l2.112.432H99.74V24.652H82.2l-2.164.432V22.06l2.164.432H92.377V14.283H84.04l-2.166.432V11.691l2.166.432h8.337v-6.7h4.17c.758,0,1.136.216,1.136.7,0,.378-.162.54-.866,1.08v4.914h9.257l2.166-.432v3.024l-2.166-.432H96.816v8.209h12.615l2.112-.432v3.024l-2.112-.432ZM68.231,50.3H64.224V8.074H78.572V44.416H68.231Zm6.333-40.068H68.231V24.76h6.333Zm0,32.023V26.92H68.231V42.256Zm-25.113,11.5H41.438V51.489h5.793c2.058,0,2.924-.864,2.924-2.97V9.478h-35.3v44.5h-4.55V7.318H54.7V48.574C54.757,52.191,53.133,53.757,49.451,53.757ZM44.362,16.821l2.166-.432v3.134l-2.166-.432H20.648l-2.166.432V16.389l2.166.432Zm-.65,26.407H25.249v4.428H20.974V26.434H43.712ZM39.488,28.594H25.249V41.068H39.488ZM94.651,43.5,90.645,47.17A47.635,47.635,0,0,0,84.2,38.639L85.393,37.4A26.594,26.594,0,0,1,94.651,43.5ZM132.7,37.829c.108-2.7.162-5.077.162-6.589V30h-3.682l-2.166.432V27.406l2.166.432h23.064l2.166-.432v3.024L152.249,30h-4.006v7.831h6.063l2.166-.432V40.42l-2.166-.432h-6.063V52.515h-4.17V39.988h-7.417c-.432,3.942-.92,5.561-2.274,7.559a15.142,15.142,0,0,1-8.283,5.507l-.758-1.35c4.928-2.538,6.767-5.453,7.2-11.717h-5.359l-2.112.432V37.4l2.112.432Zm11.369,0V30h-7.037v1.242c0,2.052-.054,4.212-.218,6.589Z" transform="translate(10.305 4.902)" fill="#fff" fill-rule="evenodd"/>
  </g>
</svg>
