<svg xmlns="http://www.w3.org/2000/svg" width="1014" height="135.198" viewBox="0 0 1014 135.198">
  <path id="tit05-sp" d="M1013.213,134.014a4.639,4.639,0,1,1,1.345-3.267A4.447,4.447,0,0,1,1013.213,134.014Zm-19.253.5h-3.535l-25.98-42.35v39.582H970.6v2.768h-15.6v-2.768h6.149V87.476h-6.149V84.71H967.52l23.136,37.353V87.476h-6.149V84.71h15.6v2.766H993.96Zm-60.1-2.768h5.612l-5.534-15.6H917.41l-5.534,15.6h5.61v2.768H903.113v-2.768h5.458L925.556,84.71h3.613l17.063,47.036h5.456v2.768H933.856Zm-8.07-38.429h-.306l-7.071,19.907h14.449Zm-44.808,38.429h6.149V92.932L870.68,131.67h-3.537L850.08,92.626v39.12H856v2.768H840.627v-2.768h6.149V87.476h-6.149V84.71h13.142l16.911,38.506L886.972,84.71h12.836v2.766h-6.149v44.27h6.149v2.768H880.978Zm-62.486-19.829v19.829h6.763v2.768H805.2v-2.768h6.763v-17.83l-13.144-26.44h-6.149V84.71h19.523v2.766H806.04l10.606,21.6,11.068-21.6h-6.149V84.71h15.756v2.766h-6.149Zm-53.341-.384H758v20.214h6.073v2.768H745.321v-2.768h6.149V87.476h-6.149V84.71h22.365q7.533,0,11.3,3.727a12.791,12.791,0,0,1,3.767,9.491,13.147,13.147,0,0,1-2.844,8.571,13.3,13.3,0,0,1-7.762,4.574l13.835,20.674h5.532v2.768H779.754Zm7.956-5.879a11.347,11.347,0,0,0,2.5-7.572,11.659,11.659,0,0,0-2.422-7.686,7.841,7.841,0,0,0-6.341-2.92H758v21.136h8.839A7.869,7.869,0,0,0,773.107,105.654ZM734.561,87.476H725.03v44.27H731.8v2.768H711.734v-2.768H718.5V87.476h-9.529l-4,10.606h-2.844V84.71h39.122V98.082H738.4Zm-41.888,47.038h-3.535l-25.98-42.35v39.582h6.149v2.768h-15.6v-2.768h6.149V87.476h-6.149V84.71h12.528l23.136,37.353V87.476H683.22V84.71h15.6v2.766h-6.149Zm-49.19-14.6q0,7.07-4.535,11.3t-12.065,4.227q-7.689,0-12.221-4.305t-4.535-12.374V87.476h-6.149V84.71h18.83v2.766h-6.149v32.051q0,6.455,3.19,9.453a11.793,11.793,0,0,0,8.416,3,12.257,12.257,0,0,0,8.569-3.036q3.345-3.035,3.345-9.339V87.476h-6.073V84.71h15.45v2.766h-6.073Zm-53.531,11.451q-5.035,4.077-12.874,4.075-7.3,0-12.029-3.537a20.171,20.171,0,0,1-6.879-9.185,33.7,33.7,0,0,1-2.152-12.105,37.214,37.214,0,0,1,2.19-12.642A22.574,22.574,0,0,1,565.4,87.822q5-4.035,12.758-4.035a19.885,19.885,0,0,1,12.105,3.535,20.773,20.773,0,0,1,7.071,9.185,32,32,0,0,1,2.268,12.029,35.622,35.622,0,0,1-2.306,12.6A23.526,23.526,0,0,1,589.952,131.362Zm1.075-31.626a22.4,22.4,0,0,0-5.264-9.645,12.323,12.323,0,0,0-9.3-3.767q-6.992,0-10.26,5.572t-3.267,14.181q0,11.145,3.843,18.985t12.143,7.838a11.308,11.308,0,0,0,10.3-5.648q3.459-5.65,3.459-15.1A45.706,45.706,0,0,0,591.027,99.735Zm-64.445,28.514a11.258,11.258,0,0,0,8.607,3.729,13.353,13.353,0,0,0,13.22-11.068h2.92a17.49,17.49,0,0,1-3.072,7.456,17.17,17.17,0,0,1-5.919,5.188,15.951,15.951,0,0,1-7.61,1.883q-7.686,0-12.566-3.691a20.674,20.674,0,0,1-7.033-9.415,33.882,33.882,0,0,1-2.152-12.027,36.431,36.431,0,0,1,2.228-12.72,22.143,22.143,0,0,1,7.15-9.916q4.918-3.879,12.45-3.881a23.43,23.43,0,0,1,8.647,1.421,25.846,25.846,0,0,1,6.419,3.651v9.223h-4.381q-.615-6.149-3.689-8.993a10.694,10.694,0,0,0-7.532-2.842q-7.3,0-10.876,5.494t-3.573,14.181A46.927,46.927,0,0,0,521.47,118.6,22.974,22.974,0,0,0,526.582,128.249Zm-59.49,3.5h7.532V87.476H467.4V84.71h20.982v2.766h-7.226v44.27h7.532v2.768h-21.6Zm-10.452,2.768H453.1l-25.978-42.35v39.582h6.149v2.768h-15.6v-2.768h6.149V87.476h-6.149V84.71H430.2l23.136,37.353V87.476h-6.151V84.71h15.6v2.766H456.64ZM420.4,18.427l-.128-1.791a32.129,32.129,0,0,1,11.271-1.665,31.744,31.744,0,0,1,12.554,2.05l-3.587,5.25C435.32,19.772,427.57,18.3,420.4,18.427Zm-13.13-6.211c-4.868,14.473-9.285,24.4-15.434,34.775l-4.868-3.136A141.455,141.455,0,0,0,401.5,12.408h-2.5c-3.971,0-6.213-.064-10.824-.384l-.32-4.355,3.459,1.473c3.459.192,5.7.32,11.143.32l.064-.192.769-2.626c.128-.448.384-1.409.7-2.69l.512-3.267,5.636,1.089a1.035,1.035,0,0,1,.9,1.025c0,.448-.192.769-1.153,1.409-.576,1.857-1.153,3.587-1.345,4.163a7.618,7.618,0,0,0-.256.9c3.523-.192,6.149-.448,10.7-.961l3.971-1.986-.192,4.547C417.452,11.576,412.136,12.024,407.268,12.216ZM367.1,131.746h6.149V92.932L356.8,131.67h-3.535L336.2,92.626v39.12h5.919v2.768H326.748v-2.768H332.9V87.476h-6.149V84.71H339.89L356.8,123.215,373.094,84.71H385.93v2.766h-6.149v44.27h6.149v2.768H367.1Zm6.989-74.891H362.562c-5.124-.128-7.174-1.409-7.3-4.483V29.443H360c.9,0,1.345.256,1.345.833,0,.384-.192.64-1.025,1.281V40.14c6.339-2.882,10.374-5.124,12.808-7.109l4.035,3.715a1.492,1.492,0,0,1,.448.961c0,.448-.576.833-1.281.833-.384,0-.9-.064-1.473-.128a83.869,83.869,0,0,1-14.217,3.715l-.32.064v7.94c0,1.6.512,1.921,3.329,2.05h10.376c2.626-.064,3.587-.7,3.779-2.434l.32-3.651,2.562.256-.448,5.828C380.045,55.445,378.252,56.854,374.089,56.854Zm-.448-29.461H362.562c-5.124-.128-7.174-1.409-7.3-4.483V.623H360c.9,0,1.345.256,1.345.833,0,.448-.192.7-1.025,1.281V11.9c6.659-3.074,10.054-5,12.616-7.109l4.1,3.779a.96.96,0,0,1,.32.769c0,.576-.512.961-1.281.961a11.733,11.733,0,0,1-1.345-.128,96.762,96.762,0,0,1-14.409,3.779v6.723c0,1.6.512,1.921,3.329,2.05h9.928c2.69-.064,3.651-.7,3.779-2.434l.384-3.777,2.562.32-.448,5.891C379.661,25.921,377.8,27.33,373.64,27.394ZM326.888,58.456V22.142h23.12V52.755c.064,3.715-1.6,5.316-5.508,5.316h-6.533v-2.69h4.419c1.921,0,2.626-.769,2.69-3.01v-7.94H331.692V58.456ZM345.076,24.7H331.692v6.981h13.384Zm0,17.165V34.247H331.692v7.622Zm2.114-25.81-1.089.192c-4.1.961-14.345,2.5-20.238,3.072-.384.9-.7,1.217-1.281,1.217-.512,0-.769-.256-1.025-1.153l-1.409-4.545c1.345.064,2.37.064,3.074.064s1.793,0,3.587-.128a98.409,98.409,0,0,0,5-14.539l5.122,1.409c.961.32,1.345.64,1.345,1.281s-.384.9-1.729,1.281a61.96,61.96,0,0,1-6.787,9.864l-.512.64,3.2-.128c6.211-.256,8.324-.384,11.4-.576h.32a45.8,45.8,0,0,0-3.779-6.4l1.473-1.153a39.169,39.169,0,0,1,10.376,11.719l-5,2.754C348.407,18.811,347.959,17.724,347.19,16.059ZM308.823,6.772V52.883c0,4.419-1.857,6.277-6.213,6.277H290.25V56.15h9.285c2.5,0,3.587-1.025,3.587-3.459V6.772H260.341l-2.562.512V3.57l2.562.512h53.8L316.7,3.57V7.284l-2.562-.512ZM225.369,48.08V59.16h-5.252V48.08H196.292l-2.562.512V45.007l2.562.51h23.824V39.371H200.968V15.291h19.149V9.526H198.534l-2.5.512V6.452l2.5.512h21.583V.239h4.932c.9,0,1.345.256,1.345.9,0,.384-.192.64-1.025,1.217V6.964h22.479l2.5-.512v3.587l-2.5-.512H225.369v5.764h20.045v24.08H225.369v6.147h24.721l2.562-.51v3.585l-2.562-.512Zm-5.252-30.229h-13.9v7.942h13.9Zm0,10.5h-13.9v8.454h13.9Zm20.045-10.5H225.369v7.942h14.793Zm0,18.959V28.355H225.369v8.454ZM188.554,87.476V84.71h15.6v2.766H198.01v47.038h-3.537l-25.978-42.35v39.582h6.149v2.768h-15.6v-2.768h6.149V87.476h-6.149V84.71h12.528L194.7,122.062V87.476ZM180.66,58.648h-8.006v-2.69h5.828c1.793,0,2.562-.833,2.562-2.69V15.547h-9.031c-.192,4.033-.448,6.467-.7,8.324a67.058,67.058,0,0,1,9.159,16.461l-4.227,3.395c-.769-3.907-1.921-7.558-5.38-17.037l-.064.192c-1.471,7.814-4.353,13.13-9.477,17.549L160.1,43.278c4.227-5.572,6.533-14.475,7.045-27.731H159.27V58.776h-4.8V12.985h12.81c.064-2.114.128-4.932.128-8.839V.3h4.674c.9,0,1.281.256,1.281.833,0,.448-.192.64-1.025,1.281V4.21c0,2.818-.064,5.764-.192,8.775h13.9V53.652C186.1,57.111,184.439,58.648,180.66,58.648ZM146.652,21.437a23.934,23.934,0,0,1,6.213,10.184l-4.1,2.178c-.512-2.306-.769-3.2-1.089-4.355l-.32.064-.32.064c-.7.192-1.857.448-3.266.7v28.5H139.1v-27.6H138.9c-1.025.192-1.986.32-2.946.512-.448.064-1.345.192-2.626.384-.576.961-.961,1.281-1.409,1.281a1.083,1.083,0,0,1-.9-.833L129.681,28.1l2.562-.064,2.562-.064H135A138.979,138.979,0,0,0,146.844,8.117l4.548,2.562a.947.947,0,0,1,.576.833c0,.64-.512,1.025-1.921,1.409a132.674,132.674,0,0,1-11.975,14.986c3.395-.192,6.6-.32,8.581-.448l.448-.064a33.809,33.809,0,0,0-1.986-5Zm-10.246-8a16.894,16.894,0,0,1,3.843,3.395l-3.2,4.8a51.316,51.316,0,0,0-7.366-10.182l.833-1.409a27.906,27.906,0,0,1,3.971,2.114A77.474,77.474,0,0,0,139.1.239l5.058,2.242c.512.256.833.576.833.961,0,.64-.64,1.153-1.984,1.409A67.053,67.053,0,0,1,136.406,13.433ZM116.739,58.776h-7.43v-2.69h5.252c1.921,0,2.754-.833,2.754-2.818V36.937H105.725c-.769,11.207-4.547,17.932-12.682,22.223L91.89,57.815a23.831,23.831,0,0,0,7.43-10.824c1.6-4.417,2.306-14.6,2.306-33.494V2.737h20.622V53.588C122.311,57.239,120.646,58.776,116.739,58.776ZM117.316,5.3H106.429v8.2l-.064,4.674h10.95Zm0,15.434H106.3c-.064,1.729-.064,3.843-.064,4.355-.064,2.37-.064,4.035-.064,4.419l-.256,4.676v.192h11.4Zm-23.7-8.9V39.307h2.754l2.562-.512v3.587l-2.562-.512H68.514l-2.562.512V38.795l2.562.512h3.971V11.832H69.731l-2.562.512V8.758l2.562.512h2.754V.623h4.483c.9,0,1.345.256,1.345.833,0,.448-.192.7-1.025,1.281V9.27H88.816V.623H93.3c.9,0,1.345.256,1.345.9,0,.384-.192.64-1.025,1.217V9.27h2.818L99,8.758v3.587l-2.562-.512Zm-4.8,0H77.289v6.979H88.816Zm0,9.541H77.289v7.238H88.816Zm0,9.8H77.289v8.134H88.816ZM79.208,46.158a1.206,1.206,0,0,1,.64.961c0,.64-.831,1.025-2.176,1.025-4.291,4.419-7.109,6.6-11.145,8.711l-.9-1.409a59.251,59.251,0,0,0,9.287-12.167Zm7.43-2.176a41.12,41.12,0,0,1,9.543,6.6l-3.907,3.907a71.036,71.036,0,0,0-6.917-9.031Zm-30.2,62.784H79.108V87.476H73.114V84.71H91.79v2.766H85.641v44.27H91.79v2.768H73.114v-2.768h5.995V109.689H56.435v22.057h5.995v2.768H43.753v-2.768H49.9V87.476H43.753V84.71H62.429v2.766H56.435ZM33.605,42.509V59.16H28.033V42.509H4.145l-2.562.512V39.435l2.562.512H28.033V30.917H10.165V2.993H52.05V30.917H33.605v9.031H57.942l2.562-.512v3.587l-2.562-.512ZM46.541,5.555H15.672v9.8h30.87Zm0,22.8V17.915H15.672v10.44ZM39.68,98.082H36.836L32.993,87.476H23.462v44.27h6.763v2.768H10.165v-2.768h6.763V87.476H7.4l-4,10.606H.558V84.71H39.68Zm94.613,0h-2.92L127.3,87.476H109.544v19.291h12.067V100.85h3.535v14.755h-3.535v-5.917H109.544v22.057h18.37l4.073-10.76h2.92v13.528H96.862v-2.768h6.149V87.476H96.862V84.71h37.431Zm-4.612-45.135a106.314,106.314,0,0,0,2.5-17.163l4.676,1.473c.7.192.961.448.961.833,0,.7-.448,1.153-1.473,1.537a59.309,59.309,0,0,1-5.124,13.961Zm23.12-5.828-4.612,2.562a75.6,75.6,0,0,0-2.562-13.32l1.6-.576A36.749,36.749,0,0,1,152.8,47.119Zm93.091,50.963h-2.92L238.9,87.476H221.143v19.291h12.067V100.85h3.535v14.755h-3.535v-5.917H221.143v22.057h18.37l4.073-10.76h2.92v13.528H208.462v-2.768h6.149V87.476h-6.149V84.71h37.431Zm18.484-50.9V17.6H291.6V41.549h-21.9v5.634Zm21.9-8.2V20.156H269.693v18.83ZM269.719,87.476H263.57l10.53,36.662,12.528-39.122h3.228l14.065,38.892,10.068-36.432h-6.071V84.71h15.064v2.766H317.3L304,134.514h-3.535L286.7,95.622l-12.528,38.892h-3.535L256.574,87.476H250.5V84.71h19.215Zm128.815,0H391.31V84.71h20.982v2.766h-7.226v44.27H412.6v2.768H391v-2.768h7.532Zm28.27-33.76c-1.409,2.5-4.612,3.843-9.031,3.843-8.2,0-14.155-4.419-14.155-10.5,0-6.019,5-9.605,13.322-9.605a34.521,34.521,0,0,1,5.636.448V29.187l-.192-4.74,5.058.064c.961,0,1.537.384,1.537,1.025,0,.448-.256.7-1.281,1.409V38.923a39.13,39.13,0,0,1,15.628,8.517l-3.779,4.8c-4.1-4.035-9.223-7.748-11.849-8.645v5.314A9.737,9.737,0,0,1,426.8,53.716Zm-4.227-11.463a23.528,23.528,0,0,0-6.661-.9c-3.779,0-6.725.9-8.006,2.37a4.386,4.386,0,0,0-1.153,2.944c0,3.779,4.355,6.533,10.248,6.533,3.779,0,5.572-1.473,5.572-4.547Z" transform="translate(-0.558 -0.239)" fill="#69C9F1" fill-rule="evenodd"/>
</svg>
