<svg xmlns="http://www.w3.org/2000/svg" width="719.057" height="43.776" viewBox="0 0 719.057 43.776">
  <g id="tit03" transform="translate(0 -0.613)">
    <path id="パス_5" data-name="パス 5" d="M716.945,17.509a2.925,2.925,0,0,0-3.216-2.928,2.994,2.994,0,0,0-2.64,1.776,8.42,8.42,0,0,0-1.008,4.224v12.1h4.128v1.44h-10.9v-1.44h3.168V13.861h-3.12V12.469l6.576-.384.048,3.456a6.076,6.076,0,0,1,2.328-2.616,6.015,6.015,0,0,1,3.288-1.032,5.386,5.386,0,0,1,2.016.384,3.568,3.568,0,0,1,1.44.96v4.272Zm-31.824,4.752a14.2,14.2,0,0,0,1.032,5.256,9.629,9.629,0,0,0,2.592,3.744,5.323,5.323,0,0,0,3.528,1.368,5.479,5.479,0,0,0,3.864-1.608,6.845,6.845,0,0,0,2.088-4.008h1.488a8.091,8.091,0,0,1-1.392,3.912,8.257,8.257,0,0,1-3.144,2.736,9.27,9.27,0,0,1-4.248.984,8.841,8.841,0,0,1-4.9-1.392,9.429,9.429,0,0,1-3.384-3.912,13.077,13.077,0,0,1-1.224-5.784,13.681,13.681,0,0,1,1.272-5.976,10.1,10.1,0,0,1,3.552-4.176,9.123,9.123,0,0,1,5.16-1.512,8.077,8.077,0,0,1,6.1,2.448,8.9,8.9,0,0,1,2.352,6.432c0,.288-.033.785-.1,1.488Zm9.336-7.008a3.983,3.983,0,0,0-3.576-1.92,4.823,4.823,0,0,0-3.96,1.992,9.339,9.339,0,0,0-1.752,5.352h10.416A9.593,9.593,0,0,0,694.457,15.253Zm-17.544-13.2A3.358,3.358,0,0,0,673.985,3.4a7.242,7.242,0,0,0-.96,4.176v4.848h6.192v1.44h-6.192V32.677h4.656v1.44h-11.76v-1.44h3.5V13.861h-3.5v-1.44h3.5V8.437a7.969,7.969,0,0,1,2.016-5.664,6.886,6.886,0,0,1,5.28-2.16,7.669,7.669,0,0,1,5.184,2.016l-1.056,1.1A5.5,5.5,0,0,0,676.913,2.053Zm-14.88,0A3.358,3.358,0,0,0,659.1,3.4a7.242,7.242,0,0,0-.96,4.176v4.848h6.192v1.44h-6.192V32.677H662.8v1.44h-11.76v-1.44h3.5V13.861h-3.5v-1.44h3.5V8.437a7.969,7.969,0,0,1,2.016-5.664,6.886,6.886,0,0,1,5.28-2.16,7.669,7.669,0,0,1,5.184,2.016l-1.056,1.1A5.5,5.5,0,0,0,662.033,2.053Zm-20.04,30.1a12.37,12.37,0,0,1-8.04,2.544,12.2,12.2,0,0,1-7.512-2.208,12.6,12.6,0,0,1-4.3-5.736,21.034,21.034,0,0,1-1.344-7.56,23.229,23.229,0,0,1,1.368-7.9,14.1,14.1,0,0,1,4.488-6.336,12.274,12.274,0,0,1,7.968-2.52,12.425,12.425,0,0,1,7.56,2.208,12.988,12.988,0,0,1,4.416,5.736,20,20,0,0,1,1.416,7.512,22.249,22.249,0,0,1-1.44,7.872A14.7,14.7,0,0,1,641.993,32.149Zm.672-19.752a14.008,14.008,0,0,0-3.288-6.024,7.7,7.7,0,0,0-5.808-2.352,6.892,6.892,0,0,0-6.408,3.48,17.31,17.31,0,0,0-2.04,8.856,26.717,26.717,0,0,0,2.4,11.856,7.946,7.946,0,0,0,7.584,4.9,7.063,7.063,0,0,0,6.432-3.528q2.16-3.528,2.16-9.432A28.568,28.568,0,0,0,642.665,12.4Zm-46.3,20.28h3.072V2.773l-3.456-.048V1.333l7.1-.384V32.677h3.072v1.44h-9.792Zm-5.184,1.968a3.645,3.645,0,0,1-2.112-.624,3.371,3.371,0,0,1-1.3-1.68,9.075,9.075,0,0,1-2.808,1.728,9.885,9.885,0,0,1-3.528.576,6.187,6.187,0,0,1-4.2-1.392,4.537,4.537,0,0,1-1.608-3.6q0-4.128,5.232-5.856l6.816-2.352v-2.3a8.293,8.293,0,0,0-.888-4.44,3.35,3.35,0,0,0-3-1.32,3.789,3.789,0,0,0-3.216,1.536,7.7,7.7,0,0,0-1.248,4.416h-2.448V14.2a7.164,7.164,0,0,1,2.928-1.656,12.972,12.972,0,0,1,3.984-.6,8.233,8.233,0,0,1,5.64,1.728,6.453,6.453,0,0,1,1.944,5.088V31.429a1.146,1.146,0,0,0,1.3,1.3,2.048,2.048,0,0,0,1.584-.768l.672,1.008a4.989,4.989,0,0,1-1.608,1.2A4.809,4.809,0,0,1,591.185,34.645Zm-3.5-11.616-4.992,1.776a4.312,4.312,0,0,0-3.072,4.368,3.652,3.652,0,0,0,.984,2.592,3.127,3.127,0,0,0,2.376,1.056,5.217,5.217,0,0,0,2.448-.576,7.684,7.684,0,0,0,2.256-1.968Zm-26.5,9.648h3.888V13.861h-3.5V12.469l7.1-.48V32.677h3.888v1.44H561.185Zm5.472-24.192a2.905,2.905,0,0,1-2.136-.888,2.907,2.907,0,0,1-.888-2.136,2.91,2.91,0,0,1,.888-2.136,3.013,3.013,0,0,1,4.272,0,2.918,2.918,0,0,1,.888,2.136,2.915,2.915,0,0,1-.888,2.136A2.912,2.912,0,0,1,566.657,8.485ZM547.049,31.021a4.968,4.968,0,0,0,3.624,1.56,5.635,5.635,0,0,0,4.008-1.56,7.007,7.007,0,0,0,2.088-4.008h1.488a8.832,8.832,0,0,1-2.76,5.448,8.126,8.126,0,0,1-5.784,2.184,8.6,8.6,0,0,1-8.544-5.664,14.823,14.823,0,0,1-.96-5.376,15.537,15.537,0,0,1,1.008-5.544,9.946,9.946,0,0,1,3.264-4.416,9.19,9.19,0,0,1,5.808-1.752,10.41,10.41,0,0,1,6.768,2.256v5.136h-2.448a6.973,6.973,0,0,0-1.44-4.344,4.351,4.351,0,0,0-3.5-1.608,4.779,4.779,0,0,0-4.368,2.352,11.335,11.335,0,0,0-1.44,6,16.925,16.925,0,0,0,.816,5.256A9.988,9.988,0,0,0,547.049,31.021Zm-25.656-8.76a14.2,14.2,0,0,0,1.032,5.256,9.629,9.629,0,0,0,2.592,3.744,5.323,5.323,0,0,0,3.528,1.368,5.479,5.479,0,0,0,3.864-1.608,6.846,6.846,0,0,0,2.088-4.008h1.488a8.09,8.09,0,0,1-1.392,3.912,8.258,8.258,0,0,1-3.144,2.736,9.27,9.27,0,0,1-4.248.984,8.841,8.841,0,0,1-4.9-1.392,9.428,9.428,0,0,1-3.384-3.912,13.076,13.076,0,0,1-1.224-5.784,13.681,13.681,0,0,1,1.272-5.976,10.1,10.1,0,0,1,3.552-4.176,9.123,9.123,0,0,1,5.16-1.512,8.077,8.077,0,0,1,6.1,2.448,8.9,8.9,0,0,1,2.352,6.432c0,.288-.033.785-.1,1.488Zm9.336-7.008a3.983,3.983,0,0,0-3.576-1.92,4.823,4.823,0,0,0-3.96,1.992,9.339,9.339,0,0,0-1.752,5.352h10.416A9.594,9.594,0,0,0,530.729,15.253Zm-21.456,17.88a9.206,9.206,0,0,1-8.448.864,6.819,6.819,0,0,1-2.568-1.8V42.949h3.456v1.44h-10.56v-1.44h3.5V12.421h3.552l.048,2.016a6.322,6.322,0,0,1,2.592-1.872,9.5,9.5,0,0,1,3.648-.672,8.645,8.645,0,0,1,8.184,5.184,13.506,13.506,0,0,1,1.176,5.808,14.65,14.65,0,0,1-1.2,6.072A9.891,9.891,0,0,1,509.273,33.133Zm-.984-16.752a5.314,5.314,0,0,0-8.52-1.248,5.818,5.818,0,0,0-1.512,4.152v8.3a5.016,5.016,0,0,0,1.68,3.912,6.142,6.142,0,0,0,4.272,1.512,4.776,4.776,0,0,0,4.32-2.16q1.391-2.16,1.392-6.624A15.886,15.886,0,0,0,508.289,16.381ZM485.273,33.589a12.521,12.521,0,0,1-5.5,1.1,14.821,14.821,0,0,1-5.5-.96,8.68,8.68,0,0,1-3.576-2.352V25.717H473.3q.479,4.08,2.16,5.736a6.017,6.017,0,0,0,4.416,1.656,6.319,6.319,0,0,0,4.584-1.56,5.584,5.584,0,0,0,1.608-4.2,5.369,5.369,0,0,0-2.64-4.8l-8.544-5.52a10.244,10.244,0,0,1-3.048-2.832,6.827,6.827,0,0,1-1.08-3.936,7.082,7.082,0,0,1,2.52-5.688,10.4,10.4,0,0,1,6.936-2.136,13.983,13.983,0,0,1,4.92.816,9.254,9.254,0,0,1,3.576,2.3v5.808h-2.592q-.386-4.176-1.824-5.784a5.194,5.194,0,0,0-4.08-1.608,5.608,5.608,0,0,0-4.392,1.536,5.367,5.367,0,0,0-1.368,3.7,4.565,4.565,0,0,0,2.208,4.128l8.4,5.376a12.162,12.162,0,0,1,3.768,3.432,7.252,7.252,0,0,1,1.128,4.008,7.962,7.962,0,0,1-4.68,7.44Zm-43.416-1.2h4.7V4.741h-4.512V3.013h13.1V4.741h-4.512V32.389h4.7v1.728H441.857Zm-6.528,1.728h-2.208L416.9,7.669v24.72h3.84v1.728h-9.744V32.389h3.84V4.741h-3.84V3.013h7.824l14.448,23.328V4.741h-3.84V3.013h9.744V4.741h-3.84Zm-40.992-1.728h4.7V4.741h-4.512V3.013h13.1V4.741h-4.512V32.389h4.7v1.728H394.337Zm-14.928,0h3.84V8.149L372.977,32.341h-2.208L360.113,7.957V32.389h3.7v1.728h-9.6V32.389h3.84V4.741h-3.84V3.013h8.208l10.56,24.048L383.153,3.013h8.016V4.741h-3.84V32.389h3.84v1.728h-11.76Zm-50.976.288h3.888V13.861h-3.5V12.469l7.1-.48V32.677h3.888v1.44H328.433ZM333.9,8.485a2.9,2.9,0,0,1-2.136-.888,2.907,2.907,0,0,1-.888-2.136,2.91,2.91,0,0,1,.888-2.136,3.013,3.013,0,0,1,4.272,0,2.918,2.918,0,0,1,.888,2.136,2.914,2.914,0,0,1-.888,2.136A2.911,2.911,0,0,1,333.9,8.485ZM316.481,32.677h3.12v-13.3a7.181,7.181,0,0,0-1.1-4.32,3.917,3.917,0,0,0-3.36-1.488,5.18,5.18,0,0,0-3.792,1.464,5.054,5.054,0,0,0-1.488,3.768V32.677h3.072v1.44h-9.744v-1.44h3.072V2.773H302.8V1.381l7.056-.432V14.341a5.948,5.948,0,0,1,2.544-1.8,9.941,9.941,0,0,1,3.7-.648,7.073,7.073,0,0,1,5.3,1.9,7.709,7.709,0,0,1,1.848,5.592v13.3h3.024v1.44h-9.792Zm-27.1-1.656a4.968,4.968,0,0,0,3.624,1.56,5.635,5.635,0,0,0,4.008-1.56,7.007,7.007,0,0,0,2.088-4.008h1.488a8.831,8.831,0,0,1-2.76,5.448,8.126,8.126,0,0,1-5.784,2.184,8.6,8.6,0,0,1-8.544-5.664,14.823,14.823,0,0,1-.96-5.376,15.537,15.537,0,0,1,1.008-5.544,9.946,9.946,0,0,1,3.264-4.416,9.191,9.191,0,0,1,5.808-1.752,10.41,10.41,0,0,1,6.768,2.256v5.136h-2.448a6.974,6.974,0,0,0-1.44-4.344,4.351,4.351,0,0,0-3.5-1.608,4.779,4.779,0,0,0-4.368,2.352,11.335,11.335,0,0,0-1.44,6,16.924,16.924,0,0,0,.816,5.256A9.988,9.988,0,0,0,289.385,31.021Zm-16.728.984a8.546,8.546,0,0,1-11.424.84q-1.969-1.8-1.968-5.64V13.861h-3.024v-1.44h6.672V27.2q0,3.072,1.224,4.416a4.007,4.007,0,0,0,3.1,1.344,6.127,6.127,0,0,0,3.744-1.248q1.679-1.248,1.68-4.224V13.861h-3.072v-1.44h6.672V32.677h3.072v1.392l-6.576.336Zm-21.5,2.64a3.645,3.645,0,0,1-2.112-.624,3.371,3.371,0,0,1-1.3-1.68,9.075,9.075,0,0,1-2.808,1.728,9.885,9.885,0,0,1-3.528.576,6.187,6.187,0,0,1-4.2-1.392,4.537,4.537,0,0,1-1.608-3.6q0-4.128,5.232-5.856l6.816-2.352v-2.3a8.293,8.293,0,0,0-.888-4.44,3.35,3.35,0,0,0-3-1.32,3.789,3.789,0,0,0-3.216,1.536,7.7,7.7,0,0,0-1.248,4.416h-2.448V14.2a7.164,7.164,0,0,1,2.928-1.656,12.972,12.972,0,0,1,3.984-.6,8.233,8.233,0,0,1,5.64,1.728,6.453,6.453,0,0,1,1.944,5.088V31.429a1.146,1.146,0,0,0,1.3,1.3,2.048,2.048,0,0,0,1.584-.768l.672,1.008a4.99,4.99,0,0,1-1.608,1.2A4.809,4.809,0,0,1,251.153,34.645Zm-3.5-11.616-4.992,1.776a4.312,4.312,0,0,0-3.072,4.368,3.653,3.653,0,0,0,.984,2.592,3.128,3.128,0,0,0,2.376,1.056,5.217,5.217,0,0,0,2.448-.576,7.684,7.684,0,0,0,2.256-1.968Zm-19.872-8.448a2.994,2.994,0,0,0-2.64,1.776,8.42,8.42,0,0,0-1.008,4.224v12.1h4.128v1.44h-10.9v-1.44h3.168V13.861h-3.12V12.469l6.576-.384.048,3.456a6.075,6.075,0,0,1,2.328-2.616,6.015,6.015,0,0,1,3.288-1.032,5.386,5.386,0,0,1,2.016.384,3.568,3.568,0,0,1,1.44.96v4.272h-2.112A2.925,2.925,0,0,0,227.777,14.581ZM208.1,32.005a8.546,8.546,0,0,1-11.424.84q-1.97-1.8-1.968-5.64V13.861h-3.024v-1.44h6.672V27.2q0,3.072,1.224,4.416a4.007,4.007,0,0,0,3.1,1.344,6.127,6.127,0,0,0,3.744-1.248q1.678-1.248,1.68-4.224V13.861h-3.072v-1.44H211.7V32.677h3.072v1.392l-6.576.336Zm-30.672.384h3.84V8.149L170.993,32.341h-2.208L158.129,7.957V32.389h3.7v1.728h-9.6V32.389h3.84V4.741h-3.84V3.013h8.208l10.56,24.048L181.169,3.013h8.016V4.741h-3.84V32.389h3.84v1.728h-11.76Z" fill="#bb3636" fill-rule="evenodd"/>
    <path id="パス_6" data-name="パス 6" d="M0,4.984H121V40H0Z" fill="#ed5700" fill-rule="evenodd"/>
    <path id="パス_7" data-name="パス 7" d="M111.946,31.954l1.074-.214v1.5l-1.074-.214H99.488V34.5H97.475V22.688a25.045,25.045,0,0,1-2.632,2.7l-.483-.536a26.732,26.732,0,0,0,4.3-8.087l1.933.7c.376.134.51.268.51.428,0,.268-.215.429-.752.482-.644,1.125-.912,1.58-1.208,2.009h5.289a33.515,33.515,0,0,0,1.021-3.4l2.067.642c.215.081.349.215.349.4,0,.268-.215.429-.752.509a12.407,12.407,0,0,1-1.369,1.794l-.054.054h5.719l1.074-.214v1.5l-1.074-.214h-5.1v2.651h4.3l1.074-.214v1.5l-1.074-.215h-4.3v2.786h4.3l1.074-.215v1.5l-1.074-.214h-4.3v2.919Zm-7.6-10.5h-4.86v2.651h4.86Zm0,3.722h-4.86v2.786h4.86Zm0,3.857h-4.86v2.919h4.86Zm7.464-12.64H96.83V11.521h1.853c.376,0,.564.107.564.348,0,.187-.081.294-.43.535v2.919h4.35V10.342H105.1c.376,0,.563.107.563.348,0,.161-.08.268-.429.536v4.1H109.8v-3.8h1.88c.376,0,.563.107.563.348,0,.187-.08.294-.429.535Zm-18.069-.081V34.5H91.729V20.679a28.406,28.406,0,0,1-2.712,4.232l-.537-.456a62.041,62.041,0,0,0,3.464-8.837,47.445,47.445,0,0,0,1.449-5.544l2.2.7a.532.532,0,0,1,.4.455c0,.268-.215.482-.618.536C94.655,13.9,94.306,14.948,93.743,16.314ZM83.3,34.364H79.6V33.239h2.255c.859,0,1.235-.375,1.235-1.232V19.314h-7.92V10.985H85.208V32.436C85.208,33.8,84.645,34.364,83.3,34.364Zm-.215-22.308H77.181v2.491h5.906Zm0,3.562H77.181v2.624h5.906ZM64.884,34.5H62.763V10.985h9.692v8.329H64.884Zm5.558-22.442H64.884v2.491h5.558Zm0,6.186V15.618H64.884v2.624Zm-14.6,1.634v3.8h2.04l1.074-.214v1.5L57.88,24.75H55.84v7.739c.026,1.5-.672,2.143-2.283,2.143H49.745V33.507h2.631c.886,0,1.262-.375,1.262-1.259v-7.5h-8.27l-1.047.214v-1.5l1.047.214h8.27v-3.8h-8.7l-1.074.214v-1.5l1.074.214h5.047V14.734H45.852l-1.074.214v-1.5l1.074.214h4.134V10.342h2.068c.376,0,.564.107.564.348,0,.188-.081.268-.43.536v2.437h4.591l1.074-.214v1.5l-1.074-.214H52.188v4.071h6.256l1.047-.214v1.5l-1.047-.214ZM38.012,32.6H36.025V11.654H43.14V29.678H38.012Zm3.141-19.871H38.012v7.2h3.141Zm0,15.88V21H38.012v7.605ZM28.7,34.311H24.725V33.186H27.6c1.021,0,1.45-.429,1.45-1.473V12.351H11.543V34.418H9.287V11.28H31.3V31.74C31.33,33.534,30.525,34.311,28.7,34.311ZM26.175,15.993l1.074-.214v1.553l-1.074-.214H14.415l-1.073.214V15.779l1.073.214Zm-.322,13.095H16.7v2.2H14.577V20.76H25.853Zm-2.094-7.257H16.7v6.186h7.061Zm27.355,7.391-1.987,1.821a23.582,23.582,0,0,0-3.195-4.231l.591-.616A13.189,13.189,0,0,1,51.114,29.222ZM69.985,26.41c.054-1.339.081-2.517.081-3.267v-.616H68.24l-1.074.214v-1.5l1.074.214H79.678l1.074-.214v1.5l-1.074-.214H77.691V26.41H80.7l1.074-.214v1.5L80.7,27.482H77.691v6.213H75.623V27.482H71.945a7.118,7.118,0,0,1-1.128,3.749,7.508,7.508,0,0,1-4.107,2.731l-.376-.669c2.443-1.259,3.356-2.7,3.571-5.811H67.246L66.2,27.7V26.2l1.047.214Zm5.638,0V22.527h-3.49v.616c0,1.018-.027,2.089-.107,3.267Z" fill="#fff" fill-rule="evenodd"/>
  </g>
</svg>
