<svg xmlns="http://www.w3.org/2000/svg" width="858.493" height="46.909" viewBox="0 0 858.493 46.909">
  <g id="tit02" transform="translate(0 -0.908)">
    <path id="パス_25" data-name="パス 25" d="M836.442,18.166a53.366,53.366,0,0,1,22.051,10.2l-3.4,4.551a49.663,49.663,0,0,0-18.651-12.9v26.5h-4.65V6.615l-.35-3,5,.35c.6.05,1,.4,1,.85s-.35.85-1,1.2Zm-58.9,25.451c-.35.8-.75,1.15-1.3,1.15-.5,0-.95-.4-1.25-1.1l-1.8-4.45,2.65-.05c10.6-2.2,16.3-4.75,22.952-10.151a49.624,49.624,0,0,0,12.75-16.2l1.4.65a42.154,42.154,0,0,1-10.851,18.4C795.942,37.667,788.842,41.067,777.541,43.617Zm-4.8-36.252.6-1.3c6.7,1.35,11.651,3.8,15.951,7.85l-4.1,4.151A47,47,0,0,0,772.741,7.365Zm-15.248-5.05.85-.7a10.184,10.184,0,0,1,5.8,5.3l-3.4,1.7A19.507,19.507,0,0,0,757.493,2.315Zm-2.95,7.2a19.76,19.76,0,0,0-2.8-6.55l.95-.65a10,10,0,0,1,5.3,5.65Zm-19.2,7.151,26.3-2.3c-2.4,8.2-9.05,15.3-17.8,19.052l-.8-1.3a38.667,38.667,0,0,0,12.351-14.9l-20.051,1.75V37.517c0,2.65.75,2.9,8.85,2.9,7.251,0,9.5-.15,14.151-.9v4.55a106.594,106.594,0,0,1-12.551.55c-2.15,0-5.85-.1-8.3-.15-3.35-.15-4.5-.4-5.4-1.2-.85-.7-1.3-2.35-1.3-4.6v-19.3l-10.4.9-2.3.65-.3-3.2,2.35.25,10.651-.95V7.565l-.45-3.1,5.05.35a.976.976,0,0,1,.95.9c0,.45-.25.75-1,1.3Zm-58.251,28.4V8.265l-.45-3,5.1.35a.94.94,0,0,1,.95.9c0,.4-.3.75-1,1.25V39.417c12.1-2.25,23.1-10.4,29.4-21.751l1.4.7a36.307,36.307,0,0,1-13.7,18.4C692.942,41.017,683.842,44.517,677.091,45.067Zm-17.7-33.652a5.046,5.046,0,0,1-3.1-1.05c-.95,7.751-2.8,13.4-6.25,19.151-5.4,8.7-12.951,13.5-25.6,16.3l-.55-1.7c15.551-5.05,24.5-15.7,27.052-32.1h-28.6l-2.2.45V9.315l2.2.4,33.3.05a5.165,5.165,0,0,1-1.3-3.4,5.076,5.076,0,0,1,10.151,0A5.112,5.112,0,0,1,659.393,11.415Zm0-8.1a3.1,3.1,0,0,0-3.05,3.05,3.106,3.106,0,0,0,3.1,3.05,3.05,3.05,0,1,0-.05-6.1Zm-61.85,31.7a41.382,41.382,0,0,0-5.751-11.351l1.3-.9a28.785,28.785,0,0,1,8.6,9.45Zm12.8,7.15c-.45,4-1.9,5.45-5.65,5.4h-8.5v-2.1h6.4c1.5.05,2.4-.4,2.9-1.55.7-.65,1.95-17.251,2.25-30.2H594.392a34.92,34.92,0,0,1-6.1,7.9l-1.2-.95c3.3-5.551,5.3-10.8,7.15-18.551l4.451,1.05a1.16,1.16,0,0,1,.9.95c0,.55-.45.9-1.45,1.15-1.5,3.85-2,5.05-2.7,6.45h16.7C611.943,21.116,610.943,37.567,610.343,42.167ZM575.291,23.616h.6c3.8-.15,4.951-.2,7.051-.3l.95-.1a21.826,21.826,0,0,0-1.95-4l1.15-.65a17.58,17.58,0,0,1,6.05,7.95l-3.75,1.75c-.45-1.75-.65-2.5-1-3.55-.55.15-1.15.25-1.75.4l-2.25.45h-.15V47.817h-3.851v-21.6c-1.85.35-2.15.35-5.85.9-.45.6-.75.85-1.1.85a.967.967,0,0,1-.75-.65l-1.05-3.5,3-.05,1.05-.05h1.1l.1-.15a113.257,113.257,0,0,0,9.751-15.3l3.6,2a.841.841,0,0,1,.5.75c0,.6-.4.9-1.5,1A121.832,121.832,0,0,1,575.291,23.616Zm-1.85-10.8a13.129,13.129,0,0,1,3.45,2.9l-2.55,3.7a40.527,40.527,0,0,0-6.45-8.3l.7-1.1a17.843,17.843,0,0,1,3.35,1.8,50.655,50.655,0,0,0,3.95-9.7l4.1,1.75a.986.986,0,0,1,.7.85c0,.55-.4.85-1.6,1.1A52.183,52.183,0,0,1,573.441,12.815Zm-21.1,22.6a24.064,24.064,0,0,0,5.4,6.6,4.258,4.258,0,0,0,2.05,1.15c.9,0,1.45-2.05,2-7.8l1.8.25c-.2,4.45-.6,7.4-1.3,9.25-.55,1.65-1.55,2.7-2.55,2.7-2.85,0-7-3.75-10.3-9.2a35.727,35.727,0,0,1-16,9.2l-.45-1.5a40.312,40.312,0,0,0,14.6-11c-2.7-5.651-4.3-12.951-4.9-22.252h-17.1v3.6l-.05,5.051h13.851c-.15,8.1-.45,14.6-.75,15.2-.5,2.1-1.9,3-4.4,3h-5.9v-2.1h3.951c1.85-.05,2.45-.7,2.65-2.85.25-3.5.5-7.8.55-11.251h-9.951c0,6.75-.1,8.65-.75,12.551a20.772,20.772,0,0,1-6.1,11.6l-1.05-.85c3.35-6.3,3.95-10.8,3.8-30.352v-5.6h21.151c-.05-1.15-.1-2.35-.1-3.9V2.165h3.75c.7,0,1.051.2,1.051.65,0,.35-.15.5-.8,1v3.1c0,1.6.05,2.75.1,3.9h14l2-.4v2.8l-2-.4h-13.9c.5,8,1.55,13.251,3.65,18.451a52,52,0,0,0,5.55-12.7l3.6,1.4c.65.3.95.6.95,1.05,0,.55-.4.85-1.35,1.1a67.045,67.045,0,0,1-6.95,12.9l.1.15Zm-1.75-31.452,1.15-.8a18.482,18.482,0,0,1,6.55,3.65l-4,2.85A30.811,30.811,0,0,0,550.593,3.965Zm-43.15-1.65.8-.7a10.016,10.016,0,0,1,5.9,5.2l-3.351,1.8A20.1,20.1,0,0,0,507.443,2.315Zm-2.85,7.05a20.667,20.667,0,0,0-2.9-6.5l.9-.65a9.981,9.981,0,0,1,5.4,5.55Zm-1.15,3.85a47.022,47.022,0,0,0-13.351-1.6,84.26,84.26,0,0,0-14.1,1.15l-.4-1.7c5.551-2.5,10.351-3.35,18.951-3.35a42.854,42.854,0,0,1,8.9.75Zm-28.1,19.752c0,5.45,5.451,8.05,16.851,8.05a77.906,77.906,0,0,0,15.751-1.5v5.1a107.559,107.559,0,0,1-14.5.95c-5.3,0-10.3-.55-12.95-1.45-5.051-1.7-7.951-5-7.951-9.05,0-2.751.8-5.251,2.7-8.451l1.65.7C475.741,29.866,475.341,31.216,475.341,32.967ZM444.492,21.116c9.251,0,15.151,4.4,15.151,11.3,0,7.751-7.6,13.851-17.251,13.851-7.85,0-14-3.65-14-8.3,0-3.25,2.751-5.5,6.7-5.5a12.3,12.3,0,0,1,8.55,3.8,16.326,16.326,0,0,1,3.7,5.6,11.112,11.112,0,0,0,4.45-2.65,9.616,9.616,0,0,0,3.2-7.151c0-5.3-4.15-8.5-11-8.5-4.5,0-7.95.85-14,3.5l-6.451,5.4-2.45-2.95,26-21.9c-4.951.3-10.351.45-19.5.5l-.4-3.55,3.1,1.15c11.5-.15,13.2-.2,18.5-.55l1.45-1.4,3.4,1.8a1.407,1.407,0,0,1,.9,1.2c0,.7-.6,1.1-2.05,1.35l-17.451,14.7A26.235,26.235,0,0,1,444.492,21.116Zm-9.55,14.051c-2.15,0-3.55,1.05-3.55,2.6a3.557,3.557,0,0,0,2.25,3.1,17.991,17.991,0,0,0,8.55,2,7.938,7.938,0,0,0,2.2-.2h.15C442.542,37.917,438.992,35.167,434.942,35.167Zm-44.4-17.7c-3.6-5.151-4.25-5.8-5.75-5.8-1.05,0-1.85.6-2.9,2.05-2.051,2.9-5.4,8.3-9.6,15.5,0,1-.3,1.55-.9,1.55a1.624,1.624,0,0,1-1.1-.65l-2.85-3.15,1.75-1.75c3.35-4.15,4.3-5.3,7.3-9.3a61.273,61.273,0,0,1,3.9-4.95,5.913,5.913,0,0,1,4.35-1.9,6.388,6.388,0,0,1,4.1,1.5,28.877,28.877,0,0,1,4.4,5.05c9.351,11.8,13.3,16.251,20.352,23.252l-3.551,4.25C404.443,36.867,401.293,32.716,390.542,17.466Zm14.8-14.1.85-.7a9.9,9.9,0,0,1,5.85,5.2l-3.3,1.75A20.4,20.4,0,0,0,405.343,3.365Zm-2.8,7.8a21.979,21.979,0,0,0-2.9-6.55l.9-.65a10.141,10.141,0,0,1,5.4,5.55Zm-48.8,35.5c-5.1,0-11.1-.1-13.751-.2-5.85-.3-8.35-1-10.9-3a14.928,14.928,0,0,1-2.45-2.55,43.337,43.337,0,0,1-5.55,4.85c-.25,1.1-.6,1.65-1.1,1.65a.868.868,0,0,1-.75-.55l-1.6-4.35a46.439,46.439,0,0,0,6.35-2.5l.15-.05V23.116h-4.25l-2,.4v-2.8l2,.4h8.15V39.567a9.512,9.512,0,0,0,4.051,2.5c1.95.65,5.85.95,13.25.95,6.2,0,14.9-.15,18.3-.35a31.882,31.882,0,0,0-1.151,3.95C358.593,46.667,355.943,46.667,353.743,46.667Zm5.45-27.251h-7.45c-2.9-.05-3.9-.7-4.05-2.65v-6.5h10.05V6.315h-8.55l-2,.4V4.065l2,.4h11.85v7.65h-9.95v3.05c0,1.15.25,1.351,1.9,1.4h6.4c1,0,1.25-.251,1.45-1.2l.4-1.9,1.9.35-.5,2.751C362.243,18.666,361.393,19.416,359.193,19.416Zm-22.051-2.85h5.3c.95,0,1.2-.2,1.45-1.151l.45-1.95,1.9.35-.6,2.8c-.4,2.1-1.25,2.8-3.4,2.8h-6.3c-2.85-.05-3.9-.7-4-2.65v-6.5h9.5V6.315h-8.05l-2,.4V4.065l2,.4h11.35v7.65h-9.5v3.05C335.242,16.315,335.492,16.516,337.142,16.566Zm22.4,25.151a63.658,63.658,0,0,0-10.45-5.6l.85-1.2a56.42,56.42,0,0,1,12.3,3.45Zm-16.6-5.15a1.1,1.1,0,0,1,.45.75c0,.45-.65.8-1.4.8h-.5a41.708,41.708,0,0,1-10.55,3.1l-.45-1.2a33.379,33.379,0,0,0,9.55-5.55Zm-13.251-5.5,2,.4h6.4v-5.45h-4.55l-2,.4v-2.8l2,.4h4.55v-3.35h3.35c.7,0,1.05.2,1.05.65,0,.35-.15.5-.8,1v1.7h8.451v-3.35h3.35c.7,0,1.05.2,1.05.65,0,.35-.15.5-.8,1v1.7h4.8l1.95-.4v2.8l-1.95-.4h-4.8v5.45h6.6l2-.4v2.8l-2-.4H331.692l-2,.4Zm12,.4h8.451v-5.45h-8.451Zm-22-26.451.65-1.25a22.647,22.647,0,0,1,9.5,3.55l-2.8,4.35A32.094,32.094,0,0,0,319.691,5.015Zm254.5,26c.55.15.75.4.75.8,0,.5-.35.8-1.2,1.051-1.8,5.6-2.5,7.15-5,10.95l-1.1-.55a62.719,62.719,0,0,0,2.6-13.4Zm14.951,8.7-4.05,1.75a59.127,59.127,0,0,0-2.6-11.1l1.35-.5A28.546,28.546,0,0,1,589.142,39.717Z" fill="#69c9f1" fill-rule="evenodd"/>
    <path id="パス_26" data-name="パス 26" d="M0,.908H289.121V46H0Z" fill="#003016" fill-rule="evenodd"/>
    <path id="パス_27" data-name="パス 27" d="M254.83,24.907V21.272L283.8,22.345v1.523Zm-10.44-5.815c.035,8.964-1.11,12.183-5.586,15.575a21.82,21.82,0,0,1-9.508,3.772l-.243-1.038a20.125,20.125,0,0,0,8.189-4.742c3.123-3.149,3.886-5.814,3.921-13.359V10.439l-.312-2.076,3.574.242a.624.624,0,0,1,.659.588c0,.312-.173.554-.694.9Zm-16.76,8.687H224.4V10.958l-.312-2.076,3.574.277a.624.624,0,0,1,.659.588c0,.277-.173.519-.694.9Zm-15.54-2.353-2.36,3.149a34.463,34.463,0,0,0-12.943-8.929V37.989H193.56V10.37l-.242-2.077,3.469.243c.417.034.694.277.694.588s-.242.588-.694.831v8.41A37.064,37.064,0,0,1,212.09,25.426ZM155.916,35.982c-.242.554-.52.8-.9.8-.347,0-.659-.277-.867-.761L152.9,32.936l1.839-.034c7.356-1.523,11.312-3.288,15.927-7.026a34.368,34.368,0,0,0,8.848-11.214l.972.45a29.153,29.153,0,0,1-7.53,12.736C168.686,31.863,163.759,34.217,155.916,35.982Zm-3.331-25.093.417-.9a21.444,21.444,0,0,1,11.069,5.434L161.225,18.3A32.6,32.6,0,0,0,152.585,10.889Zm-36.047,23.5-1.562.311V32.486l1.562.312h11.936V13.658h-8.779l-1.527.312V11.754l1.527.312h21.236l1.527-.312V13.97l-1.527-.312H131.84V32.8h12.249l1.561-.312V34.7l-1.561-.311ZM81.045,13.9l-1.388.277V12.239l1.388.277h8.293l-.035-.1a18.631,18.631,0,0,0-2.637-4.395l1.007-.589a12.689,12.689,0,0,1,5,3.6l-2.706,1.488H98.5a22.664,22.664,0,0,0,2.359-5.261l2.985.762c.52.138.763.346.763.623,0,.415-.416.692-1.215.8a13.975,13.975,0,0,1-3.157,3.08h9.959l1.388-.277v1.938l-1.388-.277Zm-7.8,14.571V34.6H70.467V33.213H61.1V36.4c.935,1.869.067,2.7-2.015,2.7H54.678V37.643H57.7c1.145-.034,1.492-.415,1.527-1.557V33.213H49.265l-1.388.277V31.552l1.388.277h9.959V28.471H46.316l-1.354.277V26.81l1.354.277H59.224v-3.15H49.265l-1.388.277V22.276l1.388.277h9.959V19.992H48.814V13.9h10.41V11.339H46.559l-1.388.277V9.678l1.388.277H59.224v-2.7h2.6c.486,0,.729.139.729.45,0,.242-.1.381-1.455.692V9.955H75.29l1.388-.277v1.938l-1.388-.277H61.1V13.9H72.722v6.092H61.1v2.561H73.243v4.534h2.29l1.353-.277v1.938l-1.353-.277ZM59.224,15.285H51.59v3.322h7.634Zm10.722,3.322V15.285H61.1v3.322Zm.521,5.33H61.1v3.15h9.367Zm0,4.534H61.1v3.358h9.367Zm-36.4-1a20.105,20.105,0,0,1-3.678,5.572,62.185,62.185,0,0,1,10.167,3.5L38.548,39.1a84.267,84.267,0,0,0-10.1-4.43c-3.817,2.7-9.231,3.98-17.558,4.084l-.313-1.142c7.322-.589,11.9-1.8,15.025-3.911h-.069c-2.915-.866-3.436-1-6.316-1.7l-.312-.07c-.52.623-.8.935-1.7,1.9l-2.6-1a51.121,51.121,0,0,0,4.546-5.364h-7.53l-1.353.277V25.806l1.353.277h8.5l.069-.1a31.1,31.1,0,0,0,2.117-3.357l.069-.1H13.322V14.073h7.7V10.266H12.662l-1.388.277V8.6l1.388.277H39.971L41.359,8.6v1.938l-1.388-.277H30.984v3.807h8.154v8.445H25.57c-.555.969-1.283,2.112-2.29,3.565H40.8l1.388-.277v1.939L40.8,27.468ZM21.025,15.458h-5v5.676h5Zm9.959,5.676H36.4V15.458H30.984Zm-7.391,0h4.823V15.458H23.593Zm0-7.061h4.823V10.266H23.593Zm-1.284,13.4a41.189,41.189,0,0,1-2.568,3.426l.486.069c2.186.312,4.58.727,7.252,1.35a12.838,12.838,0,0,0,3.47-4.845Zm72.512,8.479c.034,1.9-.833,2.7-2.915,2.7H88.124V37.193h2.567c1.041-.034,1.388-.38,1.423-1.453v-5.4H84.792v8.549H82.051V17.465h12.77Zm-2.707-17.1H84.792v4.222h7.322Zm0,5.607H84.792v4.5h7.322Zm9.994-5.677c0,.243-.139.381-.556.693V32.729H98.811v-14.4h2.568C101.865,18.331,102.108,18.469,102.108,18.78Zm4.059,16.89V17.015h2.707c.486,0,.729.139.729.45,0,.243-.139.381-.556.692v17.79c.035,1.869-.867,2.7-2.949,2.7h-4.511V37.193h3.088C105.786,37.159,106.133,36.813,106.167,35.67Z" fill="#69c9f1" fill-rule="evenodd"/>
  </g>
</svg>
