<svg xmlns="http://www.w3.org/2000/svg" width="310" height="38" viewBox="0 0 310 38">
  <g id="tit01" transform="translate(-167 -674)">
    <rect id="長方形_5" data-name="長方形 5" width="310" height="38" transform="translate(167 674)" fill="none"/>
    <path id="パス_1" data-name="パス 1" d="M291.278,14.361a42.674,42.674,0,0,1,17.637,8.158l-2.72,3.64A39.733,39.733,0,0,0,291.278,15.84v21.2h-3.72V5.122l-.279-2.4,4,.28c.48.04.8.32.8.679s-.28.68-.8.96ZM244.159,34.717c-.28.64-.6.92-1.04.92-.4,0-.76-.32-1-.88L240.68,31.2l2.119-.04c8.479-1.76,13.038-3.8,18.357-8.119a39.691,39.691,0,0,0,10.2-12.958l1.12.52A33.711,33.711,0,0,1,263.8,25.319C258.877,29.958,253.2,32.678,244.159,34.717ZM240.32,5.722l.48-1.04a24.682,24.682,0,0,1,12.757,6.279l-3.279,3.32A37.592,37.592,0,0,0,240.32,5.722ZM228.115,1.683l.68-.56a8.143,8.143,0,0,1,4.639,4.239l-2.719,1.36A15.6,15.6,0,0,0,228.115,1.683Zm-2.36,5.759A15.793,15.793,0,0,0,223.516,2.2l.76-.52A8,8,0,0,1,228.515,6.2ZM210.4,13.161l21.036-1.84C229.515,17.88,224.2,23.559,217.2,26.559l-.64-1.04A30.935,30.935,0,0,0,226.435,13.6L210.4,15V29.838c0,2.12.6,2.32,7.079,2.32a57.738,57.738,0,0,0,11.318-.72v3.639a85.241,85.241,0,0,1-10.038.44c-1.72,0-4.68-.08-6.639-.12-2.68-.12-3.6-.32-4.32-.96-.679-.56-1.039-1.879-1.039-3.679V15.321l-8.319.719-1.84.52L196.36,14l1.88.2,8.519-.76V5.882L206.4,3.4l4.039.279a.781.781,0,0,1,.76.72c0,.36-.2.6-.8,1.04ZM163.8,35.877V6.442l-.36-2.4,4.079.28a.752.752,0,0,1,.76.72c0,.32-.24.6-.8,1V31.358a34.736,34.736,0,0,0,23.517-17.4l1.119.56a29.029,29.029,0,0,1-10.958,14.717A38.651,38.651,0,0,1,163.8,35.877ZM149.635,8.962a4.037,4.037,0,0,1-2.48-.84,36.478,36.478,0,0,1-5,15.317c-4.319,6.959-10.358,10.8-20.477,13.038l-.439-1.36c12.437-4.039,19.6-12.558,21.636-25.676H119.1l-.86.36V7.282l.86.32,27.535.04a4.132,4.132,0,0,1-1.04-2.72,4.06,4.06,0,0,1,8.119,0A4.089,4.089,0,0,1,149.635,8.962Zm0-6.479a2.475,2.475,0,0,0-2.44,2.439,2.485,2.485,0,0,0,2.48,2.44,2.44,2.44,0,1,0-.04-4.879ZM97.477,19.72l-.04.08a23.409,23.409,0,0,1-2,3.159h16.357a107.786,107.786,0,0,1-1.839,12.878c-.4,1.6-1.32,2.24-3.24,2.24h-5.159V36.4h3.48c1.359,0,1.679-.4,2.119-2.56.52-2.559,1.24-7.078,1.48-9.4h-2.48a17.186,17.186,0,0,1-4.719,8.2c-3.119,2.879-5.759,4-11.758,5.079l-.32-1.08c7.8-2.36,11.758-5.879,13.678-12.2h-2.96c-2.6,5.079-5.439,7.4-11.718,9.478l-.4-1.079c4.48-2.2,6.759-4.28,9-8.4h-2.72a19.807,19.807,0,0,1-8.2,5.6l-.48-.88c4.239-2.8,6.679-5.439,8.638-9.438H89.238l-1.6.32V17.8l1.6.32h22.2l1.6-.32v2.24l-1.6-.32Zm-6-17.037h17.757v12.8H91.478Zm3,11.2h11.638V9.8H94.477Zm0-5.679h11.638V4.282H94.477Zm-9.838,4.719v12c1.52-.64,2.52-1.08,4.719-2.12l.44.96A46.85,46.85,0,0,1,78.72,30.438c-.24.68-.44.88-.84.88a.712.712,0,0,1-.64-.52l-1-3.16c2.56-.679,3.52-.959,5.239-1.519v-13.2h-3.4l-1.6.32V11l1.6.32h3.4V1.763h2.96c.56,0,.84.16.84.52,0,.28-.12.44-.64.8v8.238h3.079l1.6-.32v2.24l-1.6-.32Zm-39.6,5.319a26.286,26.286,0,0,0-3.8-7.319l.8-.68a15.475,15.475,0,0,1,6.119,5.719Zm21.916-5.479A24.6,24.6,0,0,1,61.2,18.52l-.88-.68a28.8,28.8,0,0,0,3.96-8.119l3.319,1.6c.48.24.64.4.64.64,0,.4-.52.8-1.12.8Zm4.16,22.756c-6.759-3-11.679-7.279-14.958-13.078V38.117H52.838V24.679l-.08.08C48.518,29.918,44.039,33.118,36.84,36l-.6-1A44.1,44.1,0,0,0,51.6,21.12h-13l-1.6.319V19.2l1.6.32H52.838v-11H39.72l-1.6.32V6.6l1.6.32H52.838v-5.2h3.119c.56,0,.84.16.84.56,0,.24-.12.4-.64.76V6.922h13.4l1.6-.32v2.24l-1.6-.32h-13.4v11H70.715l1.559-.32v2.239l-1.559-.319H56.6C59.556,25.439,66.635,30,73.034,31.8A26.952,26.952,0,0,0,71.115,35.517ZM28.075,1.683l.64-.56a8.009,8.009,0,0,1,4.719,4.159l-2.679,1.44A16.071,16.071,0,0,0,28.075,1.683ZM25.8,7.322a16.494,16.494,0,0,0-2.319-5.2l.72-.52a7.984,7.984,0,0,1,4.319,4.439ZM24.876,10.4A37.606,37.606,0,0,0,14.2,9.122a67.481,67.481,0,0,0-11.278.919L2.6,8.682C7.039,6.682,10.878,6,17.757,6a34.277,34.277,0,0,1,7.119.6ZM2.4,26.2c0,4.359,4.36,6.439,13.478,6.439a62.3,62.3,0,0,0,12.6-1.2v4.079a86.014,86.014,0,0,1-11.6.76,37.435,37.435,0,0,1-10.358-1.16c-4.04-1.36-6.359-4-6.359-7.239A12.708,12.708,0,0,1,2.319,21.12l1.32.559A10.146,10.146,0,0,0,2.4,26.2Z" transform="translate(167.84 673.117)" fill="#bb3636" fill-rule="evenodd"/>
  </g>
</svg>
