<svg xmlns="http://www.w3.org/2000/svg" width="605.366" height="36.514" viewBox="0 0 605.366 36.514">
  <path id="tit04" d="M599.868,36.719a6.259,6.259,0,1,1,6.239-6.279A6.273,6.273,0,0,1,599.868,36.719Zm-.08-10.678a4.419,4.419,0,1,0,4.479,4.359A4.457,4.457,0,0,0,599.788,26.041Zm-34.481,10.6-.2-1.24a29.181,29.181,0,0,0,9.118-3.679,14.684,14.684,0,0,0,5.079-5.079,14.989,14.989,0,0,0,1.96-7.559c0-2.48-.72-4.559-1.92-5.639a7.724,7.724,0,0,0-4.8-1.52c-3.919,0-8.558,1.2-14.4,3.68-.36.719-.64,1-1.04,1-.36,0-.64-.32-.76-.879l-.56-3.12,2.12-.2c7.038-1.92,10.718-2.559,14.517-2.559,7.279,0,10.838,3.159,10.838,9.678a14.821,14.821,0,0,1-4.279,11C577.705,33.719,571.666,36.079,565.307,36.639Zm-1.44-34.314.12-1.36h1.12l2.2-.04h1.12c5.2,0,8.559.68,11.478,2.28l-2.719,3.2C574.345,4.484,569.586,3.045,563.867,2.325ZM530.106,35.279c-.24,0-1.08.04-2.44.08-.36.04-1.04.04-1.839.08l-.08-1.44a42.157,42.157,0,0,0,9.078-1.479c5.679-1.64,8.839-4.76,8.839-8.719a6.451,6.451,0,0,0-1.68-4.4c-1.48-1.56-3.52-2.24-6.8-2.24-3.959,0-7.039.8-11.358,2.92l-5.8,5.079-2.16-2.36,21-18.357a147.476,147.476,0,0,1-15.558.6l-.24-2.839,2.4,1a120.3,120.3,0,0,0,14.558-.76l1.319-1.16,2.76,1.64a1.3,1.3,0,0,1,.6,1.039c0,.6-.56.92-1.88,1.12l-13,11.438a24.817,24.817,0,0,1,7.919-1.359,16.509,16.509,0,0,1,7.959,1.759,7.9,7.9,0,0,1,3.879,6.879,10.2,10.2,0,0,1-5.519,8.719C539.1,34.079,535.065,35,530.106,35.279Zm-34.961-24-.08-1.12A20.086,20.086,0,0,1,502.1,9.124a19.841,19.841,0,0,1,7.839,1.279l-2.24,3.28A29.821,29.821,0,0,0,495.145,11.283Zm-8.2-3.879a106.251,106.251,0,0,1-9.638,21.716l-3.04-1.959a88.359,88.359,0,0,0,9.079-19.637h-1.56c-2.479,0-3.879-.04-6.759-.24l-.2-2.72,2.16.92c2.16.12,3.559.2,6.959.2l.04-.12.48-1.64c.08-.279.24-.879.44-1.679l.32-2.04,3.519.68a.647.647,0,0,1,.56.64c0,.28-.12.48-.72.88-.36,1.16-.72,2.239-.84,2.6a4.761,4.761,0,0,0-.16.56c2.2-.12,3.84-.28,6.679-.6l2.48-1.239-.12,2.839C493.3,7,489.986,7.284,486.946,7.4ZM460.784,32.56c-4.159,0-6.839-.44-9.078-1.52a7.267,7.267,0,0,1-3.92-6.839,10.762,10.762,0,0,1,1.32-5.159l1.2.32a11.239,11.239,0,0,0-.52,3.439,5.263,5.263,0,0,0,2.479,4.88c1.64.919,3.76,1.319,7.2,1.319a41.982,41.982,0,0,0,8.759-.84V31.1A15.909,15.909,0,0,1,460.784,32.56Zm-1.44-23.876a48.468,48.468,0,0,0-9.838,1.04l-.28-1.2A22.882,22.882,0,0,1,461.584,5.4a31.8,31.8,0,0,1,5.119.36V9.4A33.956,33.956,0,0,0,459.344,8.684ZM441.427,21.242A60.269,60.269,0,0,0,442.547,34l-3.639.68a60.714,60.714,0,0,1-.96-12.238,150.841,150.841,0,0,1,1.2-18.477l-.04-1.919,3.559.56c.52.08.84.36.84.68s-.24.6-.84,1A136.023,136.023,0,0,0,441.427,21.242Zm-45.879-5.12,33.395,1.24v1.76l-33.395,1.2Zm-20.363-2.4a5.406,5.406,0,0,0-.08.96c-.32,7.6-2.16,12.078-6.319,15.477a28.305,28.305,0,0,1-11.438,5.159l-.4-1.2c6.519-2.479,10.878-6.039,12.638-10.318,1.08-2.559,1.52-5,1.76-10.078h-14.8l-1.76.36v-2.56l1.76.36h14.838c.04-1.08.04-1.96.04-2.519V4.084l-.36-2.519,4.239.28a.752.752,0,0,1,.76.72c0,.32-.2.6-.8,1v5.8c0,.559,0,1.439-.04,2.519H387.7l1.76-.36v2.56l-1.76-.36Zm-59.637,2.4,33.395,1.24v1.76l-33.395,1.2ZM299.5,11.163l.48,20.557v.64a3.528,3.528,0,0,1-1,2.4,3.874,3.874,0,0,1-2.6.76h-6.559V33.68h4.159c1.68-.04,2.24-.56,2.32-2.24L295.9,14.4C289.466,24,284.147,28.56,275.828,31.68l-.52-.96c7.119-4,13.878-11.278,18-19.437l.08-.12H277.668l-1.6.32V9l1.6.32h18.117l-.12-5.639-.4-2.68,3.719.2c.64,0,1,.28,1,.68,0,.32-.16.56-.68.96l.16,6.479h8.879l1.6-.32v2.479l-1.6-.32ZM252.425,34.239,252.1,32.1c3.44-.18,4.64-.66,6.359-1.74A13.949,13.949,0,0,0,265.3,18.242a12.243,12.243,0,0,0-4.919-10.2A10.778,10.778,0,0,0,254.225,6a65.153,65.153,0,0,1-3.4,14.518,24.514,24.514,0,0,1-4.44,7.718c-1.759,1.88-3.319,1.86-5.039,1.86-3.759,0-6.519-3.459-6.519-9.458a16.377,16.377,0,0,1,5.879-12.758,18.367,18.367,0,0,1,12-3.96c9.959,0,16.478,5.8,16.478,14.6a14.15,14.15,0,0,1-5.759,11.718C260.3,32.44,257.225,33.56,252.425,34.239ZM241.987,10.323A15.717,15.717,0,0,0,238.108,20.8c0,4.559,1.52,8.118,3.4,8.118,2.24,0,5.359-5.639,7.359-13.237a75.271,75.271,0,0,0,1.84-9.759A12.655,12.655,0,0,0,241.987,10.323Zm-25.07,21.469h4.7V4.144h-4.512V2.416h13.1V4.144H225.7V31.792h4.7V33.52H216.917Zm-6.528,1.728h-2.208L191.957,7.072v24.72h3.84V33.52h-9.744V31.792h3.84V4.144h-3.84V2.416h7.824l14.448,23.328V4.144h-3.84V2.416h9.744V4.144h-3.84ZM169.4,31.792h4.7V4.144h-4.512V2.416h13.1V4.144h-4.512V31.792h4.7V33.52H169.4Zm-14.928,0h3.84V7.552L148.037,31.744h-2.208L135.173,7.36V31.792h3.7V33.52h-9.6V31.792h3.84V4.144h-3.84V2.416h8.208l10.56,24.048L158.213,2.416h8.016V4.144h-3.84V31.792h3.84V33.52h-11.76Zm-32.91,4.487H116.04V34.6h3.36c1.279,0,1.839-.56,1.839-1.839V14.283h-11.8V1.365H124.4V33.4C124.4,35.439,123.559,36.279,121.559,36.279Zm-.32-33.314h-8.8V6.924h8.8Zm0,5.559h-8.8v4.159h8.8ZM94.124,36.479h-3.16V1.365H105.4V14.283H94.124ZM102.4,2.965H94.124V6.924H102.4Zm0,9.718V8.524H94.124v4.159Zm-21.763,1.96v5.679h3.04l1.6-.32v2.239l-1.6-.32h-3.04V33.48c.04,2.239-1,3.2-3.4,3.2H71.561V35H75.48c1.32,0,1.88-.56,1.88-1.879v-11.2H65.042l-1.56.32V20l1.56.32H77.36V14.643H64.4l-1.6.32v-2.24l1.6.32h7.519V6.964H65.762l-1.6.32V5.044l1.6.32h6.159V.405H75c.56,0,.84.16.84.52,0,.28-.12.4-.64.8V5.364h6.839l1.6-.32v2.24l-1.6-.32H75.2v6.079h9.319l1.559-.32v2.24l-1.559-.32Zm-26.555,19h-2.96V2.365h10.6V29.28H54.084ZM58.763,3.964H54.084V14.723h4.679Zm0,23.717V16.322H54.084V27.681ZM41.205,33.52H37.413V26.464H23.973V24.592L36.261,2.416h4.944V23.2h5.28v3.264h-5.28ZM37.413,5.008h-.624L27,23.2H37.413ZM.741,31.84q6.094-6.624,8.9-10.008A30.424,30.424,0,0,0,13.677,15.9,12.142,12.142,0,0,0,14.9,10.576a7.9,7.9,0,0,0-1.56-5.3,5.062,5.062,0,0,0-4.008-1.8A4.741,4.741,0,0,0,5.157,5.584a10.139,10.139,0,0,0-1.632,5.184H.933V5.008a8.975,8.975,0,0,1,3.6-2.3A13.689,13.689,0,0,1,9.381,1.84a12.723,12.723,0,0,1,4.632.864,8.3,8.3,0,0,1,3.7,2.808,8.032,8.032,0,0,1,1.464,4.968,8.874,8.874,0,0,1-1.152,4.344A27.631,27.631,0,0,1,14.2,19.816q-2.664,2.9-9.624,9.96H19.6V33.52H.741ZM73.6,28.6l-2.96,2.72A35.3,35.3,0,0,0,65.882,25l.88-.92A19.658,19.658,0,0,1,73.6,28.6Zm42.2,3.36H102.082v2.359H99V17.8h16.8ZM112.721,19.4H102.082v4.559h10.639Zm0,6.159H102.082v4.8h10.639Zm380.264-2.4a21.559,21.559,0,0,1,3.52.28V18l-.12-2.959,3.159.04c.6,0,.96.24.96.64,0,.279-.16.439-.8.879v7.479a24.432,24.432,0,0,1,9.759,5.319l-2.36,3c-2.56-2.52-5.759-4.839-7.4-5.4V30.32a6.066,6.066,0,0,1-.56,3c-.88,1.559-2.879,2.4-5.639,2.4-5.119,0-8.838-2.759-8.838-6.559C484.667,25.4,487.786,23.161,492.985,23.161Zm-5.639,3.92a2.74,2.74,0,0,0-.72,1.839c0,2.36,2.72,3.18,6.4,3.18,2.36,0,3.48-.02,3.48-1.94v-4a14.694,14.694,0,0,0-4.16-.56C489.986,25.6,488.146,26.161,487.346,27.081Z" transform="translate(-0.741 -0.205)" fill-rule="evenodd"/>
</svg>
