<svg xmlns="http://www.w3.org/2000/svg" width="360" height="52" viewBox="0 0 360 52">
  <g id="intro-sp" transform="translate(-620 -1160)">
    <path id="bg" d="M3,0H360V49a3,3,0,0,1-3,3H3a3,3,0,0,1-3-3V3A3,3,0,0,1,3,0Z" transform="translate(620 1160)" fill="#f2f2f2"/>
    <g id="text" transform="translate(-141.485 -115.305)">
      <g id="日程" transform="translate(354.921 1287.082)">
        <g id="グループ_360" data-name="グループ 360" transform="translate(-5.162 3.608)">
          <path id="パス_30914" data-name="パス 30914" d="M4.841-.937V-14.706H-6.232V-.836h1.5V-1.881H3.341v.944ZM-4.732-8.824v-5.208H3.341v5.208Zm0,.674H3.341v5.6H-4.732Z" transform="translate(738.179 20.289)" fill="#363636"/>
          <g id="パス_30913" data-name="パス 30913" transform="translate(725.056)" fill="none">
            <path d="M12.418,0A12.418,12.418,0,1,1,0,12.418,12.418,12.418,0,0,1,12.418,0Z" stroke="none"/>
            <path d="M 12.41829299926758 1.000003814697266 C 9.368363380432129 1.000003814697266 6.500972747802734 2.187713623046875 4.344343185424805 4.344343185424805 C 2.187713623046875 6.500972747802734 1.000003814697266 9.368363380432129 1.000003814697266 12.41829299926758 C 1.000003814697266 15.46822261810303 2.187713623046875 18.33561325073242 4.344343185424805 20.49224281311035 C 6.500972747802734 22.64887237548828 9.368363380432129 23.83658218383789 12.41829299926758 23.83658218383789 C 15.46822261810303 23.83658218383789 18.33561325073242 22.64887237548828 20.49224281311035 20.49224281311035 C 22.64887237548828 18.33561325073242 23.83658218383789 15.46822261810303 23.83658218383789 12.41829299926758 C 23.83658218383789 9.368363380432129 22.64887237548828 6.500972747802734 20.49224281311035 4.344343185424805 C 18.33561325073242 2.187713623046875 15.46822261810303 1.000003814697266 12.41829299926758 1.000003814697266 M 12.41829299926758 3.814697265625e-06 C 19.2767219543457 3.814697265625e-06 24.83658218383789 5.55986213684082 24.83658218383789 12.41829299926758 C 24.83658218383789 19.2767219543457 19.2767219543457 24.83658218383789 12.41829299926758 24.83658218383789 C 5.55986213684082 24.83658218383789 3.814697265625e-06 19.2767219543457 3.814697265625e-06 12.41829299926758 C 3.814697265625e-06 5.55986213684082 5.55986213684082 3.814697265625e-06 12.41829299926758 3.814697265625e-06 Z" stroke="none" fill="#363636"/>
          </g>
        </g>
        <path id="パス_30910" data-name="パス 30910" d="M-30.89-20.686a8.731,8.731,0,0,1,4.065.98,7.525,7.525,0,0,1,3.043,2.9,8.691,8.691,0,0,1,1.146,4.544,9.542,9.542,0,0,1-1.188,4.774,8.5,8.5,0,0,1-3.231,3.273,8.915,8.915,0,0,1-4.5,1.167,8.005,8.005,0,0,1-4.961-1.605,10.125,10.125,0,0,1-3.273-4.565,19.107,19.107,0,0,1-1.146-6.921A20.282,20.282,0,0,1-39.52-24a12.591,12.591,0,0,1,3.773-5.232,8.143,8.143,0,0,1,5.107-1.834,7.694,7.694,0,0,1,3.9,1.042,9.384,9.384,0,0,1,3.106,2.96l-1.251,1.042a8.807,8.807,0,0,0-2.522-2.5,5.6,5.6,0,0,0-3.064-.917q-3.127,0-4.857,3.273a20.258,20.258,0,0,0-1.939,8.651,8.425,8.425,0,0,1,2.606-2.251A7.475,7.475,0,0,1-30.89-20.686Zm.042,16.3a3.778,3.778,0,0,0,3.481-1.939,9.87,9.87,0,0,0,1.146-5.065q0-3.877-1.584-5.816a4.873,4.873,0,0,0-3.919-1.939,4.827,4.827,0,0,0-3.523,1.417,7.133,7.133,0,0,0-1.939,3.377,15.02,15.02,0,0,0,2,7.4A5.068,5.068,0,0,0-30.848-4.385Zm15.509,1.334a2.412,2.412,0,0,1-1.772-.73,2.412,2.412,0,0,1-.73-1.772,2.412,2.412,0,0,1,.73-1.772,2.412,2.412,0,0,1,1.772-.73,2.412,2.412,0,0,1,1.772.73,2.412,2.412,0,0,1,.73,1.772,2.412,2.412,0,0,1-.73,1.772A2.412,2.412,0,0,1-15.339-3.051Zm21.1-1.959v1.5H-5.917v-1.5h4.294V-27.232l-4.127,2.668L-6.626-25.9.253-30.525H1.67V-5.011ZM22.724-21.061a8.731,8.731,0,0,1,4.065.98,7.724,7.724,0,0,1,3.085,2.939,8.835,8.835,0,0,1,1.188,4.669A9.315,9.315,0,0,1,29.686-7.3,8.886,8.886,0,0,1,26.2-4.114a9.552,9.552,0,0,1-4.357,1.063A9.583,9.583,0,0,1,16.97-4.3a8.868,8.868,0,0,1-3.377-3.419l1.334-.834a7.188,7.188,0,0,0,2.752,2.793,7.62,7.62,0,0,0,3.794.959,5.406,5.406,0,0,0,2.939-.855A6.125,6.125,0,0,0,26.6-8.179a8.763,8.763,0,0,0,.834-3.961,8.371,8.371,0,0,0-.834-3.9,5.614,5.614,0,0,0-2.189-2.376,5.841,5.841,0,0,0-2.939-.771,4.774,4.774,0,0,0-2.5.625A7.791,7.791,0,0,0,17.1-16.976H15.47l1-13.549H29.728v3.335H17.762L17.179-19.1a7.354,7.354,0,0,1,2.4-1.417A8.859,8.859,0,0,1,22.724-21.061Z" transform="translate(680.833 31.067)" fill="#363636"/>
        <path id="パス_30909" data-name="パス 30909" d="M-7.635-5.952A3.422,3.422,0,0,1-4.669-8.008a5.313,5.313,0,0,1,2.14.64l3.2,1.416a5.117,5.117,0,0,0,1.989.438c1.449,0,2.8-1.129,3.691-3.1L5.78-8.952C4.887-7.587,4.044-6.98,3.033-6.98A3.821,3.821,0,0,1,1.466-7.4L-2.242-9a5.2,5.2,0,0,0-1.989-.421A3.628,3.628,0,0,0-7.113-7.991a8.286,8.286,0,0,0-1.1,1.7Z" transform="translate(625.543 24.187)" fill="#363636"/>
        <g id="グループ_359" data-name="グループ 359" transform="translate(-13.714 3.608)">
          <path id="パス_30912" data-name="パス 30912" d="M4.841-.937V-14.706H-6.232V-.836h1.5V-1.881H3.341v.944ZM-4.732-8.824v-5.208H3.341v5.208Zm0,.674H3.341v5.6H-4.732Z" transform="translate(611.335 20.289)" fill="#363636"/>
          <g id="パス_30911" data-name="パス 30911" transform="translate(598.212)" fill="none">
            <path d="M12.418,0A12.418,12.418,0,1,1,0,12.418,12.418,12.418,0,0,1,12.418,0Z" stroke="none"/>
            <path d="M 12.41829299926758 1.000003814697266 C 9.368363380432129 1.000003814697266 6.500972747802734 2.187713623046875 4.344343185424805 4.344343185424805 C 2.187713623046875 6.500972747802734 1.000003814697266 9.368363380432129 1.000003814697266 12.41829299926758 C 1.000003814697266 15.46822261810303 2.187713623046875 18.33561325073242 4.344343185424805 20.49224281311035 C 6.500972747802734 22.64887237548828 9.368363380432129 23.83658218383789 12.41829299926758 23.83658218383789 C 15.46822261810303 23.83658218383789 18.33561325073242 22.64887237548828 20.49224281311035 20.49224281311035 C 22.64887237548828 18.33561325073242 23.83658218383789 15.46822261810303 23.83658218383789 12.41829299926758 C 23.83658218383789 9.368363380432129 22.64887237548828 6.500972747802734 20.49224281311035 4.344343185424805 C 18.33561325073242 2.187713623046875 15.46822261810303 1.000003814697266 12.41829299926758 1.000003814697266 M 12.41829299926758 3.814697265625e-06 C 19.2767219543457 3.814697265625e-06 24.83658218383789 5.55986213684082 24.83658218383789 12.41829299926758 C 24.83658218383789 19.2767219543457 19.2767219543457 24.83658218383789 12.41829299926758 24.83658218383789 C 5.55986213684082 24.83658218383789 3.814697265625e-06 19.2767219543457 3.814697265625e-06 12.41829299926758 C 3.814697265625e-06 5.55986213684082 5.55986213684082 3.814697265625e-06 12.41829299926758 3.814697265625e-06 Z" stroke="none" fill="#363636"/>
          </g>
        </g>
        <path id="パス_30908" data-name="パス 30908" d="M-17.49-20.246a8.545,8.545,0,0,1,3.978.959,7.365,7.365,0,0,1,2.979,2.836A8.506,8.506,0,0,1-9.411-12a9.339,9.339,0,0,1-1.163,4.672,8.322,8.322,0,0,1-3.162,3.2,8.726,8.726,0,0,1-4.407,1.142A7.835,7.835,0,0,1-23-4.557a9.91,9.91,0,0,1-3.2-4.468A18.7,18.7,0,0,1-27.324-15.8a19.85,19.85,0,0,1,1.387-7.691,12.323,12.323,0,0,1,3.693-5.121,7.97,7.97,0,0,1,5-1.8,7.53,7.53,0,0,1,3.815,1.02,9.184,9.184,0,0,1,3.04,2.9l-1.224,1.02a8.62,8.62,0,0,0-2.469-2.448,5.482,5.482,0,0,0-3-.9q-3.06,0-4.754,3.2a19.827,19.827,0,0,0-1.9,8.467,8.246,8.246,0,0,1,2.55-2.2A7.316,7.316,0,0,1-17.49-20.246Zm.041,15.954a3.7,3.7,0,0,0,3.407-1.9,9.66,9.66,0,0,0,1.122-4.958q0-3.795-1.551-5.692a4.77,4.77,0,0,0-3.835-1.9,4.724,4.724,0,0,0-3.448,1.387,6.981,6.981,0,0,0-1.9,3.305A14.7,14.7,0,0,0-21.693-6.8,4.96,4.96,0,0,0-17.45-4.292ZM-2.271-2.986A2.361,2.361,0,0,1-4.005-3.7a2.361,2.361,0,0,1-.714-1.734,2.361,2.361,0,0,1,.714-1.734,2.361,2.361,0,0,1,1.734-.714,2.361,2.361,0,0,1,1.734.714A2.361,2.361,0,0,1,.177-5.435,2.361,2.361,0,0,1-.537-3.7,2.361,2.361,0,0,1-2.271-2.986ZM18.375-4.9v1.469H6.95V-4.9h4.2V-26.652L7.114-24.041l-.857-1.306,6.732-4.529h1.387V-4.9Z" transform="translate(558.123 30.992)" fill="#363636"/>
      </g>
      <path id="パス_30907" data-name="パス 30907" d="M-49.991-1.552A12.64,12.64,0,0,0-43.78-4.394c2.219-1.98,3.576-4.918,4.008-8.686H-50.741l-.7-.144V-12.2l.7-.144h9.229c-.83,5.253-3.656,8.606-8.654,10.25Zm19.463-.782h-3.864l-.7-.144v1.022l.7-.144h9.26l.7.144V-2.478l-.7.144h-3.944V-8.689h2.842l.7.144V-9.567l-.7.144H-33.29l-.7-.144v1.022l.7-.144h2.762Zm17.308-7.808c.224-.176.3-.287.3-.415a.3.3,0,0,0-.3-.255l-1.613-.128.128.926v.878C-14.753-6.422-15.2-5-16.4-3.836A10.288,10.288,0,0,1-19.863-1.68l.144.431a9.633,9.633,0,0,0,4.151-1.836A5.646,5.646,0,0,0-13.38-7.013a8.4,8.4,0,0,0,6.45-6.53H-19.447l-.7-.144v1.022l.7-.144H-8.782A8.213,8.213,0,0,1-13.3-7.62c.048-.543.08-1.054.08-1.581ZM7.711-5.959v4.071c0,.495-.208.7-.687.7H5.716v.671H7.568c.974,0,1.389-.383,1.373-1.293V-14.485H3.8V-11.8c0,4.71-.176,7.249-.575,8.35a5.941,5.941,0,0,1-1.852,2.7l.287.335c2.028-1.07,2.97-2.746,3.161-5.54Zm0-.639H4.869v-.048l.064-1.166c0-.1,0-.511.016-1.1,0-.128,0-.655.016-1.086H7.711Zm0-4.039H4.981L5-11.8v-2.044H7.711Zm-9.979-2.219v-1.629c.208-.144.255-.208.255-.319,0-.144-.112-.208-.335-.208H-3.465v2.155h-.687l-.639-.128v.894l.639-.128h.687v6.85h-.99L-5.094-5.5V-4.6l.639-.128H2.49l.639.128V-5.5l-.639.128H1.8v-6.85h.7l.639.128v-.894l-.639.128H1.8v-1.629c.208-.144.255-.208.255-.3,0-.16-.112-.224-.335-.224H.606v2.155Zm0,.639H.606v1.74H-2.268Zm0,6.85V-7.4H.606v2.028ZM.606-9.839v1.8H-2.268v-1.8ZM-4.95-.994A10.026,10.026,0,0,0-2.172-3.165c.335,0,.543-.1.543-.255a.3.3,0,0,0-.16-.239l-1.07-.718A14.761,14.761,0,0,1-5.173-1.345ZM-.256-3.836A17.708,17.708,0,0,1,1.469-1.584l.974-.974A10.267,10.267,0,0,0,.064-4.2ZM21.379-2.319V-7.971H14.673v6.594H15.9v-.942ZM15.9-5.512v-1.82h4.247v1.82Zm0,.639h4.247v1.916H15.9Zm1.325-9.66H11.464V-.515h1.261V-9.376h4.5Zm-4.5.639H16.03v1.581H12.725Zm3.305,2.219v1.661H12.725v-1.661Zm2.81-2.858v5.157h4.71V-2c0,.511-.224.734-.734.734H21.474v.671h2.2c.8,0,1.134-.335,1.134-1.15V-14.533Zm1.2,2.858H23.55v1.661H20.037Zm0-.639v-1.581H23.55v1.581ZM34.12-5.161a1.087,1.087,0,0,0-1.1,1.07,1.073,1.073,0,0,0,1.07,1.086,1.077,1.077,0,0,0,1.086-1.086A1.077,1.077,0,0,0,34.12-5.161Zm0-7.345a1.087,1.087,0,0,0-1.1,1.07A1.087,1.087,0,0,0,34.1-10.35a1.073,1.073,0,0,0,1.07-1.086A1.077,1.077,0,0,0,34.12-12.505Z" transform="translate(834.762 1313.675)" fill="#363636"/>
    </g>
  </g>
</svg>
