<svg xmlns="http://www.w3.org/2000/svg" width="558" height="52" viewBox="0 0 558 52">
  <g id="label" transform="translate(-521 -1160)">
    <path id="bg" d="M3,0H558a0,0,0,0,1,0,0V49a3,3,0,0,1-3,3H3a3,3,0,0,1-3-3V3A3,3,0,0,1,3,0Z" transform="translate(521 1160)" fill="#f2f2f2"/>
    <g id="text" transform="translate(-157.762 -117.149)">
      <g id="日程" transform="translate(300.356 -536.628)">
        <g id="グループ_360" data-name="グループ 360" transform="translate(-24.895)">
          <path id="パス_30915" data-name="パス 30915" d="M6.251.817V-14.706H-6.232V.931h1.691V-.247h9.1V.817ZM-4.541-8.075v-5.871h9.1v5.871Zm0,.76h9.1v6.308h-9.1Z" transform="translate(831.406 1848.777)" fill="#363636"/>
          <g id="楕円形_19" data-name="楕円形 19" transform="translate(817.406 1827.777)" fill="none" stroke="#363636" stroke-width="1">
            <circle cx="14" cy="14" r="14" stroke="none"/>
            <circle cx="14" cy="14" r="13.5" fill="none"/>
          </g>
        </g>
        <path id="パス_30914" data-name="パス 30914" d="M-29.61-19.364a9.843,9.843,0,0,1,4.582,1.1A8.484,8.484,0,0,1-21.6-14.993,9.8,9.8,0,0,1-20.3-9.87a10.757,10.757,0,0,1-1.339,5.381A9.586,9.586,0,0,1-25.286-.8,10.051,10.051,0,0,1-30.362.517a9.025,9.025,0,0,1-5.593-1.81,11.415,11.415,0,0,1-3.689-5.146,21.54,21.54,0,0,1-1.292-7.8,22.865,22.865,0,0,1,1.6-8.859A14.2,14.2,0,0,1-35.086-29a9.181,9.181,0,0,1,5.757-2.068,8.674,8.674,0,0,1,4.395,1.175,10.579,10.579,0,0,1,3.5,3.337l-1.41,1.175a9.929,9.929,0,0,0-2.844-2.82,6.315,6.315,0,0,0-3.455-1.034q-3.525,0-5.476,3.689A22.839,22.839,0,0,0-36.8-15.792a9.5,9.5,0,0,1,2.938-2.538A8.428,8.428,0,0,1-29.61-19.364Zm.047,18.377a4.259,4.259,0,0,0,3.924-2.186,11.127,11.127,0,0,0,1.292-5.71q0-4.371-1.786-6.557a5.494,5.494,0,0,0-4.418-2.186,5.442,5.442,0,0,0-3.971,1.6,8.042,8.042,0,0,0-2.186,3.807q.329,5.452,2.256,8.342A5.714,5.714,0,0,0-29.563-.987Zm17.484,1.5a2.72,2.72,0,0,1-2-.823,2.72,2.72,0,0,1-.823-2,2.72,2.72,0,0,1,.823-2,2.72,2.72,0,0,1,2-.822,2.72,2.72,0,0,1,2,.822,2.72,2.72,0,0,1,.823,2,2.72,2.72,0,0,1-.823,2A2.72,2.72,0,0,1-12.079.517ZM11.7-1.692V0H-1.457V-1.692H3.384V-26.743l-4.653,3.008-.987-1.5L5.5-30.456H7.1V-1.692Zm19.129-18.1a9.843,9.843,0,0,1,4.582,1.1,8.707,8.707,0,0,1,3.478,3.314,9.96,9.96,0,0,1,1.339,5.264,10.5,10.5,0,0,1-1.551,5.828,10.018,10.018,0,0,1-3.924,3.6,10.769,10.769,0,0,1-4.911,1.2,10.8,10.8,0,0,1-5.5-1.41,10,10,0,0,1-3.807-3.854l1.5-.94a8.1,8.1,0,0,0,3.1,3.149,8.591,8.591,0,0,0,4.277,1.081,6.094,6.094,0,0,0,3.313-.964A6.905,6.905,0,0,0,35.2-5.264a9.879,9.879,0,0,0,.94-4.465,9.437,9.437,0,0,0-.94-4.394A6.329,6.329,0,0,0,32.736-16.8a6.585,6.585,0,0,0-3.313-.869,5.382,5.382,0,0,0-2.82.7,8.784,8.784,0,0,0-2.115,1.786H22.654l1.128-15.275H38.728v3.76H25.239l-.658,9.118a8.291,8.291,0,0,1,2.7-1.6A9.987,9.987,0,0,1,30.832-19.787Z" transform="translate(748.279 1854.777)" fill="#363636"/>
        <path id="パス_30913" data-name="パス 30913" d="M-7.562-5.51A3.857,3.857,0,0,1-4.218-7.828,5.989,5.989,0,0,1-1.8-7.106l3.61,1.6a5.769,5.769,0,0,0,2.242.494c1.634,0,3.154-1.273,4.161-3.5l-.646-.38c-1.007,1.539-1.957,2.223-3.1,2.223A4.308,4.308,0,0,1,2.7-7.144l-4.18-1.8a5.865,5.865,0,0,0-2.242-.475A4.09,4.09,0,0,0-6.973-7.809,9.342,9.342,0,0,0-8.208-5.89Z" transform="translate(695.134 1849.777)" fill="#363636"/>
        <g id="グループ_359" data-name="グループ 359" transform="translate(-19.48)">
          <path id="パス_30912" data-name="パス 30912" d="M6.251.817V-14.706H-6.232V.931h1.691V-.247h9.1V.817ZM-4.541-8.075v-5.871h9.1v5.871Zm0,.76h9.1v6.308h-9.1Z" transform="translate(688.406 1848.777)" fill="#363636"/>
          <g id="楕円形_18" data-name="楕円形 18" transform="translate(674.406 1827.777)" fill="none" stroke="#363636" stroke-width="1">
            <circle cx="14" cy="14" r="14" stroke="none"/>
            <circle cx="14" cy="14" r="13.5" fill="none"/>
          </g>
        </g>
        <path id="パス_30911" data-name="パス 30911" d="M-16.238-18.952a9.633,9.633,0,0,1,4.485,1.081,8.3,8.3,0,0,1,3.358,3.2A9.59,9.59,0,0,1-7.13-9.66,10.528,10.528,0,0,1-8.441-4.393,9.382,9.382,0,0,1-12.006-.782,9.837,9.837,0,0,1-16.974.506a8.833,8.833,0,0,1-5.474-1.771A11.172,11.172,0,0,1-26.059-6.3a21.082,21.082,0,0,1-1.265-7.636,22.378,22.378,0,0,1,1.564-8.671A13.893,13.893,0,0,1-21.6-28.382a8.985,8.985,0,0,1,5.635-2.024,8.489,8.489,0,0,1,4.3,1.15A10.354,10.354,0,0,1-8.234-25.99l-1.38,1.15A9.718,9.718,0,0,0-12.4-27.6a6.181,6.181,0,0,0-3.381-1.012q-3.45,0-5.359,3.611a22.353,22.353,0,0,0-2.139,9.545A9.3,9.3,0,0,1-20.4-17.94,8.248,8.248,0,0,1-16.238-18.952Zm.046,17.986a4.168,4.168,0,0,0,3.841-2.139,10.89,10.89,0,0,0,1.265-5.589q0-4.278-1.748-6.417a5.377,5.377,0,0,0-4.324-2.139,5.326,5.326,0,0,0-3.887,1.564,7.87,7.87,0,0,0-2.139,3.726q.322,5.336,2.208,8.165A5.592,5.592,0,0,0-16.192-.966ZM.92.506A2.662,2.662,0,0,1-1.035-.3a2.662,2.662,0,0,1-.8-1.955,2.662,2.662,0,0,1,.8-1.955,2.662,2.662,0,0,1,1.955-.8,2.662,2.662,0,0,1,1.955.8A2.662,2.662,0,0,1,3.68-2.254,2.662,2.662,0,0,1,2.875-.3,2.662,2.662,0,0,1,.92.506ZM24.2-1.656V0H11.316V-1.656h4.738V-26.174L11.5-23.23,10.534-24.7l7.59-5.106h1.564V-1.656Z" transform="translate(625.73 1854.777)" fill="#363636"/>
      </g>
      <path id="パス_30910" data-name="パス 30910" d="M-49.806.162c3.294-.738,5.112-1.566,7-3.2,2.5-2.232,4.032-5.544,4.518-9.792H-50.652L-51.444-13v1.152l.792-.162h10.4C-41.184-6.084-44.37-2.3-50-.45ZM-27.864-.72H-32.22l-.792-.162V.27l.792-.162h10.44l.792.162V-.882l-.792.162h-4.446V-7.884h3.2l.792.162V-8.874l-.792.162h-7.956l-.792-.162v1.152l.792-.162h3.114Zm19.512-8.8c.252-.2.342-.324.342-.468a.336.336,0,0,0-.342-.288l-1.818-.144.144,1.044v.99c-.054,3.06-.558,4.662-1.908,5.976A11.6,11.6,0,0,1-15.84.018l.162.486A10.86,10.86,0,0,0-11-1.566,6.365,6.365,0,0,0-8.532-5.994,9.471,9.471,0,0,0-1.26-13.356H-15.372l-.792-.162v1.152l.792-.162H-3.348a9.259,9.259,0,0,1-5.094,5.85c.054-.612.09-1.188.09-1.782Zm23.6,4.716v4.59c0,.558-.234.792-.774.792H13v.756h2.088c1.1,0,1.566-.432,1.548-1.458V-14.418h-5.8v3.024c0,5.31-.2,8.172-.648,9.414A6.7,6.7,0,0,1,8.1,1.062l.324.378c2.286-1.206,3.348-3.1,3.564-6.246Zm0-.72h-3.2V-5.58l.072-1.314c0-.108,0-.576.018-1.242,0-.144,0-.738.018-1.224h3.1Zm0-4.554H12.168l.018-1.314v-2.3h3.06ZM4-12.582v-1.836c.234-.162.288-.234.288-.36,0-.162-.126-.234-.378-.234H2.646v2.43H1.872l-.72-.144v1.008l.72-.144h.774V-4.14H1.53L.81-4.284v1.008l.72-.144H9.36l.72.144V-4.284l-.72.144H8.586v-7.722h.792l.72.144v-1.008l-.72.144H8.586v-1.836c.234-.162.288-.234.288-.342,0-.18-.126-.252-.378-.252H7.236v2.43Zm0,.72h3.24V-9.9H4ZM4-4.14V-6.426h3.24V-4.14Zm3.24-5.04v2.034H4V-9.18ZM.972.792A11.3,11.3,0,0,0,4.1-1.656c.378,0,.612-.108.612-.288a.339.339,0,0,0-.18-.27L3.33-3.024A16.641,16.641,0,0,1,.72.4Zm5.292-3.2A19.964,19.964,0,0,1,8.208.126l1.1-1.1A11.575,11.575,0,0,0,6.624-2.826ZM30.654-.7V-7.074h-7.56V.36H24.48V-.7ZM24.48-4.3V-6.354h4.788V-4.3Zm0,.72h4.788v2.16H24.48Zm1.494-10.89h-6.5v15.8H20.9v-9.99h5.076Zm-5.076.72h3.726v1.782H20.9Zm3.726,2.5v1.872H20.9V-11.25Zm3.168-3.222v5.814H33.1V-.342c0,.576-.252.828-.828.828H30.762v.756h2.484c.9,0,1.278-.378,1.278-1.3V-14.472Zm1.35,3.222H33.1v1.872h-3.96Zm0-.72v-1.782H33.1v1.782ZM45.018-3.906A1.226,1.226,0,0,0,43.776-2.7a1.21,1.21,0,0,0,1.206,1.224A1.214,1.214,0,0,0,46.206-2.7,1.214,1.214,0,0,0,45.018-3.906Zm0-8.28a1.226,1.226,0,0,0-1.242,1.206A1.225,1.225,0,0,0,45-9.756a1.21,1.21,0,0,0,1.206-1.224A1.214,1.214,0,0,0,45.018-12.186Z" transform="translate(834.762 1315.149)" fill="#363636"/>
    </g>
  </g>
</svg>
