<svg xmlns="http://www.w3.org/2000/svg" width="278.66" height="13.44" viewBox="0 0 278.66 13.44">
  <path id="mv02-sp" d="M2.9-.72H4.66V-12.24H2.18L1.14-9.48H.4v-3.48H10.58v3.48H9.84l-1-2.76H6.36V-.72H8.12V0H2.9ZM23.14-12.24V-.72h1.6V0H19.88V-.72h1.56V-6.46h-5.9V-.72H17.1V0H12.24V-.72h1.6V-12.24h-1.6v-.72H17.1v.72H15.54v5.02h5.9v-5.02H19.88v-.72h4.86v.72ZM36.56-3.52V0h-9.9V-.72h1.6V-12.24h-1.6v-.72H36.4v3.48h-.76l-1.06-2.76H29.96v5.02H33.1V-8.76h.92v3.84H33.1V-6.46H29.96V-.72h4.78l1.06-2.8Zm7.48,2.8h1.6V-12.24h-1.6v-.72H47.3l6.02,9.72v-9h-1.6v-.72h4.06v.72h-1.6V0h-.92L46.5-11.02V-.72h1.6V0H44.04ZM67.4-3.52V0H57.5V-.72h1.6V-12.24H57.5v-.72h9.74v3.48h-.76l-1.06-2.76H60.8v5.02h3.14V-8.76h.92v3.84h-.92V-6.46H60.8V-.72h4.78l1.06-2.8Zm20.5-8.72H86.42L82.96,0h-.92L78.46-10.12,75.2,0h-.92L70.62-12.24H69.04v-.72h5v.72h-1.6L75.18-2.7l3.26-10.18h.84L82.94-2.76l2.62-9.48H83.98v-.72H87.9ZM107.16-.72V0h-4.64V-.72h1.46l-1.44-4.06h-4.3L96.8-.72h1.46V0H94.52V-.72h1.42l4.42-12.24h.94L105.74-.72Zm-4.9-4.82-1.84-5.18h-.08L98.5-5.54Zm6.38,4.82h1.6V-12.24h-1.6v-.72h4.96v.72h-1.66V-.72h4.68l1.06-2.8h.76V0h-9.8Zm11.46,0h1.6V-12.24h-1.6v-.72h4.96v.72H123.4V-.72h4.68l1.06-2.8h.76V0h-9.8Zm11.58-4.92h4.38v.78h-4.38ZM148-3.52V0h-9.9V-.72h1.6V-12.24h-1.6v-.72h9.74v3.48h-.76l-1.06-2.76H141.4v5.02h3.14V-8.76h.92v3.84h-.92V-6.46H141.4V-.72h4.78l1.06-2.8Zm1.98,2.8h1.6V-12.24h-1.6v-.72h4.96v.72h-1.66V-.72h4.68l1.06-2.8h.76V0h-9.8Zm21.36-2.8V0h-9.9V-.72h1.6V-12.24h-1.6v-.72h9.74v3.48h-.76l-1.06-2.76h-4.62v5.02h3.14V-8.76h.92v3.84h-.92V-6.46h-3.14V-.72h4.78l1.06-2.8ZM179.28.24a5.275,5.275,0,0,1-3.27-.96,5.388,5.388,0,0,1-1.83-2.45,8.823,8.823,0,0,1-.56-3.13,9.474,9.474,0,0,1,.58-3.31,5.761,5.761,0,0,1,1.86-2.58,5.07,5.07,0,0,1,3.24-1.01,6.092,6.092,0,0,1,2.25.37,6.709,6.709,0,0,1,1.67.95v2.4h-1.14a3.558,3.558,0,0,0-.96-2.34,2.78,2.78,0,0,0-1.96-.74,3.144,3.144,0,0,0-2.83,1.43,6.656,6.656,0,0,0-.93,3.69,12.225,12.225,0,0,0,.43,3.3,5.985,5.985,0,0,0,1.33,2.51,2.931,2.931,0,0,0,2.24.97,3.5,3.5,0,0,0,2.16-.74,3.48,3.48,0,0,0,1.28-2.14h.76a4.549,4.549,0,0,1-.8,1.94,4.465,4.465,0,0,1-1.54,1.35A4.148,4.148,0,0,1,179.28.24Zm8.28-.96h1.76V-12.24h-2.48L185.8-9.48h-.74v-3.48h10.18v3.48h-.74l-1-2.76h-2.48V-.72h1.76V0h-5.22Zm21.36,0V0h-3.06l-3.8-5.98H200.2V-.72h1.58V0H196.9V-.72h1.6V-12.24h-1.6v-.72h5.82a4.018,4.018,0,0,1,2.94.97,3.328,3.328,0,0,1,.98,2.47,3.42,3.42,0,0,1-.74,2.23,3.463,3.463,0,0,1-2.02,1.19l3.6,5.38ZM200.2-6.74h2.3a2.045,2.045,0,0,0,1.63-.77,2.949,2.949,0,0,0,.65-1.97,3.032,3.032,0,0,0-.63-2,2.04,2.04,0,0,0-1.65-.76h-2.3ZM215.9-.72V0h-5.62V-.72h1.96V-12.24h-1.88v-.72h5.46v.72h-1.88V-.72Zm7.68.96a5.275,5.275,0,0,1-3.27-.96,5.388,5.388,0,0,1-1.83-2.45,8.823,8.823,0,0,1-.56-3.13,9.474,9.474,0,0,1,.58-3.31,5.761,5.761,0,0,1,1.86-2.58,5.07,5.07,0,0,1,3.24-1.01,6.092,6.092,0,0,1,2.25.37,6.709,6.709,0,0,1,1.67.95v2.4h-1.14a3.558,3.558,0,0,0-.96-2.34,2.78,2.78,0,0,0-1.96-.74,3.144,3.144,0,0,0-2.83,1.43,6.656,6.656,0,0,0-.93,3.69,12.225,12.225,0,0,0,.43,3.3,5.985,5.985,0,0,0,1.33,2.51,2.931,2.931,0,0,0,2.24.97,3.5,3.5,0,0,0,2.16-.74,3.48,3.48,0,0,0,1.28-2.14h.76a4.549,4.549,0,0,1-.8,1.94,4.465,4.465,0,0,1-1.54,1.35A4.148,4.148,0,0,1,223.58.24Zm11.54-.96h1.6V-12.24h-1.6v-.72h3.42l4.4,10.02,4.24-10.02h3.34v.72h-1.6V-.72h1.6V0h-4.9V-.72h1.6v-10.1L242.94-.74h-.92L237.58-10.9V-.72h1.54V0h-4Zm22.94,0V0h-5.62V-.72h1.96V-12.24h-1.88v-.72h5.46v.72H256.1V-.72Zm1.92,0h1.6V-12.24h-1.6v-.72h3.26l6.02,9.72v-9h-1.6v-.72h4.06v.72h-1.6V0h-.92l-6.76-11.02V-.72h1.6V0h-4.06Zm19.08,0V0h-5.62V-.72h1.96V-12.24h-1.88v-.72h5.46v.72H277.1V-.72Z" transform="translate(-0.4 13.2)" fill="#fff"/>
</svg>
