<svg xmlns="http://www.w3.org/2000/svg" width="808.114" height="38.976" viewBox="0 0 808.114 38.976">
  <path id="パス_30909" data-name="パス 30909" d="M8.41-2.088h5.1V-35.5H6.322l-3.016,8H1.16V-37.584H30.682v10.092H28.536l-2.9-8H18.444V-2.088h5.1V0H8.41ZM67.106-35.5V-2.088h4.64V0H57.652V-2.088h4.524V-18.734H45.066V-2.088H49.59V0H35.5V-2.088h4.64V-35.5H35.5v-2.088H49.59V-35.5H45.066v14.558h17.11V-35.5H57.652v-2.088H71.746V-35.5Zm38.918,25.288V0H77.314V-2.088h4.64V-35.5h-4.64v-2.088H105.56v10.092h-2.2l-3.074-8h-13.4v14.558H95.99V-25.4h2.668v11.136H95.99v-4.466H86.884V-2.088h13.862l3.074-8.12Zm21.692,8.12h4.64V-35.5h-4.64v-2.088h9.454L154.628-9.4V-35.5h-4.64v-2.088h11.774V-35.5h-4.64V0h-2.668l-19.6-31.958v29.87h4.64V0H127.716Zm67.744-8.12V0H166.75V-2.088h4.64V-35.5h-4.64v-2.088H195v10.092h-2.2l-3.074-8h-13.4v14.558h9.106V-25.4h2.668v11.136h-2.668v-4.466H176.32V-2.088h13.862l3.074-8.12ZM254.91-35.5h-4.292L240.584,0h-2.668L227.534-29.348,218.08,0h-2.668L204.8-35.5h-4.582v-2.088h14.5V-35.5h-4.64L218.022-7.83l9.454-29.522h2.436L240.526-8l7.6-27.492h-4.582v-2.088H254.91ZM310.764-2.088V0H297.308V-2.088h4.234l-4.176-11.774H284.9L280.72-2.088h4.234V0H274.108V-2.088h4.118l12.818-35.5h2.726l12.876,35.5Zm-14.21-13.978-5.336-15.022h-.232L285.65-16.066Zm18.5,13.978h4.64V-35.5h-4.64v-2.088H329.44V-35.5h-4.814V-2.088H338.2l3.074-8.12h2.2V0h-28.42Zm33.234,0h4.64V-35.5h-4.64v-2.088h14.384V-35.5H357.86V-2.088h13.572l3.074-8.12h2.2V0H348.29Zm33.582-14.268h12.7v2.262h-12.7ZM429.2-10.208V0H400.49V-2.088h4.64V-35.5h-4.64v-2.088h28.246v10.092h-2.2l-3.074-8h-13.4v14.558h9.106V-25.4h2.668v11.136h-2.668v-4.466H410.06V-2.088h13.862L427-10.208Zm5.742,8.12h4.64V-35.5h-4.64v-2.088h14.384V-35.5h-4.814V-2.088h13.572l3.074-8.12h2.2V0h-28.42Zm61.944-8.12V0h-28.71V-2.088h4.64V-35.5h-4.64v-2.088h28.246v10.092h-2.2l-3.074-8h-13.4v14.558h9.106V-25.4h2.668v11.136h-2.668v-4.466h-9.106V-2.088h13.862l3.074-8.12ZM519.912.7a15.3,15.3,0,0,1-9.483-2.784,15.625,15.625,0,0,1-5.307-7.105A25.586,25.586,0,0,1,503.5-18.27a27.477,27.477,0,0,1,1.682-9.6,16.707,16.707,0,0,1,5.394-7.482,14.7,14.7,0,0,1,9.4-2.929,17.666,17.666,0,0,1,6.525,1.073,19.454,19.454,0,0,1,4.843,2.755v6.96h-3.306q-.464-4.64-2.784-6.786a8.061,8.061,0,0,0-5.684-2.146q-5.51,0-8.207,4.147t-2.7,10.7a35.452,35.452,0,0,0,1.247,9.57,17.357,17.357,0,0,0,3.857,7.279,8.5,8.5,0,0,0,6.5,2.813,10.159,10.159,0,0,0,6.264-2.146,10.092,10.092,0,0,0,3.712-6.206h2.2a13.19,13.19,0,0,1-2.32,5.626,12.949,12.949,0,0,1-4.466,3.915A12.03,12.03,0,0,1,519.912.7Zm24.012-2.784h5.1V-35.5h-7.192l-3.016,8h-2.146V-37.584H566.2v10.092H564.05l-2.9-8h-7.192V-2.088h5.1V0H543.924Zm61.944,0V0h-8.874l-11.02-17.342H580.58V-2.088h4.582V0H571.01V-2.088h4.64V-35.5h-4.64v-2.088h16.878q5.684,0,8.526,2.813a9.65,9.65,0,0,1,2.842,7.163,9.919,9.919,0,0,1-2.146,6.467,10.043,10.043,0,0,1-5.858,3.451l10.44,15.6ZM580.58-19.546h6.67a5.932,5.932,0,0,0,4.727-2.233,8.552,8.552,0,0,0,1.885-5.713,8.794,8.794,0,0,0-1.827-5.8,5.916,5.916,0,0,0-4.785-2.2h-6.67ZM626.11-2.088V0h-16.3V-2.088H615.5V-35.5h-5.452v-2.088h15.834V-35.5h-5.452V-2.088ZM648.382.7A15.3,15.3,0,0,1,638.9-2.088a15.626,15.626,0,0,1-5.307-7.105,25.586,25.586,0,0,1-1.624-9.077,27.476,27.476,0,0,1,1.682-9.6,16.707,16.707,0,0,1,5.394-7.482,14.7,14.7,0,0,1,9.4-2.929,17.666,17.666,0,0,1,6.525,1.073,19.454,19.454,0,0,1,4.843,2.755v6.96H656.5q-.464-4.64-2.784-6.786a8.061,8.061,0,0,0-5.684-2.146q-5.51,0-8.207,4.147t-2.7,10.7a35.453,35.453,0,0,0,1.247,9.57,17.357,17.357,0,0,0,3.857,7.279,8.5,8.5,0,0,0,6.5,2.813,10.159,10.159,0,0,0,6.264-2.146,10.092,10.092,0,0,0,3.712-6.206h2.2a13.19,13.19,0,0,1-2.32,5.626,12.949,12.949,0,0,1-4.466,3.915A12.03,12.03,0,0,1,648.382.7Zm33.466-2.784h4.64V-35.5h-4.64v-2.088h9.918l12.76,29.058,12.3-29.058h9.686V-35.5h-4.64V-2.088h4.64V0H712.3V-2.088h4.64v-29.29L704.526-2.146h-2.668L688.982-31.61V-2.088h4.466V0h-11.6Zm66.526,0V0h-16.3V-2.088h5.684V-35.5h-5.452v-2.088h15.834V-35.5H742.69V-2.088Zm5.568,0h4.64V-35.5h-4.64v-2.088H763.4L780.854-9.4V-35.5h-4.64v-2.088h11.774V-35.5h-4.64V0H780.68l-19.6-31.958v29.87h4.64V0H753.942Zm55.332,0V0h-16.3V-2.088h5.684V-35.5h-5.452v-2.088h15.834V-35.5H803.59V-2.088Z" transform="translate(-1.16 38.28)" fill="#fff"/>
</svg>
