<svg xmlns="http://www.w3.org/2000/svg" width="852.908" height="69.92" viewBox="0 0 852.908 69.92">
  <path id="パス_30907" data-name="パス 30907" d="M50.54-42.56l.532,24.244a41.42,41.42,0,0,0-10.716-1.52c-8.436,0-14.136,4.408-14.136,10.944a10.007,10.007,0,0,0,2.66,6.764C31.54.76,37.088,2.736,42.864,2.736c6,0,11.02-2.128,13-5.548A13.425,13.425,0,0,0,57.532-9.8v-.456c2.66,1.14,6.764,4.1,11.172,8.208l4.18-5.624a52.685,52.685,0,0,0-15.428-8.968l-.532-26.144c4.256-.228,10.184-.836,14.212-1.444l.3-5.548L66.5-47.5a88.4,88.4,0,0,1-9.652,1.14L56.62-57.684c.988-.684,1.368-1.292,1.368-1.976a1.4,1.4,0,0,0-1.368-1.292l-6.992-.456.608,3.876.228,11.552c-4.028.152-7.22.228-9.88.228-2.28,0-5.7-.076-10.184-.228l-4.56-1.444.532,4.94c5.016.152,7.3.228,10.792.228,2.66,0,2.66,0,13.148-.3Zm.76,31.692v.456a10.777,10.777,0,0,1-1.216,4.636C48.868-3.724,45.6-2.432,41.572-2.432,38-2.432,34.048-3.572,32-5.244A4.822,4.822,0,0,1,30.02-9.2c0-3.876,3.648-6.308,9.348-6.308a28.061,28.061,0,0,1,11.856,2.66ZM18.088,1.52A178.521,178.521,0,0,1,16.036-25a253.084,253.084,0,0,1,2.356-31.388c1.14-.76,1.52-1.292,1.52-1.9,0-.836-.684-1.444-1.824-1.6L11.7-60.952V-57C10.032-41.344,9.5-33.516,9.5-23.332A188.406,188.406,0,0,0,11.172,2.736ZM119.32-61.636a34.023,34.023,0,0,1,4.636,10.488l5.016-2.432a14.844,14.844,0,0,0-8.284-9.044Zm19.3,6.308a15,15,0,0,0-9.12-8.512l-1.292,1.14a32.535,32.535,0,0,1,5.472,10.032Zm-52.136-6.46.456,4.18-.684,23.94c-.076,2.432-.076,4.712-.076,6.916,0,13.984,1.216,19.988,4.94,23.94,3.572,3.724,9.956,6.08,16.492,6.08,10.26,0,19.076-5.016,23.94-13.452A39.037,39.037,0,0,0,135.812-22.8l-2.356-.76a39.223,39.223,0,0,1-4.788,9.8,24.9,24.9,0,0,1-20.52,11.02,16.287,16.287,0,0,1-10.488-3.5,12.725,12.725,0,0,1-3.876-8.284,139.426,139.426,0,0,1-.608-14.744c0-1.672,0-2.888.076-4.028l.684-24.548c.912-.836,1.292-1.368,1.292-2.052,0-.836-.836-1.444-1.976-1.52ZM174.952,3.876c11.324-.912,20.444-4.408,25.84-9.8a24.87,24.87,0,0,0,6.84-17.708c0-8.208-3.268-15.124-9.2-19.38-2.964-2.128-5.4-3.116-10.336-4.332,1.368-4.636,1.6-5.32,2.736-9.576,1.216-.684,1.748-1.292,1.748-1.976,0-.532-.532-.988-1.444-1.216l-6.46-1.672-.532,4.408c-.836,4.18-1.064,4.864-2.28,9.5a28.373,28.373,0,0,0-3.268-.228,40.347,40.347,0,0,0-16.188,3.344,87.823,87.823,0,0,1-1.14-10.64c.76-.684,1.064-1.064,1.064-1.52,0-.608-.608-1.064-1.6-1.14l-6.384-.38.836,4.636c.684,4.788,1.292,8.284,1.976,11.78-8.208,5.32-13,13.832-13,23.028,0,4.788,1.6,9.652,4.256,12.768a10.216,10.216,0,0,0,8.132,3.876,11.058,11.058,0,0,0,6.612-2.28c2.736-1.9,6.156-5.548,9.424-10.032,5.928-8.208,10.032-16.568,14.364-29.032,3.876,1.216,5.7,2.28,7.752,4.332,3.648,3.572,5.7,9.2,5.7,15.5,0,8.512-3.42,14.668-10.64,19.456C185.516-1.6,180.956.228,174.5,1.672Zm-11.78-44.308c5.092-2.812,10.032-3.952,17.556-3.952a116.67,116.67,0,0,1-11.1,24.092A97.1,97.1,0,0,1,163.172-40.432Zm-4.864,3.42a87.431,87.431,0,0,0,8.056,21.66c-4.256,6-7.3,8.664-10.184,8.664a4.571,4.571,0,0,1-3.116-1.292C151.164-9.8,149.8-14.288,149.8-18.7,149.8-26.144,152.532-32,158.308-37.012Zm54.036-19,.532,5.244,46.132-1.824a1.451,1.451,0,0,1-.608.228,40.411,40.411,0,0,0-12.008,6.308c-7.3,5.7-10.868,12.692-10.868,21.28,0,8.208,3.192,14.972,9.272,19.76,4.788,3.8,8.816,5.4,17.48,6.992l2.888-7.9c-7.828-.836-11.4-2.052-15.656-5.168-4.94-3.5-7.448-8.816-7.448-15.428,0-10.412,6-18.468,17.328-23.18a44.529,44.529,0,0,1,16.264-3.344l.38-5.32-5.016,1.824-54.264,1.9ZM314.26,1.368c9.12-1.292,14.972-3.42,20.9-7.6C342.076-11.1,346.1-19.38,346.1-28.5c0-16.72-12.388-27.74-31.312-27.74-9.044,0-16.872,2.584-22.8,7.524A31.119,31.119,0,0,0,280.82-24.472c0,11.4,5.244,19.684,12.388,19.684,3.268,0,6.232-1.672,9.576-5.244C305.9-13.376,308.94-18.7,311.22-24.7a123.692,123.692,0,0,0,6.46-27.588c5.168.38,8.36,1.444,11.7,3.876,5.928,4.18,9.348,11.324,9.348,19.38A26.511,26.511,0,0,1,325.736-6c-3.268,2.052-5.548,2.964-12.084,5.016ZM310.992-52.44A142.985,142.985,0,0,1,307.5-33.9c-3.8,14.44-9.728,25.156-13.984,25.156-3.572,0-6.46-6.764-6.46-15.428a29.858,29.858,0,0,1,7.372-19.912C298.68-49.02,304-51.68,310.992-52.44Zm86.9,36.952V0h-43.56V-3.168h7.04V-53.856h-7.04v-3.168h42.856v15.312H393.84l-4.664-12.144H368.848v22.088h13.816v-6.776h4.048v16.9h-4.048v-6.776H368.848V-3.168H389.88l4.664-12.32Zm59.928-38.368h-6.6L432.3,0h-4.048L408.976-53.856h-7.04v-3.168h21.912v3.168h-7.04l15.4,43.208,15.4-43.208h-7.04v-3.168h17.248ZM548.376-24.7V-35.72h6.992l3.04.608v-4.256l-3.04.608h-17.48V-50.388h12.92l3.04.608v-4.256l-3.04.608h-12.92V-60.42c.988-.76,1.216-.988,1.216-1.52,0-.684-.532-.988-1.6-.988H531.58v9.5H519.648l-2.964-.608v4.256l2.964-.608H531.58V-38.76H517.064l-3.04-.608v4.256l3.04-.608h25V-24.7h-23.56l-3.04-.608v4.256l3.04-.608h23.56v21.2c-.076,2.432-.912,3.268-3.344,3.344h-7.448V6.08h10.716c4.484,0,6.384-1.824,6.384-6.08V-21.66h5.548l3.04.608v-4.256l-3.04.608ZM501.712,5.624h5.928V-21.888a56.521,56.521,0,0,0,8.512-4.788L515.7-28.5c-4.332,1.52-6.156,2.128-8.056,2.736v-17.4h4.788l3.04.608v-4.256l-3.04.608H507.64V-60.876c.988-.684,1.216-.988,1.216-1.52,0-.684-.532-.988-1.672-.988h-5.472v17.176H495.86l.076-.228c.152-.912.3-1.824.456-2.66,0-.152.3-2.356.608-4.332,1.064-.684,1.52-1.216,1.52-1.672,0-.532-.532-.988-1.14-1.14l-5.548-.836a164.336,164.336,0,0,1-3.344,27.284l2.356.684a63.373,63.373,0,0,0,4.484-14.06h6.384v19.152c-3.952,1.14-7.448,2.052-13.224,3.268l2.052,5.472a2.043,2.043,0,0,0,1.444,1.216c.684,0,1.14-.532,1.52-1.748,3.724-1.444,5.852-2.356,8.208-3.344Zm18.012-21.432a56.381,56.381,0,0,1,8.512,12.236l5.7-5.548c-4.408-3.952-6.08-5.092-12.464-8.588Zm63.232-20.748h17.328v-23.56h-31.16v23.56h7.524v.38c-.152,18.924-3.8,30.172-12.16,37.62l1.368,1.824c9.728-5.472,14.516-13.452,16.264-27.056h12.312c-.456,8.132-.76,11.932-1.52,17.48S591.62,0,587.972.152H580.9V3.344h9.88c4.864.076,7.068-1.444,7.828-5.472.836-4.256,1.6-12.768,2.128-24.7H582.5c.3-3.116.456-6.232.456-9.424ZM575.2-39.6v-17.48h18.848V-39.6ZM608.34-9.88h6.08V-53.96c.988-.684,1.216-.988,1.216-1.52,0-.684-.532-.988-1.6-.988h-5.7Zm5.548,15.124h9.956c4.636,0,6.612-1.9,6.536-6.232v-58.6c.912-.684,1.216-.988,1.216-1.52,0-.684-.532-.988-1.6-.988h-6v60.8c0,2.356-.988,3.344-3.344,3.344h-6.764ZM673.7-6.612c-2.888.532-4.332.684-8.664,1.216l1.52,5.548c.3,1.14.684,1.6,1.292,1.6.684,0,1.064-.456,1.6-1.748a108.638,108.638,0,0,0,21.432-8.512l-.76-1.976c-4.94,1.444-6.688,1.824-10.716,2.736V-28.424h4.484l3.04.608v-4.256l-3.04.608h-14.9l-3.04-.608v4.256l3.04-.608H673.7Zm-5.016-41.116-3.04-.608v4.256l3.04-.608H688.9c.988,17.024,2.356,26.524,5.016,34.884,2.736,8.36,7.676,15.048,11.172,15.048,1.748,0,3.192-1.976,3.8-5.168.684-3.268.988-6.384,1.444-14.364l-2.964-.608c-.684,10.26-1.14,13.072-2.128,13.072s-3.572-4.484-5.168-9.12c-2.812-7.828-4.256-17.328-5.244-33.744h11.628l3.04.608v-4.256l-3.04.608h-11.78c-.228-3.04-.3-6.308-.3-10.26v-2.888c.988-.684,1.216-.988,1.216-1.52,0-.684-.532-.988-1.6-.988h-5.548v5.4c0,1.748.076,5.776.3,10.26ZM648.924.532h8.208V3.344H662.3V-18.468H643.756v22.8h5.168Zm0-2.812V-15.656h8.208V-2.28Zm48.412-57.38a78.987,78.987,0,0,1,5.32,9.5l5.168-4.1a37.55,37.55,0,0,0-8.816-6.688Zm-38.152-.76H646.8l-3.04-.608v4.408l3.04-.608h12.388l3.04.608v-4.408Zm1.9,10.488H643.528l-3.04-.608v4.408l3.04-.608h17.556l2.964.608V-50.54Zm-1.9,10.488H646.8l-3.04-.608v4.408l3.04-.608h12.388l3.04.608v-4.408Zm0,10.488H646.8l-3.04-.608v4.408l3.04-.608h12.388l3.04.608v-4.408Zm86.64,10.564C738.908-10.716,727.28-3.04,716.488,1.064l.532,2.128c12.844-3.344,24.168-8.968,30.932-15.428V6H753.8v-22.42A53.114,53.114,0,0,0,783.6,2.736,30.273,30.273,0,0,1,786.408-3.5c-12.084-2.2-25.764-8.74-31.388-14.9h24.928l3.04.608V-22.04l-3.04.608h-8.056V-32.148h11.1l3.04.608V-35.8l-3.04.608h-11.1V-45.3h8.056l3.04.608v-4.256l-3.04.608H753.8V-55.48l3.268-.228a108.249,108.249,0,0,0,11.628-1.14c2.052-.228,4.1-.456,6.232-.76a6.647,6.647,0,0,0,2.28.608,1.547,1.547,0,0,0,1.672-1.368c0-.38-.228-.684-.684-1.064l-5.244-4.028c-8.512,2.432-30.248,5.168-51.3,6.536l.076,2.508c5.092.076,5.7.076,7.22.076,5.624,0,9.956-.152,14.136-.38l2.432-.152c.228-.076,1.14-.076,2.432-.152v6.688h-25.08l-2.964-.608v4.256l2.964-.608h7.372v10.108H719.908l-3.04-.608v4.256l3.04-.608h10.336v10.716h-7.372l-2.964-.608v4.256l2.964-.608Zm20.14-3.04H753.8V-32.148h12.16Zm0-13.756H753.8V-45.3h12.16ZM736.172-45.3h11.78v10.108h-11.78Zm0,13.148h11.78v10.716h-11.78ZM813.388-3.116l.76-.836a99.924,99.924,0,0,0,10.64-14.592l.684-1.14h31.92l3.04.608v-4.256l-3.04.608H797.5l-3.04-.608v4.256l3.04-.608h19.608l-.3.836A156.491,156.491,0,0,1,809.74-3.116l-1.216.076H804.5c-2.432,0-3.42,0-6.84-.076l1.9,6.308c.3,1.14.76,1.672,1.444,1.672.76,0,1.292-.532,1.9-1.824C822.128,1.672,838.772-.3,846.752-2.128l.3-.076a76.621,76.621,0,0,1,5.32,7.98l7.3-4.56c-6-6.46-12.008-11.172-21.584-16.8l-1.824,1.6a84.759,84.759,0,0,1,8.816,9.272l-1.292.152c-6.536.608-23.256,1.444-28.044,1.444Zm16.188-57.152c1.292-.456,1.824-.988,1.824-1.672,0-.608-.532-1.064-1.52-1.14l-6.46-.76c-5.4,10.488-18.62,24.092-30.932,31.92l.988,2.052c13.072-5.32,25.992-15.808,34.428-28.044l.3.532c8.36,12.54,19.3,21.736,30.856,25.992a44.167,44.167,0,0,1,3.344-6.916A76.044,76.044,0,0,1,829.424-60.04ZM842.04-37.7H812.4l-3.04-.608v4.256l3.04-.608h29.64l3.04.608V-38.3Z" transform="translate(-9.5 63.84)" fill="#fff"/>
</svg>
