<svg xmlns="http://www.w3.org/2000/svg" width="1260" height="523.842" viewBox="0 0 1260 523.842">
  <g id="グループ_379" data-name="グループ 379" transform="translate(-457 -1409)">
    <g id="枠線" transform="translate(331.238 197.693)">
      <g id="枠線-2" data-name="枠線" transform="translate(125.762 1218.149)" fill="none" stroke="#ffd900" stroke-width="16">
        <rect width="1260" height="517" stroke="none"/>
        <rect x="8" y="8" width="1244" height="501" fill="none"/>
      </g>
      <rect id="長方形_97" data-name="長方形 97" width="503.753" height="52.539" transform="translate(504.434 1211.307)" fill="#fff"/>
    </g>
    <path id="パス_30916" data-name="パス 30916" d="M-197.436-.864h1.92V-14.688h-1.92v-.864h4.1l5.28,12.024,5.088-12.024h4.008v.864h-1.92V-.864h1.92V0h-5.88V-.864h1.92v-12.12l-5.136,12.1h-1.1l-5.328-12.192V-.864h1.848V0h-4.8Zm26.808,0V0h-6.744V-.864h2.352V-14.688h-2.256v-.864h6.552v.864h-2.256V-.864Zm1.584,0h1.92V-14.688h-1.92v-.864h3.912l7.224,11.664v-10.8h-1.92v-.864h4.872v.864h-1.92V0h-1.1l-8.112-13.224V-.864h1.92V0h-4.872Zm22.176,0V0h-6.744V-.864h2.352V-14.688h-2.256v-.864h6.552v.864h-2.256V-.864Zm11.736-17.184h3.576A38.264,38.264,0,0,0-129.876-7.3,20.008,20.008,0,0,0-124.764,1.3a17.386,17.386,0,0,1,1.728-2.424,16.381,16.381,0,0,1-2.808-3.12,23.572,23.572,0,0,1-3.288-7.1,30.192,30.192,0,0,1-1.032-7.008c0-.168,0-.456.024-.816h-4.992l-.96-.192v1.512Zm-9.456,19.56c3.528-2.688,6.192-8.136,7.272-14.9.528-.168.744-.384.744-.672s-.192-.456-.672-.576l-2.3-.576A40.408,40.408,0,0,1-141.2-7.1c-1.2,3.864-2.16,5.832-3.912,8.04ZM-109.14-17.5h7.92l.936.192V-18.7l-.936.192h-17.712l-.96-.192V-17.3l.96-.192h7.608v7.416h-6.384l-.96-.192V-8.88l.96-.192h6.384v8.52h-8.688l-.96-.192V.648l.96-.192h19.848l.96.192V-.744l-.96.192h-8.976v-8.52h6.672l.96.192v-1.392l-.96.192h-6.672Zm24.384,4.152a32.721,32.721,0,0,0,8.232-5.9H-93.78l-.96-.192v1.392l.96-.192h13.2a27.612,27.612,0,0,1-4.392,4.1l-1.968-.456v4.776h-9.216l-.96-.192v1.392l.96-.192h9.216V-.6c0,.792-.336,1.128-1.1,1.128H-90.78V1.656h3.816c1.536,0,2.232-.648,2.208-2.136V-8.808H-76l.96.192v-1.392l-.96.192h-8.76Zm22.7,1.632a2.607,2.607,0,0,0-2.64,2.592A2.607,2.607,0,0,0-62.076-6.5,2.617,2.617,0,0,0-59.484-9.12,2.623,2.623,0,0,0-62.052-11.712ZM-49.284-.864h1.92V-14.688h-1.92v-.864h4.1L-39.9-3.528l5.088-12.024H-30.8v.864h-1.92V-.864h1.92V0h-5.88V-.864h1.92v-12.12L-39.9-.888H-41L-46.332-13.08V-.864h1.848V0h-4.8Zm26.808,0V0H-29.22V-.864h2.352V-14.688h-2.256v-.864h6.552v.864h-2.256V-.864Zm1.584,0h1.92V-14.688h-1.92v-.864h3.912L-9.756-3.888v-10.8h-1.92v-.864H-6.8v.864h-1.92V0h-1.1L-17.94-13.224V-.864h1.92V0h-4.872Zm22.176,0V0H-5.46V-.864h2.352V-14.688H-5.364v-.864H1.188v.864H-1.068V-.864Zm19.008-9.5V-.552c-.024.816-.288,1.08-1.08,1.1H16.956V1.56h3.192c1.488,0,2.112-.576,2.112-1.968v-9.96h1.9l.96.192V-11.52l-.96.192h-1.9V-14.88c.288-.216.384-.312.384-.48,0-.216-.168-.312-.528-.312H20.292v4.344h-6.5l-.936-.192v1.344l.936-.192ZM13.716-17.64H4.884v4.08c0,8.928-.336,11.544-1.848,14.9l.552.336A12.466,12.466,0,0,0,6.324-3.768c.384-1.56.528-4.32.576-9.792v-3.12H23.844l.96.192v-1.344l-.96.192H15.9v-1.728c.288-.216.384-.312.384-.48,0-.216-.168-.312-.5-.312H13.716ZM10,1.656h1.872V-11.856c.36-.72.576-1.224,1.056-2.256.624-.192.792-.312.792-.576,0-.216-.144-.36-.408-.432l-2.016-.7a38.545,38.545,0,0,1-4.32,9.864l.5.48A15.95,15.95,0,0,0,10-8.544ZM13.788-7.68a15.7,15.7,0,0,1,2.568,4.7L18.2-4.512a10.173,10.173,0,0,0-3.936-3.6ZM39.036-15.5v-3.72c.312-.216.384-.312.384-.48,0-.216-.168-.312-.5-.312H36.948V-15.5H28.212V-4.08H30.3V-5.64h6.648V1.776h2.088V-5.64h6.84v1.368h2.088V-15.5Zm0,.96h6.84V-6.6h-6.84ZM36.948-6.6H30.3v-7.944h6.648ZM62.1-11.712A2.607,2.607,0,0,0,59.46-9.12,2.607,2.607,0,0,0,62.076-6.5,2.617,2.617,0,0,0,64.668-9.12,2.623,2.623,0,0,0,62.1-11.712ZM74.868-.864h1.92V-14.688h-1.92v-.864h4.1l5.28,12.024L89.34-15.552h4.008v.864h-1.92V-.864h1.92V0h-5.88V-.864h1.92v-12.12L84.252-.888h-1.1L77.82-13.08V-.864h1.848V0h-4.8Zm26.808,0V0H94.932V-.864h2.352V-14.688H95.028v-.864h6.552v.864H99.324V-.864Zm1.584,0h1.92V-14.688h-1.92v-.864h3.912L114.4-3.888v-10.8h-1.92v-.864h4.872v.864h-1.92V0h-1.1l-8.112-13.224V-.864h1.92V0H103.26Zm22.176,0V0h-6.744V-.864h2.352V-14.688h-2.256v-.864h6.552v.864h-2.256V-.864Zm5.808,2.64h1.9V-10.416a21.017,21.017,0,0,1,1.8,4.392L136.6-7.44a11.4,11.4,0,0,0-3.456-3.72v-3H135.4l.96.192v-1.344l-.96.192H133.14v-4.1c.312-.216.384-.312.384-.48,0-.216-.168-.312-.5-.312h-1.776v4.9h-2.952l-.96-.192v1.344l.96-.192h2.688a35.994,35.994,0,0,1-3.792,10.224l.528.432A22.257,22.257,0,0,0,131.244-9.1Zm16.776-.432V-18.408H137.46v19.9h1.92V-.288h6.648V1.344Zm-1.992-14.352H139.38v-4.44h6.648Zm0,.96v4.7H139.38v-4.7Zm0,5.664v5.136H139.38V-6.384ZM172.02-3.768l.96.192V-4.92l-.96.192H166c.168-.984.192-1.224.288-2.064h5.256V-13.92H160v7.128h4.488a10.112,10.112,0,0,1-.264,2.064h-4.992l-.936-.192v1.344l.936-.192h4.728c-.744,2.088-2.928,3.792-6.5,5.04l.192.672c4.344-.864,7.128-2.712,7.992-5.3,1.1,2.472,3.408,4.248,6.7,5.184a7.862,7.862,0,0,1,.936-1.848c-3.288-.6-6.024-2.04-7.224-3.744ZM161.844-7.752V-9.96h7.824v2.208Zm0-3.168v-2.04h7.824v2.04Zm-7.1,12.7h1.8v-12.6a16.871,16.871,0,0,1,1.68,3.72l1.368-1.344A7.563,7.563,0,0,0,156.54-11.4v-2.688h1.68l.936.192V-15.24l-.936.192h-1.68v-4.176c.312-.216.384-.312.384-.48,0-.216-.168-.312-.5-.312h-1.68v4.968h-2.448l-.96-.192V-13.9l.96-.192h2.256a40.3,40.3,0,0,1-3.36,10.152l.48.408A20.479,20.479,0,0,0,154.74-9.12Zm7.344-18.408v1.944h1.8v-1.944H167.2v1.944H169v-1.944h2.88l.96.192v-1.344l-.96.192H169V-19.2c.312-.24.384-.336.384-.48,0-.24-.144-.336-.5-.336H167.2v2.424h-3.312V-19.2c.312-.24.384-.336.384-.48,0-.24-.144-.336-.5-.336h-1.68v2.424h-2.736l-.96-.192v1.344l.96-.192ZM189.324-6.36h5.88v-8.808h-7.752a21.2,21.2,0,0,0,1.992-2.9H196l.96.192v-1.344l-.96.192H177.2v3.192a100.413,100.413,0,0,1-.336,10.464,21.144,21.144,0,0,1-1.68,6.408l.5.408A14.379,14.379,0,0,0,178.5-4.128c.5-1.992.672-4.608.72-11.712v-2.232h7.824a24.942,24.942,0,0,1-.7,2.9H181.4V-6.36h5.928V-.192c0,.768-.336,1.1-1.08,1.1h-1.8V1.92h2.856c1.416,0,2.04-.576,2.016-1.9ZM183.3-14.208h9.936v2.856H183.3Zm9.936,6.888H183.3v-3.072h9.936ZM178.86,1.08a14.407,14.407,0,0,0,5.448-4.416c.5-.072.792-.288.792-.528a.58.58,0,0,0-.336-.432l-1.8-.96A18.791,18.791,0,0,1,178.476.552Zm12.216-5.568a24.831,24.831,0,0,1,4.368,5.3l1.7-1.872a18.936,18.936,0,0,0-5.616-4.008Zm-338.892,46.1h8.376a11.143,11.143,0,0,1-3.384-3.432,12.823,12.823,0,0,1-1.92-7.3,12.823,12.823,0,0,1,1.92-7.3,10.879,10.879,0,0,1,3.384-3.432h-8.376Zm21.96-16.272-.312-3.84c.288-.24.408-.384.408-.576,0-.264-.216-.432-.552-.432h-2.352l.288,1.344.288,3.648-6.6.432-.96-.144.1,1.488.936-.24,6.624-.432.5,6.1-8.64.552-.96-.12.1,1.488.936-.264,8.664-.552.648,7.68,2.232-.144-.648-7.68,8.184-.5,1.08.12-.12-1.512-1.032.264-8.208.528-.5-6.1,7.008-.432,1.08.144-.1-1.536-1.056.288Zm22.272,5.52,6.288-.84a10.869,10.869,0,0,1-3.984,5.136l.36.552c3.288-1.3,5.832-4.152,6.36-7.128l-9.144,1.2-.384-3.192c.264-.216.36-.36.36-.5a.367.367,0,0,0-.408-.36h-2.184l.192,1.224.36,3.1-3.792.5-1.056-.048.192,1.488,1.008-.336,3.792-.5L-104.4,41.7l2.064-.264Zm35.136-5.88a23.823,23.823,0,0,1-6.12,7.776c-3.192,2.592-5.928,3.816-11.016,4.872l-1.272.024.864,2.136c.144.336.36.528.6.528.264,0,.456-.168.624-.552,5.424-1.224,8.832-2.856,11.784-5.64a20.229,20.229,0,0,0,5.208-8.832ZM-87.072,22.36A22.562,22.562,0,0,1-81.1,27.5l1.968-1.992a14.811,14.811,0,0,0-7.656-3.768ZM-43.464,37.7C-46.752,34.384-52.44,28-55.2,24.472c-1.1-1.416-1.536-1.824-1.968-1.824-.408,0-.96.432-1.608,1.272-2.88,3.552-3.936,4.8-5.544,6.528l-1.2,1.008,1.344,1.824c.168.24.312.336.48.336.288,0,.432-.216.456-.672,2.208-3.168,4.968-7.056,5.592-7.872.264-.36.456-.552.552-.552s.288.168.48.456a153.017,153.017,0,0,0,11.448,14.76Zm-2.424-17.784a2.439,2.439,0,0,0-2.472,2.4,2.438,2.438,0,0,0,2.424,2.448,2.433,2.433,0,0,0,2.424-2.424A2.423,2.423,0,0,0-45.888,19.912Zm-.072.96a1.475,1.475,0,0,1,1.488,1.464A1.455,1.455,0,0,1-45.936,23.8,1.47,1.47,0,0,1-47.4,22.336,1.481,1.481,0,0,1-45.96,20.872ZM-20.3,30.3l-20.04-.744v2.52l20.04-.72ZM3.552,24.976a23.823,23.823,0,0,1-6.12,7.776C-5.76,35.344-8.5,36.568-13.584,37.624l-1.272.024.864,2.136c.144.336.36.528.6.528.264,0,.456-.168.624-.552C-7.344,38.536-3.936,36.9-.984,34.12a20.229,20.229,0,0,0,5.208-8.832ZM-15.072,22.36A22.562,22.562,0,0,1-9.1,27.5L-7.128,25.5a14.811,14.811,0,0,0-7.656-3.768ZM17.3,25.312l.96.192V24.16l-.96.192h-4.08V20.776c.312-.216.384-.312.384-.48,0-.216-.168-.312-.5-.312H11.16v4.368H7.584l-.96-.192V25.5l.96-.192H14.04a19.78,19.78,0,0,1-1.512,6.336A45.841,45.841,0,0,0,7.968,27.3l-.576.5a61.443,61.443,0,0,1,4.344,5.328l.048.072a21.692,21.692,0,0,1-5.3,6.648l.456.672a19.084,19.084,0,0,0,5.952-5.808,50.161,50.161,0,0,1,3.072,4.944l1.992-1.3a47.978,47.978,0,0,0-4.1-5.256,19.208,19.208,0,0,0,2.232-7.8Zm6.72.984h-5.5l-.96-.192v1.344l.96-.192h5.5v12.1c0,.984-.432,1.416-1.416,1.416H20.16v1.008H23.9c1.536,0,2.208-.624,2.184-2.136V27.256H27.6l.96.192V26.1l-.96.192H26.088v-5.52c.312-.216.384-.312.384-.48,0-.216-.168-.312-.5-.312H24.024Zm-6.24,3.792a36.756,36.756,0,0,1,2.88,5.208l2.04-1.464a16.743,16.743,0,0,0-4.392-4.2ZM43.512,33.88a9.657,9.657,0,0,0-3.1-3.624,11.286,11.286,0,0,0,1.2-.672L42,29.368h8.544V24.544h-7.8a18.034,18.034,0,0,0,3.984-3H38.064l.1-.1.456-.456c.72-.12.864-.192.864-.456,0-.168-.168-.312-.384-.36l-1.92-.336a26.829,26.829,0,0,1-6.7,5.688l.24.624c.936-.36,1.536-.624,2.28-.984v4.2h6.1A35.473,35.473,0,0,1,30.5,32.776l.144.648A28.672,28.672,0,0,0,39.72,30.64a13.031,13.031,0,0,1,.888.984,31.635,31.635,0,0,1-10.032,4.392l.12.72A29.686,29.686,0,0,0,41.448,32.9a6.451,6.451,0,0,1,.576,1.344l-.072.048a24.9,24.9,0,0,1-4.872,3.024,33.232,33.232,0,0,1-6.6,2.4l.168.672a27.631,27.631,0,0,0,11.76-4.3,7.549,7.549,0,0,1,.072,1.056,5.147,5.147,0,0,1-.72,3.1c-.408.432-.744.552-1.656.552H37.968V41.8h2.64a3.319,3.319,0,0,0,2.472-.7c.792-.648,1.2-1.872,1.2-3.6a8.429,8.429,0,0,0-.552-3.072l.192-.048.168.24a15.335,15.335,0,0,0,7.152,6.192,9.581,9.581,0,0,1,1.32-2.04,17.806,17.806,0,0,1-8.088-4.584,27.6,27.6,0,0,0,5.568-2.424,2.378,2.378,0,0,0,.456.072c.312,0,.528-.168.528-.384,0-.12-.072-.216-.288-.384L49.1,29.848a36.109,36.109,0,0,1-5.568,4.008ZM43.224,22.5a19.6,19.6,0,0,1-1.632,2.04H34.1a19.825,19.825,0,0,0,2.88-2.04Zm-2.5,3v2.9H34.872V25.5Zm1.848,0h6.048v2.9H42.576Zm19.632,4.848v6.216c0,2.04.336,2.736,1.536,3.144a25.773,25.773,0,0,0,6.312.456c1.608,0,2.808-.048,4.44-.144V37.84a46.876,46.876,0,0,1-5.616.336,12.408,12.408,0,0,1-3.792-.36c-.48-.216-.6-.5-.6-1.464v-6h10.32l1.08.216V29.032l-1.08.216H64.488v-5.9h7.944l1.056.216V22.024l-1.056.216H57.672l-1.056-.216V23.56l1.056-.216h4.536v5.9H56.184l-1.08-.216v1.536l1.08-.216Zm36.12-.288,1.056.216V28.744l-1.056.216H79.848l-1.056-.216V30.28l1.056-.216h8.376c-.048,2.688-.408,4.512-1.152,5.76a11.383,11.383,0,0,1-6.936,4.944l.192.816c3.576-.72,6.48-2.16,8.04-3.936,1.512-1.656,2.208-4.032,2.208-7.584ZM94.08,22.24h-11.3l-1.056-.216V23.56l1.056-.216h11.3l1.056.216V22.024Zm6.72-.144a4.739,4.739,0,0,0-2.832-2.5l-.384.336a9.646,9.646,0,0,1,1.608,3.024Zm-5.856-1.8a10.746,10.746,0,0,1,1.464,3.288l1.584-.768a4.58,4.58,0,0,0-2.616-2.832Zm19.248,20.472a11.89,11.89,0,0,0,7.128-4.344,16.8,16.8,0,0,0,3.48-7.9l-.744-.24c-1.584,4.512-4.584,8.184-7.728,9.456V22.24c.36-.24.48-.408.48-.624a.449.449,0,0,0-.456-.408l-2.376-.168.216,1.44Zm-11.352.072a13.167,13.167,0,0,0,5.376-5.712c.984-2.136,1.416-4.944,1.416-9.36V23.056c.36-.24.48-.408.48-.624a.432.432,0,0,0-.456-.408l-2.448-.168.216,1.44v2.688c0,7.3-1.152,10.584-5.016,14.232Zm32.016.768V20.152H126.48a10.879,10.879,0,0,1,3.384,3.432,12.823,12.823,0,0,1,1.92,7.3,12.823,12.823,0,0,1-1.92,7.3,10.879,10.879,0,0,1-3.384,3.432Z" transform="translate(1087 1430)" fill="#363636" stroke="rgba(0,0,0,0)" stroke-width="1"/>
  </g>
</svg>
