<svg xmlns="http://www.w3.org/2000/svg" width="535.721" height="39.484" viewBox="0 0 535.721 39.484">
  <path id="store-tit" d="M524.6,6.527a20.311,20.311,0,0,1-3.527,3.528l-.756-.648A34.021,34.021,0,0,0,524.49.983l2.88.792a.5.5,0,0,1,.432.468c0,.4-.288.612-1.008.72-.684,1.224-.972,1.728-1.224,2.124h8.856l1.44-.288V6.815l-1.44-.288ZM514.591,3.5V5.951h5.184v4.968h-5.184v2.556h4.9l1.44-.288V15.1l-1.44-.288h-14.58V2.171h14.58l1.4-.288V3.791l-1.4-.288Zm-7.2,9.972h4.716V10.919h-4.716Zm0-3.888h9.9v-2.3h-9.9ZM512.107,3.5h-4.716V5.951h4.716Zm11.915,9.9-1.439.288V11.6l1.439.288h9.5l1.44-.288v2.088l-1.44-.288ZM507.751,27.766V16.5h24.011V27.766H524.2V29.89c0,.72.216.9,1.008.936h7.884c1.08-.036,1.4-.324,1.512-1.368l.18-2.052,1.548.18-.288,3.132c-.144,1.836-.9,2.556-2.736,2.556h-9.288c-1.583,0-2.555-.684-2.627-1.836V27.766h-3.888c-1.548,4.572-4.68,5.976-14.04,6.336l-.252-1.152c6.948-.54,10.152-2.052,11.16-5.184Zm21.167-9.935H510.6v1.908h18.323Zm0,3.24H510.6V23.05h18.323Zm0,5.363V24.382H510.6v2.052Zm-58.787-8.171-1.872.36V15.635l1.872.36h29.375l1.872-.36v2.988l-1.872-.36ZM457.167,7.571v3.636h7.164v18.9c.036,1.98-.9,2.844-3.024,2.844h-2.556V31.438h1.476c1.08-.036,1.44-.4,1.476-1.512V24.6h-4.536v9.288h-2.592V24.6h-3.96v8.568h-2.592V11.207h6.552V7.571h-5.94l-1.44.288V5.843l1.44.288h5.94V1.2h2.412c.5,0,.756.144.756.468,0,.252-.108.36-.576.72V6.131h7.308l1.4-.288V7.859l-1.4-.288Zm0,15.587H461.7V18.443h-4.536Zm0-6.155H461.7V12.647h-4.536Zm-2.592-4.356h-3.96V17h3.96Zm0,5.8h-3.96v4.715h3.96Zm4.248-16.272.72-.648a22.587,22.587,0,0,1,4.392,2.556l-2.268,1.872A20.784,20.784,0,0,0,458.823,2.171ZM444.675,9.263a32.978,32.978,0,0,0-4.1-5.22l-.108-.108a28.2,28.2,0,0,1-6.984,8.28l-.72-.684a41.1,41.1,0,0,0,5.8-10.548l3.06.648a.536.536,0,0,1,.468.432c0,.324-.288.54-.936.648L441,3l-.072.108a19.927,19.927,0,0,1,5.8,3.924Zm-40.69-2.844v4.464c-.036,8.532-.324,12.779-1.008,15.155a18.422,18.422,0,0,1-4.1,7.74l-.792-.5c2.376-5.22,2.808-8.82,2.808-22.391v-5.9H414.1v-4h3.1c.5,0,.756.144.756.468,0,.252-.108.4-.576.72V4.979h11.916l1.44-.288V6.707l-1.44-.288Zm-29.3,23.248h4.234V4.784h-4.061V3.229h11.793V4.784H382.6V29.667h4.233v1.555H374.689Zm-5.909,1.555h-1.987l-14.6-23.8V29.667h3.456v1.555h-8.77V29.667h3.456V4.784h-3.456V3.229h7.042l13,21V4.784h-3.456V3.229h8.77V4.784H368.78Zm-36.8-1.555h4.233V4.784h-4.061V3.229h11.794V4.784h-4.061V29.667h4.234v1.555H331.983Zm-13.362,0h3.456V7.851l-9.245,21.773h-1.987l-9.59-21.946V29.667h3.326v1.555h-8.64V29.667H299.4V4.784h-3.456V3.229h7.387l9.5,21.643,9.159-21.643H329.2V4.784h-3.456V29.667H329.2v1.555H318.621Zm-40.542.67a8.291,8.291,0,0,1-7.6.777,6.15,6.15,0,0,1-2.311-1.62v9.677h3.111v1.3h-9.5v-1.3h3.153V11.7h3.2l.043,1.814a5.7,5.7,0,0,1,2.333-1.685,8.553,8.553,0,0,1,3.283-.6,7.778,7.778,0,0,1,7.366,4.665,12.152,12.152,0,0,1,1.058,5.227,13.169,13.169,0,0,1-1.08,5.465A8.893,8.893,0,0,1,278.079,30.337Zm-.886-15.077a4.781,4.781,0,0,0-7.668-1.123,5.235,5.235,0,0,0-1.361,3.736v7.474a4.518,4.518,0,0,0,1.512,3.521,5.532,5.532,0,0,0,3.845,1.361,4.3,4.3,0,0,0,3.888-1.944q1.252-1.944,1.253-5.962A14.29,14.29,0,0,0,277.193,15.26ZM255.667,29.321a7.692,7.692,0,0,1-10.282.756q-1.771-1.62-1.771-5.076V12.992h-2.722V11.7H246.9V25a5.824,5.824,0,0,0,1.1,3.975,3.606,3.606,0,0,0,2.786,1.209,5.519,5.519,0,0,0,3.37-1.123,4.431,4.431,0,0,0,1.512-3.8V12.992H252.9V11.7h6.005v18.23h2.764v1.253l-5.918.3ZM234.78,30.337a8.4,8.4,0,0,1-4.709,1.36,7.934,7.934,0,0,1-7.409-4.708,12.031,12.031,0,0,1-1.058-5.184,12.681,12.681,0,0,1,1.144-5.487,8.925,8.925,0,0,1,3.2-3.758,8.381,8.381,0,0,1,4.687-1.339,8.138,8.138,0,0,1,4.45,1.231,8.22,8.22,0,0,1,3.024,3.477,11.846,11.846,0,0,1,1.08,5.184,12.383,12.383,0,0,1-1.166,5.444A9.174,9.174,0,0,1,234.78,30.337Zm.194-13.112a8.234,8.234,0,0,0-2.009-3.456,4.165,4.165,0,0,0-2.981-1.252,4.036,4.036,0,0,0-3.542,2.138,10.976,10.976,0,0,0-1.339,5.854,16.112,16.112,0,0,0,.734,4.989,8.8,8.8,0,0,0,2.052,3.586,3.923,3.923,0,0,0,6.415-.8,11.053,11.053,0,0,0,1.383-6.048A16.269,16.269,0,0,0,234.974,17.225ZM214.683,13.64a2.7,2.7,0,0,0-2.376,1.6,7.589,7.589,0,0,0-.907,3.8V29.926h3.715v1.3h-9.806v-1.3h2.851V12.992h-2.808V11.739l5.919-.346.043,3.111a5.469,5.469,0,0,1,2.1-2.355,5.416,5.416,0,0,1,2.959-.928,4.857,4.857,0,0,1,1.815.345,3.216,3.216,0,0,1,1.3.864v3.845h-1.9A2.632,2.632,0,0,0,214.683,13.64ZM201.265,31.222H197.55V28.717a6.145,6.145,0,0,1-2.311,2.1,7.835,7.835,0,0,1-3.953.929,11.746,11.746,0,0,1-7.063-1.988,11.18,11.18,0,0,1-3.953-5.1A18.2,18.2,0,0,1,179.061,18a20.856,20.856,0,0,1,1.3-7.3,13.031,13.031,0,0,1,4.082-5.745A10.893,10.893,0,0,1,191.5,2.71a14.747,14.747,0,0,1,5.119.821,13.32,13.32,0,0,1,3.737,2.03v5.184H197.9a7.3,7.3,0,0,0-2.225-5.054,6.68,6.68,0,0,0-4.471-1.6,7.05,7.05,0,0,0-6.243,3.088,13.841,13.841,0,0,0-2.1,7.928,28.759,28.759,0,0,0,.907,7.279,14.127,14.127,0,0,0,2.808,5.7,5.95,5.95,0,0,0,4.709,2.225,6.169,6.169,0,0,0,3.2-.842,6.077,6.077,0,0,0,2.246-2.312,6.524,6.524,0,0,0,.821-3.24V20.768h-4.881V19.213h11.059v1.555h-2.463Zm-45.618-1.3h3.5V12.992h-3.153V11.739l6.393-.432V29.926h3.5v1.3H155.647Zm4.925-21.773a2.621,2.621,0,0,1-1.923-.8,2.617,2.617,0,0,1-.8-1.922,2.623,2.623,0,0,1,.8-1.923,2.712,2.712,0,0,1,3.845,0,2.623,2.623,0,0,1,.8,1.923,2.617,2.617,0,0,1-.8,1.922A2.621,2.621,0,0,1,160.572,8.153ZM144.389,29.926H147.2V17.96a6.46,6.46,0,0,0-.993-3.888,3.521,3.521,0,0,0-3.024-1.339,4.663,4.663,0,0,0-3.413,1.317,4.551,4.551,0,0,0-1.339,3.391V29.926h2.764v1.3h-8.769v-1.3h2.765V3.013h-3.111V1.76l6.351-.389V13.424a5.36,5.36,0,0,1,2.289-1.62,8.949,8.949,0,0,1,3.327-.583,6.366,6.366,0,0,1,4.773,1.706,6.933,6.933,0,0,1,1.663,5.033V29.926H153.2v1.3h-8.813Zm-23.673-1.49a4.474,4.474,0,0,0,3.262,1.4,5.072,5.072,0,0,0,3.607-1.4,6.313,6.313,0,0,0,1.879-3.607H130.8a7.943,7.943,0,0,1-2.484,4.9,7.313,7.313,0,0,1-5.205,1.965,8.018,8.018,0,0,1-4.9-1.425c-1.281-.951-3.11-2.174-2.786-3.672a13.364,13.364,0,0,1-.864-4.839,13.973,13.973,0,0,1,.907-4.989A8.955,8.955,0,0,1,118.4,12.8a8.273,8.273,0,0,1,5.227-1.576,9.368,9.368,0,0,1,6.091,2.03v4.622h-2.2a6.268,6.268,0,0,0-1.3-3.909,3.915,3.915,0,0,0-3.154-1.447,4.3,4.3,0,0,0-3.931,2.116,10.2,10.2,0,0,0-1.3,5.4,15.249,15.249,0,0,0,.735,4.731A9.008,9.008,0,0,0,120.716,28.436Zm-14.139.885a7.692,7.692,0,0,1-10.282.756Q94.523,28.457,94.524,25V12.992H91.8V11.7h6V25a5.83,5.83,0,0,0,1.1,3.975,3.606,3.606,0,0,0,2.786,1.209,5.516,5.516,0,0,0,3.37-1.123,4.428,4.428,0,0,0,1.512-3.8V12.992h-2.765V11.7h6.005v18.23h2.765v1.253l-5.919.3ZM88.261,31.7a3.287,3.287,0,0,1-1.9-.561,3.042,3.042,0,0,1-1.166-1.512,8.177,8.177,0,0,1-2.528,1.555,8.884,8.884,0,0,1-3.175.518,5.571,5.571,0,0,1-3.78-1.252,4.085,4.085,0,0,1-1.447-3.24q0-3.715,4.709-5.271l6.134-2.117V17.744a7.451,7.451,0,0,0-.8-4,3.013,3.013,0,0,0-2.7-1.188,3.411,3.411,0,0,0-2.894,1.382,6.935,6.935,0,0,0-1.124,3.975h-2.2V13.294a6.436,6.436,0,0,1,2.635-1.49,11.681,11.681,0,0,1,3.586-.54,7.408,7.408,0,0,1,5.076,1.555,5.809,5.809,0,0,1,1.75,4.579V28.8A1.03,1.03,0,0,0,89.6,29.969a1.842,1.842,0,0,0,1.426-.691l.6.907a4.469,4.469,0,0,1-1.447,1.08A4.323,4.323,0,0,1,88.261,31.7ZM85.107,21.243l-4.493,1.6a3.879,3.879,0,0,0-2.764,3.932,3.292,3.292,0,0,0,.885,2.332,2.816,2.816,0,0,0,2.139.951,4.688,4.688,0,0,0,2.2-.519,6.9,6.9,0,0,0,2.03-1.771Zm-17.642-7.6a2.694,2.694,0,0,0-2.376,1.6,7.578,7.578,0,0,0-.907,3.8V29.926H67.9v1.3H58.09v-1.3h2.852V12.992H58.134V11.739l5.918-.346L64.1,14.5a5.469,5.469,0,0,1,2.1-2.355,5.419,5.419,0,0,1,2.96-.928,4.848,4.848,0,0,1,1.814.345,3.2,3.2,0,0,1,1.3.864v3.845h-1.9A2.631,2.631,0,0,0,67.465,13.64ZM49.477,29.321A6.843,6.843,0,0,1,43.99,31.7a6.832,6.832,0,0,1-4.8-1.62Q37.424,28.457,37.424,25V12.992H34.7V11.7h6.005V25a5.824,5.824,0,0,0,1.1,3.975A3.606,3.606,0,0,0,44.6,30.185a5.519,5.519,0,0,0,3.37-1.123,4.431,4.431,0,0,0,1.512-3.8V12.992H46.712V11.7h6v18.23h2.764v1.253l-5.918.3Zm-26.184.346h3.456V7.851L17.5,29.624H15.517L5.927,7.678V29.667H9.253v1.555H.613V29.667H4.069V4.784H.613V3.229H8l9.5,21.643L26.663,3.229h7.214V4.784H30.421V29.667h3.456v1.555H23.293ZM414.6,8.111h2.844c.5,0,.756.144.756.468,0,.252-.108.4-.576.72v4.284H428l1.368-.288v2.016L428,15.023H417.628v6.048h10.728V33.634h-3.024V31.906H409.2v1.98h-2.952V21.071H414.6Zm-5.4,14.4v7.956h16.128V22.51Zm29.639-4.247V13.8h-2.556l-1.4.288V12.071l1.4.288h2.556V8.039h2.448c.5,0,.756.144.756.468,0,.252-.108.4-.576.72v3.132h2.88l1.44-.288v2.016l-1.44-.288h-2.88v4.464h3.708l1.44-.288v2.016l-1.44-.288H434.415l-1.44.288V17.975l1.44.288Zm6.624,14.615h-2.628V31.366h-5.616v1.908h-2.592v-10.8h10.836Zm-2.628-8.964h-5.616v6.012h5.616Z" transform="translate(-0.613 -0.983)" fill-rule="evenodd"/>
</svg>
