<svg xmlns="http://www.w3.org/2000/svg" xmlns:xlink="http://www.w3.org/1999/xlink" width="232.941" height="57.757" viewBox="0 0 232.941 57.757">
  <defs>
    <clipPath id="clip-path">
      <rect id="長方形_53" data-name="長方形 53" width="26" height="52" fill="#fff"/>
    </clipPath>
  </defs>
  <g id="グループ_340" data-name="グループ 340" transform="translate(-48.142 -4)">
    <g id="click_mark" data-name="click mark" transform="translate(42.927 5) rotate(20)">
      <g id="グループ_128" data-name="グループ 128" transform="translate(21.271 -8.806)" clip-path="url(#clip-path)">
        <path id="パス_690" data-name="パス 690" d="M22.945,23.9a3.105,3.105,0,0,0-1.893.587,3.34,3.34,0,0,0-4.882-1.33A3.577,3.577,0,0,0,12.177,20.8V12.046a3.231,3.231,0,1,0-6.463,0V26.594a8.173,8.173,0,0,0-2.487,2.681,6.392,6.392,0,0,0-.845,3.382l.144,4.62a8.232,8.232,0,0,0,1.613,4.656l4.747,6.427L9.062,51.3A.741.741,0,0,0,9.8,52h.045a.741.741,0,0,0,.695-.785l-.19-3.161a.743.743,0,0,0-.144-.4l-4.878-6.6a6.752,6.752,0,0,1-1.323-3.819l-.144-4.62a4.906,4.906,0,0,1,.649-2.6,6.675,6.675,0,0,1,1.2-1.523v4.934a.741.741,0,1,0,1.481,0V12.046a1.75,1.75,0,1,1,3.5,0v9.772s0,.007,0,.011v2.155a.741.741,0,1,0,1.481,0V22.319a2.109,2.109,0,0,1,2.714,2.007.9.9,0,0,0,.57,1,.867.867,0,0,0,1.034-.441,1.861,1.861,0,0,1,3.4,1.017.783.783,0,0,0,1.521.36,1.634,1.634,0,0,1,1.493-.886,1.686,1.686,0,0,1,1.605,1.708v12.28l-2.274,6.779a.743.743,0,0,0-.037.287l.312,4.532a.741.741,0,0,0,.738.691l.052,0A.741.741,0,0,0,24,50.864l-.3-4.385,2.266-6.754A.742.742,0,0,0,26,39.489v-12.4A3.176,3.176,0,0,0,22.945,23.9M8.6,5.851a.741.741,0,0,0,.741-.742V.742a.741.741,0,1,0-1.481,0V5.109a.741.741,0,0,0,.741.742M3.529,7.832a.742.742,0,0,0,.546-1.243L1.286,3.542a.741.741,0,1,0-1.092,1L2.982,7.591a.738.738,0,0,0,.546.241m9.986,0a.738.738,0,0,0,.524-.217l3.041-3.047a.741.741,0,1,0-1.047-1.049L12.991,6.565a.742.742,0,0,0,.524,1.267" transform="translate(0 0)" fill="#fff"/>
      </g>
    </g>
    <g id="グループ_339" data-name="グループ 339" transform="translate(0 -1)">
      <path id="パス_739" data-name="パス 739" d="M204.663-4.623,194.644,1.017l1.2,1.953,13.076-7.613-13.076-7.613-1.223,1.933Z" transform="translate(72.16 37.255)" fill="#fff"/>
      <path id="パス_741" data-name="パス 741" d="M9.51-14.32c.183-.446.365-.913.528-1.4a7.921,7.921,0,0,1,.325-.812L7.846-17.02a11.929,11.929,0,0,1-.812,2.7H3.544a17.788,17.788,0,0,1-2.435-.122v2.375a19.5,19.5,0,0,1,2.435-.122H6.02A15.618,15.618,0,0,1,4.558-9.957H3.523c.041.345.041.345.081,1.137A20.254,20.254,0,0,1,.54-6.142,7.014,7.014,0,0,1,2.062-4.132,13.434,13.434,0,0,0,3.6-5.492V-.479a17.878,17.878,0,0,1-.122,2.354H5.959a17.352,17.352,0,0,1-.1-2.354V-7.948A22.486,22.486,0,0,0,8.516-12.19h8.361a19.728,19.728,0,0,1,2.435.122v-2.375a17.788,17.788,0,0,1-2.435.122Zm4.16,6.515V-9.064a12.705,12.705,0,0,1,.1-2.151H11.317a13.686,13.686,0,0,1,.1,2.111v1.3H9.287a14.545,14.545,0,0,1-2.172-.122v2.293a16.33,16.33,0,0,1,2.192-.1h2.111V-.966H8.739a16.821,16.821,0,0,1-2.253-.122V1.246a17.808,17.808,0,0,1,2.273-.122h8.118a19.965,19.965,0,0,1,2.273.122V-1.088A15.229,15.229,0,0,1,16.9-.966H13.671V-5.736h2.537a16.185,16.185,0,0,1,2.172.1V-7.928a14.734,14.734,0,0,1-2.172.122Zm19.3-5.743v1.055H29.237a15.506,15.506,0,0,1-1.867-.081v1.887a11.059,11.059,0,0,1,1.847-.1h3.755v1.035H29.846a16.307,16.307,0,0,1-1.969-.081,11.7,11.7,0,0,1,.081,1.644v3.267a13.166,13.166,0,0,1-.081,1.745c.548-.041,1.055-.061,1.948-.061h3.146v1.157h-4.2a16.51,16.51,0,0,1-2.07-.081V-.2c.649-.061,1.38-.1,2.293-.1h3.978v.244a13.222,13.222,0,0,1-.122,2.07h2.314a11,11,0,0,1-.122-2.05V-.3h4.282A20.047,20.047,0,0,1,41.7-.175V-2.184a14.68,14.68,0,0,1-2.253.1h-4.4V-3.239h3.45c.893,0,1.38.02,1.908.061a16.522,16.522,0,0,1-.061-1.7V-8.151A12.313,12.313,0,0,1,40.4-9.835a16.038,16.038,0,0,1-1.908.081h-3.45v-1.035h4.4a11.059,11.059,0,0,1,1.847.1V-12.6a10.911,10.911,0,0,1-1.847.1h-4.4v-1.055h4.384a19.556,19.556,0,0,1,2.192.081V-15.5a18.856,18.856,0,0,1-2.334.122H34.027V-15.7a5.958,5.958,0,0,1,.1-1.2H31.733a6.352,6.352,0,0,1,.1,1.177v.345H26.9a22.988,22.988,0,0,1-2.5-.1c.061.69.081,1.157.1,1.766v.325l-.061,4.566a38.786,38.786,0,0,1-.264,3.9A11.835,11.835,0,0,1,22.743-.175a9.363,9.363,0,0,1,1.725,1.948,12.6,12.6,0,0,0,1.583-4.3c.446-2.151.589-4.871.589-11.02Zm0,5.378v.893H29.947v-.893Zm2.07,0h3.288v.893H35.041Zm-2.07,2.395v.954H29.947v-.954Zm2.07,0h3.288v.954H35.041Zm11.832-6.251a2.242,2.242,0,0,1,.325-.02c.183,0,.183,0,.568.02.446,0,2.232.041,2.557.041,0,0,.264-.02.345-.02a.993.993,0,0,0-.162.264,26.88,26.88,0,0,1-2.435,3.47,12.433,12.433,0,0,1-1.827,1.806L48.091-4.64a9.125,9.125,0,0,1,1.766-1.847c1.563-1.38,2.983-2.09,4.16-2.09a1.114,1.114,0,0,1,1.238,1.1A9.928,9.928,0,0,0,50.892-4.62,3.234,3.234,0,0,0,50-2.367,2.943,2.943,0,0,0,51.48.251a8.716,8.716,0,0,0,4.526.852A36.81,36.81,0,0,0,61.2.738a5.98,5.98,0,0,1,.934-.081l-.2-2.618a17.633,17.633,0,0,1-5.967.852c-2.456,0-3.43-.426-3.43-1.482a2.137,2.137,0,0,1,1.055-1.664A12.334,12.334,0,0,1,55.539-5.31v.487a16.067,16.067,0,0,1-.122,2.354l2.354-.061A8.332,8.332,0,0,1,57.711-3.6c0-.142,0-.325.02-.67v-.812c0-.284,0-.284-.02-.812v-.223q2.618-.913,3.044-1.035A17.915,17.915,0,0,1,63.008-7.7l-.954-2.334a6.341,6.341,0,0,1-1.5.609q-.761.244-3.105,1.1a2.67,2.67,0,0,0-2.9-2.151,4.906,4.906,0,0,0-2.862.913c-.264.2-.264.2-.406.3l-.02-.041a10.5,10.5,0,0,0,1.867-2.7c2.05-.061,4.627-.223,6.109-.406,1.035-.122,1.035-.122,1.6-.162l-.142-2.314a27.417,27.417,0,0,1-5.317.69c-1.116.061-1.116.061-1.279.081.041-.081.081-.142.183-.365a15.506,15.506,0,0,1,.812-1.827l-2.659-.284a8.038,8.038,0,0,1-.812,2.517,24.525,24.525,0,0,1-4.708-.264Zm27.4,5.074a8.408,8.408,0,0,1,.751,1.319,7.137,7.137,0,0,0,.913-1.116c0,.142-.02.609-.041,1.4V-.276A16.736,16.736,0,0,1,75.773,2h2.151V1.083h6.332a15.452,15.452,0,0,1,1.948.122V-.845a11.581,11.581,0,0,1-1.908.1H82.308V-2.225H83.83a13.757,13.757,0,0,1,1.684.081V-3.97a11.577,11.577,0,0,1-1.7.081h-1.5V-5.37H83.83a14.191,14.191,0,0,1,1.684.081V-7.116a11.4,11.4,0,0,1-1.7.081h-1.5V-8.5H84.2a14.026,14.026,0,0,1,1.624.081v-1.948a11.614,11.614,0,0,1-1.684.081H82.673a11.727,11.727,0,0,0,.771-1.786l-1.989-.426a10.461,10.461,0,0,1-.832,2.212H78.675A18.531,18.531,0,0,0,80.1-13.123h4.018v1.969h2.131a12.274,12.274,0,0,1-.061-1.319v-1.177a13.416,13.416,0,0,1,.061-1.5,11.3,11.3,0,0,1-1.786.1H80.766c.3-.994.487-1.563.528-1.7L79-17.04c-.122.69-.2,1.137-.426,1.989H76.179a8.943,8.943,0,0,1-1.482-.061,6.657,6.657,0,0,1,.061,1.015v1.725a9.211,9.211,0,0,1-.081,1.319h2.009v-2.07H77.9a13.888,13.888,0,0,1-3.633,5.338v-.446c0-.609.02-1.076.061-1.5a10.959,10.959,0,0,1-1.238.061H71.105a22.96,22.96,0,0,0,1.218-4.465h.791a7.915,7.915,0,0,1,1.2.081v-2.172a13.3,13.3,0,0,1-1.948.122H69.989a13.5,13.5,0,0,1-1.948-.122v2.192a10.956,10.956,0,0,1,1.725-.1h.446a14.553,14.553,0,0,1-.649,2.9A12.126,12.126,0,0,1,67.31-6.974a8.565,8.565,0,0,1,.771,2.517,6.178,6.178,0,0,0,1.1-1.847c-.041.548-.061,1.157-.061,1.563V-.561a15.466,15.466,0,0,1-.122,2.09h2.029V-.378h1.441V.515h1.867a13.686,13.686,0,0,1-.061-1.563ZM77.9-7.035V-8.5H80.36v1.461Zm0,1.664H80.36v1.482H77.9Zm0,3.146H80.36V-.743H77.9Zm-6.88-5.5h1.441v5.378H71.024Zm26.667-4.018c1.157.406,1.542.568,2.395.934a7.256,7.256,0,0,1-3.41,2.8A6.759,6.759,0,0,1,98.1-6.385a9.97,9.97,0,0,0,3.734-3.531,10.66,10.66,0,0,1,1.137.69l-.122-.041a7.635,7.635,0,0,1,.507,2.029,13.9,13.9,0,0,0,1.6.081c1.664,0,2.232-.426,2.6-2.029a33.052,33.052,0,0,0,.548-5.074c.081-1.421.081-1.441.122-1.766a15.822,15.822,0,0,1-1.908.081H99.863a17.229,17.229,0,0,1-2.212-.122v2.151a14.942,14.942,0,0,1,2.172-.1h1.339a7.367,7.367,0,0,1-.325,1.644c-.771-.3-1.177-.467-2.314-.832Zm8.28-2.273a20.635,20.635,0,0,1-.406,4.079c-.183.71-.386.873-1.015.873a7.23,7.23,0,0,1-1.116-.081l.893-1.5c-.852-.467-1.116-.609-1.7-.913a10.691,10.691,0,0,0,.568-2.456ZM96.717-.358l1.644.974a18.622,18.622,0,0,0,1.36-5.561L97.976-5.33A10.983,10.983,0,0,1,96.717-.642V-3.179a11.442,11.442,0,0,1,.061-1.461,10.165,10.165,0,0,1-1.38.061H92.435a11.112,11.112,0,0,1-1.583-.081,13.674,13.674,0,0,1,.081,1.6v3c0,.649-.041,1.319-.1,1.989h2.029V.941h2.009v.71H96.8A9.617,9.617,0,0,1,96.717.089ZM92.8-2.874h2.07V-.845H92.8ZM90.832-14.2a12.658,12.658,0,0,1,1.644-.081h2.7a13.065,13.065,0,0,1,1.644.081v-2.029a9.185,9.185,0,0,1-1.644.1h-2.7a9.049,9.049,0,0,1-1.644-.1Zm-.67,2.943a12.726,12.726,0,0,1,1.624-.081h3.978a14.794,14.794,0,0,1,1.542.061v-2.07a10.339,10.339,0,0,1-1.624.081h-3.9a8.672,8.672,0,0,1-1.624-.1Zm.731,2.8a10.055,10.055,0,0,1,1.279-.061H95.52a10.959,10.959,0,0,1,1.238.061v-1.887a8.537,8.537,0,0,1-1.238.061H92.171a10.278,10.278,0,0,1-1.279-.061Zm0,2.841a10.842,10.842,0,0,1,1.258-.061h3.328a10.278,10.278,0,0,1,1.279.061V-7.5a8.677,8.677,0,0,1-1.258.061H92.171A10.278,10.278,0,0,1,90.893-7.5Zm11.162,1.319a5.793,5.793,0,0,1,.1-1.3H99.985a12.729,12.729,0,0,1,.1,1.5V.089c0,1.258.507,1.5,3,1.5,2.922,0,3.288-.386,3.511-3.876a7.124,7.124,0,0,1-1.887-.629A8.047,8.047,0,0,1,104.49-.7c-.142.3-.406.365-1.563.365-.771,0-.873-.061-.873-.528Zm3.47-.345A15.529,15.529,0,0,1,107.677.272L109.4-.784a24.382,24.382,0,0,0-2.232-4.729ZM100.8-6.933a12.335,12.335,0,0,1,3.065,3l1.522-1.319a17.245,17.245,0,0,0-3.146-2.821ZM124.7-10.546v-1.319c1.6-.041,1.969-.041,2.456-.041,1.684,0,2.659.041,3.41.1l-.02-2.334c-.751.081-2.334.122-5.865.142a15.957,15.957,0,0,1,.1-2.415l-2.557.02a11.012,11.012,0,0,1,.122,2.456c-1.055.041-1.055.041-1.725.061-1.664.041-1.867.041-3.186.081-2.618.1-2.943.1-3.45.1a8.838,8.838,0,0,1-.994-.041l.081,2.415c.548-.081.548-.081,3.612-.3.893-.061,2.8-.122,5.7-.2,0,.548,0,1.684.02,1.725a.836.836,0,0,0,.02.244,3.391,3.391,0,0,0-2.111-.609,3.736,3.736,0,0,0-4.039,3.694,3.171,3.171,0,0,0,1.4,2.74,3.74,3.74,0,0,0,2.354.731,3.343,3.343,0,0,0,2.983-1.441,4.272,4.272,0,0,1-2.354,2.963A9.578,9.578,0,0,1,117.215-.6a6.661,6.661,0,0,1,1.441,2.293A14.187,14.187,0,0,0,122.33.028a6.512,6.512,0,0,0,3.024-5.48,6.176,6.176,0,0,0-.649-2.862c0-.244-.02-.406-.02-.487ZM122.37-7.2a1.849,1.849,0,0,1-1.989,1.827,1.6,1.6,0,0,1-1.725-1.6A1.778,1.778,0,0,1,120.544-8.6C121.66-8.6,122.37-8.049,122.37-7.2Zm19.564-.974a7.968,7.968,0,0,0,.832-.528c.406-.264,1.867-1.36,2.232-1.664.69-.589,2.172-1.908,3.186-2.841a4.351,4.351,0,0,1,1.055-.832l-1.258-1.786a2.99,2.99,0,0,1-1.258.264c-1.969.142-4.445.244-6.17.244a18.355,18.355,0,0,1-2.395-.122l.1,2.435a6.846,6.846,0,0,1,.974-.1c3.673-.162,4.972-.244,5.743-.345l.02.02-.365.365a67.763,67.763,0,0,1-6.068,5.277A18.251,18.251,0,0,1,135.7-5.878l1.38,2.192a12.5,12.5,0,0,1,8.361-3.41c2.456,0,4.018,1.035,4.018,2.618,0,1.441-.731,2.314-2.415,2.943a5.458,5.458,0,0,0-.934-1.827A4.368,4.368,0,0,0,142.6-5.025c-2.029,0-3.491,1.218-3.491,2.9A2.9,2.9,0,0,0,140.331.211a6.866,6.866,0,0,0,3.937.934A10.041,10.041,0,0,0,149.18-.013,4.96,4.96,0,0,0,151.94-4.5c0-2.78-2.232-4.566-5.7-4.566a9.907,9.907,0,0,0-4.262.934Zm2.922,7.225a5.493,5.493,0,0,1-1.055.081c-1.5,0-2.415-.467-2.415-1.279,0-.568.467-.934,1.2-.934C143.72-3.077,144.492-2.347,144.857-.946Z" transform="translate(99.459 40.04)" fill="#fff" stroke="rgba(0,0,0,0)" stroke-width="1"/>
    </g>
  </g>
</svg>
