<svg xmlns="http://www.w3.org/2000/svg" width="380.779" height="45.8" viewBox="0 0 380.779 45.8">
  <path id="お問い合わせ_" data-name="お問い合わせ　＞　" d="M527.921,1981.35a32,32,0,0,1,9.6-1.65c5.351,0,8.851,2.8,8.851,7.1,0,3.2-2.1,5.55-5.05,5.55a3.459,3.459,0,0,1-3.151-1.7,9.635,9.635,0,0,1-.7-4.4,17.341,17.341,0,0,1,.1-2.2,21.1,21.1,0,0,1-5.55,2.2,16.7,16.7,0,0,0,.85,6.4c1.3,3.6,4.15,5.55,8.2,5.55a11.108,11.108,0,0,0,11.35-11.4c0-7.1-5.95-12.2-14.3-12.2a34.675,34.675,0,0,0-10.2,1.4v-6.5c1.9-.2,2.9-.35,4.55-.65,3.45-.6,4.4-.75,5.3-.9l-.2-5.6a55.772,55.772,0,0,1-9.65,1.9v-3.2a30.708,30.708,0,0,1,.3-5.45H521.97a34.26,34.26,0,0,1,.3,5.75v3.3c-.55,0-.8,0-2,.05-.7.05-1.25.05-1.75.05a30.678,30.678,0,0,1-6.05-.45l.05,5.6a9.427,9.427,0,0,1,1.05-.05c.15,0,.6,0,1.25.05.6,0,2,.05,2.75.05,1.25,0,1.95,0,2.7-.05,1.65-.1,1.65-.1,2.05-.1l.05,7.7a26.747,26.747,0,0,0-7.3,4.25c-2.75,2.4-4.3,5.05-4.3,7.4a7.344,7.344,0,0,0,2.75,5.65,15.573,15.573,0,0,0,9.45,3.55c2.351,0,4.151-1.15,4.6-2.9a14.891,14.891,0,0,0,.4-4.25Zm-5.6,9.1c0,1.65-.25,2.1-1.1,2.1a6.012,6.012,0,0,1-3.2-1.1,2.758,2.758,0,0,1-1.65-2.3c0-1.8,2.2-4,5.95-6Zm32.3-21.1a42.408,42.408,0,0,0-9.9-10.25l-4.7,3.15a42.7,42.7,0,0,1,10,10.8Zm10.288,3.9h9c1.65,0,3.4.05,4.6.15-.1-1.1-.15-2.25-.15-4.5v-8.25c0-1.95.05-3.1.15-4.7a42.2,42.2,0,0,1-5.1.2H564.56a46.736,46.736,0,0,1-5.1-.2,55.9,55.9,0,0,1,.2,5.65v32.75a44.688,44.688,0,0,1-.3,6.2h5.85a42.9,42.9,0,0,1-.3-6.15v-21.15Zm0-13h8.551v2.6h-8.55v-2.6Zm0,6.45h8.551v2.65h-8.55v-2.65Zm36.552-5.15a44.038,44.038,0,0,1,.25-5.6,47.686,47.686,0,0,1-5.15.2h-9.5a44.966,44.966,0,0,1-5.1-.2c.1,1.45.15,2.8.15,4.7v8.25c0,2.15-.05,3.15-.1,4.5,1.1-.1,2.9-.15,4.55-.15h9.651v20.45c0,1.1-.25,1.3-1.65,1.3a58.351,58.351,0,0,1-6.15-.45,17.455,17.455,0,0,1,1.4,5.3c3.3.2,3.85.2,4.65.2,2.9,0,4.25-.2,5.25-.8,1.3-.8,1.75-2.1,1.75-4.85v-32.85Zm-14.4-1.3h9.151v2.6h-9.151Zm0,6.45h9.151v2.65h-9.151Zm3.151,13.45a33,33,0,0,1,.15-3.45c-1.05.1-2.3.15-3.851.15h-12.35c-1.45,0-2.6-.05-3.7-.15.1,1.05.15,2.15.15,3.5v10.7a44.559,44.559,0,0,1-.25,4.85h5.3v-3.35h11.15c1.451,0,2.5.05,3.551.15a31.307,31.307,0,0,1-.15-3.4v-9Zm-14.551,1.15h9.5v6.55h-9.5Zm32.714-21.4a23.88,23.88,0,0,1,.2,3.2c.2,13.85,1.1,21.1,3.15,26.1,2,4.8,4.7,7.25,8.051,7.25,4.25,0,7.15-4.05,9.75-13.8a24.678,24.678,0,0,1-5-4.55,36.864,36.864,0,0,1-2.65,9.05c-.6,1.4-1.3,2.15-2.05,2.15-1.6,0-3.2-3.2-4.051-8.4a93.564,93.564,0,0,1-.95-13.4,58.117,58.117,0,0,1,.4-7.6h-6.85Zm25.251,4.75a43.621,43.621,0,0,1,7.1,12.3,50.691,50.691,0,0,1,3.2,14.45l6.2-2.35c-1.45-11-4.95-19.35-11.25-26.9Zm28.409,10a37.665,37.665,0,0,1,4.3-.2h17.1a36.354,36.354,0,0,1,4.5.2v-3.5a48.6,48.6,0,0,0,8.15,4.4,26.869,26.869,0,0,1,2.751-5.5,47.009,47.009,0,0,1-12.751-6.85,32.671,32.671,0,0,1-8.4-8.45h-5.95a34.9,34.9,0,0,1-7.851,8.35,49.953,49.953,0,0,1-12.75,7.2,19.362,19.362,0,0,1,2.9,5.1,50.907,50.907,0,0,0,8-4.2v3.45Zm4.351-5.4h-1.4a34.984,34.984,0,0,0,9.8-9.75,45.655,45.655,0,0,0,10.3,9.75h-18.7Zm-2.451,31.2v-2.55h21.852v2.55h5.95a31.238,31.238,0,0,1-.3-5.25v-11.7a34.078,34.078,0,0,1,.25-4.95,32.794,32.794,0,0,1-4.35.2h-25a31.451,31.451,0,0,1-4.3-.2,45.159,45.159,0,0,1,.25,4.95v11.65a39.995,39.995,0,0,1-.3,5.3h5.95Zm0-16.85h21.852v9.4H663.935Zm40.33,6.95a30.3,30.3,0,0,1,3.85-4.3,16.042,16.042,0,0,0,2.2-2.35h.1a25.343,25.343,0,0,0-.1,2.95v4.45c0,5.05-.05,6.5-.3,8h6.5c-.25-2.2-.4-7.8-.4-14.95l.05-5.2c5.5-5,10.4-7.55,14.55-7.55,5.251,0,8.551,3.35,8.551,8.7,0,6.1-4.2,10.35-10.2,10.35a22.888,22.888,0,0,1-8.9-1.85,18.644,18.644,0,0,1,.95,6.5,25.61,25.61,0,0,0,7.45,1.1,19.939,19.939,0,0,0,8.9-1.9c4.95-2.55,7.95-7.85,7.95-14.15a14.665,14.665,0,0,0-3.85-10.3,13.948,13.948,0,0,0-9.75-4.1c-4.9,0-8.951,1.55-14.4,5.5a8.827,8.827,0,0,0-1.2.95l-.1.05c.05-.15.1-1.25.2-3.4a21.155,21.155,0,0,1,2.85-3.25l-1.9-2.05a2.285,2.285,0,0,1-.7.25v-.9c.1-1.4.1-1.4.15-2.35a21.528,21.528,0,0,1,.5-4.8l-6.451-.05a12.351,12.351,0,0,1,.2,2.2v.5c0,.45-.05,1.15-.05,2.1,0,1.8-.05,2.45-.15,3.75-2.8.2-5.55.35-6.45.35-.45,0-.85-.05-1.65-.1l.35,5.65c1.55-.3,1.55-.3,7.6-.75-.1,4.1-.1,4.15-.2,7.2-5.95,5.5-7.9,7.2-9.05,8Zm85.682-.45c-3.25,1.3-7.95,1.9-14.451,1.9-8.15,0-10.3-1.05-10.7-5.25-.1-1-.25-6.45-.25-9.05v-1.05c.05-2.65.05-2.65.05-2.9v-1.35c6.95-.4,6.95-.4,14.55-.7a43.082,43.082,0,0,1-.45,6.25c-.3,1.95-.85,2.6-2.15,2.6-1.5,0-3.85-.9-6.55-2.45a26.616,26.616,0,0,1,.35,4.1c0,.7,0,1-.05,2a16.39,16.39,0,0,0,7.15,1.7,6.094,6.094,0,0,0,6.1-3.75c.8-1.8,1.25-5.55,1.3-10.6,2.35,0,5.2-.05,6.95-.05a17.544,17.544,0,0,1,2.85.15l-.1-5.95c-1.65.2-1.65.2-9.7.45v-6.25a22.783,22.783,0,0,1,.25-3.45h-6.251c.3,1.95.3,1.95.3,9.9-7.45.35-7.45.35-14.45.7.15-7.9.15-7.9.45-9.75h-6.7c.3,1.8.35,3.2.35,8.5,0,.3,0,.75-.05,1.55-4.95.3-7.7.45-8.15.45-.25,0-.75,0-1.45-.05l.4,5.85c2.25-.4,2.25-.4,9.25-.9-.05,3.9-.05,4.1-.05,4.85,0,8.6.2,11.4.9,13.65,1.5,4.8,5.551,6.6,14.9,6.6,3.3,0,9.9-.35,13.551-.75,1.7-.2,1.7-.2,2.25-.25Zm90.8-12.4-25.4,14.3,3.05,4.95,33.152-19.3-33.152-19.3-3.1,4.9Z" transform="translate(-510.77 -1954.75)" fill="#fff" fill-rule="evenodd"/>
</svg>
