<svg xmlns="http://www.w3.org/2000/svg" xmlns:xlink="http://www.w3.org/1999/xlink" width="491.805" height="57.757" viewBox="0 0 491.805 57.757">
  <defs>
    <clipPath id="clip-path">
      <rect id="長方形_53" data-name="長方形 53" width="26" height="52" fill="#fff"/>
    </clipPath>
  </defs>
  <g id="グループ_148" data-name="グループ 148" transform="translate(-593 -2621.622)">
    <path id="パス_693" data-name="パス 693" d="M-209.391-14.658c.231-.567.5-1.218.735-1.806.168-.441.252-.672.357-.882l-1.869-.357a12.044,12.044,0,0,1-.966,3.045h-3.822a15.89,15.89,0,0,1-2.352-.126v1.743a21.66,21.66,0,0,1,2.352-.105h3.087a17.64,17.64,0,0,1-1.722,2.709h-1.071a6.443,6.443,0,0,1,.084,1.239,19.459,19.459,0,0,1-3.3,3.108A4.327,4.327,0,0,1-216.7-4.725a24.237,24.237,0,0,0,2.142-2.037V-.735a14.859,14.859,0,0,1-.126,2.247h1.848a16.371,16.371,0,0,1-.1-2.247V-8.652a28.752,28.752,0,0,0,2.814-4.494h8.925a22.1,22.1,0,0,1,2.373.105v-1.743a16.417,16.417,0,0,1-2.373.126ZM-205.023-8V-9.639a13.607,13.607,0,0,1,.1-2.247h-1.869a13.456,13.456,0,0,1,.126,2.226V-8h-2.667a10.261,10.261,0,0,1-2.058-.126v1.7a13.8,13.8,0,0,1,2.079-.105h2.646V-.882h-3.36a20.23,20.23,0,0,1-2.142-.105V.735a15.249,15.249,0,0,1,2.142-.126h8.925a15.414,15.414,0,0,1,2.184.126V-.987a14.33,14.33,0,0,1-2.184.105h-3.927V-6.531h3.108a13.966,13.966,0,0,1,2.079.105v-1.7A10.627,10.627,0,0,1-201.915-8Zm18.522-3.7v1.428h-3.528a16.1,16.1,0,0,1-1.995-.084c.042.525.063.84.063,1.7v3.213c0,.882-.021,1.323-.063,1.785a17.052,17.052,0,0,1,1.974-.084h3.549v1.512h-4.956a13.085,13.085,0,0,1-1.995-.105V-.8a19.087,19.087,0,0,1,2.1-.105h4.851v.525a13.2,13.2,0,0,1-.126,2.121h1.7a11.262,11.262,0,0,1-.126-2.1V-.9h5.166a17.36,17.36,0,0,1,2.247.126V-2.331a14.161,14.161,0,0,1-2.184.105h-5.229V-3.738h3.885a16.658,16.658,0,0,1,1.953.084,17.1,17.1,0,0,1-.063-1.764V-8.631a12.236,12.236,0,0,1,.063-1.722,15.986,15.986,0,0,1-1.953.084h-3.885V-11.7h5.019a8.846,8.846,0,0,1,1.827.126v-1.512a10.947,10.947,0,0,1-1.827.105h-5.019a6.271,6.271,0,0,1,.1-1.05h-1.659a6.522,6.522,0,0,1,.1,1.05h-4.347a11.5,11.5,0,0,1-1.869-.105v1.491a11.069,11.069,0,0,1,1.848-.1Zm0,2.667v1.365h-3.99V-9.03Zm1.449,0h4.3v1.365h-4.3ZM-186.5-6.447v1.47h-3.99v-1.47Zm1.449,0h4.3v1.47h-4.3Zm-2.415-9.408h-5.355a20.866,20.866,0,0,1-2.415-.105c.063.5.084,1.092.1,1.638v.336l-.084,5.628c-.021,1.029-.168,2.709-.315,3.78a11.148,11.148,0,0,1-1.575,4.6,5.4,5.4,0,0,1,1.281,1.3,12.189,12.189,0,0,0,1.68-4.536c.441-2.247.567-4.851.567-11.3h13.587a13.524,13.524,0,0,1,2.163.1v-1.575a16.141,16.141,0,0,1-2.226.126h-5.817v-.462a4.441,4.441,0,0,1,.126-1.323h-1.848a4.537,4.537,0,0,1,.126,1.3Zm28.707,5.565a14.6,14.6,0,0,1,2.058.126v-1.7a13.82,13.82,0,0,1-2.1.126h-4.158c.063-1.134.105-2.037.147-3.528a16.681,16.681,0,0,1,.1-1.932h-1.827a15.8,15.8,0,0,1,.084,1.869c0,1.68-.021,2.5-.063,3.591h-2.856a14.723,14.723,0,0,1-2.121-.126v1.7a15.459,15.459,0,0,1,2.142-.126h2.709a15.866,15.866,0,0,1-1.386,5.5,10.9,10.9,0,0,1-3.927,4.767,4.336,4.336,0,0,1,1.113,1.386A12.479,12.479,0,0,0-165.4-2.562a17.964,17.964,0,0,0,1.953-5.523,17.229,17.229,0,0,0,1.491,4.326,14.5,14.5,0,0,0,4.284,5.229,5.914,5.914,0,0,1,1.134-1.554,12.371,12.371,0,0,1-4.242-4.788,20.3,20.3,0,0,1-1.806-5.418Zm-13.146,2.94a21.068,21.068,0,0,1-4.011,2.121l.714,1.659a1.752,1.752,0,0,1,.357-.231c.42-.252.693-.42.819-.483.9-.546,1.323-.819,2.121-1.344V-.483a14.183,14.183,0,0,1-.126,2.058h1.848a10.006,10.006,0,0,1-.126-1.911V-15.5a10.268,10.268,0,0,1,.126-1.911h-1.848a13.055,13.055,0,0,1,.126,1.911Zm-3.7-6.72a18.316,18.316,0,0,1,1.512,4.578l1.428-.63a20.1,20.1,0,0,0-1.575-4.515Zm17.85.693a18.071,18.071,0,0,0-2.835-3.4l-1.176.819a15.793,15.793,0,0,1,2.751,3.507Zm12.369,4.767c-.105,2.583-.378,3.864-1.05,5.1A7.982,7.982,0,0,1-150.8.042a5.159,5.159,0,0,1,1.134,1.365,9.258,9.258,0,0,0,4.6-4.1,12.848,12.848,0,0,0,1.281-5.922h2.1V-.357A1.165,1.165,0,0,0-141.141.8a4.812,4.812,0,0,0,2.352.294c2.961,0,3.213-.336,3.4-4.515a4.151,4.151,0,0,1-1.512-.672,10.422,10.422,0,0,1-.357,3.381c-.168.231-.546.315-1.617.315-1.05,0-1.239-.063-1.239-.5V-8.61h1.344c.441,0,1.05.021,1.764.084a10.949,10.949,0,0,1-.084-1.743v-4.557A11.763,11.763,0,0,1-137-16.611a13.573,13.573,0,0,1-1.932.084h-6.93a13.8,13.8,0,0,1-2.037-.084c.063.84.084,1.428.084,1.764v4.41a7.663,7.663,0,0,1-.042,1.26c-.021.441-.021.441-.042.651.735-.063,1.281-.084,1.7-.084Zm-.861-6.4h7.581v4.977h-7.581Zm-7.245-1.26a18.787,18.787,0,0,1,3.549,3.045l1.008-1.3a20.754,20.754,0,0,0-3.549-2.856Zm-1.029,5.1a18.3,18.3,0,0,1,3.654,2.919l1.008-1.365a25.76,25.76,0,0,0-3.717-2.73Zm3.675,4.788c-1.218,3.15-2.352,5.145-3.591,6.363l1.428,1.3a5.786,5.786,0,0,1,.357-.609c.8-1.281.8-1.281,1.008-1.638a31.552,31.552,0,0,0,2.1-4.431Zm26.754-3.549a1.963,1.963,0,0,0-1.953,1.953,1.959,1.959,0,0,0,1.953,1.932A1.959,1.959,0,0,0-122.157-8,1.927,1.927,0,0,0-124.089-9.933Zm29.61,8.694a53.02,53.02,0,0,0-6.972-6.174,27.166,27.166,0,0,0,3.381-5.838,3.639,3.639,0,0,1,.609-1.05l-1.029-1.05a3.95,3.95,0,0,1-1.491.189l-7.266.084h-.462a10.833,10.833,0,0,1-2-.126l.063,1.995a17.541,17.541,0,0,1,2.415-.168c6.888-.1,6.888-.1,7.14-.126a1.447,1.447,0,0,1-.063.168,1.7,1.7,0,0,0-.126.273,21.854,21.854,0,0,1-4.662,6.888,20.384,20.384,0,0,1-6.951,4.7A5.463,5.463,0,0,1-110.67.189a26.714,26.714,0,0,0,4.1-2.5,23.283,23.283,0,0,0,3.99-3.7A41.931,41.931,0,0,1-95.97.4Zm17.2-14.238a2.393,2.393,0,0,0-2.394,2.394,2.393,2.393,0,0,0,2.394,2.394,2.393,2.393,0,0,0,2.394-2.394A2.393,2.393,0,0,0-77.28-15.477Zm0,.924a1.488,1.488,0,0,1,1.47,1.47,1.488,1.488,0,0,1-1.47,1.47,1.488,1.488,0,0,1-1.47-1.47A1.488,1.488,0,0,1-77.28-14.553Zm-14.049,10,.63-.8c1.281-1.491,2.772-3.339,3.78-4.641L-86.142-11a.829.829,0,0,1,.63-.336c.273,0,.5.126.84.5a96.318,96.318,0,0,0,8,8l1.953,1.722.966-2.1a12.709,12.709,0,0,1-1.827-1.344,70.482,70.482,0,0,1-7.077-6.825c-1.533-1.7-1.932-1.974-2.835-1.974-.987,0-1.554.4-2.772,1.995-1.155,1.512-3.024,3.738-3.633,4.347a2.936,2.936,0,0,1-.714.546Zm23.163-10.227a23.022,23.022,0,0,1,5.292,2.793l.987-1.638A31.413,31.413,0,0,0-67.2-16.3Zm-1.659,5.04a24.184,24.184,0,0,1,5.46,2.94l.945-1.68a32.691,32.691,0,0,0-5.4-2.772Zm.84,10.08a4.866,4.866,0,0,1,.84-.21c.42-.084.777-.168,1.134-.231a25.709,25.709,0,0,0,5.46-1.848c3.717-1.848,6.279-4.725,8.127-9.093A8.62,8.62,0,0,1-55-12.39a14.8,14.8,0,0,1-2.5,4.683,13.521,13.521,0,0,1-6.216,4.662,18.089,18.089,0,0,1-5.775,1.323Zm24.3-10.164-1.89.294a12.654,12.654,0,0,1-2.016.21l.336,1.743a10.915,10.915,0,0,1,1.953-.441l1.869-.315,1.407,7.6a10.861,10.861,0,0,1,.252,2l1.911-.336a8.962,8.962,0,0,1-.462-1.953L-42.777-8.61-36.9-9.6a2.748,2.748,0,0,0,.609-.126.755.755,0,0,1-.105.189,8.626,8.626,0,0,1-3.7,3.906,4.473,4.473,0,0,1,1.365,1.071,11.014,11.014,0,0,0,4.095-5.061,4.464,4.464,0,0,1,.483-.966l-1.029-.924a5.336,5.336,0,0,1-1.239.294L-43.05-10.1l-.315-1.659a10.139,10.139,0,0,1-.252-1.7l-1.806.294A6.812,6.812,0,0,1-45-11.529Zm18.438-6.279a10.486,10.486,0,0,1,.063,1.659c0,4.305-.273,6.993-.924,8.841A10.1,10.1,0,0,1-30.576-.8,5.087,5.087,0,0,1-29.064.609a13.06,13.06,0,0,0,3.612-5.292c.777-2.121.945-3.654,1.113-9.471A10.911,10.911,0,0,1-24.213-16Zm5.292-.168a8.929,8.929,0,0,1,.1,1.722v.462L-20.979-2.2a4.9,4.9,0,0,1-.147,1.659l.987,1.092a3.885,3.885,0,0,1,.5-.231c.21-.084.42-.168.672-.252A14.434,14.434,0,0,0-16-1.449a12.062,12.062,0,0,0,4.326-5.5A6.944,6.944,0,0,1-13.062-8.4a10.262,10.262,0,0,1-2.373,4.1,9.25,9.25,0,0,1-3.7,2.436l.1-12.2a12.113,12.113,0,0,1,.147-2.184ZM-7.1-14.826a14.708,14.708,0,0,1-2.6-.147v1.995A20,20,0,0,1-7.14-13.1H3.234C2.079-8.589.063-5.586-3.318-3.339a16.4,16.4,0,0,1-4.7,2.2A5.073,5.073,0,0,1-6.762.609,19.681,19.681,0,0,0-.126-3.423a18.178,18.178,0,0,0,5.25-9.156l.126-.441a2.514,2.514,0,0,0,.693.105,2.393,2.393,0,0,0,2.394-2.394A2.393,2.393,0,0,0,5.943-17.7a2.393,2.393,0,0,0-2.394,2.394,3.447,3.447,0,0,0,.042.483ZM5.943-16.779a1.488,1.488,0,0,1,1.47,1.47,1.488,1.488,0,0,1-1.47,1.47,1.488,1.488,0,0,1-1.47-1.47A1.488,1.488,0,0,1,5.943-16.779Zm7.245,2.625a18.808,18.808,0,0,1,2.394-.105h6.867a18.019,18.019,0,0,1,2.394.105v-1.89a12.463,12.463,0,0,1-2.415.147H15.6a11.725,11.725,0,0,1-2.415-.147ZM11.382-9.24a20.4,20.4,0,0,1,2.646-.105H24.633A12.067,12.067,0,0,1,21.21-3.99,13.653,13.653,0,0,1,15.12-.924,5.326,5.326,0,0,1,16.233.8a18.927,18.927,0,0,0,5.145-2.541,14.216,14.216,0,0,0,5.061-7.035,5.13,5.13,0,0,1,.588-1.323l-.9-1.05a4.586,4.586,0,0,1-1.659.168H14.049a15.357,15.357,0,0,1-2.667-.147Zm34.545-7.539a17.284,17.284,0,0,1-3.969,3.969A30.074,30.074,0,0,1,31.017-7.371,5.214,5.214,0,0,1,32-5.691a32.774,32.774,0,0,0,7.938-3.591v7.56A13.918,13.918,0,0,1,39.816.735h2.142a17.342,17.342,0,0,1-.1-2.478v-8.715a35.148,35.148,0,0,0,5.04-4.389,7.714,7.714,0,0,1,.756-.714ZM69.741-1.239a53.02,53.02,0,0,0-6.972-6.174,27.167,27.167,0,0,0,3.381-5.838,3.639,3.639,0,0,1,.609-1.05l-1.029-1.05a3.95,3.95,0,0,1-1.491.189l-7.266.084h-.462a10.833,10.833,0,0,1-2-.126l.063,1.995a17.541,17.541,0,0,1,2.415-.168c6.888-.1,6.888-.1,7.14-.126a1.447,1.447,0,0,1-.063.168,1.7,1.7,0,0,0-.126.273,21.855,21.855,0,0,1-4.662,6.888,20.384,20.384,0,0,1-6.951,4.7A5.462,5.462,0,0,1,53.55.189a26.714,26.714,0,0,0,4.1-2.5,23.283,23.283,0,0,0,3.99-3.7A41.931,41.931,0,0,1,68.25.4Zm9.051-13.083a26.429,26.429,0,0,1-4.515-.252l-.042,1.722a1.991,1.991,0,0,1,.441-.042,3.617,3.617,0,0,1,.42.021c.441.021,2.52.063,2.94.063.084,0,.315-.021.378-.021-.126.231-.126.231-.189.336a20.9,20.9,0,0,1-4.6,5.8l1.386,1.386A7.515,7.515,0,0,1,76.692-7.1a7.686,7.686,0,0,1,4.557-2.2c.945,0,1.428.462,1.554,1.491a16.538,16.538,0,0,0-3.087,1.68c-1.491,1.071-2.226,2.2-2.226,3.4A2.8,2.8,0,0,0,78.918-.21a8.7,8.7,0,0,0,4.305.819,35.4,35.4,0,0,0,5.229-.4,5,5,0,0,1,.861-.1l-.189-1.932a17.651,17.651,0,0,1-5.712.84c-2.961,0-4.158-.546-4.158-1.869A2.511,2.511,0,0,1,80.493-4.83a12.885,12.885,0,0,1,2.52-1.386v.651a26.42,26.42,0,0,1-.126,2.793l1.722-.021a5.77,5.77,0,0,1-.042-.861v-.861c.021-.42.021-.861.021-1.092,0-.462,0-.525-.021-1.218A32.32,32.32,0,0,1,90.132-8.61l-.756-1.722a5.9,5.9,0,0,1-1.47.609c-1.029.357-1.89.672-3.528,1.3a2.605,2.605,0,0,0-2.835-2.289,5.419,5.419,0,0,0-2.9.861,4.756,4.756,0,0,0-.714.525,2.875,2.875,0,0,0-.294.21.26.26,0,0,1-.042-.063l.042-.042c0-.021.084-.084.21-.168a5.914,5.914,0,0,0,.672-.777,15.791,15.791,0,0,0,1.7-2.667c2.058-.063,4.746-.252,6.195-.441,1.218-.168,1.218-.168,1.617-.21l-.126-1.68a27.773,27.773,0,0,1-5.67.735c-1.176.063-1.176.063-1.323.084a13.713,13.713,0,0,0,.63-1.407,4.528,4.528,0,0,1,.5-1.071l-1.974-.294a9.129,9.129,0,0,1-.945,2.793ZM99.939-7.728a4.842,4.842,0,0,1,.861,1.3A9.385,9.385,0,0,0,102.081-8c-.021.126-.042.756-.063,1.911V-.525a12.62,12.62,0,0,1-.147,2.226h1.575V.693h6.888a15.9,15.9,0,0,1,2,.126V-.756a12.754,12.754,0,0,1-2,.105H107.9V-2.856h1.869a13.519,13.519,0,0,1,1.827.105V-4.242a11.04,11.04,0,0,1-1.869.105H107.9V-6.195h1.869a13.327,13.327,0,0,1,1.827.105V-7.581a10.594,10.594,0,0,1-1.869.1H107.9V-9.555h2.184c.63,0,1.113.021,1.806.084v-1.491a10.917,10.917,0,0,1-1.848.1h-1.764a12.951,12.951,0,0,0,.714-1.638c.042-.084.084-.21.147-.378l-1.491-.336a10.538,10.538,0,0,1-.861,2.352H104.2a18.819,18.819,0,0,0,1.617-3.171h5.04V-11.8h1.6a7.076,7.076,0,0,1-.084-1.218v-1.092a12.37,12.37,0,0,1,.063-1.428,14.217,14.217,0,0,1-2.037.1h-4.074c.105-.294.315-.966.651-2.016l-1.638-.252a17.636,17.636,0,0,1-.546,2.268h-2.331a10.076,10.076,0,0,1-1.743-.063c.021.483.042.84.042,1.071v1.407a7.54,7.54,0,0,1-.084,1.281h1.512v-2.289h2.1a15.735,15.735,0,0,1-1.953,3.57A12.509,12.509,0,0,1,99.939-7.77v-.756c0-.714.021-1.176.063-1.659a7.7,7.7,0,0,1-1.281.084H96.474a26.739,26.739,0,0,0,1.344-5.166h1.113a11.4,11.4,0,0,1,1.449.084V-16.8a9.824,9.824,0,0,1-1.848.126H95.781a12.562,12.562,0,0,1-1.932-.126v1.659a9.112,9.112,0,0,1,1.806-.126h.651a20.931,20.931,0,0,1-.756,3.549,14.363,14.363,0,0,1-2.52,4.893,5.673,5.673,0,0,1,.8,1.533,11.158,11.158,0,0,0,1.344-2.394c-.063.672-.1,1.764-.1,2.079V-.924a13.289,13.289,0,0,1-.126,2.037h1.575V-1.008h2.037V.147H100c-.042-.483-.063-.9-.063-1.722Zm3.507.252V-9.555h3.066v2.079Zm0,1.281h3.066v2.058h-3.066Zm0,3.339h3.066V-.651h-3.066Zm-6.93-5.859h2.037v6.3H96.516Zm26.1-4.179a27.3,27.3,0,0,1,2.709,1.092,7.983,7.983,0,0,1-3.843,3.549,4.91,4.91,0,0,1,1.071,1.2,10.349,10.349,0,0,0,4.053-4.1,17.6,17.6,0,0,1,1.89,1.2l.8-1.218c-1.029-.63-1.428-.84-2.163-1.218a11.6,11.6,0,0,0,.609-2.709h3.528a25.778,25.778,0,0,1-.462,4.62c-.189.9-.42,1.113-1.176,1.113a8.454,8.454,0,0,1-1.89-.231,5.1,5.1,0,0,1,.378,1.554c.483.042,1.155.084,1.659.084,1.407,0,1.89-.252,2.247-1.155a23.765,23.765,0,0,0,.756-5.229c.1-1.932.1-1.932.147-2.226a16.822,16.822,0,0,1-1.974.084h-6.489a14.56,14.56,0,0,1-2.163-.126v1.638a11.231,11.231,0,0,1,2.142-.126h1.806a10.489,10.489,0,0,1-.42,2.079c-.8-.336-1.281-.525-2.52-.966Zm-7.266-2.31a10.911,10.911,0,0,1,1.575-.084h2.73a11.681,11.681,0,0,1,1.575.084v-1.554a8.034,8.034,0,0,1-1.575.1h-2.73a7.9,7.9,0,0,1-1.575-.1Zm-.735,2.94a12.753,12.753,0,0,1,1.68-.084h3.885c.693,0,1.05.021,1.533.063V-13.86a8.186,8.186,0,0,1-1.68.105H116.3a8.7,8.7,0,0,1-1.68-.105Zm.819,2.919a8.21,8.21,0,0,1,1.407-.084h2.982a8.63,8.63,0,0,1,1.365.084v-1.512a7.378,7.378,0,0,1-1.365.084h-2.982a8.056,8.056,0,0,1-1.407-.084Zm0,2.919a8.251,8.251,0,0,1,1.386-.084h2.982a8.412,8.412,0,0,1,1.386.084V-7.917a10.707,10.707,0,0,1-1.365.063h-2.982a11.963,11.963,0,0,1-1.407-.063ZM116.97,1.6V.462h2.709v.861h1.47a11.916,11.916,0,0,1-.084-1.7V-3.465a13.981,13.981,0,0,1,.063-1.6A12.069,12.069,0,0,1,119.616-5h-2.457a11.917,11.917,0,0,1-1.7-.084,14.18,14.18,0,0,1,.084,1.7v2.94c0,.714-.042,1.365-.1,2.037Zm-.021-5.334h2.73v2.9h-2.73Zm5.733-1.722a10.939,10.939,0,0,1-1.365,4.851L122.661.1a16.2,16.2,0,0,0,1.386-5.271Zm3.633,1.218a7.447,7.447,0,0,1,.1-1.533h-1.7a10.059,10.059,0,0,1,.126,1.659V-.189c0,1.155.483,1.386,2.856,1.386,2.1,0,2.793-.189,3.15-.84a7.616,7.616,0,0,0,.609-2.982,4.86,4.86,0,0,1-1.407-.483c-.042.672-.084,1.26-.147,1.722-.126.84-.273,1.029-.861,1.134-.189.021-1.155.063-1.575.063-.966,0-1.155-.084-1.155-.546Zm4.347-.819a16.511,16.511,0,0,1,2.415,4.7l1.3-.819a20.845,20.845,0,0,0-2.5-4.557Zm-5.229-2.457a11.408,11.408,0,0,1,3.276,2.94l1.134-1.008a16.284,16.284,0,0,0-3.36-2.793ZM146.118-14.2c-2.352.063-3.276.084-5.061.147-3.171.126-3.3.126-3.864.126-.315,0-.483,0-.9-.021l.063,1.806c1.3-.21,6.2-.483,9.786-.546,0,1.155.021,2.247.042,2.436v.147a3.163,3.163,0,0,0-2.331-.84,3.623,3.623,0,0,0-3.885,3.57,3.4,3.4,0,0,0,3.57,3.423,3.418,3.418,0,0,0,2.646-1.092,3.342,3.342,0,0,0,.567-.924,4.712,4.712,0,0,1-.609,2.121c-.9,1.638-2.52,2.667-5.229,3.4a5.408,5.408,0,0,1,1.071,1.617,13.551,13.551,0,0,0,3.465-1.7,6.605,6.605,0,0,0,2.877-5.544,6.084,6.084,0,0,0-.525-2.6V-12.7c1.68-.021,2.037-.021,2.331-.021a36.444,36.444,0,0,1,3.864.1v-1.764c-.693.084-2.289.126-6.216.147a18.01,18.01,0,0,1,.1-2.751h-1.89a9.415,9.415,0,0,1,.1,1.218ZM144-9.534a2.375,2.375,0,0,1,1.659.609,1.412,1.412,0,0,1,.42,1.113,2.222,2.222,0,0,1-2.331,2.31A1.935,1.935,0,0,1,141.687-7.5,2.138,2.138,0,0,1,144-9.534Zm16.485-4.452a10.461,10.461,0,0,1,1.113-.1c3.066-.126,5.439-.252,6.216-.378a.462.462,0,0,0,.168-.021l.021.042-.231.231-.168.168a68.315,68.315,0,0,1-9.765,8.085l1.071,1.6a13.337,13.337,0,0,1,8.82-3.57c2.751,0,4.41,1.155,4.41,3.087a3.211,3.211,0,0,1-1.428,2.688,5.055,5.055,0,0,1-1.722.8,5.889,5.889,0,0,0-.945-1.995,4.308,4.308,0,0,0-3.507-1.722c-1.848,0-3.213,1.113-3.213,2.6a2.865,2.865,0,0,0,.63,1.764c.777.9,2.205,1.365,4.263,1.365,4.641,0,7.728-2.226,7.728-5.544,0-2.73-2.268-4.494-5.8-4.494a10.275,10.275,0,0,0-4.935,1.218l-.042-.084a50.44,50.44,0,0,0,6.783-5.733,3.792,3.792,0,0,1,1.071-.882l-1.008-1.365a2.126,2.126,0,0,1-1.092.252c-1.869.147-4.641.273-6.4.273a11.115,11.115,0,0,1-2.121-.126ZM167.349-.945a7.315,7.315,0,0,1-1.386.126c-1.827,0-2.982-.63-2.982-1.617,0-.735.609-1.2,1.554-1.2C165.963-3.633,166.908-2.709,167.349-.945Zm45.36-7.035L201.264-1.6l.9,1.47L216.006-7.98l-13.839-7.854-.924,1.47Z" transform="translate(868.799 2659)" fill="#fff"/>
    <g id="click_mark" data-name="click mark" transform="translate(610.785 2621.622) rotate(20)">
      <g id="グループ_128" data-name="グループ 128" clip-path="url(#clip-path)">
        <path id="パス_690" data-name="パス 690" d="M22.945,23.9a3.105,3.105,0,0,0-1.893.587,3.34,3.34,0,0,0-4.882-1.33A3.577,3.577,0,0,0,12.177,20.8V12.046a3.231,3.231,0,1,0-6.463,0V26.594a8.173,8.173,0,0,0-2.487,2.681,6.392,6.392,0,0,0-.845,3.382l.144,4.62a8.232,8.232,0,0,0,1.613,4.656l4.747,6.427L9.062,51.3A.741.741,0,0,0,9.8,52h.045a.741.741,0,0,0,.695-.785l-.19-3.161a.743.743,0,0,0-.144-.4l-4.878-6.6a6.752,6.752,0,0,1-1.323-3.819l-.144-4.62a4.906,4.906,0,0,1,.649-2.6,6.675,6.675,0,0,1,1.2-1.523v4.934a.741.741,0,1,0,1.481,0V12.046a1.75,1.75,0,1,1,3.5,0v9.772s0,.007,0,.011v2.155a.741.741,0,1,0,1.481,0V22.319a2.109,2.109,0,0,1,2.714,2.007.9.9,0,0,0,.57,1,.867.867,0,0,0,1.034-.441,1.861,1.861,0,0,1,3.4,1.017.783.783,0,0,0,1.521.36,1.634,1.634,0,0,1,1.493-.886,1.686,1.686,0,0,1,1.605,1.708v12.28l-2.274,6.779a.743.743,0,0,0-.037.287l.312,4.532a.741.741,0,0,0,.738.691l.052,0A.741.741,0,0,0,24,50.864l-.3-4.385,2.266-6.754A.742.742,0,0,0,26,39.489v-12.4A3.176,3.176,0,0,0,22.945,23.9M8.6,5.851a.741.741,0,0,0,.741-.742V.742a.741.741,0,1,0-1.481,0V5.109a.741.741,0,0,0,.741.742M3.529,7.832a.742.742,0,0,0,.546-1.243L1.286,3.542a.741.741,0,1,0-1.092,1L2.982,7.591a.738.738,0,0,0,.546.241m9.986,0a.738.738,0,0,0,.524-.217l3.041-3.047a.741.741,0,0,0-1.047-1.049L12.99,6.565a.742.742,0,0,0,.524,1.267" transform="translate(0)" fill="#fff"/>
      </g>
    </g>
  </g>
</svg>
