<svg xmlns="http://www.w3.org/2000/svg" xmlns:xlink="http://www.w3.org/1999/xlink" width="327.468" height="57.757" viewBox="0 0 327.468 57.757">
  <defs>
    <clipPath id="clip-path">
      <rect id="長方形_53" data-name="長方形 53" width="26" height="52" fill="#fff"/>
    </clipPath>
  </defs>
  <g id="グループ_326" data-name="グループ 326" transform="translate(-504 -2622)">
    <path id="パス_707" data-name="パス 707" d="M20.076-15.141a12.224,12.224,0,0,0-2.2-2.541l-1.512,1.176a12.829,12.829,0,0,1,2.016,2.5H16.359c-.021-.84-.021-.966-.021-1.575a11.826,11.826,0,0,1,.084-1.869H14.007a6.79,6.79,0,0,1,.084,1.113l.063,2.331H10.689c-.9,0-1.638-.042-2.289-.1v2.31a18.916,18.916,0,0,1,2.268-.126h3.549A33.427,33.427,0,0,0,15.351-3.36c.84,2.814,2.163,4.641,3.381,4.641A1.513,1.513,0,0,0,20.1.252a10.567,10.567,0,0,0,.63-3.3,6.665,6.665,0,0,1-1.764-1.281c-.021.8-.1,1.932-.168,2.394-.042.231-.1.336-.168.336a5.693,5.693,0,0,1-1.2-2.415,29.978,29.978,0,0,1-1.008-7.917H18a19.171,19.171,0,0,1,2.268.126v-2.31a10.592,10.592,0,0,1-1.491.1ZM10.143-7.686V-2.6a15.336,15.336,0,0,1-2.268.357L8.3.063c.294-.084.462-.126.714-.189a43.678,43.678,0,0,0,5.8-1.743l-.042-2.016c-1.218.4-1.638.525-2.478.777V-7.686h.462a12.345,12.345,0,0,1,1.26.063V-9.744a9.735,9.735,0,0,1-1.47.084H9.87a10.717,10.717,0,0,1-1.7-.105V-7.6a12.217,12.217,0,0,1,1.6-.084ZM1.659-15.057a13.1,13.1,0,0,1,1.7-.084H6.048a12.493,12.493,0,0,1,1.7.084v-2.037a9.363,9.363,0,0,1-1.7.1H3.36a9.223,9.223,0,0,1-1.7-.1ZM.966-11.97a12.551,12.551,0,0,1,1.68-.084H6.279a14.5,14.5,0,0,1,1.6.063v-2.142a11.047,11.047,0,0,1-1.68.084H2.646a9.25,9.25,0,0,1-1.68-.1Zm.756,2.94a10.635,10.635,0,0,1,1.323-.063H6.258a10.346,10.346,0,0,1,1.281.063V-11a9.241,9.241,0,0,1-1.281.063H3.045A7.794,7.794,0,0,1,1.722-11Zm0,2.94a7.784,7.784,0,0,1,1.3-.063H6.216a10.871,10.871,0,0,1,1.323.063V-8.064A7.153,7.153,0,0,1,6.237-8H3.045a7.794,7.794,0,0,1-1.323-.063ZM3.654,1.7V.714h2.1v.693H7.728a11.076,11.076,0,0,1-.084-1.47V-3.654a12.069,12.069,0,0,1,.063-1.512A10.734,10.734,0,0,1,6.279-5.1h-3a14.861,14.861,0,0,1-1.638-.063,12.556,12.556,0,0,1,.084,1.617V-.357c0,.693-.042,1.407-.105,2.058ZM3.612-3.4H5.775v2.268H3.612Zm21.84-8.274v1.638H24.36a18.06,18.06,0,0,1-2.289-.126V-7.98a20.917,20.917,0,0,1,2.289-.105h1.092v1.743h-.5a19.676,19.676,0,0,1-2.058-.084v2.037a19.027,19.027,0,0,1,2.289-.126h3.654A17.054,17.054,0,0,1,21.525-.693a8.07,8.07,0,0,1,1.218,2.058A20.818,20.818,0,0,0,26.376-.252a16.914,16.914,0,0,0,3.885-2.94Q30.2-2.153,30.2-1.869V-.378a13.326,13.326,0,0,1-.147,2.2h2.562a10.887,10.887,0,0,1-.147-2.2v-1.47c-.021-.546-.042-.987-.063-1.344A15.12,15.12,0,0,0,35.91-.483a24.569,24.569,0,0,0,4.305,1.827A13.987,13.987,0,0,1,41.433-.945,16.5,16.5,0,0,1,37.191-2.31a15.181,15.181,0,0,1-3.36-2.2h4.032a18.059,18.059,0,0,1,2.289.126V-6.426a20.1,20.1,0,0,1-2.079.084H37.38V-8.085H38.6a21.939,21.939,0,0,1,2.31.105v-2.184a17.949,17.949,0,0,1-2.31.126H37.38v-1.638h.693a20.5,20.5,0,0,1,2.079.1v-2.037a18.18,18.18,0,0,1-2.31.126H32.466v-1.575c1.365-.126,2.562-.252,3.549-.378,2.079-.315,3.15-.462,3.234-.462l-1.386-2.016a14.67,14.67,0,0,1-3.36.672,91.8,91.8,0,0,1-10.626.609H23.2a7.591,7.591,0,0,1,.777,1.953c2.037-.021,2.037-.021,6.216-.252v1.449H25.179a18.3,18.3,0,0,1-2.289-.126v2.037a15.085,15.085,0,0,1,2.058-.1Zm2.184,0H30.2v1.638H27.636Zm0,3.591H30.2v1.743H27.636ZM35.2-6.342h-2.73V-8.085H35.2Zm0-3.7h-2.73v-1.638H35.2Zm23.688-6.867a12.837,12.837,0,0,1-1.806.084H47.733a17.053,17.053,0,0,1-2.583-.126v2.331a18.964,18.964,0,0,1,2.541-.105h8.19a22.737,22.737,0,0,1-3.339,2.163c-1.239-.777-1.7-1.071-3.087-1.827l-1.533,1.428a42.794,42.794,0,0,1,4.62,2.982H46.053A21.119,21.119,0,0,1,43.3-10.1v2.373a21.982,21.982,0,0,1,2.646-.126h5.565V-1.2c0,.462-.147.567-.84.567a20.332,20.332,0,0,1-3.066-.21,8.663,8.663,0,0,1,.609,2.331c.651.042,1.7.063,2.394.063,2.583,0,3.276-.462,3.276-2.184V-7.854h4.872A13.452,13.452,0,0,1,55.713-5a6.78,6.78,0,0,1,1.848,1.575A19.6,19.6,0,0,0,60.9-6.888c.882-1.176,1.344-1.764,1.365-1.785L60.942-10.08a17.413,17.413,0,0,1-2.331.105H54.852l.63-.63c-.5-.336-.525-.357-.987-.651,1.092-.672,1.974-1.26,3.255-2.121a23.6,23.6,0,0,0,2.436-1.995ZM64.239-6.594A12.512,12.512,0,0,1,65.6-6.72c.42-.042,1.071-.084,1.974-.147V-.441a15.443,15.443,0,0,1-.126,2.247h2.31a15.443,15.443,0,0,1-.126-2.247V-7.056c.378-.021.861-.084,1.491-.147.084.336.126.5.231.987l1.764-.735a31.543,31.543,0,0,0-1.659-4.1l-1.575.63A11.482,11.482,0,0,1,70.5-8.988c-1.071.126-1.155.126-2.394.189a54.852,54.852,0,0,0,3.549-4.725,8.7,8.7,0,0,1,.693-.966L70.413-15.6a23.955,23.955,0,0,1-2.268,3.675c-.294-.378-.525-.63-.882-1.05a28.245,28.245,0,0,0,1.953-3.213c.231-.42.315-.567.441-.756l-1.995-.819a15.362,15.362,0,0,1-1.743,3.4c-.21-.252-.336-.378-.63-.735l-1.2,1.743a19.489,19.489,0,0,1,2.877,3.108c-.42.546-.5.651-1.218,1.533-.483.021-.693.021-.84.021a5.52,5.52,0,0,1-.9-.063Zm16.254-5.8a58.2,58.2,0,0,1-.672,10.122c-.252,1.3-.483,1.554-1.428,1.554a16.325,16.325,0,0,1-2.751-.273,8.59,8.59,0,0,1,.588,2.352c.756.063,1.407.084,1.953.084A4.491,4.491,0,0,0,80.871.9c.693-.546,1.071-1.7,1.407-4.116.231-1.722.462-5.376.483-7.77a26.762,26.762,0,0,1,.1-3.654,11.508,11.508,0,0,1-1.722.084H76.566c.252-.651.336-.9.609-1.764a7.2,7.2,0,0,1,.273-.861L75.1-17.6a13.527,13.527,0,0,1-.756,2.646,13.594,13.594,0,0,1-2.478,4.179,6.124,6.124,0,0,1,1.68,1.7,14.642,14.642,0,0,0,2.1-3.318ZM64.89-5.88A19.726,19.726,0,0,1,63.9-.231L65.772.63A23.342,23.342,0,0,0,66.8-5.586Zm5.544.294a49.247,49.247,0,0,1,.8,5.4l1.911-.462a51.883,51.883,0,0,0-1.008-5.355Zm8.19.9a24.058,24.058,0,0,0-2.583-5.271L74.214-8.946a23.1,23.1,0,0,1,2.394,5.334Zm15.876-5.8A2.492,2.492,0,0,0,92-7.98a2.492,2.492,0,0,0,2.5,2.5A2.492,2.492,0,0,0,97-7.98,2.492,2.492,0,0,0,94.5-10.479Zm19.173,4.053a13.441,13.441,0,0,1,4.032-.693c2.247,0,3.717,1.176,3.717,2.982A2.158,2.158,0,0,1,119.3-1.806a1.452,1.452,0,0,1-1.323-.714,4.046,4.046,0,0,1-.294-1.848,7.282,7.282,0,0,1,.042-.924,8.859,8.859,0,0,1-2.331.924,7.016,7.016,0,0,0,.357,2.688A3.39,3.39,0,0,0,119.2.651a4.665,4.665,0,0,0,4.767-4.788c0-2.982-2.5-5.124-6.006-5.124a14.562,14.562,0,0,0-4.284.588V-11.4c.8-.084,1.218-.147,1.911-.273,1.449-.252,1.848-.315,2.226-.378l-.084-2.352a23.42,23.42,0,0,1-4.053.8v-1.344a12.893,12.893,0,0,1,.126-2.289h-2.625a14.388,14.388,0,0,1,.126,2.415v1.386c-.231,0-.336,0-.84.021-.294.021-.525.021-.735.021a12.879,12.879,0,0,1-2.541-.189l.021,2.352a3.937,3.937,0,0,1,.441-.021c.063,0,.252,0,.525.021.252,0,.84.021,1.155.021.525,0,.819,0,1.134-.021.693-.042.693-.042.861-.042l.021,3.234a11.234,11.234,0,0,0-3.066,1.785A4.482,4.482,0,0,0,106.47-3.15a3.085,3.085,0,0,0,1.155,2.373A6.541,6.541,0,0,0,111.594.714,1.845,1.845,0,0,0,113.526-.5a6.253,6.253,0,0,0,.168-1.785ZM111.321-2.6c0,.693-.1.882-.462.882a2.524,2.524,0,0,1-1.344-.462c-.483-.294-.693-.609-.693-.966,0-.756.924-1.68,2.5-2.52Zm13.566-8.862a17.811,17.811,0,0,0-4.158-4.305l-1.974,1.323a17.933,17.933,0,0,1,4.2,4.536Zm5.082,1.638h3.78c.693,0,1.428.021,1.932.063-.042-.462-.063-.945-.063-1.89V-15.12c0-.819.021-1.3.063-1.974a17.744,17.744,0,0,1-2.142.084h-3.717a19.617,19.617,0,0,1-2.142-.084,23.48,23.48,0,0,1,.084,2.373V-.966a18.773,18.773,0,0,1-.126,2.6H130.1a18.012,18.012,0,0,1-.126-2.583Zm0-5.46h3.591V-14.2h-3.591Zm0,2.709h3.591v1.113h-3.591Zm15.351-2.163a18.492,18.492,0,0,1,.1-2.352,20.044,20.044,0,0,1-2.163.084h-3.99a18.894,18.894,0,0,1-2.142-.084c.042.609.063,1.176.063,1.974v3.465c0,.9-.021,1.323-.042,1.89.462-.042,1.218-.063,1.911-.063h4.053v8.589c0,.462-.105.546-.693.546a24.527,24.527,0,0,1-2.583-.189,7.332,7.332,0,0,1,.588,2.226c1.386.084,1.617.084,1.953.084a4.282,4.282,0,0,0,2.2-.336c.546-.336.735-.882.735-2.037Zm-6.048-.546h3.843V-14.2h-3.843Zm0,2.709h3.843v1.113h-3.843ZM140.6-6.93a13.853,13.853,0,0,1,.063-1.449c-.441.042-.966.063-1.617.063h-5.187c-.609,0-1.092-.021-1.554-.063.042.441.063.9.063,1.47v4.494a18.714,18.714,0,0,1-.105,2.037h2.226V-1.785h4.683c.609,0,1.05.021,1.491.063A13.147,13.147,0,0,1,140.6-3.15Zm-6.111.483h3.99V-3.7h-3.99Zm14.763-8.988a10.033,10.033,0,0,1,.084,1.344c.084,5.817.462,8.862,1.323,10.962.84,2.016,1.974,3.045,3.381,3.045,1.785,0,3-1.7,4.1-5.8a10.366,10.366,0,0,1-2.1-1.911,15.482,15.482,0,0,1-1.113,3.8c-.252.588-.546.9-.861.9-.672,0-1.344-1.344-1.7-3.528a39.3,39.3,0,0,1-.4-5.628,24.414,24.414,0,0,1,.168-3.192Zm10.605,2a18.33,18.33,0,0,1,2.982,5.166A21.288,21.288,0,0,1,164.178-2.2l2.6-.987a20.937,20.937,0,0,0-4.725-11.3ZM173.1-9.24a15.812,15.812,0,0,1,1.806-.084h7.182a15.287,15.287,0,0,1,1.89.084v-1.47A20.409,20.409,0,0,0,187.4-8.862a11.305,11.305,0,0,1,1.155-2.31,19.746,19.746,0,0,1-5.355-2.877,13.721,13.721,0,0,1-3.528-3.549h-2.5a14.666,14.666,0,0,1-3.3,3.507,20.982,20.982,0,0,1-5.355,3.024,8.132,8.132,0,0,1,1.218,2.142,21.378,21.378,0,0,0,3.36-1.764Zm1.827-2.268h-.588a14.7,14.7,0,0,0,4.116-4.1,19.182,19.182,0,0,0,4.326,4.1H174.93ZM173.9,1.6V.525h9.177V1.6h2.5a13.12,13.12,0,0,1-.126-2.2V-5.523a14.314,14.314,0,0,1,.1-2.079,13.775,13.775,0,0,1-1.827.084h-10.5a13.225,13.225,0,0,1-1.806-.084,18.963,18.963,0,0,1,.1,2.079V-.63A16.792,16.792,0,0,1,171.4,1.6Zm0-7.077h9.177v3.948H173.9Zm17.262,2.919a12.725,12.725,0,0,1,1.617-1.806,6.737,6.737,0,0,0,.924-.987h.042a10.645,10.645,0,0,0-.042,1.239v1.869a20.9,20.9,0,0,1-.126,3.36h2.73c-.1-.924-.168-3.276-.168-6.279l.021-2.184c2.31-2.1,4.368-3.171,6.111-3.171a3.37,3.37,0,0,1,3.591,3.654,4.129,4.129,0,0,1-4.284,4.347,9.612,9.612,0,0,1-3.738-.777,7.831,7.831,0,0,1,.4,2.73,10.758,10.758,0,0,0,3.129.462,8.375,8.375,0,0,0,3.738-.8,6.471,6.471,0,0,0,3.339-5.943,6.159,6.159,0,0,0-1.617-4.326,5.859,5.859,0,0,0-4.1-1.722c-2.058,0-3.759.651-6.048,2.31a3.7,3.7,0,0,0-.5.4l-.042.021c.021-.063.042-.525.084-1.428a8.887,8.887,0,0,1,1.2-1.365l-.8-.861a.959.959,0,0,1-.294.1v-.378c.042-.588.042-.588.063-.987a9.043,9.043,0,0,1,.21-2.016l-2.709-.021a5.189,5.189,0,0,1,.084.924v.21c0,.189-.021.483-.021.882,0,.756-.021,1.029-.063,1.575-1.176.084-2.331.147-2.709.147-.189,0-.357-.021-.693-.042l.147,2.373a22.5,22.5,0,0,1,3.192-.315c-.042,1.722-.042,1.743-.084,3.024a49.357,49.357,0,0,1-3.8,3.36ZM228-2.751a17.077,17.077,0,0,1-6.069.8c-3.423,0-4.326-.441-4.494-2.2-.042-.42-.105-2.709-.105-3.8V-8.4c.021-1.113.021-1.113.021-1.218v-.567c2.919-.168,2.919-.168,6.111-.294a18.1,18.1,0,0,1-.189,2.625c-.126.819-.357,1.092-.9,1.092a6.513,6.513,0,0,1-2.751-1.029,11.18,11.18,0,0,1,.147,1.722c0,.294,0,.42-.021.84a6.883,6.883,0,0,0,3,.714,2.559,2.559,0,0,0,2.562-1.575,13.426,13.426,0,0,0,.546-4.452c.987,0,2.184-.021,2.919-.021a7.362,7.362,0,0,1,1.2.063l-.042-2.5a40.5,40.5,0,0,1-4.074.189v-2.625a9.571,9.571,0,0,1,.105-1.449h-2.625a22.713,22.713,0,0,1,.126,4.158c-3.129.147-3.129.147-6.069.294a24.467,24.467,0,0,1,.189-4.1h-2.814a20.72,20.72,0,0,1,.147,3.57c0,.126,0,.315-.021.651-2.079.126-3.234.189-3.423.189-.1,0-.315,0-.609-.021l.168,2.457a28.681,28.681,0,0,1,3.885-.378c-.021,1.638-.021,1.722-.021,2.037,0,3.612.084,4.788.378,5.733C215.9-.273,217.6.483,221.529.483c1.386,0,4.158-.147,5.691-.315.714-.084.714-.084.945-.105Zm38.136-5.208L255.465-1.953,256.746.126,270.669-7.98l-13.923-8.106-1.3,2.058Z" transform="translate(560.799 2659.378)" fill="#fff"/>
    <g id="click_mark" data-name="click mark" transform="translate(521.785 2622) rotate(20)">
      <g id="グループ_128" data-name="グループ 128" clip-path="url(#clip-path)">
        <path id="パス_690" data-name="パス 690" d="M22.945,23.9a3.105,3.105,0,0,0-1.893.587,3.34,3.34,0,0,0-4.882-1.33A3.577,3.577,0,0,0,12.177,20.8V12.046a3.231,3.231,0,1,0-6.463,0V26.594a8.173,8.173,0,0,0-2.487,2.681,6.392,6.392,0,0,0-.845,3.382l.144,4.62a8.232,8.232,0,0,0,1.613,4.656l4.747,6.427L9.062,51.3A.741.741,0,0,0,9.8,52h.045a.741.741,0,0,0,.695-.785l-.19-3.161a.743.743,0,0,0-.144-.4l-4.878-6.6a6.752,6.752,0,0,1-1.323-3.819l-.144-4.62a4.906,4.906,0,0,1,.649-2.6,6.675,6.675,0,0,1,1.2-1.523v4.934a.741.741,0,1,0,1.481,0V12.046a1.75,1.75,0,1,1,3.5,0v9.772s0,.007,0,.011v2.155a.741.741,0,1,0,1.481,0V22.319a2.109,2.109,0,0,1,2.714,2.007.9.9,0,0,0,.57,1,.867.867,0,0,0,1.034-.441,1.861,1.861,0,0,1,3.4,1.017.783.783,0,0,0,1.521.36,1.634,1.634,0,0,1,1.493-.886,1.686,1.686,0,0,1,1.605,1.708v12.28l-2.274,6.779a.743.743,0,0,0-.037.287l.312,4.532a.741.741,0,0,0,.738.691l.052,0A.741.741,0,0,0,24,50.864l-.3-4.385,2.266-6.754A.742.742,0,0,0,26,39.489v-12.4A3.176,3.176,0,0,0,22.945,23.9M8.6,5.851a.741.741,0,0,0,.741-.742V.742a.741.741,0,1,0-1.481,0V5.109a.741.741,0,0,0,.741.742M3.529,7.832a.742.742,0,0,0,.546-1.243L1.286,3.542a.741.741,0,1,0-1.092,1L2.982,7.591a.738.738,0,0,0,.546.241m9.986,0a.738.738,0,0,0,.524-.217l3.041-3.047a.741.741,0,0,0-1.047-1.049L12.99,6.565a.742.742,0,0,0,.524,1.267" transform="translate(0)" fill="#fff"/>
      </g>
    </g>
  </g>
</svg>
