<svg xmlns="http://www.w3.org/2000/svg" xmlns:xlink="http://www.w3.org/1999/xlink" width="326.695" height="57.757" viewBox="0 0 326.695 57.757">
  <defs>
    <clipPath id="clip-path">
      <rect id="長方形_53" data-name="長方形 53" width="26" height="52" fill="#fff"/>
    </clipPath>
  </defs>
  <g id="btn02" transform="translate(-620 -2621.622)">
    <path id="パス_694" data-name="パス 694" d="M-121.947-12.243a34.471,34.471,0,0,0,1.092,8.5c.861,2.9,2.163,4.788,3.3,4.788a1.257,1.257,0,0,0,1.113-.924,10.543,10.543,0,0,0,.609-3.045,4.471,4.471,0,0,1-1.344-.945c-.042,1.743-.231,2.94-.462,2.94-.063,0-.273-.21-.462-.441a10.935,10.935,0,0,1-1.323-3,33.858,33.858,0,0,1-.987-7.875h2a16.225,16.225,0,0,1,2.163.126V-13.8a15.762,15.762,0,0,1-1.953.1h-2.247c-.021-1.071-.021-1.449-.021-2.184a6.689,6.689,0,0,1,.1-1.449h-1.764a8.481,8.481,0,0,1,.084,1.3c.021.945.021,1.239.063,2.331h-3.864a15.159,15.159,0,0,1-2.163-.126v1.7a16.57,16.57,0,0,1,2.142-.126Zm-4.1,4.158V-2.52a18.6,18.6,0,0,1-2.562.483l.378,1.638c.378-.126.63-.21,1.2-.357a38.821,38.821,0,0,0,5.439-1.785l-.063-1.407c-1.428.546-1.953.735-2.9,1.008V-8.085h.777c.5,0,.945.021,1.47.063V-9.555a8.034,8.034,0,0,1-1.575.105h-2.772a10.324,10.324,0,0,1-1.68-.126V-8a11.943,11.943,0,0,1,1.617-.084Zm-8.568-7.2a11.483,11.483,0,0,1,1.575-.084h2.688a10.727,10.727,0,0,1,1.575.084v-1.533a8.165,8.165,0,0,1-1.575.1h-2.688a8.165,8.165,0,0,1-1.575-.1Zm-.735,2.982a12.959,12.959,0,0,1,1.68-.084h3.549c.714,0,1.029.021,1.533.063v-1.554a11.225,11.225,0,0,1-1.68.084h-3.4a8.974,8.974,0,0,1-1.68-.105Zm.819,2.877a11.719,11.719,0,0,1,1.407-.063h2.751A12.164,12.164,0,0,1-129-9.429V-10.9a10.482,10.482,0,0,1-1.365.063h-2.751a11.963,11.963,0,0,1-1.407-.063Zm0,2.919a12.058,12.058,0,0,1,1.386-.063h2.751A12.576,12.576,0,0,1-129-6.51V-7.98a10.706,10.706,0,0,1-1.365.063h-2.751a11.719,11.719,0,0,1-1.407-.063Zm1.428,8.043V.462h2.751v.8h1.449a12.555,12.555,0,0,1-.084-1.617V-3.486a14.42,14.42,0,0,1,.063-1.617,11.839,11.839,0,0,1-1.512.063h-2.457a16.6,16.6,0,0,1-1.68-.063,12.961,12.961,0,0,1,.084,1.68V-.5c0,.714-.042,1.407-.105,2.037Zm-.021-5.334h2.772V-.84h-2.772Zm13.1-12.747a11.181,11.181,0,0,1,2.268,2.625l1.113-.945a14.027,14.027,0,0,0-2.31-2.52Zm9.366,4.536V-9.87h-1.512A15.787,15.787,0,0,1-114.324-10v1.617a14.956,14.956,0,0,1,2.163-.126h1.512v2.394h-.777a18.546,18.546,0,0,1-2.058-.105V-4.7A17.019,17.019,0,0,1-111.3-4.83h4.431A13.6,13.6,0,0,1-109.7-2.562a19.659,19.659,0,0,1-5.1,2.184,5.564,5.564,0,0,1,.966,1.47,17.818,17.818,0,0,0,7.98-5.082c-.042.546-.063,1.071-.084,1.533V-.483a13.042,13.042,0,0,1-.147,2.247h1.827a10.859,10.859,0,0,1-.147-2.247V-2.457c0-.4-.021-.735-.084-1.554a18.156,18.156,0,0,0,8.337,5.1,7.813,7.813,0,0,1,.924-1.617,17.577,17.577,0,0,1-4.809-1.764,15.419,15.419,0,0,1-3.465-2.541h4.872a16.119,16.119,0,0,1,2.184.126V-6.216a18.546,18.546,0,0,1-2.058.105h-1.008V-8.505h1.638a12.706,12.706,0,0,1,2.184.126V-10a15.9,15.9,0,0,1-2.184.126h-1.638v-2.142h.987a20.062,20.062,0,0,1,2.058.105v-1.512a15.691,15.691,0,0,1-2.184.126h-5.754v-2.016c2.247-.21,3.906-.462,5.922-.84.4-.084.483-.1.8-.147l-1.071-1.449a13.019,13.019,0,0,1-3.045.714,69.64,69.64,0,0,1-10.269.756h-.756a5.625,5.625,0,0,1,.609,1.428c2.121-.042,2.121-.042,6.279-.336v1.89h-5.376a15.9,15.9,0,0,1-2.184-.126v1.512a15.465,15.465,0,0,1,2.058-.105Zm1.512,0h3.192V-9.87h-3.192Zm0,3.507h3.192v2.394h-3.192Zm8.106,2.394h-3.381V-8.505h3.381Zm0-3.759h-3.381v-2.142h3.381Zm23.352-6.762a10.993,10.993,0,0,1-1.617.084h-9.555a13.742,13.742,0,0,1-2.31-.126v1.68a15.611,15.611,0,0,1,2.268-.105h9.282a21.646,21.646,0,0,1-4.158,2.751c-1.113-.693-1.806-1.092-3.423-1.953l-1.071,1.092a32.788,32.788,0,0,1,5.5,3.381h-7.875a17.569,17.569,0,0,1-2.457-.126v1.743a18.18,18.18,0,0,1,2.31-.126h6.258v7.6c0,.462-.189.588-.9.588a20.766,20.766,0,0,1-3-.231,4.931,4.931,0,0,1,.42,1.7c.63.042,1.827.084,2.394.084,2.2,0,2.751-.378,2.751-1.848v-7.9h5.943a14.03,14.03,0,0,1-3.276,3,4.778,4.778,0,0,1,1.323,1.071,18.764,18.764,0,0,0,3.8-3.906c.1-.147.189-.252.231-.315.084-.084.147-.168.168-.189.105-.147.105-.147.168-.231l-.945-1.029a13.272,13.272,0,0,1-2.268.1H-81.5l.567-.567c-.819-.588-1.029-.756-1.47-1.05a28.546,28.546,0,0,0,5.04-3.465c.42-.378.42-.378.651-.567Zm5.418,9.765a11.338,11.338,0,0,1,1.3-.126c.8-.063.8-.063,2.247-.189V-.525a15.277,15.277,0,0,1-.126,2.184H-67.1A15.574,15.574,0,0,1-67.221-.5V-7.329c.861-.105.861-.105,1.323-.147.126-.021.294-.042.525-.063.126.4.21.609.4,1.281l1.281-.546A25.782,25.782,0,0,0-65.5-10.836l-1.134.462a14.778,14.778,0,0,1,.756,1.6c-1.113.126-1.47.168-3.087.273a51.651,51.651,0,0,0,3.78-5.166c.294-.441.441-.63.63-.882l-1.428-.84a23.346,23.346,0,0,1-2.373,3.885,18.631,18.631,0,0,0-1.26-1.386,31.4,31.4,0,0,0,2.037-3.276,3.38,3.38,0,0,1,.483-.777l-1.512-.651a16.382,16.382,0,0,1-1.974,3.738l-.819-.819-.9,1.176a21.631,21.631,0,0,1,3.087,3.192c-.546.756-.777,1.029-1.491,1.89-.63.021-.8.021-.987.021a4.73,4.73,0,0,1-.8-.063Zm16.611-5.754a59.712,59.712,0,0,1-.819,10.71c-.294,1.344-.525,1.6-1.512,1.6a16.348,16.348,0,0,1-2.772-.273,6.884,6.884,0,0,1,.42,1.722c.9.063,1.533.1,2.079.1,2.247,0,2.793-.42,3.3-2.478a53.875,53.875,0,0,0,.882-9.618c.042-2.709.042-2.709.1-3.36a11.188,11.188,0,0,1-1.7.084h-5.061c.252-.63.4-.987.609-1.617a10.247,10.247,0,0,1,.483-1.281l-1.7-.378a13.38,13.38,0,0,1-1.05,3.234,13.993,13.993,0,0,1-2.394,3.78,4.668,4.668,0,0,1,1.26,1.05,16.8,16.8,0,0,0,2.1-3.276ZM-71.232-5.943A16.761,16.761,0,0,1-72.513-.315l1.365.651a20.063,20.063,0,0,0,1.281-6.027Zm5.061.231A33.324,33.324,0,0,1-65.163-.567l1.407-.4a41.822,41.822,0,0,0-1.176-5.1Zm8.064.8A24.453,24.453,0,0,0-60.984-10.1l-1.3.756a20.484,20.484,0,0,1,2.751,5.229Zm16.128-5.019A1.963,1.963,0,0,0-43.932-7.98a1.959,1.959,0,0,0,1.953,1.932A1.959,1.959,0,0,0-40.047-8,1.927,1.927,0,0,0-41.979-9.933Zm22.932-4.032a19.981,19.981,0,0,1-4.2.861v-1.827a13.021,13.021,0,0,1,.1-2.037h-1.89a14.723,14.723,0,0,1,.126,2.121v1.869c-1.386.063-1.386.063-1.869.063a10.707,10.707,0,0,1-2.268-.168v1.68a3.135,3.135,0,0,1,.4-.021c.084,0,.252,0,.483.021.357,0,.945.021,1.239.021a9.7,9.7,0,0,0,1.176-.042c.672-.042.672-.042.84-.042v3.759a11.629,11.629,0,0,0-2.982,1.743,3.975,3.975,0,0,0-1.7,2.877,2.712,2.712,0,0,0,1.029,2.1A5.811,5.811,0,0,0-24.969.4a1.523,1.523,0,0,0,1.617-1.05,5.669,5.669,0,0,0,.1-1.512V-6.594a13.31,13.31,0,0,1,4.347-.8c2.6,0,4.263,1.26,4.263,3.255a2.636,2.636,0,0,1-2.625,2.814,1.765,1.765,0,0,1-1.764-1.071,6.469,6.469,0,0,1-.252-1.953c0-.252.021-.42.042-.819a5.608,5.608,0,0,1-1.659.672A7.924,7.924,0,0,0-20.6-2.037,3.163,3.163,0,0,0-17.3.336a4.363,4.363,0,0,0,4.431-4.473A4.478,4.478,0,0,0-15.036-7.98,7.268,7.268,0,0,0-18.8-8.9a14.976,14.976,0,0,0-4.473.714v-3.381a30.618,30.618,0,0,0,3.066-.483c.756-.168.84-.168,1.239-.231ZM-24.906-2.31c0,.84-.084,1.008-.462,1.008a3.559,3.559,0,0,1-1.743-.567c-.567-.378-.84-.756-.84-1.2,0-.924,1.092-1.995,3.045-2.982Zm12.894-8.883a17.788,17.788,0,0,0-4.221-4.074l-1.344.966a17.238,17.238,0,0,1,4.242,4.221Zm5.061,1.155h3.8c.8,0,1.512.021,2.079.063-.042-.441-.063-1.05-.063-1.932v-3.024c0-.819.021-1.344.063-1.995a18.425,18.425,0,0,1-2.142.084H-6.405a19.493,19.493,0,0,1-2.184-.084c.063.672.084,1.281.084,2.331V-.924a16.625,16.625,0,0,1-.126,2.436h1.806A15.718,15.718,0,0,1-6.951-.9Zm0-5.565h4.368v1.533H-6.951Zm0,2.751h4.368v1.575H-6.951ZM8.547-14.6a19.8,19.8,0,0,1,.1-2.331,19.917,19.917,0,0,1-2.2.084H2.9a18.658,18.658,0,0,1-2.142-.084c.042.588.063,1.2.063,1.995v3.024c0,.84-.021,1.26-.063,1.932.546-.042,1.218-.063,2.079-.063H6.993V-.819c0,.462-.147.567-.714.567A22.572,22.572,0,0,1,3.612-.441a5.077,5.077,0,0,1,.441,1.6c1.155.063,1.449.063,2.352.063,1.722,0,2.142-.378,2.142-1.89ZM2.268-15.6H6.993v1.533H2.268Zm0,2.751H6.993v1.575H2.268ZM3.8-6.951a12.145,12.145,0,0,1,.063-1.323c-.462.042-.945.063-1.575.063h-4.83c-.567,0-1.029-.021-1.47-.063a13.562,13.562,0,0,1,.063,1.365v4.263a13.6,13.6,0,0,1-.105,2h1.617v-1.6H2.478a13.407,13.407,0,0,1,1.386.063,11.475,11.475,0,0,1-.063-1.3Zm-6.237.084H2.31v3.276H-2.436Zm15.624-8.148c.042.4.042.483.063,1.26.105,5.25.4,7.833,1.113,9.933.714,2.121,1.89,3.381,3.171,3.381,1.6,0,2.583-1.449,3.654-5.271a7.242,7.242,0,0,1-1.47-1.407,15.289,15.289,0,0,1-1.092,3.654c-.294.672-.651,1.008-1.008,1.008-.756,0-1.554-1.407-1.995-3.57a36.783,36.783,0,0,1-.5-6.321,17.487,17.487,0,0,1,.147-2.646Zm10.626,1.848a18.841,18.841,0,0,1,4.347,10.6l1.806-.714a19.858,19.858,0,0,0-4.62-10.647ZM37-9.513a13.168,13.168,0,0,1,1.68-.084h6.552a13.623,13.623,0,0,1,1.806.084v-1.68a25.145,25.145,0,0,0,4.011,2.331,7.45,7.45,0,0,1,.9-1.6,20.946,20.946,0,0,1-5.628-3.276,14.3,14.3,0,0,1-3.486-3.717H40.992a13.331,13.331,0,0,1-3.171,3.633,20.916,20.916,0,0,1-5.67,3.444,4.159,4.159,0,0,1,.966,1.449A22.959,22.959,0,0,0,37-11.151Zm1.7-1.6a11.266,11.266,0,0,1-1.659-.084,18.317,18.317,0,0,0,4.914-4.851,19.357,19.357,0,0,0,5.061,4.851,12.88,12.88,0,0,1-1.785.084ZM37.044,1.428V.252h9.87V1.428H48.7a15.024,15.024,0,0,1-.126-2.1V-5.4a12.822,12.822,0,0,1,.105-1.953A11.589,11.589,0,0,1,47-7.266H36.96a11.589,11.589,0,0,1-1.68-.084,13.335,13.335,0,0,1,.1,1.953V-.672a15.674,15.674,0,0,1-.126,2.1Zm0-7.224h9.87v4.578h-9.87ZM54.852-2.982a14.589,14.589,0,0,1,1.806-1.953,5.683,5.683,0,0,0,1.05-1.113h.021c-.021.315-.042.525-.042,1.344C57.666.252,57.666.252,57.561.945h1.974c-.1-.861-.147-2.709-.147-6.006V-7.392c2.583-2.352,4.641-3.444,6.51-3.444a3.742,3.742,0,0,1,3.948,3.969,5.028,5.028,0,0,1-.588,2.478A4.55,4.55,0,0,1,65.184-2.1a9.173,9.173,0,0,1-3.717-.8,6.816,6.816,0,0,1,.21,1.407v.5a11.385,11.385,0,0,0,3.465.567,6.631,6.631,0,0,0,4.683-1.7A6.549,6.549,0,0,0,71.673-6.7a5.58,5.58,0,0,0-1.449-4.053,5.661,5.661,0,0,0-4.284-1.722c-2,0-3.654.672-5.754,2.373a6.094,6.094,0,0,0-.777.693h-.042a2.535,2.535,0,0,0,.063-.525c.021-1.071.021-1.071.042-1.407A8.1,8.1,0,0,1,60.606-12.7L60-13.44a.772.772,0,0,1-.42.1l.063-1.575a8.5,8.5,0,0,1,.189-1.974H57.876a6.057,6.057,0,0,1,.042.882c0,.987-.021,1.617-.063,2.814-1.218.084-2.52.168-2.856.168a3.878,3.878,0,0,1-.63-.042l.126,1.722a15.687,15.687,0,0,1,2.31-.252l1.008-.063c-.063,1.764-.063,1.89-.084,3.507a39.542,39.542,0,0,1-3.843,3.423ZM78.708-16.149a21.4,21.4,0,0,1,.126,3.4v1.008c-2.5.189-3.36.252-3.759.252-.1,0-.273,0-.5-.021l.147,1.764a39.135,39.135,0,0,1,4.116-.42v3c0,3.486.105,4.473.63,5.418.714,1.3,2.415,1.869,5.649,1.869a37.975,37.975,0,0,0,5.4-.4c.441-.063.567-.084.882-.1l-.168-1.953a19.187,19.187,0,0,1-5.859.777,13.038,13.038,0,0,1-3.171-.315,1.813,1.813,0,0,1-1.407-1.26,23.647,23.647,0,0,1-.252-5.145V-9.723a1.312,1.312,0,0,0,.021-.252,1.6,1.6,0,0,0-.021-.294c3.36-.21,3.36-.21,6.636-.336a20.043,20.043,0,0,1-.231,3.066c-.168.966-.4,1.281-.987,1.281a5.945,5.945,0,0,1-2.73-1.113c.042.462.063.672.063.966a6.592,6.592,0,0,1-.063.819,6.33,6.33,0,0,0,2.919.9A2.234,2.234,0,0,0,88.41-6.468a17.464,17.464,0,0,0,.441-4.179c2.163-.063,2.688-.063,3.087-.063.525,0,.735.021,1.26.063l-.042-1.785c-.672.084-1.869.147-4.284.21v-2.919a10.971,10.971,0,0,1,.084-1.407h-1.89a19.638,19.638,0,0,1,.126,3.15v1.239c-3.3.126-3.3.126-6.636.336a24.3,24.3,0,0,1,.189-4.326ZM130.6-7.98,119.154-1.6l.9,1.47L133.9-7.98l-13.839-7.854-.924,1.47Z" transform="translate(812.799 2659)" fill="#fff"/>
    <g id="click_mark" data-name="click mark" transform="translate(637.785 2621.622) rotate(20)">
      <g id="グループ_128" data-name="グループ 128" clip-path="url(#clip-path)">
        <path id="パス_690" data-name="パス 690" d="M22.945,23.9a3.105,3.105,0,0,0-1.893.587,3.34,3.34,0,0,0-4.882-1.33A3.577,3.577,0,0,0,12.177,20.8V12.046a3.231,3.231,0,1,0-6.463,0V26.594a8.173,8.173,0,0,0-2.487,2.681,6.392,6.392,0,0,0-.845,3.382l.144,4.62a8.232,8.232,0,0,0,1.613,4.656l4.747,6.427L9.062,51.3A.741.741,0,0,0,9.8,52h.045a.741.741,0,0,0,.695-.785l-.19-3.161a.743.743,0,0,0-.144-.4l-4.878-6.6a6.752,6.752,0,0,1-1.323-3.819l-.144-4.62a4.906,4.906,0,0,1,.649-2.6,6.675,6.675,0,0,1,1.2-1.523v4.934a.741.741,0,1,0,1.481,0V12.046a1.75,1.75,0,1,1,3.5,0v9.772s0,.007,0,.011v2.155a.741.741,0,1,0,1.481,0V22.319a2.109,2.109,0,0,1,2.714,2.007.9.9,0,0,0,.57,1,.867.867,0,0,0,1.034-.441,1.861,1.861,0,0,1,3.4,1.017.783.783,0,0,0,1.521.36,1.634,1.634,0,0,1,1.493-.886,1.686,1.686,0,0,1,1.605,1.708v12.28l-2.274,6.779a.743.743,0,0,0-.037.287l.312,4.532a.741.741,0,0,0,.738.691l.052,0A.741.741,0,0,0,24,50.864l-.3-4.385,2.266-6.754A.742.742,0,0,0,26,39.489v-12.4A3.176,3.176,0,0,0,22.945,23.9M8.6,5.851a.741.741,0,0,0,.741-.742V.742a.741.741,0,1,0-1.481,0V5.109a.741.741,0,0,0,.741.742M3.529,7.832a.742.742,0,0,0,.546-1.243L1.286,3.542a.741.741,0,1,0-1.092,1L2.982,7.591a.738.738,0,0,0,.546.241m9.986,0a.738.738,0,0,0,.524-.217l3.041-3.047a.741.741,0,0,0-1.047-1.049L12.99,6.565a.742.742,0,0,0,.524,1.267" transform="translate(0)" fill="#fff"/>
      </g>
    </g>
  </g>
</svg>
