<svg xmlns="http://www.w3.org/2000/svg" width="762.36" height="55.62" viewBox="0 0 762.36 55.62">
  <path id="パス_697" data-name="パス 697" d="M-359.88-35.76v10.02h-17.64a43.417,43.417,0,0,1-6.3-.36v5.04a45.774,45.774,0,0,1,6.3-.36h10.44a43.009,43.009,0,0,1-.48,5.1c-.66,4.38-2.16,7.62-4.5,9.96-3.24,3.24-7.02,5.28-12.9,7.14a19.593,19.593,0,0,1,2.88,4.38c6.3-2.58,9.48-4.5,12.9-7.8,4.5-4.38,6.18-9.06,6.84-18.78H-354V-.54c0,3.48,1.8,4.38,9.06,4.38,8.04,0,10.32-.6,11.82-3.24,1.02-1.74,1.56-4.5,1.98-9.9a18.566,18.566,0,0,1-4.68-1.8c0,4.62-.24,6.96-.96,8.58s-2.1,1.98-7.2,1.98c-4.62,0-5.4-.24-5.4-1.74V-21.42h12.24a46.727,46.727,0,0,1,6.36.36V-26.1a43.768,43.768,0,0,1-6.36.36h-18.12V-35.76h13.92a40.269,40.269,0,0,1,5.94.36v-4.98a39.158,39.158,0,0,1-5.94.36h-13.92v-4.26a37,37,0,0,1,.36-5.52h-5.34a32.414,32.414,0,0,1,.36,5.52v4.26H-370.2c.84-1.8,1.14-2.58,2.04-4.86a24.516,24.516,0,0,1,1.14-2.82L-372-48.96a29.09,29.09,0,0,1-2.88,8.28c-2.28,4.38-3.78,6.3-7.8,10.08a14.707,14.707,0,0,1,3.72,3.12,46.247,46.247,0,0,0,6.48-8.28Zm74.52,18.06h5.76a48.559,48.559,0,0,1,5.94.24v-4.2a44.908,44.908,0,0,1-5.94.24h-5.76v-6.06h5.76a49.191,49.191,0,0,1,5.94.24v-4.2a45.5,45.5,0,0,1-5.94.24h-5.76v-6h8.22a43.414,43.414,0,0,1,5.28.24V-41.4a35.515,35.515,0,0,1-5.7.3h-7.56a49.243,49.243,0,0,0,2.52-4.5c.96-1.92,1.32-2.58,1.62-3.12l-4.62-1.08a35.972,35.972,0,0,1-4.02,8.7h-9.54a53.533,53.533,0,0,0,2.64-5.22c.9-2.1.9-2.1,1.2-2.82l-4.56-.96a34.168,34.168,0,0,1-4.14,9.54,44.666,44.666,0,0,1-8.34,9.84,8.971,8.971,0,0,1,2.88,3.3,29.862,29.862,0,0,0,4.8-5.76,4.9,4.9,0,0,1,.06.84c0,.06-.06.48-.06,1.08-.06.36-.06,2.22-.06,2.82v15.6a53.983,53.983,0,0,1-.24,6.12A40.672,40.672,0,0,1-300-6.96h22.98a42.566,42.566,0,0,1,5.88.3v-4.5a34.863,34.863,0,0,1-5.88.3h-8.34Zm-4.26,0v6.84h-10.74V-17.7Zm0-3.72h-10.74v-6.06h10.74Zm0-9.78h-10.74v-6h10.74Zm-33.66-14.58a60.329,60.329,0,0,1,9.6,10.98l3.6-3.3a80.36,80.36,0,0,0-9.84-10.68Zm-1.14,23.82a22.163,22.163,0,0,1,4.26-.3h3.78V-8.22c-3.54,3.3-6.9,5.82-9.36,6.9l2.28,4.74c1.14-.96,1.62-1.38,2.04-1.74a59.214,59.214,0,0,0,7.2-6.18A14.706,14.706,0,0,0-308.16.9c3.54,1.68,7.14,2.1,18.12,2.1,6.48,0,13.74-.12,19.44-.36a19.649,19.649,0,0,1,1.5-5.22c-5.94.9-13.2,1.26-24.3,1.26-6.96,0-10.62-.48-13.5-1.74-2.4-1.08-3.6-2.28-5.04-5.28V-20.22a46.245,46.245,0,0,1,.3-6.42,28.025,28.025,0,0,1-4.62.3h-3.48a25.009,25.009,0,0,1-4.68-.3Zm77.34-18.96c-6.54,0-10.32-.24-12.9-.72l-.12,4.92a5.687,5.687,0,0,1,1.26-.12,10.333,10.333,0,0,1,1.2.06c1.26.06,7.2.18,8.4.18.24,0,.9-.06,1.08-.06-.36.66-.36.66-.54.96-4.08,7.14-9.18,13.56-13.14,16.56l3.96,3.96a21.47,21.47,0,0,1,4.8-5.1c4.74-4.08,9.36-6.3,13.02-6.3,2.7,0,4.08,1.32,4.44,4.26a47.25,47.25,0,0,0-8.82,4.8c-4.26,3.06-6.36,6.3-6.36,9.72a8,8,0,0,0,4.08,7.2c2.88,1.62,6.72,2.34,12.3,2.34A101.15,101.15,0,0,0-219.48.6a14.273,14.273,0,0,1,2.46-.3l-.54-5.52c-3.6,1.44-10.2,2.4-16.32,2.4-8.46,0-11.88-1.56-11.88-5.34,0-2.04,1.08-3.72,3.54-5.64a36.813,36.813,0,0,1,7.2-3.96v1.86a75.483,75.483,0,0,1-.36,7.98l4.92-.06a16.488,16.488,0,0,1-.12-2.46V-12.9c.06-1.2.06-2.46.06-3.12,0-1.32,0-1.5-.06-3.48,7.98-3.06,12.66-4.56,15.9-5.1l-2.16-4.92c-.96.6-1.14.66-4.2,1.74-2.94,1.02-5.4,1.92-10.08,3.72-.84-4.32-3.6-6.54-8.1-6.54a15.484,15.484,0,0,0-8.28,2.46,13.591,13.591,0,0,0-2.04,1.5,8.214,8.214,0,0,0-.84.6.743.743,0,0,1-.12-.18l.12-.12c0-.06.24-.24.6-.48a16.9,16.9,0,0,0,1.92-2.22A45.118,45.118,0,0,0-243-36.66c5.88-.18,13.56-.72,17.7-1.26,3.48-.48,3.48-.48,4.62-.6l-.36-4.8c-3.18.96-8.76,1.68-16.2,2.1-3.36.18-3.36.18-3.78.24a39.181,39.181,0,0,0,1.8-4.02,12.938,12.938,0,0,1,1.44-3.06l-5.64-.84c-.18,1.92-.84,3.78-2.7,7.98ZM-164.76-3.9c-2.04-1.56-3.24-3.36-4.74-6.84a50.96,50.96,0,0,0,.78-7.02,27.07,27.07,0,0,1,.36-3.48l-4.32-.42c.06.78.06,1.2.06,2.1,0,9.6-1.92,15.54-6.84,21.42a13.178,13.178,0,0,1,3.78,2.34,32.378,32.378,0,0,0,5.1-10.32c3,6.6,8.22,9.3,17.88,9.3.54,0,1.38,0,2.46-.06a14.045,14.045,0,0,1,1.26-4.62,48.082,48.082,0,0,1-5.7.36,18.07,18.07,0,0,1-6.12-.78V-12.36h3.18a28.477,28.477,0,0,1,5.1.3v-4.26a27.67,27.67,0,0,1-5.1.3h-3.18v-9.84h6.12a30.383,30.383,0,0,1-3.3,5.28,12.97,12.97,0,0,1,3.42,1.68,55.4,55.4,0,0,0,3.12-5.46c.84-1.74.84-1.74,1.62-3.24l-1.92-2.16a48.622,48.622,0,0,1-5.1.18h-2.7l2.52-2.16c-1.5-1.5-2.1-2.04-3.06-2.94a51.189,51.189,0,0,0,7.14-8.1,15.332,15.332,0,0,1,1.62-2.1l-2.16-2.7a46.149,46.149,0,0,1-4.92.18h-7.86a39.9,39.9,0,0,1-5.94-.3v4.32a48.254,48.254,0,0,1,5.58-.24h9.42a30.038,30.038,0,0,1-5.76,6.42c-1.68-1.44-2.34-1.98-4.56-3.66l-2.88,2.4a61.6,61.6,0,0,1,9.84,8.88h-8.34a27.611,27.611,0,0,1-5.16-.3v4.32a32.852,32.852,0,0,1,5.04-.3h4.26ZM-179.4-22.08q2.34,0,4.32.18v-4.08a30.648,30.648,0,0,1-4.5.24h-7.74c.48-1.2.66-1.68,1.26-3.18l-3.9-1.2a20.945,20.945,0,0,1-5.34,10.08,12.415,12.415,0,0,1,3,2.58,32.015,32.015,0,0,0,3.18-4.62h3.48a53.053,53.053,0,0,1-.42,6h-3.9a31.885,31.885,0,0,1-4.44-.24v4.38a22.545,22.545,0,0,1,4.26-.3h3.3c-1.62,6.24-4.08,9.48-9.96,13.26a11.837,11.837,0,0,1,2.88,3.42c5.7-4.32,7.92-7.2,9.84-12.9a24.636,24.636,0,0,0,5.1,6.84,18.064,18.064,0,0,1,2.34-3.54,20.819,20.819,0,0,1-5.94-7.08h3.48a26.215,26.215,0,0,1,4.26.24v-4.32a28.261,28.261,0,0,1-4.44.24h-3.06c.24-1.92.3-3.06.48-6Zm-7.92-17.04c6.06-1.86,6.36-2.04,13.38-5.4l-2.76-3.54c-3,2.34-5.28,3.42-10.62,5.22v-2.34a23.327,23.327,0,0,1,.3-4.5h-4.74a26.2,26.2,0,0,1,.3,4.68v10.14c0,3.42,1.32,4.08,8.1,4.08,8.88,0,9.6-.54,10.5-8.16a11.877,11.877,0,0,1-3.96-1.56c-.12,2.94-.48,4.68-1.08,5.28-.66.6-1.92.78-5.7.78-3.12,0-3.72-.3-3.72-1.8Zm-17.82-5.58a58.47,58.47,0,0,1,7.44,11.64l3.66-3a76.844,76.844,0,0,0-7.5-11.4Zm6.66,24.06A77.141,77.141,0,0,1-203.4-7.98,25.922,25.922,0,0,1-206.52-3l3.96,3.72c.54-1.26.84-1.86,1.44-3.18A107.948,107.948,0,0,0-195-17.58Zm56.52-3.78h-.84a10.808,10.808,0,0,1-2.52-.18l.48,4.62c1.08-.24,1.08-.24,8.58-.9V-2.16a38.325,38.325,0,0,1-.36,6.72h4.74a44.819,44.819,0,0,1-.3-6.72V-21.24c2.04-.24,2.76-.3,4.26-.54.18.84.3,1.14.48,2.16l3.36-1.62a60.5,60.5,0,0,0-3.96-10.26l-3.12,1.26a37.609,37.609,0,0,1,2.1,4.98c-1.92.24-3.36.36-7.92.66A139.673,139.673,0,0,0-126.9-38.88a30.957,30.957,0,0,1,1.8-2.82l-4.08-2.16c-.84,2.4-2.16,4.86-5.88,10.56-.9-1.32-1.26-1.8-2.82-3.78,1.8-2.76,2.7-4.38,5.34-9.3.78-1.5.78-1.5,1.14-2.16l-4.2-1.92c-.54,2.52-2.34,6.42-4.8,10.38-.78-.9-1.2-1.32-2.28-2.58l-2.28,3.48a73.886,73.886,0,0,1,7.56,9.36c-1.44,2.1-1.44,2.1-3.96,5.4Zm31.98-19.74h-9.06c-2.64,0-4.32-.06-5.52-.18a18.315,18.315,0,0,1,.24,3.6v3.72a27.234,27.234,0,0,1-.24,3.9h4.44v-7.2h25.26v4.8c-1.02.06-1.56.06-2.64.06h-10.08a29.535,29.535,0,0,1-4.74-.3v4.38a25.8,25.8,0,0,1,4.68-.3h3.18a34.761,34.761,0,0,1-1.8,6.3h-.72c-2.46,0-3.72-.06-5.34-.18a46.026,46.026,0,0,1,.24,5.46V-1.08a38.236,38.236,0,0,1-.3,5.52h4.26V1.56h11.76V4.5h4.38a39.32,39.32,0,0,1-.36-5.64V-19.98a46.307,46.307,0,0,1,.24-5.58c-1.5.12-3.12.18-5.52.18h-4.44a52.3,52.3,0,0,0,1.8-6.3h2.94a26.614,26.614,0,0,1,4.68.3v-3.78h2.22a25.048,25.048,0,0,1-.18-3.36v-2.4a30.176,30.176,0,0,1,.18-3.54,40.054,40.054,0,0,1-6.18.3h-9v-1.2a19.375,19.375,0,0,1,.36-4.62h-5.04a23.254,23.254,0,0,1,.3,4.56Zm1.86,22.56h11.76v7.44h-11.76Zm0,11.16h11.76v8.16h-11.76Zm-34.56-7.02A58.625,58.625,0,0,1-145.5-.96l3.66,1.74c1.5-4.92,2.1-8.7,2.88-17.58Zm12.66,1.08a86.857,86.857,0,0,1,2.16,14.04l3.6-1.08a111.172,111.172,0,0,0-2.46-13.86Zm9.42,14.1a47.891,47.891,0,0,1-.3,6.72h4.56a60.663,60.663,0,0,1-.24-7.08V-26.46a88.609,88.609,0,0,0,3.66-10.32l-4.14-1.26A44.989,44.989,0,0,1-120.66-27a32.912,32.912,0,0,1-4.92,7.8,17.8,17.8,0,0,1,2.34,3.6,27.54,27.54,0,0,0,3-4.74,54.141,54.141,0,0,0-.36,7.14Zm46.5-44.88a31.517,31.517,0,0,1,.18,3.36c0,.9,0,2.28-.06,4.02-.42,18.84-.48,20.7-.48,24.36a30.636,30.636,0,0,0,.84,7.92,12.611,12.611,0,0,0,4.44,6.42C-66.9.54-63.3,1.5-59.16,1.5A21.6,21.6,0,0,0-42.12-6c2.7-3.12,4.44-6.78,6.78-14.1a19.012,19.012,0,0,1-5.1-3.42,33.6,33.6,0,0,1-2.94,9.6C-46.56-7.2-52.08-3.48-58.8-3.48c-4.14,0-7.2-1.26-8.76-3.54-1.26-1.98-1.68-4.26-1.68-9.72,0-4.02.36-18.54.6-22.92a48.251,48.251,0,0,1,.66-7.44Zm52.8,13.74h1.5c1.62.06,3.24.12,3.72.12,1.98,0,4.2-.06,4.98-.06C-13.44-21.18-17.82-8.22-22.2-.48l5.28,2.22a168.331,168.331,0,0,0,6.84-18.78A169.272,169.272,0,0,0-6-33.6,89.525,89.525,0,0,0,4.02-34.98c1.26-.24,1.26-.24,1.74-.3L5.52-40.2A50.85,50.85,0,0,1-5.16-38.22c.3-1.56.42-2.22.78-4.26a56.73,56.73,0,0,1,1.08-5.7l-5.64-.6V-48a71.567,71.567,0,0,1-1.32,10.08c-1.62.06-2.34.06-3.3.06a43.137,43.137,0,0,1-7.68-.54ZM24.66-30.9c-4.38-.18-5.22-.18-6.36-.18-5.52,0-9.24.48-16.44,1.98l.48,4.8a55.562,55.562,0,0,1,15.18-1.98,50.6,50.6,0,0,1,7.2.48ZM2.34-18.06C-.84-13.8-1.8-11.7-1.8-8.94c0,6.12,5.28,9.3,15.3,9.3A64.017,64.017,0,0,0,24.3-.66c2.04-.36,2.04-.36,2.76-.48l-.48-5.34A43.316,43.316,0,0,1,13.26-4.32C6.78-4.32,3.18-6.18,3.18-9.48a8.252,8.252,0,0,1,.78-3.24,14.25,14.25,0,0,1,2.52-3.42Zm32.64,9A59.433,59.433,0,0,1,47.16,4.2L51.24.3A65.138,65.138,0,0,0,38.76-12.54ZM136.8-3.9V-.3h5.76a38.454,38.454,0,0,1-.3-5.94V-37.38c0-2.28,0-3.3.12-4.74-1.5.06-2.4.12-3.12.12h-29.1a37.506,37.506,0,0,1-7.44-.42v5.7a56.26,56.26,0,0,1,7.38-.3h26.76V-8.88H108.9a34.462,34.462,0,0,1-7.08-.42v5.64a60.77,60.77,0,0,1,7.02-.24ZM161.16-39A66.618,66.618,0,0,1,175.8-27.12l3.66-4.5a83.015,83.015,0,0,0-14.76-11.4Zm.9,39.18a32.422,32.422,0,0,1,3.72-.96c9.66-2.16,16.38-4.8,22.5-9,8.04-5.46,13.62-12.42,18.54-23.1a15.255,15.255,0,0,1-4.44-4.14c-4.92,12.9-12.84,21.6-24.3,26.7C172.5-7.86,165.3-6,160.5-5.82ZM227.4-44.04a70.435,70.435,0,0,1-4.5,22.44c-2.88,7.56-5.88,12.36-10.74,17.1a16.361,16.361,0,0,1,4.68,3.72c8.58-9.42,13.14-20.46,15.72-37.92a23.986,23.986,0,0,1,.78-4.26Zm17.4,1.08a23.144,23.144,0,0,1,.78,4.08,91.244,91.244,0,0,0,6.12,22.02A58.68,58.68,0,0,0,261.78-.66a16.932,16.932,0,0,1,4.56-4.02c-6.3-6.3-10.62-14.28-13.62-25.08a74.979,74.979,0,0,1-2.64-14.28Zm16.92-5.4a6.837,6.837,0,0,0-6.84,6.84,6.837,6.837,0,0,0,6.84,6.84,6.837,6.837,0,0,0,6.84-6.84A6.837,6.837,0,0,0,261.72-48.36Zm0,2.64a4.252,4.252,0,0,1,4.2,4.2,4.252,4.252,0,0,1-4.2,4.2,4.252,4.252,0,0,1-4.2-4.2A4.252,4.252,0,0,1,261.72-45.72Zm30.9-3.3c-.3,2.1-1.38,4.68-3.6,8.52-4.26,7.5-8.7,12.42-15.18,16.74a11.015,11.015,0,0,1,4.08,3.66,60.193,60.193,0,0,0,14.22-15.48l19.62-.3A52.936,52.936,0,0,1,301.5-16.32c-5.7,6.72-11.94,11.1-21,14.76a12.085,12.085,0,0,1,3.6,4.38c8.88-4.02,15.48-8.76,21-15.06a62.34,62.34,0,0,0,12.06-22.74c.72-2.22.78-2.34,1.32-3.12l-2.94-2.88a8.482,8.482,0,0,1-3.48.48c-1.8.06-6.9.12-15.3.24h-.72a5.743,5.743,0,0,0-1.5.18,54.2,54.2,0,0,0,2.64-5.22,7.99,7.99,0,0,1,1.32-2.34ZM350.88,2.1a53.516,53.516,0,0,1-.3-6.96V-20.52a35.541,35.541,0,0,0-.24-4.92,12.351,12.351,0,0,0,1.98,1.02A127.464,127.464,0,0,1,374.4-12.66l3-5.22a157.052,157.052,0,0,0-26.82-12.66V-41.22a47.814,47.814,0,0,1,.3-6.78h-6.06a33.685,33.685,0,0,1,.36,6.6V-4.86a42.352,42.352,0,0,1-.36,6.96Z" transform="translate(384.96 50.46)" fill="#1c69d4"/>
</svg>
