<svg xmlns="http://www.w3.org/2000/svg" width="320" height="120" viewBox="0 0 320 120">
  <g id="帯" transform="translate(-641 -881)">
    <path id="パス_681" data-name="パス 681" d="M0,0H320L307.1,120H13Z" transform="translate(641 881)" fill="#1c69d4"/>
    <path id="パス_701" data-name="パス 701" d="M52.65,27h2.375V11.425L60.25,23.25h2.325L67.8,11.425V27h2.375V8.15H66.85L61.425,20.4,56,8.15H52.65ZM74.525,13.8v8.025c0,2.025.275,3.4,1,4.275a4.41,4.41,0,0,0,3.65,1.325,22.206,22.206,0,0,0,6.15-1.05V13.8h-2.35V24.65a13.143,13.143,0,0,1-3.6.55c-1.025,0-1.625-.175-2.025-.7a4.816,4.816,0,0,1-.475-2.725V13.8ZM89.35,27H91.7V17.8a10.746,10.746,0,0,1,2.075-1.15,11.684,11.684,0,0,1,2.6-.775V13.5a10.4,10.4,0,0,0-2.95.825A11.081,11.081,0,0,0,91.7,15.4V13.8H89.35Zm8.225-6.525a11.179,11.179,0,0,0,.9,4.925,3.675,3.675,0,0,0,3.55,2.025,5.139,5.139,0,0,0,3.225-1.3c.575-.425,1.025-.8,1.425-1.15V27h2.35V14.775a16.94,16.94,0,0,0-5.675-1.4c-2.3,0-3.725.6-4.725,2.175A9.524,9.524,0,0,0,97.575,20.475Zm2.375,0a7.354,7.354,0,0,1,.65-3.5,2.853,2.853,0,0,1,2.85-1.375,9.816,9.816,0,0,1,3.225.75V22.5c-.525.45-1.2,1.025-1.85,1.525a4.465,4.465,0,0,1-2.475,1.15,1.866,1.866,0,0,1-1.95-1.25A10.117,10.117,0,0,1,99.95,20.475ZM113.025,13.8v8.025c0,2.025.275,3.4,1,4.275a4.41,4.41,0,0,0,3.65,1.325,22.206,22.206,0,0,0,6.15-1.05V13.8h-2.35V24.65a13.143,13.143,0,0,1-3.6.55c-1.025,0-1.625-.175-2.025-.7a4.816,4.816,0,0,1-.475-2.725V13.8ZM128.4,25.25c.875,1.45,2.075,2.175,4.675,2.175A20.97,20.97,0,0,0,137.2,26.8V24.5a17.592,17.592,0,0,1-3.95.7c-1.425,0-2.375-.325-2.9-1.35a8.066,8.066,0,0,1-.625-3.425,8.653,8.653,0,0,1,.5-3.3c.525-1.2,1.45-1.525,3.025-1.525a17.307,17.307,0,0,1,3.95.8V14.1a17.98,17.98,0,0,0-4.15-.725c-2.85,0-4.1.95-4.925,2.625a10.57,10.57,0,0,0-.775,4.475A9.509,9.509,0,0,0,128.4,25.25Zm11.85-17.1V27h2.35V16.825a11.791,11.791,0,0,1,3.95-1.175,2.118,2.118,0,0,1,1.775.6,4.119,4.119,0,0,1,.475,2.525V27h2.35V18.675c0-2.125-.2-3.3-.975-4.15A3.867,3.867,0,0,0,147,13.375a13.042,13.042,0,0,0-4.4,1.2V8.15ZM157.5,27V13.8h-2.35V27Zm.025-15.325V8.15h-2.4v3.525Zm10.8-3.525V27H176.1c2.425,0,3.925-.45,5.025-1.325a4.966,4.966,0,0,0,1.7-4.075,4.927,4.927,0,0,0-.85-2.95,6.087,6.087,0,0,0-1.575-1.425c.3-.475.7-1.075,1.025-1.65A5.956,5.956,0,0,0,182.4,12.5a4.02,4.02,0,0,0-1.875-3.575,8.074,8.074,0,0,0-4.25-.775Zm2.4,10.375h5.95a4.235,4.235,0,0,1,2.475.55,2.772,2.772,0,0,1,1.225,2.525,2.758,2.758,0,0,1-1,2.375,5.278,5.278,0,0,1-3.25.725h-5.4Zm0-8.075h5.4a6.3,6.3,0,0,1,2.8.4,1.843,1.843,0,0,1,1.025,1.85,4.225,4.225,0,0,1-.75,2.2c-.25.425-.525.875-.8,1.325h-7.675ZM186.75,27h2.375V11.425L194.35,23.25h2.325L201.9,11.425V27h2.375V8.15H200.95L195.525,20.4,190.1,8.15h-3.35Zm20.6-18.85L211.25,27h3.325l3.6-12.85L221.8,27h3.325L229,8.15h-2.425l-3.3,16.025L219.55,11h-2.725l-3.7,13.175L209.8,8.15ZM42.75,46.35a6.847,6.847,0,0,0,2.9,1.5l3.775,1.275A6.348,6.348,0,0,1,52,50.3a2.414,2.414,0,0,1,.575,1.8A2.6,2.6,0,0,1,51.5,54.35a5.281,5.281,0,0,1-3.3.75,36.035,36.035,0,0,1-6.525-.95v2.375a34.305,34.305,0,0,0,6.425.9c2.475,0,4.1-.4,5.3-1.5a5.092,5.092,0,0,0,1.625-3.9A4.815,4.815,0,0,0,53.9,48.7a7.353,7.353,0,0,0-3.25-1.725l-3.75-1.25a7.311,7.311,0,0,1-2.325-1.05,2.227,2.227,0,0,1-.6-1.825,2.524,2.524,0,0,1,.9-2.1,4.75,4.75,0,0,1,3.1-.7A34.68,34.68,0,0,1,54.5,41.2V38.8a30.351,30.351,0,0,0-6.575-1.075c-2.175,0-3.65.3-4.775,1.275a4.968,4.968,0,0,0-1.625,3.95A4.442,4.442,0,0,0,42.75,46.35ZM58.8,57h2.4V49.95c2.275,0,4.425,0,5.525-.075a5.67,5.67,0,0,0,4.075-1.6,6.326,6.326,0,0,0,1.4-4.425,6.026,6.026,0,0,0-1.45-4.225c-1.025-1.025-2.35-1.475-4.5-1.475H58.8Zm2.4-16.525h4.825a3.832,3.832,0,0,1,2.825.725,3.619,3.619,0,0,1,.9,2.65,4.189,4.189,0,0,1-.65,2.625,3.33,3.33,0,0,1-2.625,1.05c-1.275.1-3.275.1-5.275.1ZM75.775,57h13.15V54.675H78.175V48.55h9.8V46.225h-9.8v-5.75h10.35V38.15H75.775ZM93.05,54.05c1,2,2.625,3.375,6.35,3.375a28.737,28.737,0,0,0,5.9-.8V54.25a29.412,29.412,0,0,1-5.65.85c-2.4,0-3.725-.7-4.475-2.3a13.159,13.159,0,0,1-.75-5.075,13.572,13.572,0,0,1,.825-5.45c.8-1.6,2.075-2.225,4.4-2.225a13.211,13.211,0,0,1,2.6.325c1.05.2,2.1.475,3.05.725V38.7a26.621,26.621,0,0,0-2.65-.625,18.15,18.15,0,0,0-3.175-.35c-3.5,0-5.1,1.2-6.175,3-1,1.675-1.325,4.225-1.325,7.025A15.035,15.035,0,0,0,93.05,54.05ZM111.425,57V38.15h-2.4V57Zm2.75,0H116.7l1.625-4.375h8.8L128.75,57h2.625l-7.05-18.85h-3.15Zm8.55-16.4,3.575,9.725h-7.175ZM146.475,57V54.675h-9.95V38.15h-2.4V57Zm10.675-2.4c1.15,1.85,2.925,2.825,6.575,2.825,3.1,0,4.975-.825,6.375-2.8,1.175-1.675,1.6-4.5,1.6-7.025,0-2.6-.425-5.45-1.65-7.15-1.325-1.85-3.125-2.725-6.325-2.725-3.65,0-5.55,1.25-6.725,3.225-.95,1.6-1.275,4.275-1.275,6.65C155.725,50.325,156.15,53,157.15,54.6Zm1.925-12.4c.95-1.7,2.65-2.15,4.65-2.15s3.525.475,4.45,1.975A11.34,11.34,0,0,1,169.25,47.6c0,2.225-.25,4.625-1.35,5.925a4.945,4.945,0,0,1-4.175,1.575c-1.975,0-3.675-.275-4.6-1.9-.725-1.275-.95-3.65-.95-5.6A12.644,12.644,0,0,1,159.075,42.2ZM176.05,56.975h2.4V48.8h9.425V46.475H178.45v-6h10.3V38.15h-12.7Zm15.9,0h2.4V48.8h9.425V46.475H194.35v-6h10.3V38.15h-12.7Zm15.9.025H221V54.675H210.25V48.55h9.8V46.225h-9.8v-5.75H220.6V38.15H207.85Zm18.975,0V49.725h5.225L236.475,57h2.85l-4.675-7.65c.525-.525,1.4-1.375,2.05-2.15a5.722,5.722,0,0,0,1.675-3.95,4.843,4.843,0,0,0-1.7-3.95c-1.175-.9-2.625-1.15-5.075-1.15h-7.175V57ZM231.4,40.475c1.8,0,2.75.1,3.425.525a2.4,2.4,0,0,1,1.1,2.25,3.994,3.994,0,0,1-1.175,2.65c-.4.475-.875.975-1.375,1.5h-6.55V40.475ZM83.925,70.375H81.3a16.384,16.384,0,0,1-2.35-.15V72.2a14.031,14.031,0,0,1,2.25-.125h5.05A23.752,23.752,0,0,1,85.1,78.25c-1.725-2.05-2.425-2.85-3.9-4.35l-1.35,1.25a45.668,45.668,0,0,1,4.45,4.975,18.166,18.166,0,0,1-5.6,6.625,5.168,5.168,0,0,1,1.425,1.525,21.109,21.109,0,0,0,5.375-6.55,40.339,40.339,0,0,1,3.025,4.725L90,84.975a56.651,56.651,0,0,0-3.6-5.1,24.547,24.547,0,0,0,1.775-7.8,16.4,16.4,0,0,1,2.175.1v-1.95a15.54,15.54,0,0,1-2.325.15H85.8v-1.6a17.5,17.5,0,0,1,.15-2.475H83.775a11.906,11.906,0,0,1,.15,2.475Zm12.8,3.2v12.55c0,.5-.2.6-1.3.6a23.347,23.347,0,0,1-3.2-.275,6.811,6.811,0,0,1,.6,1.975c1,.075,1.725.1,2.625.1,2.65,0,3.175-.375,3.175-2.3V73.575h.525a13.589,13.589,0,0,1,2.175.125,1.035,1.035,0,0,1,.25.025v-2.05a15.6,15.6,0,0,1-2.425.15h-.525V69.25a20.721,20.721,0,0,1,.15-2.775H96.55a15.124,15.124,0,0,1,.175,2.775v2.575H93.05a14.8,14.8,0,0,1-2.375-.125v2.025a15.2,15.2,0,0,1,2.35-.15ZM89.9,76.4a22.276,22.276,0,0,1,3.575,5.825l1.675-1.1a28.631,28.631,0,0,0-3.65-5.65Zm32.425.275c1.05,0,1.975.025,2.6.075a15.389,15.389,0,0,1-.1-2.1V73.125a15.864,15.864,0,0,1,.1-2.1,24.544,24.544,0,0,1-2.75.1H117.8a22.334,22.334,0,0,0,1.725-1.7c.575-.65.575-.65.925-1l-1.025-1a14.814,14.814,0,0,1-2.325.125h-4.475c.15-.175.275-.3.35-.375.15-.175.25-.3.3-.35a6.046,6.046,0,0,1,.55-.625l-2.1-.5a10.485,10.485,0,0,1-1.875,2.4,19.081,19.081,0,0,1-5.8,4.1,5.141,5.141,0,0,1,1,1.525,19.417,19.417,0,0,0,2.025-1.25V74.65a19.055,19.055,0,0,1-.075,2.1c.75-.05,1.55-.075,2.65-.075h3.9a26.218,26.218,0,0,1-8.775,2.625,5.634,5.634,0,0,1,.95,1.575,27.147,27.147,0,0,0,7.6-2.45,6.26,6.26,0,0,1,.9,1.15,27.64,27.64,0,0,1-9.3,3.275,4.736,4.736,0,0,1,.95,1.575,31.413,31.413,0,0,0,9.075-3.575c.225.525.35.85.525,1.375A33.107,33.107,0,0,1,104.5,86.6a7.234,7.234,0,0,1,1.075,1.65,35.378,35.378,0,0,0,10.25-4.475A7.914,7.914,0,0,1,115.9,84.8a3.085,3.085,0,0,1-.4,1.925c-.275.35-.625.45-1.6.45a13.828,13.828,0,0,1-2.3-.2,5.347,5.347,0,0,1,.575,1.925c.625.05,1.05.075,1.525.075a6.838,6.838,0,0,0,2.55-.35c.975-.45,1.5-1.65,1.5-3.475a10.5,10.5,0,0,0-2.975-7.5,12.734,12.734,0,0,0,1.5-.975h.55a19.39,19.39,0,0,0,4.55,8.1A14.925,14.925,0,0,0,125.85,88a6.616,6.616,0,0,1,1.275-1.85,11.2,11.2,0,0,1-3.9-2.4,19.206,19.206,0,0,1-2.15-2.275A22.458,22.458,0,0,0,123.8,79.6c.95-.775,1.15-.925,1.55-1.2l-1.625-1.275a12.368,12.368,0,0,1-3.6,2.95,14.465,14.465,0,0,1-1.45-3.4Zm-13.375-5.55a23.869,23.869,0,0,0,2.3-2.075h6.375a16,16,0,0,1-2.05,2.075Zm-.025,4.025V72.675h5.9V75.15Zm7.7,0V72.675h6.35V75.15Zm21.625,2.425V82.9c0,3.25,1.1,4.025,5.65,4.025,1.6,0,2.95-.075,4.9-.225.475-.025.7-.05.925-.05h.35l-.05-2.3a10.1,10.1,0,0,1-2.2.4c-1.4.125-2.85.2-3.6.2a8.842,8.842,0,0,1-2.975-.35c-.675-.275-.825-.7-.825-2.375v-4.65h7.325a25.188,25.188,0,0,1,3.05.125V75.475a16.864,16.864,0,0,1-3.1.175h-7.275V70.675h5.725a24.156,24.156,0,0,1,3.075.125V68.575a16.549,16.549,0,0,1-3.1.175h-11.2a16.38,16.38,0,0,1-3.125-.175V70.8a24.156,24.156,0,0,1,3.075-.125h3.375V75.65h-4.8a17.656,17.656,0,0,1-3.125-.175V77.7a24.6,24.6,0,0,1,3.1-.125ZM173,76.4c1.325,0,2.3.05,3.075.125V74.3a19.667,19.667,0,0,1-3.1.175h-14.4a20.739,20.739,0,0,1-3.1-.175v2.225a24.644,24.644,0,0,1,3.075-.125h6.475A13.706,13.706,0,0,1,164,81.425c-1.05,2.175-3.025,3.675-6.225,4.7a5.385,5.385,0,0,1,1.425,1.95,15.635,15.635,0,0,0,4.4-2.45,10.067,10.067,0,0,0,3.375-6.35,19.816,19.816,0,0,0,.35-2.875Zm-15-6.05a23.007,23.007,0,0,1,3.05-.125h7.125a24.891,24.891,0,0,1,3.075.125V68.1a15.93,15.93,0,0,1-3.1.175h-7.075A15.789,15.789,0,0,1,158,68.1Zm16.275-4.55a18.322,18.322,0,0,1,2.575,3.875l1.45-.825a18.655,18.655,0,0,0-2.625-3.8Zm-3.15.975a17.449,17.449,0,0,1,2.6,3.95L175.2,69.9a19.565,19.565,0,0,0-2.625-3.875Zm12.7,1.05A12.484,12.484,0,0,1,183.9,69.8c0,5.125-.325,8.325-1.1,10.525a12.018,12.018,0,0,1-4.125,5.725,6.055,6.055,0,0,1,1.8,1.675,15.547,15.547,0,0,0,4.3-6.3c.925-2.525,1.125-4.35,1.325-11.275a12.988,12.988,0,0,1,.15-2.2Zm6.3-.2a10.63,10.63,0,0,1,.125,2.05v.55l-.15,14.15a5.835,5.835,0,0,1-.175,1.975l1.175,1.3a4.625,4.625,0,0,1,.6-.275c.25-.1.5-.2.8-.3a17.183,17.183,0,0,0,3.525-1.8,14.359,14.359,0,0,0,5.15-6.55A8.266,8.266,0,0,1,199.525,77a12.216,12.216,0,0,1-2.825,4.875,11.012,11.012,0,0,1-4.4,2.9l.125-14.525a14.42,14.42,0,0,1,.175-2.6Z" transform="translate(661 896)" fill="#fff"/>
  </g>
</svg>
