<svg xmlns="http://www.w3.org/2000/svg" xmlns:xlink="http://www.w3.org/1999/xlink" width="847.56" height="403.8" viewBox="0 0 847.56 403.8">
  <defs>
    <linearGradient id="linear-gradient" x1="0.5" x2="0.5" y2="1" gradientUnits="objectBoundingBox">
      <stop offset="0" stop-color="#398eee"/>
      <stop offset="1" stop-color="#13b3f9"/>
    </linearGradient>
  </defs>
  <g id="mv-txt" transform="translate(-64 -652.78)">
    <g id="txt" transform="translate(0 1)">
      <path id="パス_714" data-name="パス 714" d="M13.56-24.63a19.036,19.036,0,0,1,.12,2.52c0,6.75-1.56,11.82-4.98,16.17A20.223,20.223,0,0,1,1.44-.06,6.609,6.609,0,0,1,3.24,2.1,26.5,26.5,0,0,0,8.55-2.01a20.9,20.9,0,0,0,4.38-6.06,23.377,23.377,0,0,0,2.13-6.51A25.278,25.278,0,0,0,18.99-5.4a28.205,28.205,0,0,0,7.86,7.5,7.487,7.487,0,0,1,1.8-2.28,23.558,23.558,0,0,1-3.27-2.16,26.825,26.825,0,0,1-4.29-4.38,25.772,25.772,0,0,1-4.14-8.4,36.631,36.631,0,0,1-.75-6.78,21.393,21.393,0,0,1,.18-2.73Zm40.05,4.17a20.07,20.07,0,0,1,3.75.21v-2.49a24.542,24.542,0,0,1-3.75.21H39.03c.33-.6.48-.93.78-1.53.27-.57.33-.66.51-1.02l-2.49-.48a6,6,0,0,1-.6,1.8,21.194,21.194,0,0,1-5.67,7.35,4,4,0,0,1,1.65,1.59,24.172,24.172,0,0,0,4.65-5.64Zm-3,19.74a69.573,69.573,0,0,0-5.76-4.77,29.969,29.969,0,0,0,2.43-2.94c.72-.99.72-.99,1.2-1.59l-2.31-1.23a13.532,13.532,0,0,1-3.09,4.44c-2.22-1.53-3.3-2.22-5.64-3.57L35.88-8.94a54.886,54.886,0,0,1,5.64,3.66A28.5,28.5,0,0,1,32.46-.03a6.205,6.205,0,0,1,1.68,2.01,33.049,33.049,0,0,0,9.15-5.94,45.35,45.35,0,0,1,5.67,5.1Zm1.17-11.13c.06,4.77.39,7.5,1.2,9.78.84,2.37,2.31,4.08,3.54,4.08,1.47,0,2.31-1.89,2.79-6.18a5.74,5.74,0,0,1-1.92-1.38c-.15,2.52-.63,4.83-.99,4.83-.33,0-.96-1.08-1.38-2.28A28.265,28.265,0,0,1,54-11.4a23.839,23.839,0,0,1,.12-2.61,29.877,29.877,0,0,1-3.42.12H36.09a20.763,20.763,0,0,1-2.73-.15v2.37a22.462,22.462,0,0,1,3.18-.18Zm-14.64-4.2a17.8,17.8,0,0,1,2.82-.15H51.9a19.425,19.425,0,0,1,3,.15v-2.31a21.849,21.849,0,0,1-3,.15H39.63a16.39,16.39,0,0,1-2.49-.12ZM74.85-1.98A5.884,5.884,0,0,1,76.14.45a19.836,19.836,0,0,0,5.01-1.56,11.07,11.07,0,0,0,6.57-10.38c0-6.33-4.53-10.53-11.34-10.53a12.819,12.819,0,0,0-9.87,4.05,12.487,12.487,0,0,0-3.21,8.4c0,4.38,2.22,7.59,5.25,7.59,2.25,0,4.05-1.8,5.76-5.73a43.6,43.6,0,0,0,3-12,7.918,7.918,0,0,1,3.36.81,7.747,7.747,0,0,1,4.44,7.29A8.811,8.811,0,0,1,80.37-3.6,16.4,16.4,0,0,1,74.85-1.98Zm-.12-17.67a40.964,40.964,0,0,1-2.67,10.8c-1.23,2.82-2.37,4.2-3.54,4.2-1.56,0-2.76-2.16-2.76-4.89a10.238,10.238,0,0,1,4.68-8.7A8.485,8.485,0,0,1,74.73-19.65ZM92.37-6.63a7.67,7.67,0,0,0,1.53,4.2C95.31-.6,97.89.39,101.28.39c5.28,0,8.34-2.52,8.34-6.87a5.335,5.335,0,0,0-2.1-4.56,11,11,0,0,0-4.83-1.92,22.785,22.785,0,0,1-4.29-1.08,3.333,3.333,0,0,1-2.43-3.21c0-2.28,2.04-3.84,5.01-3.84a5.4,5.4,0,0,1,4.26,1.65,4.547,4.547,0,0,1,.99,2.37l3.03-.39a7.192,7.192,0,0,0-1.35-3.24c-1.38-1.86-3.78-2.85-6.87-2.85-4.83,0-7.95,2.52-7.95,6.39a5.259,5.259,0,0,0,2.67,4.77,13.055,13.055,0,0,0,4.2,1.53c3.81.84,4.08.9,5.04,1.44a3.333,3.333,0,0,1,1.68,3.09c0,2.64-2.07,4.23-5.46,4.23a5.93,5.93,0,0,1-4.86-1.98,4.831,4.831,0,0,1-.9-2.88Zm37.32-16.5a20.085,20.085,0,0,1,.24,3.63V-8.64c0,4.26-2.31,6.6-6.54,6.6s-6.57-2.37-6.57-6.6V-19.5a19.058,19.058,0,0,1,.24-3.63h-3.3A19.874,19.874,0,0,1,114-19.5V-8.55c0,5.79,3.33,9,9.33,9a9.716,9.716,0,0,0,7.05-2.46,9.015,9.015,0,0,0,2.37-6.54V-19.56a19.574,19.574,0,0,1,.24-3.57Zm10.65,3.09a19.968,19.968,0,0,1-.84-3.09h-3.63a29.776,29.776,0,0,1,1.53,3.51l6.42,16.74A23.54,23.54,0,0,1,144.78,0h3.54a22.568,22.568,0,0,1,.93-2.88l6.42-16.74a22.577,22.577,0,0,1,1.53-3.51h-3.63a14.338,14.338,0,0,1-.87,3.09L147.27-4.83c-.24.63-.36.99-.72,2.16-.33-1.08-.57-1.8-.69-2.16Zm27.75-.42a37.756,37.756,0,0,1-6.45-.36l-.06,2.46a2.844,2.844,0,0,1,.63-.06,5.167,5.167,0,0,1,.6.03c.63.03,3.6.09,4.2.09.12,0,.45-.03.54-.03-.18.33-.18.33-.27.48a29.864,29.864,0,0,1-6.57,8.28l1.98,1.98a10.735,10.735,0,0,1,2.4-2.55c2.37-2.04,4.68-3.15,6.51-3.15,1.35,0,2.04.66,2.22,2.13a23.625,23.625,0,0,0-4.41,2.4c-2.13,1.53-3.18,3.15-3.18,4.86a4,4,0,0,0,2.04,3.6A12.422,12.422,0,0,0,174.42.87,50.575,50.575,0,0,0,181.89.3a7.137,7.137,0,0,1,1.23-.15l-.27-2.76a25.215,25.215,0,0,1-8.16,1.2c-4.23,0-5.94-.78-5.94-2.67,0-1.02.54-1.86,1.77-2.82a18.407,18.407,0,0,1,3.6-1.98v.93a37.742,37.742,0,0,1-.18,3.99l2.46-.03a8.244,8.244,0,0,1-.06-1.23V-6.45c.03-.6.03-1.23.03-1.56,0-.66,0-.75-.03-1.74a46.171,46.171,0,0,1,7.95-2.55l-1.08-2.46a8.43,8.43,0,0,1-2.1.87c-1.47.51-2.7.96-5.04,1.86a3.722,3.722,0,0,0-4.05-3.27,7.742,7.742,0,0,0-4.14,1.23,6.8,6.8,0,0,0-1.02.75,4.106,4.106,0,0,0-.42.3.371.371,0,0,1-.06-.09l.06-.06c0-.03.12-.12.3-.24a8.448,8.448,0,0,0,.96-1.11,22.558,22.558,0,0,0,2.43-3.81c2.94-.09,6.78-.36,8.85-.63,1.74-.24,1.74-.24,2.31-.3l-.18-2.4a39.675,39.675,0,0,1-8.1,1.05c-1.68.09-1.68.09-1.89.12a19.588,19.588,0,0,0,.9-2.01,6.469,6.469,0,0,1,.72-1.53l-2.82-.42a13.041,13.041,0,0,1-1.35,3.99Zm31.17,5.13a.227.227,0,0,1,.12-.03,1.378,1.378,0,0,1,.3.03,5.207,5.207,0,0,1,.54.03c.09,0,.42.03.9.06,1.08.09,2.19.12,3.39.12,1.11,0,1.86-.03,3.3-.09.15,4.86.21,6.75.3,7.41a8.438,8.438,0,0,0-3.12-.54c-3.42,0-5.85,1.86-5.85,4.47,0,2.73,2.22,4.44,5.79,4.44,2.58,0,4.53-.93,5.25-2.52a5.027,5.027,0,0,0,.36-2.07,4.645,4.645,0,0,0-.03-.63c.15.09.15.12.27.18a3.484,3.484,0,0,1,.33.21,17.952,17.952,0,0,1,3.12,2.13,8.349,8.349,0,0,1,.9.87l1.08-2.55a3.172,3.172,0,0,1-.78-.51,23.75,23.75,0,0,0-4.92-2.88c-.3-5.07-.3-5.43-.33-8.19a41.129,41.129,0,0,0,4.74-.78,4.275,4.275,0,0,1,.48-.09l-.12-2.4a22.1,22.1,0,0,1-5.1,1.08v-1.68a33.029,33.029,0,0,1,.18-4.38h-2.67c.03.3.06.75.06,1.29.03,2.07.03,2.07.03,4.95-.99.03-1.68.06-2.85.06a24.122,24.122,0,0,1-5.64-.45Zm8.91,9.75v.87a3.356,3.356,0,0,1-.51,2.1,3.929,3.929,0,0,1-2.85.99c-1.95,0-3.27-.9-3.27-2.25,0-1.41,1.41-2.31,3.57-2.31A7.706,7.706,0,0,1,208.17-5.58ZM194.34-3.96v-.72a4.69,4.69,0,0,0-.03-.75c-.03-1.38-.06-2.85-.06-3.54,0-4.92,1.05-11.43,2.34-14.34l-2.85-.39a9.019,9.019,0,0,1-.33,2.01,51.914,51.914,0,0,0-1.5,12.3,48,48,0,0,0,.84,9.12A5.312,5.312,0,0,1,192.9.84l2.61-.21a3.39,3.39,0,0,1-.06-.66c0-1.83,1.29-5.91,2.7-8.7l-1.89-.84c-.09.27-.12.36-.27.72a31.257,31.257,0,0,0-1.56,4.92Zm30.75-19.41a10.146,10.146,0,0,1,.09,1.65l-.03,2.01c-.21,9.42-.24,10.35-.24,12.18a15.411,15.411,0,0,0,.42,3.99,6.1,6.1,0,0,0,2.22,3.18A8.644,8.644,0,0,0,232.56.96a10.826,10.826,0,0,0,8.52-3.78c1.35-1.56,2.22-3.36,3.39-7.05a8.283,8.283,0,0,1-2.55-1.71,17.331,17.331,0,0,1-1.47,4.83,8.373,8.373,0,0,1-7.71,5.19c-2.07,0-3.6-.63-4.38-1.77-.63-.99-.84-2.13-.84-4.83,0-2.04.18-9.3.3-11.49a28.26,28.26,0,0,1,.33-3.69Zm9.51,1.65a20.939,20.939,0,0,1,3.12,4.74l1.77-.99a23.477,23.477,0,0,0-3.15-4.65Zm3.48-1.62a21.987,21.987,0,0,1,3.09,4.65l1.74-.99a22.386,22.386,0,0,0-3.15-4.56Zm28.41-.48a32.461,32.461,0,0,1-.9,4.77h-.84a14.987,14.987,0,0,0-6.36,1.38,35.525,35.525,0,0,1-.78-5.1l-2.61.51a6.941,6.941,0,0,1,.39,1.62c.27,1.5.66,3.42.87,4.2a11.116,11.116,0,0,0-3,3.06,10.768,10.768,0,0,0-1.77,5.82c0,3.66,1.83,6.12,4.53,6.12,1.83,0,3.69-1.2,5.67-3.6a35.684,35.684,0,0,0,5.7-11.58c3.84.84,5.91,3.15,5.91,6.6,0,3.39-1.92,5.91-5.64,7.41a14.5,14.5,0,0,1-4.59,1.11A5.576,5.576,0,0,1,264.45.93a22.689,22.689,0,0,0,4.59-1.35c4.38-1.86,6.81-5.22,6.81-9.45,0-4.59-2.88-7.83-7.86-8.88.12-.48.15-.63.39-1.53a13.918,13.918,0,0,1,.81-3Zm-9.6,9.81a37.751,37.751,0,0,0,2.7,7.74c-1.26,1.56-2.43,2.37-3.45,2.37-1.38,0-2.31-1.47-2.31-3.63A8.479,8.479,0,0,1,256.89-14.01Zm4.32,5.76a5.682,5.682,0,0,0-.18-.54,42.3,42.3,0,0,1-2.16-6.6,10.822,10.822,0,0,1,5.55-1.47h.57a35.186,35.186,0,0,1-3.48,8.04,3.831,3.831,0,0,0-.21.36.507.507,0,0,1-.06.15ZM280.2-4.53a29.717,29.717,0,0,1,6.09,6.63L288.33.15a32.569,32.569,0,0,0-6.24-6.42Zm42.42-20.55a20.165,20.165,0,0,1-4.14,4.77,29.915,29.915,0,0,1-8.52,5.37,8.32,8.32,0,0,1,1.41,2.1,34.455,34.455,0,0,0,6.9-4.23A29.932,29.932,0,0,0,324-22.98a25.691,25.691,0,0,0,5.7,5.85,40.486,40.486,0,0,0,7.26,4.41,7.391,7.391,0,0,1,1.38-2.31,28.146,28.146,0,0,1-6.99-3.84,22.29,22.29,0,0,1-6.06-6.21Zm-5.01,11.31a19.623,19.623,0,0,1,2.52-.12h7.86a22.894,22.894,0,0,1,2.67.12v-2.4a19.462,19.462,0,0,1-2.58.12h-8.04a16.758,16.758,0,0,1-2.43-.12Zm16.17,3.24a18.492,18.492,0,0,1-3.27.15H317.07a33.424,33.424,0,0,1-3.57-.18v2.55c1.29-.12,2.37-.18,3.54-.18h14.49l-5.61,6.81a16.767,16.767,0,0,1-2.4,2.43l2.55,1.44c.6-.9,1.17-1.65,1.98-2.67l5.91-7.32c.33-.42.96-1.11,1.26-1.41Zm22.11-9.75c-3.36.09-4.68.12-7.23.21-4.53.18-4.71.18-5.52.18-.45,0-.69,0-1.29-.03l.09,2.58c1.86-.3,8.85-.69,13.98-.78,0,1.65.03,3.21.06,3.48v.21a4.518,4.518,0,0,0-3.33-1.2c-3.21,0-5.55,2.16-5.55,5.1a4.851,4.851,0,0,0,5.1,4.89,4.883,4.883,0,0,0,3.78-1.56,4.774,4.774,0,0,0,.81-1.32,6.731,6.731,0,0,1-.87,3.03c-1.29,2.34-3.6,3.81-7.47,4.86a7.726,7.726,0,0,1,1.53,2.31,19.359,19.359,0,0,0,4.95-2.43,9.436,9.436,0,0,0,4.11-7.92,8.692,8.692,0,0,0-.75-3.72v-5.76c2.4-.03,2.91-.03,3.33-.03a52.062,52.062,0,0,1,5.52.15v-2.52c-.99.12-3.27.18-8.88.21a25.729,25.729,0,0,1,.15-3.93h-2.7a13.452,13.452,0,0,1,.15,1.74Zm-3.03,6.66a3.393,3.393,0,0,1,2.37.87,2.017,2.017,0,0,1,.6,1.59,3.174,3.174,0,0,1-3.33,3.3,2.765,2.765,0,0,1-2.94-2.85A3.055,3.055,0,0,1,352.86-13.62Zm33.93-10.8c-1.11,1.71-4.68,5.04-8.88,8.25a23.985,23.985,0,0,0-2.58,2.07,3.221,3.221,0,0,0-.9,2.13c0,1.14.51,1.83,2.25,3.21a98.29,98.29,0,0,1,7.65,6.3,28.158,28.158,0,0,1,3.87,4.11l2.25-2.22a7.932,7.932,0,0,1-.87-.75,87.314,87.314,0,0,0-9.57-8.1c-2.49-1.89-2.67-2.07-2.67-2.58,0-.39.24-.63,1.26-1.44,3.57-2.73,5.52-4.32,6.99-5.7,2.91-2.76,3.27-3.12,3.69-3.42Zm4.17,5.64a21.988,21.988,0,0,1,3.09,4.65l1.74-.99a22.385,22.385,0,0,0-3.15-4.56Zm-3.48,1.62a20.939,20.939,0,0,1,3.12,4.74l1.77-.99a23.477,23.477,0,0,0-3.15-4.65ZM405.57-3.93c0-.51-.03-.63-.03-1.29-.03-.81-.06-2.25-.06-2.85a55.591,55.591,0,0,1,.69-9.18,36.475,36.475,0,0,1,1.5-5.97l-2.85-.39a18.408,18.408,0,0,1-.42,2.55,51.492,51.492,0,0,0-1.32,11.88,45.308,45.308,0,0,0,.78,8.55c.09.6.12.78.18,1.26l2.61-.18a4.48,4.48,0,0,1-.03-.57c0-1.83,1.02-5.28,2.52-8.46l-1.8-.84a26.034,26.034,0,0,0-1.74,5.49Zm5.67-13.71c.24.03.3.03.48.06a3.7,3.7,0,0,0,.54.06,36.087,36.087,0,0,0,4.02.21,51.832,51.832,0,0,0,6.39-.39q1.935-.27,2.07-.27l-.15-2.55a33.225,33.225,0,0,1-8.22.81,20.728,20.728,0,0,1-5.07-.45Zm2.16,5.61c-1.86,2.16-2.67,3.9-2.67,5.67a4.838,4.838,0,0,0,.9,2.88c1.26,1.62,3.51,2.37,7.05,2.37a34.329,34.329,0,0,0,6.18-.57c.63-.12.69-.12,1.08-.18l-.27-2.73a20.8,20.8,0,0,1-6.99,1.05c-3.63,0-5.49-1.02-5.49-3.06,0-1.32.69-2.7,2.25-4.41Zm22.89-5.13v3.06h-2.16a22.553,22.553,0,0,1-3.09-.18v2.31a21.365,21.365,0,0,1,3.09-.18h2.16v3.42h-1.11a26.493,26.493,0,0,1-2.94-.15v2.16a24.313,24.313,0,0,1,3.12-.18h6.33a19.43,19.43,0,0,1-4.05,3.24,28.085,28.085,0,0,1-7.29,3.12,7.948,7.948,0,0,1,1.38,2.1c5.25-1.89,8.04-3.69,11.4-7.26-.06.78-.09,1.53-.12,2.19V-.69a18.633,18.633,0,0,1-.21,3.21h2.61a15.514,15.514,0,0,1-.21-3.21V-3.51c0-.57-.03-1.05-.12-2.22,3.12,3.39,6.42,5.43,11.91,7.29a11.161,11.161,0,0,1,1.32-2.31,25.11,25.11,0,0,1-6.87-2.52,22.026,22.026,0,0,1-4.95-3.63h6.96a23.026,23.026,0,0,1,3.12.18V-8.88a26.493,26.493,0,0,1-2.94.15h-1.44v-3.42h2.34a18.152,18.152,0,0,1,3.12.18v-2.31a22.719,22.719,0,0,1-3.12.18h-2.34v-3.06h1.41a28.659,28.659,0,0,1,2.94.15v-2.16a22.415,22.415,0,0,1-3.12.18H445.2v-2.88c3.21-.3,5.58-.66,8.46-1.2.57-.12.69-.15,1.14-.21l-1.53-2.07a18.6,18.6,0,0,1-4.35,1.02,99.485,99.485,0,0,1-14.67,1.08h-1.08a8.035,8.035,0,0,1,.87,2.04c3.03-.06,3.03-.06,8.97-.48v2.7h-7.68a22.718,22.718,0,0,1-3.12-.18v2.16a22.093,22.093,0,0,1,2.94-.15Zm2.16,0h4.56v3.06h-4.56Zm0,5.01h4.56v3.42h-4.56Zm11.58,3.42H445.2v-3.42h4.83Zm0-5.37H445.2v-3.06h4.83ZM462.81-3.48a7.814,7.814,0,0,1,.75-.96c.51-.57.9-1.02,1.23-1.35.84-.93.84-.93,1.35-1.56a4.959,4.959,0,0,0,.57-.75l.06.03a12.229,12.229,0,0,0-.12,1.83c0,6.33,0,6.39-.21,7.65h2.79c-.09-.93-.12-3.21-.12-8.4,0-.69,0-1.5.03-3.03,4.35-4.47,8.01-7.02,9.99-7.02a1.377,1.377,0,0,1,1.53,1.53,21.679,21.679,0,0,1-.69,4.17c-1.14,5.28-1.2,5.7-1.2,7.23A3.9,3.9,0,0,0,480.24-.6a3.938,3.938,0,0,0,2.28.66,5.391,5.391,0,0,0,4.17-2.16,14.545,14.545,0,0,0,1.92-2.97,11.8,11.8,0,0,1-1.59-2.46,13.043,13.043,0,0,1-1.71,3.42,3.391,3.391,0,0,1-2.37,1.62c-1.08,0-1.65-.69-1.65-1.92a21.339,21.339,0,0,1,.63-4.11c1.29-5.79,1.35-6.09,1.35-7.38a3.449,3.449,0,0,0-3.69-3.63c-1.8,0-3.93.99-6.66,3.15a20.475,20.475,0,0,0-3.78,3.42l-.06-.03a17.713,17.713,0,0,0,.09-1.83c0-.09.03-.33.03-.69,0-.15.03-.36.03-.66a9.081,9.081,0,0,1,1.56-1.86l-.87-1.05a1.821,1.821,0,0,1-.54.15,38.42,38.42,0,0,1,.36-5.19l-2.76-.06c.03.57.06.9.06,1.29,0,.66-.03,2.04-.09,4.17-2.1.15-3.39.21-3.84.21a6.541,6.541,0,0,1-1.02-.06l.12,2.46a37.829,37.829,0,0,1,4.68-.42c-.06,1.71-.06,1.71-.09,2.58-.03,1.41-.06,2.34-.06,2.79-.63.66-2.31,2.37-3.45,3.48a11.457,11.457,0,0,1-1.86,1.59Zm34.05-16.5a14.944,14.944,0,0,1,1.59-.15c4.38-.18,7.77-.36,8.88-.54a.661.661,0,0,0,.24-.03l.03.06-.33.33-.24.24c-4.5,4.44-11.31,10.08-13.95,11.55l1.53,2.28a19.054,19.054,0,0,1,12.6-5.1c3.93,0,6.3,1.65,6.3,4.41a4.587,4.587,0,0,1-2.04,3.84,7.222,7.222,0,0,1-2.46,1.14,8.412,8.412,0,0,0-1.35-2.85,6.154,6.154,0,0,0-5.01-2.46c-2.64,0-4.59,1.59-4.59,3.72a4.093,4.093,0,0,0,.9,2.52C500.07.27,502.11.93,505.05.93c6.63,0,11.04-3.18,11.04-7.92,0-3.9-3.24-6.42-8.28-6.42a14.679,14.679,0,0,0-7.05,1.74l-.06-.12a72.056,72.056,0,0,0,9.69-8.19,5.418,5.418,0,0,1,1.53-1.26l-1.44-1.95a3.037,3.037,0,0,1-1.56.36c-2.67.21-6.63.39-9.15.39a15.878,15.878,0,0,1-3.03-.18Zm9.81,18.63a10.45,10.45,0,0,1-1.98.18c-2.61,0-4.26-.9-4.26-2.31,0-1.05.87-1.71,2.22-1.71C504.69-5.19,506.04-3.87,506.67-1.35Zm25.74-21.27a22.078,22.078,0,0,1,2.94.165,5.416,5.416,0,0,1,2.16.765,4.714,4.714,0,0,1,1.65,1.755,5.191,5.191,0,0,1,.6,2.535,5.6,5.6,0,0,1-.315,1.92,10.2,10.2,0,0,1-.855,1.77q-.33.51-.645,1.035t-.585.945a9.829,9.829,0,0,1,1.005.765,6.711,6.711,0,0,1,.885.945,5,5,0,0,1,.735,1.5,6.749,6.749,0,0,1,.285,2.04,6.023,6.023,0,0,1-2.04,4.89,6.16,6.16,0,0,1-2.4,1.2A14.171,14.171,0,0,1,532.2,0h-9.33V-22.62Zm-6.66,12.45v7.41h6.48a11.009,11.009,0,0,0,2.385-.21,3.979,3.979,0,0,0,1.515-.66,3.33,3.33,0,0,0,1.2-2.85,4.1,4.1,0,0,0-.345-1.755A3.227,3.227,0,0,0,535.86-9.51a3.349,3.349,0,0,0-1.29-.525,9.213,9.213,0,0,0-1.68-.135Zm9.21-2.76q.24-.42.48-.81l.48-.78a8.429,8.429,0,0,0,.66-1.3,3.64,3.64,0,0,0,.24-1.335,2.356,2.356,0,0,0-1.23-2.22,3.637,3.637,0,0,0-1.38-.39,18.879,18.879,0,0,0-1.98-.09h-6.48v6.93ZM549-22.62l6.51,14.7,6.51-14.7h3.99V0h-2.85V-18.69L556.89-4.5H554.1l-6.27-14.19V0h-2.85V-22.62Zm20.7,0h2.94l3.99,19.23,4.44-15.81h3.27l4.47,15.81,3.96-19.23h2.91L591.03,0h-3.99l-4.35-15.42L578.37,0h-3.99ZM610.98-1.98A5.884,5.884,0,0,1,612.27.45a19.836,19.836,0,0,0,5.01-1.56,11.07,11.07,0,0,0,6.57-10.38c0-6.33-4.53-10.53-11.34-10.53a12.819,12.819,0,0,0-9.87,4.05,12.487,12.487,0,0,0-3.21,8.4c0,4.38,2.22,7.59,5.25,7.59,2.25,0,4.05-1.8,5.76-5.73a43.606,43.606,0,0,0,3-12,7.918,7.918,0,0,1,3.36.81,7.747,7.747,0,0,1,4.44,7.29A8.811,8.811,0,0,1,616.5-3.6,16.405,16.405,0,0,1,610.98-1.98Zm-.12-17.67a40.967,40.967,0,0,1-2.67,10.8c-1.23,2.82-2.37,4.2-3.54,4.2-1.56,0-2.76-2.16-2.76-4.89a10.238,10.238,0,0,1,4.68-8.7A8.485,8.485,0,0,1,610.86-19.65Zm34.92,3.99v-4.8a37.132,37.132,0,0,0,8.49-2.16,11.266,11.266,0,0,1,1.08-.39l-1.83-2.04a9.086,9.086,0,0,1-2.7,1.26,27.914,27.914,0,0,1-7.23,1.38h-.24a31.374,31.374,0,0,1,.18,4.05c0,7.17-.3,11.13-.99,13.77A14.447,14.447,0,0,1,639.81.93a9.208,9.208,0,0,1,2.04,1.47c2.7-3.72,3.84-8.31,3.9-15.96h4.26V-.75a20.6,20.6,0,0,1-.18,3.15h2.64a16.357,16.357,0,0,1-.18-3.15V-13.56h.99a15.207,15.207,0,0,1,2.61.15v-2.43a15.678,15.678,0,0,1-2.76.18Zm-11.31,2.43c.03.33.06.48.06.72v2.28h-3.48a11.97,11.97,0,0,1-2.61-.18V-8.1a14.444,14.444,0,0,1,2.55-.15h2.73a13.384,13.384,0,0,1-2.04,2.91,17.715,17.715,0,0,1-3.78,3.18,7.718,7.718,0,0,1,1.23,2.07,17.325,17.325,0,0,0,5.52-6.36c-.09,1.02-.12,1.68-.12,2.37v3.9a15.5,15.5,0,0,1-.18,2.52h2.46a16.429,16.429,0,0,1-.15-2.55V-4.17c0-.75-.03-1.14-.12-2.55a14.025,14.025,0,0,0,3.51,3.87,9.886,9.886,0,0,1,1.17-1.95,12.568,12.568,0,0,1-3.9-3.45h2.34a14.276,14.276,0,0,1,2.52.15v-2.31a12.384,12.384,0,0,1-2.52.18h-3v-2.28a7.112,7.112,0,0,1,.03-.72h3.09a15.738,15.738,0,0,1,2.55.15v-2.34a14.445,14.445,0,0,1-2.55.15h-1.5a28.219,28.219,0,0,0,1.98-4.14l-2.13-.66a16.248,16.248,0,0,1-1.92,4.8h-5.25a14.239,14.239,0,0,1-2.55-.15v2.34a14.653,14.653,0,0,1,2.55-.15Zm2.31-9.09v-.72a9.864,9.864,0,0,1,.15-2.1h-2.58a10.89,10.89,0,0,1,.15,2.13v.69h-2.79a14.7,14.7,0,0,1-2.7-.15v2.34a15.813,15.813,0,0,1,2.64-.15h7.68a16.482,16.482,0,0,1,2.64.15v-2.34a14.786,14.786,0,0,1-2.61.15Zm-2.55,6.21a17.981,17.981,0,0,0-1.59-3.93l-1.92.66a15.994,15.994,0,0,1,1.59,3.93Zm36.63-5.85h-8.43a17.877,17.877,0,0,1-3.15-.21v2.4a22.863,22.863,0,0,1,3.09-.18h8.49v2.37h-5.7a21.456,21.456,0,0,1-3.33-.15,28.367,28.367,0,0,1,.12,3.18v4.86a27.5,27.5,0,0,1-.12,3.12,23.07,23.07,0,0,1,3.45-.15h5.58v2.43h-8.67a16.584,16.584,0,0,1-3.15-.21v2.43a22.461,22.461,0,0,1,3.18-.18h8.64V-.99a20.586,20.586,0,0,1-.21,3.36h2.67a19.42,19.42,0,0,1-.21-3.36V-2.25h9.12a24.475,24.475,0,0,1,3.21.18V-4.5a16.126,16.126,0,0,1-3.18.21h-9.15V-6.72h6.09a22.848,22.848,0,0,1,3.42.15,26.19,26.19,0,0,1-.12-3.12v-4.92a26.516,26.516,0,0,1,.12-3.12,22.379,22.379,0,0,1-3.39.15h-6.12v-2.37h8.88a24.806,24.806,0,0,1,3.15.18v-2.4a16.53,16.53,0,0,1-3.18.21h-8.85v-.33a15.547,15.547,0,0,1,.21-2.79h-2.67a15.32,15.32,0,0,1,.21,2.79Zm0,6.3v2.55H664.2v-2.55Zm0,4.44v2.58H664.2v-2.58Zm2.25,2.58v-2.58h7.14v2.58Zm0-4.47v-2.55h7.14v2.55Zm16.86-.96a56.8,56.8,0,0,1,5.82-1.05,46.791,46.791,0,0,1-3.18,9.24,30.613,30.613,0,0,1-3.12,5.49l2.46,1.41,1.95-3.78a56.447,56.447,0,0,0,4.41-12.57,18.241,18.241,0,0,1,2.04-.12c2.67,0,3.51.96,3.51,4.02a22.9,22.9,0,0,1-1.23,8.22,1.8,1.8,0,0,1-1.65,1.32,11.611,11.611,0,0,1-4.41-1.32,8.819,8.819,0,0,1,.15,1.65c0,.36-.03.54-.06,1.05A11.964,11.964,0,0,0,701.19.57a3.317,3.317,0,0,0,3.06-1.38c1.29-1.71,2.1-5.73,2.1-10.5,0-2.55-.42-3.93-1.44-4.98-.96-.93-2.28-1.32-4.32-1.32-.66,0-1.11,0-1.83.06.15-.69.48-2.61.63-3.39a21.2,21.2,0,0,1,.54-2.79l-2.82-.33v.42a42.06,42.06,0,0,1-.84,6.3,61.743,61.743,0,0,1-6.6.72Zm17.49-4.2a25,25,0,0,1,6.03,11.1l2.34-1.29a27.407,27.407,0,0,0-6.24-10.92Zm5.13-6.84a21.986,21.986,0,0,1,3.09,4.65l1.74-.99a22.385,22.385,0,0,0-3.15-4.56Zm-3.48,1.62a20.94,20.94,0,0,1,3.12,4.74l1.77-.99a23.479,23.479,0,0,0-3.15-4.65ZM733.05-9.51a5.5,5.5,0,0,1,1.44,1.62,11.74,11.74,0,0,0,3.48-4.65,26.332,26.332,0,0,1,2.25,2.91l1.26-1.62a26.752,26.752,0,0,0-2.82-3.27,21.654,21.654,0,0,0,.69-4.95h2.31a29.244,29.244,0,0,0,.9,8.49c.6,2.01,1.47,3.12,2.49,3.12,1.17,0,1.77-1.29,2.31-4.98a4.817,4.817,0,0,1-1.59-1.05c-.18,2.52-.42,3.72-.69,3.72-.24,0-.57-.75-.84-2.07a39.84,39.84,0,0,1-.54-7.17,13.563,13.563,0,0,1,.12-2.04,15.583,15.583,0,0,1-2.37.12h-2.01c.03-1.05.03-1.05.06-2.01a8.06,8.06,0,0,1,.12-1.65h-2.34a15.307,15.307,0,0,1,.18,2.82c0,.24,0,.42-.03.84h-1.32a12.823,12.823,0,0,1-2.04-.12v2.07c.69-.06,1.26-.09,2.04-.09h1.26a23.039,23.039,0,0,1-.36,3.42c-.54-.48-.75-.69-1.68-1.47l-1.11,1.47c1.14.93,1.53,1.26,2.25,1.95a8.49,8.49,0,0,1-3.42,4.5v-1.44c-2.31.3-3.3.42-5.13.6v-1.8h1.95a17.972,17.972,0,0,1,1.86.09v-1.8a10.548,10.548,0,0,1-1.83.12h-1.98v-.18a12.421,12.421,0,0,1,.12-2.01h-2.22a11.628,11.628,0,0,1,.12,1.95v.24h-2.01a9.269,9.269,0,0,1-1.86-.12v1.83a11.383,11.383,0,0,1,1.86-.12h2.01v1.98c-1.77.12-3.9.24-4.98.24-.27,0-.48,0-.87-.03l.3,1.98c.57-.09,1.05-.15,1.47-.18,3.39-.21,7.26-.63,11.19-1.2Zm-7.17-13.47h-2.61a14.262,14.262,0,0,1-2.16-.12v1.83c.75-.06,1.29-.09,2.16-.09h2.61v1.71h-3.72a16.426,16.426,0,0,1-2.34-.12v1.89a20.927,20.927,0,0,1,2.31-.12h1.68a3.026,3.026,0,0,1-.99,1.38,8,8,0,0,1-3.39,1.44,4,4,0,0,1,.99,1.62,9.462,9.462,0,0,0,3.84-2.07A5.172,5.172,0,0,0,725.7-18h2.55v1.86c0,1.08.36,1.26,2.37,1.26,2.73,0,3.03-.18,3.21-1.98a5.049,5.049,0,0,1-1.56-.54c-.03,1.17-.06,1.2-1.26,1.2-.87,0-.99-.06-.99-.45V-18h1.41a15.757,15.757,0,0,1,2.22.09v-1.83a22.679,22.679,0,0,1-2.28.09h-3.45v-1.71h2.46c.93,0,1.47.03,2.19.09V-23.1a14.88,14.88,0,0,1-2.22.12h-2.43v-.21a9.613,9.613,0,0,1,.15-1.83h-2.34a13.255,13.255,0,0,1,.15,1.83ZM740.94-4.47a12.436,12.436,0,0,1-.66,3.9c-.21.45-.54.57-1.65.57a27.382,27.382,0,0,1-4.2-.36,4.984,4.984,0,0,1,.75,2.22c1.23.09,2.34.15,3.27.15,2.1,0,3-.24,3.54-.96.63-.84,1.02-2.67,1.26-6.03a13.1,13.1,0,0,1,.18-1.47,29.333,29.333,0,0,1-3.21.12h-7.2c.06-.36.09-.54.12-.81a7.563,7.563,0,0,1,.21-1.26l-2.49-.06a6.839,6.839,0,0,1,.06.81,7.408,7.408,0,0,1-.12,1.32h-6.03a24.968,24.968,0,0,1-3.06-.15v2.16a20.105,20.105,0,0,1,3.03-.15h5.34c-1.5,2.58-4.68,4.11-9.99,4.77a4.955,4.955,0,0,1,1.23,2.04A22.87,22.87,0,0,0,727.44.48a9.6,9.6,0,0,0,5.01-4.95Zm14.19-15.6a18.345,18.345,0,0,1,1.86-.12,72,72,0,0,0,9.09-.72c-.39.36-.48.45-1.11,1.02a58.084,58.084,0,0,1-9.33,7.23,37.2,37.2,0,0,1-5.25.6h-.33l.27,2.64a81.932,81.932,0,0,1,8.46-1.26c3.42-.42,4.29-.54,6.27-.87-3.9,1.65-5.94,4.02-5.94,6.84a4.693,4.693,0,0,0,1.95,3.84C762.54.3,765.33.96,768.63.99l2.22.03-.12-2.73a10.353,10.353,0,0,1-2.28.21,10.733,10.733,0,0,1-5.43-1.17,2.892,2.892,0,0,1-1.41-2.46,3.559,3.559,0,0,1,.93-2.37,9.818,9.818,0,0,1,3.63-2.73,20.019,20.019,0,0,1,8.31-1.62l.69.03-.21-2.52a6.219,6.219,0,0,1-.9.15c-.51.03-1.35.12-2.58.21l-4.92.45c-4.2.33-5.82.51-7.2.75a63.793,63.793,0,0,0,9.33-7.32,10.282,10.282,0,0,1,1.56-1.32l-1.47-1.86a5.989,5.989,0,0,1-1.8.39c-2.22.24-6.45.42-9.3.42a17.951,17.951,0,0,1-2.73-.15Zm14.73.24a21.527,21.527,0,0,1,2.91,4.5l1.68-.96a20.838,20.838,0,0,0-2.94-4.41Zm3.3-1.83a20.531,20.531,0,0,1,3.12,4.56l1.68-.96a22.447,22.447,0,0,0-3.15-4.5Zm11.1,1.86a16.011,16.011,0,0,1,2.25-.18,73.206,73.206,0,0,0,8.61-.57l.03.03c-.09.09-.39.39-.54.57-2.1,2.28-6.39,6.36-9.66,9.15a26.4,26.4,0,0,1-3.9,2.91l1.71,2.25a14.252,14.252,0,0,1,2.4-1.92,17.444,17.444,0,0,1,9.48-3.21c3.57,0,5.76,1.5,5.76,3.96,0,2.97-3.09,4.98-7.62,4.98a18,18,0,0,1-7.65-1.77,11.737,11.737,0,0,1,.27,2.25v.6A22.252,22.252,0,0,0,792.57.57a15.423,15.423,0,0,0,6.51-1.29,6.774,6.774,0,0,0,4.02-6.12c0-3.72-3.06-6.06-7.89-6.06a12.583,12.583,0,0,0-7.05,2.1l-.09-.09a40.422,40.422,0,0,0,5.34-4.53l3.36-3.33c.96-.93,1.47-1.41,1.5-1.47a5.009,5.009,0,0,1,.84-.66l-1.44-2.04a3.328,3.328,0,0,1-1.35.3c-1.95.21-5.85.39-8.4.39a18.553,18.553,0,0,1-3.78-.21Zm27.24-1.65c.06.57.06.69.09,1.8.15,7.5.57,11.19,1.59,14.19,1.02,3.03,2.7,4.83,4.53,4.83,2.28,0,3.69-2.07,5.22-7.53a10.346,10.346,0,0,1-2.1-2.01,21.84,21.84,0,0,1-1.56,5.22c-.42.96-.93,1.44-1.44,1.44-1.08,0-2.22-2.01-2.85-5.1a52.549,52.549,0,0,1-.72-9.03,24.977,24.977,0,0,1,.21-3.78Zm15.18,2.64a26.916,26.916,0,0,1,6.21,15.15l2.58-1.02c-.96-6.33-2.85-10.74-6.6-15.21ZM844.14-7.26a4.68,4.68,0,0,0-4.68,4.65,4.686,4.686,0,0,0,4.68,4.68,4.641,4.641,0,0,0,4.65-4.68A4.635,4.635,0,0,0,844.14-7.26Zm0,1.92a2.714,2.714,0,0,1,2.7,2.73,2.734,2.734,0,0,1-2.7,2.73,2.74,2.74,0,0,1-2.73-2.73A2.74,2.74,0,0,1,844.14-5.34ZM7.5,20.05H4.35a19.66,19.66,0,0,1-2.82-.18v2.37a16.836,16.836,0,0,1,2.7-.15h6.06A28.5,28.5,0,0,1,8.91,29.5C6.84,27.04,6,26.08,4.23,24.28l-1.62,1.5a54.8,54.8,0,0,1,5.34,5.97A21.8,21.8,0,0,1,1.23,39.7a6.2,6.2,0,0,1,1.71,1.83,25.331,25.331,0,0,0,6.45-7.86,48.407,48.407,0,0,1,3.63,5.67l1.77-1.77a67.981,67.981,0,0,0-4.32-6.12,29.457,29.457,0,0,0,2.13-9.36,19.678,19.678,0,0,1,2.61.12V19.87a18.647,18.647,0,0,1-2.79.18H9.75V18.13a21.005,21.005,0,0,1,.18-2.97H7.32a14.288,14.288,0,0,1,.18,2.97Zm15.36,3.84V38.95c0,.6-.24.72-1.56.72a28.017,28.017,0,0,1-3.84-.33,8.173,8.173,0,0,1,.72,2.37c1.2.09,2.07.12,3.15.12,3.18,0,3.81-.45,3.81-2.76V23.89h.63a16.307,16.307,0,0,1,2.61.15,1.243,1.243,0,0,1,.3.03V21.61a18.715,18.715,0,0,1-2.91.18h-.63V18.7a24.865,24.865,0,0,1,.18-3.33H22.65a18.149,18.149,0,0,1,.21,3.33v3.09H18.45a17.758,17.758,0,0,1-2.85-.15v2.43a18.246,18.246,0,0,1,2.82-.18Zm-8.19,3.39a26.731,26.731,0,0,1,4.29,6.99l2.01-1.32a34.358,34.358,0,0,0-4.38-6.78Zm38.91.33c1.26,0,2.37.03,3.12.09a18.467,18.467,0,0,1-.12-2.52V23.35a19.036,19.036,0,0,1,.12-2.52,29.451,29.451,0,0,1-3.3.12H48.15a26.8,26.8,0,0,0,2.07-2.04c.69-.78.69-.78,1.11-1.2l-1.23-1.2a17.776,17.776,0,0,1-2.79.15H41.94c.18-.21.33-.36.42-.45.18-.21.3-.36.36-.42a7.255,7.255,0,0,1,.66-.75l-2.52-.6a12.582,12.582,0,0,1-2.25,2.88,22.9,22.9,0,0,1-6.96,4.92,6.17,6.17,0,0,1,1.2,1.83,23.3,23.3,0,0,0,2.43-1.5v2.61a22.869,22.869,0,0,1-.09,2.52c.9-.06,1.86-.09,3.18-.09h4.68a31.461,31.461,0,0,1-10.53,3.15,6.761,6.761,0,0,1,1.14,1.89,32.576,32.576,0,0,0,9.12-2.94,7.512,7.512,0,0,1,1.08,1.38A33.168,33.168,0,0,1,32.7,35.02a5.684,5.684,0,0,1,1.14,1.89,37.7,37.7,0,0,0,10.89-4.29c.27.63.42,1.02.63,1.65a39.729,39.729,0,0,1-13.17,5.25,8.681,8.681,0,0,1,1.29,1.98,42.453,42.453,0,0,0,12.3-5.37,9.5,9.5,0,0,1,.09,1.23,3.7,3.7,0,0,1-.48,2.31c-.33.42-.75.54-1.92.54a16.593,16.593,0,0,1-2.76-.24,6.417,6.417,0,0,1,.69,2.31c.75.06,1.26.09,1.83.09a8.205,8.205,0,0,0,3.06-.42c1.17-.54,1.8-1.98,1.8-4.17a12.6,12.6,0,0,0-3.57-9,15.28,15.28,0,0,0,1.8-1.17h.66a23.268,23.268,0,0,0,5.46,9.72,17.91,17.91,0,0,0,5.37,3.87,7.939,7.939,0,0,1,1.53-2.22,13.444,13.444,0,0,1-4.68-2.88,23.047,23.047,0,0,1-2.58-2.73,26.95,26.95,0,0,0,3.27-2.25c1.14-.93,1.38-1.11,1.86-1.44l-1.95-1.53a14.842,14.842,0,0,1-4.32,3.54,17.358,17.358,0,0,1-1.74-4.08ZM37.53,20.95a28.643,28.643,0,0,0,2.76-2.49h7.65a19.194,19.194,0,0,1-2.46,2.49Zm-.03,4.83V22.81h7.08v2.97Zm9.24,0V22.81h7.62v2.97Zm25.95,2.91v6.39c0,3.9,1.32,4.83,6.78,4.83,1.92,0,3.54-.09,5.88-.27.57-.03.84-.06,1.11-.06h.42l-.06-2.76a12.117,12.117,0,0,1-2.64.48c-1.68.15-3.42.24-4.32.24a10.61,10.61,0,0,1-3.57-.42c-.81-.33-.99-.84-.99-2.85V28.69h8.79a30.225,30.225,0,0,1,3.66.15V26.17a20.237,20.237,0,0,1-3.72.21H75.3V20.41h6.87a28.989,28.989,0,0,1,3.69.15V17.89a19.858,19.858,0,0,1-3.72.21H68.7a19.657,19.657,0,0,1-3.75-.21v2.67a28.989,28.989,0,0,1,3.69-.15h4.05v5.97H66.93a21.187,21.187,0,0,1-3.75-.21v2.67a29.524,29.524,0,0,1,3.72-.15Zm41.7-1.41c1.59,0,2.76.06,3.69.15V24.76a23.6,23.6,0,0,1-3.72.21H97.08a24.886,24.886,0,0,1-3.72-.21v2.67a29.573,29.573,0,0,1,3.69-.15h7.77a16.448,16.448,0,0,1-1.23,6.03c-1.26,2.61-3.63,4.41-7.47,5.64a6.462,6.462,0,0,1,1.71,2.34,18.762,18.762,0,0,0,5.28-2.94,12.08,12.08,0,0,0,4.05-7.62,23.777,23.777,0,0,0,.42-3.45Zm-18-7.26a27.608,27.608,0,0,1,3.66-.15h8.55a29.869,29.869,0,0,1,3.69.15v-2.7a19.117,19.117,0,0,1-3.72.21h-8.49a18.947,18.947,0,0,1-3.69-.21Zm19.53-5.46a21.986,21.986,0,0,1,3.09,4.65l1.74-.99a22.386,22.386,0,0,0-3.15-4.56Zm-3.78,1.17a20.94,20.94,0,0,1,3.12,4.74l1.77-.99a23.478,23.478,0,0,0-3.15-4.65Zm15.24,1.26a14.981,14.981,0,0,1,.09,2.37c0,6.15-.39,9.99-1.32,12.63a14.421,14.421,0,0,1-4.95,6.87,7.267,7.267,0,0,1,2.16,2.01,18.657,18.657,0,0,0,5.16-7.56c1.11-3.03,1.35-5.22,1.59-13.53a15.585,15.585,0,0,1,.18-2.64Zm7.56-.24a12.756,12.756,0,0,1,.15,2.46v.66l-.18,16.98a7,7,0,0,1-.21,2.37l1.41,1.56a5.55,5.55,0,0,1,.72-.33c.3-.12.6-.24.96-.36a20.621,20.621,0,0,0,4.23-2.16,17.231,17.231,0,0,0,6.18-7.86A9.92,9.92,0,0,1,146.22,28a14.66,14.66,0,0,1-3.39,5.85,13.214,13.214,0,0,1-5.28,3.48l.15-17.43a17.306,17.306,0,0,1,.21-3.12Zm26.07,7.92a.227.227,0,0,1,.12-.03,1.378,1.378,0,0,1,.3.03,5.207,5.207,0,0,1,.54.03c.09,0,.42.03.9.06,1.08.09,2.19.12,3.39.12,1.11,0,1.86-.03,3.3-.09.15,4.86.21,6.75.3,7.41a8.438,8.438,0,0,0-3.12-.54c-3.42,0-5.85,1.86-5.85,4.47,0,2.73,2.22,4.44,5.79,4.44,2.58,0,4.53-.93,5.25-2.52a5.027,5.027,0,0,0,.36-2.07,4.645,4.645,0,0,0-.03-.63c.15.09.15.12.27.18a3.485,3.485,0,0,1,.33.21,17.952,17.952,0,0,1,3.12,2.13,8.349,8.349,0,0,1,.9.87l1.08-2.55a3.172,3.172,0,0,1-.78-.51,23.75,23.75,0,0,0-4.92-2.88c-.3-5.07-.3-5.43-.33-8.19a41.129,41.129,0,0,0,4.74-.78,4.275,4.275,0,0,1,.48-.09l-.12-2.4a22.1,22.1,0,0,1-5.1,1.08V20.74a33.029,33.029,0,0,1,.18-4.38h-2.67c.03.3.06.75.06,1.29.03,2.07.03,2.07.03,4.95-.99.03-1.68.06-2.85.06a24.122,24.122,0,0,1-5.64-.45Zm8.91,9.75v.87a3.356,3.356,0,0,1-.51,2.1,3.929,3.929,0,0,1-2.85.99c-1.95,0-3.27-.9-3.27-2.25,0-1.41,1.41-2.31,3.57-2.31A7.706,7.706,0,0,1,169.92,34.42Zm-13.83,1.62v-.72a4.69,4.69,0,0,0-.03-.75c-.03-1.38-.06-2.85-.06-3.54,0-4.92,1.05-11.43,2.34-14.34l-2.85-.39a9.019,9.019,0,0,1-.33,2.01,51.914,51.914,0,0,0-1.5,12.3,48,48,0,0,0,.84,9.12,5.312,5.312,0,0,1,.15,1.11l2.61-.21a3.39,3.39,0,0,1-.06-.66c0-1.83,1.29-5.91,2.7-8.7l-1.89-.84c-.09.27-.12.36-.27.72a31.257,31.257,0,0,0-1.56,4.92ZM204.6,18.46a6,6,0,0,1-2.28.24H188.04a20.816,20.816,0,0,1-3.72-.21v2.85a23.926,23.926,0,0,1,3.66-.18H202.8c-1.65,6.45-4.53,10.74-9.36,13.95a23.426,23.426,0,0,1-6.72,3.15,6.976,6.976,0,0,1,1.8,2.49A28.6,28.6,0,0,0,198,34.99c3.63-3.36,5.94-7.35,7.5-13.08a7.787,7.787,0,0,1,.66-1.98Zm21.87,9.3h4.38a21.261,21.261,0,0,1,2.82.12V25.39a14.741,14.741,0,0,1-2.85.21H219.93a18.4,18.4,0,0,1-2.85-.18v2.46a24.268,24.268,0,0,1,2.85-.12h4.08V37.9H218.1a15.1,15.1,0,0,1-2.85-.18v2.49a23.548,23.548,0,0,1,2.88-.12h14.52a18.177,18.177,0,0,1,2.88.15V37.75a17.5,17.5,0,0,1-2.88.15h-6.18Zm40.32-10.11a6.7,6.7,0,0,1-2.64.21H248.19a23.779,23.779,0,0,1-3.75-.21v2.73a30.168,30.168,0,0,1,3.69-.15h16.68a14.892,14.892,0,0,1-3.21,4.26,13.384,13.384,0,0,1-4.65,2.82,7.581,7.581,0,0,1,1.83,2.01,18.409,18.409,0,0,0,8.7-8.76,6.9,6.9,0,0,1,.75-1.26Zm-13.41,5.43a6.608,6.608,0,0,1,.12,1.65c0,5.82-1.11,8.73-4.26,11.28a14.218,14.218,0,0,1-5.4,2.67,7.266,7.266,0,0,1,1.65,2.43c3.66-1.44,5.88-2.97,7.71-5.25,2.04-2.61,2.85-5.52,2.97-10.59a11.424,11.424,0,0,1,.12-2.19Zm35.67,5.88a20.075,20.075,0,0,0,2.82,6.84,19.53,19.53,0,0,0,6.93,6.3,7.237,7.237,0,0,1,1.44-2.07,16.553,16.553,0,0,1-6.39-5.07c1.41-.96,2.58-1.83,3.66-2.67,1.14-.93,1.74-1.38,1.8-1.44l-1.74-1.62a22.471,22.471,0,0,1-4.83,4.02,16.228,16.228,0,0,1-1.59-4.29h3.9c1.05,0,1.86.03,2.76.09a24.861,24.861,0,0,1-.12-3.15V19.45c0-1.86.03-2.55.09-3.3a16.218,16.218,0,0,1-2.85.15h-8.01a23.169,23.169,0,0,1-2.91-.12c.09,1.02.12,1.92.12,3.12V39.16a29.353,29.353,0,0,1-3.84.63l.54,2.4a9.446,9.446,0,0,1,1.41-.42c4.47-1.05,6.3-1.53,9.54-2.52l-.09-2.13a55.669,55.669,0,0,1-5.37,1.53V28.96Zm-2.73-10.65h9.27v3.3h-9.27Zm0,5.25h9.27v3.48h-9.27ZM273.78,39.25a20.136,20.136,0,0,1-.18,2.97h2.55a23.13,23.13,0,0,1-.15-2.97V17.98h4.65a44.468,44.468,0,0,1-3.27,7.26,11.353,11.353,0,0,1,2.46,3.48,8.234,8.234,0,0,1,.66,3.15c0,1.17-.39,1.5-1.74,1.5a12.844,12.844,0,0,1-1.8-.15,6.212,6.212,0,0,1,.51,2.25h1.14a9.211,9.211,0,0,0,2.43-.27c1.11-.33,1.71-1.38,1.71-3a9.456,9.456,0,0,0-.27-2.34,10.6,10.6,0,0,0-2.7-4.83,57.722,57.722,0,0,0,2.61-5.46c.75-1.83.75-1.83.96-2.25l-1.23-1.5a7.185,7.185,0,0,1-1.98.15h-4.38a16.526,16.526,0,0,1-2.07-.09c.06.87.09,1.56.09,2.4Zm41.52-1.17a8.942,8.942,0,0,1-5.34-4.83c.33-1.14.75-2.64.81-3.06.27-1.17.27-1.17.39-1.62l-2.46-.48v.21a19.473,19.473,0,0,1-1.89,6.87,16.389,16.389,0,0,1-3.96,5.22,6.1,6.1,0,0,1,1.86,1.71,21.373,21.373,0,0,0,4.44-6.57c2.19,3.99,6.3,5.7,13.65,5.7,2.85,0,3.57,0,5.82-.09a9.027,9.027,0,0,1,.72-2.46c-2.64.21-4.71.3-6.96.3a32.373,32.373,0,0,1-4.86-.3V32.44h5.73a20.058,20.058,0,0,1,2.91.15V30.22a18.19,18.19,0,0,1-2.91.18h-5.73V25.78h4.86a19.743,19.743,0,0,1,3,.18v-2.4a20.018,20.018,0,0,1-3,.18H310.23a19.307,19.307,0,0,1-2.97-.18v2.4a19.579,19.579,0,0,1,2.97-.18h5.07Zm-.48-19.74h-8.07c-1.17,0-2.1-.03-3.09-.12a19.793,19.793,0,0,1,.12,2.07V22.3a12.1,12.1,0,0,1-.15,2.22H306V20.44h20.52v4.08h2.31a15.763,15.763,0,0,1-.12-2.19V20.29a14.524,14.524,0,0,1,.12-2.07c-1.02.09-1.92.12-3.09.12h-8.58V16.99a7.633,7.633,0,0,1,.18-1.89h-2.73a8.294,8.294,0,0,1,.21,1.89ZM358.8,38.23a75.743,75.743,0,0,0-9.96-8.82,38.809,38.809,0,0,0,4.83-8.34,5.2,5.2,0,0,1,.87-1.5l-1.47-1.5a5.642,5.642,0,0,1-2.13.27l-10.38.12h-.66a15.475,15.475,0,0,1-2.85-.18l.09,2.85a25.058,25.058,0,0,1,3.45-.24c9.84-.15,9.84-.15,10.2-.18a2.067,2.067,0,0,1-.09.24,2.426,2.426,0,0,0-.18.39,31.221,31.221,0,0,1-6.66,9.84,29.12,29.12,0,0,1-9.93,6.72,7.8,7.8,0,0,1,1.74,2.37,38.161,38.161,0,0,0,5.85-3.57,33.261,33.261,0,0,0,5.7-5.28,59.9,59.9,0,0,1,9.45,9.15Zm24.84-20.34a3.42,3.42,0,1,0,3.42,3.42A3.418,3.418,0,0,0,383.64,17.89Zm0,1.32a2.1,2.1,0,1,1-2.1,2.1A2.126,2.126,0,0,1,383.64,19.21ZM363.57,33.49l.9-1.14c1.83-2.13,3.96-4.77,5.4-6.63l1.11-1.44a1.184,1.184,0,0,1,.9-.48c.39,0,.72.18,1.2.72,6.63,7.05,8.19,8.61,11.43,11.43l2.79,2.46,1.38-3a18.156,18.156,0,0,1-2.61-1.92,100.692,100.692,0,0,1-10.11-9.75c-2.19-2.43-2.76-2.82-4.05-2.82-1.41,0-2.22.57-3.96,2.85-1.65,2.16-4.32,5.34-5.19,6.21a4.194,4.194,0,0,1-1.02.78Zm33.36-14.61a32.889,32.889,0,0,1,7.56,3.99l1.41-2.34a44.876,44.876,0,0,0-7.59-3.81Zm-2.37,7.2a34.549,34.549,0,0,1,7.8,4.2l1.35-2.4A46.7,46.7,0,0,0,396,23.92Zm1.2,14.4a6.952,6.952,0,0,1,1.2-.3c.6-.12,1.11-.24,1.62-.33a36.727,36.727,0,0,0,7.8-2.64c5.31-2.64,8.97-6.75,11.61-12.99a12.314,12.314,0,0,1-2.25-1.92,21.139,21.139,0,0,1-3.57,6.69,19.316,19.316,0,0,1-8.88,6.66,25.842,25.842,0,0,1-8.25,1.89Zm34.98-14.52-2.7.42a18.077,18.077,0,0,1-2.88.3l.48,2.49a15.594,15.594,0,0,1,2.79-.63l2.67-.45,2.01,10.86a15.514,15.514,0,0,1,.36,2.85l2.73-.48a12.8,12.8,0,0,1-.66-2.79L433.47,27.7l8.4-1.41a3.926,3.926,0,0,0,.87-.18,1.079,1.079,0,0,1-.15.27,12.323,12.323,0,0,1-5.28,5.58,6.39,6.39,0,0,1,1.95,1.53,15.734,15.734,0,0,0,5.85-7.23,6.378,6.378,0,0,1,.69-1.38l-1.47-1.32a7.623,7.623,0,0,1-1.77.42l-9.48,1.59-.45-2.37a14.483,14.483,0,0,1-.36-2.43l-2.58.42a9.732,9.732,0,0,1,.6,2.34Zm26.61-8.97a14.976,14.976,0,0,1,.09,2.37c0,6.15-.39,9.99-1.32,12.63a14.421,14.421,0,0,1-4.95,6.87,7.266,7.266,0,0,1,2.16,2.01,18.657,18.657,0,0,0,5.16-7.56c1.11-3.03,1.35-5.22,1.59-13.53a15.587,15.587,0,0,1,.18-2.64Zm7.56-.24a12.753,12.753,0,0,1,.15,2.46v.66l-.18,16.98a7,7,0,0,1-.21,2.37l1.41,1.56a5.55,5.55,0,0,1,.72-.33c.3-.12.6-.24.96-.36a20.62,20.62,0,0,0,4.23-2.16,17.231,17.231,0,0,0,6.18-7.86A9.919,9.919,0,0,1,476.19,28a14.66,14.66,0,0,1-3.39,5.85,13.214,13.214,0,0,1-5.28,3.48l.15-17.43a17.3,17.3,0,0,1,.21-3.12Zm20.07,2.07a21.012,21.012,0,0,1-3.72-.21v2.85a28.573,28.573,0,0,1,3.66-.18h14.82c-1.65,6.45-4.53,10.74-9.36,13.95a23.426,23.426,0,0,1-6.72,3.15,7.247,7.247,0,0,1,1.8,2.49,28.116,28.116,0,0,0,9.48-5.76c3.63-3.36,5.94-7.35,7.5-13.08l.18-.63a3.592,3.592,0,0,0,.99.15,3.42,3.42,0,1,0-3.42-3.42,4.924,4.924,0,0,0,.06.69Zm18.63-2.79a2.1,2.1,0,1,1-2.1,2.1A2.126,2.126,0,0,1,503.61,16.03Zm10.62,3.75a26.869,26.869,0,0,1,3.42-.15h9.81a25.741,25.741,0,0,1,3.42.15v-2.7a17.805,17.805,0,0,1-3.45.21h-9.75a16.751,16.751,0,0,1-3.45-.21Zm-2.58,7.02a29.148,29.148,0,0,1,3.78-.15h15.15c-1.38,3.63-2.67,5.7-4.89,7.65a19.5,19.5,0,0,1-8.7,4.38,7.609,7.609,0,0,1,1.59,2.46,27.038,27.038,0,0,0,7.35-3.63,20.308,20.308,0,0,0,7.23-10.05,7.33,7.33,0,0,1,.84-1.89l-1.29-1.5a6.552,6.552,0,0,1-2.37.24H515.46a21.939,21.939,0,0,1-3.81-.21Zm49.62-10.77a24.691,24.691,0,0,1-5.67,5.67,42.963,42.963,0,0,1-15.63,7.77,7.448,7.448,0,0,1,1.41,2.4,46.82,46.82,0,0,0,11.34-5.13v10.8a19.886,19.886,0,0,1-.18,3.51h3.06a24.773,24.773,0,0,1-.15-3.54V25.06a50.215,50.215,0,0,0,7.2-6.27,11.017,11.017,0,0,1,1.08-1.02Zm34.29,22.2a75.743,75.743,0,0,0-9.96-8.82,38.81,38.81,0,0,0,4.83-8.34,5.2,5.2,0,0,1,.87-1.5l-1.47-1.5a5.642,5.642,0,0,1-2.13.27l-10.38.12h-.66a15.475,15.475,0,0,1-2.85-.18l.09,2.85a25.058,25.058,0,0,1,3.45-.24c9.84-.15,9.84-.15,10.2-.18a2.067,2.067,0,0,1-.09.24,2.434,2.434,0,0,0-.18.39,31.22,31.22,0,0,1-6.66,9.84,29.121,29.121,0,0,1-9.93,6.72,7.8,7.8,0,0,1,1.74,2.37,38.164,38.164,0,0,0,5.85-3.57,33.259,33.259,0,0,0,5.7-5.28,59.9,59.9,0,0,1,9.45,9.15Zm5.64-15.6a84.266,84.266,0,0,1,9.87-.96,64.987,64.987,0,0,0,6.6-.66c-5.07,2.28-8.04,6.18-8.04,10.56a7.5,7.5,0,0,0,3.57,6.48,16.468,16.468,0,0,0,6.63,2.22,6.126,6.126,0,0,1,.96.18l.42-2.91a14.208,14.208,0,0,1-4.5-.78c-3-.99-4.53-2.79-4.53-5.43,0-2.82,1.71-5.58,4.77-7.65a14.454,14.454,0,0,1,7.65-2.55h.36l-.21-2.67a21.784,21.784,0,0,1-3.51.3c-4.95.21-13.17.69-17.37.99-.93.06-1.32.09-1.74.09l-1.08-.03Zm18.42,2.82a20.94,20.94,0,0,1,3.12,4.74l1.77-.99a23.476,23.476,0,0,0-3.15-4.65Zm3.48-1.62a21.986,21.986,0,0,1,3.09,4.65l1.74-.99a22.388,22.388,0,0,0-3.15-4.56Zm12.09-3.18c.39.03.48.03,1.02.09a53.523,53.523,0,0,0,6.33.39,29.079,29.079,0,0,0,4.47-.33l-.57.3c-.39.21-.45.24-.78.42-1.2.69-1.74,1.02-3.69,2.31l1.83,1.47a44.464,44.464,0,0,1,7.68-4.68l-.15-2.4a35.021,35.021,0,0,1-7.89.6,35.149,35.149,0,0,1-8.04-.72Zm17.88,15.27a29.281,29.281,0,0,1-9.06,1.17,21.212,21.212,0,0,1-5.43-.54c-1.62-.54-2.46-1.47-2.46-2.76,0-1.38.9-2.73,2.82-4.32l-1.83-1.38c-2.46,2.1-3.57,3.96-3.57,6,0,2.16,1.2,3.72,3.54,4.65a21.263,21.263,0,0,0,7.11.96,51.748,51.748,0,0,0,8.07-.69,9.172,9.172,0,0,1,1.08-.15Zm-.81-13.14a21.986,21.986,0,0,1,3.09,4.65l1.74-.99a22.385,22.385,0,0,0-3.15-4.56Zm-3.48,1.62a20.94,20.94,0,0,1,3.12,4.74l1.77-.99a23.481,23.481,0,0,0-3.15-4.65Zm34.89-.72a21.824,21.824,0,0,1,3.12.18V21.73a15.9,15.9,0,0,1-3,.18H672.36c.45-.6.45-.6,1.56-2.16l-2.31-.6a11.731,11.731,0,0,1-1.71,2.76h-5.7a18.011,18.011,0,0,1-2.97-.18v2.13a21.95,21.95,0,0,1,3.09-.18h4.14a24.726,24.726,0,0,1-2.82,2.73c3.57.48,4.53.63,6.6,1.05a34.407,34.407,0,0,1-10.92,1.56,5.633,5.633,0,0,1,.96,1.89c5.76-.36,9.57-1.17,12.93-2.73a62.766,62.766,0,0,1,9.06,3l1.41-1.74a72.56,72.56,0,0,0-8.28-2.52,11.893,11.893,0,0,0,3.24-3.24Zm-5.58,0a9.573,9.573,0,0,1-3.18,2.67c-2.13-.45-3.45-.72-5.49-1.02a21.569,21.569,0,0,0,1.53-1.65Zm-3.33,8.7v-.33a12.486,12.486,0,0,1,.12-1.98h-2.46a10.408,10.408,0,0,1,.15,1.98v.33h-8.46a25.142,25.142,0,0,1-3.27-.18v2.28a25.642,25.642,0,0,1,3.3-.18h6.63a16.645,16.645,0,0,1-3.75,2.7,30.366,30.366,0,0,1-7.08,2.88,7.067,7.067,0,0,1,1.44,2.07,38.623,38.623,0,0,0,5.37-2.43,24.522,24.522,0,0,0,5.88-4.35c-.06,1.71-.06,2.43-.06,2.97v1.29a16.464,16.464,0,0,1-.18,2.82h2.52a15.409,15.409,0,0,1-.15-2.82V38.11c0-.57-.06-1.65-.12-2.97a27.158,27.158,0,0,0,6.18,4.47,33.488,33.488,0,0,0,5.58,2.34,9.021,9.021,0,0,1,1.35-2.13,27,27,0,0,1-11.31-5.52h7.29a26.656,26.656,0,0,1,3.36.18V32.2a27.682,27.682,0,0,1-3.36.18ZM664.62,16.96c-1.29,0-2.1-.03-3.09-.12a11.969,11.969,0,0,1,.12,1.83v.72a9.7,9.7,0,0,1-.12,1.65h2.31V18.82h20.43v2.25h2.28a13.676,13.676,0,0,1-.09-1.71V18.7a10.927,10.927,0,0,1,.12-1.86,28.99,28.99,0,0,1-3.09.12h-8.61a12.091,12.091,0,0,1,.18-2.28h-2.67a10.325,10.325,0,0,1,.18,2.28Zm49.47,4.44V38.62c0,.72-.21.81-1.59.81a24.5,24.5,0,0,1-4.08-.36,8.217,8.217,0,0,1,.6,2.46c1.35.09,2.31.12,3.36.12,3.42,0,4.08-.42,4.08-2.52V21.85a23.334,23.334,0,0,1,.12-2.73,24.055,24.055,0,0,1-3.15.15h-8.07c.03-.57.03-.69.06-2.37a12.087,12.087,0,0,1,.24-2.19h-2.73a12.982,12.982,0,0,1,.18,2.61c0,.57-.03,1.11-.06,1.95h-7.77a24.412,24.412,0,0,1-3.12-.15,22.916,22.916,0,0,1,.12,2.76V38.71a22.163,22.163,0,0,1-.21,3.42h2.73a22.631,22.631,0,0,1-.15-3.39V21.4h8.22c-.42,3.51-1.32,5.79-3.06,7.83a16.2,16.2,0,0,1-4.86,3.72,8.066,8.066,0,0,1,1.59,1.89,17.222,17.222,0,0,0,6.06-5.55,13.289,13.289,0,0,0,1.65-3.48,20.477,20.477,0,0,0,7.95,8.67,8.506,8.506,0,0,1,1.56-2.1A19.247,19.247,0,0,1,708,27.82a17.509,17.509,0,0,1-3.03-5.07c.09-.54.12-.75.18-1.35Zm11.7,11.34a4.665,4.665,0,1,0,4.65,4.65A4.68,4.68,0,0,0,725.79,32.74Zm0,1.92a2.73,2.73,0,1,1-2.73,2.73A2.714,2.714,0,0,1,725.79,34.66ZM6.78,72.71H4.71a22.415,22.415,0,0,1-3.12-.18v2.52a23.339,23.339,0,0,1,3.12-.18H15.33v4.59a15.02,15.02,0,0,1-.18,2.94h2.73a14.814,14.814,0,0,1-.21-2.91V74.87h7.38a23.339,23.339,0,0,1,3.12.18V72.53a22.117,22.117,0,0,1-3.12.18H17.67V67.13h5.31a22.694,22.694,0,0,1,2.73.12V64.91a17.614,17.614,0,0,1-2.79.15H17.67V60.44h6.6a17.845,17.845,0,0,1,2.79.15V58.22a17.157,17.157,0,0,1-2.79.15H9.66c.15-.33.15-.33.39-.87.48-1.05.48-1.05.66-1.41.18-.39.24-.51.39-.84l-2.52-.63a12.675,12.675,0,0,1-.75,2.19,19.488,19.488,0,0,1-5.97,7.92,5.347,5.347,0,0,1,1.65,1.8,24.093,24.093,0,0,0,4.98-6.09h6.84v4.62H8.82c-.84,0-1.5-.03-2.13-.09a16.225,16.225,0,0,1,.09,1.77Zm2.31,0V67.13h6.24v5.58ZM55.05,61.4V78.62c0,.72-.21.81-1.59.81a24.5,24.5,0,0,1-4.08-.36,8.216,8.216,0,0,1,.6,2.46c1.35.09,2.31.12,3.36.12,3.42,0,4.08-.42,4.08-2.52V61.85a23.339,23.339,0,0,1,.12-2.73,24.054,24.054,0,0,1-3.15.15H46.32c.03-.57.03-.69.06-2.37a12.084,12.084,0,0,1,.24-2.19H43.89a12.983,12.983,0,0,1,.18,2.61c0,.57-.03,1.11-.06,1.95H36.24a24.412,24.412,0,0,1-3.12-.15,22.922,22.922,0,0,1,.12,2.76V78.71a22.158,22.158,0,0,1-.21,3.42h2.73a22.628,22.628,0,0,1-.15-3.39V61.4h8.22c-.42,3.51-1.32,5.79-3.06,7.83a16.2,16.2,0,0,1-4.86,3.72,8.067,8.067,0,0,1,1.59,1.89,17.222,17.222,0,0,0,6.06-5.55,13.29,13.29,0,0,0,1.65-3.48,20.478,20.478,0,0,0,7.95,8.67,8.506,8.506,0,0,1,1.56-2.1,19.247,19.247,0,0,1-5.76-4.56,17.509,17.509,0,0,1-3.03-5.07c.09-.54.12-.75.18-1.35Zm10.14,6.84v9.93q-1.89.18-2.7.18a3.469,3.469,0,0,1-.51-.03l.51,2.31c1.08-.24,1.41-.3,4.35-.72,2.31-.3,2.31-.3,6.21-1.02v.63a16.151,16.151,0,0,1-.18,2.85H75.3a14.342,14.342,0,0,1-.18-2.88V68.24H86.28a16.418,16.418,0,0,1,2.88.18V66.2a14.521,14.521,0,0,1-2.88.18H64.83a14.009,14.009,0,0,1-2.85-.18v2.22a15.706,15.706,0,0,1,2.82-.18Zm2.1,0h5.76v1.89H67.29Zm0,3.54h5.76v1.98H67.29Zm0,3.63h5.76v1.71c-2.73.48-3.12.51-5.76.81Zm19.05-5.43a13.56,13.56,0,0,1-2.28.12H78.63a18.126,18.126,0,0,1-2.55-.12v2.07a16.9,16.9,0,0,1,2.13-.12h6.54a16.268,16.268,0,0,1-2.88,4.02,12.258,12.258,0,0,1-2.58-3.93l-1.8.81a15.262,15.262,0,0,0,2.91,4.41A16.175,16.175,0,0,1,75.51,80a5.718,5.718,0,0,1,1.35,1.86,19.872,19.872,0,0,0,5.01-3.18,20.457,20.457,0,0,0,5.91,3.42,10.622,10.622,0,0,1,1.26-2.04,17.533,17.533,0,0,1-5.67-2.76A22.4,22.4,0,0,0,87,72.14a4.442,4.442,0,0,1,.51-.87Zm-.63-11.64a17.293,17.293,0,0,1,.12-2.43c-1.02.09-1.83.12-3.24.12H68.7c-1.38,0-2.19-.03-3.24-.12a18.13,18.13,0,0,1,.12,2.43v4.11a18.913,18.913,0,0,1-.12,2.46c1.11-.09,1.83-.12,3.18-.12H82.8c1.14,0,2.1.03,3.03.12a18.621,18.621,0,0,1-.12-2.46Zm-17.97-.57H83.55v1.8H67.74Zm0,3.48H83.55v1.86H67.74Zm39.93-6.48a17.564,17.564,0,0,1-3.45,4.86c-.63-.51-.87-.69-1.86-1.44l-1.47,1.65a41.359,41.359,0,0,1,5.82,4.77c-.63.63-.63.63-1.29,1.23-.15.15-.36.36-.66.63-2.7.09-2.7.09-3.21.09a18.263,18.263,0,0,1-2.07-.09l.36,2.34a7.431,7.431,0,0,1,1.23-.12c.93-.06.93-.06,3.99-.24.09,0,.15,0,.72-.03a15.174,15.174,0,0,1-6.99,6.33,7.423,7.423,0,0,1,1.53,1.77,19.953,19.953,0,0,0,3.96-3.03,19.55,19.55,0,0,0,3.21,3.39,25.161,25.161,0,0,1-8.88,3.21,6.2,6.2,0,0,1,1.23,2.07,25.86,25.86,0,0,0,9.42-3.93,16.943,16.943,0,0,0,2.82,1.56,27.331,27.331,0,0,0,6.57,2.25c.06-.18.12-.3.15-.39.18-.39.3-.66.33-.75a10.612,10.612,0,0,1,.63-1.14,26.341,26.341,0,0,1-8.61-2.91,24.869,24.869,0,0,0,4.41-4.5,7.093,7.093,0,0,1,.6-.84l-1.38-1.29a16.091,16.091,0,0,1-2.46.15h-5.37c.51-.78.72-1.14,1.26-2.13,3-.21,3-.21,8.04-.75.57.87.81,1.2,1.53,2.4l1.89-1.29a59.051,59.051,0,0,0-5.01-6.33l-1.74,1.14a24.229,24.229,0,0,1,2.1,2.4c-2.07.21-3.27.3-3.6.33-.54.06-1.77.12-3.69.21a66.086,66.086,0,0,0,6.27-6.6,13.593,13.593,0,0,1,1.17-1.38l-2.22-1.26c-.66,1.32-2.07,3.09-4.74,5.97-.81-.78-1.2-1.14-2.46-2.22a35.159,35.159,0,0,0,3.3-3.99,10.42,10.42,0,0,1,.78-1.05Zm5.19,17.4a15.9,15.9,0,0,1-3.57,3.51,16.228,16.228,0,0,1-3.51-3.51ZM98.31,54.65a9.6,9.6,0,0,1-1.53,2.37,18.233,18.233,0,0,1-4.62,3.9,5.468,5.468,0,0,1,1.32,1.83,24.092,24.092,0,0,0,6.15-5.94c.39-.51.39-.51.63-.81ZM95.52,78.77a24.814,24.814,0,0,1-.18,3.42h2.55a27.506,27.506,0,0,1-.15-3.54V66.32c.87-1.14,1.62-2.16,1.95-2.7.36-.6.57-.93.84-1.32l-1.98-1.26a13.554,13.554,0,0,1-1.77,3.03,21.61,21.61,0,0,1-5.16,5.16,7.475,7.475,0,0,1,1.2,2.07,15.877,15.877,0,0,0,2.76-2.73c-.03,1.68-.03,1.68-.03,1.89,0,.42-.03,1.11-.03,2.04Zm39.87-.75a5.884,5.884,0,0,1,1.29,2.43,19.836,19.836,0,0,0,5.01-1.56,11.07,11.07,0,0,0,6.57-10.38c0-6.33-4.53-10.53-11.34-10.53a12.819,12.819,0,0,0-9.87,4.05,12.487,12.487,0,0,0-3.21,8.4c0,4.38,2.22,7.59,5.25,7.59,2.25,0,4.05-1.8,5.76-5.73a43.606,43.606,0,0,0,3-12,7.918,7.918,0,0,1,3.36.81,7.747,7.747,0,0,1,4.44,7.29,8.811,8.811,0,0,1-4.74,8.01A16.4,16.4,0,0,1,135.39,78.02Zm-.12-17.67a40.964,40.964,0,0,1-2.67,10.8c-1.23,2.82-2.37,4.2-3.54,4.2-1.56,0-2.76-2.16-2.76-4.89a10.238,10.238,0,0,1,4.68-8.7A8.485,8.485,0,0,1,135.27,60.35Zm38.97-4.26a12.131,12.131,0,0,1-3.48,1.44,49.512,49.512,0,0,1-12.66,1.86c-.45,0-.9-.03-1.8-.06a7.065,7.065,0,0,1,.84,2.37,62.5,62.5,0,0,0,8.7-.78c0,2.34-.03,4.14-.09,5.28h-7.98a17.72,17.72,0,0,1-3.63-.21v2.67a26.579,26.579,0,0,1,3.6-.15h7.83a10.656,10.656,0,0,1-4.32,8.22,14.744,14.744,0,0,1-4.44,2.4,6.256,6.256,0,0,1,1.92,2.22,25.674,25.674,0,0,0,2.7-1.44,15.679,15.679,0,0,0,4.83-4.8,14.9,14.9,0,0,0,1.98-6.6h6.9a26.153,26.153,0,0,1,3.51.15V65.99a16.887,16.887,0,0,1-3.54.21h-6.72c.06-.96.06-1.5.09-5.7a47.413,47.413,0,0,0,6.51-1.8,7.207,7.207,0,0,1,1.02-.33Zm17.34,9.87-2.7.42a18.077,18.077,0,0,1-2.88.3l.48,2.49a15.593,15.593,0,0,1,2.79-.63l2.67-.45,2.01,10.86a15.515,15.515,0,0,1,.36,2.85l2.73-.48a12.8,12.8,0,0,1-.66-2.79L194.31,67.7l8.4-1.41a3.926,3.926,0,0,0,.87-.18,1.079,1.079,0,0,1-.15.27,12.323,12.323,0,0,1-5.28,5.58,6.39,6.39,0,0,1,1.95,1.53,15.734,15.734,0,0,0,5.85-7.23,6.377,6.377,0,0,1,.69-1.38l-1.47-1.32a7.624,7.624,0,0,1-1.77.42l-9.48,1.59-.45-2.37a14.484,14.484,0,0,1-.36-2.43l-2.58.42a9.731,9.731,0,0,1,.6,2.34Zm24.69-5.46a33.309,33.309,0,0,1,7.32,5.94l1.83-2.25a41.507,41.507,0,0,0-7.38-5.7Zm.45,19.59a16.211,16.211,0,0,1,1.86-.48,30.62,30.62,0,0,0,11.25-4.5c4.02-2.73,6.81-6.21,9.27-11.55a7.627,7.627,0,0,1-2.22-2.07c-2.46,6.45-6.42,10.8-12.15,13.35a27.342,27.342,0,0,1-8.79,2.25Zm51.57-1.86a75.745,75.745,0,0,0-9.96-8.82,38.81,38.81,0,0,0,4.83-8.34,5.2,5.2,0,0,1,.87-1.5l-1.47-1.5a5.642,5.642,0,0,1-2.13.27l-10.38.12h-.66a15.475,15.475,0,0,1-2.85-.18l.09,2.85a25.058,25.058,0,0,1,3.45-.24c9.84-.15,9.84-.15,10.2-.18a2.067,2.067,0,0,1-.09.24,2.428,2.428,0,0,0-.18.39,31.221,31.221,0,0,1-6.66,9.84,29.12,29.12,0,0,1-9.93,6.72,7.8,7.8,0,0,1,1.74,2.37,38.162,38.162,0,0,0,5.85-3.57,33.26,33.26,0,0,0,5.7-5.28,59.9,59.9,0,0,1,9.45,9.15Zm13.2-18.69a37.756,37.756,0,0,1-6.45-.36l-.06,2.46a2.844,2.844,0,0,1,.63-.06,5.167,5.167,0,0,1,.6.03c.63.03,3.6.09,4.2.09.12,0,.45-.03.54-.03-.18.33-.18.33-.27.48a29.865,29.865,0,0,1-6.57,8.28l1.98,1.98a10.735,10.735,0,0,1,2.4-2.55c2.37-2.04,4.68-3.15,6.51-3.15,1.35,0,2.04.66,2.22,2.13a23.627,23.627,0,0,0-4.41,2.4c-2.13,1.53-3.18,3.15-3.18,4.86a4,4,0,0,0,2.04,3.6,12.422,12.422,0,0,0,6.15,1.17,50.575,50.575,0,0,0,7.47-.57,7.136,7.136,0,0,1,1.23-.15l-.27-2.76a25.215,25.215,0,0,1-8.16,1.2c-4.23,0-5.94-.78-5.94-2.67,0-1.02.54-1.86,1.77-2.82a18.406,18.406,0,0,1,3.6-1.98v.93a37.742,37.742,0,0,1-.18,3.99l2.46-.03a8.244,8.244,0,0,1-.06-1.23V73.55c.03-.6.03-1.23.03-1.56,0-.66,0-.75-.03-1.74a46.172,46.172,0,0,1,7.95-2.55l-1.08-2.46a8.43,8.43,0,0,1-2.1.87c-1.47.51-2.7.96-5.04,1.86a3.722,3.722,0,0,0-4.05-3.27,7.742,7.742,0,0,0-4.14,1.23,6.8,6.8,0,0,0-1.02.75,4.109,4.109,0,0,0-.42.3.371.371,0,0,1-.06-.09l.06-.06c0-.03.12-.12.3-.24a8.448,8.448,0,0,0,.96-1.11,22.559,22.559,0,0,0,2.43-3.81c2.94-.09,6.78-.36,8.85-.63,1.74-.24,1.74-.24,2.31-.3l-.18-2.4a39.675,39.675,0,0,1-8.1,1.05c-1.68.09-1.68.09-1.89.12a19.6,19.6,0,0,0,.9-2.01,6.47,6.47,0,0,1,.72-1.53l-2.82-.42a13.04,13.04,0,0,1-1.35,3.99Zm37.8.51a28.544,28.544,0,0,1-6,1.23V58.67a18.6,18.6,0,0,1,.15-2.91h-2.7a21.033,21.033,0,0,1,.18,3.03v2.67c-1.98.09-1.98.09-2.67.09a15.3,15.3,0,0,1-3.24-.24v2.4a4.479,4.479,0,0,1,.57-.03c.12,0,.36,0,.69.03.51,0,1.35.03,1.77.03a13.858,13.858,0,0,0,1.68-.06c.96-.06.96-.06,1.2-.06v5.37a16.612,16.612,0,0,0-4.26,2.49c-1.62,1.38-2.43,2.76-2.43,4.11a3.874,3.874,0,0,0,1.47,3,8.3,8.3,0,0,0,5.13,1.98,2.175,2.175,0,0,0,2.31-1.5,8.1,8.1,0,0,0,.15-2.16V70.58a19.014,19.014,0,0,1,6.21-1.14c3.72,0,6.09,1.8,6.09,4.65a3.766,3.766,0,0,1-3.75,4.02,2.521,2.521,0,0,1-2.52-1.53,9.241,9.241,0,0,1-.36-2.79c0-.36.03-.6.06-1.17a8.012,8.012,0,0,1-2.37.96,11.319,11.319,0,0,0,.42,3.51,4.519,4.519,0,0,0,4.71,3.39,6.233,6.233,0,0,0,6.33-6.39,6.4,6.4,0,0,0-3.09-5.49,10.383,10.383,0,0,0-5.37-1.32,21.394,21.394,0,0,0-6.39,1.02V63.47a43.744,43.744,0,0,0,4.38-.69c1.08-.24,1.2-.24,1.77-.33ZM310.92,76.7c0,1.2-.12,1.44-.66,1.44a5.084,5.084,0,0,1-2.49-.81c-.81-.54-1.2-1.08-1.2-1.71,0-1.32,1.56-2.85,4.35-4.26Zm18.42-12.69a25.411,25.411,0,0,0-6.03-5.82l-1.92,1.38a24.626,24.626,0,0,1,6.06,6.03Zm13.02,9.51a6.561,6.561,0,0,1-2.88,4.74c-1.53,1.08-3.12,1.62-6.24,2.19a7.269,7.269,0,0,1,1.26,2.13c3.6-.81,5.82-1.83,7.62-3.57a8.725,8.725,0,0,0,2.7-5.49h3.39v6c0,1.95.84,2.31,5.37,2.31,5.76,0,6.12-.33,6.75-5.79a9.174,9.174,0,0,1-2.25-.96c-.3,4.62-.3,4.62-4.35,4.62-2.94,0-3.21-.09-3.21-.99V73.52h2.61c1.5,0,2.52.03,3.3.09a22.438,22.438,0,0,1-.15-3.15V60.08a38.977,38.977,0,0,1,.15-3.93,31.414,31.414,0,0,1-3.18.15H340.29a24.335,24.335,0,0,1-3.15-.15,36.861,36.861,0,0,1,.15,3.93V70.46a23.233,23.233,0,0,1-.15,3.15c.9-.06,1.71-.09,3.33-.09ZM339.51,58.4h14.55v2.91H339.51Zm0,4.92h14.55v3H339.51Zm0,5.01h14.55v3.18H339.51Zm32.22,2.55a5.57,5.57,0,0,1,.57-.33,37.2,37.2,0,0,0,4.32-2.58c-.69,3.87-1.74,5.49-5.04,7.8a6.3,6.3,0,0,1,1.74,1.71,11.817,11.817,0,0,0,4.71-6.27,29.136,29.136,0,0,0,1.05-8.88V58.22a19.465,19.465,0,0,1,.15-3.18h-2.46a21.682,21.682,0,0,1,.18,3.24v4.53c0,.21-.03.66-.06,1.35,0,.3-.03.78-.06,1.41a17.825,17.825,0,0,1-6.03,2.97Zm11.73-3.75a43.683,43.683,0,0,1,5.04,3.75l1.2-1.86a47.985,47.985,0,0,0-6.24-4.2V58.16a20.7,20.7,0,0,1,.18-3.12h-2.49a19.426,19.426,0,0,1,.15,3V74.78c0,.99.24,1.41.96,1.71a10.089,10.089,0,0,0,2.88.3c2.55,0,3.78-.24,4.38-.87.48-.51.78-1.62,1.02-3.66a6.023,6.023,0,0,1-2.04-.93,6.992,6.992,0,0,1-.42,2.67c-.27.6-.72.72-2.79.72a3.744,3.744,0,0,1-1.56-.21c-.21-.12-.27-.21-.27-.51Zm-19.23-9.99a30.305,30.305,0,0,1,4.8,5.49l1.8-1.65a38.1,38.1,0,0,0-4.92-5.34Zm-.6,12a11.806,11.806,0,0,1,2.16-.15h1.65v6.99a16.032,16.032,0,0,1-4.47,3.33l1.14,2.37c.54-.48.78-.69,1.53-1.26a23.05,23.05,0,0,0,2.88-2.58,7.071,7.071,0,0,0,2.55,2.46c1.92,1.05,3.6,1.29,8.85,1.29,3.12,0,7.5-.09,10.71-.21a10.084,10.084,0,0,1,.75-2.61,128.23,128.23,0,0,1-13.68.63c-3.42,0-5.07-.39-6.6-1.62a4.778,4.778,0,0,1-1.44-1.83V70.01a27.032,27.032,0,0,1,.12-3.18,16.591,16.591,0,0,1-2.28.12h-1.53a12.312,12.312,0,0,1-2.34-.15Zm7.23-10.8a29.413,29.413,0,0,1,3.15,5.88l1.77-1.29a36.275,36.275,0,0,0-3.12-5.79Zm15.03,5.76a33.354,33.354,0,0,0,3.87-5.94l-1.89-1.26a23.315,23.315,0,0,1-3.54,5.88Zm13.17-7.68a15.759,15.759,0,0,1,.09,1.68c0,.45,0,1.14-.03,2.01-.21,9.42-.24,10.35-.24,12.18a15.318,15.318,0,0,0,.42,3.96,6.306,6.306,0,0,0,2.22,3.21,8.883,8.883,0,0,0,5.01,1.29A10.8,10.8,0,0,0,415.05,77c1.35-1.56,2.22-3.39,3.39-7.05a9.506,9.506,0,0,1-2.55-1.71,16.8,16.8,0,0,1-1.47,4.8c-1.59,3.36-4.35,5.22-7.71,5.22-2.07,0-3.6-.63-4.38-1.77-.63-.99-.84-2.13-.84-4.86,0-2.01.18-9.27.3-11.46a24.126,24.126,0,0,1,.33-3.72Zm33.24-.93a32.8,32.8,0,0,1-.99,5.52c-.48.03-1.26.03-2.07.03a19.667,19.667,0,0,1-3.63-.24v2.46h1.05c.9.03,1.14.03,1.86.03,1.26,0,1.38,0,2.16-.03a41.017,41.017,0,0,1-5.91,12.27l2.43,1.41c.15-.27.33-.6.6-1.05,1.14-2.01,1.41-2.52,2.13-3.96a56.261,56.261,0,0,0,3.3-8.76,46.992,46.992,0,0,0,4.89-.6,8.975,8.975,0,0,1,1.02-.15l-.09-2.49a25.353,25.353,0,0,1-5.19.93c.36-1.41.54-2.07.75-3.09a14.268,14.268,0,0,1,.45-1.92Zm18.09,8.16a40.431,40.431,0,0,0-8.07-3.99l-1.29,2.04a33.311,33.311,0,0,1,8.13,4.11ZM450.42,77c-.18-.15-.18-.15-.45-.36a8.22,8.22,0,0,0-.84-.72,20.4,20.4,0,0,0-5.1-3,37.269,37.269,0,0,1-.33-4.41,8.706,8.706,0,0,1,.42-2.88l-2.46-.21a12.8,12.8,0,0,0-.3,2.79c0,.99.09,2.61.21,4.08a11.652,11.652,0,0,0-3.03-.39c-3.69,0-6.27,1.95-6.27,4.74a4.1,4.1,0,0,0,2.88,3.93,9.712,9.712,0,0,0,3.27.54,5.965,5.965,0,0,0,4.74-1.8,5.2,5.2,0,0,0,.99-3.09,4.139,4.139,0,0,0-.06-.78,17.333,17.333,0,0,1,5.07,3.96Zm-8.73-2.4a8.491,8.491,0,0,1,.09,1.2c0,2.07-1.14,3.06-3.51,3.06-2.25,0-3.6-.87-3.6-2.31,0-1.53,1.5-2.52,3.87-2.52A8.552,8.552,0,0,1,441.69,74.6Zm29.7-18.99c-1.11,1.71-4.68,5.04-8.88,8.28a17.105,17.105,0,0,0-2.58,2.07,3.092,3.092,0,0,0-.9,2.1c0,1.14.51,1.83,2.25,3.21a96.636,96.636,0,0,1,7.65,6.33,25.369,25.369,0,0,1,3.87,4.11l2.25-2.22c-.36-.3-.42-.36-.87-.78a89.837,89.837,0,0,0-9.57-8.07c-2.49-1.92-2.67-2.1-2.67-2.61,0-.36.24-.63,1.26-1.41a84.112,84.112,0,0,0,6.99-5.73,47.881,47.881,0,0,1,3.69-3.39Zm17.94,17.13a4.665,4.665,0,1,0,4.65,4.65A4.68,4.68,0,0,0,489.33,72.74Zm0,1.92a2.73,2.73,0,1,1-2.73,2.73A2.714,2.714,0,0,1,489.33,74.66Z" transform="translate(62.77 973)" fill="#fff"/>
      <g id="グループ_152" data-name="グループ 152" transform="translate(-0.06)">
        <path id="パス_718" data-name="パス 718" d="M5.64,0V-19.41L.06-17.67v-2.88l8.46-2.67V0Zm7.02-2.79q1.05-1.11,2.37-2.55T17.64-8.2q1.29-1.425,2.4-2.67t1.71-1.965a17.627,17.627,0,0,0,1.53-2.13,4.207,4.207,0,0,0,.57-2.19,4.683,4.683,0,0,0-.165-1.275,2.148,2.148,0,0,0-.675-1.035,3.134,3.134,0,0,0-1.41-.705,9.489,9.489,0,0,0-2.1-.195,11.214,11.214,0,0,0-1.545.12q-.855.12-1.71.3t-1.6.36q-.75.18-1.23.3v-2.85q.54-.15,1.29-.315t1.605-.315q.855-.15,1.74-.255a13.947,13.947,0,0,1,1.635-.105,11.347,11.347,0,0,1,3.33.42,5.538,5.538,0,0,1,2.31,1.38,4.571,4.571,0,0,1,1.125,1.83,6.876,6.876,0,0,1,.345,2.16,7.128,7.128,0,0,1-.825,3.465A19.815,19.815,0,0,1,23.7-10.65q-.96,1.14-1.965,2.28T19.77-6.21q-.96,1.02-1.8,1.905T16.47-2.76H27.63V0H12.66ZM51.48-7.56v6.21c0,.72-.21.87-1.23.87a26.821,26.821,0,0,1-4.2-.33,9.934,9.934,0,0,1,.6,2.43c1.5.09,2.43.12,3.3.12a5.721,5.721,0,0,0,2.97-.45c.63-.42.9-1.11.9-2.4V-20.67a27.361,27.361,0,0,1,.12-3.18,24.756,24.756,0,0,1-3.21.15H39.09a27.025,27.025,0,0,1-3.24-.15A47.608,47.608,0,0,1,36-18.87c0,6.96-.33,10.56-1.17,13.41A12.034,12.034,0,0,1,31.35.24,7.918,7.918,0,0,1,33.3,2.16a15.831,15.831,0,0,0,3.36-5.4A21.588,21.588,0,0,0,37.8-7.56ZM38.07-9.75c.18-2.34.27-3.72.27-4.95H51.48v4.95Zm.3-7.14v-4.62H51.48v4.62ZM60.45-2.79Q61.5-3.9,62.82-5.34T65.43-8.2q1.29-1.425,2.4-2.67t1.71-1.965a17.627,17.627,0,0,0,1.53-2.13,4.207,4.207,0,0,0,.57-2.19,4.683,4.683,0,0,0-.165-1.275A2.148,2.148,0,0,0,70.8-19.47a3.134,3.134,0,0,0-1.41-.705,9.489,9.489,0,0,0-2.1-.195,11.214,11.214,0,0,0-1.545.12q-.855.12-1.71.3t-1.605.36q-.75.18-1.23.3v-2.85q.54-.15,1.29-.315t1.6-.315q.855-.15,1.74-.255a13.947,13.947,0,0,1,1.635-.105,11.347,11.347,0,0,1,3.33.42,5.538,5.538,0,0,1,2.31,1.38,4.571,4.571,0,0,1,1.125,1.83,6.876,6.876,0,0,1,.345,2.16,7.128,7.128,0,0,1-.825,3.465A19.816,19.816,0,0,1,71.49-10.65q-.96,1.14-1.965,2.28T67.56-6.21Q66.6-5.19,65.76-4.3T64.26-2.76H75.42V0H60.45ZM82.17-1.41a25.818,25.818,0,0,1-.18,3.33H84.6V0h15V1.92h2.61a25.36,25.36,0,0,1-.18-3.36V-20.67a20.446,20.446,0,0,1,.15-2.85,22.437,22.437,0,0,1-3.15.15H85.29a25.47,25.47,0,0,1-3.27-.15,29.606,29.606,0,0,1,.15,3.03ZM84.6-21.15h15v7.98h-15Zm0,10.2h15v8.73h-15Z" transform="translate(64 922)" fill="#fff"/>
        <path id="パス_717" data-name="パス 717" d="M28.92,2.49a19.9,19.9,0,0,1-4.17-5.76,18.521,18.521,0,0,1-1.77-8.13,18.521,18.521,0,0,1,1.77-8.13,19.9,19.9,0,0,1,4.17-5.76H25.86a21.134,21.134,0,0,0-3.48,5.25,19.965,19.965,0,0,0-1.92,8.64,19.965,19.965,0,0,0,1.92,8.64,21.134,21.134,0,0,0,3.48,5.25ZM52.44-7.56v6.21c0,.72-.21.87-1.23.87a26.821,26.821,0,0,1-4.2-.33,9.933,9.933,0,0,1,.6,2.43c1.5.09,2.43.12,3.3.12a5.721,5.721,0,0,0,2.97-.45c.63-.42.9-1.11.9-2.4V-20.67a27.361,27.361,0,0,1,.12-3.18,24.756,24.756,0,0,1-3.21.15H40.05a27.025,27.025,0,0,1-3.24-.15,47.609,47.609,0,0,1,.15,4.98c0,6.96-.33,10.56-1.17,13.41A12.034,12.034,0,0,1,32.31.24a7.918,7.918,0,0,1,1.95,1.92,15.831,15.831,0,0,0,3.36-5.4,21.588,21.588,0,0,0,1.14-4.32ZM39.03-9.75c.18-2.34.27-3.72.27-4.95H52.44v4.95Zm.3-7.14v-4.62H52.44v4.62ZM64.71,2.49a21.809,21.809,0,0,0,3.45-5.25,19.87,19.87,0,0,0,1.92-8.64,19.87,19.87,0,0,0-1.92-8.64,21.809,21.809,0,0,0-3.45-5.25H61.62a19.9,19.9,0,0,1,4.17,5.76,18.337,18.337,0,0,1,1.77,8.13,18.337,18.337,0,0,1-1.77,8.13,19.9,19.9,0,0,1-4.17,5.76Z" transform="translate(156 922)" fill="#fff"/>
        <path id="パス_716" data-name="パス 716" d="M3.03-10.14a10.576,10.576,0,0,1,2.52-2.1,6.147,6.147,0,0,1,3.09-.78c1.83,0,3.03.51,5.4,2.28a14.944,14.944,0,0,0,4.17,2.43,9.466,9.466,0,0,0,2.85.48,8.1,8.1,0,0,0,3.96-1.02,12.268,12.268,0,0,0,3.45-3.09l-1.56-1.35a8,8,0,0,1-3.42,2.91,5.835,5.835,0,0,1-2.4.51c-1.71,0-3.24-.66-5.76-2.46a18.423,18.423,0,0,0-2.82-1.8A8.1,8.1,0,0,0,8.76-15c-2.7,0-4.56.93-7.23,3.54ZM44.31,0V-19.41l-5.58,1.74v-2.88l8.46-2.67V0Zm8.88-2.91q1.2.24,2.655.45a20.039,20.039,0,0,0,2.865.21A8.96,8.96,0,0,0,60.99-2.5a3.22,3.22,0,0,0,1.59-.945A3.937,3.937,0,0,0,63.435-4.9,6.048,6.048,0,0,0,63.69-6.75,5.008,5.008,0,0,0,63.405-8.5,3.144,3.144,0,0,0,62.43-9.84a3.917,3.917,0,0,0-1.9-.765A23.88,23.88,0,0,0,57-10.8H53.52V-22.62H65.94v2.76H56.37v6.3h2.19a13.543,13.543,0,0,1,3.48.375,6.2,6.2,0,0,1,2.25,1.065,5.635,5.635,0,0,1,1.725,2.31A7.827,7.827,0,0,1,66.6-6.78a7.474,7.474,0,0,1-1.71,5.16A5.947,5.947,0,0,1,62.355.015a11.187,11.187,0,0,1-3.525.5,22.487,22.487,0,0,1-3.045-.2Q54.36.12,53.19-.09Zm21.06,1.5a25.818,25.818,0,0,1-.18,3.33h2.61V0h15V1.92h2.61a25.36,25.36,0,0,1-.18-3.36V-20.67a20.446,20.446,0,0,1,.15-2.85,22.437,22.437,0,0,1-3.15.15H77.37a25.47,25.47,0,0,1-3.27-.15,29.606,29.606,0,0,1,.15,3.03Zm2.43-19.74h15v7.98h-15Zm0,10.2h15v8.73h-15Z" transform="translate(236 923)" fill="#fff"/>
        <path id="パス_715" data-name="パス 715" d="M28.92,2.49a19.9,19.9,0,0,1-4.17-5.76,18.521,18.521,0,0,1-1.77-8.13,18.521,18.521,0,0,1,1.77-8.13,19.9,19.9,0,0,1,4.17-5.76H25.86a21.134,21.134,0,0,0-3.48,5.25,19.965,19.965,0,0,0-1.92,8.64,19.965,19.965,0,0,0,1.92,8.64,21.134,21.134,0,0,0,3.48,5.25Zm6.42-3.9a25.819,25.819,0,0,1-.18,3.33h2.61V0h15V1.92h2.61a25.36,25.36,0,0,1-.18-3.36V-20.67a20.447,20.447,0,0,1,.15-2.85,22.437,22.437,0,0,1-3.15.15H38.46a25.47,25.47,0,0,1-3.27-.15,29.608,29.608,0,0,1,.15,3.03Zm2.43-19.74h15v7.98h-15Zm0,10.2h15v8.73h-15ZM64.71,2.49a21.809,21.809,0,0,0,3.45-5.25,19.87,19.87,0,0,0,1.92-8.64,19.87,19.87,0,0,0-1.92-8.64,21.809,21.809,0,0,0-3.45-5.25H61.62a19.9,19.9,0,0,1,4.17,5.76,18.337,18.337,0,0,1,1.77,8.13,18.337,18.337,0,0,1-1.77,8.13,19.9,19.9,0,0,1-4.17,5.76Z" transform="translate(321 922)" fill="#fff"/>
      </g>
    </g>
    <path id="パス_698" data-name="パス 698" d="M0,0H419V46H0Z" transform="translate(64 805)" fill="url(#linear-gradient)"/>
    <path id="パス_697" data-name="パス 697" d="M0,0H737V62H0Z" transform="translate(64 691)" fill="url(#linear-gradient)"/>
    <path id="パス_694" data-name="パス 694" d="M76.59-27.99a79.438,79.438,0,0,1,9.99.54V-38.16a54.353,54.353,0,0,1-7.56.54V-55.44a48.107,48.107,0,0,1,.36-7.2,62.219,62.219,0,0,1-8.37.36H57.24v-4.95a35.441,35.441,0,0,1,.63-8.37H46.89a41.442,41.442,0,0,1,.63,8.46v4.86H40.14c-3.78,0-6.75-.18-9.54-.45v10.17a89.01,89.01,0,0,1,9.54-.45h7.47c-.09,5.04-.27,10.26-.72,15.39H36.81a78.439,78.439,0,0,1-9.99-.54v10.71a77.031,77.031,0,0,1,10.08-.54h8.64C42.57-15.21,35.19-7.2,20.97-1.17a30.321,30.321,0,0,1,6.21,9.09C41.22.45,48.96-8.1,53.37-20.88,57.96-9.72,68.13.36,81.54,7.29,83.43,2.25,84.42.18,86.85-2.97,73.44-8.37,64.71-16.29,59.31-27.99ZM56.43-37.62c.45-4.68.63-8.19.72-15.39H69.57v15.39ZM6.3-67.77A68.856,68.856,0,0,1,22.05-54.9l6.3-8.1A75.972,75.972,0,0,0,12.6-74.97ZM2.97-45.36a87.74,87.74,0,0,1,16.2,12.33l5.76-8.37A88.535,88.535,0,0,0,8.73-52.74ZM16.74-27.81C12.06-14.22,8.46-6.93,3.42-.81l8.55,7.47c.27-.54,2.16-3.87,2.79-5.04a137.946,137.946,0,0,0,9.9-23.76Zm97.65-34.38a40.273,40.273,0,0,1,3.69,7.65h-5.13a67.581,67.581,0,0,1-7.2-.27c.09,2.07.18,3.78.18,6.48v20.7a71.714,71.714,0,0,1-.36,9c2.97-.18,4.68-.27,9.54-.27h3.78c0,1.8,0,2.43-.09,3.87H104.85a74.781,74.781,0,0,1-10.17-.54v9.18a85.7,85.7,0,0,1,10.17-.54h11.88c-1.8,2.61-4.05,4.14-8.01,5.4-2.7.81-3.78.99-10.8,1.8a36.546,36.546,0,0,1,5.67,8.19c6.93-1.44,10.35-2.61,14.22-4.86a19.867,19.867,0,0,0,8.73-10.53h18.09v6.3a49.027,49.027,0,0,1-.54,8.1h10.44a54.671,54.671,0,0,1-.54-8.1v-6.3h11.34a85.2,85.2,0,0,1,10.44.54v-9.18a73.828,73.828,0,0,1-10.44.54H153.99V-18.9h2.25c4.95,0,6.66.09,9.54.27a75.357,75.357,0,0,1-.36-9.54V-45c0-4.59.09-7.38.27-9.81-2.34.18-4.05.27-8.64.27l5.94-1.98a59.035,59.035,0,0,0-3.42-5.67h7.02a65.453,65.453,0,0,1,9.18.45v-9.09a58.633,58.633,0,0,1-9.18.54h-17.1l2.25-4.5-9.36-2.43c-1.35,4.77-3.96,9.36-8.1,14.22v-7.83a50.12,50.12,0,0,1-8.46.54H114.57c1.26-2.43,1.98-3.87,2.25-4.41l-9.45-2.25a26.031,26.031,0,0,1-4.32,8.55,45.706,45.706,0,0,1-9.54,10.26,40.379,40.379,0,0,1,6.39,7.38,62.1,62.1,0,0,0,9.81-11.43Zm12.33,0c2.61,0,4.86.09,6.66.18-1.08,1.17-1.53,1.53-2.88,2.79a24.316,24.316,0,0,1,6.12,4.68H120.33l6.39-1.89a48.659,48.659,0,0,0-3.33-5.76Zm12.06,7.65a58.2,58.2,0,0,0,6.03-7.65h5.49a44.274,44.274,0,0,1,4.23,7.65ZM128.07-15.03a27.222,27.222,0,0,0,.18-3.87h16.38v3.87ZM115.11-47.88h41.04v3.15H115.11Zm0,9.36h41.04v3.33H115.11Zm0,9.54h41.04v3.33H115.11ZM208.89,0h13.5V-27.45h30.42V-40.14H222.39V-55.17h33.84V-67.86H208.89Zm69.39,0V-67.86h-13.5V0Zm12.96,0h13.32V-45.36L331.65,0h14.58V-67.86H332.91V-22.5L305.82-67.86H291.24ZM352.8,0h14.4l4.41-12.33h29.07L405.18,0h14.67L395.1-67.86H377.46Zm33.21-54.27,10.35,29.25H375.75ZM473.31,0V-13.05H439.92V-67.86h-13.5V0Zm31.95-35.37c2.61,2.16,5.67,3.42,10.35,4.95l11.61,3.69c3.78,1.17,7.2,2.34,8.55,3.42s1.89,2.7,1.89,4.86a6,6,0,0,1-2.7,5.4c-1.98,1.35-4.86,1.89-10.08,1.89-7.47,0-17.46-1.98-24.66-3.42V-1.44c6.3,1.17,16.02,2.97,23.58,2.97,9.99,0,15.93-1.62,20.7-5.4,4.68-3.69,6.84-8.82,6.84-15.3,0-5.85-2.07-10.98-5.67-14.04-2.79-2.43-6.57-3.69-11.61-5.31l-11.7-3.69c-3.69-1.17-5.58-1.8-7.2-2.97-1.44-1.08-1.89-2.61-1.89-4.95a5.43,5.43,0,0,1,2.16-4.86c1.89-1.44,4.59-1.71,9.27-1.71,6.03,0,18.36,2.7,24.48,4.05V-65.61c-6.03-1.35-17.19-3.78-25.02-3.78-7.29,0-13.23.81-17.55,4.14-4.86,3.69-7.02,8.64-7.02,16.02C499.59-43.29,501.39-38.61,505.26-35.37ZM554.76,0h14.4l4.41-12.33h29.07L607.14,0h14.67L597.06-67.86H579.42Zm33.21-54.27,10.35,29.25H577.71ZM675.27,0V-13.05H641.88V-67.86h-13.5V0Zm7.83,0h49.59V-12.69H696.6V-28.17h32.58V-40.86H696.6V-55.17h34.56V-67.86H683.1ZM22.152,110V49.628l-22,6.942v7.488l14.508-4.524V110Zm10.062,0H71.136v-7.176H42.12c4.524-4.524,12.012-12.636,18.8-20.514,5.07-5.928,8.034-10.608,8.034-17.394A14.624,14.624,0,0,0,65.13,54.542c-3.276-3.354-7.8-4.68-14.664-4.68-5.3,0-12.636,1.638-16.3,2.574v7.41C37.44,58.988,45.24,57.038,50,57.038c4.368,0,7.254.546,9.126,2.34,1.716,1.638,2.184,3.588,2.184,6.006,0,4.212-2.184,7.176-5.46,11.232-4.134,5.07-16.458,18.408-23.634,26.13Zm51.012,0,22-58.812h-7.8L75.348,110Zm46.722,0V49.628l-22,6.942v7.488l14.508-4.524V110Zm14.04-.234a84.53,84.53,0,0,0,14.664,1.56c7.02,0,12.168-1.56,15.756-5.538,3.042-3.432,4.446-7.956,4.446-13.416,0-5.616-2.028-10.764-6.006-13.884-3.042-2.34-7.644-3.744-14.9-3.744h-5.694V58.364h24.882V51.188H144.846V81.92h9.048c7.956,0,11.7.624,14.118,2.5s3.276,4.6,3.276,8.034c0,3.666-.7,6.4-2.886,8.58-2.262,2.34-5.538,3.12-10.062,3.12a81.265,81.265,0,0,1-14.352-1.716Zm78.854,3.794c-2.84-3.56-3.96-5.32-5.08-7.96a27.058,27.058,0,0,1-2.12-10.96,26.246,26.246,0,0,1,2.08-10.6c1.12-2.64,2.28-4.44,5.08-7.96h-5.6a32.29,32.29,0,0,0-4.4,7.88,28.307,28.307,0,0,0-2.04,10.68,29.435,29.435,0,0,0,2.12,11.04,32.037,32.037,0,0,0,4.36,7.88Zm7.28-5.52a41.959,41.959,0,0,1-.24,4.84h4.76v-2.4h18.6v2.4h4.84a40.522,40.522,0,0,1-.24-4.84V82.2a36.141,36.141,0,0,1,.2-4.08,32.187,32.187,0,0,1-4.32.2h-19.36a35.312,35.312,0,0,1-4.44-.2c.12,1.32.2,2.72.2,4.28Zm4.52-25.48h18.6v9.28h-18.6Zm0,13.48h18.6v10.24h-18.6Zm36.16,17.52a33.415,33.415,0,0,0,4.36-7.88,30.041,30.041,0,0,0,2.08-11.04,28.307,28.307,0,0,0-2.04-10.68,31.927,31.927,0,0,0-4.36-7.88H265.2a32.683,32.683,0,0,1,5.12,7.96,25.967,25.967,0,0,1,2.04,10.6,26.925,26.925,0,0,1-2.12,10.96c-1.12,2.64-2.24,4.4-5.08,7.96Zm69.16-7.8c-.56-.32-.76-.48-1.44-.92a35.778,35.778,0,0,0-10.96-5.64c-.04-.96-.04-.96-.16-4.84,1.56-.08,2.16-.12,2.72-.16,3-.28,4.8-.48,5.4-.56.92-.12,1.92-.24,2.6-.28l-.12-4.4a29.6,29.6,0,0,1-4.96.88c-3.68.4-3.68.4-5.68.52-.04-2.48-.04-2.96-.08-3.96,3.52-.2,5.08-.32,8.6-.8a25.019,25.019,0,0,1,3.16-.36l-.2-4.44c-2.6.76-6.08,1.2-11.52,1.52a24.8,24.8,0,0,1,.28-4.88h-5.08a28.539,28.539,0,0,1,.2,5.04c-1,.04-2.36.08-3,.08a52.6,52.6,0,0,1-10.76-.84l-.04,4.44h.64c.12,0,.44,0,.88.04,2.68.2,7.84.4,9.8.4.6,0,1.24,0,2.52-.04.04,2.28.04,3.64.04,4-1.12.04-2.48.08-3.28.08a51.579,51.579,0,0,1-9.32-.68l-.08,4.32c.6,0,1,0,1.52.04,3.32.24,4.8.28,7.24.28.84,0,2.08-.04,4-.08.04,1.6.04,1.6.08,2.16v.88a7.706,7.706,0,0,1,.04.96,20.9,20.9,0,0,0-2.68-.16c-6.72,0-10.68,2.56-10.68,6.92,0,3.96,3.36,6.24,9.2,6.24,2.92,0,5.08-.56,6.6-1.72s2.24-2.88,2.24-5.4v-.44a17.8,17.8,0,0,1,2.16,1,26.99,26.99,0,0,1,7.4,5.48Zm-16.88-3.08v.96a5.071,5.071,0,0,1-.48,2.56c-.56.8-1.8,1.28-3.48,1.28-2.84,0-4.56-.92-4.56-2.4,0-1.72,1.96-2.76,5.2-2.76A14.039,14.039,0,0,1,323.082,102.68Zm24.16-15.36a50.2,50.2,0,0,1,6.64-.8c7.76-.56,10.24-.8,13.48-1.28a17.689,17.689,0,0,0-5.56,4.04,13.928,13.928,0,0,0-3.8,9.4,10.7,10.7,0,0,0,5.72,9.64c2.44,1.36,4.96,2.08,9.36,2.64.76.12.84.12,1.36.24l.72-5.44c-.4.04-.76.04-.8.04a24.274,24.274,0,0,1-5.96-1.04c-3.36-1-5.32-3.4-5.32-6.52,0-4.04,3-8.04,8.08-10.68a17.889,17.889,0,0,1,7.92-2.16,6.193,6.193,0,0,1,.84.04l-.28-5.08a21.551,21.551,0,0,1-4.12.32c-10.68.52-17.52.88-20.44,1.04-5.88.4-5.88.4-6.6.4-.2,0-.64,0-1.52-.04Zm24.48,3.84a27,27,0,0,1,4.2,5.96l2.8-1.48a25.923,25.923,0,0,0-4.2-5.88Zm11.76,1.88a23.133,23.133,0,0,0-4.16-5.64l-2.68,1.4a29.472,29.472,0,0,1,4.08,5.8Zm22.88,8.92a14.288,14.288,0,0,1-.08-1.68c0-.56,0-.56.08-2.88l.56-13.6c.08-1.72.24-3.8.36-4.88h-6.56c.16,1.12.28,3.12.36,4.88l.56,13.6c.12,2.4.12,2.4.12,2.84,0,.48-.04.88-.08,1.72Zm.56,8.76v-5.48h-5.8v5.48Z" transform="translate(63.844 730)" fill="#fff"/>
  </g>
</svg>
