<svg xmlns="http://www.w3.org/2000/svg" width="88" height="36" viewBox="0 0 88 36">
  <g id="btn02-sp" transform="translate(-537 6992)">
    <rect id="長方形_8" data-name="長方形 8" width="88" height="36" rx="12" transform="translate(537 -6992)" fill="#002e16"/>
    <path id="パス_655" data-name="パス 655" d="M7.452-2.1V1.08H8.724V-2.1h2.412l.5.1v-.768l-.5.1H8.724V-4.584h1.74l.5.1v-.768l-.5.1H8.724v-1.8h2.148l.5.1v-.768l-.5.1H9.192A10.368,10.368,0,0,0,10.4-9.324c.252-.048.372-.144.372-.276,0-.108-.084-.192-.252-.24L9.24-10.2a15.745,15.745,0,0,1-.66,2.508l-.06.156H5.4l-.492-.1v.768l.492-.1H7.452v1.8h-1.7l-.5-.1v.768l.5-.1h1.7v1.908H5.244l-.492-.1V-2l.492-.1ZM1.956.228H3.372v.48H4.44V-2.94H.888V.828H1.956Zm0-.576V-2.364H3.372V-.348ZM3.912-9.672H1.368l-.5-.1v.816l.5-.1H3.912l.5.1v-.816Zm.216,1.68H.864l-.5-.1v.816l.5-.1H4.128l.5.1v-.816Zm-.216,1.68H1.392l-.5-.1v.816l.5-.1h2.52l.5.1v-.816Zm0,1.68H1.392l-.5-.1v.816l.5-.1h2.52l.5.1v-.816Zm1.608-5.2a8.819,8.819,0,0,1,.9,2.112L7.632-8.34a5,5,0,0,0-1.68-1.716Zm9.144.036.072.84-.1,3.972c-.012.42-.012.732-.012,1.02,0,1.98.24,2.964.876,3.588a3.848,3.848,0,0,0,2.64.948,4.349,4.349,0,0,0,3.78-1.992,6.749,6.749,0,0,0,.84-2.436l-.54-.168a5.91,5.91,0,0,1-.972,1.908,3.909,3.909,0,0,1-3.06,1.476,2.188,2.188,0,0,1-1.68-.72A3.361,3.361,0,0,1,16-3.564c0-.408,0-.888.012-1.32l.108-4.188c.156-.144.216-.24.216-.348,0-.168-.144-.276-.384-.288Zm16.4.444a26.316,26.316,0,0,1-2.94,2.484c-1.884,1.4-2.112,1.62-2.112,1.956,0,.288.132.42,1.176,1.14a17.989,17.989,0,0,1,4.62,4.62L33.264-.06a19.382,19.382,0,0,0-5.712-4.572c-.372-.216-.492-.3-.492-.348s.108-.132.588-.408a34.441,34.441,0,0,0,4.944-3.348c.252-.024.36-.1.36-.264,0-.1-.072-.18-.24-.288L31.6-10.02ZM43.86-3.132a5.931,5.931,0,0,0-1.524-.2c-1.332,0-2.256.756-2.256,1.848a1.7,1.7,0,0,0,.492,1.224A3.167,3.167,0,0,0,42.756.5,2.4,2.4,0,0,0,44.9-.408a1.586,1.586,0,0,0,.252-.984v-.156A8.061,8.061,0,0,1,46.812-.264l.732-1.188a9.284,9.284,0,0,0-2.4-1.368L45.06-6.708c.8-.048,1.476-.108,2.2-.216l.024-1.008-.816.36a14.272,14.272,0,0,1-1.416.18l-.036-1.68c.156-.132.228-.24.228-.36a.253.253,0,0,0-.264-.228l-1.344-.084.108.732.036,1.692c-.492.012-.864.024-1.188.024-.384,0-.972-.024-1.74-.06l-.792-.228.084.924c.744.024,1.2.036,2.076.036.732,0,1.176-.012,1.572-.024Zm.036,1.38a1.3,1.3,0,0,1-.168.732,1.361,1.361,0,0,1-1.2.48,2.479,2.479,0,0,1-1.392-.4.708.708,0,0,1-.324-.612c0-.564.516-.9,1.38-.9a3.9,3.9,0,0,1,1.692.384A.8.8,0,0,1,43.9-1.9ZM39.036.276a27.151,27.151,0,0,1-.348-4.344,38.454,38.454,0,0,1,.348-4.812c.18-.132.252-.216.252-.324,0-.144-.144-.264-.348-.288l-1.26-.18.012.744a51.31,51.31,0,0,0-.3,5.2A28.621,28.621,0,0,0,37.68.492Z" transform="translate(546.5 -6969)" fill="#fff"/>
    <g id="btn_link" transform="translate(599.88 -6981.809)">
      <g id="パス_649" data-name="パス 649" transform="translate(-7.501 -7.5)" fill="none" stroke-miterlimit="10">
        <path d="M24.681,15.309c-.038,2.586-.536,4.727-1.983,6.006-1.407,1.315-3.763,1.768-6.607,1.8-2.844-.035-5.2-.488-6.607-1.8C8.037,20.036,7.539,17.895,7.5,15.309c.038-2.586.536-4.727,1.983-6.007,1.407-1.315,3.763-1.768,6.607-1.8,2.844.035,5.2.487,6.607,1.8C24.145,10.582,24.643,12.723,24.681,15.309Z" stroke="none"/>
        <path d="M 16.09097290039062 23.11813545227051 C 18.93534278869629 23.08354568481445 21.29092216491699 22.63062477111816 22.69813346862793 21.31555557250977 C 24.14470291137695 20.03627395629883 24.64291381835938 17.89485549926758 24.68094253540039 15.3090648651123 C 24.64291381835938 12.72327518463135 24.14470291137695 10.5818452835083 22.69813346862793 9.302535057067871 C 21.29092216491699 7.987484931945801 18.93532371520996 7.534584999084473 16.09097290039062 7.500004768371582 C 13.24660301208496 7.534564971923828 10.89103317260742 7.987484931945801 9.483802795410156 9.302555084228516 C 8.037252426147461 10.5818452835083 7.539062976837158 12.72329521179199 7.501002788543701 15.3090648651123 C 7.539062976837158 17.89484405517578 8.037252426147461 20.03628540039062 9.483802795410156 21.31557464599609 C 10.89103317260742 22.63062477111816 13.24662303924561 23.08353424072266 16.09097290039062 23.11813545227051 M 16.09097290039062 24.11820411682129 L 16.07881355285645 24.11806488037109 C 12.58876609802246 24.07560348510742 10.27876377105713 23.420166015625 8.811202049255371 22.05568313598633 C 7.282824039459229 20.69749641418457 6.548717975616455 18.55784225463867 6.501112937927246 15.32378482818604 L 6.500893115997314 15.3090648651123 L 6.501112937927246 15.29434490203857 C 6.548715114593506 12.06048488616943 7.282782077789307 9.920852661132812 8.810969352722168 8.562653541564941 C 10.27854824066162 7.19796085357666 12.58857250213623 6.542489051818848 16.07882308959961 6.500074863433838 L 16.09097290039062 6.499934673309326 L 16.1031322479248 6.500074863433838 C 19.59340286254883 6.542508602142334 21.90342903137207 7.197982311248779 23.37096786499023 8.56263542175293 C 24.89919471740723 9.92088508605957 25.63327026367188 12.06051445007324 25.68083381652832 15.29435443878174 L 25.68105316162109 15.3090648651123 L 25.68083381652832 15.32377529144287 C 25.63327026367188 18.55762481689453 24.89917373657227 20.69726371765137 23.37093734741211 22.05547332763672 C 21.90339851379395 23.42015647888184 19.59340286254883 24.07562065124512 16.1031322479248 24.11806488037109 L 16.09097290039062 24.11820411682129 Z" stroke="none" fill="#fff"/>
      </g>
      <g id="arrow" transform="translate(4.32 7.809) rotate(-45)">
        <line id="線_1" data-name="線 1" x1="5.849" transform="translate(0 2.925)" fill="none" stroke="#fff" stroke-miterlimit="10" stroke-width="1"/>
        <path id="パス_650" data-name="パス 650" d="M0,0,2.925,2.925,0,5.849" transform="translate(2.925 0)" fill="none" stroke="#fff" stroke-miterlimit="10" stroke-width="1"/>
      </g>
    </g>
  </g>
</svg>
