<svg xmlns="http://www.w3.org/2000/svg" xmlns:xlink="http://www.w3.org/1999/xlink" width="849.397" height="87.336" viewBox="0 0 849.397 87.336">
  <defs>
    <clipPath id="clip-path">
      <rect id="長方形_140" data-name="長方形 140" width="190.906" height="84.847" fill="none"/>
    </clipPath>
  </defs>
  <g id="グループ_314" data-name="グループ 314" transform="translate(0 -721.037)">
    <path id="パス_583" data-name="パス 583" d="M77.066-67.806V-3.938h8.516V0H59.29V-3.938h8.516v-56.2L44.92-.106h-4.9L39.917,0,16.126-60.621V-3.938h8.409V0H2.714V-3.938h8.729V-67.806H2.714v-4.045H21.129L44.494-12.082,67.273-71.851H85.582v4.045Zm47.292,21.928h-6.972v-3.3h15.168V-3.247h6.972v3.14L124.571.639l-.213-5.429A16,16,0,0,1,122.2-2.528a13.247,13.247,0,0,1-2.954,1.916A18.564,18.564,0,0,1,115.39.719a21.393,21.393,0,0,1-4.87.506,22.584,22.584,0,0,1-6.653-.931,13.29,13.29,0,0,1-5.216-2.954A13.839,13.839,0,0,1,95.219-7.9a21.575,21.575,0,0,1-1.251-7.8V-45.878H87.1v-3.3h15.168V-15.7a19.743,19.743,0,0,0,.852,6.28A11.523,11.523,0,0,0,105.331-5.4a7.668,7.668,0,0,0,3.114,2.156,10.511,10.511,0,0,0,3.619.639,16.937,16.937,0,0,0,3.885-.506A11.1,11.1,0,0,0,119.967-5a10.682,10.682,0,0,0,3.14-3.805,13.613,13.613,0,0,0,1.251-6.254Zm17.859,0v-3.193l15.168-.745.106,8.516a18.773,18.773,0,0,1,2.448-3.726,16.959,16.959,0,0,1,3.167-2.927,15.273,15.273,0,0,1,3.646-1.916,11.511,11.511,0,0,1,3.938-.692,12.287,12.287,0,0,1,3.459.452,15.872,15.872,0,0,1,2.608.985,9.934,9.934,0,0,1,2.235,1.384v2.289l-5.482,5.322a11.994,11.994,0,0,0-1.064-1.144,7.341,7.341,0,0,0-1.49-1.091,9.818,9.818,0,0,0-1.863-.8,7.028,7.028,0,0,0-2.129-.319,8.971,8.971,0,0,0-3.805.8,9.069,9.069,0,0,0-3.007,2.235,10.016,10.016,0,0,0-1.969,3.459,13.568,13.568,0,0,0-.692,4.417V-3.247h9.367V0H142.111V-3.247H149.3V-45.878Zm55.168,24.961A10.544,10.544,0,0,0,191.8-17a9.968,9.968,0,0,0-1.65,5.562,10.126,10.126,0,0,0,.532,3.273A8.2,8.2,0,0,0,192.25-5.4a7.453,7.453,0,0,0,2.528,1.889,8.136,8.136,0,0,0,3.459.692,10.928,10.928,0,0,0,5.509-1.41,22.094,22.094,0,0,0,5.189-4.391V-24.961ZM182.643-33.477a12.384,12.384,0,0,1,.692-7,14.093,14.093,0,0,1,3.912-5.3,18.047,18.047,0,0,1,6.014-3.326,22.157,22.157,0,0,1,7.052-1.144,25.309,25.309,0,0,1,6.413.8,14.232,14.232,0,0,1,5.429,2.714,13.179,13.179,0,0,1,3.752,5.083,19.935,19.935,0,0,1,1.384,7.957V-5.109a2.519,2.519,0,0,0,.319,1.357,1.956,1.956,0,0,0,.825.745,2.875,2.875,0,0,0,1.118.266,4.77,4.77,0,0,0,1.144-.08,5.392,5.392,0,0,0,.985-.373q.559-.266,1.144-.532.639-.319,1.331-.745l1.331,2.608a17.68,17.68,0,0,1-2.608,1.6A22.445,22.445,0,0,1,220.085.825a11.147,11.147,0,0,1-3.433.506,7.552,7.552,0,0,1-3.779-.825,8.449,8.449,0,0,1-2.289-1.836,7.964,7.964,0,0,1-1.437-2.714,13.893,13.893,0,0,1-2.768,2.209A19.867,19.867,0,0,1,202.948-.16,24.675,24.675,0,0,1,199.142.931a19.269,19.269,0,0,1-3.832.4,19.246,19.246,0,0,1-5.775-.825,13.641,13.641,0,0,1-4.5-2.315,10.441,10.441,0,0,1-2.9-3.619,10.544,10.544,0,0,1-1.038-4.684,11.546,11.546,0,0,1,2.608-7.717q2.608-3.087,8.409-5.056l16.818-5.695v-4.9a39.96,39.96,0,0,0-.373-5.775,11.972,11.972,0,0,0-1.331-4.2,6.368,6.368,0,0,0-2.661-2.555,9.5,9.5,0,0,0-4.364-.878q-5,0-7.105,2.635a9.012,9.012,0,0,0-1.623,6.892l.426,3.885Zm79.757-12.4h-6.972v-3.3H270.6V-3.247h6.972v3.14L262.613.639,262.4-4.79a16,16,0,0,1-2.156,2.262,13.248,13.248,0,0,1-2.954,1.916A18.564,18.564,0,0,1,253.432.719a21.393,21.393,0,0,1-4.87.506A22.584,22.584,0,0,1,241.91.293a13.29,13.29,0,0,1-5.216-2.954A13.839,13.839,0,0,1,233.261-7.9a21.576,21.576,0,0,1-1.251-7.8V-45.878h-6.866v-3.3h15.168V-15.7a19.744,19.744,0,0,0,.852,6.28A11.523,11.523,0,0,0,243.373-5.4a7.668,7.668,0,0,0,3.114,2.156,10.511,10.511,0,0,0,3.619.639,16.937,16.937,0,0,0,3.885-.506A11.1,11.1,0,0,0,258.01-5a10.682,10.682,0,0,0,3.14-3.805,13.613,13.613,0,0,0,1.251-6.254Zm50.485,9.367a15.3,15.3,0,0,0-.825-3.859,12.106,12.106,0,0,0-1.81-3.38,9.4,9.4,0,0,0-2.741-2.422,6.946,6.946,0,0,0-3.566-.931,11.337,11.337,0,0,0-6.067,1.543,12.4,12.4,0,0,0-4.1,4.151,18.88,18.88,0,0,0-2.315,6.041,35.4,35.4,0,0,0-.719,7.265,39.2,39.2,0,0,0,1.038,8.995,29.45,29.45,0,0,0,3.007,7.877,17.614,17.614,0,0,0,4.87,5.588,10.829,10.829,0,0,0,6.573,2.129,12.855,12.855,0,0,0,5.083-.985,13.316,13.316,0,0,0,4.1-2.714,15.519,15.519,0,0,0,2.98-4.045,17.52,17.52,0,0,0,1.677-4.976l3.353.106a20.244,20.244,0,0,1-2,6.706,19.577,19.577,0,0,1-4.072,5.509A18.842,18.842,0,0,1,311.475-.16a19.412,19.412,0,0,1-7.425,1.384A21.259,21.259,0,0,1,293.911-.985a19.234,19.234,0,0,1-6.679-5.775A23.4,23.4,0,0,1,283.56-14.8a36.744,36.744,0,0,1-1.118-8.941,37.987,37.987,0,0,1,1.171-9.181,26,26,0,0,1,3.859-8.6,20.968,20.968,0,0,1,7.079-6.36,21.663,21.663,0,0,1,10.778-2.475,19.926,19.926,0,0,1,6.493,1.038,17.438,17.438,0,0,1,5.322,2.874,15.146,15.146,0,0,1,3.726,4.364,13.5,13.5,0,0,1,1.7,5.562ZM325.21-72.17V-75.2l16.02-1.118V-44.6a8.433,8.433,0,0,1,1.783-1.969,14.881,14.881,0,0,1,2.954-1.889,19.25,19.25,0,0,1,4.045-1.437,21.319,21.319,0,0,1,5.056-.559,28.609,28.609,0,0,1,3.832.266,17.343,17.343,0,0,1,3.805.958,13.819,13.819,0,0,1,3.459,1.916,12.056,12.056,0,0,1,2.847,3.114,15.521,15.521,0,0,1,1.916,4.524,24.592,24.592,0,0,1,.692,6.2v30.23h6.866V0H356.238V-3.247h7.079v-30.23a21.247,21.247,0,0,0-.745-6.014,11.676,11.676,0,0,0-2.049-4.1,7.83,7.83,0,0,0-3.114-2.342,10.1,10.1,0,0,0-3.885-.745,15.762,15.762,0,0,0-3.992.559,11.844,11.844,0,0,0-3.992,1.916,10.538,10.538,0,0,0-3.087,3.672,12.259,12.259,0,0,0-1.224,5.775V-3.247H348.2V0H326.061V-3.247h6.972V-72.17Zm63.844,26.292h-7.93v-3.193l16.126-1.064V-3.247h8.835V0H380.218V-3.247h8.835Zm-2.5-19.533a6.568,6.568,0,0,1,.506-2.581,6.448,6.448,0,0,1,1.384-2.076,6.448,6.448,0,0,1,2.076-1.384,6.568,6.568,0,0,1,2.581-.506,6.568,6.568,0,0,1,2.581.506,6.448,6.448,0,0,1,2.076,1.384,6.448,6.448,0,0,1,1.384,2.076,6.568,6.568,0,0,1,.506,2.581,6.568,6.568,0,0,1-.506,2.581,6.448,6.448,0,0,1-1.384,2.076,6.448,6.448,0,0,1-2.076,1.384,6.567,6.567,0,0,1-2.581.506,6.567,6.567,0,0,1-2.581-.506,6.448,6.448,0,0,1-2.076-1.384,6.448,6.448,0,0,1-1.384-2.076A6.568,6.568,0,0,1,386.552-65.411Zm119.172-2.4V-3.938h8.516V0H487.947V-3.938h8.516v-56.2L473.577-.106h-4.9L468.574,0,444.784-60.621V-3.938h8.409V0H431.372V-3.938H440.1V-67.806h-8.729v-4.045h18.415l23.365,59.769,22.779-59.769h18.309v4.045Zm41.863-.106h-10.8V-3.938h11.23V0H516.4V-3.938h11.23V-67.912h-10.8v-3.938h30.763Zm67.037-3.938v4.045h-9.154V0h-5.056l-36.83-60.514V-3.938h9.261V0H550.171V-3.938H558.9V-67.806h-8.729v-4.045h17.776l32.679,53.542v-49.5h-8.782v-4.045Zm33.347,3.938h-10.8V-3.938H648.4V0H616.782V-3.938h11.23V-67.912h-10.8v-3.938h30.763Z" transform="translate(201 797.358)"/>
    <g id="グループ_313" data-name="グループ 313" transform="translate(0 723.526)">
      <g id="グループ_312" data-name="グループ 312" clip-path="url(#clip-path)">
        <path id="パス_581" data-name="パス 581" d="M83.39,33.491H81.864L76.542,48.345,71.221,33.491H66.272V52.4H69.7V38.788L74.57,52.4h3.945L83.39,38.788V52.4h3.424v-18.9H83.39Zm8.094,18.9h3.424v-18.9H91.484Zm20.244-3.623-7.219-15.281H99.373V52.4H102.8V37.114L110.016,52.4h5.136v-18.9h-3.424Zm8.634,3.623h3.424v-18.9h-3.424Zm70.545-32.3H130.983a42.429,42.429,0,0,0-72.151,0H0l6.13,6.252H55.639a42.084,42.084,0,0,0-2.153,6.881H12.878l6.131,6.252H52.587c-.067.973-.1,1.953-.1,2.943,0,1.328.064,2.641.184,3.938H25.756l6.13,6.252H53.719a42.1,42.1,0,0,0,2.343,6.881H38.635l6.13,6.252h14.7a42.427,42.427,0,0,0,70.877,0h15.8l6.13-6.252H133.752a42.107,42.107,0,0,0,2.343-6.881h22.923l6.131-6.252h-28c.119-1.3.183-2.61.183-3.938,0-.989-.036-1.97-.1-2.943H171.9l6.13-6.252h-41.7a42.08,42.08,0,0,0-2.153-6.881h50.6ZM131.029,46.361a36.332,36.332,0,0,1-72.243,0,36.744,36.744,0,0,1-.213-3.938q0-1.486.119-2.943a36.332,36.332,0,0,1,72.431,0q.117,1.456.119,2.943a36.74,36.74,0,0,1-.213,3.938" transform="translate(0 0.001)"/>
      </g>
    </g>
  </g>
</svg>
