<svg xmlns="http://www.w3.org/2000/svg" width="558" height="52" viewBox="0 0 558 52">
  <g id="intro" transform="translate(-521 -1160)">
    <g id="bg" transform="translate(521 1160)" fill="none">
      <path d="M3,0H558V49a3,3,0,0,1-3,3H3a3,3,0,0,1-3-3V3A3,3,0,0,1,3,0Z" stroke="none"/>
      <path d="M 3 1 C 1.897216796875 1 1 1.897212982177734 1 3 L 1 49 C 1 50.10278701782227 1.897216796875 51 3 51 L 555 51 C 556.102783203125 51 557 50.10278701782227 557 49 L 557 1 L 3 1 M 3 0 L 558 0 L 558 49 C 558 50.65685653686523 556.6568603515625 52 555 52 L 3 52 C 1.3431396484375 52 0 50.65685653686523 0 49 L 0 3 C 0 1.343143463134766 1.3431396484375 0 3 0 Z" stroke="none" fill="#fff"/>
    </g>
    <g id="text" transform="translate(-133.806 -117.149)">
      <g id="日程" transform="translate(300.356 -536.628)">
        <g id="グループ_360" data-name="グループ 360" transform="translate(-0.937)">
          <path id="パス_49" data-name="パス 49" d="M4.275-5.3V-.513c0,.627-.266.893-.874.893H.7v.8H4.218c1.216,0,1.748-.494,1.729-1.615v-14.82H-5.51v2.242c0,5.852-.114,7.6-.551,9.443A9.517,9.517,0,0,1-8.74,1.064l.361.456A8.28,8.28,0,0,0-4.1-5.3Zm0-.76h-8.3c.114-1.368.133-1.995.152-3.268v-.684H4.275Zm0-4.712H-3.857l.019-2.242V-14.5H4.275Z" transform="translate(831.406 1848.777)" fill="#fff"/>
          <g id="パス_48" data-name="パス 48" transform="translate(817.406 1827.777)" fill="none">
            <path d="M14,0A14,14,0,1,1,0,14,14,14,0,0,1,14,0Z" stroke="none"/>
            <path d="M 14 1 C 10.5275707244873 1 7.262990951538086 2.352239608764648 4.807609558105469 4.807609558105469 C 2.352239608764648 7.262990951538086 1 10.5275707244873 1 14 C 1 17.47241973876953 2.352239608764648 20.73701095581055 4.807609558105469 23.19239044189453 C 7.262990951538086 25.64776039123535 10.5275707244873 27 14 27 C 17.47241973876953 27 20.73701095581055 25.64776039123535 23.19239044189453 23.19239044189453 C 25.64776039123535 20.73701095581055 27 17.47241973876953 27 14 C 27 10.5275707244873 25.64776039123535 7.262990951538086 23.19239044189453 4.807609558105469 C 20.73701095581055 2.352239608764648 17.47241973876953 1 14 1 M 14 0 C 21.73197937011719 0 28 6.268009185791016 28 14 C 28 21.73197937011719 21.73197937011719 28 14 28 C 6.268009185791016 28 0 21.73197937011719 0 14 C 0 6.268009185791016 6.268009185791016 0 14 0 Z" stroke="none" fill="#fff"/>
          </g>
        </g>
        <path id="パス_47" data-name="パス 47" d="M-30.926-31.067A9.187,9.187,0,0,1-25.333-29.3a11.247,11.247,0,0,1,3.713,5.1,21.481,21.481,0,0,1,1.316,7.9A23.478,23.478,0,0,1-21.855-7.45a14.046,14.046,0,0,1-4.16,5.9A8.93,8.93,0,0,1-31.678.517,9.294,9.294,0,0,1-36.637-.917a10.18,10.18,0,0,1-3.643-3.831l1.5-.987a9.109,9.109,0,0,0,3.008,3.243A6.958,6.958,0,0,0-31.96-1.316q3.525,0,5.429-3.666a22.874,22.874,0,0,0,2.091-9.776,9.5,9.5,0,0,1-2.937,2.538,8.428,8.428,0,0,1-4.253,1.034,9.677,9.677,0,0,1-4.583-1.128,8.648,8.648,0,0,1-3.431-3.29,9.893,9.893,0,0,1-1.292-5.17A10.542,10.542,0,0,1-39.574-26.2a9.553,9.553,0,0,1,3.642-3.6A10.117,10.117,0,0,1-30.926-31.067Zm.235,18.142a5.442,5.442,0,0,0,3.972-1.6,8.4,8.4,0,0,0,2.233-3.807q-.329-5.5-2.139-8.366a5.558,5.558,0,0,0-4.912-2.867A4.393,4.393,0,0,0-35.6-27.4,11.1,11.1,0,0,0-36.9-21.667q0,4.371,1.763,6.556A5.474,5.474,0,0,0-30.691-12.925ZM-12.079.517a2.72,2.72,0,0,1-2-.823,2.72,2.72,0,0,1-.823-2,2.72,2.72,0,0,1,.823-2,2.72,2.72,0,0,1,2-.822,2.72,2.72,0,0,1,2,.822,2.72,2.72,0,0,1,.823,2,2.72,2.72,0,0,1-.823,2A2.72,2.72,0,0,1-12.079.517ZM11.7-1.692V0H-1.457V-1.692H3.384V-26.743l-4.653,3.008-.987-1.5L5.5-30.456H7.1V-1.692Zm19.129-18.1a9.843,9.843,0,0,1,4.582,1.1,8.707,8.707,0,0,1,3.478,3.314,9.96,9.96,0,0,1,1.339,5.264,10.5,10.5,0,0,1-1.551,5.828,10.018,10.018,0,0,1-3.924,3.6,10.769,10.769,0,0,1-4.911,1.2,10.8,10.8,0,0,1-5.5-1.41,10,10,0,0,1-3.807-3.854l1.5-.94a8.1,8.1,0,0,0,3.1,3.149,8.591,8.591,0,0,0,4.277,1.081,6.094,6.094,0,0,0,3.313-.964A6.905,6.905,0,0,0,35.2-5.264a9.879,9.879,0,0,0,.94-4.465,9.437,9.437,0,0,0-.94-4.394A6.329,6.329,0,0,0,32.736-16.8a6.585,6.585,0,0,0-3.313-.869,5.382,5.382,0,0,0-2.82.7,8.784,8.784,0,0,0-2.115,1.786H22.654l1.128-15.275H38.728v3.76H25.239l-.658,9.118a8.291,8.291,0,0,1,2.7-1.6A9.987,9.987,0,0,1,30.832-19.787Z" transform="translate(770.237 1854.777)" fill="#fff"/>
        <path id="パス_46" data-name="パス 46" d="M-7.562-5.51A3.857,3.857,0,0,1-4.218-7.828,5.989,5.989,0,0,1-1.8-7.106l3.61,1.6a5.769,5.769,0,0,0,2.242.494c1.634,0,3.154-1.273,4.161-3.5l-.646-.38c-1.007,1.539-1.957,2.223-3.1,2.223A4.308,4.308,0,0,1,2.7-7.144l-4.18-1.8a5.865,5.865,0,0,0-2.242-.475A4.09,4.09,0,0,0-6.973-7.809,9.342,9.342,0,0,0-8.208-5.89Z" transform="translate(715.092 1849.777)" fill="#fff"/>
        <g id="グループ_359" data-name="グループ 359" transform="translate(-1.522)">
          <path id="パス_45" data-name="パス 45" d="M.418-15.067c.323-.1.475-.228.475-.418,0-.171-.133-.266-.38-.3l-1.558-.171a19.046,19.046,0,0,1-3.04,3.781A23.162,23.162,0,0,1-8.74-8.55l.266.475a18.506,18.506,0,0,0,8.512-6.46,17.093,17.093,0,0,0,7.885,6.08,7.3,7.3,0,0,1,.817-1.691A19.215,19.215,0,0,1,.418-15.067ZM-.931-.133H-7.315l-.741-.152V.779l.741-.152H7.315l.741.152V-.285l-.741.152H.646V-5.472H6.555l.76.152V-6.384l-.76.152H.646V-9.1H3.8l.76.152v-1.064l-.76.152H-3.876l-.741-.152v1.064l.741-.152H-.931v2.869H-6.555l-.76-.152V-5.32l.76-.152H-.931Zm-2-1.672A10.023,10.023,0,0,0-5.472-4.6l-.456.228A18.677,18.677,0,0,1-4.579-.779ZM3.306-.665A11.757,11.757,0,0,0,5.529-3.5c.4-.076.589-.209.589-.418,0-.133-.152-.247-.38-.323l-1.6-.532A23.74,23.74,0,0,1,2.869-.931Z" transform="translate(688.406 1848.777)" fill="#fff"/>
          <g id="パス_44" data-name="パス 44" transform="translate(674.406 1827.777)" fill="none">
            <path d="M14,0A14,14,0,1,1,0,14,14,14,0,0,1,14,0Z" stroke="none"/>
            <path d="M 14 1 C 10.5275707244873 1 7.262990951538086 2.352239608764648 4.807609558105469 4.807609558105469 C 2.352239608764648 7.262990951538086 1 10.5275707244873 1 14 C 1 17.47241973876953 2.352239608764648 20.73701095581055 4.807609558105469 23.19239044189453 C 7.262990951538086 25.64776039123535 10.5275707244873 27 14 27 C 17.47241973876953 27 20.73701095581055 25.64776039123535 23.19239044189453 23.19239044189453 C 25.64776039123535 20.73701095581055 27 17.47241973876953 27 14 C 27 10.5275707244873 25.64776039123535 7.262990951538086 23.19239044189453 4.807609558105469 C 20.73701095581055 2.352239608764648 17.47241973876953 1 14 1 M 14 0 C 21.73197937011719 0 28 6.268009185791016 28 14 C 28 21.73197937011719 21.73197937011719 28 14 28 C 6.268009185791016 28 0 21.73197937011719 0 14 C 0 6.268009185791016 6.268009185791016 0 14 0 Z" stroke="none" fill="#fff"/>
          </g>
        </g>
        <path id="パス_43" data-name="パス 43" d="M-26.772-15.916a8.8,8.8,0,0,1,4.347,2.76A7.547,7.547,0,0,1-20.746-8.1a7.688,7.688,0,0,1-1.472,4.761,8.754,8.754,0,0,1-3.841,2.9A13.371,13.371,0,0,1-31.05.506,12.868,12.868,0,0,1-36.041-.46a8.874,8.874,0,0,1-3.772-2.9A7.671,7.671,0,0,1-41.262-8.1a7.547,7.547,0,0,1,1.679-5.06,8.8,8.8,0,0,1,4.347-2.76,7.711,7.711,0,0,1-3.45-2.438A6.806,6.806,0,0,1-40.2-22.908a6.564,6.564,0,0,1,1.288-4.117,7.926,7.926,0,0,1,3.381-2.53A11.915,11.915,0,0,1-31-30.406a12.08,12.08,0,0,1,4.485.828,7.846,7.846,0,0,1,3.4,2.53,6.582,6.582,0,0,1,1.311,4.14,6.806,6.806,0,0,1-1.518,4.554A7.711,7.711,0,0,1-26.772-15.916ZM-31-28.888a5.05,5.05,0,0,0-3.887,1.679,6.374,6.374,0,0,0-1.541,4.485,6.374,6.374,0,0,0,1.541,4.485A5.05,5.05,0,0,0-31-16.56a5.031,5.031,0,0,0,3.91-1.679,6.434,6.434,0,0,0,1.518-4.485,6.374,6.374,0,0,0-1.541-4.485A5.05,5.05,0,0,0-31-28.888ZM-31-.966a5.849,5.849,0,0,0,4.462-1.863A7.335,7.335,0,0,0-24.794-8.05a7.6,7.6,0,0,0-1.61-5.106A5.716,5.716,0,0,0-31-15.042a5.716,5.716,0,0,0-4.6,1.886,7.6,7.6,0,0,0-1.61,5.106,7.335,7.335,0,0,0,1.748,5.221A5.849,5.849,0,0,0-31-.966ZM-12.742.506A2.662,2.662,0,0,1-14.7-.3,2.662,2.662,0,0,1-15.5-2.254,2.662,2.662,0,0,1-14.7-4.209a2.662,2.662,0,0,1,1.955-.8,2.662,2.662,0,0,1,1.955.8,2.662,2.662,0,0,1,.805,1.955A2.662,2.662,0,0,1-10.787-.3,2.662,2.662,0,0,1-12.742.506ZM14.766-3.588V0H-3.312V-1.61Q2.53-7.958,5.221-11.2a29.156,29.156,0,0,0,3.864-5.681,11.636,11.636,0,0,0,1.173-5.106,7.563,7.563,0,0,0-1.5-5.083A4.852,4.852,0,0,0,4.922-28.8a4.543,4.543,0,0,0-4,2.024A9.726,9.726,0,0,0-.644-21.8H-3.128v-5.52a8.6,8.6,0,0,1,3.45-2.208,13.122,13.122,0,0,1,4.646-.828,12.192,12.192,0,0,1,4.439.828,7.953,7.953,0,0,1,3.542,2.691,7.7,7.7,0,0,1,1.4,4.761,8.5,8.5,0,0,1-1.1,4.163,26.48,26.48,0,0,1-3.657,4.784Q7.038-10.35.368-3.588ZM30.82-30.406a8.991,8.991,0,0,1,5.474,1.725,11.008,11.008,0,0,1,3.634,4.991,21.024,21.024,0,0,1,1.288,7.728A22.979,22.979,0,0,1,39.7-7.291a13.747,13.747,0,0,1-4.071,5.773A8.74,8.74,0,0,1,30.084.506,9.1,9.1,0,0,1,25.231-.9a9.964,9.964,0,0,1-3.565-3.749l1.472-.966a8.915,8.915,0,0,0,2.944,3.174,6.81,6.81,0,0,0,3.726,1.15q3.45,0,5.313-3.588a22.387,22.387,0,0,0,2.047-9.568,9.3,9.3,0,0,1-2.875,2.484,8.248,8.248,0,0,1-4.163,1.012,9.472,9.472,0,0,1-4.485-1.1,8.464,8.464,0,0,1-3.358-3.22,9.683,9.683,0,0,1-1.265-5.06,10.318,10.318,0,0,1,1.334-5.313,9.35,9.35,0,0,1,3.565-3.519A9.9,9.9,0,0,1,30.82-30.406Zm.23,17.756a5.326,5.326,0,0,0,3.887-1.564,8.217,8.217,0,0,0,2.185-3.726q-.322-5.382-2.093-8.188a5.439,5.439,0,0,0-4.807-2.806,4.3,4.3,0,0,0-3.979,2.116,10.865,10.865,0,0,0-1.265,5.612q0,4.278,1.725,6.417A5.357,5.357,0,0,0,31.05-12.65Z" transform="translate(625.668 1854.777)" fill="#fff"/>
      </g>
      <path id="パス_42" data-name="パス 42" d="M-152.532-11l-.234-2.88c.216-.18.306-.288.306-.432,0-.2-.162-.324-.414-.324h-1.764l.216,1.008.216,2.736-4.95.324-.72-.108.072,1.116.7-.18,4.968-.324.378,4.572-6.48.414-.72-.09.072,1.116.7-.2,6.5-.414.486,5.76,1.674-.108-.486-5.76,6.138-.378.81.09-.09-1.134-.774.2-6.156.4-.378-4.572,5.256-.324.81.108-.072-1.152-.792.216Zm16.7,4.14,4.716-.63A8.152,8.152,0,0,1-134.1-3.636l.27.414a7.613,7.613,0,0,0,4.77-5.346l-6.858.9-.288-2.394c.2-.162.27-.27.27-.378a.275.275,0,0,0-.306-.27h-1.638l.144.918.27,2.322-2.844.378-.792-.036.144,1.116.756-.252,2.844-.378.918,7.92,1.548-.2Zm26.352-4.41a17.867,17.867,0,0,1-4.59,5.832,16.931,16.931,0,0,1-8.262,3.654l-.954.018.648,1.6c.108.252.27.4.45.4.2,0,.342-.126.468-.414,4.068-.918,6.624-2.142,8.838-4.23a15.172,15.172,0,0,0,3.906-6.624Zm-13.968-1.962a16.922,16.922,0,0,1,4.482,3.852l1.476-1.494a11.108,11.108,0,0,0-5.742-2.826Zm32.706,11.5C-93.2-4.212-97.47-9-99.54-11.646c-.828-1.062-1.152-1.368-1.476-1.368-.306,0-.72.324-1.206.954-2.16,2.664-2.952,3.6-4.158,4.9l-.9.756,1.008,1.368c.126.18.234.252.36.252.216,0,.324-.162.342-.5,1.656-2.376,3.726-5.292,4.194-5.9.2-.27.342-.414.414-.414s.216.126.36.342A114.763,114.763,0,0,0-92.016-.2Zm-1.818-13.338a1.829,1.829,0,0,0-1.854,1.8,1.828,1.828,0,0,0,1.818,1.836,1.824,1.824,0,0,0,1.818-1.818A1.817,1.817,0,0,0-92.556-15.066Zm-.054.72a1.106,1.106,0,0,1,1.116,1.1,1.091,1.091,0,0,1-1.1,1.1,1.1,1.1,0,0,1-1.1-1.1A1.111,1.111,0,0,1-92.61-14.346Zm19.242,7.074L-88.4-7.83v1.89l15.03-.54Zm17.892-4a17.867,17.867,0,0,1-4.59,5.832,16.931,16.931,0,0,1-8.262,3.654l-.954.018.648,1.6c.108.252.27.4.45.4.2,0,.342-.126.468-.414,4.068-.918,6.624-2.142,8.838-4.23a15.172,15.172,0,0,0,3.906-6.624ZM-69.444-13.23a16.922,16.922,0,0,1,4.482,3.852l1.476-1.494A11.108,11.108,0,0,0-69.228-13.7Zm30.69,8.424v4.59c0,.558-.234.792-.774.792H-41v.756h2.088c1.1,0,1.566-.432,1.548-1.458V-14.418h-5.8v3.024c0,5.31-.2,8.172-.648,9.414A6.7,6.7,0,0,1-45.9,1.062l.324.378c2.286-1.206,3.348-3.1,3.564-6.246Zm0-.72h-3.2V-5.58l.072-1.314c0-.108,0-.576.018-1.242,0-.144,0-.738.018-1.224h3.1Zm0-4.554h-3.078l.018-1.314v-2.3h3.06ZM-50-12.582v-1.836c.234-.162.288-.234.288-.36,0-.162-.126-.234-.378-.234h-1.26v2.43h-.774l-.72-.144v1.008l.72-.144h.774V-4.14H-52.47l-.72-.144v1.008l.72-.144h7.83l.72.144V-4.284l-.72.144h-.774v-7.722h.792l.72.144v-1.008l-.72.144h-.792v-1.836c.234-.162.288-.234.288-.342,0-.18-.126-.252-.378-.252h-1.26v2.43Zm0,.72h3.24V-9.9H-50Zm0,7.722V-6.426h3.24V-4.14Zm3.24-5.04v2.034H-50V-9.18ZM-53.028.792A11.3,11.3,0,0,0-49.9-1.656c.378,0,.612-.108.612-.288a.339.339,0,0,0-.18-.27l-1.206-.81A16.641,16.641,0,0,1-53.28.4Zm5.292-3.2A19.964,19.964,0,0,1-45.792.126l1.1-1.1a11.575,11.575,0,0,0-2.682-1.854ZM-23.346-.7V-7.074h-7.56V.36h1.386V-.7ZM-29.52-4.3V-6.354h4.788V-4.3Zm0,.72h4.788v2.16H-29.52Zm1.494-10.89h-6.5v15.8H-33.1v-9.99h5.076Zm-5.076.72h3.726v1.782H-33.1Zm3.726,2.5v1.872H-33.1V-11.25Zm3.168-3.222v5.814h5.31V-.342c0,.576-.252.828-.828.828h-1.512v.756h2.484c.9,0,1.278-.378,1.278-1.3V-14.472Zm1.35,3.222h3.96v1.872h-3.96Zm0-.72v-1.782h3.96v1.782ZM-8.982-3.906A1.226,1.226,0,0,0-10.224-2.7,1.21,1.21,0,0,0-9.018-1.476,1.214,1.214,0,0,0-7.794-2.7,1.214,1.214,0,0,0-8.982-3.906Zm0-8.28a1.226,1.226,0,0,0-1.242,1.206A1.225,1.225,0,0,0-9-9.756,1.21,1.21,0,0,0-7.794-10.98,1.214,1.214,0,0,0-8.982-12.186Z" transform="translate(883.762 1315.149)" fill="#fff"/>
    </g>
  </g>
</svg>
