<svg xmlns="http://www.w3.org/2000/svg" width="423.184" height="137.336" viewBox="0 0 423.184 137.336">
  <g id="limited-txt05" transform="translate(-188 -2301.76)">
    <g id="price" transform="translate(46 151)">
      <path id="パス_77" data-name="パス 77" d="M1.284-9.348V.8H2.34v-4.86H9.672V-.444c0,.468-.2.672-.672.672H7.452v.5H9.564c.816,0,1.164-.348,1.164-1.152V-9.348Zm1.056.48H5.424v4.332H2.34Zm4.128,0h3.2v4.332h-3.2Z" transform="translate(377.448 2282)" fill="#363636"/>
      <path id="パス_76" data-name="パス 76" d="M8.448-13.472a6.7,6.7,0,0,1,3.12.752,5.928,5.928,0,0,1,2.368,2.256,6.781,6.781,0,0,1,.912,3.584,7.15,7.15,0,0,1-1.056,3.968A6.821,6.821,0,0,1,11.12-.464,7.332,7.332,0,0,1,7.776.352a7.355,7.355,0,0,1-3.744-.96A6.807,6.807,0,0,1,1.44-3.232l1.024-.64A5.517,5.517,0,0,0,4.576-1.728a5.849,5.849,0,0,0,2.912.736,4.149,4.149,0,0,0,2.256-.656,4.7,4.7,0,0,0,1.68-1.936,6.726,6.726,0,0,0,.64-3.04,6.425,6.425,0,0,0-.64-2.992,4.309,4.309,0,0,0-1.68-1.824,4.483,4.483,0,0,0-2.256-.592,3.664,3.664,0,0,0-1.92.48,5.98,5.98,0,0,0-1.44,1.216H2.88l.768-10.4H13.824v2.56H4.64l-.448,6.208a5.645,5.645,0,0,1,1.84-1.088A6.8,6.8,0,0,1,8.448-13.472ZM20.128-3.264a1.852,1.852,0,0,1,1.424.656,2.65,2.65,0,0,1,.592,1.84,4.811,4.811,0,0,1-.9,2.88A6.243,6.243,0,0,1,18.816,4.1l-.48-.768a4.666,4.666,0,0,0,1.456-1.2A2.494,2.494,0,0,0,20.48.544a.971.971,0,0,0-.032-.288,1.988,1.988,0,0,1-.384.032,1.688,1.688,0,0,1-1.3-.5A1.777,1.777,0,0,1,18.3-1.472a1.71,1.71,0,0,1,.528-1.28A1.791,1.791,0,0,1,20.128-3.264Zm14.88-7.808a6.121,6.121,0,0,1,3.024,1.92A5.25,5.25,0,0,1,39.2-5.632,5.348,5.348,0,0,1,38.176-2.32,6.09,6.09,0,0,1,35.5-.3a9.3,9.3,0,0,1-3.472.656A8.951,8.951,0,0,1,28.56-.32a6.173,6.173,0,0,1-2.624-2.016,5.337,5.337,0,0,1-1.008-3.3A5.25,5.25,0,0,1,26.1-9.152a6.121,6.121,0,0,1,3.024-1.92,5.364,5.364,0,0,1-2.4-1.7,4.735,4.735,0,0,1-1.056-3.168,4.566,4.566,0,0,1,.9-2.864,5.514,5.514,0,0,1,2.352-1.76,8.289,8.289,0,0,1,3.152-.592,8.4,8.4,0,0,1,3.12.576,5.458,5.458,0,0,1,2.368,1.76,4.579,4.579,0,0,1,.912,2.88,4.735,4.735,0,0,1-1.056,3.168A5.364,5.364,0,0,1,35.008-11.072ZM32.064-20.1a3.513,3.513,0,0,0-2.7,1.168,4.434,4.434,0,0,0-1.072,3.12,4.434,4.434,0,0,0,1.072,3.12,3.513,3.513,0,0,0,2.7,1.168,3.5,3.5,0,0,0,2.72-1.168,4.476,4.476,0,0,0,1.056-3.12,4.434,4.434,0,0,0-1.072-3.12A3.513,3.513,0,0,0,32.064-20.1Zm0,19.424a4.069,4.069,0,0,0,3.1-1.3A5.1,5.1,0,0,0,36.384-5.6a5.29,5.29,0,0,0-1.12-3.552,3.976,3.976,0,0,0-3.2-1.312,3.976,3.976,0,0,0-3.2,1.312A5.29,5.29,0,0,0,27.744-5.6,5.1,5.1,0,0,0,28.96-1.968,4.069,4.069,0,0,0,32.064-.672Zm19.712-10.4A6.121,6.121,0,0,1,54.8-9.152a5.25,5.25,0,0,1,1.168,3.52A5.348,5.348,0,0,1,54.944-2.32,6.09,6.09,0,0,1,52.272-.3,9.3,9.3,0,0,1,48.8.352,8.951,8.951,0,0,1,45.328-.32,6.173,6.173,0,0,1,42.7-2.336a5.337,5.337,0,0,1-1.008-3.3,5.25,5.25,0,0,1,1.168-3.52,6.121,6.121,0,0,1,3.024-1.92,5.364,5.364,0,0,1-2.4-1.7,4.735,4.735,0,0,1-1.056-3.168,4.566,4.566,0,0,1,.9-2.864,5.514,5.514,0,0,1,2.352-1.76,8.289,8.289,0,0,1,3.152-.592,8.4,8.4,0,0,1,3.12.576,5.458,5.458,0,0,1,2.368,1.76,4.579,4.579,0,0,1,.912,2.88,4.735,4.735,0,0,1-1.056,3.168A5.364,5.364,0,0,1,51.776-11.072ZM48.832-20.1a3.513,3.513,0,0,0-2.7,1.168,4.434,4.434,0,0,0-1.072,3.12,4.434,4.434,0,0,0,1.072,3.12,3.513,3.513,0,0,0,2.7,1.168,3.5,3.5,0,0,0,2.72-1.168,4.476,4.476,0,0,0,1.056-3.12,4.434,4.434,0,0,0-1.072-3.12A3.513,3.513,0,0,0,48.832-20.1Zm0,19.424a4.069,4.069,0,0,0,3.1-1.3A5.1,5.1,0,0,0,53.152-5.6a5.29,5.29,0,0,0-1.12-3.552,3.976,3.976,0,0,0-3.2-1.312,3.976,3.976,0,0,0-3.2,1.312A5.29,5.29,0,0,0,44.512-5.6a5.1,5.1,0,0,0,1.216,3.632A4.069,4.069,0,0,0,48.832-.672ZM66.368-13.184a6.7,6.7,0,0,1,3.12.752,5.776,5.776,0,0,1,2.336,2.224A6.671,6.671,0,0,1,72.7-6.72a7.324,7.324,0,0,1-.912,3.664,6.527,6.527,0,0,1-2.48,2.512,6.843,6.843,0,0,1-3.456.9A6.145,6.145,0,0,1,62.048-.88a7.772,7.772,0,0,1-2.512-3.5,14.666,14.666,0,0,1-.88-5.312,15.568,15.568,0,0,1,1.088-6.032,9.665,9.665,0,0,1,2.9-4.016,6.251,6.251,0,0,1,3.92-1.408,5.906,5.906,0,0,1,2.992.8,7.2,7.2,0,0,1,2.384,2.272l-.96.8A6.76,6.76,0,0,0,69.04-19.2a4.3,4.3,0,0,0-2.352-.7,4.092,4.092,0,0,0-3.728,2.512,15.55,15.55,0,0,0-1.488,6.64,6.467,6.467,0,0,1,2-1.728A5.738,5.738,0,0,1,66.368-13.184ZM66.4-.672A2.9,2.9,0,0,0,69.072-2.16a7.576,7.576,0,0,0,.88-3.888,6.944,6.944,0,0,0-1.216-4.464A3.741,3.741,0,0,0,65.728-12a3.705,3.705,0,0,0-2.7,1.088A5.475,5.475,0,0,0,61.536-8.32a11.529,11.529,0,0,0,1.536,5.68A3.89,3.89,0,0,0,66.4-.672ZM77.344-3.264a1.852,1.852,0,0,1,1.424.656,2.65,2.65,0,0,1,.592,1.84,4.811,4.811,0,0,1-.9,2.88A6.243,6.243,0,0,1,76.032,4.1l-.48-.768a4.666,4.666,0,0,0,1.456-1.2A2.494,2.494,0,0,0,77.7.544a.971.971,0,0,0-.032-.288,1.988,1.988,0,0,1-.384.032,1.688,1.688,0,0,1-1.3-.5,1.777,1.777,0,0,1-.464-1.264,1.71,1.71,0,0,1,.528-1.28A1.791,1.791,0,0,1,77.344-3.264ZM89.248.352a5.936,5.936,0,0,1-3.84-1.344,8.589,8.589,0,0,1-2.576-3.792A16.025,16.025,0,0,1,81.92-10.4a15.891,15.891,0,0,1,.912-5.6,8.533,8.533,0,0,1,2.592-3.776A6,6,0,0,1,89.28-21.12a6.045,6.045,0,0,1,3.856,1.328,8.419,8.419,0,0,1,2.592,3.76,15.891,15.891,0,0,1,.912,5.6,15.775,15.775,0,0,1-.928,5.616A8.756,8.756,0,0,1,93.1-1.008,5.956,5.956,0,0,1,89.248.352ZM89.28-.672q2.176,0,3.328-2.5A17.843,17.843,0,0,0,93.76-10.4a17.742,17.742,0,0,0-1.152-7.2q-1.152-2.5-3.328-2.5t-3.328,2.5A17.742,17.742,0,0,0,84.8-10.4a17.843,17.843,0,0,0,1.152,7.232Q87.1-.672,89.28-.672ZM106.016.352a5.936,5.936,0,0,1-3.84-1.344A8.589,8.589,0,0,1,99.6-4.784a16.025,16.025,0,0,1-.912-5.616A15.891,15.891,0,0,1,99.6-16a8.533,8.533,0,0,1,2.592-3.776,6,6,0,0,1,3.856-1.344,6.045,6.045,0,0,1,3.856,1.328,8.419,8.419,0,0,1,2.592,3.76,15.891,15.891,0,0,1,.912,5.6,15.775,15.775,0,0,1-.928,5.616,8.756,8.756,0,0,1-2.608,3.808A5.956,5.956,0,0,1,106.016.352Zm.032-1.024q2.176,0,3.328-2.5a17.843,17.843,0,0,0,1.152-7.232,17.742,17.742,0,0,0-1.152-7.2q-1.152-2.5-3.328-2.5t-3.328,2.5a17.742,17.742,0,0,0-1.152,7.2,17.843,17.843,0,0,0,1.152,7.232Q103.872-.672,106.048-.672ZM122.784.352a5.936,5.936,0,0,1-3.84-1.344,8.589,8.589,0,0,1-2.576-3.792,16.025,16.025,0,0,1-.912-5.616,15.891,15.891,0,0,1,.912-5.6,8.533,8.533,0,0,1,2.592-3.776,6,6,0,0,1,3.856-1.344,6.045,6.045,0,0,1,3.856,1.328,8.419,8.419,0,0,1,2.592,3.76,15.891,15.891,0,0,1,.912,5.6,15.775,15.775,0,0,1-.928,5.616,8.756,8.756,0,0,1-2.608,3.808A5.956,5.956,0,0,1,122.784.352Zm.032-1.024q2.176,0,3.328-2.5A17.843,17.843,0,0,0,127.3-10.4a17.742,17.742,0,0,0-1.152-7.2q-1.152-2.5-3.328-2.5t-3.328,2.5a17.742,17.742,0,0,0-1.152,7.2,17.843,17.843,0,0,0,1.152,7.232Q120.64-.672,122.816-.672Z" transform="translate(244.556 2284)" fill="#363636"/>
      <path id="パス_75" data-name="パス 75" d="M4.764-7.32a10.043,10.043,0,0,1-.6,1.068H1.1l-.468-.1v.672l.468-.1H3.828A11.051,11.051,0,0,1,.48-3l.156.324a9.65,9.65,0,0,0,4.32-3.1H6.948A7.451,7.451,0,0,0,10.932-2.4a4.484,4.484,0,0,1,.588-1.044A7.686,7.686,0,0,1,7.428-5.772h3.456l.48.1v-.672l-.48.1H5.28A8.682,8.682,0,0,0,5.9-7.4c.444-.036.852-.072.984-.084.5-.036.84-.072.984-.084.1-.012.312-.036.636-.072.084-.012.348-.048.636-.084a8.447,8.447,0,0,1,1.032,1.044l.936-.756A11.878,11.878,0,0,0,7.488-9.4l-.264.276C8-8.592,8.352-8.352,8.7-8.088c-1,.036-2.22.06-4.128.072L4.056-8A7.635,7.635,0,0,0,5.328-9.336c.3-.06.42-.132.42-.264,0-.108-.1-.192-.264-.228L4.428-10.08A10.693,10.693,0,0,1,3.432-8c-.648.012-.792.012-1.044.012-.336,0-.8-.012-1.428-.024l.312.876c.072.18.144.264.252.264s.2-.084.312-.288c.5-.024.948-.036,1.1-.048.312-.024.612-.036.912-.06ZM1.056.96C5.16.768,7.548.18,10.164-1.26a2.581,2.581,0,0,0,.276.024c.156,0,.276-.084.276-.192,0-.06-.036-.108-.12-.168l-.888-.612A18.01,18.01,0,0,1,1.008.564ZM1.3-1.6A12.265,12.265,0,0,0,6.42-4.068h.156c.18,0,.3-.072.3-.168q0-.072-.108-.144l-.792-.564A12.707,12.707,0,0,1,1.212-1.932Zm.42,1.248A14.92,14.92,0,0,0,8.04-2.628a1.53,1.53,0,0,0,.228.012c.156,0,.288-.072.288-.18a.209.209,0,0,0-.108-.156l-.8-.588A14.571,14.571,0,0,1,1.608-.732Zm16.656-6.24v-1.6h2.244l.48.1V-8.76l-.48.1H18.372V-9.672c.156-.12.192-.168.192-.24,0-.12-.084-.168-.252-.168h-.936v1.416H14.832l-.468-.1v.672l.468-.1h2.544v1.6H13.992l-.48-.1v.672l.48-.1h4.932l-.036.024a21.25,21.25,0,0,1-1.824,1.26L17.04-4.8l-.7-.108-.12.6A30.789,30.789,0,0,1,13.44-2.88l.132.312A19.208,19.208,0,0,0,16.08-3.576c-.168.792-.348,1.524-.6,2.436h1.08c.06-.228.132-.576.228-1.032h5.4C21.912.192,21.8.384,20.88.4H19.548V.9H21.36c1.428-.012,1.548-.252,1.908-3.552H16.884l.024-.156.036-.144c.012-.048.036-.2.084-.42.012-.108.036-.24.072-.42l.756-.036a32.639,32.639,0,0,0,4.812-.456,1.5,1.5,0,0,0,.372.048c.12,0,.216-.072.216-.156,0-.048-.024-.1-.156-.216l-.66-.6a24.115,24.115,0,0,1-4.632.924l-.24.036-.252.024a24.4,24.4,0,0,0,2.856-1.884h3.756l.48.1v-.672l-.48.1H20.772A20.133,20.133,0,0,0,23.1-8.844c.384-.036.516-.108.516-.24,0-.084-.06-.156-.216-.228l-.78-.432a18.432,18.432,0,0,1-3.084,3.156ZM32.04-6.7H29.988V.828h.888V.06h5.076V.744h.924V-6.7h-2.1v-2.34H36.96l.48.1v-.672l-.48.1H30.216l-.468-.1v.672l.468-.1H32.04Zm.828-2.34h1.08V-6.7h-1.08Zm0,2.82h1.08v5.8h-1.08ZM32.04-.42H30.876v-5.8H32.04Zm2.736-5.8h1.176v5.8H34.776ZM28.728-7.4c.252-.708.36-1.044.636-1.932.192-.036.288-.12.288-.24,0-.1-.084-.168-.2-.2l-1.008-.3A28.442,28.442,0,0,1,26.4-3.564l.252.192a13.006,13.006,0,0,0,1.14-1.848V.888h.936ZM42.9-2.772a11.55,11.55,0,0,0,3.888-2.28A11.591,11.591,0,0,0,49.944-3.06,3.976,3.976,0,0,1,50.4-4a12.419,12.419,0,0,1-3.048-1.62,12.4,12.4,0,0,0,2.22-3.18h-3.9l.012-.036c.132-.252.144-.276.3-.612.228-.084.324-.156.324-.24a.224.224,0,0,0-.12-.168l-1.02-.228a11.161,11.161,0,0,1-.864,2.2,11.093,11.093,0,0,1-1.14,1.836l.24.228a8.152,8.152,0,0,0,1.716-2,5.445,5.445,0,0,0,1.1,2.184A13.17,13.17,0,0,1,42.78-3.072Zm2.52-5.544H48.3a14.545,14.545,0,0,1-1.6,2.172,4.517,4.517,0,0,1-1.332-2.1ZM41.172.888H42.1V-5.484a8.091,8.091,0,0,1,.852,1.824l.744-.648a4.244,4.244,0,0,0-1.6-1.524V-7.08h.876l.48.1v-.672l-.48.1H42.1V-9.612c.144-.108.192-.156.192-.24,0-.108-.084-.156-.252-.156h-.864V-7.56h-1.26l-.48-.1v.672l.48-.1h1.152a20.078,20.078,0,0,1-1.7,5.052l.264.18A11.809,11.809,0,0,0,41.172-4.68ZM49.26.816V-3.216H44.232v4.1h.948V.312H48.3v.5ZM45.18-.168V-2.736H48.3V-.168ZM62.7-10.08a6.941,6.941,0,0,0-2.616,5.52A6.941,6.941,0,0,0,62.7.96h.66a7.108,7.108,0,0,1-2.4-5.508A7.587,7.587,0,0,1,62.2-8.772,5.4,5.4,0,0,1,63.36-10.08ZM67.14.888h.888V-4.68a13.765,13.765,0,0,1,.9,2.076l.8-.708a7.494,7.494,0,0,0-1.7-1.752v-1.32h1l.468.1V-6.96l-.468.1h-1V-8.988c.312-.072.36-.084.816-.216a1.54,1.54,0,0,0,.3.048c.156,0,.264-.072.264-.18,0-.072-.024-.108-.12-.192l-.624-.552a14.34,14.34,0,0,1-3.312,1.092l.036.324A14.363,14.363,0,0,0,67.14-8.82v1.956H65.832l-.48-.1v.672l.48-.1H67.02A20.678,20.678,0,0,1,65.28-1.44l.24.2A10.165,10.165,0,0,0,67.14-4.08ZM69.948-7.44V-3.6H71.2v.036c-.1,2.3-.8,3.528-2.46,4.2l.156.324c2.2-.5,3.216-1.92,3.264-4.56h.936V-.108c.036.444.384.7.96.7h1.236c.6,0,.852-.228.9-.84l.132-1.464-.5-.06-.084,1.1c-.036.288-.132.372-.4.384h-.948c-.276-.012-.336-.072-.348-.324V-3.6h1.572V-7.44H73.776a8.221,8.221,0,0,0,1.272-1.908c.24-.024.372-.108.372-.228a.24.24,0,0,0-.192-.216l-1.1-.288a20.353,20.353,0,0,1-.792,2.64ZM70.9-4.08V-6.96h3.756v2.88ZM70.152-9.8a9.122,9.122,0,0,1,1.068,2.2l.984-.528a5.367,5.367,0,0,0-1.752-1.872ZM80.568-.768c.7.924,1.38,1.236,2.952,1.32.624.036,2.136.072,3.312.072.5,0,1.2-.012,2.148-.024a7.715,7.715,0,0,1,.288-.948c-.78.048-2.76.1-4.248.1a10.164,10.164,0,0,1-3.3-.276A2.121,2.121,0,0,1,80.9-1.08V-5.52H78.792l-.48-.1v.672l.48-.1h1.152v4.008a13.135,13.135,0,0,1-1.7.648L78.624.66a.207.207,0,0,0,.168.132c.12,0,.216-.132.276-.4a11.963,11.963,0,0,0,1.464-1.14Zm2.808-8.856-.48-.1v.7l.48-.1h1.956c.012.324.012.468.024.624-.612,3.18-1.9,5.484-3.864,6.96l.156.288a7.81,7.81,0,0,0,4.008-4.908A7.8,7.8,0,0,0,88.62-1.368c.3-.516.348-.588.648-1.068a6.969,6.969,0,0,1-2.76-3.312,10.237,10.237,0,0,1-.624-3.876ZM81.348-8.8a5.508,5.508,0,0,0-2.4-.888l-.144.3a8.4,8.4,0,0,1,1.884,1.668ZM91.2-10.08a7.145,7.145,0,0,1,2.4,5.532A7.126,7.126,0,0,1,91.2.96h.648a6.9,6.9,0,0,0,2.628-5.52,6.9,6.9,0,0,0-2.628-5.52Z" transform="translate(141.52 2282)" fill="#363636"/>
    </g>
    <g id="color" transform="translate(-626 -46)">
      <path id="パス_74" data-name="パス 74" d="M12.88-11.76.56.56l.56.56L13.44-11.2Zm7.9,4.83A9.491,9.491,0,0,1,20.16-3.4C19.544-1.9,18.018-.658,15.736.21l.14.42a9.91,9.91,0,0,0,4-1.806c1.456-1.19,2.1-2.758,2.212-5.418a1.893,1.893,0,0,1,.028-.336H26.5l.616.126v-.9l-.616.126H22.134c.014-.378.014-.686.014-.882v-2.03c.21-.14.28-.238.28-.35a.263.263,0,0,0-.266-.252l-1.484-.1.126.882v1.848c0,.2,0,.5-.014.882H15.6L14.98-7.7v.9L15.6-6.93ZM30.03.322c5.082-1.008,7.84-4.088,9.268-10.36.224-.084.336-.182.336-.308s-.1-.21-.266-.252l-1.4-.378-.056.868C36.75-4.732,34.2-1.54,29.9-.1ZM48.58-9.422c.154-.308.28-.616.49-1.162.266-.126.364-.21.364-.364,0-.126-.1-.21-.308-.252l-1.316-.28-.14.8A11.936,11.936,0,0,1,43.9-5.11l.224.336a9.394,9.394,0,0,0,4.116-4h4.382A12.226,12.226,0,0,1,49.21-2.506,13.759,13.759,0,0,1,43.96.238l.084.42a12.464,12.464,0,0,0,5.628-2.142,12.114,12.114,0,0,0,4.494-7.938Zm14.434,2.59a1.521,1.521,0,0,0-1.54,1.512A1.521,1.521,0,0,0,63-3.794,1.527,1.527,0,0,0,64.512-5.32,1.53,1.53,0,0,0,63.014-6.832ZM77.728-8.008h4.4l.616.126v-.9l-.616.126h-4.4V-10.64c.2-.14.28-.238.28-.364a.252.252,0,0,0-.266-.238l-1.414-.1.126.84v1.848h-4.48l-.616-.126v.9l.616-.126h4.48V-.826c0,.476-.21.686-.7.686H74.326V.5h2.352c.728.014,1.05-.336,1.05-1.134Zm1.386,1.666a17.406,17.406,0,0,1,2.8,5.236l1.344-.7A10.084,10.084,0,0,0,79.394-6.58ZM70.938-1.05a9.648,9.648,0,0,0,3.7-4.55c.252-.1.35-.2.35-.336a.3.3,0,0,0-.21-.266l-1.316-.476-.168.77a12.955,12.955,0,0,1-2.6,4.55ZM87.668.126c5.768-.6,8.568-3.892,8.876-10.388h-10.7v4.424h1.33v-3.78h7.854c-.28,5.236-2.562,8.078-7.42,9.282ZM106.54-7.5a35.994,35.994,0,0,0,2.982-2.632c.378-.042.532-.14.532-.336a.434.434,0,0,0-.224-.322l-1.078-.714-.5.756a27.236,27.236,0,0,1-9.184,6.37l.154.42a18.465,18.465,0,0,0,6.02-2.6V.742h1.3Zm11.284-3.164c.182-.1.28-.21.28-.336s-.112-.224-.28-.238l-1.4-.1.1.84V.672h1.3v-7.42a13.907,13.907,0,0,1,5.222,3.612L124-4.41a14.941,14.941,0,0,0-6.174-2.856Z" transform="translate(847.008 2429)" fill="#363636"/>
      <path id="パス_73" data-name="パス 73" d="M5.136.192A4.22,4.22,0,0,1,2.52-.576a4.31,4.31,0,0,1-1.464-1.96,7.058,7.058,0,0,1-.448-2.5,7.58,7.58,0,0,1,.464-2.648A4.609,4.609,0,0,1,2.56-9.752a4.056,4.056,0,0,1,2.592-.808,4.874,4.874,0,0,1,1.8.3,5.367,5.367,0,0,1,1.336.76v1.92H7.376a2.847,2.847,0,0,0-.768-1.872,2.224,2.224,0,0,0-1.568-.592A2.516,2.516,0,0,0,2.776-8.9a5.325,5.325,0,0,0-.744,2.952,9.78,9.78,0,0,0,.344,2.64A4.788,4.788,0,0,0,3.44-1.3a2.344,2.344,0,0,0,1.792.776A2.8,2.8,0,0,0,6.96-1.12,2.784,2.784,0,0,0,7.984-2.832h.608a3.639,3.639,0,0,1-.64,1.552A3.572,3.572,0,0,1,6.72-.2,3.319,3.319,0,0,1,5.136.192Zm7.6-.016A2.985,2.985,0,0,1,11.1-.28,2.991,2.991,0,0,1,9.992-1.568,4.457,4.457,0,0,1,9.6-3.488a4.7,4.7,0,0,1,.424-2.032,3.3,3.3,0,0,1,1.184-1.392,3.105,3.105,0,0,1,1.736-.5,3.014,3.014,0,0,1,1.648.456,3.043,3.043,0,0,1,1.12,1.288,4.381,4.381,0,0,1,.4,1.92,4.583,4.583,0,0,1-.432,2.016,3.394,3.394,0,0,1-1.2,1.4A3.107,3.107,0,0,1,12.736.176Zm.288-.48a1.5,1.5,0,0,0,1.28-.784,4.1,4.1,0,0,0,.512-2.24,6.021,6.021,0,0,0-.264-1.856,3.047,3.047,0,0,0-.744-1.28,1.543,1.543,0,0,0-1.1-.464,1.5,1.5,0,0,0-1.312.792,4.065,4.065,0,0,0-.5,2.168,5.973,5.973,0,0,0,.272,1.848,3.263,3.263,0,0,0,.76,1.328A1.515,1.515,0,0,0,13.024-.3ZM17.088-.48h1.024v-9.968l-1.152-.016v-.464l2.368-.128V-.48h1.024V0H17.088ZM24.48.176A2.985,2.985,0,0,1,22.848-.28a2.991,2.991,0,0,1-1.112-1.288,4.457,4.457,0,0,1-.392-1.92,4.694,4.694,0,0,1,.424-2.032,3.3,3.3,0,0,1,1.184-1.392,3.105,3.105,0,0,1,1.736-.5,3.014,3.014,0,0,1,1.648.456,3.043,3.043,0,0,1,1.12,1.288,4.381,4.381,0,0,1,.4,1.92,4.583,4.583,0,0,1-.432,2.016,3.394,3.394,0,0,1-1.2,1.4A3.107,3.107,0,0,1,24.48.176Zm.288-.48a1.5,1.5,0,0,0,1.28-.784,4.1,4.1,0,0,0,.512-2.24A6.021,6.021,0,0,0,26.3-5.184a3.047,3.047,0,0,0-.744-1.28,1.543,1.543,0,0,0-1.1-.464,1.5,1.5,0,0,0-1.312.792,4.065,4.065,0,0,0-.5,2.168,5.973,5.973,0,0,0,.272,1.848,3.263,3.263,0,0,0,.76,1.328A1.515,1.515,0,0,0,24.768-.3Zm8.256-7.1a1.793,1.793,0,0,1,.672.128,1.181,1.181,0,0,1,.48.32v1.424h-.7A.975.975,0,0,0,32.4-6.512a1,1,0,0,0-.88.592,2.807,2.807,0,0,0-.336,1.408V-.48H32.56V0H28.928V-.48h1.056V-6.752h-1.04v-.464l2.192-.128.016,1.152a2.025,2.025,0,0,1,.776-.872A2.007,2.007,0,0,1,33.024-7.408Z" transform="translate(813.392 2429)" fill="#363636"/>
    </g>
    <g id="text">
      <path id="パス_72" data-name="パス 72" d="M.792-.864h1.92V-14.688H.792v-.864H4.9l5.28,12.024,5.088-12.024h4.008v.864h-1.92V-.864h1.92V0h-5.88V-.864h1.92v-12.12L10.176-.888h-1.1L3.744-13.08V-.864H5.592V0H.792Zm26.808,0V0H20.856V-.864h2.352V-14.688H20.952v-.864H27.5v.864H25.248V-.864Zm1.584,0H31.1V-14.688h-1.92v-.864H33.1L40.32-3.888v-10.8H38.4v-.864h4.872v.864h-1.92V0h-1.1L32.136-13.224V-.864h1.92V0H29.184Zm22.176,0V0H44.616V-.864h2.352V-14.688H44.712v-.864h6.552v.864H49.008V-.864ZM65.736.288A6.33,6.33,0,0,1,61.812-.864a6.466,6.466,0,0,1-2.2-2.94,10.587,10.587,0,0,1-.672-3.756,11.369,11.369,0,0,1,.7-3.972,6.913,6.913,0,0,1,2.232-3.1A6.084,6.084,0,0,1,65.76-15.84a7.31,7.31,0,0,1,2.7.444,8.05,8.05,0,0,1,2,1.14v2.88H69.1a4.27,4.27,0,0,0-1.152-2.808,3.336,3.336,0,0,0-2.352-.888,3.773,3.773,0,0,0-3.4,1.716A7.988,7.988,0,0,0,61.08-8.928a14.67,14.67,0,0,0,.516,3.96,7.182,7.182,0,0,0,1.6,3.012A3.517,3.517,0,0,0,65.88-.792a4.2,4.2,0,0,0,2.592-.888,4.176,4.176,0,0,0,1.536-2.568h.912a5.458,5.458,0,0,1-.96,2.328A5.358,5.358,0,0,1,68.112-.3,4.978,4.978,0,0,1,65.736.288ZM79.2.288a6.1,6.1,0,0,1-3.756-1.1A6.307,6.307,0,0,1,73.3-3.684a10.528,10.528,0,0,1-.672-3.78,11.612,11.612,0,0,1,.684-3.948,7.054,7.054,0,0,1,2.244-3.168,6.139,6.139,0,0,1,3.984-1.26,6.207,6.207,0,0,1,3.78,1.1,6.487,6.487,0,0,1,2.208,2.868,9.989,9.989,0,0,1,.708,3.756,11.124,11.124,0,0,1-.72,3.936A7.349,7.349,0,0,1,83.22-.984,6.187,6.187,0,0,1,79.2.288ZM79.776-.5a3.531,3.531,0,0,0,3.216-1.764,8.968,8.968,0,0,0,1.08-4.716,14.262,14.262,0,0,0-.516-3.876,6.994,6.994,0,0,0-1.644-3.012,3.846,3.846,0,0,0-2.9-1.176,3.447,3.447,0,0,0-3.2,1.74,8.657,8.657,0,0,0-1.02,4.428,13.365,13.365,0,0,0,1.2,5.928A3.973,3.973,0,0,0,79.776-.5ZM94.752.288a5.315,5.315,0,0,1-3.816-1.344A5.075,5.075,0,0,1,89.52-4.92v-9.768H87.6v-.864h5.88v.864H91.56V-4.68a3.882,3.882,0,0,0,1,2.952,3.682,3.682,0,0,0,2.628.936A3.828,3.828,0,0,0,97.86-1.74,3.749,3.749,0,0,0,98.9-4.656V-14.688h-1.9v-.864h4.824v.864h-1.9V-4.56A4.593,4.593,0,0,1,98.52-1.032,5.3,5.3,0,0,1,94.752.288Zm8.376-1.152h1.92V-14.688h-1.92v-.864h3.912l7.224,11.664v-10.8h-1.92v-.864h4.872v.864H115.3V0h-1.1L106.08-13.224V-.864H108V0h-4.872Zm18.12,0h2.112V-14.688h-2.976l-1.248,3.312h-.888v-4.176h12.216v4.176h-.888l-1.2-3.312H125.4V-.864h2.112V0h-6.264Zm24.912,0V0h-3.672l-4.56-7.176H135.7V-.864h1.9V0h-5.856V-.864h1.92V-14.688h-1.92v-.864h6.984a4.822,4.822,0,0,1,3.528,1.164,3.993,3.993,0,0,1,1.176,2.964,4.1,4.1,0,0,1-.888,2.676,4.156,4.156,0,0,1-2.424,1.428l4.32,6.456ZM135.7-8.088h2.76a2.455,2.455,0,0,0,1.956-.924,3.539,3.539,0,0,0,.78-2.364,3.639,3.639,0,0,0-.756-2.4,2.448,2.448,0,0,0-1.98-.912H135.7ZM152.9-7.056V-.864h2.112V0h-6.264V-.864h2.112V-6.432l-4.1-8.256h-1.92v-.864h6.1v.864h-1.92l3.312,6.744,3.456-6.744h-1.92v-.864h4.92v.864h-1.92Zm6.672,6.192h1.92V-14.688h-1.92v-.864h4.1l5.28,12.024,5.088-12.024h4.008v.864h-1.92V-.864h1.92V0h-5.88V-.864h1.92v-12.12L168.96-.888h-1.1L162.528-13.08V-.864h1.848V0h-4.8Zm34.68,0V0h-5.568V-.864h1.752l-1.728-4.872h-5.16L181.824-.864h1.752V0h-4.488V-.864h1.7l5.3-14.688h1.128L192.552-.864Zm-5.88-5.784-2.208-6.216h-.1l-2.208,6.216Zm6.936,5.784h1.92V-14.688h-1.92v-.864h3.912l7.224,11.664v-10.8h-1.92v-.864H209.4v.864h-1.92V0h-1.1l-8.112-13.224V-.864h1.92V0h-4.872ZM223.92-15.552q3.528,0,5.16,2.076a8.5,8.5,0,0,1,1.632,5.412,10.745,10.745,0,0,1-.708,3.9,6.753,6.753,0,0,1-2.232,3A6.163,6.163,0,0,1,223.92,0h-7.3V-.864h1.92V-14.688h-1.92v-.864Zm0,14.688a3.712,3.712,0,0,0,3.528-2.088,10.884,10.884,0,0,0,1.1-5.136,8.857,8.857,0,0,0-1.14-4.824,3.861,3.861,0,0,0-3.492-1.776h-3.336V-.864ZM233.136.264a1.389,1.389,0,0,1-1.02-.42,1.389,1.389,0,0,1-.42-1.02,1.389,1.389,0,0,1,.42-1.02,1.389,1.389,0,0,1,1.02-.42,1.389,1.389,0,0,1,1.02.42,1.389,1.389,0,0,1,.42,1.02,1.389,1.389,0,0,1-.42,1.02A1.389,1.389,0,0,1,233.136.264Zm20.88-15.816v4.176H253.1l-1.272-3.312h-5.544v6.024h3.768v-1.848h1.1V-5.9h-1.1V-7.752h-3.768V-.864h2.064V0h-6.024V-.864h1.92V-14.688h-1.92v-.864ZM267.744-.864V0h-5.568V-.864h1.752L262.2-5.736h-5.16L255.312-.864h1.752V0h-4.488V-.864h1.7l5.3-14.688h1.128L266.04-.864Zm-5.88-5.784-2.208-6.216h-.1l-2.208,6.216Zm19.056-8.04h-1.8L273.96,0h-1.1L267.6-14.688h-1.92v-.864h5.976v.864h-1.92l4.2,11.784,4.2-11.784h-1.92v-.864h4.7ZM287.688.288a6.1,6.1,0,0,1-3.756-1.1,6.307,6.307,0,0,1-2.148-2.868,10.528,10.528,0,0,1-.672-3.78,11.612,11.612,0,0,1,.684-3.948,7.053,7.053,0,0,1,2.244-3.168,6.139,6.139,0,0,1,3.984-1.26,6.207,6.207,0,0,1,3.78,1.1,6.487,6.487,0,0,1,2.208,2.868,9.989,9.989,0,0,1,.708,3.756A11.124,11.124,0,0,1,294-4.176a7.35,7.35,0,0,1-2.292,3.192A6.187,6.187,0,0,1,287.688.288Zm.576-.792a3.531,3.531,0,0,0,3.216-1.764,8.968,8.968,0,0,0,1.08-4.716,14.262,14.262,0,0,0-.516-3.876,6.994,6.994,0,0,0-1.644-3.012,3.846,3.846,0,0,0-2.9-1.176,3.447,3.447,0,0,0-3.2,1.74,8.657,8.657,0,0,0-1.02,4.428,13.365,13.365,0,0,0,1.2,5.928A3.973,3.973,0,0,0,288.264-.5ZM303.24.288a5.315,5.315,0,0,1-3.816-1.344,5.075,5.075,0,0,1-1.416-3.864v-9.768h-1.92v-.864h5.88v.864h-1.92V-4.68a3.882,3.882,0,0,0,1,2.952,3.682,3.682,0,0,0,2.628.936,3.828,3.828,0,0,0,2.676-.948,3.749,3.749,0,0,0,1.044-2.916V-14.688h-1.9v-.864h4.824v.864h-1.9V-4.56a4.593,4.593,0,0,1-1.416,3.528A5.3,5.3,0,0,1,303.24.288Zm22.8-1.152V0h-3.672l-4.56-7.176h-2.232V-.864h1.9V0h-5.856V-.864h1.92V-14.688h-1.92v-.864H318.6a4.822,4.822,0,0,1,3.528,1.164,3.993,3.993,0,0,1,1.176,2.964,4.1,4.1,0,0,1-.888,2.676,4.156,4.156,0,0,1-2.424,1.428l4.32,6.456ZM315.576-8.088h2.76a2.455,2.455,0,0,0,1.956-.924,3.539,3.539,0,0,0,.78-2.364,3.639,3.639,0,0,0-.756-2.4,2.448,2.448,0,0,0-1.98-.912h-2.76Zm23.256,3.864V0h-11.88V-.864h1.92V-14.688h-1.92v-.864H338.64v4.176h-.912l-1.272-3.312h-5.544v6.024h3.768v-1.848h1.1V-5.9h-1.1V-7.752h-3.768V-.864h5.736l1.272-3.36Zm8.952-11.328q3.528,0,5.16,2.076a8.5,8.5,0,0,1,1.632,5.412,10.744,10.744,0,0,1-.708,3.9,6.753,6.753,0,0,1-2.232,3A6.164,6.164,0,0,1,347.784,0h-7.3V-.864h1.92V-14.688h-1.92v-.864Zm0,14.688a3.712,3.712,0,0,0,3.528-2.088,10.884,10.884,0,0,0,1.1-5.136,8.856,8.856,0,0,0-1.14-4.824,3.861,3.861,0,0,0-3.492-1.776h-3.336V-.864Zm17.016,0h2.112V-14.688h-2.976l-1.248,3.312H361.8v-4.176h12.216v4.176h-.888l-1.2-3.312h-2.976V-.864h2.112V0H364.8Zm24.912,0V0H386.04l-4.56-7.176h-2.232V-.864h1.9V0h-5.856V-.864h1.92V-14.688h-1.92v-.864h6.984a4.822,4.822,0,0,1,3.528,1.164,3.993,3.993,0,0,1,1.176,2.964,4.1,4.1,0,0,1-.888,2.676,4.156,4.156,0,0,1-2.424,1.428l4.32,6.456ZM379.248-8.088h2.76a2.455,2.455,0,0,0,1.956-.924,3.539,3.539,0,0,0,.78-2.364,3.639,3.639,0,0,0-.756-2.4,2.448,2.448,0,0,0-1.98-.912h-2.76Zm18.12,7.224V0h-6.744V-.864h2.352V-14.688H390.72v-.864h6.552v.864h-2.256V-.864Zm1.584,0h1.92V-14.688h-1.92v-.864h4.1l5.28,12.024,5.088-12.024h4.008v.864h-1.92V-.864h1.92V0h-5.88V-.864h1.92v-12.12l-5.136,12.1h-1.1L401.9-13.08V-.864h1.848V0h-4.8ZM420.744.264a1.389,1.389,0,0,1-1.02-.42,1.389,1.389,0,0,1-.42-1.02,1.389,1.389,0,0,1,.42-1.02,1.389,1.389,0,0,1,1.02-.42,1.389,1.389,0,0,1,1.02.42,1.389,1.389,0,0,1,.42,1.02,1.389,1.389,0,0,1-.42,1.02A1.389,1.389,0,0,1,420.744.264Z" transform="translate(189 2357)" fill="#363636"/>
      <path id="パス_71" data-name="パス 71" d="M-5.152.154a2.6,2.6,0,0,1-1.68-.588A3.758,3.758,0,0,1-7.959-2.093a7.011,7.011,0,0,1-.4-2.457A6.952,6.952,0,0,1-7.959-7,3.733,3.733,0,0,1-6.825-8.652,2.625,2.625,0,0,1-5.138-9.24a2.645,2.645,0,0,1,1.687.581A3.683,3.683,0,0,1-2.317-7.014a6.952,6.952,0,0,1,.4,2.45,6.9,6.9,0,0,1-.406,2.457A3.831,3.831,0,0,1-3.465-.441,2.606,2.606,0,0,1-5.152.154Zm.014-.448A1.585,1.585,0,0,0-3.682-1.386a7.806,7.806,0,0,0,.5-3.164,7.762,7.762,0,0,0-.5-3.15A1.585,1.585,0,0,0-5.138-8.792,1.585,1.585,0,0,0-6.594-7.7a7.762,7.762,0,0,0-.5,3.15,7.806,7.806,0,0,0,.5,3.164A1.585,1.585,0,0,0-5.138-.294Zm7.364-5.6a2.932,2.932,0,0,1,1.365.329,2.594,2.594,0,0,1,1.036.987,2.967,2.967,0,0,1,.4,1.568,3.128,3.128,0,0,1-.462,1.736A2.984,2.984,0,0,1,3.395-.2,3.208,3.208,0,0,1,1.932.154,3.218,3.218,0,0,1,.294-.266,2.978,2.978,0,0,1-.84-1.414l.448-.28a2.414,2.414,0,0,0,.924.938,2.559,2.559,0,0,0,1.274.322,1.815,1.815,0,0,0,.987-.287,2.057,2.057,0,0,0,.735-.847,2.943,2.943,0,0,0,.28-1.33,2.811,2.811,0,0,0-.28-1.309A1.885,1.885,0,0,0,2.793-5a1.962,1.962,0,0,0-.987-.259,1.6,1.6,0,0,0-.84.21,2.616,2.616,0,0,0-.63.532H-.21l.336-4.55H4.578v1.12H.56l-.2,2.716a2.47,2.47,0,0,1,.8-.476A2.975,2.975,0,0,1,2.226-5.894ZM7.336.154a.81.81,0,0,1-.595-.245A.81.81,0,0,1,6.5-.686a.81.81,0,0,1,.245-.6.81.81,0,0,1,.595-.245.81.81,0,0,1,.595.245.81.81,0,0,1,.245.6.81.81,0,0,1-.245.595A.81.81,0,0,1,7.336.154Z" transform="translate(197 2311)" fill="#363636"/>
    </g>
  </g>
</svg>
