<svg xmlns="http://www.w3.org/2000/svg" width="300" height="48" viewBox="0 0 300 48">
  <g id="グループ_397" data-name="グループ 397" transform="translate(-814 -2636)">
    <path id="パス_43" data-name="パス 43" d="M0,0H300V48H0Z" transform="translate(814 2636)" fill="#ed510d"/>
    <path id="パス_51" data-name="パス 51" d="M-43.568-2.548V1.12h1.148V-2.548h2.94l.56.112V-3.22l-.56.112h-2.94V-5.446h2.114l.56.112v-.784l-.56.112H-42.42V-8.19H-39.8l.546.112v-.784l-.546.112h-2.016a12.9,12.9,0,0,0,1.372-2.03c.322-.07.462-.182.462-.336,0-.126-.1-.21-.322-.28l-1.148-.364a16.37,16.37,0,0,1-.812,2.716l-.056.14-.056.154h-3.668l-.56-.112v.784l.56-.112h2.478v2.184H-45.64l-.546-.112v.784l.546-.112h2.072v2.338h-2.674l-.546-.112v.784l.546-.112ZM-50.134.1H-48.2V.644h1.008V-3.4h-3.948V.8h1.008Zm0-.518V-2.884H-48.2V-.42Zm2.366-10.71H-50.6l-.56-.112v.812l.56-.112h2.828l.56.112v-.812Zm.28,1.932H-51.24l-.56-.112V-8.5l.56-.112h3.752l.56.112V-9.31Zm-.28,1.932h-2.814l-.56-.112v.812l.56-.112h2.814l.56.112v-.812Zm0,1.932h-2.814l-.56-.112v.812l.56-.112h2.814l.56.112v-.812Zm1.918-6.048a12.752,12.752,0,0,1,1.078,2.394l1.12-.63A6.26,6.26,0,0,0-45.5-11.592Zm11.858,0,.084.77-.126,4.41c-.014.42-.014.84-.014,1.246,0,2.618.224,3.71.91,4.438A4.338,4.338,0,0,0-30.1.6a4.976,4.976,0,0,0,4.41-2.478A7.191,7.191,0,0,0-24.906-4.2l-.434-.14a7.225,7.225,0,0,1-.882,1.806A4.586,4.586,0,0,1-30-.5a3,3,0,0,1-1.932-.644,2.344,2.344,0,0,1-.714-1.526,26.1,26.1,0,0,1-.112-2.744c0-.308,0-.532.014-.714l.126-4.522c.168-.154.224-.252.224-.378,0-.154-.14-.266-.35-.28Zm20.3.49A38.51,38.51,0,0,1-18.41-7.028c-.966.728-1.246,1.008-1.246,1.288,0,.21.182.434.588.7a22.858,22.858,0,0,1,6.3,5.992L-11.494.07a17.831,17.831,0,0,0-2.758-2.814,35.957,35.957,0,0,0-4.074-2.8c-.28-.154-.35-.21-.35-.266s.07-.1.322-.252a40.878,40.878,0,0,0,6.132-4.34c.28-.014.406-.1.406-.252,0-.1-.07-.182-.238-.308l-1.036-.7Zm16,3.052.1,4.466a7.63,7.63,0,0,0-1.974-.28c-1.554,0-2.6.812-2.6,2.016A1.843,1.843,0,0,0-1.68-.392,3.684,3.684,0,0,0,.9.5,2.721,2.721,0,0,0,3.29-.518,2.473,2.473,0,0,0,3.6-1.806V-1.89A8.512,8.512,0,0,1,5.656-.378l.77-1.036A9.705,9.705,0,0,0,3.584-3.066l-.1-4.816c.784-.042,1.876-.154,2.618-.266L6.16-9.17l-.91.42a16.284,16.284,0,0,1-1.778.21L3.43-10.626c.182-.126.252-.238.252-.364a.258.258,0,0,0-.252-.238l-1.288-.084.112.714L2.3-8.47c-.742.028-1.33.042-1.82.042-.42,0-1.05-.014-1.876-.042l-.84-.266.1.91c.924.028,1.344.042,1.988.042.49,0,.49,0,2.422-.056ZM2.45-2v.084a1.985,1.985,0,0,1-.224.854A1.813,1.813,0,0,1,.658-.448,3.064,3.064,0,0,1-1.106-.966a.888.888,0,0,1-.364-.728c0-.714.672-1.162,1.722-1.162a5.169,5.169,0,0,1,2.184.49ZM-3.668.28a32.885,32.885,0,0,1-.378-4.886,46.621,46.621,0,0,1,.434-5.782c.21-.14.28-.238.28-.35,0-.154-.126-.266-.336-.294l-1.176-.2v.728A52.549,52.549,0,0,0-5.25-4.3,34.706,34.706,0,0,0-4.942.5ZM19.208-10.178a12.009,12.009,0,0,0-2.814-.266,11.489,11.489,0,0,0-5.25.938l.1.476A23.873,23.873,0,0,1,15.2-9.352a14.146,14.146,0,0,1,4,.49ZM11.032-5.054a4.412,4.412,0,0,0-.756,2.366A2.794,2.794,0,0,0,12.5-.168a12.317,12.317,0,0,0,3.584.42,29.848,29.848,0,0,0,4.1-.266V-1.442a22.165,22.165,0,0,1-4.4.42c-3.206,0-4.732-.728-4.732-2.254a3.551,3.551,0,0,1,.434-1.582ZM28.616-9.03a.348.348,0,0,1,.014-.112c.028-.224.126-.882.224-1.582.21-.112.294-.21.294-.322s-.1-.182-.308-.224l-1.19-.21.014.784c-.126,1.022-.2,1.568-.21,1.694H26.81c-.588,0-.924-.014-1.652-.07l-.742-.294.1.924c1.274.07,1.666.084,2.156.084h.686l-.014.042A33.166,33.166,0,0,1,26.054-3.01l1.106.266a4.993,4.993,0,0,1,4.41-2.31,3.023,3.023,0,0,1,1.876.5,2.046,2.046,0,0,1,.77,1.638c0,1.218-.952,2.2-2.674,2.7a14.672,14.672,0,0,1-3.458.546l.042.5A15.908,15.908,0,0,0,32.564.378c1.96-.56,3.052-1.736,3.052-3.234a2.706,2.706,0,0,0-1.274-2.31,4.906,4.906,0,0,0-2.576-.616,7.265,7.265,0,0,0-2.674.49,5.8,5.8,0,0,0-1.414.812A30.1,30.1,0,0,0,28.5-8.386a58.645,58.645,0,0,0,6.748-.5L35.336-9.9l-.84.42a48.976,48.976,0,0,1-5.838.448ZM41.846-2.9a5.761,5.761,0,0,1,1.316-1.526,5.631,5.631,0,0,1,3.556-1.288c1.582,0,2.562.812,2.562,2.114S48.328-1.246,46.564-.56a15.839,15.839,0,0,1-3.472.826l.056.476A15.208,15.208,0,0,0,47.74.014C49.63-.7,50.68-1.946,50.68-3.5a2.706,2.706,0,0,0-.826-1.988,4.152,4.152,0,0,0-2.926-.952,6.25,6.25,0,0,0-4.76,2.03l.322-4.228c.2-.14.266-.224.266-.35s-.1-.224-.266-.238l-1.3-.14.1.728L40.908-2.9Zm.854-8.036a11.568,11.568,0,0,1,4.55,1.5l1.008-1.176a6.6,6.6,0,0,0-1.33-.462,13.7,13.7,0,0,0-3-.364c-.308,0-.588.014-1.19.042Z" transform="translate(964 2665)" fill="#fff"/>
  </g>
</svg>
