<svg xmlns="http://www.w3.org/2000/svg" width="519.719" height="97.367" viewBox="0 0 519.719 97.367">
  <g id="mv02" transform="translate(-51.386 -65.192)">
    <path id="パス_41" data-name="パス 41" d="M1.386-6.3H4.169V-26.339H1.386v-1.252H7.334l7.653,17.427,7.374-17.427h5.809v1.252H25.388V-6.3h2.783V-5.05H19.648V-6.3h2.783V-23.869L14.987-6.337h-1.6L5.665-24.008V-6.3H8.343V-5.05H1.386Zm39.9,0V-5.05H31.51V-6.3h3.409V-26.339h-3.27v-1.252h9.5v1.252h-3.27V-6.3Zm3.339,0h2.783V-26.339H44.624v-1.252h5.67l10.47,16.906V-26.339H57.982v-1.252h7.061v1.252H62.26V-5.05h-1.6L48.9-24.217V-6.3h2.783V-5.05H44.624Zm33.185,0V-5.05H68.034V-6.3h3.409V-26.339h-3.27v-1.252h9.5v1.252H74.4V-6.3ZM92.841-26.226h4.2a44.9,44.9,0,0,0,1.971,12.615c1.436,4.337,3.576,7.941,6,10.081a20.4,20.4,0,0,1,2.027-2.844,19.22,19.22,0,0,1-3.295-3.661,27.657,27.657,0,0,1-3.858-8.335,35.425,35.425,0,0,1-1.211-8.223c0-.2,0-.535.028-.957H92.841l-1.126-.225V-26ZM81.746-3.276c4.139-3.154,7.265-9.546,8.532-17.487.619-.2.873-.451.873-.788s-.225-.535-.788-.676l-2.7-.676a47.411,47.411,0,0,1-1.943,9.518c-1.408,4.534-2.534,6.843-4.59,9.433Zm42.436-22.3h9.293l1.1.225v-1.633l-1.1.225H112.694l-1.126-.225v1.633l1.126-.225h8.927v8.7h-7.49L113-17.1v1.633l1.126-.225h7.49v10H111.426L110.3-5.923V-4.29l1.126-.225h23.288l1.126.225V-5.923l-1.126.225H124.183v-10h7.828l1.126.225V-17.1l-1.126.225h-7.828Zm29.455,4.872a38.391,38.391,0,0,0,9.659-6.927H143.05l-1.126-.225v1.633l1.126-.225h15.488a32.4,32.4,0,0,1-5.153,4.815l-2.309-.535v5.6H140.262l-1.126-.225v1.633l1.126-.225h10.813v9.631c0,.929-.394,1.323-1.3,1.323h-3.21v1.323h4.477c1.8,0,2.619-.76,2.591-2.506v-9.771h10.278l1.126.225v-1.633l-1.126.225H153.637Zm25.481-8.206h1.461L169.274-4.146h-1.461ZM193.137-6.3h2.783V-26.339h-2.783v-1.252h5.948l7.653,17.427,7.374-17.427h5.809v1.252h-2.783V-6.3h2.783V-5.05H211.4V-6.3h2.783V-23.869L206.738-6.337h-1.6l-7.722-17.671V-6.3h2.678V-5.05h-6.957Zm39.9,0V-5.05h-9.775V-6.3h3.409V-26.339H223.4v-1.252h9.5v1.252h-3.27V-6.3Zm3.339,0h2.783V-26.339h-2.783v-1.252h5.67l10.47,16.906V-26.339h-2.783v-1.252h7.061v1.252h-2.783V-5.05h-1.6L240.653-24.217V-6.3h2.783V-5.05h-7.061Zm33.185,0V-5.05h-9.775V-6.3h3.409V-26.339h-3.27v-1.252h9.5v1.252h-3.27V-6.3Zm24.193-11.27V-5.717c-.029.986-.348,1.3-1.3,1.333h-2.725v1.217h3.855c1.8,0,2.551-.7,2.551-2.377v-12.03h2.29l1.159.232v-1.623l-1.159.232h-2.29v-4.29c.348-.261.464-.377.464-.58,0-.261-.2-.377-.638-.377h-2.2v5.247H285.9l-1.131-.232v1.623l1.131-.232Zm-7.943-8.783H275.143v4.928c0,10.783-.406,13.943-2.232,18l.667.406a15.057,15.057,0,0,0,3.3-6.58c.464-1.884.638-5.218.7-11.827V-25.2h20.465l1.159.232v-1.623l-1.159.232h-9.595v-2.087c.348-.261.464-.377.464-.58,0-.261-.2-.377-.609-.377H285.81ZM281.317-3.05h2.261V-19.37c.435-.87.7-1.478,1.275-2.725.754-.232.957-.377.957-.7,0-.261-.174-.435-.493-.522l-2.435-.841a46.555,46.555,0,0,1-5.218,11.914l.609.58a19.265,19.265,0,0,0,3.044-3.71Zm4.58-11.276A18.962,18.962,0,0,1,289-8.645l2.232-1.855a12.287,12.287,0,0,0-4.754-4.348Zm31.365-9.45v-4.493c.377-.261.464-.377.464-.58,0-.261-.2-.377-.609-.377H314.74v5.45H304.189v13.8h2.522v-1.884h8.03v8.957h2.522v-8.957h8.262v1.652h2.522V-23.776Zm0,1.16h8.262v9.595h-8.262Zm-2.522,9.595h-8.03v-9.595h8.03Zm28.831-15.891h1.461L333.727-4.146h-1.461ZM357.59-6.3h2.783V-26.339H357.59v-1.252h5.948l7.653,17.427,7.374-17.427h5.809v1.252h-2.783V-6.3h2.783V-5.05h-8.522V-6.3h2.783V-23.869L371.191-6.337h-1.6l-7.722-17.671V-6.3h2.678V-5.05H357.59Zm39.9,0V-5.05h-9.775V-6.3h3.409V-26.339h-3.27v-1.252h9.5v1.252h-3.27V-6.3Zm3.339,0h2.783V-26.339h-2.783v-1.252h5.67l10.47,16.906V-26.339h-2.783v-1.252h7.061v1.252h-2.783V-5.05h-1.6L405.106-24.217V-6.3h2.783V-5.05h-7.061Zm33.185,0V-5.05h-9.775V-6.3h3.409V-26.339h-3.27v-1.252h9.5v1.252H430.6V-6.3Zm8.077,3.336h2.225v-14.3a24.653,24.653,0,0,1,2.112,5.153l1.943-1.661a13.37,13.37,0,0,0-4.055-4.365v-3.52h2.647l1.126.225v-1.577l-1.126.225h-2.647v-4.815c.366-.253.451-.366.451-.563,0-.253-.2-.366-.591-.366H442.09v5.745h-3.464l-1.126-.225v1.577l1.126-.225h3.154a42.231,42.231,0,0,1-4.449,12l.62.507a26.114,26.114,0,0,0,4.139-6.561Zm19.683-.507V-26.649h-12.39V-3.3h2.253V-5.388h7.8v1.915Zm-2.337-16.839h-7.8v-5.209h7.8Zm0,1.126v5.519h-7.8v-5.519Zm0,6.646v6.026h-7.8v-6.026Zm31.341,3.069,1.126.225v-1.577l-1.126.225h-7.068c.2-1.155.225-1.436.338-2.422h6.167v-8.363H476.669v8.363h5.266a11.865,11.865,0,0,1-.31,2.422h-5.857l-1.1-.225v1.577l1.1-.225h5.547c-.873,2.45-3.435,4.449-7.631,5.913l.225.788c5.1-1.014,8.363-3.182,9.377-6.223,1.3,2.9,4,4.984,7.857,6.082a9.224,9.224,0,0,1,1.1-2.168c-3.858-.7-7.068-2.394-8.476-4.393Zm-11.94-4.674v-2.591h9.18v2.591Zm0-3.717v-2.394h9.18v2.394ZM470.5-2.967h2.112V-17.75a19.8,19.8,0,0,1,1.971,4.365l1.605-1.577a8.874,8.874,0,0,0-3.576-3.464V-21.58h1.971l1.1.225v-1.577l-1.1.225h-1.971v-4.9c.366-.253.451-.366.451-.563,0-.253-.2-.366-.591-.366H470.5v5.829H467.63l-1.126-.225v1.577l1.126-.225h2.647a47.288,47.288,0,0,1-3.942,11.911l.563.479a24.029,24.029,0,0,0,3.6-6.561Zm8.617-21.6v2.281h2.112v-2.281h3.886v2.281h2.112v-2.281h3.379l1.126.225v-1.577l-1.126.225h-3.379v-1.887c.366-.282.451-.394.451-.563,0-.282-.169-.394-.591-.394h-1.971v2.844h-3.886v-1.887c.366-.282.451-.394.451-.563,0-.282-.169-.394-.591-.394h-1.971v2.844h-3.21l-1.126-.225v1.577l1.126-.225Zm32.806,12.052h6.9V-22.847h-9.1a24.866,24.866,0,0,0,2.337-3.407h7.688l1.126.225v-1.577l-1.126.225H497.7v3.745a117.8,117.8,0,0,1-.394,12.278,24.808,24.808,0,0,1-1.971,7.519l.591.479a16.87,16.87,0,0,0,3.295-6.533c.591-2.337.788-5.407.845-13.742v-2.619h9.18a29.267,29.267,0,0,1-.817,3.407h-5.8v10.335h6.955v7.237c0,.9-.394,1.3-1.267,1.3h-2.112V-2.8h3.351c1.661,0,2.394-.676,2.365-2.225Zm-7.068-9.208h11.658v3.351H504.857Zm11.658,8.082H504.857v-3.6h11.658ZM499.647-3.783a16.9,16.9,0,0,0,6.392-5.181c.591-.084.929-.338.929-.62a.68.68,0,0,0-.394-.507l-2.112-1.126A22.048,22.048,0,0,1,499.2-4.4Zm14.333-6.533a29.133,29.133,0,0,1,5.125,6.223l2-2.2a22.218,22.218,0,0,0-6.589-4.7Z" transform="translate(50 165.329)" fill="#fff"/>
    <path id="パス_40" data-name="パス 40" d="M38.4-57.674v12.682h-2.77L31.766-55.05H14.93v18.294H26.372v-5.612h3.353v13.994H26.372v-5.612H14.93v20.917H21.2v2.624H2.9v-2.624H8.735V-55.05H2.9v-2.624Zm4.227,45.042h5.9V-41.2h-5.32v-2.114L54-44.045v31.413h5.9v2.186H42.625Zm3.717-41.325A4.422,4.422,0,0,1,47.691-57.2a4.422,4.422,0,0,1,3.243-1.348A4.422,4.422,0,0,1,54.177-57.2a4.422,4.422,0,0,1,1.348,3.243,4.422,4.422,0,0,1-1.348,3.243,4.422,4.422,0,0,1-3.243,1.348,4.422,4.422,0,0,1-3.243-1.348A4.422,4.422,0,0,1,46.342-53.957Zm52.33,41.325v2.186h-14.8v-2.186h4.737V-33.258A9.71,9.71,0,0,0,86.9-39.38a5.8,5.8,0,0,0-4.847-2.187,7.819,7.819,0,0,0-5.94,2.514,8.834,8.834,0,0,0-2.369,6.3v20.116h4.592v2.186H63.47v-2.186h4.81V-41.2H63.616v-2.114L73.6-43.9l.146,3.79a10.27,10.27,0,0,1,3.936-2.952,13.271,13.271,0,0,1,5.393-1.057q5.248,0,8.126,2.952t2.879,8.345v20.189Zm32.8-48.176v50.362h-5.539v-3.061a8.694,8.694,0,0,1-3.681,2.879,13.114,13.114,0,0,1-5.211.984,12.925,12.925,0,0,1-10.349-4.519q-3.863-4.519-3.863-12.172a22.225,22.225,0,0,1,1.822-9.22,15.217,15.217,0,0,1,5.065-6.341,12.487,12.487,0,0,1,7.4-2.3,12.5,12.5,0,0,1,4.883.947,11.151,11.151,0,0,1,3.936,2.77V-58.038h-5.248v-2.114ZM118.278-12.122a7.05,7.05,0,0,0,5.5-2.405,9.157,9.157,0,0,0,2.15-6.341v-12.1a8.743,8.743,0,0,0-2.369-6.414,8.356,8.356,0,0,0-6.232-2.405,7.156,7.156,0,0,0-6.487,3.316q-2.114,3.316-2.114,10.021,0,7.58,2.514,11.953T118.278-12.122Zm61-19.751v18.8H185.7v2.624H166.673v-2.624h6.414V-29.978L160.623-55.05h-5.831v-2.624h18.512v2.624h-5.831l10.058,20.48,10.5-20.48H182.2v-2.624h14.941v2.624h-5.831ZM209.82-9.644a13.6,13.6,0,0,1-7.434-2.077,13.626,13.626,0,0,1-5.065-5.867,20.3,20.3,0,0,1-1.786-8.746,21.384,21.384,0,0,1,1.931-9.256,15.052,15.052,0,0,1,5.393-6.341,14.145,14.145,0,0,1,7.908-2.259,13.729,13.729,0,0,1,7.507,2.077,13.864,13.864,0,0,1,5.1,5.867A19.957,19.957,0,0,1,225.2-27.5a20.876,20.876,0,0,1-1.968,9.183,15.461,15.461,0,0,1-5.466,6.377A14.155,14.155,0,0,1,209.82-9.644Zm1.312-2.186q3.5,0,5.831-3.571t2.332-10.2a27.429,27.429,0,0,0-1.2-8.454,13.878,13.878,0,0,0-3.389-5.831A7.028,7.028,0,0,0,209.674-42,6.812,6.812,0,0,0,203.7-38.4q-2.259,3.608-2.259,9.876a27.207,27.207,0,0,0,1.239,8.418,14.864,14.864,0,0,0,3.462,6.049A6.9,6.9,0,0,0,211.131-11.83Zm53.423-.8v2.114l-9.985.51-.146-3.644a11.548,11.548,0,0,1-9.256,4.009,11.527,11.527,0,0,1-8.09-2.733q-2.988-2.733-2.988-8.564V-41.2H229.5v-2.187h10.131v22.448q0,4.665,1.859,6.705a6.083,6.083,0,0,0,4.7,2.041,9.306,9.306,0,0,0,5.685-1.895q2.551-1.895,2.551-6.414V-41.2H249.76v-2.187H259.89v30.757Zm22.594-31.558a8.166,8.166,0,0,1,3.061.583A5.382,5.382,0,0,1,292.4-42.15v6.487H289.19q-.51-4.446-4.883-4.446a4.545,4.545,0,0,0-4.009,2.7A12.785,12.785,0,0,0,278.767-31v18.367h6.268v2.186H268.491v-2.186h4.81V-41.2h-4.737v-2.114l9.985-.583.073,5.248a9.226,9.226,0,0,1,3.535-3.972A9.141,9.141,0,0,1,287.149-44.191Zm26.238,31.121h5.831V-55.05h-5.831v-2.624H325.85L341.884-21.16l15.451-36.515h12.172v2.624h-5.831v41.981h5.831v2.624H351.65v-2.624h5.831V-49.876l-15.6,36.733h-3.353l-16.18-37.025v37.1h5.612v2.624H313.387Zm81.411,0v2.624h-20.48v-2.624h7.143V-55.05h-6.851v-2.624h19.9v2.624h-6.851v41.981Zm4.81,0h5.831V-55.05h-5.831v-2.624h11.88l21.938,35.421v-32.8h-5.831v-2.624h14.8v2.624h-5.831v44.6h-3.353L408.572-50.6v37.535H414.4v2.624h-14.8Zm67.344,0v2.624h-20.48v-2.624h7.143V-55.05h-6.851v-2.624h19.9v2.624h-6.851v41.981ZM477.01-9.644a4.217,4.217,0,0,1-3.1-1.275,4.217,4.217,0,0,1-1.275-3.1,4.217,4.217,0,0,1,1.275-3.1,4.217,4.217,0,0,1,3.1-1.275,4.217,4.217,0,0,1,3.1,1.275,4.217,4.217,0,0,1,1.275,3.1,4.217,4.217,0,0,1-1.275,3.1A4.217,4.217,0,0,1,477.01-9.644Z" transform="translate(49.739 126)" fill="#fff"/>
  </g>
</svg>
