<svg xmlns="http://www.w3.org/2000/svg" width="627.514" height="117.562" viewBox="0 0 627.514 117.562">
  <g id="グループ_422" data-name="グループ 422" transform="translate(-51.386 -65.192)">
    <path id="パス_41" data-name="パス 41" d="M1.386-1.512h3.36V-25.7H1.386v-1.512H8.568l9.24,21.042,8.9-21.042h7.014V-25.7h-3.36V-1.512h3.36V0H23.436V-1.512H26.8v-21.21L17.808-1.554H15.876L6.552-22.89V-1.512H9.786V0h-8.4Zm48.174,0V0h-11.8V-1.512h4.116V-25.7H37.926v-1.512H49.392V-25.7H45.444V-1.512Zm4.032,0h3.36V-25.7h-3.36v-1.512h6.846L73.08-6.8V-25.7H69.72v-1.512h8.526V-25.7h-3.36V0H72.954l-14.2-23.142v21.63h3.36V0H53.592Zm40.068,0V0h-11.8V-1.512h4.116V-25.7H82.026v-1.512H93.492V-25.7H89.544V-1.512Zm18.15-24.056h5.066a54.208,54.208,0,0,0,2.38,15.232C120.99-5.1,123.574-.748,126.5,1.836A24.629,24.629,0,0,1,128.946-1.6a23.207,23.207,0,0,1-3.978-4.42,33.394,33.394,0,0,1-4.658-10.064,42.773,42.773,0,0,1-1.462-9.928c0-.238,0-.646.034-1.156H111.81l-1.36-.272V-25.3Zm-13.4,27.71c5-3.808,8.772-11.526,10.3-21.114.748-.238,1.054-.544,1.054-.952s-.272-.646-.952-.816l-3.264-.816a57.244,57.244,0,0,1-2.346,11.492c-1.7,5.474-3.06,8.262-5.542,11.39Zm51.238-26.928h11.22l1.326.272v-1.972l-1.326.272H135.78l-1.36-.272v1.972l1.36-.272h10.778V-14.28h-9.044l-1.36-.272v1.972l1.36-.272h9.044V-.782H134.25l-1.36-.272V.918l1.36-.272h28.118l1.36.272V-1.054l-1.36.272H149.652v-12.07H159.1l1.36.272v-1.972l-1.36.272h-9.452ZM185.216-18.9a46.354,46.354,0,0,0,11.662-8.364H172.432l-1.36-.272v1.972l1.36-.272h18.7a39.117,39.117,0,0,1-6.222,5.814l-2.788-.646v6.766H169.066l-1.36-.272v1.972l1.36-.272h13.056V-.85c0,1.122-.476,1.6-1.564,1.6h-3.876v1.6h5.406c2.176,0,3.162-.918,3.128-3.026v-11.8h12.41l1.36.272v-1.972l-1.36.272h-12.41Zm30.766-9.908h1.764L204.1,1.092h-1.764Zm16.926,27.3h3.36V-25.7h-3.36v-1.512h7.182l9.24,21.042,8.9-21.042h7.014V-25.7h-3.36V-1.512h3.36V0h-10.29V-1.512h3.36v-21.21L249.33-1.554H247.4L238.074-22.89V-1.512h3.234V0h-8.4Zm48.174,0V0h-11.8V-1.512H273.4V-25.7h-3.948v-1.512h11.466V-25.7h-3.948V-1.512Zm4.032,0h3.36V-25.7h-3.36v-1.512h6.846L304.6-6.8V-25.7h-3.36v-1.512h8.526V-25.7h-3.36V0h-1.932l-14.2-23.142v21.63h3.36V0h-8.526Zm40.068,0V0h-11.8V-1.512H317.5V-25.7h-3.948v-1.512h11.466V-25.7h-3.948V-1.512ZM354.393-15.12V-.805c-.035,1.19-.42,1.575-1.575,1.61h-3.29v1.47h4.655c2.17,0,3.08-.84,3.08-2.87V-15.12h2.765l1.4.28V-16.8l-1.4.28h-2.765V-21.7c.42-.315.56-.455.56-.7,0-.315-.245-.455-.77-.455h-2.66v6.335h-9.485l-1.365-.28v1.96l1.365-.28Zm-9.59-10.6h-12.88v5.95c0,13.02-.49,16.835-2.7,21.735l.8.49a18.18,18.18,0,0,0,3.99-7.945c.56-2.275.77-6.3.84-14.28v-4.55h24.71l1.4.28V-26l-1.4.28H347.988v-2.52c.42-.315.56-.455.56-.7,0-.315-.245-.455-.735-.455H344.8Zm-5.425,28.14h2.73v-19.7c.525-1.05.84-1.785,1.54-3.29.91-.28,1.155-.455,1.155-.84,0-.315-.21-.525-.6-.63l-2.94-1.015a56.212,56.212,0,0,1-6.3,14.385l.735.7a23.26,23.26,0,0,0,3.675-4.48Zm5.53-13.615a22.893,22.893,0,0,1,3.745,6.86l2.695-2.24a14.835,14.835,0,0,0-5.74-5.25Zm37.87-11.41v-5.425c.455-.315.56-.455.56-.7,0-.315-.245-.455-.735-.455h-2.87v6.58h-12.74V-5.95h3.045V-8.225h9.7V2.59h3.045V-8.225h9.975v2H395.8V-22.61Zm0,1.4h9.975V-9.625h-9.975ZM379.733-9.625h-9.7V-21.21h9.7Zm34.811-19.187h1.764l-13.65,29.9h-1.764Zm16.926,27.3h3.36V-25.7h-3.36v-1.512h7.182l9.24,21.042,8.9-21.042h7.014V-25.7h-3.36V-1.512h3.36V0H453.52V-1.512h3.36v-21.21L447.892-1.554H445.96L436.636-22.89V-1.512h3.234V0h-8.4Zm48.174,0V0h-11.8V-1.512h4.116V-25.7H468.01v-1.512h11.466V-25.7h-3.948V-1.512Zm4.032,0h3.36V-25.7h-3.36v-1.512h6.846L503.164-6.8V-25.7H499.8v-1.512h8.526V-25.7h-3.36V0h-1.932l-14.2-23.142v21.63h3.36V0h-8.526Zm40.068,0V0h-11.8V-1.512h4.116V-25.7H512.11v-1.512h11.466V-25.7h-3.948V-1.512ZM533.5,2.516h2.686V-14.756a29.769,29.769,0,0,1,2.55,6.222l2.346-2.006a16.143,16.143,0,0,0-4.9-5.27v-4.25h3.2l1.36.272v-1.9l-1.36.272h-3.2v-5.814c.442-.306.544-.442.544-.68,0-.306-.238-.442-.714-.442H533.5v6.936h-4.182l-1.36-.272v1.9l1.36-.272h3.808A50.99,50.99,0,0,1,527.75-5.576l.748.612a31.531,31.531,0,0,0,5-7.922ZM557.262,1.9V-26.078H542.3V2.108h2.72V-.408h9.418V1.9ZM554.44-18.428h-9.418v-6.29h9.418Zm0,1.36V-10.4h-9.418v-6.664Zm0,8.024v7.276h-9.418V-9.044Zm37.842,3.706,1.36.272v-1.9l-1.36.272h-8.534c.238-1.394.272-1.734.408-2.924H591.6v-10.1H575.248v10.1h6.358a14.327,14.327,0,0,1-.374,2.924H574.16l-1.326-.272v1.9l1.326-.272h6.7C579.8-2.38,576.71.034,571.644,1.8l.272.952c6.154-1.224,10.1-3.842,11.322-7.514,1.564,3.5,4.828,6.018,9.486,7.344A11.137,11.137,0,0,1,594.05-.034c-4.658-.85-8.534-2.89-10.234-5.3Zm-14.416-5.644V-14.11H588.95v3.128Zm0-4.488v-2.89H588.95v2.89ZM567.8,2.516h2.55v-17.85a23.9,23.9,0,0,1,2.38,5.27l1.938-1.9a10.715,10.715,0,0,0-4.318-4.182v-3.808h2.38l1.326.272v-1.9l-1.326.272h-2.38v-5.916c.442-.306.544-.442.544-.68,0-.306-.238-.442-.714-.442H567.8v7.038h-3.468l-1.36-.272v1.9l1.36-.272h3.2a57.1,57.1,0,0,1-4.76,14.382l.68.578A29.013,29.013,0,0,0,567.8-12.92Zm10.4-26.078v2.754h2.55v-2.754h4.692v2.754H588v-2.754h4.08l1.36.272v-1.9l-1.36.272H588V-27.2c.442-.34.544-.476.544-.68,0-.34-.2-.476-.714-.476h-2.38v3.434h-4.692V-27.2c.442-.34.544-.476.544-.68,0-.34-.2-.476-.714-.476h-2.38v3.434H574.33l-1.36-.272v1.9l1.36-.272ZM617.816-9.01h8.33V-21.488H615.164a30.03,30.03,0,0,0,2.822-4.114h9.282l1.36.272v-1.9l-1.36.272H600.646v4.522c-.034,8.6-.17,12.308-.476,14.824a29.954,29.954,0,0,1-2.38,9.078l.714.578a20.37,20.37,0,0,0,3.978-7.888c.714-2.822.952-6.528,1.02-16.592V-25.6h11.084a35.338,35.338,0,0,1-.986,4.114h-7V-9.01h8.4V-.272c0,1.088-.476,1.564-1.53,1.564h-2.55V2.72h4.046c2.006,0,2.89-.816,2.856-2.686Zm-8.534-11.118h14.076v4.046H609.282Zm14.076,9.758H609.282v-4.352h14.076ZM602.992,1.53a20.411,20.411,0,0,0,7.718-6.256c.714-.1,1.122-.408,1.122-.748a.821.821,0,0,0-.476-.612l-2.55-1.36A26.62,26.62,0,0,1,602.448.782ZM620.3-6.358a35.178,35.178,0,0,1,6.188,7.514L628.9-1.5a26.827,26.827,0,0,0-7.956-5.678Z" transform="translate(50 180)" fill="#fff"/>
    <path id="パス_40" data-name="パス 40" d="M45.76-57.024v15.312H42.416L37.752-53.856H17.424v22.088H31.24v-6.776h4.048v16.9H31.24v-6.776H17.424V-3.168h7.568V0H2.9V-3.168h7.04V-53.856H2.9v-3.168Zm5.1,54.384h7.128v-34.5H51.568v-2.552l13.024-.88V-2.64H71.72V0H50.864Zm4.488-49.9a5.339,5.339,0,0,1,1.628-3.916A5.339,5.339,0,0,1,60.9-58.08a5.339,5.339,0,0,1,3.916,1.628,5.339,5.339,0,0,1,1.628,3.916,5.339,5.339,0,0,1-1.628,3.916A5.339,5.339,0,0,1,60.9-46.992,5.339,5.339,0,0,1,56.98-48.62,5.339,5.339,0,0,1,55.352-52.536Zm63.184,49.9V0H100.672V-2.64h5.72v-24.9q0-4.752-2.068-7.392a7,7,0,0,0-5.852-2.64A9.441,9.441,0,0,0,91.3-34.54a10.666,10.666,0,0,0-2.86,7.612V-2.64h5.544V0H76.032V-2.64H81.84v-34.5H76.208v-2.552l12.056-.7.176,4.576a12.4,12.4,0,0,1,4.752-3.564A16.023,16.023,0,0,1,99.7-40.656q6.336,0,9.812,3.564t3.476,10.076V-2.64Zm39.6-58.168V0h-6.688V-3.7A10.5,10.5,0,0,1,147-.22,15.834,15.834,0,0,1,140.712.968a15.605,15.605,0,0,1-12.5-5.456q-4.664-5.456-4.664-14.7a26.835,26.835,0,0,1,2.2-11.132,18.373,18.373,0,0,1,6.116-7.656,15.077,15.077,0,0,1,8.932-2.772,15.09,15.09,0,0,1,5.9,1.144,13.464,13.464,0,0,1,4.752,3.344V-57.464h-6.336v-2.552ZM142.208-2.024a8.512,8.512,0,0,0,6.644-2.9,11.056,11.056,0,0,0,2.6-7.656V-27.192a10.556,10.556,0,0,0-2.86-7.744,10.089,10.089,0,0,0-7.524-2.9,8.641,8.641,0,0,0-7.832,4q-2.552,4-2.552,12.1,0,9.152,3.036,14.432T142.208-2.024Zm73.656-23.848v22.7h7.744V0H200.64V-3.168h7.744V-23.584L193.336-53.856H186.3v-3.168h22.352v3.168h-7.04l12.144,24.728,12.672-24.728h-7.04v-3.168h18.04v3.168h-7.04ZM252.736.968A16.419,16.419,0,0,1,243.76-1.54a16.452,16.452,0,0,1-6.116-7.084,24.514,24.514,0,0,1-2.156-10.56A25.82,25.82,0,0,1,237.82-30.36a18.173,18.173,0,0,1,6.512-7.656,17.079,17.079,0,0,1,9.548-2.728,16.577,16.577,0,0,1,9.064,2.508,16.739,16.739,0,0,1,6.16,7.084,24.1,24.1,0,0,1,2.2,10.56A25.206,25.206,0,0,1,268.928-9.5a18.668,18.668,0,0,1-6.6,7.7A17.091,17.091,0,0,1,252.736.968Zm1.584-2.64q4.224,0,7.04-4.312t2.816-12.32a33.118,33.118,0,0,0-1.452-10.208,16.756,16.756,0,0,0-4.092-7.04A8.485,8.485,0,0,0,252.56-38.1q-4.488,0-7.216,4.356t-2.728,11.924a32.849,32.849,0,0,0,1.5,10.164,17.947,17.947,0,0,0,4.18,7.3A8.333,8.333,0,0,0,254.32-1.672Zm64.5-.968V-.088L306.768.528l-.176-4.4A13.943,13.943,0,0,1,295.416.968q-6.16,0-9.768-3.3t-3.608-10.34V-37.136H276.5v-2.64h12.232v27.1q0,5.632,2.244,8.1a7.345,7.345,0,0,0,5.676,2.464A11.236,11.236,0,0,0,303.512-4.4q3.08-2.288,3.08-7.744V-37.136H300.96v-2.64h12.232V-2.64Zm27.28-38.1a9.86,9.86,0,0,1,3.7.7,6.5,6.5,0,0,1,2.64,1.76v7.832h-3.872q-.616-5.368-5.9-5.368-2.992,0-4.84,3.256a15.437,15.437,0,0,0-1.848,7.744V-2.64h7.568V0H323.576V-2.64h5.808v-34.5h-5.72v-2.552l12.056-.7.088,6.336a11.14,11.14,0,0,1,4.268-4.8A11.037,11.037,0,0,1,346.1-40.744Zm31.68,37.576h7.04V-53.856h-7.04v-3.168h15.048l19.36,44.088,18.656-44.088h14.7v3.168H438.5V-3.168h7.04V0h-21.56V-3.168h7.04v-44.44L412.192-3.256h-4.048l-19.536-44.7V-3.168h6.776V0h-17.6Zm98.3,0V0H451.352V-3.168h8.624V-53.856H451.7v-3.168h24.024v3.168h-8.272V-3.168Zm5.808,0h7.04V-53.856h-7.04v-3.168h14.344L522.72-14.256v-39.6h-7.04v-3.168h17.864v3.168H526.5V0h-4.048L492.712-48.488v45.32h7.04V0H481.888Zm81.312,0V0H538.472V-3.168H547.1V-53.856h-8.272v-3.168h24.024v3.168h-8.272V-3.168ZM575.344.968a5.092,5.092,0,0,1-3.74-1.54,5.092,5.092,0,0,1-1.54-3.74,5.092,5.092,0,0,1,1.54-3.74,5.092,5.092,0,0,1,3.74-1.54,5.092,5.092,0,0,1,3.74,1.54,5.092,5.092,0,0,1,1.54,3.74,5.092,5.092,0,0,1-1.54,3.74A5.092,5.092,0,0,1,575.344.968Z" transform="translate(50 126)" fill="#fff"/>
  </g>
</svg>
