<svg xmlns="http://www.w3.org/2000/svg" width="866.171" height="44.127" viewBox="0 0 866.171 44.127">
  <path id="パス_30908" data-name="パス 30908" d="M1.914-2.088h4.64V-35.5H1.914v-2.088h9.918L24.592-8.526l12.3-29.058h9.686V-35.5h-4.64V-2.088h4.64V0H32.364V-2.088H37v-29.29L24.592-2.146H21.924L9.048-31.61V-2.088h4.466V0H1.914Zm66.526,0V0h-16.3V-2.088h5.684V-35.5H52.374v-2.088H68.208V-35.5H62.756V-2.088Zm5.568,0h4.64V-35.5h-4.64v-2.088h9.454L100.92-9.4V-35.5H96.28v-2.088h11.774V-35.5h-4.64V0h-2.668l-19.6-31.958v29.87h4.64V0H74.008Zm55.332,0V0h-16.3V-2.088h5.684V-35.5h-5.452v-2.088h15.834V-35.5h-5.452V-2.088Zm25.086-33.256h7a74.934,74.934,0,0,0,3.29,21.056c2.4,7.238,5.969,13.254,10.011,16.826a34.047,34.047,0,0,1,3.384-4.747,32.08,32.08,0,0,1-5.5-6.11,46.162,46.162,0,0,1-6.439-13.912,59.127,59.127,0,0,1-2.021-13.724c0-.329,0-.893.047-1.6h-9.776l-1.88-.376v2.961Zm-18.518,38.3c6.909-5.264,12.126-15.933,14.241-29.187,1.034-.329,1.457-.752,1.457-1.316s-.376-.893-1.316-1.128L145.778-29.8a79.131,79.131,0,0,1-3.243,15.886c-2.35,7.567-4.23,11.421-7.661,15.745Zm70.829-37.224h15.51l1.833.376v-2.726l-1.833.376H187.561l-1.88-.376v2.726l1.88-.376h14.9V-19.74h-12.5l-1.88-.376v2.726l1.88-.376h12.5V-1.081H185.446l-1.88-.376V1.269l1.88-.376h38.869l1.88.376V-1.457l-1.88.376H206.737V-17.766H219.8l1.88.376v-2.726l-1.88.376H206.737ZM255.9-26.132A64.079,64.079,0,0,0,272.02-37.694H238.227l-1.88-.376v2.726l1.88-.376h25.85a54.072,54.072,0,0,1-8.6,8.037l-3.854-.893v9.353H233.574l-1.88-.376v2.726l1.88-.376h18.048V-1.175c0,1.551-.658,2.209-2.162,2.209H244.1V3.243h7.473c3.008,0,4.371-1.269,4.324-4.183V-17.249h17.155l1.88.376V-19.6l-1.88.376H255.9Zm42.509-13.656h2.436l-18.85,41.3h-2.436Zm23.374,37.7h4.64V-35.5h-4.64v-2.088H331.7L344.46-8.526l12.3-29.058h9.686V-35.5H361.8V-2.088h4.64V0h-14.21V-2.088h4.64v-29.29L344.46-2.146h-2.668L328.916-31.61V-2.088h4.466V0h-11.6Zm66.526,0V0h-16.3V-2.088h5.684V-35.5h-5.452v-2.088h15.834V-35.5h-5.452V-2.088Zm5.568,0h4.64V-35.5h-4.64v-2.088h9.454L420.788-9.4V-35.5h-4.64v-2.088h11.774V-35.5h-4.64V0h-2.668l-19.6-31.958v29.87h4.64V0H393.876Zm55.332,0V0h-16.3V-2.088h5.684V-35.5h-5.452v-2.088h15.834V-35.5h-5.452V-2.088Zm40.086-18.648V-1.1c-.048,1.632-.576,2.16-2.16,2.208h-4.512V3.12h6.384c2.976,0,4.224-1.152,4.224-3.936v-19.92h3.792l1.92.384V-23.04l-1.92.384H493.23v-7.1c.576-.432.768-.624.768-.96,0-.432-.336-.624-1.056-.624h-3.648v8.688H476.286l-1.872-.384v2.688l1.872-.384ZM476.142-35.28H458.478v8.16c0,17.856-.672,23.088-3.7,29.808l1.1.672a24.932,24.932,0,0,0,5.472-10.9c.768-3.12,1.056-8.64,1.152-19.584v-6.24H496.4l1.92.384v-2.688l-1.92.384H480.51v-3.456c.576-.432.768-.624.768-.96,0-.432-.336-.624-1.008-.624h-4.128ZM468.7,3.312h3.744V-23.712c.72-1.44,1.152-2.448,2.112-4.512,1.248-.384,1.584-.624,1.584-1.152,0-.432-.288-.72-.816-.864l-4.032-1.392a77.09,77.09,0,0,1-8.64,19.728l1.008.96a31.9,31.9,0,0,0,5.04-6.144Zm7.584-18.672a31.4,31.4,0,0,1,5.136,9.408l3.7-3.072c-1.872-2.976-3.888-4.848-7.872-7.2Zm51.936-15.648v-7.44c.624-.432.768-.624.768-.96,0-.432-.336-.624-1.008-.624h-3.936v9.024H506.574V-8.16h4.176v-3.12h13.3V3.552h4.176V-11.28H541.9v2.736h4.176V-31.008Zm0,1.92H541.9V-13.2h-13.68ZM524.046-13.2h-13.3V-29.088h13.3Zm47.88-26.588h2.436l-18.85,41.3h-2.436ZM595.3-2.088h4.64V-35.5H595.3v-2.088h9.918l12.76,29.058,12.3-29.058h9.686V-35.5h-4.64V-2.088h4.64V0H625.75V-2.088h4.64v-29.29L617.978-2.146H615.31L602.434-31.61V-2.088H606.9V0H595.3Zm66.526,0V0h-16.3V-2.088h5.684V-35.5H645.76v-2.088h15.834V-35.5h-5.452V-2.088Zm5.568,0h4.64V-35.5h-4.64v-2.088h9.454L694.306-9.4V-35.5h-4.64v-2.088H701.44V-35.5H696.8V0h-2.668l-19.6-31.958v29.87h4.64V0H667.394Zm55.332,0V0h-16.3V-2.088h5.684V-35.5H706.66v-2.088h15.834V-35.5h-5.452V-2.088ZM736.2,3.478h3.713V-20.4a41.156,41.156,0,0,1,3.525,8.6l3.243-2.773a22.316,22.316,0,0,0-6.768-7.285V-27.73h4.418l1.88.376v-2.632l-1.88.376h-4.418v-8.037c.611-.423.752-.611.752-.94,0-.423-.329-.611-.987-.611H736.2v9.588h-5.781l-1.88-.376v2.632l1.88-.376h5.264A70.49,70.49,0,0,1,728.26-7.708l1.034.846A43.588,43.588,0,0,0,736.2-17.813Zm32.853-.846V-36.049h-20.68V2.914h3.76V-.564h13.019v3.2Zm-3.9-28.106H752.136v-8.695h13.019Zm0,1.88v9.212H752.136v-9.212Zm0,11.092V-2.444H752.136V-12.5Zm52.311,5.123,1.88.376V-9.635l-1.88.376h-11.8c.329-1.927.376-2.4.564-4.042h10.293V-27.26H793.919V-13.3h8.789a19.808,19.808,0,0,1-.517,4.042h-9.776l-1.833-.376V-7l1.833-.376h9.259c-1.457,4.089-5.734,7.426-12.737,9.87l.376,1.316C797.82,2.115,803.272-1.5,804.964-6.58c2.162,4.841,6.674,8.319,13.113,10.152A15.4,15.4,0,0,1,819.91-.047c-6.439-1.175-11.8-4-14.147-7.332Zm-19.928-7.8V-19.5H812.86v4.324Zm0-6.2v-4H812.86v4ZM783.626,3.478h3.525V-21.2a33.04,33.04,0,0,1,3.29,7.285l2.679-2.632c-1.974-3.008-3.525-4.512-5.969-5.781v-5.264h3.29l1.833.376v-2.632l-1.833.376h-3.29v-8.178c.611-.423.752-.611.752-.94,0-.423-.329-.611-.987-.611h-3.29v9.729h-4.794l-1.88-.376v2.632l1.88-.376h4.418a78.932,78.932,0,0,1-6.58,19.881l.94.8a40.106,40.106,0,0,0,6.016-10.951Zm14.382-36.049v3.807h3.525v-3.807h6.486v3.807h3.525v-3.807h5.64l1.88.376v-2.632l-1.88.376h-5.64V-37.6c.611-.47.752-.658.752-.94,0-.47-.282-.658-.987-.658h-3.29v4.747h-6.486V-37.6c.611-.47.752-.658.752-.94,0-.47-.282-.658-.987-.658h-3.29v4.747H792.65l-1.88-.376v2.632l1.88-.376Zm54.755,20.116h11.515V-29.7H849.1a41.507,41.507,0,0,0,3.9-5.687h12.831l1.88.376v-2.632l-1.88.376h-36.8v6.251c-.047,11.891-.235,17.014-.658,20.492a41.405,41.405,0,0,1-3.29,12.549l.987.8a28.159,28.159,0,0,0,5.5-10.9c.987-3.9,1.316-9.024,1.41-22.936v-4.371H848.3a48.849,48.849,0,0,1-1.363,5.687h-9.682v17.249h11.609V-.376c0,1.5-.658,2.162-2.115,2.162h-3.525V3.76h5.593c2.773,0,3.995-1.128,3.948-3.713Zm-11.8-15.369h19.458v5.593H840.966Zm19.458,13.489H840.966v-6.016h19.458ZM832.271,2.115c5.123-2.679,7.567-4.7,10.669-8.648.987-.141,1.551-.564,1.551-1.034a1.135,1.135,0,0,0-.658-.846l-3.525-1.88a36.8,36.8,0,0,1-8.789,11.374Zm23.923-10.9A48.628,48.628,0,0,1,864.748,1.6l3.337-3.666a37.084,37.084,0,0,0-11-7.849Z" transform="translate(-1.914 40.32)" fill="#fff"/>
</svg>
