<svg xmlns="http://www.w3.org/2000/svg" width="408.006" height="208.122" viewBox="0 0 408.006 208.122">
  <g id="グループ_379" data-name="グループ 379" transform="translate(-882.997 -3154.434)">
    <path id="パス_42" data-name="パス 42" d="M-186.368,2.656h2.848v-14.3c.608-.128,1.12-.256,1.28-.288l.256-.064.256-.064c.16.544.256,1.024.512,2.24l2.592-1.184a12.649,12.649,0,0,0-3.36-5.376l-.96.64c.384.928.544,1.408.832,2.24-.7.064-3.264.224-4.16.256a70,70,0,0,0,6.048-7.2c.7-.16.992-.352.992-.7a.483.483,0,0,0-.288-.448l-2.784-1.568a61.331,61.331,0,0,1-5.536,9.344l-.448.64h-.128l-1.344.032c-.192,0-.672,0-1.28.032l.768,2.752a.581.581,0,0,0,.448.416c.224,0,.448-.192.736-.64,1.5-.256,1.888-.32,2.72-.48Zm-4.672-23.84a28.639,28.639,0,0,1,3.648,5.216l1.92-3.008a16.622,16.622,0,0,0-1.792-1.536,36.929,36.929,0,0,0,3.36-4.128c.672-.128,1.024-.384,1.024-.7,0-.192-.16-.384-.448-.512l-3.136-1.344a38.887,38.887,0,0,1-2.112,5.888,16.476,16.476,0,0,0-1.92-.9ZM-175.008-8.16v-8c.416-.32.512-.448.512-.672,0-.288-.224-.448-.672-.448h-2.816V-3.84h2.976V-6.624h3.1V-.64c0,1.856.8,2.688,2.656,2.656h5.152c1.824.032,2.592-.7,2.752-2.5l.384-4.256-1.7-.192-.32,2.944c-.128.832-.384,1.056-1.216,1.088h-3.616c-.832-.032-1.088-.288-1.12-1.12V-6.624h6.5V-16.16c.416-.288.512-.448.512-.672,0-.288-.224-.448-.672-.448h-2.944v9.12h-3.392V-20.224c1.6-.192,2.816-.384,5.408-.9a2.734,2.734,0,0,0,.928.192c.448,0,.736-.224.736-.576,0-.224-.1-.384-.416-.768l-1.92-2.176a46.206,46.206,0,0,1-4.736,1.5v-2.784c.384-.32.512-.48.512-.7,0-.288-.224-.448-.672-.448H-171.9v4.64c-2.656.608-4.224.9-7.072,1.344l.192,1.408c3.488-.128,5.152-.224,6.88-.384V-8.16Zm-7.9-.448a40.786,40.786,0,0,1,1.536,7.2l2.72-1.376a17.7,17.7,0,0,0-3.1-6.208Zm-7.04-.384a57.888,57.888,0,0,1-1.088,8.8l.992.416a26.134,26.134,0,0,0,2.688-7.2c.512-.192.736-.416.736-.736,0-.256-.16-.384-.48-.48ZM-140.8-23.616h9.344l1.312.256v-2.176l-1.312.256H-156.48l-1.344-.256v2.176l1.344-.256h11.9V-.608h-5.92V-15.776c.416-.32.512-.448.512-.672,0-.288-.224-.448-.672-.448h-3.52V-.608h-3.52l-1.344-.256V1.312l1.344-.256H-130.3l1.344.256V-.864l-1.344.256h-10.5V-12.1h7.872l1.344.256v-2.176l-1.344.256H-140.8Zm30.24,6.88c.448-.384.64-.672.64-.928,0-.32-.352-.608-.832-.64l-3.9-.288.288,2.016v1.952c-.064,5.28-.928,8-3.232,10.336a19.291,19.291,0,0,1-6.752,4.256l.448,1.248c7.712-1.536,12.288-5.632,13.024-11.68,7.008-1.952,11.552-6.624,12.992-13.408H-123.36l-1.6-.32v2.432l1.6-.32h20.672a16.781,16.781,0,0,1-8,9.92c.064-.576.128-2.016.128-2.688Zm29.984-4.832A25.8,25.8,0,0,0-79.488-24c.64-.288.9-.512.9-.9,0-.352-.288-.576-.8-.672l-3.84-.768-.384,1.984a28.427,28.427,0,0,1-8.416,12.544l.736,1.088a21.96,21.96,0,0,0,9.76-9.056h9.024c-1.056,4.736-4,10.3-6.816,13.024A29.664,29.664,0,0,1-91.776.352l.288,1.344c6.016-1.12,9.824-2.56,13.248-5.088,5.184-3.776,8.736-10.08,10.272-18.176Zm30.08,3.392v-5.856c.48-.352.7-.608.7-.928a.744.744,0,0,0-.768-.672l-3.968-.224.32,2.24v5.76l-6.5.576-1.664-.192.192,2.5,1.632-.48L-54.208-16V-4.1a6.235,6.235,0,0,0,.64,3.04,2.539,2.539,0,0,0,1.408.864,40.367,40.367,0,0,0,7.648.448A75.052,75.052,0,0,0-36.064-.1v-3.68a49.552,49.552,0,0,1-8.96.64c-4.8,0-5.472-.256-5.472-1.984v-11.2l11.424-.96A24.258,24.258,0,0,1-46.4-8.16l.736,1.12A19.481,19.481,0,0,0-33.888-19.584Zm38.848-.1H-20.64v-5.184c.512-.384.7-.64.7-.96a.7.7,0,0,0-.768-.64l-3.808-.256.32,2.176v4.864H-28.64l-1.536-.288v2.368l1.536-.288h4.448v8.64h3.552v-8.64h8.992v1.632c-.032,5.76-.9,8.8-3.1,10.944A18.2,18.2,0,0,1-21.984.128L-21.5,1.6a22.047,22.047,0,0,0,8.96-3.488C-9.088-4.416-8-7.52-7.936-14.848V-16.48H-3.36l1.536.288V-18.56l-1.536.288H-7.936v-5.312c.512-.384.7-.64.7-.96A.744.744,0,0,0-8-25.216l-3.968-.224.32,2.176ZM11.2,2.08A20.526,20.526,0,0,0,21.5-2.24c3.008-2.592,4.1-6.08,4.1-13.088V-24.16c.512-.352.7-.608.7-.928a.777.777,0,0,0-.8-.672l-4.032-.224.32,2.176v8.864c-.1,5.984-.928,8.8-3.36,11.264A17.784,17.784,0,0,1,10.88.736ZM6.4-23.264V-7.68h3.808v-15.9c.512-.384.7-.608.7-.928a.732.732,0,0,0-.8-.672L6.08-25.44ZM61.568-13.152l-26.72-1.184v4.224l26.72-1.216Zm17.856-8.416A25.8,25.8,0,0,0,80.512-24c.64-.288.9-.512.9-.9,0-.352-.288-.576-.8-.672l-3.84-.768-.384,1.984a28.427,28.427,0,0,1-8.416,12.544L68.7-10.72a21.96,21.96,0,0,0,9.76-9.056h9.024c-1.056,4.736-4,10.3-6.816,13.024A29.664,29.664,0,0,1,68.224.352L68.512,1.7C74.528.576,78.336-.864,81.76-3.392c5.184-3.776,8.736-10.08,10.272-18.176Zm46.144,8.416-26.72-1.184v4.224l26.72-1.216Zm20.288-4.608h9.312l1.6.32v-2.432l-1.6.32h-9.312v-4.384c.512-.352.7-.608.7-.928a.744.744,0,0,0-.768-.672l-3.968-.224.32,2.176v4.032h-9.856l-1.6-.32v2.432l1.6-.32h9.856v16c0,1.152-.48,1.632-1.632,1.632h-3.3V1.664H143.1c1.92,0,2.752-.832,2.752-2.848Zm2.592,3.616A41.416,41.416,0,0,1,154.336-1.92L158.144-3.9c-2.176-5.024-4.864-8.448-8.7-11.008Zm-18.5,12.192c3.456-1.952,6.624-5.824,8.576-10.5.64-.224.9-.48.9-.832,0-.288-.224-.544-.608-.7L135.232-15.2l-.416,1.888a30.126,30.126,0,0,1-5.664,10.336ZM155.744-27.2a3.34,3.34,0,0,0-3.392,3.328,3.36,3.36,0,0,0,3.36,3.36,3.353,3.353,0,0,0,3.328-3.36A3.361,3.361,0,0,0,155.744-27.2Zm-.064,1.536a1.817,1.817,0,0,1,1.824,1.792,1.817,1.817,0,0,1-1.792,1.824,1.8,1.8,0,0,1-1.824-1.824A1.831,1.831,0,0,1,155.68-25.664Zm33.472,5.5c-5.024,9.44-11.936,14.5-22.688,16.544L164.7-3.68l1.472,3.552c.224.512.512.8.864.8.416,0,.672-.224.928-.8C175.1-1.824,179.424-3.872,183.2-7.3a25.376,25.376,0,0,0,7.168-12.352Zm-24.768-3.328a28.809,28.809,0,0,1,8.064,7.264l3.3-3.488a20.046,20.046,0,0,0-10.816-4.96Zm-238.5,64.544c8.608-2.24,12.16-4.32,15.84-9.344A27.8,27.8,0,0,0-53.7,19.68a3.185,3.185,0,0,1-2.08-2.016H-75.488l-1.6-.32v2.432l1.6-.32h17.536c-1.888,10.24-7.328,16.8-16.736,20.128Zm22.08-28.48A3.34,3.34,0,0,0-55.424,15.9a3.36,3.36,0,0,0,3.36,3.36,3.353,3.353,0,0,0,3.328-3.36A3.361,3.361,0,0,0-52.032,12.576Zm-.064,1.536A1.817,1.817,0,0,1-50.272,15.9,1.8,1.8,0,0,1-52.1,17.728,1.8,1.8,0,0,1-53.888,15.9,1.831,1.831,0,0,1-52.1,14.112ZM-40.96,40.864a31.442,31.442,0,0,0,13.536-4.832,24.066,24.066,0,0,0,9.5-12.64l-1.216-.608A26.972,26.972,0,0,1-37.248,36.128V16.8c.512-.352.7-.608.7-.928a.744.744,0,0,0-.768-.672l-3.968-.224.32,2.176ZM-6.5,22.4l-6.432.576-1.664-.192.192,2.5,1.632-.48,6.272-.544v11.9c0,2.752.8,3.872,2.912,4.1,1.568.16,4.448.256,7.232.256a79.046,79.046,0,0,0,7.968-.352V36.48a53.544,53.544,0,0,1-8.96.576c-4.768,0-5.44-.256-5.44-1.92v-11.2L8.7,22.944A24.294,24.294,0,0,1,1.376,32.1l.736,1.12A19.385,19.385,0,0,0,13.856,20.672L-2.784,22.08V16.224c.512-.352.7-.608.7-.928a.744.744,0,0,0-.768-.672L-6.816,14.4l.32,2.24ZM15.04,16.384A6.689,6.689,0,0,0,11.2,12.8l-.8.576a12.978,12.978,0,0,1,2.144,4.256Zm-8.32-2.56A13.624,13.624,0,0,1,8.512,18.24l2.528-1.184A6.954,6.954,0,0,0,7.552,13.28ZM45.152,19.84c-5.024,9.44-11.936,14.5-22.688,16.544L20.7,36.32l1.472,3.552c.224.512.512.8.864.8.416,0,.672-.224.928-.8C31.1,38.176,35.424,36.128,39.2,32.7a25.376,25.376,0,0,0,7.168-12.352ZM20.384,16.512a28.809,28.809,0,0,1,8.064,7.264l3.3-3.488a20.046,20.046,0,0,0-10.816-4.96Zm41.472-.8c.512-.32.7-.576.7-.9,0-.352-.32-.64-.8-.672l-3.968-.224.256,2.176V41.664h3.808V24.96a31.884,31.884,0,0,1,11.3,8.384l2.816-3.712A33.167,33.167,0,0,0,61.856,23.3Z" transform="translate(1087 3320.392)" fill="#ee510d" stroke="rgba(0,0,0,0)" stroke-width="1"/>
    <path id="パス_41" data-name="パス 41" d="M-95.49-7.02V0h-35.37V-3.15q11.43-12.42,16.695-18.765a57.044,57.044,0,0,0,7.56-11.115,22.766,22.766,0,0,0,2.3-9.99q0-6.57-2.925-9.945a9.492,9.492,0,0,0-7.515-3.375,8.889,8.889,0,0,0-7.83,3.96,19.029,19.029,0,0,0-3.06,9.72h-4.86v-10.8a16.829,16.829,0,0,1,6.75-4.32,25.674,25.674,0,0,1,9.09-1.62,23.855,23.855,0,0,1,8.685,1.62,15.56,15.56,0,0,1,6.93,5.265A15.06,15.06,0,0,1-96.3-43.2a16.639,16.639,0,0,1-2.16,8.145,51.809,51.809,0,0,1-7.155,9.36Q-110.61-20.25-123.66-7.02ZM-66.51.99a16.7,16.7,0,0,1-10.8-3.78,24.157,24.157,0,0,1-7.245-10.665A45.07,45.07,0,0,1-87.12-29.25,44.694,44.694,0,0,1-84.555-45a24,24,0,0,1,7.29-10.62A16.874,16.874,0,0,1-66.42-59.4a17,17,0,0,1,10.845,3.735,23.679,23.679,0,0,1,7.29,10.575A44.694,44.694,0,0,1-45.72-29.34a44.368,44.368,0,0,1-2.61,15.8,24.625,24.625,0,0,1-7.335,10.71A16.75,16.75,0,0,1-66.51.99Zm.09-2.88q6.12,0,9.36-7.02t3.24-20.34q0-13.23-3.24-20.25t-9.36-7.02q-6.12,0-9.36,7.02t-3.24,20.25q0,13.32,3.24,20.34T-66.42-1.89Zm48.24-28.47c.36-4.02.66-9.18.66-11.58v-2.34H12.36l2.4.48v-3.48l-2.4.48h-50.4l-2.4-.48v3.48l2.4-.48h15v2.34C-23.4-27.9-25.2-17.88-28.5-11.4-31.68-4.92-35.52-.48-40.44,2.28l1.02,1.86A30.538,30.538,0,0,0-24.06-9.06c3.24-5.58,4.5-9.9,5.58-18.78H2.1A197.871,197.871,0,0,1-.6-2.4C-1.08-.24-2.4.72-4.86.6h-8.16V3.42H-1.68c4.08,0,6.12-1.44,6.84-4.86C6.18-6,7.38-18.6,7.98-30.36ZM23.58-46.74V4.02h5.28v-24.3H65.52V-2.22c0,2.34-1.02,3.36-3.36,3.36H54.42V3.66H64.98c4.08,0,5.82-1.74,5.82-5.76V-46.74Zm5.28,2.4H44.28v21.66H28.86Zm20.64,0H65.52v21.66H49.5Zm48.96,22.2c-.42,5.58-1.44,9.9-3.12,13.2C93.12-4.2,86.4.78,79.56,2.82L80.1,4.8C89.7,2.82,96.54-1.14,99.84-6.6c2.1-3.36,3.66-9,4.2-15.54h15.42c-.24,6.18-.72,11.82-1.56,18.96-.42,3.66-1.26,4.62-4.2,4.68h-7.56V4.02H117c3.66.06,5.4-1.26,6.06-4.74.6-2.82,1.5-13.86,1.86-23.82H91.74l-2.4-.48v3.36l2.4-.48Zm8.52-24.18h8.28c1.2,10.2,6.9,19.32,16.2,25.8a43.924,43.924,0,0,1,3.3-5.76,36.432,36.432,0,0,1-9.6-7.38c-4.5-5.04-6.42-9.06-7.2-15.18H106.98l-2.4-.48v3.48ZM80.76-19.26c7.56-5.34,12.78-11.4,18.12-21.24,1.56-.18,2.22-.66,2.22-1.44,0-.48-.36-.84-1.14-1.2l-5.1-2.4c-4.98,11.16-9.06,17.82-15.3,24.78Z" transform="translate(1087 3288.392)" fill="#ee510d" stroke="rgba(0,0,0,0)" stroke-width="1"/>
    <path id="パス_40" data-name="パス 40" d="M-159.672-6.408v6.12c0,.744-.312,1.056-1.032,1.056h-1.968V1.776h2.784c1.464,0,2.088-.576,2.064-1.944V-19.224h-7.728v4.032c0,7.08-.264,10.9-.864,12.552A8.93,8.93,0,0,1-169.2,1.416l.432.5c3.048-1.608,4.464-4.128,4.752-8.328Zm0-.96h-4.272V-7.44l.1-1.752c0-.144,0-.768.024-1.656,0-.192,0-.984.024-1.632h4.128Zm0-6.072h-4.1l.024-1.752v-3.072h4.08Zm-15-3.336v-2.448c.312-.216.384-.312.384-.48,0-.216-.168-.312-.5-.312h-1.68v3.24H-177.5l-.96-.192v1.344l.96-.192h1.032v10.3h-1.488l-.96-.192v1.344l.96-.192h10.44l.96.192V-5.712l-.96.192h-1.032v-10.3h1.056l.96.192v-1.344l-.96.192h-1.056v-2.448c.312-.216.384-.312.384-.456,0-.24-.168-.336-.5-.336h-1.68v3.24Zm0,.96h4.32V-13.2h-4.32Zm0,10.3V-8.568h4.32V-5.52Zm4.32-6.72v2.712h-4.32V-12.24Zm-8.352,13.3a15.071,15.071,0,0,0,4.176-3.264c.5,0,.816-.144.816-.384a.452.452,0,0,0-.24-.36l-1.608-1.08a22.188,22.188,0,0,1-3.48,4.56Zm7.056-4.272A26.619,26.619,0,0,1-169.056.168l1.464-1.464a15.433,15.433,0,0,0-3.576-2.472Zm32.52,2.28v-8.5h-10.08V.48h1.848V-.936Zm-8.232-4.8V-8.472h6.384v2.736Zm0,.96h6.384V-1.9h-6.384Zm1.992-14.52h-8.664V1.776h1.9v-13.32h6.768Zm-6.768.96h4.968v2.376h-4.968ZM-147.168-15v2.5h-4.968V-15Zm4.224-4.3v7.752h7.08V-.456c0,.768-.336,1.1-1.1,1.1h-2.016V1.656h3.312c1.2,0,1.7-.5,1.7-1.728V-19.3Zm1.8,4.3h5.28v2.5h-5.28Zm0-.96v-2.376h5.28v2.376Zm22.1.456v-3.72c.312-.216.384-.312.384-.48,0-.216-.168-.312-.5-.312h-1.968V-15.5h-8.736V-4.08h2.088V-5.64h6.648V1.776h2.088V-5.64h6.84v1.368h2.088V-15.5Zm0,.96h6.84V-6.6h-6.84ZM-121.128-6.6h-6.648v-7.944h6.648Zm33.96-10.056a19.085,19.085,0,0,0-3.072-.216A13.734,13.734,0,0,0-97.656-15l.168.72a29.093,29.093,0,0,1,5.9-.624,20.382,20.382,0,0,1,4.416.432Zm-16.56-2.232.024,1.152a90.533,90.533,0,0,0-.72,11.088A36.445,36.445,0,0,0-103.848.7l2.184-.408a36.179,36.179,0,0,1-.672-7.656,81.638,81.638,0,0,1,.744-10.176c.36-.24.5-.408.5-.6s-.192-.36-.5-.408Zm6,10.2a6.459,6.459,0,0,0-.792,3.1,4.361,4.361,0,0,0,2.352,4.1,12.186,12.186,0,0,0,5.448.912,27.812,27.812,0,0,0,4.464-.336v-2.3a25.2,25.2,0,0,1-5.256.5,8.626,8.626,0,0,1-4.32-.792A3.157,3.157,0,0,1-97.32-6.432,6.744,6.744,0,0,1-97.008-8.5ZM-60.72-17.9a4.806,4.806,0,0,0-2.832-2.5l-.384.336a9.646,9.646,0,0,1,1.608,3.024Zm-5.136.792a20.568,20.568,0,0,0-4.272-.36c-4.128,0-6.432.408-9.1,1.608l.192.816a40.435,40.435,0,0,1,6.768-.552,22.567,22.567,0,0,1,6.408.768ZM-79.392-8.4a7.625,7.625,0,0,0-1.3,4.056C-80.688-2.4-79.3-.816-76.872,0a22.471,22.471,0,0,0,6.216.7A51.626,51.626,0,0,0-63.7.24V-2.208a37.394,37.394,0,0,1-7.56.72c-5.472,0-8.088-1.248-8.088-3.864A6.088,6.088,0,0,1-78.6-8.064Zm12.7-11.4A9.92,9.92,0,0,1-65.3-16.68l1.632-.768a4.791,4.791,0,0,0-2.592-2.664Zm28.272,4.776.96.192v-1.344l-.96.192h-6.72c-.024-.552-.048-1.1-.048-1.872v-1.488c.312-.24.384-.312.384-.48,0-.216-.168-.312-.5-.312h-1.8v2.28c0,.744.024,1.32.048,1.872H-57.216V-13.3c.072,9.384-.216,11.544-1.824,14.568l.5.408a9.971,9.971,0,0,0,2.928-5.568,30.1,30.1,0,0,0,.36-6.024h4.776c-.024,1.656-.144,3.72-.264,5.4-.1,1.032-.384,1.344-1.272,1.368h-1.9v1.008h2.832c1.2,0,1.872-.432,2.112-1.44a61.7,61.7,0,0,0,.36-7.3h-6.648l.024-2.424v-1.728h8.208a29.239,29.239,0,0,0,2.352,10.68A19.344,19.344,0,0,1-51.672.936l.216.72a17.145,17.145,0,0,0,7.68-4.416c1.584,2.616,3.576,4.416,4.944,4.416.48,0,.96-.5,1.224-1.3a15.715,15.715,0,0,0,.624-4.44l-.864-.12c-.264,2.76-.528,3.744-.96,3.744a2.044,2.044,0,0,1-.984-.552,11.551,11.551,0,0,1-2.592-3.168l-.048-.12-.048-.072a32.163,32.163,0,0,0,3.336-6.192c.456-.12.648-.264.648-.528,0-.216-.144-.36-.456-.5l-1.728-.672a24.961,24.961,0,0,1-2.664,6.1A26.726,26.726,0,0,1-45.1-15.024Zm-4.8-4.248a14.788,14.788,0,0,1,1.776,2.736l1.92-1.368a8.871,8.871,0,0,0-3.144-1.752ZM-30.84,1.776h1.848V-8.9h.072l1.08-.216c.288-.072.576-.12.84-.192.168.5.264.864.48,1.7l1.8-.84a8.439,8.439,0,0,0-2.9-3.816l-.552.312a10.476,10.476,0,0,1,.936,1.92l-.456.048c-1.008.048-1.56.072-3.384.144h-.288a58.532,58.532,0,0,0,4.776-5.568c.528-.048.72-.192.72-.48a.4.4,0,0,0-.24-.36l-1.728-.96a54.355,54.355,0,0,1-4.68,7.344l-.048.072H-33.1l-.5.024-1.44.024.5,1.68a.464.464,0,0,0,.36.312c.168,0,.312-.12.528-.408,1.776-.264,1.92-.264,2.808-.432ZM-34.92-15.84a19.463,19.463,0,0,1,3.1,3.984l1.224-1.776a6.3,6.3,0,0,0-1.656-1.392,25.049,25.049,0,0,0,2.712-3.36c.576-.12.768-.264.768-.528a.473.473,0,0,0-.336-.408l-1.968-.84a24.315,24.315,0,0,1-1.9,4.656,8.566,8.566,0,0,0-1.608-.864Zm13.224.288c.336-.672.576-1.248,1.3-3.1.48-.12.7-.288.7-.552a.557.557,0,0,0-.432-.456l-2.136-.5a29.587,29.587,0,0,1-3.432,8.9l.576.456A16.769,16.769,0,0,0-22.2-14.592h6.408c-.144,6.216-.744,14.184-1.08,14.5a1.264,1.264,0,0,1-1.392.744h-3.072V1.656h4.08c1.8.024,2.5-.672,2.712-2.592.288-2.208.768-10.1.864-14.616ZM-27.912-6.6a28.377,28.377,0,0,1,1.248,5.328l1.944-.84A13.7,13.7,0,0,0-27.264-6.84Zm-6.6,6.456a16.755,16.755,0,0,0,2.4-5.256c.408-.12.576-.264.576-.5,0-.192-.1-.312-.36-.384l-1.9-.552A30.106,30.106,0,0,1-35.04-.408Zm11.064-9.672a19.854,19.854,0,0,1,2.76,5.448L-18.7-5.712a13.816,13.816,0,0,0-4.128-4.536ZM-1.608-5.28C-2.16-3.1-2.9-1.632-3.48-1.632-4.032-1.632-4.9-2.76-5.568-4.3c-.888-2.112-1.344-5.5-1.344-10.272V-16.1c.408-.288.528-.432.528-.672s-.24-.408-.6-.432l-2.16-.144.12,1.44c.024,3.1.048,4.752.048,4.968a22.594,22.594,0,0,0,1.44,7.56C-6.5-.888-5.208.432-3.84.432c1.344,0,2.52-1.92,3.288-5.376Zm12.384.192C9.984-9.744,7.608-14.064,4.632-16.3l-.6.456A29.232,29.232,0,0,1,8.472-4.056Zm8.16-9.6A71.663,71.663,0,0,1,13.944.288L16.08.912a83.259,83.259,0,0,0,4.944-15.648,57.232,57.232,0,0,0,8.016-.6l.1-1.656-1.656.72c-2.136.24-3.024.336-5.04.408-.1,0-.6.024-1.176.048v-.048l.072-.36c.1-.48.192-.936.456-2.208.288-.192.432-.36.432-.576a.457.457,0,0,0-.408-.408L19.7-19.848l-.048,1.512c-.216,1.152-.264,1.488-.5,2.592H15.24l-1.512-.5.144,1.608h1.56c.84,0,1.152,0,2.616-.024ZM23.4-6.408a6.763,6.763,0,0,0-.816,3.168c0,2.808,2.3,4.056,7.464,4.056A25.42,25.42,0,0,0,34.1.528V-1.8a17.672,17.672,0,0,1-4.584.552,9.688,9.688,0,0,1-4.584-.84,2.105,2.105,0,0,1-1.128-1.968,7.33,7.33,0,0,1,.36-2.136Zm9.744-5.928a15.521,15.521,0,0,0-2.544-.192,15.1,15.1,0,0,0-4.776.744,7.114,7.114,0,0,0-1.7.792l.192.7a24.079,24.079,0,0,1,4.44-.384,15.667,15.667,0,0,1,4.392.5Zm9.5-2.3A70.806,70.806,0,0,1,37.656.336l2.136.6a80.43,80.43,0,0,0,4.944-15.624h.216a59.264,59.264,0,0,0,7.728-.6l.072-1.656-1.656.7c-1.9.24-3.12.336-6.048.456h-.072v-.072c.072-.288.12-.552.192-.816.048-.264.192-.96.336-1.7.312-.216.456-.384.456-.576a.507.507,0,0,0-.432-.432L43.416-19.8l-.048,1.488c-.216,1.2-.312,1.656-.5,2.592H38.952l-1.512-.5.144,1.608c3.552,0,3.984,0,4.8-.024ZM59.28-17.9a4.739,4.739,0,0,0-2.832-2.5l-.384.336a9.694,9.694,0,0,1,1.608,3.024ZM47.112-6.336A6.674,6.674,0,0,0,46.3-3.192C46.3-.408,48.6.864,53.688.864A26.529,26.529,0,0,0,57.816.576V-1.752a18.335,18.335,0,0,1-4.608.552q-5.688,0-5.688-2.736a6.841,6.841,0,0,1,.36-2.184Zm9.768-5.976a17.83,17.83,0,0,0-2.472-.168,12.912,12.912,0,0,0-6.552,1.512l.192.72a21.7,21.7,0,0,1,4.44-.384,16.764,16.764,0,0,1,4.392.48ZM53.256-19.7a10.6,10.6,0,0,1,1.464,3.288l1.608-.768a4.681,4.681,0,0,0-2.64-2.832ZM70.392-5.28C69.84-3.1,69.1-1.632,68.52-1.632c-.552,0-1.416-1.128-2.088-2.664-.888-2.112-1.344-5.5-1.344-10.272V-16.1c.408-.288.528-.432.528-.672s-.24-.408-.6-.432l-2.16-.144.12,1.44c.024,3.1.048,4.752.048,4.968a22.6,22.6,0,0,0,1.44,7.56C65.5-.888,66.792.432,68.16.432c1.344,0,2.52-1.92,3.288-5.376Zm12.384.192c-.792-4.656-3.168-8.976-6.144-11.208l-.6.456a29.232,29.232,0,0,1,4.44,11.784Zm8.16-9.6A71.663,71.663,0,0,1,85.944.288L88.08.912a83.26,83.26,0,0,0,4.944-15.648,57.232,57.232,0,0,0,8.016-.6l.1-1.656-1.656.72c-2.136.24-3.024.336-5.04.408-.1,0-.6.024-1.176.048v-.048l.072-.36c.1-.48.192-.936.456-2.208.288-.192.432-.36.432-.576a.457.457,0,0,0-.408-.408L91.7-19.848l-.048,1.512c-.216,1.152-.264,1.488-.5,2.592H87.24l-1.512-.5.144,1.608h1.56c.84,0,1.152,0,2.616-.024ZM95.4-6.408a6.763,6.763,0,0,0-.816,3.168c0,2.808,2.3,4.056,7.464,4.056A25.42,25.42,0,0,0,106.1.528V-1.8a17.672,17.672,0,0,1-4.584.552,9.688,9.688,0,0,1-4.584-.84,2.105,2.105,0,0,1-1.128-1.968,7.33,7.33,0,0,1,.36-2.136Zm9.744-5.928a15.521,15.521,0,0,0-2.544-.192,15.1,15.1,0,0,0-4.776.744,7.114,7.114,0,0,0-1.7.792l.192.7a24.079,24.079,0,0,1,4.44-.384,15.667,15.667,0,0,1,4.392.5ZM116.9-10.32a12.255,12.255,0,0,0-3.768,1.8,5.786,5.786,0,0,0-2.664,4.728c0,2.856,2.4,4.992,5.64,4.992a3.353,3.353,0,0,0,2.112-.624,2.94,2.94,0,0,0,.7-2.16V-9.576a16.99,16.99,0,0,1,2.64-.216,7.636,7.636,0,0,1,3.912.84A4.52,4.52,0,0,1,127.656-4.9,4.126,4.126,0,0,1,123.576-.5a4.738,4.738,0,0,1-2.256-.6l-.36.672A4.823,4.823,0,0,0,124.3.744a5.333,5.333,0,0,0,5.544-5.5,5.738,5.738,0,0,0-2.856-5.088,10.473,10.473,0,0,0-5.376-1.128,15.729,15.729,0,0,0-2.688.216v-4.056c2.3-.12,5.112-.384,6.384-.6l.1-1.776-1.464.744a32.469,32.469,0,0,1-5.016.528V-18.84c.36-.24.48-.384.48-.6s-.216-.384-.5-.408l-2.184-.168.192,1.488v2.688c-.576.024-.96.024-1.344.024-1.176,0-1.944-.024-3.192-.12l-1.44-.48.144,1.56c1.992.12,2.928.144,4.344.144.624,0,1.008,0,1.488-.024Zm0,8.544c0,1.2-.312,1.632-1.152,1.632a3.578,3.578,0,0,1-3.432-3.72,4.674,4.674,0,0,1,1.32-3.144A7.972,7.972,0,0,1,116.9-9.072Zm9.144-16.368a14.239,14.239,0,0,1,3,4.776L131.04-14.5a7.941,7.941,0,0,0-4.608-4.032Zm16.776.408H136.08a3.679,3.679,0,0,0-.072-1.032h-.816a6.322,6.322,0,0,1-2.232,3.936l1.392,1.752a5.089,5.089,0,0,0,1.68-3.7h16.224a23.293,23.293,0,0,1-.936,2.856l.624.36a9.04,9.04,0,0,0,3.1-4.176H144.96v-1.608c.312-.24.384-.336.384-.5,0-.216-.168-.312-.5-.312h-2.016Zm-2.256,3.624c.24-.24.408-.456.888-.984.5-.048.744-.192.744-.456a.334.334,0,0,0-.24-.288l-1.968-.624a20.713,20.713,0,0,1-6.7,6.6l.336.528a16.19,16.19,0,0,0,5.5-3.312A13.578,13.578,0,0,0,142.56-8.88a40.239,40.239,0,0,1-9.6,3.624l.216.72A31.179,31.179,0,0,0,144.12-7.872,28.851,28.851,0,0,0,154.176-4.8a10.409,10.409,0,0,1,.864-2.016,29.98,29.98,0,0,1-9.264-2.064,24.178,24.178,0,0,0,5.544-5.232Zm-.912.96h8.232a21.664,21.664,0,0,1-3.936,3.408,13.2,13.2,0,0,1-4.32-3.384Zm9.96,14.16v.768h1.992V-4.9H136.464V1.9h1.992V1.008Zm0-.96h-11.16V-3.936h11.16Zm10.656,1.728h1.776V-9.984a16.7,16.7,0,0,1,1.368,3.48l1.368-1.272a7.4,7.4,0,0,0-2.736-3.048V-14.04h1.536l.96.192v-1.344l-.96.192h-1.536v-4.224c.288-.216.384-.312.384-.48,0-.216-.168-.312-.528-.312h-1.632V-15H158.04l-.936-.192v1.344l.936-.192h2.04a42.292,42.292,0,0,1-3.12,10.2l.528.36a23.489,23.489,0,0,0,2.784-5.256ZM170.4-8.928v8.52c-.024.792-.288,1.032-1.08,1.056H167.9V1.656h2.3c1.44,0,2.04-.552,2.04-1.9V-6.264A14.574,14.574,0,0,0,177.936.408a15.394,15.394,0,0,1,1.08-1.944,15.779,15.779,0,0,1-4.632-3.216A25.625,25.625,0,0,0,177.24-6.36h.288c.408,0,.648-.168.648-.432a.3.3,0,0,0-.144-.264L176.52-8.232a29.29,29.29,0,0,1-2.664,2.952,10.636,10.636,0,0,1-1.608-2.28V-8.928h5.568l.936.192V-10.08l-.936.192h-5.568V-12.48h4.08l.96.192v-1.344l-.96.192h-4.08v-2.352H177.5l.96.192v-1.344l-.96.192H173.76a10.1,10.1,0,0,0,1.9-2.088c.432-.048.648-.192.648-.456,0-.192-.12-.288-.408-.36l-1.848-.5a18.442,18.442,0,0,1-1.176,3.408H168.5l1.56-.96a8.022,8.022,0,0,0-2.808-2.328l-.528.312a13.2,13.2,0,0,1,1.392,2.976h-2.5l-.936-.192V-15.6l.936-.192H170.4v2.352h-3.72l-.96-.192v1.344l.96-.192h3.72v2.592h-4.872l-.936-.192v1.344l.936-.192ZM164.04-.312c.1.24.264.408.432.408.192,0,.336-.192.456-.624a29.988,29.988,0,0,0,4.9-3.12l-.24-.6a40.33,40.33,0,0,1-6.264,2.28Zm1.416-7.224a13.212,13.212,0,0,1,1.824,2.952l1.608-1.248a8.443,8.443,0,0,0-2.9-2.16Zm-340.592,53.1,1.28-1.28-28.16-28.16-1.28,1.28Zm46.688-26.016c.32-.384.672-.832,1.376-1.728.768-.128,1.056-.288,1.056-.64,0-.224-.224-.448-.576-.512l-2.752-.544a37.609,37.609,0,0,1-9.12,10.336l.48.8a27.628,27.628,0,0,0,7.552-5.5l.064.1a19,19,0,0,0,4.352,6.3,41.392,41.392,0,0,1-13.28,6.272l.288.992c6.88-1.472,10.4-2.848,14.784-5.76,2.912,2.208,8.352,4.416,13.28,5.376a28.122,28.122,0,0,1,1.088-2.88,33.348,33.348,0,0,1-12.352-3.936,34.8,34.8,0,0,0,7.9-8.672Zm-1.12,1.28h11.04a34.462,34.462,0,0,1-5.792,6.016,18.581,18.581,0,0,1-5.28-5.984Zm14.816,24.384V34.424h-19.3V45.368h2.752V43.8H-117.5v1.408ZM-117.5,42.52H-131.3V35.7H-117.5Zm24.9-8.544h-7.424V45.368h2.624v-1.76h14.336v1.536h2.688V33.976H-89.92V28.6H-80.7l1.216.256V27.064l-1.216.256H-89.92V23.512c.416-.288.512-.416.512-.64,0-.288-.224-.416-.672-.416h-2.528Zm-4.8,8.352V35.256h14.336v7.072Zm7.264-22.656v-2.5c.416-.288.512-.416.512-.64,0-.288-.224-.416-.672-.416h-2.752v3.552H-104.8V24.92c0,12.064-.384,15.264-2.5,19.9l.7.448a16.375,16.375,0,0,0,3.648-6.88c.608-2.112.864-5.888.9-13.472V20.952h22.5l1.28.256V19.416l-1.28.256Zm31.232,10.016V23.1h8.192l1.28.256V21.56l-1.28.256h-8.192V17.368c.416-.288.512-.416.512-.64,0-.288-.224-.416-.672-.416h-2.656v5.5h-5.5c.32-.672.544-1.152.992-2.272.7-.16,1.024-.416,1.024-.768,0-.256-.192-.448-.512-.544l-2.944-.864a36.078,36.078,0,0,1-4.32,10.4l.768.608A18.337,18.337,0,0,0-67.9,23.1h6.176v6.592h-11.68l-1.28-.256v1.792l1.28-.256h7.264v.32c-.032,3.328-1.12,6.944-2.624,8.64A12.523,12.523,0,0,1-75.3,44.152l.352,1.056c7.808-1.5,11.584-5.952,11.616-13.76v-.48h4.7V41.24c0,2.5.864,3.2,3.9,3.168h5.152c2.144,0,3.072-.832,3.3-3.008l.416-3.808-1.44-.224-.352,2.944c-.128,1.12-.608,1.536-1.728,1.536H-54.24c-1.312-.064-1.632-.288-1.632-1.312V30.968h8.16l1.248.256V29.432l-1.248.256ZM-36.768,45.56h2.5V44.28H-19.84v1.088h2.56V31.608H-34.336a20.237,20.237,0,0,0,1.888-2.72h17.12l1.28.256V27.352l-1.28.256H-27.3v-2.72h8.672l1.28.256V23.352l-1.28.256H-27.3v-2.56h10.72l1.28.256V19.512l-1.28.256H-23.52a7.911,7.911,0,0,0,2.144-1.824c.608-.064.96-.32.96-.64,0-.224-.224-.416-.48-.48l-2.976-.7a22.823,22.823,0,0,1-1.088,3.648h-8.992l2.4-1.44a13.18,13.18,0,0,0-3.936-2.208l-.768.352a19.76,19.76,0,0,1,1.728,3.3h-5.888l-1.248-.256V21.3l1.248-.256h10.5v2.56h-8.448l-1.248-.256v1.792l1.248-.256h8.448v2.72H-41.632l-1.248-.256v1.792l1.248-.256h6.272A24.416,24.416,0,0,1-43.3,37.272l.384.768a24.928,24.928,0,0,0,6.144-3.9Zm2.5-2.56V40.312H-19.84V43Zm0-3.968V36.568H-19.84v2.464Zm0-3.744v-2.4H-19.84v2.4ZM2.736,26.2q6.72,2.16,6.72,7.968a8.247,8.247,0,0,1-1.56,5.04,9.972,9.972,0,0,1-4.032,3.216,12.519,12.519,0,0,1-5.16,1.1A10.381,10.381,0,0,1-6.84,42.04a10.961,10.961,0,0,1-3.816-3.888l1.536-.96a7.709,7.709,0,0,0,3.264,3.216A9.083,9.083,0,0,0-1.68,41.464,7.452,7.452,0,0,0,1.656,40.7,6.183,6.183,0,0,0,4.2,38.344a7.137,7.137,0,0,0,.984-3.84A6.813,6.813,0,0,0,3.24,29.392a6.637,6.637,0,0,0-4.824-1.9h-1.2V26.008a8.135,8.135,0,0,0,3.312-.72,6.256,6.256,0,0,0,2.688-2.28A6.827,6.827,0,0,0,4.272,19.1,7.133,7.133,0,0,0,2.928,14.7,4.555,4.555,0,0,0-.96,12.9a4.579,4.579,0,0,0-4.1,2.088A10.53,10.53,0,0,0-6.624,20.2H-9.216V14.44a9.5,9.5,0,0,1,3.552-2.3,12.793,12.793,0,0,1,4.7-.864,11.622,11.622,0,0,1,4.656.912,8.082,8.082,0,0,1,3.384,2.64A6.694,6.694,0,0,1,8.352,18.9Q8.352,23.752,2.736,26.2Zm32.816-5.536a42.449,42.449,0,0,1-7.36,7.392,25.934,25.934,0,0,0-6.368-3.36l-.8.7a27.425,27.425,0,0,1,4.8,4.48l-.1.064a50.119,50.119,0,0,1-11.872,6.528l.32,1.056a51.709,51.709,0,0,0,6.944-2.656v10.5h2.752V43.736h13.92v1.472h2.816V32.888H25.088A41.28,41.28,0,0,0,29.44,30.1a39.781,39.781,0,0,0,10.528-10.72H25.952l.1-.1,1.184-1.408c.832-.1,1.152-.288,1.152-.64,0-.256-.224-.448-.576-.512L24.9,16.12A40.049,40.049,0,0,1,14.4,26.9l.512.832a29.789,29.789,0,0,0,9.92-7.072Zm-11.68,13.5h13.92v8.288H23.872Zm26.4,11.2H52.64V29.688a22.264,22.264,0,0,1,1.824,4.64l1.824-1.7a9.862,9.862,0,0,0-3.648-4.064V24.28h2.048l1.28.256V22.744L54.688,23H52.64V17.368c.384-.288.512-.416.512-.64,0-.288-.224-.416-.7-.416H50.272V23H47.3l-1.248-.256v1.792L47.3,24.28h2.72a56.389,56.389,0,0,1-4.16,13.6l.7.48a31.318,31.318,0,0,0,3.712-7.008ZM63.776,31.1v11.36c-.032,1.056-.384,1.376-1.44,1.408H60.448v1.344H63.52c1.92,0,2.72-.736,2.72-2.528V34.648a19.432,19.432,0,0,0,7.584,8.9,20.524,20.524,0,0,1,1.44-2.592,21.04,21.04,0,0,1-6.176-4.288A34.165,34.165,0,0,0,72.9,34.52h.384c.544,0,.864-.224.864-.576a.4.4,0,0,0-.192-.352l-2.016-1.568a39.051,39.051,0,0,1-3.552,3.936,14.181,14.181,0,0,1-2.144-3.04V31.1h7.424l1.248.256V29.56l-1.248.256H66.24V26.36h5.44l1.28.256V24.824l-1.28.256H66.24V21.944h7.008l1.28.256V20.408l-1.28.256H68.256a13.467,13.467,0,0,0,2.528-2.784c.576-.064.864-.256.864-.608,0-.256-.16-.384-.544-.48L68.64,16.12a24.588,24.588,0,0,1-1.568,4.544H61.248l2.08-1.28a10.7,10.7,0,0,0-3.744-3.1l-.7.416a17.6,17.6,0,0,1,1.856,3.968H57.408l-1.248-.256V22.2l1.248-.256h6.368V25.08h-4.96l-1.28-.256v1.792l1.28-.256h4.96v3.456h-6.5l-1.248-.256v1.792L57.28,31.1ZM55.3,42.584c.128.32.352.544.576.544.256,0,.448-.256.608-.832a39.985,39.985,0,0,0,6.528-4.16l-.32-.8a53.774,53.774,0,0,1-8.352,3.04Zm1.888-9.632a17.616,17.616,0,0,1,2.432,3.936l2.144-1.664a11.258,11.258,0,0,0-3.872-2.88ZM100.768,37.5a32.516,32.516,0,0,0,5.024-2.944h.288c.48,0,.832-.224.832-.544a.774.774,0,0,0-.384-.576l-2.048-1.6a21.4,21.4,0,0,1-3.744,4.224c-.288.256-.48.448-.7.64a16.241,16.241,0,0,1-2.56-5.728h7.776v-13.7H90.24V41.5c-1.6.352-1.856.416-3.744.768l1.056,2.528q.24.576.576.576c.352,0,.544-.256.608-.8a52.5,52.5,0,0,0,10.752-4.8,17.028,17.028,0,0,0,5.888,5.632,11.045,11.045,0,0,1,1.92-2.688,19.075,19.075,0,0,1-6.624-5.184Zm-8.032-6.528h3.52l.032.1a20.179,20.179,0,0,0,2.72,7.968c-2.464.8-3.872,1.216-6.272,1.856Zm0-1.28v-5.12h9.952v5.12Zm0-6.4V18.552h9.952v4.736ZM79.36,17.272v28h2.5V18.552h4a61.269,61.269,0,0,1-2.592,8.416A21.553,21.553,0,0,1,84.8,29.72a11.771,11.771,0,0,1,.832,4.7,3.666,3.666,0,0,1-.576,2.368,2.58,2.58,0,0,1-1.7.576h-.64v1.344h.768c1.984,0,3.232-.448,3.9-1.408a5.69,5.69,0,0,0,.8-3.2c0-2.56-.928-4.448-3.52-7.264a37.149,37.149,0,0,0,4.48-9.568Zm46.752,10.016h9.152l1.28.256V25.752l-1.28.256h-21.12l-1.28-.256v1.792l1.28-.256h9.28v14.08a9.556,9.556,0,0,1-6.208-4.992,37.387,37.387,0,0,0,1.056-4.544c.576-.288.832-.512.832-.8,0-.32-.256-.512-.736-.608l-2.784-.544c-.384,6.3-2.528,11.936-5.728,14.976l.576.736a14.718,14.718,0,0,0,6.4-8c1.536,3.1,3.264,4.832,5.92,5.856,2.24.864,5.888,1.184,13.856,1.184h1.6a12.246,12.246,0,0,1,1.088-2.656c-3.1.064-4.544.1-6.112.1-2.816,0-5.024-.064-7.072-.224v-7.04h7.9l1.28.256V33.272l-1.28.256h-7.9ZM122.976,19.9h-8.928v-.1a4.236,4.236,0,0,0-.1-1.312h-1.088a8.274,8.274,0,0,1-3.008,5.152l1.984,2.4a6.392,6.392,0,0,0,2.144-4.864H135.52a24.3,24.3,0,0,1-1.792,3.68l.7.48c2.656-1.856,4.192-3.584,4.864-5.44H125.888v-2.72c.384-.288.512-.416.512-.64,0-.288-.224-.416-.672-.416h-2.752Zm79.04-3.776-28.16,28.16,1.28,1.28L203.3,17.4Z" transform="translate(1087 3175.4)" fill="#2d253a" stroke="rgba(0,0,0,0)" stroke-width="1"/>
  </g>
</svg>
