<svg xmlns="http://www.w3.org/2000/svg" width="370.97" height="206.536" viewBox="0 0 370.97 206.536">
  <g id="price03-sp" transform="translate(-765 -2166.614)">
    <rect id="bg" width="370.97" height="206.536" transform="translate(765 2166.614)" fill="#0653b6"/>
    <g id="グループ_370" data-name="グループ 370" transform="translate(2)">
      <path id="パス_716" data-name="パス 716" d="M5.72-14.638v5.824A22.107,22.107,0,0,1,1.274-7.358l.572,1.82a6.649,6.649,0,0,1,.624-.286c.494-.208.494-.208.65-.26.416-.182.988-.416,1.638-.676.7-.286.7-.286.962-.39V-.7a15.887,15.887,0,0,1-.182,2.73h1.95A18.516,18.516,0,0,1,7.306-.7V-7.878c1.248-.6,1.378-.676,2.418-1.248v1.612a17.68,17.68,0,0,1,2.522-.156H19.89V-.624c0,.6-.182.7-1.144.7a18.994,18.994,0,0,1-2.99-.338,5.343,5.343,0,0,1,.39,1.768c.988.052,1.924.1,2.652.1,2.08,0,2.7-.442,2.7-1.9V-7.67h.676a17.68,17.68,0,0,1,2.522.156V-9.282a15.765,15.765,0,0,1-2.522.156H21.5v-3.016h.65a17.949,17.949,0,0,1,2.574.156v-1.768a17.879,17.879,0,0,1-2.652.156H17.6v-3.458H21.19a22.157,22.157,0,0,1,2.47.13v-1.716a15.488,15.488,0,0,1-2.47.156H17.6v-1.066a12.662,12.662,0,0,1,.156-2.106h-1.9a13.115,13.115,0,0,1,.156,2.106v1.066h-2.86a15.488,15.488,0,0,1-2.47-.156v1.716a21.8,21.8,0,0,1,2.47-.13h2.86V-13.6H12.35A17.4,17.4,0,0,1,9.7-13.754v1.768a17.879,17.879,0,0,1,2.652-.156h7.54v3.016H12.35a14.906,14.906,0,0,1-2.392-.13l.1-.052-.026-1.56c-1.222.65-1.664.858-2.73,1.352v-5.122H7.93a18.4,18.4,0,0,1,2.21.13V-16.25a13.145,13.145,0,0,1-2.262.156H7.306v-3.432a10.612,10.612,0,0,1,.182-2.158H5.538a10.959,10.959,0,0,1,.182,2.158v3.432H3.874c.156-1.066.26-1.794.312-2.444.052-.442.052-.52.1-.832l-1.664-.26c.026.312.026.494.026.7a18.211,18.211,0,0,1-.364,3.276A16.562,16.562,0,0,1,1.014-11.44a6.758,6.758,0,0,1,1.43.728,18.66,18.66,0,0,0,1.144-3.926Zm5.772,8.814a21.7,21.7,0,0,1,3.614,4.368L16.484-2.47a27.487,27.487,0,0,0-3.718-4.238Zm19.916-6.994c-.026,1.482-.052,1.976-.13,3.016-.26,3.328-.728,5.148-1.768,7.02A10.383,10.383,0,0,1,26.936.338,3.607,3.607,0,0,1,28.184,1.69c2.73-2.652,4.056-5.512,4.6-9.854h4.68a46.658,46.658,0,0,1-.442,6.994c-.13.7-.39.91-1.144.91a13.982,13.982,0,0,1-2.938-.364,5.418,5.418,0,0,1,.312,1.716A19.771,19.771,0,0,0,35.88,1.3c1.482,0,2.106-.286,2.47-1.144.442-.988.728-3.926.78-8.32a8.067,8.067,0,0,1,.1-1.586,16.159,16.159,0,0,1-2.5.13h-3.8c.1-1.456.1-1.456.156-3.2h3.224c1.3,0,2.158.026,2.964.1a18.079,18.079,0,0,1-.1-2.366v-3.068a22.4,22.4,0,0,1,.1-2.418,18.114,18.114,0,0,1-2.964.13H31.33a20.656,20.656,0,0,1-2.99-.13,22.3,22.3,0,0,1,.1,2.444v2.964a21.7,21.7,0,0,1-.1,2.444,27.3,27.3,0,0,1,2.886-.1ZM30.056-18.98H37.57v4.706H30.056Zm12.012-1.3a20.493,20.493,0,0,1,.156,2.964V-7.28a19.324,19.324,0,0,1-.13,3.016h1.924a19.113,19.113,0,0,1-.13-3.016V-17.316a19.528,19.528,0,0,1,.156-2.964Zm5.746-1.092A21.877,21.877,0,0,1,48-18.1V-1.04c0,.65-.208.78-1.222.78a26.011,26.011,0,0,1-3.38-.286,7.526,7.526,0,0,1,.52,1.742c1.2.078,2,.1,2.756.1,2.47,0,2.99-.416,2.99-2.34V-18.1a21.2,21.2,0,0,1,.182-3.276ZM65.65-8.112V-9.386a11.114,11.114,0,0,1,.1-1.768H63.986a11.114,11.114,0,0,1,.1,1.768v1.274H56.706a14.342,14.342,0,0,1-2.73-.156v1.742a23.1,23.1,0,0,1,2.912-.156h6.136A22.633,22.633,0,0,1,53.586-.52a4.571,4.571,0,0,1,.988,1.56A30.75,30.75,0,0,0,60.4-2.34a23.459,23.459,0,0,0,3.77-3.588c-.052.884-.078,1.612-.078,2.236V-.52a12.763,12.763,0,0,1-.156,2.47h1.872A11.254,11.254,0,0,1,65.65-.52V-3.692c0-.6-.026-1.3-.078-2.288a20.5,20.5,0,0,0,3.458,3.3A27.544,27.544,0,0,0,75.79,1.17,7.912,7.912,0,0,1,76.8-.468a26.1,26.1,0,0,1-7.358-3.718,16.4,16.4,0,0,1-2.756-2.5h6.552a23.257,23.257,0,0,1,2.938.156V-8.268a16.274,16.274,0,0,1-2.886.156ZM70.8-19.89a14.87,14.87,0,0,1-2.418.13H62.608c.832-1.014,1.2-1.456,1.534-1.82l-1.768-.52A15.217,15.217,0,0,1,59.1-18.2a19.138,19.138,0,0,1-4.862,3.016,3.953,3.953,0,0,1,1.04,1.222,18.561,18.561,0,0,0,5.044-3.354,21.559,21.559,0,0,0,3.458,3.068,29.4,29.4,0,0,1-10.218,3.38,4.011,4.011,0,0,1,.754,1.482,35.127,35.127,0,0,0,7.566-2.366,27.034,27.034,0,0,0,3.25-1.612,19.758,19.758,0,0,0,3.016,1.56,36.7,36.7,0,0,0,7.9,2.236,5.318,5.318,0,0,1,.832-1.56,31.717,31.717,0,0,1-10.322-3.12,26.444,26.444,0,0,0,4.888-4.238,2.393,2.393,0,0,1,.338-.364ZM61.49-18.434h7.748a22.127,22.127,0,0,1-4.108,3.38,16.556,16.556,0,0,1-3.822-3.2Zm32.162,2.626H89.934c.338-.91.52-1.4.91-2.678.234-.7.312-.962.468-1.4l-1.794-.52a13.774,13.774,0,0,1-.884,3.458,19.089,19.089,0,0,1-3.146,5.72,5.187,5.187,0,0,1,1.482,1.014A22.917,22.917,0,0,0,89.31-14.3h4.342v5.668h-5.2a18.175,18.175,0,0,1-2.7-.156v1.846a18.915,18.915,0,0,1,2.7-.156h5.2v6.24a17.463,17.463,0,0,1-.182,2.7h2.054a16.8,16.8,0,0,1-.182-2.7V-7.1h4.914a21.53,21.53,0,0,1,2.678.156V-8.788a19.169,19.169,0,0,1-2.7.156H95.342V-14.3h3.822a23.984,23.984,0,0,1,2.626.156v-1.82a16.488,16.488,0,0,1-2.652.156h-3.8V-18.72a16.007,16.007,0,0,1,.182-2.626H93.47a16.44,16.44,0,0,1,.182,2.626ZM82.394-1.2a22.06,22.06,0,0,1-.156,3.12h1.95c-.078-.884-.13-1.846-.13-3.042V-15.34A36.419,36.419,0,0,0,86.034-20.2c.208-.572.286-.806.416-1.17l-1.82-.546a15.682,15.682,0,0,1-.91,3.354A25.075,25.075,0,0,1,78.7-10.348a4.762,4.762,0,0,1,1.04,1.508A19.78,19.78,0,0,0,82.5-12.87c-.078,1.17-.1,2.054-.1,3.12Zm31.148-12.22h.1a1.194,1.194,0,0,1,.26.026,3.871,3.871,0,0,1,.442.026,6.818,6.818,0,0,1,.832.052c.91.052,1.872.078,2.938.078.988,0,1.794-.026,2.964-.078.078,3.8.182,6.24.26,6.786a7.345,7.345,0,0,0-2.886-.52c-2.886,0-4.94,1.534-4.94,3.692,0,2.262,1.9,3.692,4.914,3.692,2.132,0,3.718-.806,4.342-2.184a4.482,4.482,0,0,0,.312-1.768,3.73,3.73,0,0,0-.052-.676,1.824,1.824,0,0,1,.234.156,1.668,1.668,0,0,0,.26.156,14.049,14.049,0,0,1,3.692,2.7l.806-1.82c-.286-.182-.338-.234-.65-.442a18.82,18.82,0,0,0-4.342-2.548c-.208-3.458-.26-4.784-.286-7.358a24.855,24.855,0,0,0,2.756-.416c1.768-.364,1.768-.364,1.82-.364l-.078-1.768a17.721,17.721,0,0,1-4.5.962c-.026-.572-.026-.988-.026-1.274a26.6,26.6,0,0,1,.182-4.082h-1.95a5.767,5.767,0,0,1,.078,1.066c0,1.976,0,1.976.026,4.42-1.066.052-1.768.078-2.782.078a18,18,0,0,1-4.68-.416Zm7.826,8.476s.026.6.026.78a3.037,3.037,0,0,1-.494,2.028,3.583,3.583,0,0,1-2.652.91c-1.82,0-3.016-.832-3.016-2.106,0-1.3,1.326-2.158,3.354-2.158A6.715,6.715,0,0,1,121.368-4.94ZM108.94-20.41a11.976,11.976,0,0,1-.286,1.638A44.054,44.054,0,0,0,107.3-8.086a41.388,41.388,0,0,0,.728,7.722c.1.6.13.728.156.962l1.846-.182a2.833,2.833,0,0,1-.052-.52,22.452,22.452,0,0,1,2.236-7.384l-1.274-.6a3.586,3.586,0,0,1-.208.52A23.08,23.08,0,0,0,109.2-2.99l-.1-.026V-3.51c-.026-.468-.026-.52-.026-.728-.052-1.2-.1-2.73-.1-3.64,0-4.264.884-9.594,2-12.194Zm33.228,8.762H135.3a15.627,15.627,0,0,1-2.444-.13v1.846a15.558,15.558,0,0,1,2.366-.13h15.6v3.588H136.084a13.763,13.763,0,0,1-2.392-.13v1.846a14.048,14.048,0,0,1,2.314-.13h14.82V-.91H135.018a14.71,14.71,0,0,1-2.392-.13V.832a16.659,16.659,0,0,1,2.418-.156h15.782V2.054h1.82a20.385,20.385,0,0,1-.156-2.626V-9.75a16.674,16.674,0,0,1,.1-2.054,10.455,10.455,0,0,1-2.054.156h-6.682v-7.7a12.729,12.729,0,0,1,.156-2.34h-2a12.922,12.922,0,0,1,.156,2.34Zm-8.84-7.618a25.748,25.748,0,0,1,3.978,6.4l1.534-.884a28.193,28.193,0,0,0-4.056-6.318Zm17.758-.962a21.144,21.144,0,0,1-4.16,6.916l1.43.884a26.252,26.252,0,0,0,4.342-7.02ZM160.55-1.17a19.983,19.983,0,0,1-.156,2.756h1.9V-.1h13.416v1.69h1.9A19.874,19.874,0,0,1,177.45-1.2V-17.862a16.351,16.351,0,0,1,.13-2.392,18.862,18.862,0,0,1-2.678.13H163.2a21.213,21.213,0,0,1-2.782-.13,18.217,18.217,0,0,1,.13,2.548Zm1.742-17.368h13.416v7.28H162.292Zm0,8.866h13.416V-1.69H162.292ZM191.88-6.994a39.2,39.2,0,0,1-3.3,6.266c-2.34.156-2.34.156-2.756.156A12.035,12.035,0,0,1,184.5-.65l.312,1.976A31.193,31.193,0,0,1,189.2.858c4.056-.312,7.982-.728,12.61-1.352.546.676.884,1.118,1.9,2.548L205.14.988a56.234,56.234,0,0,0-6.292-6.864l-1.352.832c1.144,1.066,1.612,1.534,3.172,3.224-3.848.468-6.552.728-10.14.962a39.108,39.108,0,0,0,3.25-6.136h9.334a22.574,22.574,0,0,1,2.964.156V-8.71a22.033,22.033,0,0,1-2.964.156H187.1a22.3,22.3,0,0,1-2.964-.156v1.872a22.3,22.3,0,0,1,2.964-.156ZM194.038-21.5a19.122,19.122,0,0,1-4.134,4.628,27.278,27.278,0,0,1-6.89,4.238,5.219,5.219,0,0,1,1.092,1.482,28.562,28.562,0,0,0,7.02-4.576,22.5,22.5,0,0,0,3.9-4.264,21.588,21.588,0,0,0,4.16,4.446,35.719,35.719,0,0,0,7.228,4.524,5.506,5.506,0,0,1,1.014-1.664,28.084,28.084,0,0,1-7.176-4.16,17.484,17.484,0,0,1-4.368-4.654Zm-5.278,9.776a14.952,14.952,0,0,1,2.028-.1h8.424a16,16,0,0,1,2.184.1v-1.742a15.763,15.763,0,0,1-2.184.1h-8.4a13.726,13.726,0,0,1-2.054-.1Zm34.086,5.07a14.745,14.745,0,0,1-6.578,5.278,3.776,3.776,0,0,1,1.118,1.222,17.92,17.92,0,0,0,7.15-6.5h2.574a12.679,12.679,0,0,1-2.132,3.406A16.5,16.5,0,0,1,219.882.7a4.439,4.439,0,0,1,1.2,1.222A21.115,21.115,0,0,0,223.184.468a26.539,26.539,0,0,0,3.2-3.2A15.054,15.054,0,0,0,228.7-6.656h1.742a31.614,31.614,0,0,1-.572,4.992C229.528-.1,229.346.1,228.306.1a17.959,17.959,0,0,1-3.094-.286,4.406,4.406,0,0,1,.52,1.69c.806.052,1.664.1,2.262.1,1.768,0,2.418-.26,2.886-1.2.468-.91.936-3.874,1.144-6.942a11.793,11.793,0,0,1,.13-1.534,20.291,20.291,0,0,1-2.548.1H221a12.725,12.725,0,0,0,1.2-1.9h7.956a22.158,22.158,0,0,1,2.574.1v-1.638a14.768,14.768,0,0,1-2.574.156h-11.1a12.8,12.8,0,0,1-2.392-.156V-9.7A12.727,12.727,0,0,1,219-9.854h1.586c-1.066,2.184-2.964,3.926-6.032,5.486a4.622,4.622,0,0,1,1.066,1.17,16.671,16.671,0,0,0,4.368-3.458ZM212.68-14.924h-1.066a14.533,14.533,0,0,1-2.262-.13v1.716a18.739,18.739,0,0,1,2.21-.13h1.118v7.436a12.954,12.954,0,0,1-3.354,1.274l.494,1.82c.234-.13.962-.494,1.378-.676a47.917,47.917,0,0,0,5.408-2.938l-.1-1.56a22.477,22.477,0,0,1-2.21,1.326v-6.682h.624a20.309,20.309,0,0,1,2.158.1v-1.664a15.344,15.344,0,0,1-2.158.1h-.624v-3.588a17.729,17.729,0,0,1,.156-2.886h-1.924a20.6,20.6,0,0,1,.156,2.86Zm15.366,1.976c1.014,0,1.82.026,2.392.078a15.3,15.3,0,0,1-.1-2.314v-3.25a18.993,18.993,0,0,1,.1-2.418,19.041,19.041,0,0,1-2.7.13h-6.786a16.786,16.786,0,0,1-2.5-.13,17.5,17.5,0,0,1,.1,2.288v3.38a20.032,20.032,0,0,1-.1,2.34,18.335,18.335,0,0,1,2.366-.1ZM220.09-19.37h8.71v1.9h-8.71Zm0,3.172h8.71v1.976h-8.71Zm18.954-4.082a14.477,14.477,0,0,1-.364,2.08,43.013,43.013,0,0,0-1.17,10.3,37.265,37.265,0,0,0,.676,7.358c.078.494.1.624.156,1.04l1.872-.156v-.39A22.663,22.663,0,0,1,242.32-7.2l-1.248-.6a24.156,24.156,0,0,0-1.69,5.07c-.1-1.378-.156-2.912-.156-4.94a38.437,38.437,0,0,1,.78-8.138,36.941,36.941,0,0,1,1.092-4.16Zm5.356,4.914a34.631,34.631,0,0,0,4.16.26,43.892,43.892,0,0,0,5.59-.338q1.716-.234,1.794-.234l-.13-1.846a27.9,27.9,0,0,1-6.968.7,17.659,17.659,0,0,1-4.42-.39Zm1.9,5.07c-1.612,1.846-2.262,3.25-2.262,4.836a3.675,3.675,0,0,0,.78,2.392c1.118,1.352,2.99,1.976,5.954,1.976a26.824,26.824,0,0,0,5.33-.52c.52-.078.572-.1.91-.13l-.26-2a17.111,17.111,0,0,1-5.98.91c-3.354,0-4.992-.936-4.992-2.86,0-1.144.65-2.392,1.95-3.822Zm16.38-4.81a76.367,76.367,0,0,1,8.97-.858,50.385,50.385,0,0,0,5.72-.572,17.019,17.019,0,0,0-2.47,1.378c-3.094,2.08-4.862,4.966-4.862,7.982a6.328,6.328,0,0,0,2.886,5.3,13.115,13.115,0,0,0,5.616,2c.416.078.52.1.806.156l.338-2.106h-.26a13.326,13.326,0,0,1-3.9-.832,5.1,5.1,0,0,1-3.64-4.81,7.947,7.947,0,0,1,3.2-6.006,13.2,13.2,0,0,1,4.992-2.626,12.059,12.059,0,0,1,2.912-.338l-.156-1.95a17.453,17.453,0,0,1-3.094.286c-3.354.156-11.674.624-14.768.858-.806.052-1.118.078-1.482.078h-.936Z" transform="translate(806.986 2331.096)" fill="#fff"/>
      <g id="グループ_367" data-name="グループ 367" transform="translate(-143 -27.502)">
        <path id="パス_715" data-name="パス 715" d="M-86.6,1.358h3.612a8.927,8.927,0,0,1-1.484-2.6,11.989,11.989,0,0,1-.616-4.074,11.989,11.989,0,0,1,.616-4.074A8.927,8.927,0,0,1-82.988-12H-86.6Zm10.64-12.964A10.185,10.185,0,0,1-78.116-9.17a14.6,14.6,0,0,1-3.808,2.436,2.433,2.433,0,0,1,.588.8,16.187,16.187,0,0,0,2.968-1.82,13.044,13.044,0,0,0,2.94-3.066A11.761,11.761,0,0,0-73.272-8.47a19.57,19.57,0,0,0,3.948,2.576,3.624,3.624,0,0,1,.56-.882,14.681,14.681,0,0,1-3.836-2.3,9.617,9.617,0,0,1-2.31-2.534ZM-78.69-6.4A8.051,8.051,0,0,1-77.6-6.454h4.354a8.618,8.618,0,0,1,1.176.056V-7.35a8.36,8.36,0,0,1-1.176.056h-4.34A7.155,7.155,0,0,1-78.69-7.35Zm-.1,7.308V.1h6.762V.91h1.008A9.73,9.73,0,0,1-71.1-.462V-3.556a8.461,8.461,0,0,1,.07-1.288,7.419,7.419,0,0,1-1.092.056H-78.69a7.419,7.419,0,0,1-1.092-.056,8.8,8.8,0,0,1,.07,1.288V-.462A10.162,10.162,0,0,1-79.8.91Zm0-4.844h6.762V-.728h-6.762Zm19.894-3.234h-1.232a12.243,12.243,0,0,1-1.61-.084v1.008a13.661,13.661,0,0,1,1.61-.084h1.232V-.98a14.332,14.332,0,0,1-.1,2h1.12a12.65,12.65,0,0,1-.112-2V-6.328h1.33a14.426,14.426,0,0,1,1.68.084V-7.252a13.146,13.146,0,0,1-1.68.084h-1.33V-10a10,10,0,0,1,.1-1.554h-1.106a10.121,10.121,0,0,1,.1,1.554Zm-7.98-3.024a8.461,8.461,0,0,1,1.134-.056h2.282a8.548,8.548,0,0,1,1.106.056v-.882a6.187,6.187,0,0,1-1.106.07H-65.74a6.432,6.432,0,0,1-1.134-.07Zm-.658,1.946a8.082,8.082,0,0,1,1.2-.07h3.388a7.5,7.5,0,0,1,1.218.07V-9.17a6.858,6.858,0,0,1-1.218.084h-3.374a7.668,7.668,0,0,1-1.218-.084Zm.672,1.9A6.774,6.774,0,0,1-65.852-6.4h2.492a7.063,7.063,0,0,1,.994.056V-7.2a6.34,6.34,0,0,1-.994.056h-2.492A6.311,6.311,0,0,1-66.86-7.2Zm0,1.932a6.655,6.655,0,0,1,1.008-.056h2.492a6.572,6.572,0,0,1,.994.056v-.854a6.34,6.34,0,0,1-.994.056h-2.492a6.091,6.091,0,0,1-1.008-.056Zm.994,4.718h2.66V.854h.938a7.3,7.3,0,0,1-.084-1.19V-2.184A7.85,7.85,0,0,1-62.3-3.3a8.948,8.948,0,0,1-.952.042H-65.81a6.373,6.373,0,0,1-.98-.056,7.113,7.113,0,0,1,.07,1.148V-.308A9.45,9.45,0,0,1-66.8,1.036h.938Zm-.014-2.814h2.688V-.434H-65.88Zm15.708,3.864V-12h-3.612a8.927,8.927,0,0,1,1.484,2.6,11.879,11.879,0,0,1,.616,4.074A11.879,11.879,0,0,1-52.3-1.246a8.927,8.927,0,0,1-1.484,2.6Zm13.166-3.126c.962,1.508,2.5,2.21,4.914,2.21,2.548,0,4-.806,4.94-2.106A6.905,6.905,0,0,0-26.008-5.85a5.828,5.828,0,0,0-1.326-4c-1.092-1.17-2.73-1.638-5.356-1.638-1.326,0-2.808.052-3.432.078a7,7,0,0,1,2.184-4.238c1.482-1.326,3.9-2.184,6.708-2.7v-1.586c-2.886.494-6.032,1.43-8.034,3.3-2.782,2.574-2.86,6.994-2.86,9.672A9.642,9.642,0,0,0-37.006-1.768Zm.676-8.112c.728-.026,2.21-.078,3.536-.078,1.95,0,3.328.208,4.212,1.17a4.409,4.409,0,0,1,.91,2.938,5.425,5.425,0,0,1-.884,3.328,3.986,3.986,0,0,1-3.536,1.4c-1.716,0-2.964-.546-3.588-1.612a8.394,8.394,0,0,1-.78-4.238A26.121,26.121,0,0,1-36.33-9.88ZM-21.068,4.5A13.135,13.135,0,0,0-19.794-.624V-3.536h-2V-1.3a21.377,21.377,0,0,1-.676,5.8ZM-12.2,0V-20.124l-6.37,2.054v1.664l4.758-1.534V0Zm6.63-1.534C-4.636-.156-3.05.442-.866.442c2.418,0,4-.832,4.94-2.444C5.114-3.8,5.348-6.578,5.348-9.958c0-3.2-.286-6.006-1.378-7.774C2.956-19.37,1.318-20.046-.866-20.046c-2.262,0-3.978.806-4.862,2.314C-6.846-15.86-7-13.26-7-9.8-7-6.084-6.716-3.2-5.572-1.534Zm1.378-15.548a3.907,3.907,0,0,1,3.3-1.4A3.813,3.813,0,0,1,2.566-16.9c.806,1.3,1.118,3.77,1.118,6.994,0,3.12-.208,5.46-.936,6.916A3.632,3.632,0,0,1-.84-1.118c-1.56,0-2.73-.338-3.406-1.378-.91-1.378-1.092-4.03-1.092-7.306C-5.338-13.364-5.156-15.73-4.194-17.082ZM11.458-1.534C12.394-.156,13.98.442,16.164.442c2.418,0,4-.832,4.94-2.444,1.04-1.794,1.274-4.576,1.274-7.956,0-3.2-.286-6.006-1.378-7.774-1.014-1.638-2.652-2.314-4.836-2.314-2.262,0-3.978.806-4.862,2.314-1.118,1.872-1.274,4.472-1.274,7.93C10.028-6.084,10.314-3.2,11.458-1.534Zm1.378-15.548a3.907,3.907,0,0,1,3.3-1.4A3.813,3.813,0,0,1,19.6-16.9c.806,1.3,1.118,3.77,1.118,6.994,0,3.12-.208,5.46-.936,6.916A3.632,3.632,0,0,1,16.19-1.118c-1.56,0-2.73-.338-3.406-1.378-.91-1.378-1.092-4.03-1.092-7.306C11.692-13.364,11.874-15.73,12.836-17.082ZM27.812,4.5A13.135,13.135,0,0,0,29.086-.624V-3.536h-2V-1.3a21.377,21.377,0,0,1-.676,5.8Zm7.254-6.032C36-.156,37.588.442,39.772.442c2.418,0,4-.832,4.94-2.444,1.04-1.794,1.274-4.576,1.274-7.956,0-3.2-.286-6.006-1.378-7.774-1.014-1.638-2.652-2.314-4.836-2.314-2.262,0-3.978.806-4.862,2.314-1.118,1.872-1.274,4.472-1.274,7.93C33.636-6.084,33.922-3.2,35.066-1.534Zm1.378-15.548a3.907,3.907,0,0,1,3.3-1.4A3.813,3.813,0,0,1,43.2-16.9c.806,1.3,1.118,3.77,1.118,6.994,0,3.12-.208,5.46-.936,6.916A3.632,3.632,0,0,1,39.8-1.118c-1.56,0-2.73-.338-3.406-1.378C35.482-3.874,35.3-6.526,35.3-9.8,35.3-13.364,35.482-15.73,36.444-17.082ZM52.1-1.534C53.032-.156,54.618.442,56.8.442c2.418,0,4-.832,4.94-2.444,1.04-1.794,1.274-4.576,1.274-7.956,0-3.2-.286-6.006-1.378-7.774-1.014-1.638-2.652-2.314-4.836-2.314-2.262,0-3.978.806-4.862,2.314-1.118,1.872-1.274,4.472-1.274,7.93C50.666-6.084,50.952-3.2,52.1-1.534Zm1.378-15.548a3.907,3.907,0,0,1,3.3-1.4A3.813,3.813,0,0,1,60.234-16.9c.806,1.3,1.118,3.77,1.118,6.994,0,3.12-.208,5.46-.936,6.916a3.632,3.632,0,0,1-3.588,1.872c-1.56,0-2.73-.338-3.406-1.378-.91-1.378-1.092-4.03-1.092-7.306C52.33-13.364,52.512-15.73,53.474-17.082ZM69.126-1.534C70.062-.156,71.648.442,73.832.442c2.418,0,4-.832,4.94-2.444,1.04-1.794,1.274-4.576,1.274-7.956,0-3.2-.286-6.006-1.378-7.774-1.014-1.638-2.652-2.314-4.836-2.314-2.262,0-3.978.806-4.862,2.314C67.852-15.86,67.7-13.26,67.7-9.8,67.7-6.084,67.982-3.2,69.126-1.534ZM70.5-17.082a3.907,3.907,0,0,1,3.3-1.4A3.813,3.813,0,0,1,77.264-16.9c.806,1.3,1.118,3.77,1.118,6.994,0,3.12-.208,5.46-.936,6.916a3.632,3.632,0,0,1-3.588,1.872c-1.56,0-2.73-.338-3.406-1.378-.91-1.378-1.092-4.03-1.092-7.306C69.36-13.364,69.542-15.73,70.5-17.082ZM84.836-4.858h9.128V-.5c0,.266-.126.322-.742.322A20.367,20.367,0,0,1,91.01-.35a3.464,3.464,0,0,1,.224.91c.672.056,1.442.084,2,.084,1.358,0,1.666-.2,1.666-1.036V-9.576a10.846,10.846,0,0,1,.056-1.288,10.119,10.119,0,0,1-1.288.056H85.13a10.7,10.7,0,0,1-1.288-.056A10.531,10.531,0,0,1,83.9-9.618v9A9.949,9.949,0,0,1,83.814.91h1.092a8.249,8.249,0,0,1-.07-1.484Zm3.99-.84h-3.99V-9.954h3.99Zm.91,0V-9.954h4.228V-5.7Z" transform="translate(1055.3 2308)" fill="#fff"/>
        <path id="パス_714" data-name="パス 714" d="M-3.85-5.81v.952h7.7V-5.81Zm0,2.828v.952h7.7v-.952Z" transform="translate(954.85 2306)" fill="#fff"/>
      </g>
      <g id="グループ_366" data-name="グループ 366" transform="translate(0 -12.124)">
        <path id="パス_713" data-name="パス 713" d="M10.582.891A6.956,6.956,0,0,1,8.91-1.386,6.67,6.67,0,0,1,8.316-4.18,6.67,6.67,0,0,1,8.91-6.974a6.956,6.956,0,0,1,1.672-2.277H9.6A7.4,7.4,0,0,0,8.074-6.886,6.9,6.9,0,0,0,7.546-4.18a6.9,6.9,0,0,0,.528,2.706A7.4,7.4,0,0,0,9.6.891Zm6.952-5.7v.066l.044,4.048v.242a6.5,6.5,0,0,1-.044.869h.891A9.988,9.988,0,0,1,18.37-.7l-.077-5.357h1.639a9,9,0,0,1,.913.033v-.8a5.559,5.559,0,0,1-1.1.066H18.293l-.022-1.1v-.264a4.225,4.225,0,0,1,.044-.6h-.88a5.242,5.242,0,0,1,.055.891L17.5-6.765l-4,.022a6.216,6.216,0,0,1-1.243-.077V-6a8.643,8.643,0,0,1,1.221-.044l3.608-.022a10.6,10.6,0,0,1-1.584,2A12.487,12.487,0,0,1,11.77-1.43a1.773,1.773,0,0,1,.55.66A16.922,16.922,0,0,0,14.135-1.9a12.837,12.837,0,0,0,2.607-2.431,6.851,6.851,0,0,0,.825-1.232c-.022.473-.033.638-.033.715ZM30.173-7.689H24.761a7.8,7.8,0,0,1-1.243-.066v.88a8.122,8.122,0,0,1,1.232-.066h5.6a8.914,8.914,0,0,1-1.925,3.916A8.833,8.833,0,0,1,24.4-.528a2.177,2.177,0,0,1,.539.759,10.208,10.208,0,0,0,4-2.607,9.824,9.824,0,0,0,2.244-4.378l.022-.066a1.3,1.3,0,0,0,.385.055,1.253,1.253,0,0,0,1.254-1.254A1.249,1.249,0,0,0,31.6-9.262a1.253,1.253,0,0,0-1.254,1.254,1.166,1.166,0,0,0,.044.319ZM31.6-8.8a.784.784,0,0,1,.781.781.786.786,0,0,1-.781.792.789.789,0,0,1-.792-.792A.786.786,0,0,1,31.6-8.8Zm3.85,1.012a11.567,11.567,0,0,1,2.706,1.452l.451-.737a16.265,16.265,0,0,0-2.728-1.386Zm-.869,2.629a12.213,12.213,0,0,1,2.805,1.507l.429-.737A16.78,16.78,0,0,0,35.024-5.83ZM34.958.11a2.582,2.582,0,0,1,.429-.121c.22-.044.418-.088.594-.121a12.565,12.565,0,0,0,2.783-.946A8.622,8.622,0,0,0,43-5.819a3.317,3.317,0,0,1-.682-.583A8.191,8.191,0,0,1,41-3.938a7.245,7.245,0,0,1-3.3,2.453A9.513,9.513,0,0,1,34.738-.8ZM51.546.044v.55h.759a3.469,3.469,0,0,1-.044-.682V-5.06c0-.385,0-.561.011-.847-.2.011-.4.022-.748.022H47.432a5.474,5.474,0,0,1-.957-.066v.759a4.976,4.976,0,0,1,.957-.044h4.114v1.914H47.685a5.474,5.474,0,0,1-.957-.066v.748a4.843,4.843,0,0,1,.946-.044h3.872V-.616H47.322a5.651,5.651,0,0,1-.957-.066v.77a4.912,4.912,0,0,1,.957-.044Zm5.17-7.227a12.146,12.146,0,0,1,2.618,2.156l.572-.682a14.33,14.33,0,0,0-2.651-2.068Zm.077,7.15a5.779,5.779,0,0,1,.66-.176,11.09,11.09,0,0,0,4.1-1.639,9.648,9.648,0,0,0,3.355-4.2A2.2,2.2,0,0,1,64.24-6.7a8.312,8.312,0,0,1-4.488,4.9,9.574,9.574,0,0,1-3.2.847ZM71.049-9.119A8,8,0,0,1,69.355-7.2a11.473,11.473,0,0,1-2.992,1.914,1.912,1.912,0,0,1,.462.627,12.718,12.718,0,0,0,2.332-1.43A10.249,10.249,0,0,0,71.467-8.5a9.24,9.24,0,0,0,1.694,1.848,15.376,15.376,0,0,0,3.1,2.024,2.847,2.847,0,0,1,.44-.693,11.535,11.535,0,0,1-3.014-1.8,7.557,7.557,0,0,1-1.815-1.991ZM68.9-5.027a6.326,6.326,0,0,1,.858-.044h3.421a6.771,6.771,0,0,1,.924.044v-.748a6.569,6.569,0,0,1-.924.044h-3.41a5.622,5.622,0,0,1-.869-.044ZM68.827.715V.077H74.14V.715h.792a7.645,7.645,0,0,1-.066-1.078V-2.794a6.649,6.649,0,0,1,.055-1.012,5.829,5.829,0,0,1-.858.044H68.9a5.83,5.83,0,0,1-.858-.044A6.918,6.918,0,0,1,68.1-2.794V-.363A7.985,7.985,0,0,1,68.035.715Zm0-3.806H74.14V-.572H68.827ZM84.458-5.632H83.49A9.62,9.62,0,0,1,82.225-5.7v.792a10.734,10.734,0,0,1,1.265-.066h.968v4.2A11.261,11.261,0,0,1,84.381.8h.88A9.939,9.939,0,0,1,85.173-.77v-4.2h1.045a11.335,11.335,0,0,1,1.32.066V-5.7a10.329,10.329,0,0,1-1.32.066H85.173V-7.854a7.858,7.858,0,0,1,.077-1.221h-.869a7.952,7.952,0,0,1,.077,1.221Zm-6.27-2.376a6.648,6.648,0,0,1,.891-.044h1.793a6.716,6.716,0,0,1,.869.044V-8.7a4.861,4.861,0,0,1-.869.055H79.079a5.053,5.053,0,0,1-.891-.055Zm-.517,1.529a6.35,6.35,0,0,1,.946-.055h2.662a5.9,5.9,0,0,1,.957.055V-7.2a5.388,5.388,0,0,1-.957.066H78.628a6.025,6.025,0,0,1-.957-.066Zm.528,1.5a5.322,5.322,0,0,1,.792-.044h1.958a5.55,5.55,0,0,1,.781.044v-.671a4.982,4.982,0,0,1-.781.044H78.991a4.959,4.959,0,0,1-.792-.044Zm0,1.518a5.229,5.229,0,0,1,.792-.044h1.958a5.164,5.164,0,0,1,.781.044v-.671a4.982,4.982,0,0,1-.781.044H78.991a4.786,4.786,0,0,1-.792-.044ZM78.98.242h2.09V.671h.737a5.734,5.734,0,0,1-.066-.935V-1.716a6.167,6.167,0,0,1,.044-.88,7.031,7.031,0,0,1-.748.033H79.024a5.007,5.007,0,0,1-.77-.044,5.589,5.589,0,0,1,.055.9V-.242A7.424,7.424,0,0,1,78.243.814h.737Zm-.011-2.211h2.112V-.341H78.969Zm17.1-3.9V-7.788h1.364a8.219,8.219,0,0,1,1.144.066v-.77a24.2,24.2,0,0,1-2.871.1c-1.144,0-2.233-.011-3.289-.033a8.048,8.048,0,0,1-1.144-.066v.77a8.443,8.443,0,0,1,1.144-.066h.968v1.914h-1.1a7.7,7.7,0,0,1-.979-.044,8.689,8.689,0,0,1,.055,1v4.5A9.155,9.155,0,0,1,91.3.748h.748V.022h5.423V.748h.748a8.3,8.3,0,0,1-.066-1.2v-4.51a6.8,6.8,0,0,1,.044-.957,6.883,6.883,0,0,1-.968.044Zm-.66,0H94.05V-7.788h1.364Zm-2.024.616V-.594H92.048V-5.258Zm.66,0h1.364V-.594H94.05Zm2.024,0h1.4V-.594h-1.4Zm-6.49,4.8a10.944,10.944,0,0,1-.066,1.32h.792a10.426,10.426,0,0,1-.055-1.287v-6.05A15.184,15.184,0,0,0,91-8.4c.1-.319.132-.4.209-.594l-.737-.264a7.017,7.017,0,0,1-.418,1.551,9.691,9.691,0,0,1-1.848,3.223,2.665,2.665,0,0,1,.44.605,9.109,9.109,0,0,0,.968-1.573c-.033.495-.033.77-.033,1.32Zm15.741-7.689c.121-.253.154-.319.22-.473a3.194,3.194,0,0,1,.176-.407L105-9.207a7.352,7.352,0,0,1-2.1,3.4,1.535,1.535,0,0,1,.5.462,8.542,8.542,0,0,0,1.089-1.342,8.7,8.7,0,0,0,1.3,1.551,10.615,10.615,0,0,1-3.157,1.793,1.988,1.988,0,0,1,.451.561c.385-.176.473-.22.77-.363a8.217,8.217,0,0,1,.033.891v2a6.7,6.7,0,0,1-.055,1.1h.726V.209h3.421V.847h.726a6.6,6.6,0,0,1-.055-1.111V-2.255a6.256,6.256,0,0,1,.033-.924c.22.1.374.165.814.352a2.49,2.49,0,0,1,.407-.671,10.345,10.345,0,0,1-3.157-1.65,8.864,8.864,0,0,0,1.65-2.189,4.476,4.476,0,0,1,.264-.429l-.429-.44a5.427,5.427,0,0,1-1.034.055Zm2.4.605a6.848,6.848,0,0,1-1.474,1.991,7.8,7.8,0,0,1-1.419-1.683c.077-.132.1-.165.176-.308Zm-2.992,4.367a7.352,7.352,0,0,1-.792-.022,10.436,10.436,0,0,0,2.321-1.507A10.685,10.685,0,0,0,108.625-3.2a8.446,8.446,0,0,1-.858.022Zm-.187.594h3.421V-.4h-3.421Zm-3.267-4.389h-.671a4.852,4.852,0,0,1-.8-.044v.682a5.322,5.322,0,0,1,.792-.044h.594A10.494,10.494,0,0,1,99.55-2.486a2.061,2.061,0,0,1,.462.572,5.88,5.88,0,0,0,.682-1.276,11.009,11.009,0,0,0,.649-2.046c-.055.9-.066,1.331-.066,1.716v3.1a9.24,9.24,0,0,1-.066,1.276H102a9.024,9.024,0,0,1-.066-1.276V-3.751c0-.5-.022-1.144-.044-1.771a7.938,7.938,0,0,0,.946,1.749,3.531,3.531,0,0,1,.429-.506,6.692,6.692,0,0,1-.836-1.177,5.881,5.881,0,0,1-.473-.924h.484a6.657,6.657,0,0,1,.693.033v-.671a4.12,4.12,0,0,1-.7.044h-.5V-8.052a7.432,7.432,0,0,1,.055-1.133h-.77a6.577,6.577,0,0,1,.055,1.144ZM111.4.891a7.4,7.4,0,0,0,1.529-2.365,6.9,6.9,0,0,0,.528-2.706,6.9,6.9,0,0,0-.528-2.706A7.4,7.4,0,0,0,111.4-9.251h-.979a6.845,6.845,0,0,1,1.672,2.277,6.67,6.67,0,0,1,.594,2.794,6.67,6.67,0,0,1-.594,2.794A6.845,6.845,0,0,1,110.418.891ZM3.38,28.232c.962,1.508,2.5,2.21,4.914,2.21,2.548,0,4-.806,4.94-2.106a6.905,6.905,0,0,0,1.144-4.186,5.828,5.828,0,0,0-1.326-4c-1.092-1.17-2.73-1.638-5.356-1.638-1.326,0-2.808.052-3.432.078a7,7,0,0,1,2.184-4.238c1.482-1.326,3.9-2.184,6.708-2.7V10.058c-2.886.494-6.032,1.43-8.034,3.3-2.782,2.574-2.86,6.994-2.86,9.672A9.642,9.642,0,0,0,3.38,28.232Zm.676-8.112c.728-.026,2.21-.078,3.536-.078,1.95,0,3.328.208,4.212,1.17a4.409,4.409,0,0,1,.91,2.938,5.425,5.425,0,0,1-.884,3.328,3.986,3.986,0,0,1-3.536,1.4c-1.716,0-2.964-.546-3.588-1.612a8.394,8.394,0,0,1-.78-4.238A26.121,26.121,0,0,1,4.056,20.12ZM16.874,30h12.48V28.44H18.928c1.274-1.378,4.5-4.914,7.15-8.164,1.586-1.95,2.522-3.536,2.522-5.538a4.637,4.637,0,0,0-1.04-3.224c-.988-1.118-2.314-1.56-4.6-1.56a23.237,23.237,0,0,0-5.252.936v1.586a24.668,24.668,0,0,1,5.252-.962,4.356,4.356,0,0,1,3.2.91,3,3,0,0,1,.78,2.314c0,1.716-.884,2.886-2.236,4.576-1.092,1.352-5.174,6.058-7.826,9.022ZM34.4,28.466c.936,1.378,2.522,1.976,4.706,1.976,2.418,0,4-.832,4.94-2.444,1.04-1.794,1.274-4.576,1.274-7.956,0-3.2-.286-6.006-1.378-7.774C42.926,10.63,41.288,9.954,39.1,9.954c-2.262,0-3.978.806-4.862,2.314-1.118,1.872-1.274,4.472-1.274,7.93C32.968,23.916,33.254,26.8,34.4,28.466Zm1.378-15.548a3.907,3.907,0,0,1,3.3-1.4A3.813,3.813,0,0,1,42.536,13.1c.806,1.3,1.118,3.77,1.118,6.994,0,3.12-.208,5.46-.936,6.916a3.632,3.632,0,0,1-3.588,1.872c-1.56,0-2.73-.338-3.406-1.378-.91-1.378-1.092-4.03-1.092-7.306C34.632,16.636,34.814,14.27,35.776,12.918ZM50.752,34.5a13.135,13.135,0,0,0,1.274-5.122V26.464h-2V28.7a21.377,21.377,0,0,1-.676,5.8Zm7.254-6.032c.936,1.378,2.522,1.976,4.706,1.976,2.418,0,4-.832,4.94-2.444,1.04-1.794,1.274-4.576,1.274-7.956,0-3.2-.286-6.006-1.378-7.774C66.534,10.63,64.9,9.954,62.712,9.954c-2.262,0-3.978.806-4.862,2.314-1.118,1.872-1.274,4.472-1.274,7.93C56.576,23.916,56.862,26.8,58.006,28.466Zm1.378-15.548a3.907,3.907,0,0,1,3.3-1.4A3.813,3.813,0,0,1,66.144,13.1c.806,1.3,1.118,3.77,1.118,6.994,0,3.12-.208,5.46-.936,6.916a3.632,3.632,0,0,1-3.588,1.872c-1.56,0-2.73-.338-3.406-1.378-.91-1.378-1.092-4.03-1.092-7.306C58.24,16.636,58.422,14.27,59.384,12.918ZM75.036,28.466c.936,1.378,2.522,1.976,4.706,1.976,2.418,0,4-.832,4.94-2.444,1.04-1.794,1.274-4.576,1.274-7.956,0-3.2-.286-6.006-1.378-7.774-1.014-1.638-2.652-2.314-4.836-2.314-2.262,0-3.978.806-4.862,2.314-1.118,1.872-1.274,4.472-1.274,7.93C73.606,23.916,73.892,26.8,75.036,28.466Zm1.378-15.548a3.907,3.907,0,0,1,3.3-1.4A3.813,3.813,0,0,1,83.174,13.1c.806,1.3,1.118,3.77,1.118,6.994,0,3.12-.208,5.46-.936,6.916a3.632,3.632,0,0,1-3.588,1.872c-1.56,0-2.73-.338-3.406-1.378-.91-1.378-1.092-4.03-1.092-7.306C75.27,16.636,75.452,14.27,76.414,12.918ZM92.066,28.466c.936,1.378,2.522,1.976,4.706,1.976,2.418,0,4-.832,4.94-2.444,1.04-1.794,1.274-4.576,1.274-7.956,0-3.2-.286-6.006-1.378-7.774-1.014-1.638-2.652-2.314-4.836-2.314-2.262,0-3.978.806-4.862,2.314-1.118,1.872-1.274,4.472-1.274,7.93C90.636,23.916,90.922,26.8,92.066,28.466Zm1.378-15.548a3.907,3.907,0,0,1,3.3-1.4A3.813,3.813,0,0,1,100.2,13.1c.806,1.3,1.118,3.77,1.118,6.994,0,3.12-.208,5.46-.936,6.916A3.632,3.632,0,0,1,96.8,28.882c-1.56,0-2.73-.338-3.406-1.378-.91-1.378-1.092-4.03-1.092-7.306C92.3,16.636,92.482,14.27,93.444,12.918Z" transform="translate(958.826 2228)" fill="#fff"/>
        <path id="パス_712" data-name="パス 712" d="M.49-3.388H3.864V-4.34H.49V-7.714H-.49V-4.34H-3.878v.952H-.49V0H.49Z" transform="translate(947.224 2254)" fill="#fff"/>
        <path id="パス_711" data-name="パス 711" d="M10.582.891A6.956,6.956,0,0,1,8.91-1.386,6.67,6.67,0,0,1,8.316-4.18,6.67,6.67,0,0,1,8.91-6.974a6.956,6.956,0,0,1,1.672-2.277H9.6A7.4,7.4,0,0,0,8.074-6.886,6.9,6.9,0,0,0,7.546-4.18a6.9,6.9,0,0,0,.528,2.706A7.4,7.4,0,0,0,9.6.891Zm5.511-8.866H12.925A6.15,6.15,0,0,1,11.8-8.052v.759a8.039,8.039,0,0,1,1.111-.066h3.179v.946h-2.1a6.379,6.379,0,0,1-1.221-.066,10.474,10.474,0,0,1,.044,1.188V-3.6a10.032,10.032,0,0,1-.044,1.166A8.11,8.11,0,0,1,14.047-2.5h2.046v.979H12.837a5.767,5.767,0,0,1-1.122-.077v.77a7.772,7.772,0,0,1,1.122-.066h3.256v.528a6.237,6.237,0,0,1-.077,1.21h.825a5.856,5.856,0,0,1-.077-1.21V-.891h3.421a8.558,8.558,0,0,1,1.144.066v-.77a5.729,5.729,0,0,1-1.144.077H16.764V-2.5H19a7.872,7.872,0,0,1,1.254.066A10.155,10.155,0,0,1,20.207-3.6V-5.324a10.058,10.058,0,0,1,.044-1.155,6.58,6.58,0,0,1-1.243.066H16.764v-.946h3.311a8.736,8.736,0,0,1,1.133.066v-.759a5.8,5.8,0,0,1-1.144.077h-3.3v-.143a5.924,5.924,0,0,1,.077-1.056h-.825a5.763,5.763,0,0,1,.077,1.056Zm0,2.156v1.056H13.5V-5.819Zm0,1.65v1.078H13.5V-4.169Zm.671,1.078V-4.169h2.761v1.078Zm0-1.672V-5.819h2.761v1.056ZM27.148-8.1v1.452H24.156a8.607,8.607,0,0,1-1.023-.044,9.562,9.562,0,0,1,.044,1.034V-.4A9.959,9.959,0,0,1,23.111.825h.836a8.807,8.807,0,0,1-.066-1.188V-6.028h3.267V-2H25.773V-4.257a5.229,5.229,0,0,1,.044-.792h-.748a5.515,5.515,0,0,1,.044.792V-1.43a9.5,9.5,0,0,1-.055,1.067h.693V-1.4h3.52V-.88h.682a6.469,6.469,0,0,1-.044-.924V-4.257a5.229,5.229,0,0,1,.044-.792H29.2a5.322,5.322,0,0,1,.044.792V-2h-1.43V-6.028H31.13V-.3c0,.253-.077.308-.429.308a8.637,8.637,0,0,1-1.342-.132,2.372,2.372,0,0,1,.2.726c.891.055.891.055,1.089.055a1.657,1.657,0,0,0,.9-.143c.209-.121.286-.308.286-.737V-5.676a8.762,8.762,0,0,1,.044-1.012,8.812,8.812,0,0,1-1.034.044H27.819V-8.1h3.465a8.853,8.853,0,0,1,1.155.066V-8.8a8.913,8.913,0,0,1-1.166.066H23.7A8.68,8.68,0,0,1,22.539-8.8v.77A8.392,8.392,0,0,1,23.694-8.1ZM41.074-5.874V-7.788h1.364a8.219,8.219,0,0,1,1.144.066v-.77a24.2,24.2,0,0,1-2.871.1c-1.144,0-2.233-.011-3.289-.033a8.048,8.048,0,0,1-1.144-.066v.77a8.443,8.443,0,0,1,1.144-.066h.968v1.914h-1.1a7.7,7.7,0,0,1-.979-.044,8.689,8.689,0,0,1,.055,1v4.5A9.154,9.154,0,0,1,36.3.748h.748V.022h5.423V.748h.748a8.3,8.3,0,0,1-.066-1.2v-4.51a6.8,6.8,0,0,1,.044-.957,6.883,6.883,0,0,1-.968.044Zm-.66,0H39.05V-7.788h1.364Zm-2.024.616V-.594H37.048V-5.258Zm.66,0h1.364V-.594H39.05Zm2.024,0h1.4V-.594h-1.4Zm-6.49,4.8a10.945,10.945,0,0,1-.066,1.32h.792a10.425,10.425,0,0,1-.055-1.287v-6.05A15.183,15.183,0,0,0,36-8.4c.1-.319.132-.4.209-.594l-.737-.264a7.017,7.017,0,0,1-.418,1.551,9.691,9.691,0,0,1-1.848,3.223,2.664,2.664,0,0,1,.44.605,9.109,9.109,0,0,0,.968-1.573c-.033.495-.033.77-.033,1.32ZM50.325-8.151c.121-.253.154-.319.22-.473a3.194,3.194,0,0,1,.176-.407l-.726-.176a7.352,7.352,0,0,1-2.1,3.4,1.535,1.535,0,0,1,.495.462,8.543,8.543,0,0,0,1.089-1.342,8.7,8.7,0,0,0,1.3,1.551,10.615,10.615,0,0,1-3.157,1.793,1.988,1.988,0,0,1,.451.561c.385-.176.473-.22.77-.363a8.219,8.219,0,0,1,.033.891v2a6.7,6.7,0,0,1-.055,1.1h.726V.209h3.421V.847h.726a6.6,6.6,0,0,1-.055-1.111V-2.255a6.256,6.256,0,0,1,.033-.924c.22.1.374.165.814.352A2.49,2.49,0,0,1,54.89-3.5a10.345,10.345,0,0,1-3.157-1.65,8.864,8.864,0,0,0,1.65-2.189,4.477,4.477,0,0,1,.264-.429l-.429-.44a5.427,5.427,0,0,1-1.034.055Zm2.4.605a6.848,6.848,0,0,1-1.474,1.991A7.8,7.8,0,0,1,49.83-7.238c.077-.132.1-.165.176-.308ZM49.731-3.179a7.352,7.352,0,0,1-.792-.022A10.436,10.436,0,0,0,51.26-4.708,10.685,10.685,0,0,0,53.625-3.2a8.446,8.446,0,0,1-.858.022Zm-.187.594h3.421V-.4H49.544ZM46.277-6.974h-.671a4.852,4.852,0,0,1-.8-.044v.682A5.322,5.322,0,0,1,45.6-6.38h.594A10.493,10.493,0,0,1,44.55-2.486a2.061,2.061,0,0,1,.462.572,5.88,5.88,0,0,0,.682-1.276,11.009,11.009,0,0,0,.649-2.046c-.055.9-.066,1.331-.066,1.716v3.1A9.239,9.239,0,0,1,46.211.858H47a9.024,9.024,0,0,1-.066-1.276V-3.751c0-.5-.022-1.144-.044-1.771a7.938,7.938,0,0,0,.946,1.749,3.531,3.531,0,0,1,.429-.506,6.691,6.691,0,0,1-.836-1.177,5.881,5.881,0,0,1-.473-.924h.484a6.657,6.657,0,0,1,.693.033v-.671a4.12,4.12,0,0,1-.7.044h-.495V-8.052a7.431,7.431,0,0,1,.055-1.133h-.77a6.577,6.577,0,0,1,.055,1.144ZM56.4.891a7.4,7.4,0,0,0,1.529-2.365,6.9,6.9,0,0,0,.528-2.706,6.9,6.9,0,0,0-.528-2.706A7.4,7.4,0,0,0,56.4-9.251h-.979A6.845,6.845,0,0,1,57.09-6.974a6.67,6.67,0,0,1,.594,2.794,6.67,6.67,0,0,1-.594,2.794A6.845,6.845,0,0,1,55.418.891ZM2.288,29.922a25.587,25.587,0,0,0,4.628.52c2.132,0,3.77-.442,4.992-1.82a6.558,6.558,0,0,0,1.4-4.394,5.287,5.287,0,0,0-2.288-4.758,9.137,9.137,0,0,0-4.732-.962H4.186V11.956h8.5V10.4H2.574v9.672H5.1c3.016,0,4.368.234,5.278.936a3.9,3.9,0,0,1,1.274,3.25,4.882,4.882,0,0,1-1.092,3.406,4.578,4.578,0,0,1-3.64,1.222,26.223,26.223,0,0,1-4.628-.546ZM18.226,34.5A13.135,13.135,0,0,0,19.5,29.376V26.464h-2V28.7a21.377,21.377,0,0,1-.676,5.8Zm15.21-8.892V30h1.612V19.21H33.436v4.81H24.96L34.086,10.4h-2l-9.152,13.65v1.56Zm7.982,3.562c1.118.884,2.7,1.274,4.966,1.274,2.21,0,3.848-.442,5.044-1.586a5.251,5.251,0,0,0,1.56-3.926,4.979,4.979,0,0,0-1.274-3.536,6.275,6.275,0,0,0-1.924-1.3,17.212,17.212,0,0,0,1.482-1.638A5.249,5.249,0,0,0,52.364,15.1a4.875,4.875,0,0,0-1.092-3.3,6,6,0,0,0-4.81-1.846,6.861,6.861,0,0,0-4.394,1.222,4.736,4.736,0,0,0-1.69,3.926,5.468,5.468,0,0,0,.78,3.3,3.967,3.967,0,0,0,1.664,1.352,12.18,12.18,0,0,0-1.742,1.586,5.228,5.228,0,0,0-1.326,3.588A5,5,0,0,0,41.418,29.168Zm0-4.238a4.313,4.313,0,0,1,1.014-2.756,14.259,14.259,0,0,1,1.976-1.846A22.047,22.047,0,0,1,49.53,21.81a3.183,3.183,0,0,1,1.794,3.12A3.523,3.523,0,0,1,49.92,28a5.74,5.74,0,0,1-3.536.884,6.028,6.028,0,0,1-3.9-.962A3.506,3.506,0,0,1,41.418,24.93Zm1.56-12.376a4.913,4.913,0,0,1,3.458-1.04,4.649,4.649,0,0,1,3.406,1.118A3.343,3.343,0,0,1,50.7,15.1a4.137,4.137,0,0,1-.858,2.626,19.97,19.97,0,0,1-1.612,1.846,24.321,24.321,0,0,1-4.992-1.4c-.936-.52-1.2-1.534-1.2-3.068A3.241,3.241,0,0,1,42.978,12.554ZM59.046,28.466c.936,1.378,2.522,1.976,4.706,1.976,2.418,0,4-.832,4.94-2.444,1.04-1.794,1.274-4.576,1.274-7.956,0-3.2-.286-6.006-1.378-7.774-1.014-1.638-2.652-2.314-4.836-2.314-2.262,0-3.978.806-4.862,2.314-1.118,1.872-1.274,4.472-1.274,7.93C57.616,23.916,57.9,26.8,59.046,28.466Zm1.378-15.548a3.907,3.907,0,0,1,3.3-1.4A3.813,3.813,0,0,1,67.184,13.1c.806,1.3,1.118,3.77,1.118,6.994,0,3.12-.208,5.46-.936,6.916a3.632,3.632,0,0,1-3.588,1.872c-1.56,0-2.73-.338-3.406-1.378-.91-1.378-1.092-4.03-1.092-7.306C59.28,16.636,59.462,14.27,60.424,12.918ZM75.4,34.5a13.135,13.135,0,0,0,1.274-5.122V26.464h-2V28.7A21.377,21.377,0,0,1,74,34.5Zm7.254-6.032c.936,1.378,2.522,1.976,4.706,1.976,2.418,0,4-.832,4.94-2.444,1.04-1.794,1.274-4.576,1.274-7.956,0-3.2-.286-6.006-1.378-7.774-1.014-1.638-2.652-2.314-4.836-2.314-2.262,0-3.978.806-4.862,2.314-1.118,1.872-1.274,4.472-1.274,7.93C81.224,23.916,81.51,26.8,82.654,28.466Zm1.378-15.548a3.907,3.907,0,0,1,3.3-1.4A3.813,3.813,0,0,1,90.792,13.1c.806,1.3,1.118,3.77,1.118,6.994,0,3.12-.208,5.46-.936,6.916a3.632,3.632,0,0,1-3.588,1.872c-1.56,0-2.73-.338-3.406-1.378-.91-1.378-1.092-4.03-1.092-7.306C82.888,16.636,83.07,14.27,84.032,12.918ZM99.684,28.466c.936,1.378,2.522,1.976,4.706,1.976,2.418,0,4-.832,4.94-2.444,1.04-1.794,1.274-4.576,1.274-7.956,0-3.2-.286-6.006-1.378-7.774-1.014-1.638-2.652-2.314-4.836-2.314-2.262,0-3.978.806-4.862,2.314-1.118,1.872-1.274,4.472-1.274,7.93C98.254,23.916,98.54,26.8,99.684,28.466Zm1.378-15.548a3.907,3.907,0,0,1,3.3-1.4,3.813,3.813,0,0,1,3.458,1.586c.806,1.3,1.118,3.77,1.118,6.994,0,3.12-.208,5.46-.936,6.916a3.632,3.632,0,0,1-3.588,1.872c-1.56,0-2.73-.338-3.406-1.378-.91-1.378-1.092-4.03-1.092-7.306C99.918,16.636,100.1,14.27,101.062,12.918Zm15.652,15.548c.936,1.378,2.522,1.976,4.706,1.976,2.418,0,4-.832,4.94-2.444,1.04-1.794,1.274-4.576,1.274-7.956,0-3.2-.286-6.006-1.378-7.774-1.014-1.638-2.652-2.314-4.836-2.314-2.262,0-3.978.806-4.862,2.314-1.118,1.872-1.274,4.472-1.274,7.93C115.284,23.916,115.57,26.8,116.714,28.466Zm1.378-15.548a3.907,3.907,0,0,1,3.3-1.4,3.813,3.813,0,0,1,3.458,1.586c.806,1.3,1.118,3.77,1.118,6.994,0,3.12-.208,5.46-.936,6.916a3.632,3.632,0,0,1-3.588,1.872c-1.56,0-2.73-.338-3.406-1.378-.91-1.378-1.092-4.03-1.092-7.306C116.948,16.636,117.13,14.27,118.092,12.918Z" transform="translate(805.712 2228)" fill="#fff"/>
      </g>
    </g>
  </g>
</svg>
