<svg xmlns="http://www.w3.org/2000/svg" width="938" height="58" viewBox="0 0 938 58">
  <g id="price04" transform="translate(-278 -2191)">
    <rect id="bg" width="938" height="58" transform="translate(278 2191)" fill="#0653b6"/>
    <path id="パス_699" data-name="パス 699" d="M-420.043,1.134a8.852,8.852,0,0,1-2.128-2.9,8.489,8.489,0,0,1-.756-3.556,8.489,8.489,0,0,1,.756-3.556,8.852,8.852,0,0,1,2.128-2.9h-1.246a9.423,9.423,0,0,0-1.946,3.01,8.78,8.78,0,0,0-.672,3.444,8.78,8.78,0,0,0,.672,3.444,9.423,9.423,0,0,0,1.946,3.01Zm7.014-11.284h-4.032a7.828,7.828,0,0,1-1.428-.1v.966a10.231,10.231,0,0,1,1.414-.084h4.046v1.2H-415.7a8.119,8.119,0,0,1-1.554-.084,13.333,13.333,0,0,1,.056,1.512v2.156a12.77,12.77,0,0,1-.056,1.484,10.321,10.321,0,0,1,1.624-.084h2.6v1.246h-4.144a7.34,7.34,0,0,1-1.428-.1v.98a9.892,9.892,0,0,1,1.428-.084h4.144v.672a7.94,7.94,0,0,1-.1,1.54h1.05a7.454,7.454,0,0,1-.1-1.54v-.672h4.354a10.892,10.892,0,0,1,1.456.084v-.98a7.292,7.292,0,0,1-1.456.1h-4.354V-3.178h2.842a10.018,10.018,0,0,1,1.6.084,12.926,12.926,0,0,1-.056-1.484v-2.2a12.8,12.8,0,0,1,.056-1.47,8.374,8.374,0,0,1-1.582.084h-2.856v-1.2h4.214a11.119,11.119,0,0,1,1.442.084v-.966a7.385,7.385,0,0,1-1.456.1h-4.2v-.182a7.542,7.542,0,0,1,.1-1.344h-1.05a7.334,7.334,0,0,1,.1,1.344Zm0,2.744v1.344h-3.3V-7.406Zm0,2.1v1.372h-3.3V-5.306Zm.854,1.372V-5.306h3.514v1.372Zm0-2.128V-7.406h3.514v1.344Zm13.216-4.242v1.848h-3.808a10.955,10.955,0,0,1-1.3-.056,12.164,12.164,0,0,1,.056,1.316V-.5A12.676,12.676,0,0,1-404.1,1.05h1.064a11.209,11.209,0,0,1-.084-1.512v-7.21h4.158v5.124h-1.75v-2.87a6.656,6.656,0,0,1,.056-1.008h-.952a7.02,7.02,0,0,1,.056,1.008v3.6a12.092,12.092,0,0,1-.07,1.358h.882V-1.778h4.48v.658h.868a8.23,8.23,0,0,1-.056-1.176V-5.418a6.652,6.652,0,0,1,.056-1.008h-.952a6.775,6.775,0,0,1,.056,1.008v2.87h-1.82V-7.672h4.214V-.378c0,.322-.1.392-.546.392a10.993,10.993,0,0,1-1.708-.168,3.02,3.02,0,0,1,.252.924c1.134.07,1.134.07,1.386.07a2.109,2.109,0,0,0,1.148-.182c.266-.154.364-.392.364-.938V-7.224a11.154,11.154,0,0,1,.056-1.288,11.214,11.214,0,0,1-1.316.056h-3.85V-10.3h4.41a11.267,11.267,0,0,1,1.47.084v-.98a11.344,11.344,0,0,1-1.484.084h-9.632a11.047,11.047,0,0,1-1.484-.084v.98a10.68,10.68,0,0,1,1.47-.084Zm17.724,2.828V-9.912h1.736a10.46,10.46,0,0,1,1.456.084v-.98a30.8,30.8,0,0,1-3.654.126c-1.456,0-2.842-.014-4.186-.042a10.243,10.243,0,0,1-1.456-.084v.98a10.746,10.746,0,0,1,1.456-.084h1.232v2.436h-1.4a9.8,9.8,0,0,1-1.246-.056,11.054,11.054,0,0,1,.07,1.274V-.532a11.651,11.651,0,0,1-.084,1.484h.952V.028h6.9V.952h.952a10.56,10.56,0,0,1-.084-1.526v-5.74a8.66,8.66,0,0,1,.056-1.218,8.761,8.761,0,0,1-1.232.056Zm-.84,0h-1.736V-9.912h1.736Zm-2.576.784V-.756h-1.708V-6.692Zm.84,0h1.736V-.756h-1.736Zm2.576,0h1.778V-.756h-1.778Zm-8.26,6.1a13.929,13.929,0,0,1-.084,1.68h1.008a13.269,13.269,0,0,1-.07-1.638v-7.7a19.323,19.323,0,0,0,.952-2.45c.126-.406.168-.5.266-.756l-.938-.336a8.931,8.931,0,0,1-.532,1.974,12.334,12.334,0,0,1-2.352,4.1,3.39,3.39,0,0,1,.56.77,11.6,11.6,0,0,0,1.232-2c-.042.63-.042.98-.042,1.68Zm20.034-9.786c.154-.322.2-.406.28-.6a4.067,4.067,0,0,1,.224-.518l-.924-.224a9.357,9.357,0,0,1-2.674,4.326,1.953,1.953,0,0,1,.63.588,10.872,10.872,0,0,0,1.386-1.708,11.07,11.07,0,0,0,1.652,1.974A13.51,13.51,0,0,1-372.9-4.256a2.53,2.53,0,0,1,.574.714c.49-.224.6-.28.98-.462a10.464,10.464,0,0,1,.042,1.134V-.322a8.524,8.524,0,0,1-.07,1.4h.924V.266h4.354v.812h.924a8.41,8.41,0,0,1-.07-1.414V-2.87a7.963,7.963,0,0,1,.042-1.176c.28.126.476.21,1.036.448a3.169,3.169,0,0,1,.518-.854,13.166,13.166,0,0,1-4.018-2.1,11.282,11.282,0,0,0,2.1-2.786,5.7,5.7,0,0,1,.336-.546l-.546-.56a6.907,6.907,0,0,1-1.316.07Zm3.052.77a8.715,8.715,0,0,1-1.876,2.534,9.926,9.926,0,0,1-1.806-2.142c.1-.168.126-.21.224-.392Zm-3.808,5.558a9.356,9.356,0,0,1-1.008-.028,13.282,13.282,0,0,0,2.954-1.918,13.6,13.6,0,0,0,3.01,1.918,10.749,10.749,0,0,1-1.092.028Zm-.238.756h4.354V-.5h-4.354Zm-4.158-5.586h-.854a6.176,6.176,0,0,1-1.022-.056v.868a6.774,6.774,0,0,1,1.008-.056h.756a13.356,13.356,0,0,1-2.086,4.956,2.623,2.623,0,0,1,.588.728,7.483,7.483,0,0,0,.868-1.624,14.012,14.012,0,0,0,.826-2.6c-.07,1.148-.084,1.694-.084,2.184V-.532a11.759,11.759,0,0,1-.084,1.624h1.008a11.485,11.485,0,0,1-.084-1.624V-4.774c0-.63-.028-1.456-.056-2.254a10.1,10.1,0,0,0,1.2,2.226,4.5,4.5,0,0,1,.546-.644,8.516,8.516,0,0,1-1.064-1.5,7.487,7.487,0,0,1-.6-1.176h.616a8.472,8.472,0,0,1,.882.042v-.854a5.244,5.244,0,0,1-.9.056h-.63v-1.372a9.458,9.458,0,0,1,.07-1.442h-.98a8.371,8.371,0,0,1,.07,1.456Zm12.88,10.01a9.423,9.423,0,0,0,1.946-3.01,8.78,8.78,0,0,0,.672-3.444,8.78,8.78,0,0,0-.672-3.444,9.423,9.423,0,0,0-1.946-3.01h-1.246a8.712,8.712,0,0,1,2.128,2.9A8.489,8.489,0,0,1-360.1-5.32a8.489,8.489,0,0,1-.756,3.556,8.712,8.712,0,0,1-2.128,2.9ZM-347.751-.06a19.682,19.682,0,0,0,3.56.4,4.726,4.726,0,0,0,3.84-1.4,5.045,5.045,0,0,0,1.08-3.38,4.067,4.067,0,0,0-1.76-3.66,7.029,7.029,0,0,0-3.64-.74h-1.62v-5.04h6.54v-1.2h-7.78v7.44h1.94c2.32,0,3.36.18,4.06.72a3,3,0,0,1,.98,2.5,3.755,3.755,0,0,1-.84,2.62,3.522,3.522,0,0,1-2.8.94,20.171,20.171,0,0,1-3.56-.42Zm12.26,3.52a10.1,10.1,0,0,0,.98-3.94V-2.72h-1.54V-1a16.443,16.443,0,0,1-.52,4.46Zm11.7-6.84V0h1.24V-8.3h-1.24v3.7h-6.52l7.02-10.48h-1.54l-7.04,10.5v1.2Zm6.14,2.74a5.979,5.979,0,0,0,3.82.98,5.3,5.3,0,0,0,3.88-1.22,4.039,4.039,0,0,0,1.2-3.02,3.83,3.83,0,0,0-.98-2.72,4.827,4.827,0,0,0-1.48-1,13.242,13.242,0,0,0,1.14-1.26,4.038,4.038,0,0,0,.84-2.58,3.75,3.75,0,0,0-.84-2.54,4.614,4.614,0,0,0-3.7-1.42,5.277,5.277,0,0,0-3.38.94,3.643,3.643,0,0,0-1.3,3.02,4.206,4.206,0,0,0,.6,2.54,3.051,3.051,0,0,0,1.28,1.04,9.37,9.37,0,0,0-1.34,1.22,4.022,4.022,0,0,0-1.02,2.76A3.847,3.847,0,0,0-317.651-.64Zm0-3.26a3.318,3.318,0,0,1,.78-2.12,10.968,10.968,0,0,1,1.52-1.42,16.959,16.959,0,0,1,3.94,1.14,2.448,2.448,0,0,1,1.38,2.4,2.71,2.71,0,0,1-1.08,2.36,4.415,4.415,0,0,1-2.72.68,4.637,4.637,0,0,1-3-.74A2.7,2.7,0,0,1-317.651-3.9Zm1.2-9.52a3.779,3.779,0,0,1,2.66-.8,3.576,3.576,0,0,1,2.62.86,2.572,2.572,0,0,1,.66,1.9,3.183,3.183,0,0,1-.66,2.02,15.36,15.36,0,0,1-1.24,1.42,18.708,18.708,0,0,1-3.84-1.08c-.72-.4-.92-1.18-.92-2.36A2.493,2.493,0,0,1-316.451-13.42Zm12.36,12.24a4.034,4.034,0,0,0,3.62,1.52,3.987,3.987,0,0,0,3.8-1.88c.8-1.38.98-3.52.98-6.12,0-2.46-.22-4.62-1.06-5.98a4,4,0,0,0-3.72-1.78,4.064,4.064,0,0,0-3.74,1.78c-.86,1.44-.98,3.44-.98,6.1C-305.191-4.68-304.971-2.46-304.091-1.18Zm1.06-11.96a3.005,3.005,0,0,1,2.54-1.08,2.933,2.933,0,0,1,2.66,1.22c.62,1,.86,2.9.86,5.38a13,13,0,0,1-.72,5.32,2.794,2.794,0,0,1-2.76,1.44,2.841,2.841,0,0,1-2.62-1.06c-.7-1.06-.84-3.1-.84-5.62C-303.911-10.28-303.771-12.1-303.031-13.14Zm11.52,16.6a10.1,10.1,0,0,0,.98-3.94V-2.72h-1.54V-1a16.443,16.443,0,0,1-.52,4.46Zm5.58-4.64a4.034,4.034,0,0,0,3.62,1.52,3.987,3.987,0,0,0,3.8-1.88c.8-1.38.98-3.52.98-6.12,0-2.46-.22-4.62-1.06-5.98a4,4,0,0,0-3.72-1.78,4.064,4.064,0,0,0-3.74,1.78c-.86,1.44-.98,3.44-.98,6.1C-287.031-4.68-286.811-2.46-285.931-1.18Zm1.06-11.96a3.005,3.005,0,0,1,2.54-1.08,2.933,2.933,0,0,1,2.66,1.22c.62,1,.86,2.9.86,5.38a13,13,0,0,1-.72,5.32,2.794,2.794,0,0,1-2.76,1.44,2.841,2.841,0,0,1-2.62-1.06c-.7-1.06-.84-3.1-.84-5.62C-285.751-10.28-285.611-12.1-284.871-13.14Zm12.04,11.96a4.034,4.034,0,0,0,3.62,1.52,3.987,3.987,0,0,0,3.8-1.88c.8-1.38.98-3.52.98-6.12,0-2.46-.22-4.62-1.06-5.98a4,4,0,0,0-3.72-1.78,4.064,4.064,0,0,0-3.74,1.78c-.86,1.44-.98,3.44-.98,6.1C-273.931-4.68-273.711-2.46-272.831-1.18Zm1.06-11.96a3.005,3.005,0,0,1,2.54-1.08,2.933,2.933,0,0,1,2.66,1.22c.62,1,.86,2.9.86,5.38a13,13,0,0,1-.72,5.32,2.794,2.794,0,0,1-2.76,1.44,2.841,2.841,0,0,1-2.62-1.06c-.7-1.06-.84-3.1-.84-5.62C-272.651-10.28-272.511-12.1-271.771-13.14Zm12.04,11.96a4.034,4.034,0,0,0,3.62,1.52,3.987,3.987,0,0,0,3.8-1.88c.8-1.38.98-3.52.98-6.12,0-2.46-.22-4.62-1.06-5.98a4,4,0,0,0-3.72-1.78,4.064,4.064,0,0,0-3.74,1.78c-.86,1.44-.98,3.44-.98,6.1C-260.831-4.68-260.611-2.46-259.731-1.18Zm1.06-11.96a3.005,3.005,0,0,1,2.54-1.08,2.933,2.933,0,0,1,2.66,1.22c.62,1,.86,2.9.86,5.38a13,13,0,0,1-.72,5.32,2.794,2.794,0,0,1-2.76,1.44,2.841,2.841,0,0,1-2.62-1.06c-.7-1.06-.84-3.1-.84-5.62C-259.551-10.28-259.411-12.1-258.671-13.14Zm11.59,8.282h9.128V-.5c0,.266-.126.322-.742.322a20.367,20.367,0,0,1-2.212-.168,3.464,3.464,0,0,1,.224.91c.672.056,1.442.084,2,.084,1.358,0,1.666-.2,1.666-1.036V-9.576a10.845,10.845,0,0,1,.056-1.288,10.119,10.119,0,0,1-1.288.056h-8.54a10.7,10.7,0,0,1-1.288-.056,10.53,10.53,0,0,1,.056,1.246v9A9.949,9.949,0,0,1-248.1.91h1.092a8.249,8.249,0,0,1-.07-1.484Zm3.99-.84h-3.99V-9.954h3.99Zm.91,0V-9.954h4.228V-5.7Zm21.056,2.31h3.374V-4.34h-3.374V-7.714h-.98V-4.34h-3.388v.952h3.388V0h.98Zm17.57,4.522a8.853,8.853,0,0,1-2.128-2.9,8.489,8.489,0,0,1-.756-3.556,8.489,8.489,0,0,1,.756-3.556,8.853,8.853,0,0,1,2.128-2.9H-204.8a9.423,9.423,0,0,0-1.946,3.01,8.78,8.78,0,0,0-.672,3.444,8.78,8.78,0,0,0,.672,3.444,9.423,9.423,0,0,0,1.946,3.01Zm8.848-7.252v.084l.056,5.152v.308a8.274,8.274,0,0,1-.056,1.106h1.134a12.714,12.714,0,0,1-.07-1.428l-.1-6.818h2.086a11.455,11.455,0,0,1,1.162.042V-8.694a7.075,7.075,0,0,1-1.4.084h-1.848l-.028-1.4v-.336a5.378,5.378,0,0,1,.056-.77h-1.12a6.671,6.671,0,0,1,.07,1.134l.014,1.372-5.1.028a7.912,7.912,0,0,1-1.582-.1v1.05a11,11,0,0,1,1.554-.056l4.592-.028A13.5,13.5,0,0,1-197.3-5.166a15.893,15.893,0,0,1-4.746,3.346,2.257,2.257,0,0,1,.7.84,21.537,21.537,0,0,0,2.31-1.442,16.338,16.338,0,0,0,3.318-3.094,8.719,8.719,0,0,0,1.05-1.568c-.028.6-.042.812-.042.91Zm16.086-3.668h-6.888a9.925,9.925,0,0,1-1.582-.084v1.12a10.337,10.337,0,0,1,1.568-.084h7.126a11.345,11.345,0,0,1-2.45,4.984,11.242,11.242,0,0,1-5.124,3.178,2.77,2.77,0,0,1,.686.966,12.991,12.991,0,0,0,5.1-3.318A12.5,12.5,0,0,0-177.333-8.6l.028-.084a1.65,1.65,0,0,0,.49.07,1.6,1.6,0,0,0,1.6-1.6,1.589,1.589,0,0,0-1.582-1.582,1.6,1.6,0,0,0-1.6,1.6,1.483,1.483,0,0,0,.056.406Zm1.82-1.414a1,1,0,0,1,.994.994A1,1,0,0,1-176.8-9.2a1,1,0,0,1-1.008-1.008A1,1,0,0,1-176.8-11.2Zm4.9,1.288a14.722,14.722,0,0,1,3.444,1.848l.574-.938a20.7,20.7,0,0,0-3.472-1.764Zm-1.106,3.346a15.545,15.545,0,0,1,3.57,1.918l.546-.938a21.356,21.356,0,0,0-3.556-1.834Zm.476,6.706a3.286,3.286,0,0,1,.546-.154c.28-.056.532-.112.756-.154a15.991,15.991,0,0,0,3.542-1.2,10.974,10.974,0,0,0,5.39-6.034,4.222,4.222,0,0,1-.868-.742,10.425,10.425,0,0,1-1.68,3.136,9.221,9.221,0,0,1-4.2,3.122,12.107,12.107,0,0,1-3.766.868Zm21.112-.084v.7h.966a4.415,4.415,0,0,1-.056-.868V-6.44c0-.49,0-.714.014-1.078-.252.014-.5.028-.952.028h-5.208a6.967,6.967,0,0,1-1.218-.084v.966a6.334,6.334,0,0,1,1.218-.056h5.236v2.436h-4.914a6.967,6.967,0,0,1-1.218-.084v.952a6.164,6.164,0,0,1,1.2-.056h4.928V-.784h-5.376a7.192,7.192,0,0,1-1.218-.084v.98a6.252,6.252,0,0,1,1.218-.056Zm6.58-9.2A15.46,15.46,0,0,1-141.507-6.4l.728-.868A18.238,18.238,0,0,0-144.153-9.9Zm.1,9.1a7.356,7.356,0,0,1,.84-.224,14.115,14.115,0,0,0,5.222-2.086,12.279,12.279,0,0,0,4.27-5.348,2.8,2.8,0,0,1-.854-.826,10.578,10.578,0,0,1-5.712,6.23,12.186,12.186,0,0,1-4.074,1.078ZM-126.6-11.606a10.185,10.185,0,0,1-2.156,2.436,14.6,14.6,0,0,1-3.808,2.436,2.434,2.434,0,0,1,.588.8A16.187,16.187,0,0,0-129-7.756a13.045,13.045,0,0,0,2.94-3.066,11.761,11.761,0,0,0,2.156,2.352,19.57,19.57,0,0,0,3.948,2.576,3.624,3.624,0,0,1,.56-.882,14.681,14.681,0,0,1-3.836-2.3,9.617,9.617,0,0,1-2.31-2.534Zm-2.73,5.208a8.051,8.051,0,0,1,1.092-.056h4.354A8.618,8.618,0,0,1-122.7-6.4V-7.35a8.36,8.36,0,0,1-1.176.056h-4.34a7.155,7.155,0,0,1-1.106-.056Zm-.1,7.308V.1h6.762V.91h1.008a9.73,9.73,0,0,1-.084-1.372V-3.556a8.461,8.461,0,0,1,.07-1.288,7.419,7.419,0,0,1-1.092.056h-6.566a7.419,7.419,0,0,1-1.092-.056,8.8,8.8,0,0,1,.07,1.288V-.462A10.162,10.162,0,0,1-130.433.91Zm0-4.844h6.762V-.728h-6.762Zm19.894-3.234h-1.232a12.243,12.243,0,0,1-1.61-.084v1.008a13.661,13.661,0,0,1,1.61-.084h1.232V-.98a14.332,14.332,0,0,1-.1,2h1.12a12.65,12.65,0,0,1-.112-2V-6.328h1.33a14.426,14.426,0,0,1,1.68.084V-7.252a13.146,13.146,0,0,1-1.68.084h-1.33V-10a10,10,0,0,1,.1-1.554h-1.106a10.121,10.121,0,0,1,.1,1.554Zm-7.98-3.024a8.461,8.461,0,0,1,1.134-.056h2.282a8.548,8.548,0,0,1,1.106.056v-.882a6.187,6.187,0,0,1-1.106.07h-2.282a6.432,6.432,0,0,1-1.134-.07Zm-.658,1.946a8.082,8.082,0,0,1,1.2-.07h3.388a7.5,7.5,0,0,1,1.218.07V-9.17a6.858,6.858,0,0,1-1.218.084h-3.374a7.668,7.668,0,0,1-1.218-.084Zm.672,1.9a6.774,6.774,0,0,1,1.008-.056H-114a7.063,7.063,0,0,1,.994.056V-7.2A6.34,6.34,0,0,1-114-7.14h-2.492A6.311,6.311,0,0,1-117.5-7.2Zm0,1.932a6.655,6.655,0,0,1,1.008-.056H-114A6.572,6.572,0,0,1-113-4.41v-.854a6.34,6.34,0,0,1-.994.056h-2.492a6.091,6.091,0,0,1-1.008-.056ZM-116.5.308h2.66V.854h.938a7.3,7.3,0,0,1-.084-1.19V-2.184a7.852,7.852,0,0,1,.056-1.12,8.948,8.948,0,0,1-.952.042h-2.562a6.373,6.373,0,0,1-.98-.056,7.113,7.113,0,0,1,.07,1.148V-.308a9.45,9.45,0,0,1-.084,1.344h.938Zm-.014-2.814h2.688V-.434h-2.688Zm21.77-4.97V-9.912h1.736a10.461,10.461,0,0,1,1.456.084v-.98a30.8,30.8,0,0,1-3.654.126c-1.456,0-2.842-.014-4.186-.042a10.244,10.244,0,0,1-1.456-.084v.98a10.746,10.746,0,0,1,1.456-.084h1.232v2.436h-1.4a9.8,9.8,0,0,1-1.246-.056,11.06,11.06,0,0,1,.07,1.274V-.532a11.651,11.651,0,0,1-.084,1.484h.952V.028h6.9V.952h.952A10.562,10.562,0,0,1-92.1-.574v-5.74a8.66,8.66,0,0,1,.056-1.218,8.761,8.761,0,0,1-1.232.056Zm-.84,0h-1.736V-9.912h1.736Zm-2.576.784V-.756h-1.708V-6.692Zm.84,0h1.736V-.756h-1.736Zm2.576,0h1.778V-.756h-1.778Zm-8.26,6.1a13.929,13.929,0,0,1-.084,1.68h1.008a13.269,13.269,0,0,1-.07-1.638v-7.7a19.324,19.324,0,0,0,.952-2.45c.126-.406.168-.5.266-.756l-.938-.336a8.93,8.93,0,0,1-.532,1.974,12.334,12.334,0,0,1-2.352,4.1,3.391,3.391,0,0,1,.56.77,11.593,11.593,0,0,0,1.232-2c-.042.63-.042.98-.042,1.68Zm20.034-9.786c.154-.322.2-.406.28-.6a4.064,4.064,0,0,1,.224-.518l-.924-.224a9.357,9.357,0,0,1-2.674,4.326,1.954,1.954,0,0,1,.63.588,10.872,10.872,0,0,0,1.386-1.708A11.069,11.069,0,0,0-82.4-6.538a13.51,13.51,0,0,1-4.018,2.282,2.53,2.53,0,0,1,.574.714c.49-.224.6-.28.98-.462a10.46,10.46,0,0,1,.042,1.134V-.322a8.524,8.524,0,0,1-.07,1.4h.924V.266h4.354v.812h.924a8.406,8.406,0,0,1-.07-1.414V-2.87a7.962,7.962,0,0,1,.042-1.176c.28.126.476.21,1.036.448a3.169,3.169,0,0,1,.518-.854,13.166,13.166,0,0,1-4.018-2.1,11.282,11.282,0,0,0,2.1-2.786,5.7,5.7,0,0,1,.336-.546l-.546-.56a6.907,6.907,0,0,1-1.316.07Zm3.052.77A8.715,8.715,0,0,1-81.8-7.07,9.927,9.927,0,0,1-83.6-9.212c.1-.168.126-.21.224-.392Zm-3.808,5.558a9.357,9.357,0,0,1-1.008-.028,13.282,13.282,0,0,0,2.954-1.918,13.6,13.6,0,0,0,3.01,1.918,10.749,10.749,0,0,1-1.092.028Zm-.238.756h4.354V-.5h-4.354Zm-4.158-5.586h-.854A6.176,6.176,0,0,1-90-8.932v.868a6.774,6.774,0,0,1,1.008-.056h.756a13.355,13.355,0,0,1-2.086,4.956,2.622,2.622,0,0,1,.588.728,7.483,7.483,0,0,0,.868-1.624,14.012,14.012,0,0,0,.826-2.6c-.07,1.148-.084,1.694-.084,2.184V-.532a11.76,11.76,0,0,1-.084,1.624H-87.2a11.484,11.484,0,0,1-.084-1.624V-4.774c0-.63-.028-1.456-.056-2.254a10.1,10.1,0,0,0,1.2,2.226,4.494,4.494,0,0,1,.546-.644,8.517,8.517,0,0,1-1.064-1.5,7.485,7.485,0,0,1-.6-1.176h.616a8.472,8.472,0,0,1,.882.042v-.854a5.244,5.244,0,0,1-.9.056h-.63v-1.372a9.458,9.458,0,0,1,.07-1.442h-.98a8.371,8.371,0,0,1,.07,1.456Zm12.88,10.01A9.423,9.423,0,0,0-73.3-1.876a8.78,8.78,0,0,0,.672-3.444A8.78,8.78,0,0,0-73.3-8.764a9.423,9.423,0,0,0-1.946-3.01h-1.246a8.712,8.712,0,0,1,2.128,2.9,8.489,8.489,0,0,1,.756,3.556,8.489,8.489,0,0,1-.756,3.556,8.712,8.712,0,0,1-2.128,2.9ZM-61.6-10.46a4.805,4.805,0,0,0,.7,2.96c.68.98,1.86,1.4,3.8,1.4a29.593,29.593,0,0,0,3.54-.28,12.239,12.239,0,0,1-.28,2.36,4.2,4.2,0,0,1-1.44,2.46,4.29,4.29,0,0,1-2.54.7,18.109,18.109,0,0,1-3.3-.42V-.06a17.531,17.531,0,0,0,3.3.4A5.127,5.127,0,0,0-54.023-1a5.8,5.8,0,0,0,1.46-2.9,17.319,17.319,0,0,0,.28-3.8c0-2.66-.26-4.68-1.06-5.96a4.1,4.1,0,0,0-3.72-1.76,4.111,4.111,0,0,0-3.8,1.74A5.979,5.979,0,0,0-61.6-10.46Zm1.28,0a4.312,4.312,0,0,1,.64-2.72,3.056,3.056,0,0,1,2.62-1.04,2.9,2.9,0,0,1,2.74,1.36c.68,1.22.76,3.2.76,5.28a29.58,29.58,0,0,1-3.52.28,3.282,3.282,0,0,1-2.74-.9A3.658,3.658,0,0,1-60.323-10.46Zm12.68,9.28A4.034,4.034,0,0,0-44.023.34a3.987,3.987,0,0,0,3.8-1.88c.8-1.38.98-3.52.98-6.12,0-2.46-.22-4.62-1.06-5.98a4,4,0,0,0-3.72-1.78,4.064,4.064,0,0,0-3.74,1.78c-.86,1.44-.98,3.44-.98,6.1C-48.743-4.68-48.523-2.46-47.643-1.18Zm1.06-11.96a3.005,3.005,0,0,1,2.54-1.08A2.933,2.933,0,0,1-41.383-13c.62,1,.86,2.9.86,5.38a13,13,0,0,1-.72,5.32A2.794,2.794,0,0,1-44-.86a2.841,2.841,0,0,1-2.62-1.06c-.7-1.06-.84-3.1-.84-5.62C-47.463-10.28-47.323-12.1-46.583-13.14Zm11.74,11.78c.74,1.16,1.92,1.7,3.78,1.7a4.243,4.243,0,0,0,3.8-1.62,5.312,5.312,0,0,0,.88-3.22A4.483,4.483,0,0,0-27.4-7.58c-.84-.9-2.1-1.26-4.12-1.26-1.02,0-2.16.04-2.64.06a5.388,5.388,0,0,1,1.68-3.26,10.87,10.87,0,0,1,5.16-2.08v-1.22A12.236,12.236,0,0,0-33.5-12.8c-2.14,1.98-2.2,5.38-2.2,7.44A7.417,7.417,0,0,0-34.843-1.36Zm.52-6.24c.56-.02,1.7-.06,2.72-.06,1.5,0,2.56.16,3.24.9a3.391,3.391,0,0,1,.7,2.26,4.173,4.173,0,0,1-.68,2.56,3.066,3.066,0,0,1-2.72,1.08,2.971,2.971,0,0,1-2.76-1.24,6.457,6.457,0,0,1-.6-3.26A20.094,20.094,0,0,1-34.323-7.6Zm11.74,11.06A10.1,10.1,0,0,0-21.6-.48V-2.72h-1.54V-1a16.444,16.444,0,0,1-.52,4.46ZM-17-1.18A4.034,4.034,0,0,0-13.383.34a3.987,3.987,0,0,0,3.8-1.88c.8-1.38.98-3.52.98-6.12,0-2.46-.22-4.62-1.06-5.98a4,4,0,0,0-3.72-1.78,4.064,4.064,0,0,0-3.74,1.78c-.86,1.44-.98,3.44-.98,6.1C-18.1-4.68-17.883-2.46-17-1.18Zm1.06-11.96a3.005,3.005,0,0,1,2.54-1.08A2.933,2.933,0,0,1-10.743-13c.62,1,.86,2.9.86,5.38A13,13,0,0,1-10.6-2.3a2.794,2.794,0,0,1-2.76,1.44,2.841,2.841,0,0,1-2.62-1.06c-.7-1.06-.84-3.1-.84-5.62C-16.823-10.28-16.683-12.1-15.943-13.14ZM-3.9-1.18A4.034,4.034,0,0,0-.283.34a3.987,3.987,0,0,0,3.8-1.88c.8-1.38.98-3.52.98-6.12,0-2.46-.22-4.62-1.06-5.98a4,4,0,0,0-3.72-1.78,4.064,4.064,0,0,0-3.74,1.78C-4.883-12.2-5-10.2-5-7.54-5-4.68-4.783-2.46-3.9-1.18Zm1.06-11.96A3.005,3.005,0,0,1-.3-14.22,2.933,2.933,0,0,1,2.357-13c.62,1,.86,2.9.86,5.38A13,13,0,0,1,2.5-2.3,2.794,2.794,0,0,1-.263-.86a2.841,2.841,0,0,1-2.62-1.06c-.7-1.06-.84-3.1-.84-5.62C-3.723-10.28-3.583-12.1-2.843-13.14ZM9.2-1.18A4.034,4.034,0,0,0,12.817.34a3.987,3.987,0,0,0,3.8-1.88c.8-1.38.98-3.52.98-6.12,0-2.46-.22-4.62-1.06-5.98a4,4,0,0,0-3.72-1.78,4.064,4.064,0,0,0-3.74,1.78c-.86,1.44-.98,3.44-.98,6.1C8.1-4.68,8.317-2.46,9.2-1.18Zm1.06-11.96a3.005,3.005,0,0,1,2.54-1.08A2.933,2.933,0,0,1,15.457-13c.62,1,.86,2.9.86,5.38A13,13,0,0,1,15.6-2.3a2.794,2.794,0,0,1-2.76,1.44,2.841,2.841,0,0,1-2.62-1.06c-.7-1.06-.84-3.1-.84-5.62C9.377-10.28,9.517-12.1,10.257-13.14Zm11.59,8.282h9.128V-.5c0,.266-.126.322-.742.322A20.366,20.366,0,0,1,28.021-.35a3.464,3.464,0,0,1,.224.91c.672.056,1.442.084,2,.084,1.358,0,1.666-.2,1.666-1.036V-9.576a10.846,10.846,0,0,1,.056-1.288,10.119,10.119,0,0,1-1.288.056h-8.54a10.7,10.7,0,0,1-1.288-.056,10.531,10.531,0,0,1,.056,1.246v9A9.949,9.949,0,0,1,20.825.91h1.092a8.249,8.249,0,0,1-.07-1.484Zm3.99-.84h-3.99V-9.954h3.99Zm.91,0V-9.954h4.228V-5.7ZM43.463-5.81v.952h7.7V-5.81Zm0,2.828v.952h7.7v-.952Zm18.228,4.34H65.3a8.927,8.927,0,0,1-1.484-2.6A11.989,11.989,0,0,1,63.2-5.32a11.989,11.989,0,0,1,.616-4.074A8.927,8.927,0,0,1,65.3-12H61.691Zm10.64-12.964A10.185,10.185,0,0,1,70.175-9.17a14.6,14.6,0,0,1-3.808,2.436,2.433,2.433,0,0,1,.588.8,16.187,16.187,0,0,0,2.968-1.82,13.044,13.044,0,0,0,2.94-3.066A11.761,11.761,0,0,0,75.019-8.47a19.57,19.57,0,0,0,3.948,2.576,3.624,3.624,0,0,1,.56-.882,14.681,14.681,0,0,1-3.836-2.3,9.617,9.617,0,0,1-2.31-2.534ZM69.6-6.4a8.051,8.051,0,0,1,1.092-.056h4.354a8.618,8.618,0,0,1,1.176.056V-7.35a8.36,8.36,0,0,1-1.176.056h-4.34A7.155,7.155,0,0,1,69.6-7.35ZM69.5.91V.1h6.762V.91h1.008a9.73,9.73,0,0,1-.084-1.372V-3.556a8.461,8.461,0,0,1,.07-1.288,7.419,7.419,0,0,1-1.092.056H69.6a7.419,7.419,0,0,1-1.092-.056,8.8,8.8,0,0,1,.07,1.288V-.462A10.162,10.162,0,0,1,68.495.91Zm0-4.844h6.762V-.728H69.5ZM89.4-7.168H88.165a12.243,12.243,0,0,1-1.61-.084v1.008a13.661,13.661,0,0,1,1.61-.084H89.4V-.98a14.332,14.332,0,0,1-.1,2h1.12a12.65,12.65,0,0,1-.112-2V-6.328h1.33a14.426,14.426,0,0,1,1.68.084V-7.252a13.146,13.146,0,0,1-1.68.084h-1.33V-10a10,10,0,0,1,.1-1.554H89.3A10.121,10.121,0,0,1,89.4-10Zm-7.98-3.024a8.461,8.461,0,0,1,1.134-.056h2.282a8.548,8.548,0,0,1,1.106.056v-.882a6.187,6.187,0,0,1-1.106.07H82.551a6.432,6.432,0,0,1-1.134-.07Zm-.658,1.946a8.082,8.082,0,0,1,1.2-.07h3.388a7.5,7.5,0,0,1,1.218.07V-9.17a6.858,6.858,0,0,1-1.218.084H81.977a7.668,7.668,0,0,1-1.218-.084Zm.672,1.9A6.774,6.774,0,0,1,82.439-6.4h2.492a7.063,7.063,0,0,1,.994.056V-7.2a6.34,6.34,0,0,1-.994.056H82.439A6.311,6.311,0,0,1,81.431-7.2Zm0,1.932a6.655,6.655,0,0,1,1.008-.056h2.492a6.572,6.572,0,0,1,.994.056v-.854a6.34,6.34,0,0,1-.994.056H82.439a6.091,6.091,0,0,1-1.008-.056ZM82.425.308h2.66V.854h.938a7.3,7.3,0,0,1-.084-1.19V-2.184A7.852,7.852,0,0,1,86-3.3a8.948,8.948,0,0,1-.952.042H82.481a6.373,6.373,0,0,1-.98-.056,7.113,7.113,0,0,1,.07,1.148V-.308a9.45,9.45,0,0,1-.084,1.344h.938Zm-.014-2.814H85.1V-.434H82.411ZM98.119,1.358V-12H94.507a8.927,8.927,0,0,1,1.484,2.6,11.879,11.879,0,0,1,.616,4.074,11.879,11.879,0,0,1-.616,4.074,8.927,8.927,0,0,1-1.484,2.6ZM110.505-1.36c.74,1.16,1.92,1.7,3.78,1.7a4.243,4.243,0,0,0,3.8-1.62,5.312,5.312,0,0,0,.88-3.22,4.483,4.483,0,0,0-1.02-3.08c-.84-.9-2.1-1.26-4.12-1.26-1.02,0-2.16.04-2.64.06a5.388,5.388,0,0,1,1.68-3.26,10.87,10.87,0,0,1,5.16-2.08v-1.22a12.236,12.236,0,0,0-6.18,2.54c-2.14,1.98-2.2,5.38-2.2,7.44A7.417,7.417,0,0,0,110.505-1.36Zm.52-6.24c.56-.02,1.7-.06,2.72-.06,1.5,0,2.56.16,3.24.9a3.391,3.391,0,0,1,.7,2.26,4.173,4.173,0,0,1-.68,2.56,3.066,3.066,0,0,1-2.72,1.08,2.971,2.971,0,0,1-2.76-1.24,6.457,6.457,0,0,1-.6-3.26A20.092,20.092,0,0,1,111.025-7.6Zm11.74,11.06a10.1,10.1,0,0,0,.98-3.94V-2.72h-1.54V-1a16.444,16.444,0,0,1-.52,4.46Zm3.58-4.78V-.1a22.909,22.909,0,0,0,3.84.44,5.055,5.055,0,0,0,3.9-1.26,4.494,4.494,0,0,0,1.14-3.14,4.17,4.17,0,0,0-.92-2.84,4.681,4.681,0,0,0-1.14-.96c.24-.32.64-.86,1-1.4a4.776,4.776,0,0,0,.94-2.64,3.417,3.417,0,0,0-.88-2.42c-.8-.8-1.8-1.1-3.62-1.1a19.38,19.38,0,0,0-4.14.64v1.22a19.694,19.694,0,0,1,4.14-.66,3.617,3.617,0,0,1,2.64.74,2.121,2.121,0,0,1,.58,1.6,3.955,3.955,0,0,1-.94,2.32l-.88,1.22h-4.14v1.2h2.58a3.992,3.992,0,0,1,2.04.34,2.871,2.871,0,0,1,1.46,2.78,3.024,3.024,0,0,1-1.1,2.52,4.564,4.564,0,0,1-2.66.64A24.629,24.629,0,0,1,126.345-1.32Zm13.68.68a5.979,5.979,0,0,0,3.82.98,5.3,5.3,0,0,0,3.88-1.22,4.039,4.039,0,0,0,1.2-3.02,3.83,3.83,0,0,0-.98-2.72,4.827,4.827,0,0,0-1.48-1,13.238,13.238,0,0,0,1.14-1.26,4.038,4.038,0,0,0,.84-2.58A3.75,3.75,0,0,0,147.6-14a4.614,4.614,0,0,0-3.7-1.42,5.278,5.278,0,0,0-3.38.94,3.643,3.643,0,0,0-1.3,3.02,4.206,4.206,0,0,0,.6,2.54,3.051,3.051,0,0,0,1.28,1.04,9.369,9.369,0,0,0-1.34,1.22,4.022,4.022,0,0,0-1.02,2.76A3.847,3.847,0,0,0,140.025-.64Zm0-3.26a3.318,3.318,0,0,1,.78-2.12,10.968,10.968,0,0,1,1.52-1.42,16.959,16.959,0,0,1,3.94,1.14,2.448,2.448,0,0,1,1.38,2.4,2.71,2.71,0,0,1-1.08,2.36,4.415,4.415,0,0,1-2.72.68,4.637,4.637,0,0,1-3-.74A2.7,2.7,0,0,1,140.025-3.9Zm1.2-9.52a3.779,3.779,0,0,1,2.66-.8,3.577,3.577,0,0,1,2.62.86,2.572,2.572,0,0,1,.66,1.9,3.183,3.183,0,0,1-.66,2.02,15.362,15.362,0,0,1-1.24,1.42,18.708,18.708,0,0,1-3.84-1.08c-.72-.4-.92-1.18-.92-2.36A2.493,2.493,0,0,1,141.225-13.42Zm12.06,12.06c.74,1.16,1.92,1.7,3.78,1.7a4.243,4.243,0,0,0,3.8-1.62,5.311,5.311,0,0,0,.88-3.22,4.483,4.483,0,0,0-1.02-3.08c-.84-.9-2.1-1.26-4.12-1.26-1.02,0-2.16.04-2.64.06a5.388,5.388,0,0,1,1.68-3.26,10.87,10.87,0,0,1,5.16-2.08v-1.22a12.236,12.236,0,0,0-6.18,2.54c-2.14,1.98-2.2,5.38-2.2,7.44A7.417,7.417,0,0,0,153.285-1.36Zm.52-6.24c.56-.02,1.7-.06,2.72-.06,1.5,0,2.56.16,3.24.9a3.391,3.391,0,0,1,.7,2.26,4.173,4.173,0,0,1-.68,2.56,3.066,3.066,0,0,1-2.72,1.08A2.971,2.971,0,0,1,154.3-2.1a6.457,6.457,0,0,1-.6-3.26A20.094,20.094,0,0,1,153.8-7.6Zm11.74,11.06a10.1,10.1,0,0,0,.98-3.94V-2.72h-1.54V-1a16.444,16.444,0,0,1-.52,4.46Zm5.58-4.64a4.034,4.034,0,0,0,3.62,1.52,3.987,3.987,0,0,0,3.8-1.88c.8-1.38.98-3.52.98-6.12,0-2.46-.22-4.62-1.06-5.98a4,4,0,0,0-3.72-1.78,4.064,4.064,0,0,0-3.74,1.78c-.86,1.44-.98,3.44-.98,6.1C170.025-4.68,170.245-2.46,171.125-1.18Zm1.06-11.96a3.005,3.005,0,0,1,2.54-1.08,2.933,2.933,0,0,1,2.66,1.22c.62,1,.86,2.9.86,5.38a13,13,0,0,1-.72,5.32,2.794,2.794,0,0,1-2.76,1.44,2.841,2.841,0,0,1-2.62-1.06c-.7-1.06-.84-3.1-.84-5.62C171.305-10.28,171.445-12.1,172.185-13.14Zm12.04,11.96a4.034,4.034,0,0,0,3.62,1.52,3.987,3.987,0,0,0,3.8-1.88c.8-1.38.98-3.52.98-6.12,0-2.46-.22-4.62-1.06-5.98a4,4,0,0,0-3.72-1.78,4.064,4.064,0,0,0-3.74,1.78c-.86,1.44-.98,3.44-.98,6.1C183.125-4.68,183.345-2.46,184.225-1.18Zm1.06-11.96a3.005,3.005,0,0,1,2.54-1.08,2.933,2.933,0,0,1,2.66,1.22c.62,1,.86,2.9.86,5.38a13,13,0,0,1-.72,5.32,2.794,2.794,0,0,1-2.76,1.44,2.841,2.841,0,0,1-2.62-1.06c-.7-1.06-.84-3.1-.84-5.62C184.405-10.28,184.545-12.1,185.285-13.14Zm12.04,11.96a4.034,4.034,0,0,0,3.62,1.52,3.987,3.987,0,0,0,3.8-1.88c.8-1.38.98-3.52.98-6.12,0-2.46-.22-4.62-1.06-5.98a4,4,0,0,0-3.72-1.78,4.064,4.064,0,0,0-3.74,1.78c-.86,1.44-.98,3.44-.98,6.1C196.225-4.68,196.445-2.46,197.325-1.18Zm1.06-11.96a3.005,3.005,0,0,1,2.54-1.08,2.933,2.933,0,0,1,2.66,1.22c.62,1,.86,2.9.86,5.38a13,13,0,0,1-.72,5.32,2.794,2.794,0,0,1-2.76,1.44,2.841,2.841,0,0,1-2.62-1.06c-.7-1.06-.84-3.1-.84-5.62C197.5-10.28,197.645-12.1,198.385-13.14Zm11.59,8.282H219.1V-.5c0,.266-.126.322-.742.322a20.367,20.367,0,0,1-2.212-.168,3.464,3.464,0,0,1,.224.91c.672.056,1.442.084,2,.084,1.358,0,1.666-.2,1.666-1.036V-9.576a10.845,10.845,0,0,1,.056-1.288,10.12,10.12,0,0,1-1.288.056h-8.54a10.7,10.7,0,0,1-1.288-.056,10.53,10.53,0,0,1,.056,1.246v9A9.949,9.949,0,0,1,208.953.91h1.092a8.249,8.249,0,0,1-.07-1.484Zm3.99-.84h-3.99V-9.954h3.99Zm.91,0V-9.954H219.1V-5.7Zm24.6-4.436V-6.1a15.305,15.305,0,0,1-3.078,1.008l.4,1.26a4.6,4.6,0,0,1,.432-.2c.342-.144.342-.144.45-.18.288-.126.684-.288,1.134-.468l.666-.27V-.486a11,11,0,0,1-.126,1.89h1.35a12.817,12.817,0,0,1-.126-1.89V-5.454c.864-.414.954-.468,1.674-.864V-5.2a12.24,12.24,0,0,1,1.746-.108h5.292V-.432c0,.414-.126.486-.792.486a13.15,13.15,0,0,1-2.07-.234,3.7,3.7,0,0,1,.27,1.224c.684.036,1.332.072,1.836.072,1.44,0,1.872-.306,1.872-1.314V-5.31h.468a12.24,12.24,0,0,1,1.746.108V-6.426a10.914,10.914,0,0,1-1.746.108H250.4V-8.406h.45a12.426,12.426,0,0,1,1.782.108V-9.522a12.378,12.378,0,0,1-1.836.108h-3.1v-2.394h2.484a15.34,15.34,0,0,1,1.71.09v-1.188a10.723,10.723,0,0,1-1.71.108H247.7v-.738a8.765,8.765,0,0,1,.108-1.458h-1.314a9.079,9.079,0,0,1,.108,1.458v.738h-1.98a10.723,10.723,0,0,1-1.71-.108v1.188a15.1,15.1,0,0,1,1.71-.09h1.98v2.394h-2.538a12.047,12.047,0,0,1-1.836-.108V-8.3a12.378,12.378,0,0,1,1.836-.108h5.22v2.088h-5.22a10.32,10.32,0,0,1-1.656-.09l.072-.036-.018-1.08c-.846.45-1.152.594-1.89.936v-3.546H241a12.738,12.738,0,0,1,1.53.09V-11.25a9.1,9.1,0,0,1-1.566.108h-.4v-2.376a7.346,7.346,0,0,1,.126-1.494h-1.35a7.587,7.587,0,0,1,.126,1.494v2.376h-1.278c.108-.738.18-1.242.216-1.692.036-.306.036-.36.072-.576l-1.152-.18c.018.216.018.342.018.486a12.607,12.607,0,0,1-.252,2.268,11.467,11.467,0,0,1-.882,2.916,4.679,4.679,0,0,1,.99.5,12.918,12.918,0,0,0,.792-2.718Zm4,6.1a15.02,15.02,0,0,1,2.5,3.024l.954-.7a19.03,19.03,0,0,0-2.574-2.934Zm13.788-4.842c-.018,1.026-.036,1.368-.09,2.088a10.851,10.851,0,0,1-1.224,4.86,7.188,7.188,0,0,1-1.782,2.16,2.5,2.5,0,0,1,.864.936,10.465,10.465,0,0,0,3.186-6.822h3.24a32.3,32.3,0,0,1-.306,4.842c-.09.486-.27.63-.792.63a9.68,9.68,0,0,1-2.034-.252,3.751,3.751,0,0,1,.216,1.188A13.687,13.687,0,0,0,260.351.9c1.026,0,1.458-.2,1.71-.792a20.859,20.859,0,0,0,.54-5.76,5.587,5.587,0,0,1,.072-1.1,11.187,11.187,0,0,1-1.728.09h-2.628c.072-1.008.072-1.008.108-2.214h2.232c.9,0,1.494.018,2.052.072a12.519,12.519,0,0,1-.072-1.638v-2.124a15.514,15.514,0,0,1,.072-1.674,12.54,12.54,0,0,1-2.052.09H257.2a14.3,14.3,0,0,1-2.07-.09,15.434,15.434,0,0,1,.072,1.692v2.052a15.019,15.019,0,0,1-.072,1.692,18.9,18.9,0,0,1,2-.072Zm-.936-4.266h5.2v3.258h-5.2Zm8.316-.9a14.188,14.188,0,0,1,.108,2.052V-5.04a13.379,13.379,0,0,1-.09,2.088h1.332a13.233,13.233,0,0,1-.09-2.088v-6.948A13.52,13.52,0,0,1,266-14.04Zm3.978-.756a15.146,15.146,0,0,1,.126,2.268V-.72c0,.45-.144.54-.846.54a18.008,18.008,0,0,1-2.34-.2,5.211,5.211,0,0,1,.36,1.206c.828.054,1.386.072,1.908.072,1.71,0,2.07-.288,2.07-1.62V-12.528a14.679,14.679,0,0,1,.126-2.268Zm12.348,9.18V-6.5a7.692,7.692,0,0,1,.072-1.224h-1.224a7.7,7.7,0,0,1,.072,1.224v.882h-5.112a9.929,9.929,0,0,1-1.89-.108v1.206a15.993,15.993,0,0,1,2.016-.108h4.248A15.669,15.669,0,0,1,272.609-.36a3.165,3.165,0,0,1,.684,1.08,21.288,21.288,0,0,0,4.032-2.34,16.241,16.241,0,0,0,2.61-2.484c-.036.612-.054,1.116-.054,1.548v2.2a8.836,8.836,0,0,1-.108,1.71h1.3a7.789,7.789,0,0,1-.108-1.71v-2.2c0-.414-.018-.9-.054-1.584A14.188,14.188,0,0,0,283.3-1.854,19.069,19.069,0,0,0,287.981.81a5.478,5.478,0,0,1,.7-1.134A18.07,18.07,0,0,1,283.589-2.9a11.352,11.352,0,0,1-1.908-1.728h4.536a16.1,16.1,0,0,1,2.034.108V-5.724a11.266,11.266,0,0,1-2,.108Zm3.564-8.154a10.3,10.3,0,0,1-1.674.09h-4c.576-.7.828-1.008,1.062-1.26l-1.224-.36a10.536,10.536,0,0,1-2.268,2.7,13.25,13.25,0,0,1-3.366,2.088,2.736,2.736,0,0,1,.72.846,12.85,12.85,0,0,0,3.492-2.322,14.925,14.925,0,0,0,2.394,2.124,20.351,20.351,0,0,1-7.074,2.34,2.776,2.776,0,0,1,.522,1.026,24.319,24.319,0,0,0,5.238-1.638,18.715,18.715,0,0,0,2.25-1.116,13.678,13.678,0,0,0,2.088,1.08,25.411,25.411,0,0,0,5.472,1.548,3.682,3.682,0,0,1,.576-1.08,21.958,21.958,0,0,1-7.146-2.16,18.307,18.307,0,0,0,3.384-2.934,1.657,1.657,0,0,1,.234-.252Zm-6.444,1.008h5.364a15.319,15.319,0,0,1-2.844,2.34,11.462,11.462,0,0,1-2.646-2.214Zm22.266,1.818h-2.574c.234-.63.36-.972.63-1.854.162-.486.216-.666.324-.972l-1.242-.36a9.536,9.536,0,0,1-.612,2.394,13.215,13.215,0,0,1-2.178,3.96,3.591,3.591,0,0,1,1.026.7,15.865,15.865,0,0,0,1.62-2.826h3.006v3.924h-3.6a12.582,12.582,0,0,1-1.872-.108v1.278a13.094,13.094,0,0,1,1.872-.108h3.6v4.32a12.09,12.09,0,0,1-.126,1.872h1.422a11.63,11.63,0,0,1-.126-1.872v-4.32h3.4a14.906,14.906,0,0,1,1.854.108V-6.084a13.27,13.27,0,0,1-1.872.108h-3.384V-9.9h2.646a16.6,16.6,0,0,1,1.818.108v-1.26a11.415,11.415,0,0,1-1.836.108h-2.628V-12.96a11.083,11.083,0,0,1,.126-1.818h-1.422a11.382,11.382,0,0,1,.126,1.818ZM292.553-.828a15.272,15.272,0,0,1-.108,2.16h1.35c-.054-.612-.09-1.278-.09-2.106V-10.62a25.218,25.218,0,0,0,1.368-3.366c.144-.4.2-.558.288-.81l-1.26-.378a10.855,10.855,0,0,1-.63,2.322A17.359,17.359,0,0,1,290-7.164a3.3,3.3,0,0,1,.72,1.044,13.694,13.694,0,0,0,1.908-2.79c-.054.81-.072,1.422-.072,2.16Zm21.564-8.46h.072a.827.827,0,0,1,.18.018,2.68,2.68,0,0,1,.306.018,4.72,4.72,0,0,1,.576.036c.63.036,1.3.054,2.034.054.684,0,1.242-.018,2.052-.054.054,2.628.126,4.32.18,4.7a5.085,5.085,0,0,0-2-.36c-2,0-3.42,1.062-3.42,2.556,0,1.566,1.314,2.556,3.4,2.556a3.074,3.074,0,0,0,3.006-1.512,3.1,3.1,0,0,0,.216-1.224,2.582,2.582,0,0,0-.036-.468,1.265,1.265,0,0,1,.162.108,1.153,1.153,0,0,0,.18.108,9.727,9.727,0,0,1,2.556,1.872l.558-1.26c-.2-.126-.234-.162-.45-.306a13.03,13.03,0,0,0-3.006-1.764c-.144-2.394-.18-3.312-.2-5.094a17.207,17.207,0,0,0,1.908-.288c1.224-.252,1.224-.252,1.26-.252L323.6-11.07a12.268,12.268,0,0,1-3.114.666c-.018-.4-.018-.684-.018-.882a18.417,18.417,0,0,1,.126-2.826h-1.35a3.992,3.992,0,0,1,.054.738c0,1.368,0,1.368.018,3.06-.738.036-1.224.054-1.926.054a12.46,12.46,0,0,1-3.24-.288Zm5.418,5.868s.018.414.018.54a2.1,2.1,0,0,1-.342,1.4,2.481,2.481,0,0,1-1.836.63c-1.26,0-2.088-.576-2.088-1.458,0-.9.918-1.494,2.322-1.494A4.649,4.649,0,0,1,319.535-3.42Zm-8.6-10.71a8.291,8.291,0,0,1-.2,1.134,30.5,30.5,0,0,0-.936,7.4,28.653,28.653,0,0,0,.5,5.346c.072.414.09.5.108.666l1.278-.126a1.962,1.962,0,0,1-.036-.36A15.544,15.544,0,0,1,313.2-5.184l-.882-.414a2.481,2.481,0,0,1-.144.36,15.979,15.979,0,0,0-1.062,3.168l-.072-.018V-2.43c-.018-.324-.018-.36-.018-.5-.036-.828-.072-1.89-.072-2.52a25.648,25.648,0,0,1,1.386-8.442Zm23,6.066h-4.752a10.819,10.819,0,0,1-1.692-.09v1.278a10.77,10.77,0,0,1,1.638-.09h10.8v2.484H329.723a9.529,9.529,0,0,1-1.656-.09v1.278a9.725,9.725,0,0,1,1.6-.09h10.26V-.63H328.985a10.184,10.184,0,0,1-1.656-.09v1.3A11.533,11.533,0,0,1,329,.468h10.926v.954h1.26A14.109,14.109,0,0,1,341.081-.4V-6.75a11.545,11.545,0,0,1,.072-1.422,7.238,7.238,0,0,1-1.422.108H335.1v-5.328a8.812,8.812,0,0,1,.108-1.62h-1.386a8.947,8.947,0,0,1,.108,1.62Zm-6.12-5.274a17.826,17.826,0,0,1,2.754,4.428l1.062-.612a19.518,19.518,0,0,0-2.808-4.374ZM340.109-14a14.638,14.638,0,0,1-2.88,4.788l.99.612a18.174,18.174,0,0,0,3.006-4.86ZM346.661-.81a13.831,13.831,0,0,1-.108,1.908h1.314V-.072h9.288V1.1h1.314a13.756,13.756,0,0,1-.108-1.926V-12.366a11.321,11.321,0,0,1,.09-1.656,13.058,13.058,0,0,1-1.854.09h-8.1a14.686,14.686,0,0,1-1.926-.09,12.614,12.614,0,0,1,.09,1.764Zm1.206-12.024h9.288v5.04h-9.288Zm0,6.138h9.288V-1.17h-9.288Zm20.484,1.854A27.134,27.134,0,0,1,366.065-.5c-1.62.108-1.62.108-1.908.108a8.332,8.332,0,0,1-.918-.054l.216,1.368A21.6,21.6,0,0,1,366.5.594c2.808-.216,5.526-.5,8.73-.936.378.468.612.774,1.314,1.764l.99-.738a38.931,38.931,0,0,0-4.356-4.752l-.936.576c.792.738,1.116,1.062,2.2,2.232-2.664.324-4.536.5-7.02.666a27.074,27.074,0,0,0,2.25-4.248h6.462a15.629,15.629,0,0,1,2.052.108v-1.3a15.253,15.253,0,0,1-2.052.108H365.039a15.439,15.439,0,0,1-2.052-.108v1.3a15.439,15.439,0,0,1,2.052-.108Zm1.494-10.044a13.238,13.238,0,0,1-2.862,3.2,18.884,18.884,0,0,1-4.77,2.934,3.613,3.613,0,0,1,.756,1.026,19.773,19.773,0,0,0,4.86-3.168,15.579,15.579,0,0,0,2.7-2.952,14.945,14.945,0,0,0,2.88,3.078,24.728,24.728,0,0,0,5,3.132,3.811,3.811,0,0,1,.7-1.152,19.443,19.443,0,0,1-4.968-2.88,12.1,12.1,0,0,1-3.024-3.222Zm-3.654,6.768a10.352,10.352,0,0,1,1.4-.072h5.832a11.08,11.08,0,0,1,1.512.072V-9.324a10.913,10.913,0,0,1-1.512.072h-5.814a9.5,9.5,0,0,1-1.422-.072Zm23.6,3.51a10.208,10.208,0,0,1-4.554,3.654,2.614,2.614,0,0,1,.774.846,12.406,12.406,0,0,0,4.95-4.5h1.782a8.778,8.778,0,0,1-1.476,2.358A11.426,11.426,0,0,1,387.737.486a3.074,3.074,0,0,1,.828.846A14.619,14.619,0,0,0,390.023.324a18.372,18.372,0,0,0,2.214-2.214,10.422,10.422,0,0,0,1.6-2.718h1.206a21.886,21.886,0,0,1-.4,3.456c-.234,1.08-.36,1.224-1.08,1.224a12.433,12.433,0,0,1-2.142-.2,3.051,3.051,0,0,1,.36,1.17c.558.036,1.152.072,1.566.072,1.224,0,1.674-.18,2-.828a17.961,17.961,0,0,0,.792-4.806,8.171,8.171,0,0,1,.09-1.062,14.047,14.047,0,0,1-1.764.072h-5.958a8.81,8.81,0,0,0,.828-1.314h5.508a15.341,15.341,0,0,1,1.782.072V-7.884a10.225,10.225,0,0,1-1.782.108h-7.686a8.863,8.863,0,0,1-1.656-.108v1.17a8.812,8.812,0,0,1,1.62-.108h1.1a8.641,8.641,0,0,1-4.176,3.8,3.2,3.2,0,0,1,.738.81,11.541,11.541,0,0,0,3.024-2.394Zm-7.038-5.724h-.738a10.061,10.061,0,0,1-1.566-.09v1.188a12.974,12.974,0,0,1,1.53-.09h.774v5.148a8.968,8.968,0,0,1-2.322.882l.342,1.26c.162-.09.666-.342.954-.468a33.173,33.173,0,0,0,3.744-2.034l-.072-1.08a15.559,15.559,0,0,1-1.53.918V-9.324h.432a14.06,14.06,0,0,1,1.494.072V-10.4a10.623,10.623,0,0,1-1.494.072h-.432v-2.484a12.275,12.275,0,0,1,.108-2h-1.332a14.258,14.258,0,0,1,.108,1.98Zm10.638,1.368c.7,0,1.26.018,1.656.054a10.6,10.6,0,0,1-.072-1.6v-2.25a13.152,13.152,0,0,1,.072-1.674,13.182,13.182,0,0,1-1.872.09h-4.7a11.621,11.621,0,0,1-1.728-.09,12.109,12.109,0,0,1,.072,1.584v2.34a13.865,13.865,0,0,1-.072,1.62,12.693,12.693,0,0,1,1.638-.072Zm-5.508-4.446h6.03V-12.1h-6.03Zm0,2.2h6.03v1.368h-6.03ZM401-14.04a10.022,10.022,0,0,1-.252,1.44,29.778,29.778,0,0,0-.81,7.128,25.8,25.8,0,0,0,.468,5.094c.054.342.072.432.108.72l1.3-.108v-.27a15.69,15.69,0,0,1,1.458-4.95l-.864-.414a16.723,16.723,0,0,0-1.17,3.51c-.072-.954-.108-2.016-.108-3.42a26.61,26.61,0,0,1,.54-5.634,25.583,25.583,0,0,1,.756-2.88Zm3.708,3.4a23.975,23.975,0,0,0,2.88.18,30.387,30.387,0,0,0,3.87-.234q1.188-.162,1.242-.162l-.09-1.278a19.314,19.314,0,0,1-4.824.486,12.226,12.226,0,0,1-3.06-.27Zm1.314,3.51a4.972,4.972,0,0,0-1.566,3.348A2.544,2.544,0,0,0,405-2.124c.774.936,2.07,1.368,4.122,1.368a18.57,18.57,0,0,0,3.69-.36c.36-.054.4-.072.63-.09l-.18-1.386a11.846,11.846,0,0,1-4.14.63c-2.322,0-3.456-.648-3.456-1.98a4.182,4.182,0,0,1,1.35-2.646Zm11.34-3.33a52.87,52.87,0,0,1,6.21-.594,34.88,34.88,0,0,0,3.96-.4,11.784,11.784,0,0,0-1.71.954,6.824,6.824,0,0,0-3.366,5.526,4.381,4.381,0,0,0,2,3.672A9.079,9.079,0,0,0,428.345.09c.288.054.36.072.558.108l.234-1.458h-.18a9.225,9.225,0,0,1-2.7-.576,3.529,3.529,0,0,1-2.52-3.33,5.5,5.5,0,0,1,2.214-4.158,9.14,9.14,0,0,1,3.456-1.818,8.348,8.348,0,0,1,2.016-.234l-.108-1.35a12.083,12.083,0,0,1-2.142.2c-2.322.108-8.082.432-10.224.594-.558.036-.774.054-1.026.054h-.648Z" transform="translate(742.907 2226.419)" fill="#fff"/>
  </g>
</svg>
