<svg xmlns="http://www.w3.org/2000/svg" width="600" height="96.54" viewBox="0 0 600 96.54">
  <g id="lineup-txt" transform="translate(-400 -1867)">
    <g id="ジープ八王子限定_SPECIAL_PRICE" data-name="ジープ八王子限定 SPECIAL PRICE" transform="translate(229.295 -10.512)">
      <path id="Gradient_Overlay" data-name="Gradient Overlay" d="M206.189,1913.7a38.563,38.563,0,0,1,4.032,3.636c.648-.648,1.692-1.692,2.34-2.3a36.875,36.875,0,0,0-4.068-3.456Zm-16.74-.18a38.354,38.354,0,0,1,9.036,4.644c.576-.864,2.2-3.2,2.916-4a50.76,50.76,0,0,0-9.288-4.392Zm20.2-2.736a32.461,32.461,0,0,1,3.924,3.528,13.038,13.038,0,0,1,2.2-2.016,30.512,30.512,0,0,0-3.888-3.456Zm-23.94,11.088a32.671,32.671,0,0,1,8.5,4.932,27.257,27.257,0,0,1,3.024-4.1,44.541,44.541,0,0,0-8.748-4.9Zm4.68,20.016c.18.324.288.5.54.5.432,0,.54-.5.612-.864,8.964-3.312,19.728-11.412,25.164-19.548a16.153,16.153,0,0,1-3.168-4.1,51.454,51.454,0,0,1-25.74,19.512Zm30.06-18.144v5.112h31.068v-5.112Zm65.952-15.228a3.33,3.33,0,1,0,3.348,3.348A3.342,3.342,0,0,0,286.4,1908.512Zm0,1.656a1.683,1.683,0,0,1,1.656,1.692,1.656,1.656,0,1,1-3.312,0A1.683,1.683,0,0,1,286.4,1910.168Zm-29.52,4.176v4.5h22.644c-4.464,13.068-13.32,17.1-18.288,19.368a19.3,19.3,0,0,1,3.744,3.744c11.556-6.048,15.012-11.448,19.044-20.664,1.368-3.1,1.512-3.42,2.088-4.212l-3.6-2.988a11.4,11.4,0,0,1-2.484.252Zm43.56-3.312c.18,12.132.288,20.2-9.936,28.26a10.832,10.832,0,0,1,4.248,2.916,28.071,28.071,0,0,0,7.092-9.468c2.628-5.364,3.168-10.728,3.24-20.2.432-.036.936-.108.936-.576,0-.4-.4-.468-.972-.5Zm7.668-.756v4.608h3.132c0,5.8.4,10.368,2.268,15.264a33.981,33.981,0,0,0,8.1,12.168,12.6,12.6,0,0,1,3.924-3.348,28.925,28.925,0,0,1-8.208-11.772c-1.548-4.428-1.548-6.948-1.548-16.92Zm38.16,4.824h12.024v-4.068H329.561v4.068h11.952v8.532h-9.972v4.212h9.972v9.684H327.545v4.1h32.8v-4.1H346.265v-9.684h10.044v-4.212H346.265Zm36.216,8.46v-1.188a89.485,89.485,0,0,0,10.512-9.144l-2.556-2.2h-23.58v4.032h17.712a21.863,21.863,0,0,1-4.176,3.492l-2.52-.324v5.328H363.329v4.1h14.544v8.064c0,2.2,0,2.556-2.556,2.556a22.089,22.089,0,0,1-2.7-.252,23.326,23.326,0,0,1,1.44,4.68c7.524.252,8.424-1.944,8.424-5v-10.044h14.04v-4.1Zm46.764,2.664h1.872v-15.48H413.4V1936.7c-2.592.684-3.888,1.044-4.824,1.224l1.3,4.032c.108.288.252.648.54.648.36,0,.468-.432.54-.936,1.332-.324,7.668-2.2,11.52-3.6a15.334,15.334,0,0,1-.144-2.088,7.781,7.781,0,0,1,.072-1.188,27.878,27.878,0,0,0,7.956,7.488,15.271,15.271,0,0,1,3.276-3.2,30.1,30.1,0,0,1-6.66-5.508,24.859,24.859,0,0,0,4.536-3.924,3.966,3.966,0,0,0,.648.072c.18,0,.468-.072.468-.36a.766.766,0,0,0-.252-.54Zm-2.484-6.12v2.52h-9.072v-2.52Zm-9.072,6.12h1.26a22.922,22.922,0,0,0,3.06,7.956c-1.836.612-3.06.936-4.32,1.332Zm0-9.324v-2.448h9.072v2.448Zm-6.48-6.192H400.373v31.86h4.212V1932.2a6.522,6.522,0,0,1,1.4,3.276c4.932-.072,6.48-2.772,6.48-5.544,0-3.816-2.34-6.912-3.492-8.424,1.908-4.1,2.376-5.112,4.032-9.18Zm17.46,15.516a23.518,23.518,0,0,1-3.96,4.284,15.776,15.776,0,0,1-1.764-4.284Zm-20.808-11.7a28.359,28.359,0,0,1-3.276,7.344v-7.344Zm-3.276,7.92c3.564,3.348,3.564,6.3,3.564,6.948,0,.792-.216,1.836-2.016,1.836a8.07,8.07,0,0,1-1.548-.144Zm63.324,19.692a12.736,12.736,0,0,1,1.188-4.716c-5.94.468-6.984.54-10.008.54-.432,0-2.88,0-4.788-.108v-6.336h9.648v-4H454.3v-3.888h9.648v-2.592h4.176v-7.848H454.193V1911c.792-.36.972-.432.972-.684,0-.4-.54-.432-.972-.468l-4.608-.288v3.636H435.833v7.956h4.176v2.484h9.684v13.392a8.653,8.653,0,0,1-4.608-4.716c.144-.612.864-3.78,1.08-4.464.72-.252.972-.324.972-.684,0-.324-.252-.5-.72-.576l-4.608-.792a24.74,24.74,0,0,1-6.336,15.084,8.685,8.685,0,0,1,4.248,2.016,29.652,29.652,0,0,0,3.6-5.832c3.2,4.86,9.072,5.076,11.088,5.076Zm-27.684-22.428V1916.9h23.436v2.808ZM494.1,1936.2a9.534,9.534,0,0,0,3.111-.422,3.007,3.007,0,0,0,2.268-3.006,2.218,2.218,0,0,0-1.125-1.986,12.1,12.1,0,0,0-3.533-1.213l-2.742-.615a17.328,17.328,0,0,1-5.59-1.986,6.318,6.318,0,0,1-2.619-5.607,7.488,7.488,0,0,1,2.531-5.783q2.531-2.3,7.436-2.3a11.305,11.305,0,0,1,6.987,2.171,7.751,7.751,0,0,1,3.032,6.3h-5.2a3.717,3.717,0,0,0-2.039-3.322,6.838,6.838,0,0,0-3.146-.65,5.875,5.875,0,0,0-3.34.844,2.687,2.687,0,0,0-1.248,2.355,2.229,2.229,0,0,0,1.23,2.074,15.062,15.062,0,0,0,3.375,1.072l4.465,1.072a11.543,11.543,0,0,1,4.43,1.881,6.335,6.335,0,0,1,2.32,5.291,7.467,7.467,0,0,1-2.716,5.9q-2.716,2.347-7.673,2.347-5.062,0-7.963-2.312a7.681,7.681,0,0,1-2.9-6.354h5.168a5.321,5.321,0,0,0,.967,2.654Q490.9,1936.2,494.1,1936.2Zm25.611-5.572h-5.5v9.316h-5.379v-25.91h11.285a9.192,9.192,0,0,1,6.223,2q2.32,2,2.32,6.205,0,4.588-2.32,6.486T519.707,1930.624Zm2.531-5.4a3.748,3.748,0,0,0,1.055-2.953,3.507,3.507,0,0,0-1.063-2.883,4.615,4.615,0,0,0-2.979-.861H514.2v7.629h5.045A4.409,4.409,0,0,0,522.238,1925.227Zm28.512,3.393H538.164v6.662h14.344v4.658H532.873v-25.91h19v4.588H538.164v5.5H550.75Zm24.258,9.387a10.561,10.561,0,0,1-7.418,2.654,11.176,11.176,0,0,1-8.789-3.586q-3.2-3.6-3.2-9.879,0-6.785,3.639-10.459a10.843,10.843,0,0,1,8.051-3.2q6.539,0,9.563,4.289a9.285,9.285,0,0,1,1.793,4.834h-5.414a7.313,7.313,0,0,0-1.354-2.812,5.505,5.505,0,0,0-4.377-1.687,5.426,5.426,0,0,0-4.658,2.382,11.45,11.45,0,0,0-1.705,6.741q0,4.359,1.8,6.53a5.694,5.694,0,0,0,4.579,2.171,5.237,5.237,0,0,0,4.342-1.863,8.094,8.094,0,0,0,1.371-3.006h5.361A11.652,11.652,0,0,1,575.008,1938.006Zm7.295-23.977h5.379v25.91H582.3Zm25.594,20.584h-9.545l-1.793,5.326H590.9l9.246-25.91h6.117l9.176,25.91h-5.871Zm-1.512-4.465-3.234-10.2-3.34,10.2Zm12.34-16.119h5.414v21.252H636.97v4.658H618.724Zm42.363,16.594h-5.5v9.316h-5.379v-25.91h11.285a9.192,9.192,0,0,1,6.223,2q2.32,2,2.32,6.205,0,4.588-2.32,6.486T661.088,1930.624Zm2.531-5.4a3.748,3.748,0,0,0,1.055-2.953,3.507,3.507,0,0,0-1.063-2.883,4.615,4.615,0,0,0-2.979-.861h-5.045v7.629h5.045A4.409,4.409,0,0,0,663.619,1925.227Zm21.48,4.553h-5.59v10.16h-5.291v-25.91h12.709a11.84,11.84,0,0,1,4.192.668,6.55,6.55,0,0,1,2.487,1.811,8.021,8.021,0,0,1,1.336,2.18,7.1,7.1,0,0,1,.492,2.725,7.763,7.763,0,0,1-.932,3.63,5.207,5.207,0,0,1-3.076,2.522,4.838,4.838,0,0,1,2.54,2.048,8.525,8.525,0,0,1,.747,4.052v1.74a13.311,13.311,0,0,0,.141,2.408,2.163,2.163,0,0,0,.984,1.477v.65h-5.959q-.246-.861-.352-1.389a12.759,12.759,0,0,1-.229-2.232l-.035-2.408q-.035-2.479-.905-3.3A4.8,4.8,0,0,0,685.1,1929.78Zm3.287-4.711a2.887,2.887,0,0,0,1.617-2.918,3.22,3.22,0,0,0-1.564-3.164,5.913,5.913,0,0,0-2.637-.457H679.51v6.961h6.135A6.837,6.837,0,0,0,688.386,1925.069Zm11.285-11.039h5.379v25.91h-5.379Zm28.705,23.977a10.561,10.561,0,0,1-7.418,2.654,11.176,11.176,0,0,1-8.789-3.586q-3.2-3.6-3.2-9.879,0-6.785,3.639-10.459a10.843,10.843,0,0,1,8.051-3.2q6.539,0,9.563,4.289a9.285,9.285,0,0,1,1.793,4.834H726.6a7.313,7.313,0,0,0-1.354-2.812,5.505,5.505,0,0,0-4.377-1.687,5.426,5.426,0,0,0-4.658,2.382,11.45,11.45,0,0,0-1.705,6.741q0,4.359,1.8,6.53a5.694,5.694,0,0,0,4.579,2.171,5.237,5.237,0,0,0,4.342-1.863,8.094,8.094,0,0,0,1.371-3.006h5.361A11.652,11.652,0,0,1,728.377,1938.006Zm25.752-9.387H741.543v6.662h14.344v4.658H736.252v-25.91h19v4.588H741.543v5.5h12.586Z" fill="#417465"/>
    </g>
    <path id="長方形_1087" data-name="長方形 1087" d="M0,0H600V6.54H0Z" transform="translate(400 1957)" fill="#417465"/>
    <path id="長方形_1087_のコピー" data-name="長方形 1087 のコピー" d="M0,0H600V6.54H0Z" transform="translate(400 1867)" fill="#417465"/>
  </g>
</svg>
