<svg id="pop-fb" xmlns="http://www.w3.org/2000/svg" width="100.642" height="100.64" viewBox="0 0 100.642 100.64">
  <g id="Logo">
    <path id="Initiator" d="M100.64,50.32A50.32,50.32,0,1,0,38.165,99.159V65.7H27.789V50.32H38.165V43.694c0-17.127,7.751-25.065,24.566-25.065a55.578,55.578,0,0,1,10.94,1.25V33.817c-1.188-.125-3.251-.187-5.813-.187-8.25,0-11.439,3.126-11.439,11.252V50.32H72.855L70.032,65.7H56.419v34.574A50.325,50.325,0,0,0,100.642,50.32Z" fill="#0866ff"/>
    <path id="F" d="M180.293,139.619l2.824-15.378H166.68V118.8c0-8.126,3.188-11.252,11.439-11.252,2.562,0,4.625.062,5.813.187V93.8a55.427,55.427,0,0,0-10.94-1.25c-16.815,0-24.566,7.939-24.566,25.065v6.626H138.05v15.378h10.376V173.08a50.619,50.619,0,0,0,18.252,1.113V139.619h13.613Z" transform="translate(-110.263 -73.921)" fill="#fff"/>
  </g>
</svg>
