<svg xmlns="http://www.w3.org/2000/svg" width="570.708" height="195.982" viewBox="0 0 570.708 195.982">
  <path id="パス_681" data-name="パス 681" d="M5.184-54.288V0H29.016c7.7,0,12.312-1.3,15.7-3.96,3.6-2.808,5.328-6.984,5.328-12.1a13.289,13.289,0,0,0-2.3-7.776,21.093,21.093,0,0,0-4.32-4.1c.864-1.3,1.944-2.952,2.952-4.68a15.143,15.143,0,0,0,2.448-8.28,13.2,13.2,0,0,0-5.472-10.656c-2.952-2.088-6.552-2.736-12.456-2.736Zm10.8,31.9h12.96c3.672,0,5.76.216,7.344,1.08A5.467,5.467,0,0,1,39.1-16.056a5.383,5.383,0,0,1-1.728,4.464c-1.512,1.3-3.6,1.656-8.136,1.656H15.984Zm0-9.936V-44.352h13.68c3.168,0,5.112.144,6.336.792,1.368.72,1.944,2.16,1.944,3.96a8.434,8.434,0,0,1-1.44,4.464c-.5.864-1.224,2.016-1.728,2.808ZM58.248,0H68.76V-37.944L80.64-10.8h9.432l11.88-27.144V0h10.512V-54.288H98.784L85.464-23.832,72.144-54.288h-13.9Zm60.264-54.288L129.456,0H143.28l8.568-31.032L160.416,0H174.1l11.016-54.288H174.24l-8.064,40.1-8.784-31.9H146.448l-8.928,31.9-7.92-40.1ZM193.248-42.84a6.218,6.218,0,0,1,1.08-.072h1.008a4.5,4.5,0,0,0,1.224.072c.216,0,1.368,0,2.736.072,2.088.072,2.664.072,6.7.072a11.032,11.032,0,0,0-1.08,1.8c-3.744,6.408-10.008,13.9-14.04,16.848l7.776,7.7a43.865,43.865,0,0,1,6.552-6.912c5.4-4.68,10.3-7.128,14.184-7.128,2.088,0,3.312.936,3.672,2.88a55.678,55.678,0,0,0-10.512,5.544c-5.472,3.96-8.352,8.424-8.352,12.888A11.7,11.7,0,0,0,207-1.3c3.312,3.744,9.288,5.328,19.872,5.328a133.232,133.232,0,0,0,18.5-1.3,27.293,27.293,0,0,1,3.6-.36L248.184-8.64c-5.616,2.088-13.392,3.24-22.1,3.24-7.848,0-10.944-1.3-10.944-4.608,0-1.8,1.152-3.6,3.384-5.184a37.362,37.362,0,0,1,5.76-3.1,2.316,2.316,0,0,1,.072.576,53.716,53.716,0,0,1-.432,8.352l10.008-.288a43.64,43.64,0,0,1-.216-4.824v-4.9l-.072-2.376c8.712-2.952,8.712-2.952,10.44-3.384A54.509,54.509,0,0,1,252.216-27L248.4-36.792c-1.224.72-1.512.792-5.616,2.16-3.24,1.08-3.6,1.224-6.408,2.232-1.872.648-3.168,1.08-3.816,1.3-1.3-4.824-4.9-7.272-10.728-7.272a18.361,18.361,0,0,0-9.936,2.808,51.67,51.67,0,0,0,4.68-7.128c7.272-.216,16.632-.792,21.888-1.44,3.456-.36,3.456-.36,5.688-.576l-.432-9.72c-4.1,1.08-10.008,1.872-18.576,2.376a43.591,43.591,0,0,0-4.464.288c.288-.576.288-.648.576-1.3,2.16-5.184,2.16-5.184,2.664-5.976l-11.16-1.008c-.288,2.376-.792,4.1-2.592,8.424h-3.6c-5.9,0-10.512-.288-13.176-.936ZM258.84-54.288,269.784,0h13.824l8.568-31.032L300.744,0h13.68L325.44-54.288H314.568l-8.064,40.1-8.784-31.9H286.776l-8.928,31.9-7.92-40.1ZM331.488,0H371.16V-10.152H342.288V-22.536h26.064V-32.688H342.288V-44.136h27.648V-54.288H331.488Zm47.3-54.288V0h23.832c7.7,0,12.312-1.3,15.7-3.96,3.6-2.808,5.328-6.984,5.328-12.1a13.289,13.289,0,0,0-2.3-7.776,21.092,21.092,0,0,0-4.32-4.1c.864-1.3,1.944-2.952,2.952-4.68a15.143,15.143,0,0,0,2.448-8.28,13.2,13.2,0,0,0-5.472-10.656C414-53.64,410.4-54.288,404.5-54.288Zm10.8,31.9h12.96c3.672,0,5.76.216,7.344,1.08a5.467,5.467,0,0,1,2.808,5.256,5.383,5.383,0,0,1-1.728,4.464c-1.512,1.3-3.6,1.656-8.136,1.656H389.592Zm0-9.936V-44.352h13.68c3.168,0,5.112.144,6.336.792,1.368.72,1.944,2.16,1.944,3.96a8.434,8.434,0,0,1-1.44,4.464c-.5.864-1.224,2.016-1.728,2.808ZM490.1-25.416c.864,0,.936,0,2.664.072a77.83,77.83,0,0,1-.288-7.848V-50.616a62.687,62.687,0,0,1,.288-7.992,52.042,52.042,0,0,1-6.624.288h-21.6a37.418,37.418,0,0,1-6.84-.36c.216,2.88.288,4.608.288,7.776v46.44A56.844,56.844,0,0,1,450-3.456l1.656,9.648c.72-.216,1.512-.432,2.952-.792l9.576-2.088c6.984-1.656,8.856-2.16,14.184-3.672L478.3-6.912a43.224,43.224,0,0,0,3.456,4.32A46.959,46.959,0,0,0,492.7,6.336a29.231,29.231,0,0,1,5.04-8.856,35.2,35.2,0,0,1-11.736-9c2.592-1.872,5.256-3.96,6.7-5.256a40.613,40.613,0,0,1,3.888-3.24Zm-2.592-.072h1.656a46.587,46.587,0,0,1-7.632,6.84,28.29,28.29,0,0,1-2.16-6.84Zm-20.592,0h4.1c1.44,7.2,3.024,11.448,6.12,16.7a100.872,100.872,0,0,1-10.224,2.52Zm0-24.624h16.7v4.536h-16.7Zm0,12.168h16.7v4.824h-16.7ZM432-2.88a76.553,76.553,0,0,1-.432,9h9.792c-.288-2.952-.36-5.76-.36-9V-50.4h6.768c-2.232,7.272-3.24,10.008-6.048,15.408a22.042,22.042,0,0,1,4.392,6.768,18.2,18.2,0,0,1,1.512,7.2c0,2.16-.792,2.808-3.312,2.808a20.632,20.632,0,0,1-2.592-.216c1.224,2.592,1.584,4.536,1.728,8.928a23.778,23.778,0,0,0,7.992-1.152c3.24-1.224,5.04-4.32,5.04-8.424,0-6.048-1.368-9.792-5.832-16.416a129.152,129.152,0,0,0,6.336-15.192c.36-1.008.648-1.872.936-2.52l-4.464-5.9a20.762,20.762,0,0,1-5.4.36H437.184a34.814,34.814,0,0,1-5.472-.288c.288,4.1.288,4.824.288,7.272Zm99.216-3.96c-4.536-2.016-7.056-4.248-9.864-8.928,1.08-3.528,2.016-6.84,2.88-10.44L514.8-27.936a48.1,48.1,0,0,1-4.9,15.552A43.662,43.662,0,0,1,501.12-.792a30.124,30.124,0,0,1,7.344,7.128,52.444,52.444,0,0,0,9.288-13.392A25.651,25.651,0,0,0,529.2,1.8c4.9,1.944,12.168,2.88,22.32,2.88,3.888,0,8.208-.072,14.4-.216a36.879,36.879,0,0,1,2.232-9.648c-7.92.648-12.528.864-17.28.864a92.781,92.781,0,0,1-10.656-.5V-15.48h13.248a50.035,50.035,0,0,1,7.272.36v-9a47.1,47.1,0,0,1-7.272.36H540.216v-7.92h10.728a52.112,52.112,0,0,1,7.488.36v-5.4H566.5a40.394,40.394,0,0,1-.36-5.976v-6.192a44.087,44.087,0,0,1,.288-5.472c-2.808.216-5.4.288-8.28.288H539.208v-2.16a22.29,22.29,0,0,1,.36-4.536H529.2a23.023,23.023,0,0,1,.36,4.608v2.088H511.344c-2.88,0-5.472-.072-8.28-.288a45.637,45.637,0,0,1,.288,5.472v6.12a35.783,35.783,0,0,1-.36,6.048H511.2v5.4a52.726,52.726,0,0,1,7.488-.36h12.528Zm25.992-33.336c-1.8.144-3.6.216-6.264.216H518.688c-2.736,0-4.536-.072-6.264-.216v-5.4h44.784ZM65.142,92.752,53.3,100.06a92.36,92.36,0,0,1,15.5,20.664l13.1-9.954A88.855,88.855,0,0,0,66.78,92.752H92.358v22.554c0,3.024-.756,3.654-4.914,3.654a122.5,122.5,0,0,1-13.986-1.26,46.657,46.657,0,0,1,3.78,15.876c3.78.252,8.19.378,10.584.378,15.624,0,20.412-3.15,20.412-13.23V92.752a84.075,84.075,0,0,1,12.6.756V77.38c-3.15.5-5.922.63-12.6.63V69.19a124.763,124.763,0,0,1,13.1.63V54.07a136.493,136.493,0,0,1-14.742.63H91.728V44.746H103.7a130.751,130.751,0,0,1,13.734.63V29.248A104.25,104.25,0,0,1,103.7,30H91.728V26.6a46.958,46.958,0,0,1,.756-9.072H75.222a65.435,65.435,0,0,1,.63,9.072V30H66.906a100.146,100.146,0,0,1-13.482-.756V45.376a127.237,127.237,0,0,1,13.482-.63h8.946V54.7H63.63c-4.914,0-8.316-.126-12.474-.378v-13.1c-2.646.5-4.914.63-10.206.63V27.862A64.587,64.587,0,0,1,41.706,17.4H24.57a68.013,68.013,0,0,1,.756,10.458V41.848H20.79c.252-3.528.252-4.662.378-6.3a52.186,52.186,0,0,1,.378-6.174L8.064,27.862a30.5,30.5,0,0,1,.252,4.788A117.634,117.634,0,0,1,2.772,68.812a46.031,46.031,0,0,1,12.222,6.552,107.391,107.391,0,0,0,4.158-18.4h6.174V81.79C14.742,84.814,9.7,85.948,4.536,86.7l3.15,17.136a60.064,60.064,0,0,1,7.686-2.772c3.024-.882,5.544-1.764,9.954-3.276v22.176a123.315,123.315,0,0,1-.756,15.246H41.706a135.284,135.284,0,0,1-.756-15.246V92.122c3.78-1.512,3.78-1.512,8.568-3.654v5.04a73.766,73.766,0,0,1,12.348-.756ZM40.95,56.968h1.386c1.89,0,4.158.126,6.552.252v12.6a110.818,110.818,0,0,1,14.868-.63h28.6v8.82H64.008a111.333,111.333,0,0,1-13.1-.5l-.126-4.914c-4.284,1.638-4.788,1.89-9.828,3.78ZM175.392,90.232c-.126,12.222-.63,19.782-1.764,24.066-.5,2.142-1.89,2.9-5.418,2.9a91.925,91.925,0,0,1-12.6-1.134c2.268,5.418,3.15,9.2,3.906,16.506,5.04.378,8.19.5,10.71.5,11.844,0,16-2.142,18.144-9.7,1.89-6.3,3.15-22.428,3.15-38.934a77.306,77.306,0,0,1,.378-9.324,108.084,108.084,0,0,1-12.1.63h-17.01c.252-3.024.252-4.284.378-10.584h12.1c7.434,0,12.222.126,16.632.5-.252-2.9-.378-5.292-.378-13.86V34.54a111.23,111.23,0,0,1,.63-13.986c-4.032.378-7.938.5-16.254.5H149.814c-7.56,0-11.97-.126-16.506-.5a120,120,0,0,1,.63,14.49V50.92a125.488,125.488,0,0,1-.63,14.868c4.158-.5,6.426-.5,13.608-.63-.252,10.71-.756,16.758-2.394,24.822-2.646,13.86-6.678,21.42-16,29.484,5.166,5.292,7.056,7.812,10.962,15.12,6.8-6.552,10.458-11.34,14.238-19.026,3.654-7.308,5.67-13.986,7.434-25.326ZM149.94,35.17h25.83V50.92H149.94Zm49.9-9.576a127.519,127.519,0,0,1,.63,15.75v47.5c0,8.442-.126,11.088-.63,14.868h17.01c-.5-4.032-.63-7.182-.63-15.246V41.344a127.519,127.519,0,0,1,.63-15.75Zm26.712-7.056c.5,5.67.756,11.844.756,17.766v76.86c0,2.9-1.386,3.78-6.174,3.78-4.158,0-9.45-.378-17.388-1.134a70.13,70.13,0,0,1,5.04,16.758c5.166.126,7.308.252,10.08.252,8.568,0,14.616-.63,18.018-2.016,4.536-1.638,6.552-6.174,6.552-14.616V36.3c0-7.434.252-12.222.756-17.766Zm83.538,20.034V53.566H299.25a75.16,75.16,0,0,1-11.592-.63c.378,4.158.5,7.812.5,12.6v54.936c0,4.536-.252,9.954-.63,14.112h16.38v-6.3h49.9v6.3H370.44a161.745,161.745,0,0,1-.756-16.758V65.284a118.058,118.058,0,0,1,.5-12.348,96.949,96.949,0,0,1-11.592.63H347.508V38.572H357.84c6.552,0,12.222.252,15.75.63V23.074a126.208,126.208,0,0,1-16.254.756H306.18a140.955,140.955,0,0,1-14.868-.63l.252-.5-16.128-6.678c-.756,5.418-1.89,9.7-4.536,17.01-4.788,12.978-10.458,22.932-17.892,30.87a104.349,104.349,0,0,1,5.67,18.774,95.057,95.057,0,0,0,7.056-10.458c-.252,6.426-.252,9.072-.252,13.1v35.154a130.659,130.659,0,0,1-.756,14.742h16.758a133.7,133.7,0,0,1-.5-14.616V50.038c5.166-11.592,5.544-12.348,8.064-20.286.756-2.142,1.008-3.024,1.512-4.284V39.2c4.158-.378,9.072-.63,15.624-.63Zm1.134,29.484v45.612h-7.938V68.056Zm13.734,45.612V68.056h7.812v45.612Zm0-60.1V38.572h7.812V53.566Zm21.546,60.1V68.056h7.938v45.612ZM429.912,92.5v30.114a79.934,79.934,0,0,1-.63,12.348H446.04V129.04h28.728v5.922h16.758a84.443,84.443,0,0,1-.63-12.726V89.476l4.788,1.764a62.72,62.72,0,0,1,7.182-16.128,126.945,126.945,0,0,1-30.24-11.844,108.137,108.137,0,0,0,16.38-21.924c2.016-3.276,2.394-4.032,3.654-5.8l-8.946-9.7a55.754,55.754,0,0,1-10.584.63H456.876c.5-1.134.63-1.638.882-2.268a14.667,14.667,0,0,1,.756-1.89c.882-2.142.882-2.142,1.26-3.15l-16.38-2.52c-1.89,10.08-8.946,22.05-18.648,31.5v-8.82a34.062,34.062,0,0,1-6.8.5H415.17v-9.45a88.537,88.537,0,0,1,.756-12.978H398.79a88.036,88.036,0,0,1,.63,13.1v9.324h-4.914a45.8,45.8,0,0,1-9.576-.63V55.078a52.259,52.259,0,0,1,9.45-.63h3.906c-2.772,13.1-8.946,27.09-16.38,37.044a56.14,56.14,0,0,1,8.064,15.75c4.536-7.056,6.552-11.718,10.206-23.562-.126,2.52-.378,7.308-.63,14.364v21.42a136.991,136.991,0,0,1-.756,15.75h17.136a132.483,132.483,0,0,1-.756-15.75V90.61c0-3.78-.252-11.718-.5-14.742,4.662,9.576,4.662,9.576,6.678,12.726,1.008-2.646,1.386-3.276,2.268-5.418a50.27,50.27,0,0,1,2.646,8.946c1.89-.756,2.394-.882,3.654-1.512ZM418.068,54.448a49.019,49.019,0,0,1,6.426.378,76.954,76.954,0,0,1,6.552,8.19,108.8,108.8,0,0,0,8.442-8.568,107.362,107.362,0,0,0,8.694,9.45A113.841,113.841,0,0,1,428.4,74.23a59.946,59.946,0,0,1-12.852-19.782Zm23.688,30.744A102.857,102.857,0,0,0,460.4,73.852a120.536,120.536,0,0,0,20.034,11.34ZM471.114,40.84a55.459,55.459,0,0,1-11.088,13.986c-4.662-3.78-6.93-6.174-11.718-12.348.5-.756.63-1.008,1.008-1.638ZM446.04,99.682h28.728v14.49H446.04Zm119.088-4.914a38.591,38.591,0,0,0-6.048-9.72l-6.12,2.736a46.048,46.048,0,0,1,5.976,10.008Zm8.352-3.96a37.077,37.077,0,0,0-5.976-9.216l-5.976,2.592a47.77,47.77,0,0,1,5.832,9.648Zm-64.152-6.984a103.7,103.7,0,0,1,10.584-1.3c16.056-1.224,16.344-1.3,23.544-2.088-10.008,5.76-15.192,13.68-15.192,23.4,0,8.208,3.888,14.472,11.376,18.36,4.32,2.3,9.36,3.528,17.424,4.464a17.516,17.516,0,0,1,2.52.36L561.1,115.36c-.864.072-1.368.072-1.8.072a46.981,46.981,0,0,1-10.656-1.656c-6.048-1.728-9.36-5.616-9.36-10.944,0-6.552,4.9-13.248,13.032-17.856a33.174,33.174,0,0,1,15.336-4.392,15.709,15.709,0,0,1,1.728.072L568.8,69.64c-1.3.288-1.728.36-8.064.648-19.8.864-32.184,1.44-37.152,1.8-10.224.648-10.656.648-12.024.648-.288,0-1.152,0-2.808-.072Z" transform="translate(-2.772 60.768)" fill="#fff"/>
</svg>
