<svg xmlns="http://www.w3.org/2000/svg" width="467.208" height="92.027" viewBox="0 0 467.208 92.027">
  <g id="text" transform="translate(-222.73 -405.636)">
    <path id="パス_683" data-name="パス 683" d="M3.51,0h3.7V-24.3L15.366-5.85h3.627L27.144-24.3V0h3.705V-29.406H25.662L17.2-10.3,8.736-29.406H3.51ZM37.284-20.592V-8.073c0,3.159.429,5.3,1.56,6.669S41.769.663,44.538.663A34.642,34.642,0,0,0,54.132-.975V-20.592H50.466V-3.666a20.5,20.5,0,0,1-5.616.858c-1.6,0-2.535-.273-3.159-1.092-.7-.9-.741-2.535-.741-4.251V-20.592ZM60.06,0h3.666V-14.352a16.764,16.764,0,0,1,3.237-1.794,18.228,18.228,0,0,1,4.056-1.209V-21.06a16.228,16.228,0,0,0-4.6,1.287A17.286,17.286,0,0,0,63.726-18.1v-2.5H60.06ZM72.54-10.179c0,3.081.468,5.967,1.4,7.683A5.732,5.732,0,0,0,79.482.663a8.017,8.017,0,0,0,5.031-2.028c.9-.663,1.6-1.248,2.223-1.794V0H90.4V-19.071c-3.315-1.209-6.045-2.184-8.853-2.184-3.588,0-5.811.936-7.371,3.393C72.969-15.951,72.54-13.143,72.54-10.179Zm3.705,0a11.473,11.473,0,0,1,1.014-5.46c.858-1.56,2.262-2.145,4.446-2.145a15.313,15.313,0,0,1,5.031,1.17V-7.02c-.819.7-1.872,1.6-2.886,2.379a6.965,6.965,0,0,1-3.861,1.794A2.911,2.911,0,0,1,76.947-4.8,15.783,15.783,0,0,1,76.245-10.179ZM96.291-20.592V-8.073c0,3.159.429,5.3,1.56,6.669S100.776.663,103.545.663a34.642,34.642,0,0,0,9.594-1.638V-20.592h-3.666V-3.666a20.5,20.5,0,0,1-5.616.858c-1.6,0-2.535-.273-3.159-1.092-.7-.9-.741-2.535-.741-4.251V-20.592ZM119.925-2.73C121.29-.468,123.162.663,127.218.663a32.714,32.714,0,0,0,6.435-.975V-3.9a27.444,27.444,0,0,1-6.162,1.092c-2.223,0-3.705-.507-4.524-2.106a12.582,12.582,0,0,1-.975-5.343,13.5,13.5,0,0,1,.78-5.148c.819-1.872,2.262-2.379,4.719-2.379a27,27,0,0,1,6.162,1.248v-3.588a28.049,28.049,0,0,0-6.474-1.131c-4.446,0-6.4,1.482-7.683,4.1a16.489,16.489,0,0,0-1.209,6.981A14.835,14.835,0,0,0,119.925-2.73ZM138.06-29.406V0h3.666V-15.873c1.716-.741,4.29-1.833,6.162-1.833a3.3,3.3,0,0,1,2.769.936c.7.819.741,2.3.741,3.939V0h3.666V-12.987c0-3.315-.312-5.148-1.521-6.474s-2.691-1.794-4.953-1.794c-2.145,0-4.6.975-6.864,1.872V-29.406ZM164.619,0V-20.592h-3.666V0Zm.039-23.907v-5.5h-3.744v5.5Zm16.146-5.5V0h12.129c3.783,0,6.123-.7,7.839-2.067a7.748,7.748,0,0,0,2.652-6.357,7.687,7.687,0,0,0-1.326-4.6,9.5,9.5,0,0,0-2.457-2.223c.468-.741,1.092-1.677,1.6-2.574a9.291,9.291,0,0,0,1.521-4.8,6.27,6.27,0,0,0-2.925-5.577c-1.638-.975-3.627-1.209-6.63-1.209Zm3.744,16.185h9.282a6.607,6.607,0,0,1,3.861.858A4.325,4.325,0,0,1,199.6-8.424a4.3,4.3,0,0,1-1.56,3.7c-1.053.78-2.535,1.131-5.07,1.131h-8.424Zm0-12.6h8.424a9.829,9.829,0,0,1,4.368.624,2.874,2.874,0,0,1,1.6,2.886,6.591,6.591,0,0,1-1.17,3.432c-.39.663-.819,1.365-1.248,2.067H184.548ZM209.2,0H212.9V-24.3L221.052-5.85h3.627L232.83-24.3V0h3.705V-29.406h-5.187L222.885-10.3l-8.463-19.11H209.2Zm31.785-29.406L247.065,0h5.187l5.616-20.046L263.523,0h5.187l6.045-29.406h-3.783l-5.148,25L260.013-24.96h-4.251L249.99-4.407l-5.187-25Z" transform="translate(220 497)" fill="#fff"/>
    <path id="パス_682" data-name="パス 682" d="M2.73-21.756a10.381,10.381,0,0,0,1.848,6.678c1.428,1.932,3.948,2.856,7.644,2.856a65.81,65.81,0,0,0,7.182-.462,18.178,18.178,0,0,1-.546,4.074,6.867,6.867,0,0,1-2.73,4.242A9.205,9.205,0,0,1,11.046-3.15,38.936,38.936,0,0,1,3.78-4.116V-.168a41.474,41.474,0,0,0,7.392.882c3.948,0,6.678-1.092,8.61-2.94A12.18,12.18,0,0,0,22.89-8.4a38.318,38.318,0,0,0,.588-8.064c0-5.754-.714-9.828-2.52-12.348-1.68-2.352-4.41-3.57-8.19-3.57-4.032,0-6.594,1.26-8.148,3.444A11.756,11.756,0,0,0,2.73-21.756Zm4.074,0c0-2.1.21-3.528,1.26-4.914.966-1.3,2.646-1.89,4.788-1.89,2.184,0,3.99.714,5,2.352,1.344,2.142,1.554,5.418,1.554,9.7a58.7,58.7,0,0,1-6.594.5c-2.058,0-3.948-.252-4.956-1.512C6.972-18.606,6.8-19.824,6.8-21.756ZM57.33-10.122v8.106c0,.924-.294,1.176-1.554,1.176a45.877,45.877,0,0,1-6.09-.462,14,14,0,0,1,1.008,3.948c2.058.126,3.486.168,4.872.168,2.478,0,3.486-.168,4.326-.714.966-.63,1.386-1.722,1.386-3.57V-28.854a40.85,40.85,0,0,1,.168-4.578,35.876,35.876,0,0,1-4.662.21h-16.8a39.051,39.051,0,0,1-4.7-.21,62.517,62.517,0,0,1,.21,6.72c0,10.458-.42,15.162-1.638,19.194A17,17,0,0,1,29.148.21,12.965,12.965,0,0,1,32.382,3.4,24.414,24.414,0,0,0,38.64-10.122ZM39.1-13.692c.21-2.478.336-4.872.336-6.384H57.33v6.384Zm.378-9.954v-5.922H57.33v5.922ZM72.072-.126a45.517,45.517,0,0,0,7.9.84c3.78,0,6.552-.84,8.484-2.982a10.5,10.5,0,0,0,2.394-7.224,9.307,9.307,0,0,0-3.234-7.476c-1.638-1.26-4.116-2.016-8.022-2.016H76.524V-27.8h13.4v-3.864H72.534V-15.12h4.872c4.284,0,6.3.336,7.6,1.344A5.054,5.054,0,0,1,86.772-9.45a6.023,6.023,0,0,1-1.554,4.62C84-3.57,82.236-3.15,79.8-3.15a43.758,43.758,0,0,1-7.728-.924Zm28.35-1.848a39.987,39.987,0,0,1-.252,4.83h4.242V.252h20.412v2.6h4.242a38.085,38.085,0,0,1-.252-4.83v-27.09a32.52,32.52,0,0,1,.21-4.116,32.444,32.444,0,0,1-4.452.21h-19.74a36.364,36.364,0,0,1-4.62-.21c.126,1.386.21,2.73.21,4.368Zm3.99-27.3h20.412V-18.69H104.412Zm0,14.238h20.412V-3.4H104.412ZM150.654,4.62a29.406,29.406,0,0,1-4.284-8.4,29.981,29.981,0,0,1-1.386-9.24,29.561,29.561,0,0,1,1.428-9.366,27.63,27.63,0,0,1,4.326-8.4L147-33.18a34.2,34.2,0,0,0-5.04,9.7,34.953,34.953,0,0,0-1.554,10.332,34.263,34.263,0,0,0,2.142,11.97A35.216,35.216,0,0,0,147,7.1Zm35.658-27.762a45.761,45.761,0,0,1,4.914.252v-4.158a31.233,31.233,0,0,1-4.956.294H174.552V-31a21.585,21.585,0,0,1,.294-3.864h-4.62A21.273,21.273,0,0,1,170.52-31v4.242H159.432a33.329,33.329,0,0,1-4.872-.294v4.158a45.538,45.538,0,0,1,4.872-.252h9.786a40.988,40.988,0,0,1-16.17,17.388,13.138,13.138,0,0,1,2.73,3.528,46.61,46.61,0,0,0,7.476-6.3,39.162,39.162,0,0,0,7.476-10.92c-.126,1.722-.21,3.7-.21,4.872V-1.806a35.638,35.638,0,0,1-.294,5.082h4.62a35.638,35.638,0,0,1-.294-5.082v-12.81c0-1.428-.084-3.15-.252-5a39.2,39.2,0,0,0,7.056,10.206,48.685,48.685,0,0,0,8.484,7.056,15.169,15.169,0,0,1,2.772-3.738,38.9,38.9,0,0,1-10-7.6,38.263,38.263,0,0,1-6.762-9.45Zm8.61-7.644a29.143,29.143,0,0,1,4.326,8.4,29.561,29.561,0,0,1,1.428,9.366,29.6,29.6,0,0,1-1.386,9.24,29.122,29.122,0,0,1-4.326,8.4l3.7,2.478a34.419,34.419,0,0,0,4.452-8.274A33.1,33.1,0,0,0,205.254-13.1,35.024,35.024,0,0,0,203.7-23.478a34.2,34.2,0,0,0-5.04-9.7Zm19.824,17.43c2.814-2.9,4.7-3.864,7.518-3.864,2.436,0,3.822.588,7.392,2.94,3.066,2.058,4.032,2.6,5.754,3.192a11.831,11.831,0,0,0,3.864.63,11.631,11.631,0,0,0,6.972-2.268,19.8,19.8,0,0,0,3.906-3.906l-2.856-2.73a11.53,11.53,0,0,1-3.7,3.4,8.2,8.2,0,0,1-3.948,1.218c-2.268,0-4.578-.924-7.854-3.108a23,23,0,0,0-3.864-2.394,11.813,11.813,0,0,0-5.334-1.218,11.62,11.62,0,0,0-6.258,1.806,15.118,15.118,0,0,0-4.41,3.7ZM263.97,0V-32.508L252.126-28.77v4.032l7.812-2.436V0Zm9.7-2.562C275.436-.252,278,.714,281.862.714c3.99,0,6.468-1.218,8.19-3.318a10.757,10.757,0,0,0,2.1-6.93,9.773,9.773,0,0,0-2.31-6.8c-1.68-1.806-4.242-2.646-8.526-2.646-1.848,0-4.032.084-5.124.126a9.154,9.154,0,0,1,3.7-5.964c2.352-1.764,6.216-2.814,10.29-3.486v-3.906c-5.5.756-10.584,2.268-13.944,5.25-4.074,3.654-4.83,9.576-4.83,15.582C271.4-7.686,272.076-4.662,273.672-2.562Zm1.974-12.516c1.05-.042,3.318-.126,5.292-.126,2.814,0,4.62.294,5.838,1.554a5.6,5.6,0,0,1,1.3,4.116,6.812,6.812,0,0,1-1.344,4.578c-1.134,1.344-2.646,1.848-4.872,1.848-2.352,0-4.158-.672-5.124-2.1-.966-1.47-1.26-3.108-1.26-5.838A32.966,32.966,0,0,1,275.646-15.078Zm26.04,13.1a39.987,39.987,0,0,1-.252,4.83h4.242V.252h20.412v2.6h4.242a38.086,38.086,0,0,1-.252-4.83v-27.09a32.52,32.52,0,0,1,.21-4.116,32.444,32.444,0,0,1-4.452.21H306.1a36.364,36.364,0,0,1-4.62-.21c.126,1.386.21,2.73.21,4.368Zm3.99-27.3h20.412V-18.69H305.676Zm0,14.238h20.412V-3.4H305.676ZM351.918,4.62a29.4,29.4,0,0,1-4.284-8.4,29.981,29.981,0,0,1-1.386-9.24,29.561,29.561,0,0,1,1.428-9.366,27.629,27.629,0,0,1,4.326-8.4l-3.738-2.394a34.2,34.2,0,0,0-5.04,9.7,34.953,34.953,0,0,0-1.554,10.332,34.264,34.264,0,0,0,2.142,11.97A35.217,35.217,0,0,0,348.264,7.1Zm31.794-14.742v8.106c0,.924-.294,1.176-1.554,1.176a45.877,45.877,0,0,1-6.09-.462,14,14,0,0,1,1.008,3.948c2.058.126,3.486.168,4.872.168,2.478,0,3.486-.168,4.326-.714.966-.63,1.386-1.722,1.386-3.57V-28.854a40.848,40.848,0,0,1,.168-4.578,35.877,35.877,0,0,1-4.662.21h-16.8a39.051,39.051,0,0,1-4.7-.21,62.515,62.515,0,0,1,.21,6.72c0,10.458-.42,15.162-1.638,19.194A17,17,0,0,1,355.53.21,12.966,12.966,0,0,1,358.764,3.4a24.414,24.414,0,0,0,6.258-13.524Zm-18.228-3.57c.21-2.478.336-4.872.336-6.384h17.892v6.384Zm.378-9.954v-5.922h17.85v5.922Zm39.984,8.358a3.738,3.738,0,0,0-3.738,3.7,3.746,3.746,0,0,0,3.738,3.738,3.684,3.684,0,0,0,3.7-3.738A3.675,3.675,0,0,0,405.846-15.288Zm33.264-1.638c-.168,5.964-1.344,9.828-3.99,12.894A13.557,13.557,0,0,1,429.408,0a15.73,15.73,0,0,1,2.646,3.15,16.659,16.659,0,0,0,4.578-3.192,16.53,16.53,0,0,0,4.074-6.132c1.26-3.192,1.764-5.964,1.974-10.752h2.772V-.588c0,1.218.168,1.764.756,2.226.756.63,1.638.8,4.116.8,2.9,0,4.284-.21,5.166-.756,1.218-.756,1.47-1.932,1.806-8.526a9.672,9.672,0,0,1-3.486-1.512c.042.966.042,1.848.042,2.394,0,2.94-.21,4.242-.714,4.578a5.265,5.265,0,0,1-2.394.294c-1.092,0-1.554-.126-1.638-.5-.042-.126-.042-.126-.042-15.33h1.89a28.189,28.189,0,0,1,3.444.168,29.489,29.489,0,0,1-.168-3.57V-29.82a29.489,29.489,0,0,1,.168-3.57,32.22,32.22,0,0,1-3.822.168h-12.1a34.435,34.435,0,0,1-3.99-.168,32.821,32.821,0,0,1,.168,3.57v9.45a30.238,30.238,0,0,1-.168,3.612,28.82,28.82,0,0,1,3.4-.168Zm-.756-12.768h12.222v9.324H438.354ZM427.98-13.86a29.73,29.73,0,0,0,5,4.242,14.143,14.143,0,0,1,1.806-3.36,26.713,26.713,0,0,1-6.09-4.578,35.943,35.943,0,0,0,3.36-5.166,31.658,31.658,0,0,1,1.806-3.57l-1.806-2.058a18.482,18.482,0,0,1-2.562.126H427.98v-3.822a18.4,18.4,0,0,1,.252-3.318h-4.2a22.487,22.487,0,0,1,.252,3.318v3.822H422.1a24.035,24.035,0,0,1-3.318-.168v3.7a27.6,27.6,0,0,1,3.486-.168h6.8a27.875,27.875,0,0,1-4.83,7.224,28.952,28.952,0,0,1-7.056,5.964,14.074,14.074,0,0,1,1.722,3.7,48.152,48.152,0,0,0,5.376-4.578V-1.3a24.768,24.768,0,0,1-.252,4.452h4.158a30.628,30.628,0,0,1-.21-4.452Zm31.626-16.926a29.144,29.144,0,0,1,4.326,8.4,29.561,29.561,0,0,1,1.428,9.366,29.6,29.6,0,0,1-1.386,9.24,29.122,29.122,0,0,1-4.326,8.4l3.7,2.478A34.419,34.419,0,0,0,467.8-1.176,33.1,33.1,0,0,0,469.938-13.1a35.025,35.025,0,0,0-1.554-10.374,34.2,34.2,0,0,0-5.04-9.7Z" transform="translate(220 441)" fill="#fff"/>
  </g>
</svg>
