<svg xmlns="http://www.w3.org/2000/svg" width="330" height="121" viewBox="0 0 330 121">
  <g id="選べる豪華ご成約プレゼントが必ずもらえる_" data-name="選べる豪華ご成約プレゼントが必ずもらえる！" transform="translate(-469.856 -1268.365)">
    <g id="グループ_107" data-name="グループ 107" transform="translate(469.856 1268.365)">
      <path id="パス_652" data-name="パス 652" d="M18.08,34.485a5.155,5.155,0,0,0,3.957,2.649A14.6,14.6,0,0,0,19.79,34.42a21.642,21.642,0,0,0,5.3-1.373H21.534a19.37,19.37,0,0,0-2.816.131V29.712a19.156,19.156,0,0,0,2.783.13h1.71V27.913h-.469a23.348,23.348,0,0,0-3.152.131v-3.4a18.851,18.851,0,0,0,3.152.131h.469v-1.7a10.054,10.054,0,0,1-3.118-.228,1.711,1.711,0,0,1-1.14-1.9V18.2a17.18,17.18,0,0,0-.068-1.994,23.1,23.1,0,0,0,2.414.065h3.554V15.129H21.3c-1.408,0-1.945.033-2.749.1v-3.27a23.993,23.993,0,0,0,2.816.131h4.426a28.471,28.471,0,0,0,2.95-.1,7.028,7.028,0,0,0-.066,1.275v3.76c0,.916.034,1.439.066,1.831-.737-.033-1.408-.065-2.179-.065h-3.99v.85c0,.621.168.687,1.542.687,1.676,0,1.811-.1,1.811-1.406a11.1,11.1,0,0,0,3.319,1.013c-.234,2.06-.6,2.648-1.978,2.943v1.9h4.057V22.812a1.759,1.759,0,0,1-1.24-1.929V18.3c0-.294-.034-.98-.067-2.092a23.09,23.09,0,0,0,2.414.065h3.554V15.129H32.7c-1.442,0-1.978.033-2.783.1v-3.27a24.005,24.005,0,0,0,2.817.131h4.325a28.835,28.835,0,0,0,2.985-.1,7.515,7.515,0,0,0-.1,1.831v3.2a12.056,12.056,0,0,0,.1,1.831c-.771-.033-1.442-.065-2.213-.065H33.907v.883c0,.588.168.654,1.542.654,1.878,0,1.911,0,1.978-1.472A14.2,14.2,0,0,0,40.949,19.9c-.235,1.765-.47,2.354-1.207,2.714-.637.327-1.609.425-4.359.458v1.7h1.609a18.4,18.4,0,0,0,3.119-.131v3.4a23.678,23.678,0,0,0-3.152-.131H35.382v1.929H37.7a23.427,23.427,0,0,0,3.185-.13v3.466a24.044,24.044,0,0,0-3.185-.131H34.51a23.99,23.99,0,0,0,5.835,1.308,12.06,12.06,0,0,0-1.778,2.615c1.006-.1,1.543-.163,3.186-.36a17.752,17.752,0,0,0-1.106,4.415c-2.85.1-7.512.163-12.1.163-4.963,0-7.076-.163-8.651-.654a8.136,8.136,0,0,1-3.856-2.746A31.96,31.96,0,0,1,12.749,40.5c-.57.425-.839.589-1.342.981L9.5,37.035a16.672,16.672,0,0,0,4.359-2.845V27.554H12.279a12.952,12.952,0,0,0-2.18.163V23.5a16.946,16.946,0,0,0,2.75.163h2.816a24.667,24.667,0,0,0,2.515-.1,30.426,30.426,0,0,0-.1,3.6Zm-4.728-22.92a40.525,40.525,0,0,1,5.5,5.493l-3.319,3.2a29.764,29.764,0,0,0-5.4-5.722ZM28.944,34.747a19.513,19.513,0,0,1-5.533,2.518c1.14.065,2.716.1,4.628.1,2.213,0,5.533-.066,7.813-.2a19.371,19.371,0,0,1-5.366-2.42l2.213-1.7h-6Zm-1.676-4.9h4.057V27.913H27.268Z" transform="translate(-9.496 -11.042)" fill="#ffd900"/>
      <path id="パス_653" data-name="パス 653" d="M74.321,30.173c1.509-1.047,2.917-2.616,7.578-8.338,1.676-2.093,3.185-3.008,4.929-3.008a5.011,5.011,0,0,1,3.085,1.144,18.421,18.421,0,0,1,2.18,2.224,108.157,108.157,0,0,0,9.724,9.972,21.693,21.693,0,0,0,4.157,3.27l-2.481,5.46a11.563,11.563,0,0,0-1.106-1.046c-2.783-2.42-6.505-6.114-9.758-9.613-.738-.818-.738-.818-3.018-3.4-.369-.425-.369-.425-1.408-1.6-.6-.654-.939-.85-1.409-.85-.57,0-.57,0-3.286,3.564-1.576,2.027-3.42,4.218-5.164,6.114a10.886,10.886,0,0,0-.839.981Zm23.4-11.379a21.2,21.2,0,0,1,3.085,4.611l-2.918,1.406A19.86,19.86,0,0,0,94.808,20.1Zm3.823-1.765a19.609,19.609,0,0,1,3.118,4.447l-2.85,1.405A23.566,23.566,0,0,0,98.8,18.3Z" transform="translate(-30.833 -12.877)" fill="#ffd900"/>
      <path id="パス_654" data-name="パス 654" d="M143.5,13.975a30.7,30.7,0,0,0,4.359.229c2.883,0,7.041-.163,10.159-.393a5.821,5.821,0,0,0,2.281-.425l2.38,3.4c-.7.393-.737.393-3.353,2.649a63.858,63.858,0,0,1-7.276,5.754,18.854,18.854,0,0,1,5.533-.785,10.788,10.788,0,0,1,7.008,2.224,6.61,6.61,0,0,1,2.448,5.427,8.224,8.224,0,0,1-4.594,7.423,17.239,17.239,0,0,1-8.416,1.962c-2.918,0-5.4-.589-6.807-1.635a4.855,4.855,0,0,1-2.045-3.989c0-2.812,2.616-4.937,6.17-4.937a7.517,7.517,0,0,1,5.9,2.649,8.275,8.275,0,0,1,1.542,2.811c2.381-.948,3.353-2.19,3.353-4.251,0-2.386-2.481-3.923-6.337-3.923a20.486,20.486,0,0,0-13.681,5.493l-2.683-4.217c3.152-1.471,10.16-6.9,14.888-11.509-2.749.229-3.319.262-8.248.49-1.073.066-1.375.066-2.381.2Zm7.813,20.6c-1.006,0-1.676.523-1.676,1.308,0,1.144,1.274,1.8,3.454,1.8a4.986,4.986,0,0,0,1.408-.164c-.5-1.929-1.609-2.942-3.185-2.942" transform="translate(-52.267 -11.654)" fill="#ffd900"/>
      <path id="パス_655" data-name="パス 655" d="M216.194,29.005a10.876,10.876,0,0,1,2.381,2.975,11.982,11.982,0,0,1,1.341,4.773,6.111,6.111,0,0,1-.771,3.107c-.7,1.144-2.18,1.6-5.265,1.6-.537,0-1.006,0-2.213-.033a11.507,11.507,0,0,0-.9-2.681,69.36,69.36,0,0,1-7.947,2.583,10.14,10.14,0,0,0-1.945-2.748,49.41,49.41,0,0,0,14.452-4.675,5.536,5.536,0,0,0-.368-.883,51.646,51.646,0,0,1-12.306,4.087,7.33,7.33,0,0,0-1.576-2.452,52.281,52.281,0,0,0,7.343-1.471,34.659,34.659,0,0,0,5.331-1.962c-.268-.294-.369-.425-.671-.752a44.179,44.179,0,0,1-9.858,2.747,7.775,7.775,0,0,0-1.442-2.42A39.748,39.748,0,0,0,211.4,28.94h-2.749a13.613,13.613,0,0,0-2.146.1V26.586a17.82,17.82,0,0,0,2.18.1h14.854a19.14,19.14,0,0,0,2.012-.1v2.453a12.712,12.712,0,0,0-2.079-.1H222.2a9.893,9.893,0,0,0,1.14,2.42,10.121,10.121,0,0,0,2.012-2.158l3.723,2.092a29.544,29.544,0,0,1-3.253,2.91,16,16,0,0,0,5.9,3.171,17.65,17.65,0,0,0-1.911,3.695,25.443,25.443,0,0,1-5.331-3.106,17.277,17.277,0,0,1-5.9-9.024h-2.247Zm-2.616-16.446a10.178,10.178,0,0,0-.2-1.733h4.829a7.42,7.42,0,0,0-.2,1.733h9.556a25.852,25.852,0,0,0,3.688-.163v3.5a31.707,31.707,0,0,0-3.722-.131H204.558a31.152,31.152,0,0,0-3.621.131V12.4a27.2,27.2,0,0,0,3.789.163Zm13.279,13.209H205.262v3.074H200.97a8.8,8.8,0,0,0,.168-2.027V24.885a14.753,14.753,0,0,0-.1-2.027,36.054,36.054,0,0,0,3.723.131h22.6c1.643,0,2.683-.033,3.789-.131a9.452,9.452,0,0,0-.1,1.962v2.06a11.226,11.226,0,0,0,.134,1.962h-4.326Zm-18.812-3.727c-1.14,0-2.012.033-3.119.065a12.272,12.272,0,0,0,.1-1.667V18.248a11.2,11.2,0,0,0-.1-1.7c1.409.1,1.845.1,3.186.1H224.04c1.307,0,1.945-.033,3.119-.1a9.289,9.289,0,0,0-.1,1.733v2.125a14.258,14.258,0,0,0,.066,1.7c-1.341-.065-1.877-.065-3.051-.065Zm1.141-2.092h13.681V18.739H209.186Zm6.706,16.282a25.972,25.972,0,0,1-4.426,2.224c.771.065,1.676.13,2.078.13,1.174,0,1.777-.163,2.045-.523a2.52,2.52,0,0,0,.3-1.406Z" transform="translate(-72.485 -10.794)" fill="#ffd900"/>
      <path id="パス_656" data-name="パス 656" d="M292.12,13.182a31.784,31.784,0,0,0,4.057-.2v4.021c-1.174-.1-2.414-.163-4.024-.163h-3.789v1.7h3.286a21.7,21.7,0,0,0,3.186-.163v3.63a30.925,30.925,0,0,0-3.186-.132h-.537v1.9h1.777a27.57,27.57,0,0,0,3.689-.2v3.826a28.29,28.29,0,0,0-3.689-.2h-1.777v1.9h.537a28.92,28.92,0,0,0,3.186-.131v3.6a30.933,30.933,0,0,0-3.186-.131H282.9v1.536h9.155c1.576,0,2.85-.065,4.024-.163v3.76a35.643,35.643,0,0,0-4.057-.2H282.9v1.013a22.6,22.6,0,0,0,.2,3.368h-4.728a23.5,23.5,0,0,0,.2-3.4v-.98h-8.584a36.906,36.906,0,0,0-4.057.2v-3.76a39.519,39.519,0,0,0,4.091.163h8.551V32.441h-8.316a30.376,30.376,0,0,0-3.219.131v-3.6a28.428,28.428,0,0,0,3.219.131h.5v-1.9h-1.777a30.15,30.15,0,0,0-3.689.2V23.58a29.376,29.376,0,0,0,3.689.2h1.777v-1.9h-.5a31.6,31.6,0,0,0-3.219.132v-3.63a21.639,21.639,0,0,0,3.219.163h2.883v-1.7h-3.286c-1.643,0-2.884.065-4.057.163V12.986a32.89,32.89,0,0,0,4.057.2h3.286v-.327a8.725,8.725,0,0,0-.134-1.634h4.56a8.494,8.494,0,0,0-.134,1.634v.327h6.64v-.327a9.2,9.2,0,0,0-.134-1.634h4.56a8.73,8.73,0,0,0-.134,1.634v.327Zm-17.2,10.594h3.722v-1.9h-3.722Zm0,5.329h3.722v-1.9h-3.722Zm2.515-10.561h6.639v-1.7h-6.639Zm5.4,5.232h4.192v-1.9h-4.192Zm0,5.329h4.192v-1.9h-4.192Z" transform="translate(-93.69 -10.926)" fill="#ffd900"/>
      <path id="パス_657" data-name="パス 657" d="M340.583,29c-2.045,1.6-3.018,2.975-3.018,4.251,0,1.9,2.314,2.746,7.544,2.746,4.124,0,8.651-.588,10.9-1.439l.369,5.362a29.4,29.4,0,0,0-3.018.294,54.031,54.031,0,0,1-7.578.523c-4.024,0-6.941-.36-8.819-1.079-3.017-1.112-4.493-3.009-4.493-5.69s1.375-4.97,4.56-7.454Zm-5.935-14.092a51.547,51.547,0,0,0,10.83.818,46.112,46.112,0,0,0,8.786-.588l.168,4.316a63.227,63.227,0,0,0-9.155,5.591l-3.42-2.485c1.174-.752,3.454-2.125,4.426-2.681a30.6,30.6,0,0,1-3.823.2,64.683,64.683,0,0,1-6.941-.392,5.944,5.944,0,0,0-1.173-.1Zm17.5,7.226a16.417,16.417,0,0,1,2.985,4.12l-2.75,1.569a17.966,17.966,0,0,0-2.985-4.185Zm3.688-1.962a19.005,19.005,0,0,1,2.984,3.956l-2.682,1.537a21.155,21.155,0,0,0-2.917-4.055Z" transform="translate(-115.799 -12.166)" fill="#ffd900"/>
      <path id="パス_658" data-name="パス 658" d="M419.738,22.712c-.2.491-.369.851-.7,1.668-.369.916-1.308,2.91-1.978,4.185a31.548,31.548,0,0,1-2.481,4.054,10.451,10.451,0,0,0,2.28,3.008c.235.2.369.327.369.327a.424.424,0,0,0,.235.131c.335,0,.6-1.177,1.039-4.348a14.246,14.246,0,0,0,3.421,2.55,15.5,15.5,0,0,1-1.408,4.741c-.671,1.308-1.442,1.9-2.515,1.9-1.878,0-4.158-1.8-6.3-4.9a32.326,32.326,0,0,1-7.108,5.134,15.9,15.9,0,0,0-2.951-3.434,23.9,23.9,0,0,0,8.148-5.33c-1.475-3.6-2.113-7-2.515-13.045h-9.758c0,1.864,0,2.517-.034,3.923h6a20.607,20.607,0,0,0,2.314-.1c-.1.719-.1.719-.369,6.31-.2,3.826-.6,5.493-1.542,6.408a3.677,3.677,0,0,1-2.482.883,16.383,16.383,0,0,1-2.213.131c-.235,0-.771,0-1.576-.033a14.83,14.83,0,0,0-.973-3.858,19.819,19.819,0,0,1-3.219,8.534,16.741,16.741,0,0,0-3.42-3.4,13.329,13.329,0,0,0,2.18-4.9,59.173,59.173,0,0,0,1.073-13.013,36.959,36.959,0,0,0-.2-4.9c1.241.1,2.649.164,4.426.164H407.1a24.265,24.265,0,0,0-.235-4.251h4.695a20.45,20.45,0,0,0-.2,2.681c0,.065,0,.915.033,1.569h3.722a13.244,13.244,0,0,0-2.716-2.518l3.119-1.9a22.768,22.768,0,0,1,3.286,3.172l-1.911,1.243h.872a23.574,23.574,0,0,0,3.521-.164v4.218a39.309,39.309,0,0,0-4.225-.2h-5.533a46.005,46.005,0,0,0,1.274,8.926,21.777,21.777,0,0,0,2.716-7.1ZM397.3,27.028a55.288,55.288,0,0,1-.637,5.754,21.089,21.089,0,0,0,2.816.262c.939,0,1.241-.163,1.442-.85.3-.948.335-1.34.436-5.166Z" transform="translate(-134.734 -10.876)" fill="#ffd900"/>
      <path id="パス_659" data-name="パス 659" d="M460.464,29.97c-.268,5.1-.47,6.572-1.442,9.875l-3.353-1.5a31.864,31.864,0,0,0,1.409-8.8Zm-4.527-5.33a7.835,7.835,0,0,0,1.676.132h1.141c.637-.752.9-1.079,1.542-1.963A30.84,30.84,0,0,0,455.9,17.97l2.112-3.367c.47.556.637.752.972,1.112a22.933,22.933,0,0,0,2.481-4.937l3.722,1.406a9.57,9.57,0,0,0-.67,1.177,48.378,48.378,0,0,1-3.052,4.97c.436.523.6.687,1.106,1.308a36.618,36.618,0,0,0,3.387-5.526l3.588,1.929c-.268.36-.537.687-1.14,1.6-1.543,2.224-3.99,5.395-5.366,6.964,1.711-.065,2.012-.1,3.354-.2a22.534,22.534,0,0,0-.872-2.191l2.783-1.046a55.3,55.3,0,0,1,2.582,6.736l-3.152,1.242c-.1-.654-.168-.85-.3-1.439-1.475.163-1.475.163-1.945.2v10.1a20.446,20.446,0,0,0,.2,3.564h-4.359a20,20,0,0,0,.2-3.564V28.237c-1.542.1-1.542.1-3.856.229-.57.065-.9.1-1.375.163Zm13.547,4.774a64.959,64.959,0,0,1,1.442,8.6l-3.554.654a76.453,76.453,0,0,0-1.006-8.566Zm5.332-9.841a23.031,23.031,0,0,1-3.253,4.9,11.851,11.851,0,0,0-3.119-3.106,21.538,21.538,0,0,0,3.655-5.918,23.4,23.4,0,0,0,1.341-4.48l4.426.719a11.526,11.526,0,0,0-.47,1.407c-.168.523-.537,1.634-.838,2.419h7.075a18.568,18.568,0,0,0,2.716-.131,45.443,45.443,0,0,0-.167,5.984c-.034,3.923-.369,9.645-.7,12.293-.5,3.858-1.173,5.657-2.381,6.572-.838.588-2.314.882-4.661.882-.939,0-1.81-.033-2.951-.1A14.16,14.16,0,0,0,474.38,36.7a34.7,34.7,0,0,0,4.326.393c1.509,0,1.877-.393,2.28-2.387a97.385,97.385,0,0,0,.872-15.138Zm.7,13.7A36.578,36.578,0,0,0,472,24.836l3.688-1.7a38.552,38.552,0,0,1,3.823,8.3Z" transform="translate(-156.35 -10.777)" fill="#ffd900"/>
    </g>
    <g id="グループ_108" data-name="グループ 108" transform="translate(517.319 1313.101)">
      <path id="パス_660" data-name="パス 660" d="M542.009,14.8a12.619,12.619,0,0,0,1.445-.065,3.716,3.716,0,1,1,3.73,3.891h-.135l-.135.458a30.917,30.917,0,0,1-6.653,13.242c-3.091,3.531-6.889,6.082-12.668,8.6a14.879,14.879,0,0,0-3.562-4.676,27.659,27.659,0,0,0,7.224-3.236,21.814,21.814,0,0,0,10.014-13.634H526.552a40.523,40.523,0,0,0-5.209.2v-5a35.352,35.352,0,0,0,5.276.228Zm3.495.2a1.647,1.647,0,1,0,1.646-1.6A1.627,1.627,0,0,0,545.5,15" transform="translate(-521.343 -10.454)" fill="#fff"/>
      <path id="パス_661" data-name="パス 661" d="M592.882,13.551a27.265,27.265,0,0,0-.235,4.054l-.2,17.591a22.666,22.666,0,0,0,8.972-3.695,20.013,20.013,0,0,0,6.518-7.389,16.369,16.369,0,0,0,3.831,3.989c-4.771,7.161-10.551,10.692-20.33,12.425a7.976,7.976,0,0,0-2.015.556l-2.554-2.943a7.649,7.649,0,0,0,.336-3.008l.134-17.492a2.094,2.094,0,0,0,.034-.458,26.093,26.093,0,0,0-.2-3.695Z" transform="translate(-542.817 -11.164)" fill="#fff"/>
      <path id="パス_662" data-name="パス 662" d="M649.587,16.039a19.447,19.447,0,0,0-.235-3.793h5.51a20.308,20.308,0,0,0-.235,3.695v3.171l12-1.34a6.208,6.208,0,0,0,2.487-.556L672,19.8a5.781,5.781,0,0,0-1.009,1.668,27.794,27.794,0,0,1-3.595,5.656,25.721,25.721,0,0,1-4.738,4.283,13.979,13.979,0,0,0-4.032-3.2,17.9,17.9,0,0,0,3.831-2.746,12.039,12.039,0,0,0,2.621-3.3l-10.484,1.308v7.16a12.63,12.63,0,0,0,.134,2.649c.134.784.572,1.177,1.512,1.34a18.755,18.755,0,0,0,2.957.2,55,55,0,0,0,5.948-.393,26.587,26.587,0,0,0,4.5-.948l.2,5.2a31.809,31.809,0,0,0-3.729.295c-2.756.261-5.141.392-6.989.392a23.218,23.218,0,0,1-6.183-.589,4.622,4.622,0,0,1-3.025-3.04c-.3-1.046-.335-1.569-.335-4.414V23.984l-2.286.295a29.607,29.607,0,0,0-4.4.686l-.5-4.806c.436.033.806.033,1.008.033.672,0,1.814-.1,3.394-.262l2.79-.294Zm17.339-4.349a16.313,16.313,0,0,1,2.789,4.185l-2.89,1.308A17.257,17.257,0,0,0,664.07,12.9Zm3.831-1.7a18.092,18.092,0,0,1,2.822,4.185l-2.788,1.373a20.375,20.375,0,0,0-2.755-4.349Z" transform="translate(-561.015 -9.99)" fill="#fff"/>
      <path id="パス_663" data-name="パス 663" d="M710.914,15.5a47.053,47.053,0,0,1,8.939,6.343l-3.394,4.283a35.383,35.383,0,0,0-8.837-6.768Zm-3.158,20.272a32.867,32.867,0,0,0,10.013-2.387,20.752,20.752,0,0,0,9.88-8.01,28.024,28.024,0,0,0,3.393-6.507,18.1,18.1,0,0,0,4.268,3.793c-3.327,7-7.292,11.312-13.139,14.321a43.466,43.466,0,0,1-9.778,3.4c-.84.163-.84.163-1.479.294a12.519,12.519,0,0,0-1.68.458Z" transform="translate(-582.391 -11.842)" fill="#fff"/>
      <path id="パス_664" data-name="パス 664" d="M773.8,41a32.9,32.9,0,0,0,.2-4.611V17.029a27.792,27.792,0,0,0-.2-4.381h5.477a28.011,28.011,0,0,0-.2,4.381V22a82.048,82.048,0,0,1,15.289,6.866L791.6,33.573a74.433,74.433,0,0,0-11.257-5.951,11.718,11.718,0,0,1-1.277-.588v9.416a39.391,39.391,0,0,0,.2,4.545Z" transform="translate(-604.077 -10.883)" fill="#fff"/>
      <path id="パス_665" data-name="パス 665" d="M824.7,19.82h.2c1.008,0,5.04-.359,6.754-.621a42.741,42.741,0,0,0,.84-6.6,3.221,3.221,0,0,0-.033-.49l5.208.49a7.985,7.985,0,0,0-.235.948c-.034.131-.3,1.537-.772,4.218-.135.686-.135.719-.235,1.112.806-.033,1.277-.066,1.781-.066,2.385,0,4.133.622,5.242,1.9,1.142,1.34,1.578,2.942,1.578,6.016,0,5.853-1.008,10.4-2.721,12.2a4.724,4.724,0,0,1-3.932,1.472,18.087,18.087,0,0,1-5.142-.916A12.576,12.576,0,0,0,833.3,38a14.468,14.468,0,0,0-.436-3.5,14.809,14.809,0,0,0,4.772,1.243c.84,0,1.344-.523,1.747-1.831a30.655,30.655,0,0,0,.908-7.454c0-1.569-.235-2.42-.84-2.943-.437-.425-.975-.556-2.185-.556-.571,0-.941.033-1.68.1A70.976,70.976,0,0,1,829.433,39.7c-.3.622-.336.687-.537,1.112l-4.671-2.452c2.284-2.91,5.141-9.482,6.553-14.943-2.386.327-4.671.719-5.646.981Zm22.447-6.67a18.529,18.529,0,0,1,3.092,4.316L847.31,18.9a20.926,20.926,0,0,0-3.125-4.414Zm3.294,5.33a32.517,32.517,0,0,1,5.343,11.28l-4.637,2.19a30.9,30.9,0,0,0-2.487-7.389,21.243,21.243,0,0,0-2.352-4.185Zm.739-7.063a19.3,19.3,0,0,1,3.092,4.152l-2.889,1.472a23.615,23.615,0,0,0-3.058-4.283Z" transform="translate(-620.604 -10.47)" fill="#fff"/>
    </g>
    <g id="グループ_109" data-name="グループ 109" transform="translate(503.758 1357.486)">
      <path id="パス_666" data-name="パス 666" d="M901.393,36.15c0,.752.739.948,3.458.948,2.787,0,3.794-.2,4.2-.85.47-.784.738-2.779.771-6.147a16.238,16.238,0,0,0,4.231,1.439c-.47,5.82-1.041,7.684-2.719,8.6-1.008.557-3.191.851-6.481.851-3.861,0-5.54-.229-6.648-.883-.806-.49-1.108-1.243-1.175-2.812-2.719,1.832-3.122,2.093-5.574,3.5a14.968,14.968,0,0,0-2.955-3.727,41.427,41.427,0,0,0,8.529-4.806V21.568a24.479,24.479,0,0,0-.2-3.434h4.768a25.71,25.71,0,0,0-.2,3.3V28.6a43.336,43.336,0,0,0,7.857-10.3,23.518,23.518,0,0,0,2.351-5.591l4.533,1.766c-.437.818-.437.818-1.377,2.714a56.523,56.523,0,0,1-6.681,10.365,40.192,40.192,0,0,1-6.682,6.539Zm-5.842-14.484a45.767,45.767,0,0,1-2.988,12.392l-4.029-1.9a36.092,36.092,0,0,0,2.921-11.345Zm3.794-10.887a52.12,52.12,0,0,1,9.7,4.446l-2.586,3.76a42.1,42.1,0,0,0-9.771-4.9Zm16.184,10.561A69.058,69.058,0,0,1,920.5,33.861l-4.2,2.158a52.251,52.251,0,0,0-4.7-12.883Z" transform="translate(-888.499 -9.927)" fill="#ff0d0d"/>
      <path id="パス_667" data-name="パス 667" d="M953.474,15.677c.806.065,1.142.1,1.747.1.738,0,4.1-.1,13.565-.359a23.415,23.415,0,0,0-.236-3.727h5.07a24.162,24.162,0,0,0-.2,3.629c5.674-.033,8.26-.1,9.6-.228l.034,4.512a55.182,55.182,0,0,0-5.842-.163c-1.779,0-2.048,0-3.761.033l.034.785v1.079l-.034,2.649v.784a9.545,9.545,0,0,1,1.242,4.9c0,3.793-1.779,6.833-5.305,9.024a22.983,22.983,0,0,1-6.38,2.681,12.639,12.639,0,0,0-2.786-4.415c3.558-.556,5.909-1.439,7.588-2.845a4.687,4.687,0,0,0,1.813-2.714,5.8,5.8,0,0,1-4.735,1.864,6.725,6.725,0,0,1-4.028-1.308,5.318,5.318,0,0,1-2.25-4.479c0-3.565,2.955-6.114,7.119-6.114a6.217,6.217,0,0,1,3.156.719,4.684,4.684,0,0,0-.034-.523V19.568a151.721,151.721,0,0,0-15.243.85Zm9.905,11.542a2.306,2.306,0,0,0,2.551,2.158,2.685,2.685,0,0,0,2.921-2.452c0-1.178-1.04-1.994-2.619-1.994-1.645,0-2.854.98-2.854,2.289m15.21-17.264a18.3,18.3,0,0,1,2.182,4.153l-2.988.849a19.233,19.233,0,0,0-2.048-4.251Zm4.331-.458a15.319,15.319,0,0,1,2.149,4.152l-2.887.85a16.9,16.9,0,0,0-2.049-4.283Z" transform="translate(-909.827 -9.497)" fill="#ff0d0d"/>
      <path id="パス_668" data-name="パス 668" d="M1019.268,24.745a23.443,23.443,0,0,0,5.877,1.209c.234-1.929.234-1.929.57-3.989a36.28,36.28,0,0,1-4.734-.784c-.5-.1-.672-.131-1.176-.2l.369-4.316a23.864,23.864,0,0,0,6.077,1.144,34.581,34.581,0,0,0,.571-5.067v-.393l5.306.458a24.992,24.992,0,0,0-1.042,5.166,32.936,32.936,0,0,0,7.488-.752l-.168,4.577c-.5.033-.5.033-2.451.2a49.012,49.012,0,0,1-5.071.2h-.5c-.235,1.569-.336,2.224-.57,4.021.537.033.941.033,1.175.033a26,26,0,0,0,6.683-.719l-.1,4.479a9.258,9.258,0,0,0-1.074.1,42.813,42.813,0,0,1-5.171.327c-.368,0-.637,0-1.812-.033a19.33,19.33,0,0,0-.1,1.962,3.792,3.792,0,0,0,1.141,3.073,5.952,5.952,0,0,0,3.928,1.144c4,0,6.28-1.7,6.28-4.676,0-1.8-1.007-3.695-2.922-5.493a15.054,15.054,0,0,0,4.97-.948c2.081,2.518,2.92,4.577,2.92,7.16a7.812,7.812,0,0,1-3.325,6.212,14.572,14.572,0,0,1-14.169.785c-2.45-1.472-3.591-3.662-3.591-6.965,0-.817,0-1.144.1-2.55-1.61-.2-2.787-.359-4.531-.719-.37-.066-.706-.131-1.31-.2Z" transform="translate(-931.301 -10.456)" fill="#fff"/>
      <path id="パス_669" data-name="パス 669" d="M1088.024,18.809c-.37,1.275-1.142,5.526-1.545,8.5a15.944,15.944,0,0,1,9.8-2.845c5.977,0,9.8,2.845,9.8,7.259a7.978,7.978,0,0,1-3.626,6.6c-2.384,1.6-5.271,2.322-9.167,2.322a35.652,35.652,0,0,1-8.528-1.047,18.824,18.824,0,0,0-.6-4.97,29.417,29.417,0,0,0,8.831,1.569c4.7,0,7.857-1.733,7.857-4.316,0-1.994-1.914-3.171-5.138-3.171a15.257,15.257,0,0,0-7.957,2.19,6.385,6.385,0,0,0-1.713,1.471l-4.869-.163c.067-.425.067-.458.134-.883.3-2.42.873-6.539,1.545-10.856.1-.784.134-1.209.2-1.961Zm-.034-6.8c2.418,1.275,9.133,3.171,13.028,3.695l-1.612,4.512a66.289,66.289,0,0,1-13.767-4.185Z" transform="translate(-951.743 -10.34)" fill="#fff"/>
      <path id="パス_670" data-name="パス 670" d="M1141.426,20.837c.94.065,1.376.1,1.981.1a122.958,122.958,0,0,0,12.289-.719,10.289,10.289,0,0,0,2.888-.556l2.618,3.3a18.1,18.1,0,0,0-2.786,2.322c-2.015,1.8-2.115,1.864-3.761,3.27-.2.163-.436.359-.772.654-.5.393-.637.523-1.041.818a4.435,4.435,0,0,1,1.747-.327,3.133,3.133,0,0,1,3.021,1.668c.336.654.37.849.571,2.91.168,2.19.6,2.615,2.552,2.615a18.573,18.573,0,0,0,6.615-1.275l.5,4.839a20.557,20.557,0,0,0-3.022.36,31.662,31.662,0,0,1-4.97.392c-2.887,0-4.5-.621-5.405-2.06-.5-.752-.638-1.374-.74-3.4a6.194,6.194,0,0,0-.335-1.994,1.533,1.533,0,0,0-1.344-.654c-1.477,0-2.954.915-5.673,3.5a63.3,63.3,0,0,0-4.534,4.774l-3.726-4.12c2.149-1.406,6.211-4.872,12.457-10.626,1.142-1.079,1.578-1.471,2.552-2.321a73.665,73.665,0,0,1-7.487.818c-1.712.131-2.888.261-3.895.424Zm4.264-8.632a53.642,53.642,0,0,0,13.968,1.7l-.7,4.381c-7.152-.359-10.039-.719-14.64-1.8Z" transform="translate(-970.428 -10.406)" fill="#fff"/>
      <path id="パス_671" data-name="パス 671" d="M1203.09,13.975a30.777,30.777,0,0,0,4.365.229c2.887,0,7.052-.163,10.174-.393a5.832,5.832,0,0,0,2.283-.425l2.384,3.4c-.7.393-.739.393-3.358,2.649a63.883,63.883,0,0,1-7.286,5.754,18.912,18.912,0,0,1,5.541-.785,10.813,10.813,0,0,1,7.017,2.224,6.608,6.608,0,0,1,2.451,5.427,8.222,8.222,0,0,1-4.6,7.423,17.28,17.28,0,0,1-8.428,1.962c-2.921,0-5.4-.589-6.815-1.635a4.854,4.854,0,0,1-2.048-3.989c0-2.812,2.619-4.937,6.178-4.937a7.533,7.533,0,0,1,5.91,2.649,8.271,8.271,0,0,1,1.544,2.811c2.384-.948,3.358-2.19,3.358-4.251,0-2.386-2.484-3.923-6.346-3.923a20.531,20.531,0,0,0-13.7,5.493l-2.686-4.217c3.156-1.471,10.174-6.9,14.908-11.509-2.753.229-3.324.262-8.26.49-1.074.066-1.376.066-2.383.2Zm7.823,20.6c-1.007,0-1.679.523-1.679,1.308,0,1.144,1.276,1.8,3.458,1.8a5,5,0,0,0,1.41-.164c-.5-1.929-1.611-2.942-3.189-2.942" transform="translate(-990.426 -10.804)" fill="#fff"/>
      <path id="パス_672" data-name="パス 672" d="M1270.691,32.81c.033-.818.067-1.177.067-1.537,0-.425,0-.425-.1-2.354l-.57-10.757c-.068-1.472-.2-3.074-.336-4.185h6.547c-.134.948-.268,2.485-.336,4.185l-.57,10.757c-.1,2-.1,2-.1,2.387,0,.36.033.687.067,1.5Zm-.538,2.485h5.742v5.3h-5.742Z" transform="translate(-1013.641 -11.001)" fill="#fff"/>
    </g>
  </g>
</svg>
