<svg xmlns="http://www.w3.org/2000/svg" width="316.551" height="95.75" viewBox="0 0 316.551 95.75">
  <g id="txt" transform="translate(-639.104 -6461)">
    <path id="パス_659" data-name="パス 659" d="M-122.485-31.857V-2.588h4.141V0H-132.6V-2.588h3.752v-22.7L-138.375,0h-3.287L-151.78-25.387v22.8h3.908V0H-158.9V-2.588h4.141V-31.857H-158.9v-2.484h10.222l10.3,25.9,9.86-25.9h10.067v2.484Zm17.649,0V-2.588h5.15V0h-16.64V-2.588h5.15V-31.857h-5.15v-2.484h16.64v2.484Zm39.181-2.484v2.536H-70V0h-3.934L-90.473-26.086v23.5h4.348V0H-97.512V-2.588h4.141V-31.805h-4.037v-2.536h9.394L-73.03-10.869V-31.805h-4.063v-2.536Zm13.405,2.484V-2.588h5.15V0H-63.74V-2.588h5.15V-31.857h-5.15v-2.484H-47.1v2.484ZM-20.807-2.588h4.5V0H-31.676V-2.588h4.5V-31.857h-4.5v-2.484h27.3v9.653H-8.1l-2.691-7.168H-20.807v12.189h5.564v-3.6h3.183V-13.2h-3.183v-3.649h-5.564Zm50.024,0V0H14.958V-2.588h3.727l-3.571-9.756H5.486L2.1-2.588H6V0H-5.331V-2.588h4.3L10.3-34.341h3.649L25.413-2.588ZM14.337-15.113,10.352-26.4,6.444-15.113ZM66.121-31.857V-2.588h4.141V0H56V-2.588h3.752v-22.7L50.231,0H46.944L36.826-25.387v22.8h3.908V0H29.709V-2.588H33.85V-31.857H29.709v-2.484H39.931l10.3,25.9,9.86-25.9H70.158v2.484Zm17.649,0V-2.588h5.15V0H72.28V-2.588h5.15V-31.857H72.28v-2.484H88.92v2.484Zm31.909,22.2h3.52V0h-28.1V-2.588h4.555V-31.857H91.094v-2.484h15.631v2.484h-4.71V-2.588h11.024Zm7.583-22.2h-4.4v-2.484h14.984v2.484h-3.8l6.366,13.2,6.78-13.2h-4.451v-2.484h12.189v2.484h-4.658L138.09-15.786v13.2h5.15V0H126.7V-2.588h5.1v-11.93ZM150.615-2.873a3.413,3.413,0,0,1,.97-2.523,3.481,3.481,0,0,1,2.575-.97,3.393,3.393,0,0,1,2.549.97,3.465,3.465,0,0,1,.945,2.523,4.083,4.083,0,0,1-.246,1.436,3.465,3.465,0,0,1-.7,1.152,3.112,3.112,0,0,1-1.1.763,3.709,3.709,0,0,1-1.449.272,3.709,3.709,0,0,1-1.449-.272A3.243,3.243,0,0,1,151.6-.285a3.528,3.528,0,0,1-.725-1.152A3.9,3.9,0,0,1,150.615-2.873Z" transform="translate(798 6556)" fill="#fff"/>
    <g id="グループ_124" data-name="グループ 124" transform="translate(6 -14)">
      <rect id="長方形_27" data-name="長方形 27" width="156" height="32" transform="translate(714 6475)" fill="#1257d8"/>
      <path id="パス_658" data-name="パス 658" d="M-62.959-19.438h15.894v5.464h-1.948l-1.523-4.058H-53.2V-1.465h2.549V0h-8.7V-1.465h2.549V-18.032h-2.71l-1.494,4.058h-1.948Zm34.16,1.406V-1.465h2.051V0h-7.661V-1.465h1.978V-9.507h-7.705v8.042h2.007V0h-7.646V-1.465h2.036V-18.032h-2.036v-1.406h7.646v1.406h-2.007v6.958h7.705v-6.958h-1.978v-1.406h7.661v1.406Zm5.977,0h-2.549v-1.406H-9.917v5.464h-2.109l-1.523-4.058h-5.669v6.9h3.149v-2.036h1.8v5.7h-1.8V-9.536h-3.149v8.071h5.933l1.509-4h2.095V0H-25.371V-1.465h2.549Zm40.21-1.406V-18H14.927V0H12.7L3.34-14.766v13.3H5.8V0H-.645V-1.465H1.7V-18H-.586v-1.436H4.731L13.213-6.152V-18h-2.3v-1.436Zm3.779,1.406H18.618v-1.406H34.072v5.464H31.963l-1.523-4.058H24.771v6.9H27.92v-2.036h1.8v5.7h-1.8V-9.536H24.771v8.071H30.7l1.509-4h2.095V0H18.618V-1.465h2.549Zm42.817-1.406v1.406H61.23L55.649,0H53.613L49.263-13.447,45.381,0H43.315L37.5-18.032H34.922v-1.406h8.6v1.406H41.191L45.146-5.405,49.16-19.321h1.919L55.532-5.347l3.9-12.686H56.484v-1.406Z" transform="translate(792 6501)" fill="#fff"/>
    </g>
  </g>
</svg>
