<svg xmlns="http://www.w3.org/2000/svg" width="377.845" height="74.781" viewBox="0 0 377.845 74.781">
  <path id="パス_693" data-name="パス 693" d="M.681-22.03H18.693v6.192H16.485l-1.727-4.6H11.737V-1.66h2.889V0H4.765V-1.66H7.653V-20.437H4.582l-1.693,4.6H.681Zm40.755,1.594V-1.66H43.76V0H35.077V-1.66h2.241v-9.114H28.586V-1.66H30.86V0H22.194V-1.66H24.5V-20.437H22.194V-22.03H30.86v1.594H28.586v7.886h8.732v-7.886H35.077V-22.03H43.76v1.594Zm8.813,0H47.36V-22.03H64.875v6.192H62.484l-1.727-4.6H54.333v7.819H57.9v-2.308h2.042v6.458H57.9v-2.341H54.333V-1.66h6.724l1.71-4.532h2.374V0H47.36V-1.66h2.889ZM99.9-22.03V-20.4H97.111V0H94.588L83.979-16.734V-1.66h2.789V0h-7.3V-1.66H82.12V-20.4H79.53V-22.03h6.026L95.169-6.973V-20.4H92.562V-22.03Zm6.323,1.594h-2.889V-22.03h17.515v6.192h-2.391l-1.727-4.6h-6.425v7.819h3.569v-2.308h2.042v6.458h-2.042v-2.341h-3.569V-1.66h6.724l1.71-4.532h2.374V0h-17.78V-1.66h2.889ZM156.79-22.03v1.594h-3.121L147.344,0h-2.308l-4.931-15.24L135.706,0h-2.341l-6.591-20.437h-2.922V-22.03H133.6v1.594h-2.64L135.44-6.126,139.989-21.9h2.175L147.211-6.06l4.416-14.377H148.29V-22.03Zm36.237,1.594V-1.66h2.656V0h-9.147V-1.66h2.407V-16.22L182.834,0h-2.108l-6.491-16.286V-1.66h2.507V0h-7.072V-1.66h2.656V-20.437h-2.656V-22.03h6.558l6.607,16.618,6.325-16.618h6.458v1.594Zm13.362,0V-1.66h3.3V0H199.018V-1.66h3.3V-20.437h-3.3V-22.03h10.675v1.594Zm27.175-1.594V-20.4h-2.789V0h-2.523L217.643-16.734V-1.66h2.789V0h-7.3V-1.66h2.656V-20.4h-2.59V-22.03h6.026l9.612,15.058V-20.4h-2.606V-22.03Zm10.64,1.594V-1.66h3.3V0H236.833V-1.66h3.3V-20.437h-3.3V-22.03h10.675v1.594ZM17.494,49.619a10.485,10.485,0,0,0,3.028-.427,7.841,7.841,0,0,0,2.575-1.32,7.707,7.707,0,0,0,1.954-2.29,11.012,11.012,0,0,0,1.19-3.338h2.743a13.185,13.185,0,0,1-1.462,4.438,11.538,11.538,0,0,1-2.64,3.248A10.8,10.8,0,0,1,21.3,51.922,13.5,13.5,0,0,1,17,52.6a17.211,17.211,0,0,1-5.163-.712A13.657,13.657,0,0,1,7.867,49.93a13.073,13.073,0,0,1-2.911-2.9A16.16,16.16,0,0,1,3,43.486a19.025,19.025,0,0,1-1.087-3.908,24.061,24.061,0,0,1-.336-3.959,27.346,27.346,0,0,1,.375-4.5,22.78,22.78,0,0,1,1.152-4.309A17.3,17.3,0,0,1,5.111,22.99a13.394,13.394,0,0,1,2.95-3.054A13.66,13.66,0,0,1,12.008,17.9,15.827,15.827,0,0,1,17,17.167a18.007,18.007,0,0,1,3.778.362,15.6,15.6,0,0,1,3.028.958,11.767,11.767,0,0,1,2.368,1.372,18.05,18.05,0,0,1,1.85,1.6v5.952H23.472a11.89,11.89,0,0,0-.867-3.688,7.7,7.7,0,0,0-1.579-2.394A5.695,5.695,0,0,0,17,19.625,7.858,7.858,0,0,0,12.8,20.674a8,8,0,0,0-2.73,2.821,12.77,12.77,0,0,0-1.475,4.089,25.963,25.963,0,0,0-.44,4.852,30.889,30.889,0,0,0,1.1,8.152,20.674,20.674,0,0,0,1.333,3.558,13.573,13.573,0,0,0,1.837,2.86,8.194,8.194,0,0,0,2.316,1.915A5.666,5.666,0,0,0,17.494,49.619ZM50.9,17.167a17.183,17.183,0,0,1,5.1.7,14.248,14.248,0,0,1,3.972,1.9A12.745,12.745,0,0,1,62.909,22.6,16.439,16.439,0,0,1,64.9,26.082a17.916,17.916,0,0,1,1.126,3.83,22.526,22.526,0,0,1,.349,3.921A27.58,27.58,0,0,1,66,38.349,22.133,22.133,0,0,1,64.824,42.7a19.2,19.2,0,0,1-2.031,3.895,13.405,13.405,0,0,1-6.9,5.24A15.333,15.333,0,0,1,50.9,52.6a17.211,17.211,0,0,1-5.163-.712,14.061,14.061,0,0,1-3.972-1.928,12.731,12.731,0,0,1-2.911-2.86A16.09,16.09,0,0,1,36.9,43.589a18.56,18.56,0,0,1-1.087-3.856,23.449,23.449,0,0,1-.336-3.908,26.683,26.683,0,0,1,.388-4.516,22.773,22.773,0,0,1,1.19-4.348A18.2,18.2,0,0,1,39.1,23.093a14.012,14.012,0,0,1,2.95-3.105,13.385,13.385,0,0,1,3.921-2.07A15.282,15.282,0,0,1,50.9,17.167ZM59.855,37.12a39.228,39.228,0,0,0-.233-4.257,31.543,31.543,0,0,0-.712-4.089,22.193,22.193,0,0,0-1.216-3.636A12.967,12.967,0,0,0,55.947,22.2a7.8,7.8,0,0,0-2.29-1.967,5.736,5.736,0,0,0-2.834-.712,7.761,7.761,0,0,0-4.141,1.035,7.928,7.928,0,0,0-2.717,2.808,12.99,12.99,0,0,0-1.488,4.089,25.384,25.384,0,0,0-.453,4.878,35.555,35.555,0,0,0,.207,4.27,34.027,34.027,0,0,0,.7,4.128,23.684,23.684,0,0,0,1.19,3.714,13.137,13.137,0,0,0,1.708,3,7.833,7.833,0,0,0,2.251,2.006,5.508,5.508,0,0,0,2.821.738,8.074,8.074,0,0,0,4.231-1.035A7.924,7.924,0,0,0,57.9,46.345a12.8,12.8,0,0,0,1.5-4.154A27.128,27.128,0,0,0,59.855,37.12ZM100.068,42.5a10.365,10.365,0,0,1-.8,4.141,8.767,8.767,0,0,1-2.316,3.183,10.686,10.686,0,0,1-3.675,2.044,15.388,15.388,0,0,1-4.9.725,16.4,16.4,0,0,1-5.176-.763,10.557,10.557,0,0,1-3.921-2.264A9.769,9.769,0,0,1,76.8,45.841a14.242,14.242,0,0,1-.854-5.124V20.143H71.834V17.659H86.455v2.484H82.315V41.985a8.909,8.909,0,0,0,1.63,5.693,5.879,5.879,0,0,0,4.891,2.044,10.66,10.66,0,0,0,2.717-.375,7.759,7.759,0,0,0,2.6-1.229,6.9,6.9,0,0,0,1.954-2.226,6.681,6.681,0,0,0,.776-3.338V20.143h-4.4V17.659H104.26v2.484h-4.192Zm41.067-24.844v2.536h-4.348V52h-3.934L116.316,25.914v23.5h4.348V52H109.277V49.412h4.141V20.195h-4.037V17.659h9.394l14.984,23.472V20.195H129.7V17.659Zm5.2,0h28.079v9.653H170.97l-2.691-7.168h-4.71V49.412h4.5V52H152.7V49.412h4.5V20.143h-4.788l-2.64,7.168h-3.442Zm46.941,18.71h-3.183V49.412h4.037V52H179.713V49.412h4.037V20.195h-4.037V17.659h15.734a15.178,15.178,0,0,1,5.021.738,9.931,9.931,0,0,1,3.455,1.98,7.67,7.67,0,0,1,2.006,2.9,9.516,9.516,0,0,1,.647,3.494,9.8,9.8,0,0,1-.453,3.015,8.768,8.768,0,0,1-1.307,2.562,8.347,8.347,0,0,1-2.1,1.98,10.307,10.307,0,0,1-2.821,1.294l8.851,13.793h4.037V52h-9.7Zm-3.183-2.717h4.943a3.5,3.5,0,0,0,1.812-.5,5,5,0,0,0,1.5-1.4,7.113,7.113,0,0,0,1.022-2.135,9.459,9.459,0,0,0,.375-2.743,9.73,9.73,0,0,0-.349-2.691,7.091,7.091,0,0,0-.97-2.109,4.535,4.535,0,0,0-1.488-1.385,3.789,3.789,0,0,0-1.9-.492h-4.943ZM218.5,20.143h-4.4V17.659h14.984v2.484h-3.8l6.366,13.2,6.78-13.2h-4.451V17.659h12.189v2.484h-4.658l-8.178,16.071v13.2h5.15V52H221.945V49.412h5.1V37.482Zm68.317,0V49.412h4.141V52H276.7V49.412h3.752v-22.7L270.93,52h-3.287L257.525,26.613v22.8h3.908V52H250.408V49.412h4.141V20.143h-4.141V17.659h10.222l10.3,25.9,9.86-25.9h10.067v2.484Zm42.826,29.269V52H315.387V49.412h3.727l-3.571-9.756h-9.627l-3.39,9.756h3.908V52H295.1V49.412h4.3l11.335-31.753h3.649l11.464,31.753Zm-14.88-12.525L310.781,25.6l-3.908,11.283Zm50.409-19.228v2.536h-4.348V52h-3.934L340.357,25.914v23.5H344.7V52H333.318V49.412h4.141V20.195h-4.037V17.659h9.394L357.8,41.131V20.195h-4.063V17.659Zm6.311,31.469a3.413,3.413,0,0,1,.97-2.523,3.481,3.481,0,0,1,2.575-.97,3.393,3.393,0,0,1,2.549.97,3.465,3.465,0,0,1,.945,2.523,4.083,4.083,0,0,1-.246,1.436,3.466,3.466,0,0,1-.7,1.152,3.112,3.112,0,0,1-1.1.763,4,4,0,0,1-2.9,0,3.243,3.243,0,0,1-1.113-.763,3.528,3.528,0,0,1-.725-1.152A3.9,3.9,0,0,1,371.487,49.127Z" transform="translate(-0.681 22.03)" fill="#363636"/>
</svg>
