<svg xmlns="http://www.w3.org/2000/svg" width="394.633" height="75.096" viewBox="0 0 394.633 75.096">
  <path id="パス_692" data-name="パス 692" d="M.681-22.03H18.693v6.192H16.485l-1.727-4.6H11.737V-1.66h2.889V0H4.765V-1.66H7.653V-20.437H4.582l-1.693,4.6H.681Zm40.755,1.594V-1.66H43.76V0H35.077V-1.66h2.241v-9.114H28.586V-1.66H30.86V0H22.194V-1.66H24.5V-20.437H22.194V-22.03H30.86v1.594H28.586v7.886h8.732v-7.886H35.077V-22.03H43.76v1.594Zm8.813,0H47.36V-22.03H64.875v6.192H62.484l-1.727-4.6H54.333v7.819H57.9v-2.308h2.042v6.458H57.9v-2.341H54.333V-1.66h6.724l1.71-4.532h2.374V0H47.36V-1.66h2.889ZM99.9-22.03V-20.4H97.111V0H94.588L83.979-16.734V-1.66h2.789V0h-7.3V-1.66H82.12V-20.4H79.53V-22.03h6.026L95.169-6.973V-20.4H92.562V-22.03Zm6.323,1.594h-2.889V-22.03h17.515v6.192h-2.391l-1.727-4.6h-6.425v7.819h3.569v-2.308h2.042v6.458h-2.042v-2.341h-3.569V-1.66h6.724l1.71-4.532h2.374V0h-17.78V-1.66h2.889ZM156.79-22.03v1.594h-3.121L147.344,0h-2.308l-4.931-15.24L135.706,0h-2.341l-6.591-20.437h-2.922V-22.03H133.6v1.594h-2.64L135.44-6.126,139.989-21.9h2.175L147.211-6.06l4.416-14.377H148.29V-22.03Zm36.237,1.594V-1.66h2.656V0h-9.147V-1.66h2.407V-16.22L182.834,0h-2.108l-6.491-16.286V-1.66h2.507V0h-7.072V-1.66h2.656V-20.437h-2.656V-22.03h6.558l6.607,16.618,6.325-16.618h6.458v1.594Zm13.362,0V-1.66h3.3V0H199.018V-1.66h3.3V-20.437h-3.3V-22.03h10.675v1.594Zm27.175-1.594V-20.4h-2.789V0h-2.523L217.643-16.734V-1.66h2.789V0h-7.3V-1.66h2.656V-20.4h-2.59V-22.03h6.026l9.612,15.058V-20.4h-2.606V-22.03Zm10.64,1.594V-1.66h3.3V0H236.833V-1.66h3.3V-20.437h-3.3V-22.03h10.675v1.594ZM271.924-1.527a6.726,6.726,0,0,0,1.942-.274,5.03,5.03,0,0,0,1.652-.847,4.944,4.944,0,0,0,1.253-1.469,7.064,7.064,0,0,0,.764-2.142h1.76a8.458,8.458,0,0,1-.938,2.847,7.4,7.4,0,0,1-1.693,2.083,6.929,6.929,0,0,1-2.3,1.278,8.659,8.659,0,0,1-2.756.432A11.041,11.041,0,0,1,268.3-.075a8.761,8.761,0,0,1-2.548-1.253,8.387,8.387,0,0,1-1.868-1.859,10.366,10.366,0,0,1-1.253-2.274,12.206,12.206,0,0,1-.7-2.507,15.434,15.434,0,0,1-.216-2.54,17.542,17.542,0,0,1,.241-2.889,14.614,14.614,0,0,1,.739-2.764,11.1,11.1,0,0,1,1.287-2.449,8.593,8.593,0,0,1,1.893-1.959,8.763,8.763,0,0,1,2.532-1.3,10.153,10.153,0,0,1,3.2-.473,11.551,11.551,0,0,1,2.424.232,10.01,10.01,0,0,1,1.942.614,7.548,7.548,0,0,1,1.519.88,11.579,11.579,0,0,1,1.187,1.029v3.818h-2.922a7.627,7.627,0,0,0-.556-2.366,4.94,4.94,0,0,0-1.013-1.536,3.671,3.671,0,0,0-1.262-.838,3.677,3.677,0,0,0-1.32-.257,5.041,5.041,0,0,0-2.7.672,5.132,5.132,0,0,0-1.751,1.81,8.192,8.192,0,0,0-.946,2.623,16.657,16.657,0,0,0-.282,3.113,19.6,19.6,0,0,0,.183,2.673,19.531,19.531,0,0,0,.523,2.557,13.262,13.262,0,0,0,.855,2.283A8.708,8.708,0,0,0,268.67-3.2a5.257,5.257,0,0,0,1.486,1.229A3.635,3.635,0,0,0,271.924-1.527Zm21.431-20.818a11.023,11.023,0,0,1,3.271.448,9.14,9.14,0,0,1,2.548,1.22,8.176,8.176,0,0,1,1.884,1.818,10.546,10.546,0,0,1,1.278,2.233,11.493,11.493,0,0,1,.722,2.457,14.45,14.45,0,0,1,.224,2.515,17.692,17.692,0,0,1-.241,2.9,14.2,14.2,0,0,1-.755,2.789,12.314,12.314,0,0,1-1.3,2.5,8.746,8.746,0,0,1-1.893,2.017,8.717,8.717,0,0,1-2.532,1.345,9.836,9.836,0,0,1-3.2.49,11.041,11.041,0,0,1-3.312-.457,9.02,9.02,0,0,1-2.548-1.237,8.167,8.167,0,0,1-1.868-1.834,10.322,10.322,0,0,1-1.253-2.25,11.908,11.908,0,0,1-.7-2.474,15.042,15.042,0,0,1-.216-2.507,17.117,17.117,0,0,1,.249-2.9,14.608,14.608,0,0,1,.764-2.789,11.674,11.674,0,0,1,1.312-2.482,8.989,8.989,0,0,1,1.893-1.992,8.587,8.587,0,0,1,2.515-1.328A9.8,9.8,0,0,1,293.355-22.346Zm5.744,12.8a25.165,25.165,0,0,0-.149-2.731,20.237,20.237,0,0,0-.457-2.623,14.236,14.236,0,0,0-.78-2.333,8.318,8.318,0,0,0-1.121-1.884,5,5,0,0,0-1.469-1.262,3.68,3.68,0,0,0-1.818-.457,4.979,4.979,0,0,0-2.656.664,5.086,5.086,0,0,0-1.743,1.8,8.333,8.333,0,0,0-.955,2.623,16.283,16.283,0,0,0-.291,3.129,22.807,22.807,0,0,0,.133,2.739,21.828,21.828,0,0,0,.448,2.648,15.192,15.192,0,0,0,.764,2.382,8.428,8.428,0,0,0,1.1,1.926,5.025,5.025,0,0,0,1.444,1.287,3.533,3.533,0,0,0,1.81.473,5.179,5.179,0,0,0,2.714-.664,5.083,5.083,0,0,0,1.776-1.8,8.21,8.21,0,0,0,.963-2.665A17.4,17.4,0,0,0,299.1-9.546Zm18.293-12.8a11.023,11.023,0,0,1,3.271.448,9.14,9.14,0,0,1,2.548,1.22,8.176,8.176,0,0,1,1.884,1.818,10.546,10.546,0,0,1,1.278,2.233,11.493,11.493,0,0,1,.722,2.457,14.45,14.45,0,0,1,.224,2.515,17.692,17.692,0,0,1-.241,2.9,14.2,14.2,0,0,1-.755,2.789,12.314,12.314,0,0,1-1.3,2.5,8.746,8.746,0,0,1-1.893,2.017A8.717,8.717,0,0,1,320.6-.108a9.836,9.836,0,0,1-3.2.49,11.041,11.041,0,0,1-3.312-.457,9.02,9.02,0,0,1-2.548-1.237,8.167,8.167,0,0,1-1.868-1.834,10.322,10.322,0,0,1-1.253-2.25,11.908,11.908,0,0,1-.7-2.474,15.042,15.042,0,0,1-.216-2.507,17.117,17.117,0,0,1,.249-2.9,14.608,14.608,0,0,1,.764-2.789,11.674,11.674,0,0,1,1.312-2.482,8.989,8.989,0,0,1,1.893-1.992,8.587,8.587,0,0,1,2.515-1.328A9.8,9.8,0,0,1,317.392-22.346Zm5.744,12.8a25.165,25.165,0,0,0-.149-2.731,20.237,20.237,0,0,0-.457-2.623,14.236,14.236,0,0,0-.78-2.333,8.318,8.318,0,0,0-1.121-1.884,5,5,0,0,0-1.469-1.262,3.68,3.68,0,0,0-1.818-.457,4.979,4.979,0,0,0-2.656.664,5.086,5.086,0,0,0-1.743,1.8,8.333,8.333,0,0,0-.955,2.623,16.283,16.283,0,0,0-.291,3.129,22.807,22.807,0,0,0,.133,2.739,21.828,21.828,0,0,0,.448,2.648,15.192,15.192,0,0,0,.764,2.382,8.428,8.428,0,0,0,1.1,1.926,5.025,5.025,0,0,0,1.444,1.287,3.533,3.533,0,0,0,1.81.473,5.179,5.179,0,0,0,2.714-.664,5.083,5.083,0,0,0,1.776-1.8,8.21,8.21,0,0,0,.963-2.665A17.4,17.4,0,0,0,323.136-9.546ZM341.429-22.03a9.547,9.547,0,0,1,3.179.473,6.381,6.381,0,0,1,2.208,1.27,5,5,0,0,1,1.295,1.859,6,6,0,0,1,.423,2.241,5.924,5.924,0,0,1-.49,2.4,5.721,5.721,0,0,1-1.411,1.959,6.708,6.708,0,0,1-2.233,1.32,8.583,8.583,0,0,1-2.972.481h-3.47V-1.66h2.606V0h-9.347V-1.66h2.623V-20.437h-2.623V-22.03Zm-3.47,10.26h3.088a2.277,2.277,0,0,0,1.187-.332,3.228,3.228,0,0,0,.971-.913,4.679,4.679,0,0,0,.656-1.378,5.945,5.945,0,0,0,.241-1.727,6.561,6.561,0,0,0-.216-1.735,4.395,4.395,0,0,0-.614-1.361,2.966,2.966,0,0,0-.963-.9,2.49,2.49,0,0,0-1.262-.324h-3.088Zm17.562-8.666h-2.889V-22.03h17.515v6.192h-2.391l-1.727-4.6h-6.425v7.819h3.569v-2.308h2.042v6.458h-2.042v-2.341h-3.569V-1.66h6.724l1.71-4.532h2.374V0h-17.78V-1.66h2.889ZM382.8-10.027h-2.042V-1.66h2.59V0H374.1V-1.66h2.59V-20.4H374.1V-22.03h10.094a9.737,9.737,0,0,1,3.221.473,6.371,6.371,0,0,1,2.216,1.27,4.92,4.92,0,0,1,1.287,1.859,6.1,6.1,0,0,1,.415,2.241,6.29,6.29,0,0,1-.291,1.934,5.625,5.625,0,0,1-.838,1.644,5.355,5.355,0,0,1-1.345,1.27,6.612,6.612,0,0,1-1.81.83l5.678,8.849h2.59V0h-6.226Zm-2.042-1.743h3.171a2.248,2.248,0,0,0,1.162-.324,3.2,3.2,0,0,0,.963-.9,4.563,4.563,0,0,0,.656-1.37,6.068,6.068,0,0,0,.241-1.76,6.242,6.242,0,0,0-.224-1.727A4.549,4.549,0,0,0,386.1-19.2a2.909,2.909,0,0,0-.955-.888,2.431,2.431,0,0,0-1.22-.315h-3.171ZM23.42,27.415a6.44,6.44,0,0,1-.349,2.07,8.6,8.6,0,0,1-.97,1.98,10.01,10.01,0,0,1-1.462,1.747,8.814,8.814,0,0,1-1.824,1.346,10,10,0,0,1,1.954.893,7.233,7.233,0,0,1,3.105,3.662,7.868,7.868,0,0,1,.5,2.924,9.144,9.144,0,0,1-1.113,4.581,10.2,10.2,0,0,1-2.885,3.261,12.86,12.86,0,0,1-3.947,1.941,15,15,0,0,1-4.3.647,13.875,13.875,0,0,1-3.52-.414A13.06,13.06,0,0,1,5.8,50.978a12.664,12.664,0,0,1-2.174-1.436,15.351,15.351,0,0,1-1.6-1.527L4.4,45.893A9.736,9.736,0,0,0,7.7,48.4a10.326,10.326,0,0,0,4.438.906,6.722,6.722,0,0,0,2.161-.362,4.928,4.928,0,0,0,1.9-1.177,6.039,6.039,0,0,0,1.346-2.135,8.892,8.892,0,0,0,.518-3.235,8.375,8.375,0,0,0-.4-2.7,5.473,5.473,0,0,0-1.126-1.967,4.792,4.792,0,0,0-1.734-1.2,5.881,5.881,0,0,0-2.251-.414H10.222V33.6a7.742,7.742,0,0,0,2.381-.4,7.1,7.1,0,0,0,2.264-1.216,6.728,6.728,0,0,0,1.7-2.031,5.843,5.843,0,0,0,.673-2.873,6.509,6.509,0,0,0-.4-2.407,4.5,4.5,0,0,0-1.074-1.643,4.183,4.183,0,0,0-1.566-.932,5.977,5.977,0,0,0-1.9-.3,6.991,6.991,0,0,0-3.843,1.048,10.939,10.939,0,0,0-3.041,3.067L2.691,24.18A13.207,13.207,0,0,1,4.71,21.7,10.625,10.625,0,0,1,7.1,19.962a11.555,11.555,0,0,1,2.678-1.009,12.23,12.23,0,0,1,2.873-.336,14.53,14.53,0,0,1,3.8.518,11.163,11.163,0,0,1,3.468,1.592,8.457,8.457,0,0,1,2.523,2.743A7.715,7.715,0,0,1,23.42,27.415Zm11.72,22V20.143H30.689V17.659h17.08a19.193,19.193,0,0,1,5.1.621,14.009,14.009,0,0,1,3.972,1.747,12.133,12.133,0,0,1,2.937,2.678,14.643,14.643,0,0,1,1.993,3.416A17.873,17.873,0,0,1,62.9,30.106a26.722,26.722,0,0,1,.349,4.348,24.8,24.8,0,0,1-.362,4.205,19.465,19.465,0,0,1-1.152,4.05,17.222,17.222,0,0,1-2.019,3.636,13.294,13.294,0,0,1-2.95,2.95,13.959,13.959,0,0,1-3.959,1.98A16.3,16.3,0,0,1,47.769,52H30.689V49.412Zm12.629,0a6.728,6.728,0,0,0,4.205-1.294,9.29,9.29,0,0,0,2.717-3.4A17.1,17.1,0,0,0,56.141,39.9a35.207,35.207,0,0,0,.427-5.5,30.32,30.32,0,0,0-.492-5.629,14.806,14.806,0,0,0-1.566-4.516,8.519,8.519,0,0,0-2.743-3.015,7.1,7.1,0,0,0-4-1.1H41.61V49.412Zm37.47-32.245a17.183,17.183,0,0,1,5.1.7,14.248,14.248,0,0,1,3.972,1.9A12.745,12.745,0,0,1,97.247,22.6a16.439,16.439,0,0,1,1.993,3.481,17.916,17.916,0,0,1,1.126,3.83,22.526,22.526,0,0,1,.349,3.921,27.58,27.58,0,0,1-.375,4.516A22.133,22.133,0,0,1,99.162,42.7a19.2,19.2,0,0,1-2.031,3.895,13.405,13.405,0,0,1-6.9,5.24,15.333,15.333,0,0,1-4.995.763,17.211,17.211,0,0,1-5.163-.712A14.061,14.061,0,0,1,76.1,49.956a12.731,12.731,0,0,1-2.911-2.86,16.091,16.091,0,0,1-1.954-3.507,18.56,18.56,0,0,1-1.087-3.856,23.45,23.45,0,0,1-.336-3.908A26.683,26.683,0,0,1,70.2,31.31a22.773,22.773,0,0,1,1.19-4.348,18.2,18.2,0,0,1,2.044-3.869,14.012,14.012,0,0,1,2.95-3.105,13.385,13.385,0,0,1,3.921-2.07A15.282,15.282,0,0,1,85.239,17.167ZM94.193,37.12a39.228,39.228,0,0,0-.233-4.257,31.542,31.542,0,0,0-.712-4.089,22.193,22.193,0,0,0-1.216-3.636A12.967,12.967,0,0,0,90.285,22.2,7.8,7.8,0,0,0,88,20.234a5.736,5.736,0,0,0-2.834-.712,7.761,7.761,0,0,0-4.141,1.035A7.928,7.928,0,0,0,78.3,23.365a12.99,12.99,0,0,0-1.488,4.089,25.385,25.385,0,0,0-.453,4.878,35.556,35.556,0,0,0,.207,4.27,34.027,34.027,0,0,0,.7,4.128,23.684,23.684,0,0,0,1.19,3.714,13.136,13.136,0,0,0,1.708,3,7.833,7.833,0,0,0,2.251,2.006,5.508,5.508,0,0,0,2.821.738,8.074,8.074,0,0,0,4.231-1.035,7.924,7.924,0,0,0,2.769-2.808,12.8,12.8,0,0,0,1.5-4.154A27.128,27.128,0,0,0,94.193,37.12Zm28.515-19.953a17.183,17.183,0,0,1,5.1.7,14.247,14.247,0,0,1,3.972,1.9,12.745,12.745,0,0,1,2.937,2.834,16.439,16.439,0,0,1,1.993,3.481,17.916,17.916,0,0,1,1.126,3.83,22.526,22.526,0,0,1,.349,3.921,27.579,27.579,0,0,1-.375,4.516,22.133,22.133,0,0,1-1.177,4.348,19.2,19.2,0,0,1-2.031,3.895,13.405,13.405,0,0,1-6.9,5.24,15.333,15.333,0,0,1-4.995.763,17.211,17.211,0,0,1-5.163-.712,14.061,14.061,0,0,1-3.972-1.928,12.731,12.731,0,0,1-2.911-2.86,16.091,16.091,0,0,1-1.954-3.507,18.56,18.56,0,0,1-1.087-3.856,23.45,23.45,0,0,1-.336-3.908,26.683,26.683,0,0,1,.388-4.516,22.773,22.773,0,0,1,1.19-4.348,18.2,18.2,0,0,1,2.044-3.869,14.012,14.012,0,0,1,2.95-3.105,13.385,13.385,0,0,1,3.921-2.07A15.282,15.282,0,0,1,122.708,17.167Zm8.954,19.953a39.228,39.228,0,0,0-.233-4.257,31.543,31.543,0,0,0-.712-4.089,22.193,22.193,0,0,0-1.216-3.636,12.966,12.966,0,0,0-1.747-2.937,7.8,7.8,0,0,0-2.29-1.967,5.736,5.736,0,0,0-2.834-.712,7.761,7.761,0,0,0-4.141,1.035,7.928,7.928,0,0,0-2.717,2.808,12.99,12.99,0,0,0-1.488,4.089,25.385,25.385,0,0,0-.453,4.878,35.556,35.556,0,0,0,.207,4.27,34.027,34.027,0,0,0,.7,4.128,23.684,23.684,0,0,0,1.19,3.714,13.136,13.136,0,0,0,1.708,3,7.833,7.833,0,0,0,2.251,2.006,5.508,5.508,0,0,0,2.821.738,8.074,8.074,0,0,0,4.231-1.035,7.924,7.924,0,0,0,2.769-2.808,12.8,12.8,0,0,0,1.5-4.154A27.127,27.127,0,0,0,131.663,37.12Zm26.005-.75h-3.183V49.412h4.037V52H144.107V49.412h4.037V20.195h-4.037V17.659h15.734a15.178,15.178,0,0,1,5.021.738,9.931,9.931,0,0,1,3.455,1.98,7.67,7.67,0,0,1,2.006,2.9,9.516,9.516,0,0,1,.647,3.494,9.8,9.8,0,0,1-.453,3.015,8.768,8.768,0,0,1-1.307,2.562,8.347,8.347,0,0,1-2.1,1.98,10.307,10.307,0,0,1-2.821,1.294l8.851,13.793h4.037V52h-9.7Zm-3.183-2.717h4.943a3.5,3.5,0,0,0,1.812-.5,5,5,0,0,0,1.5-1.4,7.113,7.113,0,0,0,1.022-2.135,9.459,9.459,0,0,0,.375-2.743,9.73,9.73,0,0,0-.349-2.691,7.091,7.091,0,0,0-.97-2.109,4.535,4.535,0,0,0-1.488-1.385,3.789,3.789,0,0,0-1.9-.492h-4.943Zm26.393,15.476a3.413,3.413,0,0,1,.97-2.523,3.481,3.481,0,0,1,2.575-.97,3.393,3.393,0,0,1,2.549.97,3.465,3.465,0,0,1,.945,2.523,4.083,4.083,0,0,1-.246,1.436,3.465,3.465,0,0,1-.7,1.152,3.112,3.112,0,0,1-1.1.763,4,4,0,0,1-2.9,0,3.243,3.243,0,0,1-1.113-.763,3.528,3.528,0,0,1-.725-1.152A3.9,3.9,0,0,1,180.878,49.127Z" transform="translate(-0.681 22.346)" fill="#363636"/>
</svg>
