<svg xmlns="http://www.w3.org/2000/svg" width="278.316" height="147.679" viewBox="0 0 278.316 147.679">
  <g id="txt01-02-sp" transform="translate(-222 -2190.911)">
    <path id="パス_733" data-name="パス 733" d="M1.944-12.384h20.52L12.492-22.392l1.044-.972L25.2-11.7,13.5,0,12.456-.972l9.972-9.972H1.944ZM44.964.432a11.121,11.121,0,0,1-4.122-.72A6.523,6.523,0,0,1,38.16-2.052V-6.3H40.1A7.157,7.157,0,0,0,41.724-2,4.514,4.514,0,0,0,45.036-.756a4.737,4.737,0,0,0,3.438-1.17,4.186,4.186,0,0,0,1.206-3.15,4.024,4.024,0,0,0-1.98-3.6l-6.408-4.14a7.692,7.692,0,0,1-2.286-2.124,5.121,5.121,0,0,1-.81-2.952,5.311,5.311,0,0,1,1.89-4.266,7.8,7.8,0,0,1,5.2-1.6,10.484,10.484,0,0,1,3.69.612A6.913,6.913,0,0,1,51.66-21.42v4.356H49.716A7.689,7.689,0,0,0,48.348-21.4a3.9,3.9,0,0,0-3.06-1.206,4.206,4.206,0,0,0-3.294,1.152,4.024,4.024,0,0,0-1.026,2.772,3.426,3.426,0,0,0,1.656,3.1l6.3,4.032A9.1,9.1,0,0,1,51.75-8.982a5.431,5.431,0,0,1,.85,3.006,6.143,6.143,0,0,1-.9,3.294A6.1,6.1,0,0,1,49.086-.4a9.386,9.386,0,0,1-4.122.832Zm21.168-23.76a7.378,7.378,0,0,1,5.292,1.692,5.812,5.812,0,0,1,1.764,4.392A6.276,6.276,0,0,1,72.342-14a6.02,6.02,0,0,1-2.448,2.286,7.946,7.946,0,0,1-3.762.846H61.6V-1.3h2.88V0H55.66V-1.3h2.88V-22.032H55.66v-1.3ZM65.7-12.24a3.682,3.682,0,0,0,2.934-1.386,5.308,5.308,0,0,0,1.17-3.546,5.3,5.3,0,0,0-1.116-3.546A3.721,3.721,0,0,0,65.7-22.032H61.6v9.792Zm27.828,5.9V0H75.708V-1.3h2.88V-22.032h-2.88v-1.3H93.24v6.264H91.872l-1.908-4.968H81.648V-13H87.3v-2.772h1.656V-8.86H87.3v-2.772H81.648V-1.3h8.6l1.908-5.04ZM107.172.432A9.5,9.5,0,0,1,101.286-1.3a9.7,9.7,0,0,1-3.294-4.41,15.881,15.881,0,0,1-1.008-5.634A17.054,17.054,0,0,1,98.028-17.3a10.37,10.37,0,0,1,3.348-4.644,9.126,9.126,0,0,1,5.832-1.818,10.966,10.966,0,0,1,4.05.666,12.075,12.075,0,0,1,3.006,1.71v4.32h-2.052a6.4,6.4,0,0,0-1.728-4.212,5,5,0,0,0-3.528-1.332,5.66,5.66,0,0,0-5.094,2.574,11.982,11.982,0,0,0-1.674,6.642,22,22,0,0,0,.774,5.94,10.773,10.773,0,0,0,2.394,4.518,5.275,5.275,0,0,0,4.032,1.746,6.306,6.306,0,0,0,3.888-1.332,6.264,6.264,0,0,0,2.3-3.852h1.368a8.188,8.188,0,0,1-1.44,3.492,8.037,8.037,0,0,1-2.772,2.43,7.467,7.467,0,0,1-3.56.884ZM127.512-1.3V0H117.4V-1.3h3.528V-22.032H117.54v-1.3h9.828v1.3h-3.384V-1.3Zm24.732,0V0h-8.352V-1.3h2.628l-2.592-7.3h-7.74L133.6-1.3h2.628V0H129.5V-1.3h2.556L140-23.328h1.7L149.688-1.3Zm-8.82-8.676L140.112-19.3h-.144l-3.312,9.324ZM154.26-1.3h2.88V-22.032h-2.88v-1.3h8.928v1.3H160.2V-1.3h8.424l1.908-5.04H171.9V0H154.26Zm39.708-22.032a7.378,7.378,0,0,1,5.292,1.692,5.812,5.812,0,0,1,1.764,4.392,6.276,6.276,0,0,1-.846,3.24,6.02,6.02,0,0,1-2.448,2.286,7.945,7.945,0,0,1-3.762.846h-4.536V-1.3h2.88V0h-8.82V-1.3h2.88V-22.032h-2.88v-1.3Zm-.432,11.088a3.682,3.682,0,0,0,2.934-1.386,5.308,5.308,0,0,0,1.17-3.546,5.3,5.3,0,0,0-1.116-3.546,3.721,3.721,0,0,0-2.988-1.314h-4.1v9.792ZM225.18-1.3V0h-5.508l-6.84-10.764h-3.348V-1.3h2.844V0h-8.784V-1.3h2.88V-22.032h-2.88v-1.3H214.02a7.233,7.233,0,0,1,5.292,1.746,5.99,5.99,0,0,1,1.764,4.446,6.156,6.156,0,0,1-1.332,4.014,6.234,6.234,0,0,1-3.636,2.142l6.48,9.684Zm-15.7-10.836h4.14a3.682,3.682,0,0,0,2.934-1.386,5.308,5.308,0,0,0,1.17-3.546,5.458,5.458,0,0,0-1.134-3.6,3.672,3.672,0,0,0-2.97-1.368h-4.14ZM237.1-1.3V0H226.98V-1.3h3.528V-22.032h-3.384v-1.3h9.828v1.3h-3.384V-1.3ZM250.272.432A9.5,9.5,0,0,1,244.386-1.3a9.7,9.7,0,0,1-3.294-4.41,15.881,15.881,0,0,1-1.008-5.634,17.054,17.054,0,0,1,1.044-5.958,10.37,10.37,0,0,1,3.348-4.644,9.126,9.126,0,0,1,5.832-1.818,10.966,10.966,0,0,1,4.05.666,12.074,12.074,0,0,1,3.006,1.71v4.32h-2.052a6.4,6.4,0,0,0-1.728-4.212,5,5,0,0,0-3.528-1.332,5.66,5.66,0,0,0-5.094,2.574,11.982,11.982,0,0,0-1.674,6.642,22,22,0,0,0,.774,5.94,10.773,10.773,0,0,0,2.394,4.518,5.275,5.275,0,0,0,4.032,1.746,6.306,6.306,0,0,0,3.888-1.332,6.264,6.264,0,0,0,2.3-3.852h1.368a8.188,8.188,0,0,1-1.44,3.492,8.037,8.037,0,0,1-2.772,2.43,7.467,7.467,0,0,1-3.56.886Zm28.044-6.768V0H260.5V-1.3h2.88V-22.032H260.5v-1.3h17.532v6.264H276.66l-1.908-4.968h-8.316V-13h5.652v-2.772h1.656V-8.86h-1.656v-2.772h-5.652V-1.3h8.6l1.908-5.04Z" transform="translate(222 2338.15)" fill="#641b77"/>
    <g id="Price" transform="translate(0 -19.474)">
      <path id="パス_732" data-name="パス 732" d="M19.418-23.256,15.2-15.162h4.18v1.444h-4.9l-1.33,2.546v.38h6.23v1.444H13.148v7.98h3.344V0H6.574V-1.368H9.918v-7.98H3.686v-1.444H9.614L8.17-13.718H3.686v-1.444H7.448L3.42-23.256H.38v-1.368h9.652v1.368H6.992l5.244,10.678,5.472-10.678h-3.04v-1.368h7.79v1.368ZM41.8-5.586H37.62V0h-3V-5.586H23.978V-7.068l9.728-17.556H37.62V-8.17H41.8ZM34.618-8.17v-14.4h-.494L26.372-8.17ZM46.74-3.876a2.2,2.2,0,0,1,1.691.779,3.147,3.147,0,0,1,.7,2.185,5.713,5.713,0,0,1-1.064,3.42,7.413,7.413,0,0,1-2.888,2.356l-.57-.912a5.541,5.541,0,0,0,1.729-1.425,2.962,2.962,0,0,0,.82-1.881A1.153,1.153,0,0,0,47.12.3a2.36,2.36,0,0,1-.456.038,2,2,0,0,1-1.539-.589,2.11,2.11,0,0,1-.551-1.5,2.03,2.03,0,0,1,.627-1.52,2.126,2.126,0,0,1,1.539-.6Zm23.18-1.71H65.74V0h-3V-5.586H52.1V-7.068l9.728-17.556H65.74V-8.17h4.18ZM62.738-8.17v-14.4h-.494L54.492-8.17ZM89.224-24.624v1.33L78.622,0H76.836L86.868-21.7H76.228L74.9-18.012H73.57v-6.612ZM106.4-1.368V0H95.76V-1.368h3.914V-21.622L95.912-19.19l-.8-1.216,6.27-4.218h1.292V-1.368Zm8.284-2.508a2.2,2.2,0,0,1,1.691.779,3.147,3.147,0,0,1,.7,2.185,5.713,5.713,0,0,1-1.064,3.42,7.413,7.413,0,0,1-2.888,2.356l-.57-.912a5.541,5.541,0,0,0,1.729-1.425A2.962,2.962,0,0,0,115.1.646,1.153,1.153,0,0,0,115.064.3a2.36,2.36,0,0,1-.456.038,2,2,0,0,1-1.539-.589,2.11,2.11,0,0,1-.551-1.5,2.03,2.03,0,0,1,.627-1.52,2.126,2.126,0,0,1,1.539-.6ZM128.82.418a7.049,7.049,0,0,1-4.56-1.6,10.2,10.2,0,0,1-3.059-4.5,19.03,19.03,0,0,1-1.083-6.669A18.871,18.871,0,0,1,121.2-19a10.133,10.133,0,0,1,3.078-4.484,7.125,7.125,0,0,1,4.579-1.6,7.179,7.179,0,0,1,4.579,1.577,10,10,0,0,1,3.078,4.465,18.871,18.871,0,0,1,1.083,6.65,18.733,18.733,0,0,1-1.1,6.669A10.4,10.4,0,0,1,133.4-1.2,7.072,7.072,0,0,1,128.82.418ZM128.858-.8q2.584,0,3.952-2.964t1.368-8.588a21.068,21.068,0,0,0-1.368-8.55q-1.368-2.964-3.952-2.964T124.906-20.9a21.069,21.069,0,0,0-1.368,8.55q0,5.624,1.368,8.588T128.858-.8ZM148.732.418a7.049,7.049,0,0,1-4.56-1.6,10.2,10.2,0,0,1-3.059-4.5,19.03,19.03,0,0,1-1.083-6.669A18.871,18.871,0,0,1,141.113-19a10.133,10.133,0,0,1,3.078-4.484,7.125,7.125,0,0,1,4.579-1.6,7.179,7.179,0,0,1,4.579,1.577,10,10,0,0,1,3.078,4.465,18.871,18.871,0,0,1,1.083,6.65,18.733,18.733,0,0,1-1.1,6.669,10.4,10.4,0,0,1-3.1,4.522A7.072,7.072,0,0,1,148.732.418ZM148.77-.8q2.584,0,3.952-2.964t1.368-8.588a21.068,21.068,0,0,0-1.368-8.55q-1.368-2.964-3.952-2.964T144.818-20.9a21.068,21.068,0,0,0-1.368,8.55q0,5.624,1.368,8.588T148.77-.8ZM168.644.418a7.049,7.049,0,0,1-4.56-1.6,10.2,10.2,0,0,1-3.059-4.5,19.03,19.03,0,0,1-1.083-6.669A18.871,18.871,0,0,1,161.025-19a10.133,10.133,0,0,1,3.078-4.484,7.125,7.125,0,0,1,4.579-1.6,7.179,7.179,0,0,1,4.579,1.577,10,10,0,0,1,3.078,4.465,18.871,18.871,0,0,1,1.083,6.65,18.733,18.733,0,0,1-1.1,6.669,10.4,10.4,0,0,1-3.1,4.522A7.072,7.072,0,0,1,168.644.418ZM168.682-.8q2.584,0,3.952-2.964T174-12.35a21.068,21.068,0,0,0-1.368-8.55q-1.368-2.964-3.952-2.964T164.73-20.9a21.068,21.068,0,0,0-1.368,8.55q0,5.624,1.368,8.588T168.682-.8Z" transform="translate(301.046 2319)" fill="#fff"/>
      <path id="パス_731" data-name="パス 731" d="M4.367-6.71a9.206,9.206,0,0,1-.55.979h-2.8L.583-5.819V-5.2l.429-.088h2.5A10.13,10.13,0,0,1,.44-2.75l.143.3a8.846,8.846,0,0,0,3.96-2.838H6.369A6.83,6.83,0,0,0,10.021-2.2a4.111,4.111,0,0,1,.539-.957A7.045,7.045,0,0,1,6.809-5.291H9.977l.44.088v-.616l-.44.088H4.84a7.959,7.959,0,0,0,.572-1.056c.407-.033.781-.066.9-.077.462-.033.77-.066.9-.077.088-.011.286-.033.583-.066.077-.011.319-.044.583-.077a7.743,7.743,0,0,1,.946.957l.858-.693A10.888,10.888,0,0,0,6.864-8.613l-.242.253c.715.484,1.034.7,1.353.946-.913.033-2.035.055-3.784.066l-.473.011A7,7,0,0,0,4.884-8.558c.275-.055.385-.121.385-.242,0-.1-.088-.176-.242-.209L4.059-9.24a9.8,9.8,0,0,1-.913,1.9c-.594.011-.726.011-.957.011-.308,0-.737-.011-1.309-.022l.286.8c.066.165.132.242.231.242s.187-.077.286-.264c.462-.022.869-.033,1.012-.044.286-.022.561-.033.836-.055ZM.968.88C4.73.7,6.919.165,9.317-1.155a2.366,2.366,0,0,0,.253.022c.143,0,.253-.077.253-.176,0-.055-.033-.1-.11-.154L8.9-2.024A16.509,16.509,0,0,1,.924.517Zm.22-2.343a11.243,11.243,0,0,0,4.7-2.266h.143c.165,0,.275-.066.275-.154q0-.066-.1-.132L5.48-4.532A11.648,11.648,0,0,1,1.111-1.771ZM1.573-.319a13.677,13.677,0,0,0,5.8-2.09,1.4,1.4,0,0,0,.209.011c.143,0,.264-.066.264-.165a.192.192,0,0,0-.1-.143l-.737-.539A13.357,13.357,0,0,1,1.474-.671Zm14.388-5.72V-7.5h2.057l.44.088V-8.03l-.44.088H15.961v-.924c.143-.11.176-.154.176-.22,0-.11-.077-.154-.231-.154h-.858v1.3H12.716l-.429-.088v.616l.429-.088h2.332v1.463h-3.1l-.44-.088v.616l.44-.088h4.521l-.033.022A19.48,19.48,0,0,1,14.764-4.42l-.024.02-.64-.1-.11.55a28.223,28.223,0,0,1-2.55,1.31l.121.286a17.607,17.607,0,0,0,2.3-.924c-.154.726-.319,1.4-.55,2.233h.99c.055-.209.121-.528.209-.946h4.95C19.206.176,19.107.352,18.26.363H17.039V.825H18.7c1.309-.011,1.419-.231,1.749-3.256H14.6l.022-.143.033-.132c.011-.044.033-.187.077-.385.011-.1.033-.22.066-.385l.693-.033A29.919,29.919,0,0,0,19.9-3.927a1.379,1.379,0,0,0,.341.044c.11,0,.2-.066.2-.143,0-.044-.022-.088-.143-.2l-.6-.55a22.106,22.106,0,0,1-4.246.847l-.22.033L15-3.874A22.371,22.371,0,0,0,17.611-5.6h3.443l.44.088v-.616l-.44.088H18.161A18.456,18.456,0,0,0,20.3-8.107c.352-.033.473-.1.473-.22,0-.077-.055-.143-.2-.209l-.715-.4a16.9,16.9,0,0,1-2.827,2.893Zm11.649-.1H25.729v6.9h.814v-.7H31.2V.682h.847v-6.82H30.118V-8.283h2l.44.088v-.616l-.44.088h-6.18l-.429-.088v.616l.429-.088H27.61Zm.759-2.145h.99v2.145h-.99Zm0,2.585h.99V-.385h-.99ZM27.61-.385H26.543V-5.7H27.61ZM30.118-5.7H31.2V-.385H30.118ZM24.574-6.787c.231-.649.33-.957.583-1.771.176-.033.264-.11.264-.22,0-.088-.077-.154-.187-.187L24.31-9.24a26.072,26.072,0,0,1-1.87,5.973l.231.176a11.922,11.922,0,0,0,1.045-1.694v5.6h.858ZM36.685-2.541a10.587,10.587,0,0,0,3.564-2.09A10.625,10.625,0,0,0,43.142-2.8a3.644,3.644,0,0,1,.418-.858,11.384,11.384,0,0,1-2.794-1.485A11.368,11.368,0,0,0,42.8-8.063H39.226l.011-.033c.121-.231.132-.253.275-.561.209-.077.3-.143.3-.22a.206.206,0,0,0-.11-.154l-.935-.209a10.231,10.231,0,0,1-.792,2.013A10.169,10.169,0,0,1,36.93-5.544l.22.209a7.473,7.473,0,0,0,1.57-1.837,4.992,4.992,0,0,0,1.012,2,12.072,12.072,0,0,1-3.157,2.354ZM39-7.623h2.64a13.333,13.333,0,0,1-1.463,1.991,4.141,4.141,0,0,1-1.221-1.925ZM35.1.814h.847V-5.027a7.417,7.417,0,0,1,.781,1.672l.682-.594a3.89,3.89,0,0,0-1.463-1.4V-6.49h.8l.44.088v-.616l-.44.088h-.8V-8.811c.132-.1.176-.143.176-.22,0-.1-.077-.143-.231-.143H35.1V-6.93H33.946l-.44-.088V-6.4l.44-.088H35a18.4,18.4,0,0,1-1.56,4.629l.242.165A10.825,10.825,0,0,0,35.1-4.29ZM42.515.748v-3.7H37.906V.814h.869V.286h2.86V.748Zm-3.74-.9V-2.508h2.86V-.154ZM49.247-8.393A9.6,9.6,0,0,0,47.674-3.2a9.6,9.6,0,0,0,1.573,5.192h.6A12.494,12.494,0,0,1,49.071.2a10.785,10.785,0,0,1-.539-3.4,10.785,10.785,0,0,1,.539-3.4,12.494,12.494,0,0,1,.781-1.793ZM52.415.814h.814v-5.1a12.619,12.619,0,0,1,.825,1.9l.737-.649a6.87,6.87,0,0,0-1.562-1.606v-1.21h.913l.429.088V-6.38l-.429.088h-.913V-8.239c.286-.066.33-.077.748-.2a1.412,1.412,0,0,0,.275.044c.143,0,.242-.066.242-.165,0-.066-.022-.1-.11-.176l-.572-.506a13.145,13.145,0,0,1-3.036,1l.033.3a13.165,13.165,0,0,0,1.606-.143v1.793h-1.2l-.44-.088v.616l.44-.088H52.3A18.955,18.955,0,0,1,50.7-1.32l.22.187A9.318,9.318,0,0,0,52.415-3.74ZM54.989-6.82V-3.3h1.144v.033C56.045-1.155,55.4-.033,53.878.583l.143.3C56.034.418,56.969-.88,57.013-3.3h.858V-.1c.033.407.352.638.88.638h1.133c.55,0,.781-.209.825-.77l.121-1.342-.462-.055L60.291-.616c-.033.264-.121.341-.363.352h-.869c-.253-.011-.308-.066-.319-.3V-3.3h1.441V-6.82H58.5a7.537,7.537,0,0,0,1.166-1.749c.22-.022.341-.1.341-.209a.22.22,0,0,0-.176-.2L58.817-9.24a18.659,18.659,0,0,1-.726,2.42Zm.869,3.08V-6.38H59.3v2.64Zm-.682-5.247a8.362,8.362,0,0,1,.979,2.013l.9-.484a4.92,4.92,0,0,0-1.606-1.716ZM63.844-.7A3.007,3.007,0,0,0,66.55.506c.572.033,1.958.066,3.036.066.462,0,1.1-.011,1.969-.022a7.072,7.072,0,0,1,.264-.869c-.715.044-2.53.088-3.894.088A9.317,9.317,0,0,1,64.9-.484a1.944,1.944,0,0,1-.748-.506V-5.06H62.216l-.44-.088v.616l.44-.088h1.056V-.946a12.041,12.041,0,0,1-1.562.594l.352.957a.19.19,0,0,0,.154.121c.11,0,.2-.121.253-.363A10.966,10.966,0,0,0,63.811-.682Zm2.574-8.118-.44-.088v.638l.44-.088h1.793c.011.3.011.429.022.572A9.912,9.912,0,0,1,64.691-1.4l.143.264a7.159,7.159,0,0,0,3.674-4.5,7.153,7.153,0,0,0,2.717,4.389c.275-.473.319-.539.594-.979a6.389,6.389,0,0,1-2.53-3.036,9.384,9.384,0,0,1-.572-3.553Zm-1.859.759a5.049,5.049,0,0,0-2.2-.814l-.132.275a7.705,7.705,0,0,1,1.727,1.529Zm8.129-.33A13.05,13.05,0,0,1,73.469-6.6a10.835,10.835,0,0,1,.539,3.4A10.784,10.784,0,0,1,73.469.2a12.493,12.493,0,0,1-.781,1.793h.605A9.628,9.628,0,0,0,74.866-3.2a9.628,9.628,0,0,0-1.573-5.192Z" transform="translate(221.56 2318)" fill="#fff"/>
    </g>
    <path id="パス_730" data-name="パス 730" d="M1.962-8.262,1.17-8.424v1.152l.792-.162H8.73C8.568-5.166,8.154-3.8,7.308-2.772A10.76,10.76,0,0,1,2.5.378L2.646.9a11.174,11.174,0,0,0,5.8-2.79c1.2-1.21,1.778-2.826,1.954-5.544h5.634l.792.162V-8.424l-.792.162h-5.58c.036-.954.054-1.764.054-2.322V-12.2c.972-.09,1.872-.234,3.78-.576a2.679,2.679,0,0,0,.522.09.375.375,0,0,0,.378-.342.781.781,0,0,0-.27-.522l-.936-.882-.846.36A61.982,61.982,0,0,1,2.25-12.4l.036.558c1.4.036,1.62.036,2.178.036,1.386,0,1.944-.036,4.32-.216h.054v1.44c0,.522-.018,1.35-.054,2.322ZM24.354,1.1A11.305,11.305,0,0,0,29.286-.864c2.322-1.764,2.916-3.438,2.9-8.1v-4.68c.27-.18.36-.306.36-.468a.324.324,0,0,0-.107-.224.324.324,0,0,0-.235-.082l-1.854-.126.162,1.08v4.608c-.018,3.924-.414,5.31-2.034,6.948A10.434,10.434,0,0,1,24.228.558ZM21.816-13.194v8.748H23.49v-8.91c.27-.2.36-.324.36-.468a.324.324,0,0,0-.107-.224.324.324,0,0,0-.235-.082l-1.854-.144Zm23.2,4.41a1.955,1.955,0,0,0-1.395.56,1.955,1.955,0,0,0-.585,1.384,1.955,1.955,0,0,0,.573,1.39A1.955,1.955,0,0,0,45-4.878,1.963,1.963,0,0,0,46.944-6.84a1.968,1.968,0,0,0-1.926-1.944ZM58.122.342a17.4,17.4,0,0,0,7.812-2.988A13.068,13.068,0,0,0,70.866-9.27l-.5-.252a15.632,15.632,0,0,1-10.584,7.83V-13.086c.252-.18.36-.306.36-.45a.339.339,0,0,0-.342-.324l-1.836-.126.162,1.08Zm20.07.72A9.547,9.547,0,0,0,83.88-2.106a13.983,13.983,0,0,0,2.7-6.336c.288-.072.4-.18.4-.342,0-.108-.09-.216-.27-.27l-1.692-.54-.036.954a17.342,17.342,0,0,1-1.89,5.184,9.5,9.5,0,0,1-5.076,4Zm.4-6.426a6.741,6.741,0,0,0-2.97-4l-.306.234a12.09,12.09,0,0,1,1.854,4.3Zm3.564-.45a7.122,7.122,0,0,0-2.844-4l-.324.252a12.169,12.169,0,0,1,1.728,4.3Zm15.282-7.9c.234-.126.36-.27.36-.432s-.144-.288-.36-.306l-1.8-.126.126,1.08V.864h1.674V-8.694A18.035,18.035,0,0,1,104.2-4.032l1.224-1.638a19.192,19.192,0,0,0-7.992-3.672Zm9.108.324a3.555,3.555,0,0,0-2.088-1.908l-.306.252a6.687,6.687,0,0,1,1.17,2.268Zm-4.482-1.422a7.389,7.389,0,0,1,1.008,2.376L104.31-13a3.693,3.693,0,0,0-1.908-2.052ZM112.68-.072h1.82V-13.608h-1.82Zm6.822,0h1.818V-13.608H119.5Z" transform="translate(222 2258.348)" fill="#fff"/>
    <path id="パス_729" data-name="パス 729" d="M3.48-.864H5.592V-14.688H2.616L1.368-11.376H.48v-4.176H12.7v4.176h-.888l-1.2-3.312H7.632V-.864H9.744V0H3.48ZM27.048-14.688V-.864h1.92V0H23.136V-.864h1.872V-7.752h-7.08V-.864H19.8V0H13.968V-.864h1.92V-14.688h-1.92v-.864H19.8v.864H17.928v6.024h7.08v-6.024H23.136v-.864h5.832v.864ZM42.432-4.224V0H30.552V-.864h1.92V-14.688h-1.92v-.864H42.24v4.176h-.912l-1.272-3.312H34.512v6.024H38.28v-1.848h1.1V-5.9h-1.1V-7.752H34.512V-.864h5.736l1.272-3.36Zm7.536,3.36h1.92V-14.688h-1.92v-.864H53.88L61.1-3.888v-10.8H59.18v-.864h4.872v.864h-1.92V0h-1.1L52.92-13.224V-.864h1.92V0H49.968ZM77.28-4.224V0H65.4V-.864h1.92V-14.688H65.4v-.864H77.088v4.176h-.912L74.9-14.688H69.36v6.024h3.768v-1.848h1.1V-5.9h-1.1V-7.752H69.36V-.864H75.1l1.272-3.36Zm23.88-10.464H99.384L95.232,0h-1.1l-4.3-12.144L85.92,0h-1.1l-4.4-14.688h-1.9v-.864h6v.864H82.6L85.9-3.24l3.912-12.216H90.82L95.208-3.312l3.144-11.376h-1.9v-.864h4.7ZM108.216-.864h1.92V-14.688h-1.92v-.864h4.1L117.6-3.528l5.088-12.024H126.7v.864h-1.92V-.864h1.92V0h-5.88V-.864h1.92v-12.12L117.6-.888h-1.1L111.168-13.08V-.864h1.848V0h-4.8Zm26.808,0V0H128.28V-.864h2.352V-14.688h-2.256v-.864h6.552v.864h-2.256V-.864Zm1.584,0h1.92V-14.688h-1.92v-.864h3.912l7.224,11.664v-10.8h-1.92v-.864H150.7v.864h-1.92V0h-1.1l-8.12-13.224V-.864h1.92V0h-4.872Zm22.176,0V0H152.04V-.864h2.352V-14.688h-2.256v-.864h6.552v.864h-2.256V-.864ZM173.16.288a6.33,6.33,0,0,1-3.924-1.152,6.466,6.466,0,0,1-2.2-2.94,10.588,10.588,0,0,1-.672-3.756,11.369,11.369,0,0,1,.7-3.972,6.913,6.913,0,0,1,2.232-3.1,6.084,6.084,0,0,1,3.888-1.212,7.31,7.31,0,0,1,2.7.444,8.05,8.05,0,0,1,2,1.14v2.88H176.52a4.27,4.27,0,0,0-1.152-2.808,3.336,3.336,0,0,0-2.352-.888,3.773,3.773,0,0,0-3.4,1.716A7.988,7.988,0,0,0,168.5-8.928a14.67,14.67,0,0,0,.516,3.96,7.182,7.182,0,0,0,1.6,3.012A3.517,3.517,0,0,0,173.3-.792a4.2,4.2,0,0,0,2.6-.888,4.176,4.176,0,0,0,1.536-2.568h.912a5.458,5.458,0,0,1-.96,2.328A5.358,5.358,0,0,1,175.536-.3a4.978,4.978,0,0,1-2.376.588Zm13.464,0a6.1,6.1,0,0,1-3.756-1.1A6.307,6.307,0,0,1,180.72-3.68a10.528,10.528,0,0,1-.672-3.78,11.612,11.612,0,0,1,.684-3.948,7.054,7.054,0,0,1,2.244-3.168,6.139,6.139,0,0,1,3.984-1.26,6.207,6.207,0,0,1,3.78,1.1,6.487,6.487,0,0,1,2.208,2.868,9.989,9.989,0,0,1,.708,3.756,11.123,11.123,0,0,1-.72,3.935,7.349,7.349,0,0,1-2.292,3.193,6.187,6.187,0,0,1-4.02,1.272ZM187.2-.5a3.531,3.531,0,0,0,3.216-1.764A8.968,8.968,0,0,0,191.5-6.98a14.261,14.261,0,0,0-.516-3.876,6.994,6.994,0,0,0-1.644-3.012,3.846,3.846,0,0,0-2.9-1.176,3.447,3.447,0,0,0-3.2,1.74,8.658,8.658,0,0,0-1.02,4.428,13.365,13.365,0,0,0,1.2,5.928A3.973,3.973,0,0,0,187.2-.5Zm15.048.792a6.1,6.1,0,0,1-3.756-1.1,6.307,6.307,0,0,1-2.148-2.868,10.528,10.528,0,0,1-.672-3.78,11.612,11.612,0,0,1,.684-3.948A7.054,7.054,0,0,1,198.6-14.58a6.139,6.139,0,0,1,3.984-1.26,6.207,6.207,0,0,1,3.78,1.1,6.487,6.487,0,0,1,2.208,2.868,9.989,9.989,0,0,1,.708,3.756,11.123,11.123,0,0,1-.72,3.935,7.349,7.349,0,0,1-2.292,3.193,6.187,6.187,0,0,1-4.02,1.276Zm.576-.792a3.531,3.531,0,0,0,3.216-1.764,8.968,8.968,0,0,0,1.08-4.716,14.261,14.261,0,0,0-.516-3.876,6.994,6.994,0,0,0-1.644-3.012,3.846,3.846,0,0,0-2.9-1.176,3.447,3.447,0,0,0-3.2,1.74,8.658,8.658,0,0,0-1.02,4.428,13.365,13.365,0,0,0,1.2,5.928A3.973,3.973,0,0,0,202.824-.5Zm15.1-15.048a4.919,4.919,0,0,1,3.528,1.128,3.875,3.875,0,0,1,1.176,2.928,4.184,4.184,0,0,1-.564,2.16,4.013,4.013,0,0,1-1.632,1.524,5.3,5.3,0,0,1-2.508.564H214.9v6.38h1.92V0h-5.88V-.864h1.92V-14.688h-1.92v-.864Zm-.288,7.392a2.455,2.455,0,0,0,1.956-.924,3.539,3.539,0,0,0,.78-2.364,3.532,3.532,0,0,0-.744-2.364,2.481,2.481,0,0,0-1.992-.876H214.9V-8.16ZM235.9-4.224V0H224.02V-.864h1.92V-14.688h-1.92v-.864H235.7v4.176h-.912l-1.272-3.312h-5.544v6.024h3.768v-1.848h1.1V-5.9h-1.1V-7.752h-3.768V-.864h5.736l1.272-3.36Zm16.08,3.36V0H248.3l-4.56-7.176h-2.232V-.864h1.9V0h-5.856V-.864h1.92V-14.688h-1.92v-.864h6.984a4.822,4.822,0,0,1,3.528,1.164,3.993,3.993,0,0,1,1.176,2.964,4.1,4.1,0,0,1-.888,2.676,4.156,4.156,0,0,1-2.424,1.428l4.32,6.456ZM241.512-8.088h2.76a2.455,2.455,0,0,0,1.956-.924,3.539,3.539,0,0,0,.78-2.364,3.639,3.639,0,0,0-.756-2.4,2.448,2.448,0,0,0-1.98-.912h-2.76ZM265.68.288a6.33,6.33,0,0,1-3.924-1.152,6.466,6.466,0,0,1-2.2-2.94,10.588,10.588,0,0,1-.672-3.756,11.369,11.369,0,0,1,.7-3.972,6.913,6.913,0,0,1,2.232-3.1A6.084,6.084,0,0,1,265.7-15.84a7.31,7.31,0,0,1,2.7.444,8.051,8.051,0,0,1,2,1.14v2.88h-1.36a4.27,4.27,0,0,0-1.152-2.808,3.336,3.336,0,0,0-2.352-.888,3.773,3.773,0,0,0-3.4,1.716,7.988,7.988,0,0,0-1.116,4.428,14.67,14.67,0,0,0,.516,3.96,7.182,7.182,0,0,0,1.6,3.012,3.517,3.517,0,0,0,2.688,1.164,4.2,4.2,0,0,0,2.592-.888,4.176,4.176,0,0,0,1.536-2.568h.912a5.458,5.458,0,0,1-.96,2.328A5.358,5.358,0,0,1,268.056-.3a4.978,4.978,0,0,1-2.376.588Zm8.256-.024a1.389,1.389,0,0,1-1.02-.42,1.389,1.389,0,0,1-.42-1.02,1.389,1.389,0,0,1,.42-1.02,1.389,1.389,0,0,1,1.02-.42,1.389,1.389,0,0,1,1.02.42,1.389,1.389,0,0,1,.42,1.02,1.389,1.389,0,0,1-.42,1.02,1.389,1.389,0,0,1-1.02.42ZM7.7,26.288a6.33,6.33,0,0,1-3.92-1.152,6.466,6.466,0,0,1-2.2-2.94A10.587,10.587,0,0,1,.912,18.44a11.37,11.37,0,0,1,.7-3.972,6.913,6.913,0,0,1,2.232-3.1A6.084,6.084,0,0,1,7.728,10.16a7.31,7.31,0,0,1,2.7.444,8.05,8.05,0,0,1,2,1.14v2.88H11.064a4.27,4.27,0,0,0-1.152-2.808,3.336,3.336,0,0,0-2.352-.888,3.773,3.773,0,0,0-3.4,1.716,7.988,7.988,0,0,0-1.116,4.428,14.67,14.67,0,0,0,.516,3.96,7.182,7.182,0,0,0,1.6,3.012,3.517,3.517,0,0,0,2.688,1.164,4.17,4.17,0,0,0,4.128-3.456h.912a5.458,5.458,0,0,1-.96,2.328A5.358,5.358,0,0,1,10.08,25.7a4.978,4.978,0,0,1-2.38.588Zm6.528-1.152h1.92V11.312h-1.92v-.864H20.18v.864H18.192V25.136h5.616l1.272-3.36h.912V26H14.232Zm27.888,0V26H36.552v-.864H38.3l-1.728-4.872h-5.16l-1.728,4.872H31.44V26H26.952v-.864h1.7l5.3-14.688H35.08l5.328,14.688Zm-5.88-5.784-2.208-6.216h-.1L31.72,19.352ZM47.9,26.288a7.414,7.414,0,0,1-2.748-.48,4.348,4.348,0,0,1-1.788-1.176V21.8h1.3a4.771,4.771,0,0,0,1.08,2.868,3.009,3.009,0,0,0,2.208.828,3.158,3.158,0,0,0,2.292-.78,2.791,2.791,0,0,0,.8-2.1,2.683,2.683,0,0,0-1.32-2.4l-4.272-2.76a5.128,5.128,0,0,1-1.524-1.416,3.414,3.414,0,0,1-.54-1.968,3.541,3.541,0,0,1,1.26-2.844A5.2,5.2,0,0,1,48.12,10.16a6.989,6.989,0,0,1,2.46.408,4.609,4.609,0,0,1,1.788,1.152v2.9h-1.3a5.126,5.126,0,0,0-.912-2.892,2.6,2.6,0,0,0-2.04-.8,2.8,2.8,0,0,0-2.2.768,2.683,2.683,0,0,0-.684,1.848,2.284,2.284,0,0,0,1.1,2.064l4.2,2.688a6.063,6.063,0,0,1,1.884,1.716,3.621,3.621,0,0,1,.564,2,3.981,3.981,0,0,1-2.34,3.72,6.258,6.258,0,0,1-2.74.556Zm11.592,0a7.414,7.414,0,0,1-2.748-.48,4.348,4.348,0,0,1-1.788-1.176V21.8h1.3a4.771,4.771,0,0,0,1.08,2.868,3.009,3.009,0,0,0,2.208.828,3.158,3.158,0,0,0,2.292-.78,2.791,2.791,0,0,0,.8-2.1,2.683,2.683,0,0,0-1.32-2.4l-4.272-2.76A5.128,5.128,0,0,1,55.52,16.04a3.414,3.414,0,0,1-.54-1.968,3.541,3.541,0,0,1,1.26-2.844,5.2,5.2,0,0,1,3.468-1.068,6.989,6.989,0,0,1,2.46.408A4.609,4.609,0,0,1,63.96,11.72v2.9h-1.3a5.126,5.126,0,0,0-.912-2.892,2.6,2.6,0,0,0-2.04-.8,2.8,2.8,0,0,0-2.2.768,2.683,2.683,0,0,0-.684,1.848,2.284,2.284,0,0,0,1.1,2.064l4.2,2.688a6.063,6.063,0,0,1,1.884,1.716,3.621,3.621,0,0,1,.564,2,3.981,3.981,0,0,1-2.34,3.72,6.258,6.258,0,0,1-2.732.556ZM73.08,25.136V26H66.336v-.864h2.352V11.312H66.432v-.864h6.552v.864H70.728V25.136Zm8.5,1.152a6.33,6.33,0,0,1-3.924-1.152,6.466,6.466,0,0,1-2.2-2.94,10.587,10.587,0,0,1-.672-3.756,11.37,11.37,0,0,1,.7-3.972,6.913,6.913,0,0,1,2.232-3.1A6.084,6.084,0,0,1,81.6,10.16a7.31,7.31,0,0,1,2.7.444,8.05,8.05,0,0,1,2,1.14v2.88H84.936a4.27,4.27,0,0,0-1.152-2.808,3.336,3.336,0,0,0-2.352-.888,3.773,3.773,0,0,0-3.4,1.716,7.988,7.988,0,0,0-1.116,4.428,14.67,14.67,0,0,0,.516,3.96,7.182,7.182,0,0,0,1.6,3.012,3.517,3.517,0,0,0,2.688,1.164,4.17,4.17,0,0,0,4.128-3.456h.912a5.458,5.458,0,0,1-.96,2.328,5.358,5.358,0,0,1-1.848,1.62,4.978,4.978,0,0,1-2.376.588Zm15.1-1.152h2.112V11.312H95.808L94.56,14.624h-.888V10.448h12.216v4.176H105l-1.2-3.312h-2.976V25.136h2.112V26H96.672Zm24.912,0V26H117.92l-4.56-7.176h-2.24v6.312h1.9V26h-5.86v-.864h1.92V11.312h-1.92v-.864h6.984a4.822,4.822,0,0,1,3.528,1.164,3.993,3.993,0,0,1,1.176,2.964,4.1,4.1,0,0,1-.888,2.676,4.156,4.156,0,0,1-2.424,1.428l4.32,6.456ZM111.12,17.912h2.76a2.455,2.455,0,0,0,1.956-.924,3.539,3.539,0,0,0,.78-2.364,3.639,3.639,0,0,0-.756-2.4,2.448,2.448,0,0,0-1.98-.912h-2.76Zm18.12,7.224V26H122.5v-.864h2.352V11.312H122.6v-.864h6.552v.864h-2.256V25.136Zm1.584,0h1.92V11.312h-1.92v-.864h4.1l5.28,12.024,5.1-12.024h4v.864h-1.92V25.136h1.92V26h-5.88v-.864h1.92V13.016l-5.136,12.1h-1.1l-5.328-12.2V25.136h1.848V26h-4.8Z" transform="translate(222 2206.76)" fill="#fff"/>
  </g>
</svg>
