<svg xmlns="http://www.w3.org/2000/svg" width="278.316" height="147.014" viewBox="0 0 278.316 147.014">
  <g id="txt" transform="translate(-222 -2190.92)">
    <path id="パス_743" data-name="パス 743" d="M1.944-12.384h20.52L12.492-22.392l1.044-.972L25.2-11.7,13.5,0,12.456-.972l9.972-9.972H1.944ZM44.964.432a11.121,11.121,0,0,1-4.122-.72A6.523,6.523,0,0,1,38.16-2.052V-6.3H40.1A7.157,7.157,0,0,0,41.724-2,4.514,4.514,0,0,0,45.036-.756a4.737,4.737,0,0,0,3.438-1.17,4.186,4.186,0,0,0,1.206-3.15,4.024,4.024,0,0,0-1.98-3.6l-6.408-4.14a7.692,7.692,0,0,1-2.286-2.124,5.121,5.121,0,0,1-.81-2.952,5.311,5.311,0,0,1,1.89-4.266,7.8,7.8,0,0,1,5.2-1.6,10.484,10.484,0,0,1,3.69.612A6.913,6.913,0,0,1,51.66-21.42v4.356H49.716A7.689,7.689,0,0,0,48.348-21.4a3.9,3.9,0,0,0-3.06-1.206,4.206,4.206,0,0,0-3.294,1.152,4.024,4.024,0,0,0-1.026,2.772,3.426,3.426,0,0,0,1.656,3.1l6.3,4.032A9.1,9.1,0,0,1,51.75-8.982,5.431,5.431,0,0,1,52.6-5.976a6.143,6.143,0,0,1-.9,3.294A6.1,6.1,0,0,1,49.086-.4,9.386,9.386,0,0,1,44.964.432Zm21.168-23.76a7.378,7.378,0,0,1,5.292,1.692,5.812,5.812,0,0,1,1.764,4.392A6.276,6.276,0,0,1,72.342-14a6.02,6.02,0,0,1-2.448,2.286,7.946,7.946,0,0,1-3.762.846H61.6V-1.3h2.88V0h-8.82V-1.3h2.88V-22.032h-2.88v-1.3ZM65.7-12.24a3.682,3.682,0,0,0,2.934-1.386,5.308,5.308,0,0,0,1.17-3.546,5.3,5.3,0,0,0-1.116-3.546A3.721,3.721,0,0,0,65.7-22.032H61.6v9.792Zm27.828,5.9V0H75.708V-1.3h2.88V-22.032h-2.88v-1.3H93.24v6.264H91.872l-1.908-4.968H81.648V-13H87.3v-2.772h1.656v6.912H87.3v-2.772H81.648V-1.3h8.6l1.908-5.04ZM107.172.432A9.5,9.5,0,0,1,101.286-1.3a9.7,9.7,0,0,1-3.294-4.41,15.881,15.881,0,0,1-1.008-5.634A17.054,17.054,0,0,1,98.028-17.3a10.37,10.37,0,0,1,3.348-4.644,9.126,9.126,0,0,1,5.832-1.818,10.966,10.966,0,0,1,4.05.666,12.075,12.075,0,0,1,3.006,1.71v4.32h-2.052a6.4,6.4,0,0,0-1.728-4.212,5,5,0,0,0-3.528-1.332,5.66,5.66,0,0,0-5.094,2.574,11.982,11.982,0,0,0-1.674,6.642,22,22,0,0,0,.774,5.94,10.773,10.773,0,0,0,2.394,4.518,5.275,5.275,0,0,0,4.032,1.746,6.306,6.306,0,0,0,3.888-1.332,6.264,6.264,0,0,0,2.3-3.852h1.368a8.188,8.188,0,0,1-1.44,3.492,8.037,8.037,0,0,1-2.772,2.43A7.467,7.467,0,0,1,107.172.432ZM127.512-1.3V0H117.4V-1.3h3.528V-22.032H117.54v-1.3h9.828v1.3h-3.384V-1.3Zm24.732,0V0h-8.352V-1.3h2.628L143.928-8.6h-7.74L133.6-1.3h2.628V0h-6.732V-1.3h2.556L140-23.328H141.7L149.688-1.3Zm-8.82-8.676L140.112-19.3h-.144l-3.312,9.324ZM154.26-1.3h2.88V-22.032h-2.88v-1.3h8.928v1.3H160.2V-1.3h8.424l1.908-5.04H171.9V0H154.26Zm39.708-22.032a7.378,7.378,0,0,1,5.292,1.692,5.812,5.812,0,0,1,1.764,4.392,6.276,6.276,0,0,1-.846,3.24,6.02,6.02,0,0,1-2.448,2.286,7.945,7.945,0,0,1-3.762.846h-4.536V-1.3h2.88V0h-8.82V-1.3h2.88V-22.032h-2.88v-1.3Zm-.432,11.088a3.682,3.682,0,0,0,2.934-1.386,5.308,5.308,0,0,0,1.17-3.546,5.3,5.3,0,0,0-1.116-3.546,3.721,3.721,0,0,0-2.988-1.314h-4.1v9.792ZM225.18-1.3V0h-5.508l-6.84-10.764h-3.348V-1.3h2.844V0h-8.784V-1.3h2.88V-22.032h-2.88v-1.3H214.02a7.233,7.233,0,0,1,5.292,1.746,5.99,5.99,0,0,1,1.764,4.446,6.156,6.156,0,0,1-1.332,4.014,6.234,6.234,0,0,1-3.636,2.142l6.48,9.684Zm-15.7-10.836h4.14a3.682,3.682,0,0,0,2.934-1.386,5.308,5.308,0,0,0,1.17-3.546,5.458,5.458,0,0,0-1.134-3.6,3.672,3.672,0,0,0-2.97-1.368h-4.14ZM237.1-1.3V0H226.98V-1.3h3.528V-22.032h-3.384v-1.3h9.828v1.3h-3.384V-1.3ZM250.272.432A9.5,9.5,0,0,1,244.386-1.3a9.7,9.7,0,0,1-3.294-4.41,15.881,15.881,0,0,1-1.008-5.634,17.054,17.054,0,0,1,1.044-5.958,10.37,10.37,0,0,1,3.348-4.644,9.126,9.126,0,0,1,5.832-1.818,10.966,10.966,0,0,1,4.05.666,12.075,12.075,0,0,1,3.006,1.71v4.32h-2.052a6.4,6.4,0,0,0-1.728-4.212,5,5,0,0,0-3.528-1.332,5.66,5.66,0,0,0-5.094,2.574,11.982,11.982,0,0,0-1.674,6.642,22,22,0,0,0,.774,5.94,10.773,10.773,0,0,0,2.394,4.518,5.275,5.275,0,0,0,4.032,1.746,6.306,6.306,0,0,0,3.888-1.332,6.264,6.264,0,0,0,2.3-3.852h1.368a8.188,8.188,0,0,1-1.44,3.492,8.037,8.037,0,0,1-2.772,2.43A7.467,7.467,0,0,1,250.272.432Zm28.044-6.768V0H260.5V-1.3h2.88V-22.032H260.5v-1.3h17.532v6.264H276.66l-1.908-4.968h-8.316V-13h5.652v-2.772h1.656v6.912h-1.656v-2.772h-5.652V-1.3h8.6l1.908-5.04Z" transform="translate(222 2337.502)" fill="#ed5700"/>
    <g id="Price" transform="translate(0 -20.122)">
      <path id="パス_742" data-name="パス 742" d="M19.418-23.256,15.2-15.162h4.18v1.444h-4.9l-1.33,2.546v.38H19.38v1.444H13.148v7.98h3.344V0H6.574V-1.368H9.918v-7.98H3.686v-1.444H9.614L8.17-13.718H3.686v-1.444H7.448L3.42-23.256H.38v-1.368h9.652v1.368H6.992l5.244,10.678,5.472-10.678h-3.04v-1.368h7.79v1.368ZM41.8-5.586H37.62V0h-3V-5.586H23.978V-7.068l9.728-17.556H37.62V-8.17H41.8ZM34.618-8.17v-14.4h-.494L26.372-8.17ZM46.74-3.876a2.2,2.2,0,0,1,1.691.779,3.147,3.147,0,0,1,.7,2.185,5.713,5.713,0,0,1-1.064,3.42,7.413,7.413,0,0,1-2.888,2.356l-.57-.912a5.541,5.541,0,0,0,1.729-1.425A2.962,2.962,0,0,0,47.158.646,1.153,1.153,0,0,0,47.12.3a2.36,2.36,0,0,1-.456.038,2,2,0,0,1-1.539-.589,2.11,2.11,0,0,1-.551-1.5,2.03,2.03,0,0,1,.627-1.52A2.126,2.126,0,0,1,46.74-3.876Zm21.812.912V0H53.618V-1.33q4.826-5.244,7.049-7.923a24.085,24.085,0,0,0,3.192-4.693,9.612,9.612,0,0,0,.969-4.218,6.247,6.247,0,0,0-1.235-4.2,4.008,4.008,0,0,0-3.173-1.425,3.753,3.753,0,0,0-3.306,1.672,8.034,8.034,0,0,0-1.292,4.1H53.77v-4.56A7.105,7.105,0,0,1,56.62-24.4a10.84,10.84,0,0,1,3.838-.684,10.072,10.072,0,0,1,3.667.684,6.57,6.57,0,0,1,2.926,2.223A6.359,6.359,0,0,1,68.21-18.24,7.026,7.026,0,0,1,67.3-14.8a21.875,21.875,0,0,1-3.021,3.952q-2.109,2.3-7.619,7.885ZM80.788.418a7.049,7.049,0,0,1-4.56-1.6,10.2,10.2,0,0,1-3.059-4.5,19.03,19.03,0,0,1-1.083-6.669A18.871,18.871,0,0,1,73.169-19a10.133,10.133,0,0,1,3.078-4.484,7.125,7.125,0,0,1,4.579-1.6A7.179,7.179,0,0,1,85.4-23.5a10,10,0,0,1,3.078,4.465,18.871,18.871,0,0,1,1.083,6.65,18.733,18.733,0,0,1-1.1,6.669,10.4,10.4,0,0,1-3.1,4.522A7.072,7.072,0,0,1,80.788.418ZM80.826-.8q2.584,0,3.952-2.964t1.368-8.588a21.068,21.068,0,0,0-1.368-8.55q-1.368-2.964-3.952-2.964T76.874-20.9a21.069,21.069,0,0,0-1.368,8.55q0,5.624,1.368,8.588T80.826-.8ZM100.7.418a7.049,7.049,0,0,1-4.56-1.6,10.2,10.2,0,0,1-3.059-4.5A19.03,19.03,0,0,1,92-12.35,18.871,18.871,0,0,1,93.081-19a10.134,10.134,0,0,1,3.078-4.484,7.125,7.125,0,0,1,4.579-1.6,7.179,7.179,0,0,1,4.579,1.577,10,10,0,0,1,3.078,4.465,18.871,18.871,0,0,1,1.083,6.65,18.733,18.733,0,0,1-1.1,6.669,10.4,10.4,0,0,1-3.1,4.522A7.072,7.072,0,0,1,100.7.418ZM100.738-.8q2.584,0,3.952-2.964t1.368-8.588a21.068,21.068,0,0,0-1.368-8.55q-1.368-2.964-3.952-2.964T96.786-20.9a21.069,21.069,0,0,0-1.368,8.55q0,5.624,1.368,8.588T100.738-.8Zm13.946-3.078a2.2,2.2,0,0,1,1.691.779,3.147,3.147,0,0,1,.7,2.185,5.713,5.713,0,0,1-1.064,3.42,7.413,7.413,0,0,1-2.888,2.356l-.57-.912a5.541,5.541,0,0,0,1.729-1.425A2.962,2.962,0,0,0,115.1.646,1.153,1.153,0,0,0,115.064.3a2.36,2.36,0,0,1-.456.038,2,2,0,0,1-1.539-.589,2.11,2.11,0,0,1-.551-1.5,2.03,2.03,0,0,1,.627-1.52A2.126,2.126,0,0,1,114.684-3.876ZM128.82.418a7.049,7.049,0,0,1-4.56-1.6,10.2,10.2,0,0,1-3.059-4.5,19.03,19.03,0,0,1-1.083-6.669A18.871,18.871,0,0,1,121.2-19a10.133,10.133,0,0,1,3.078-4.484,7.125,7.125,0,0,1,4.579-1.6,7.179,7.179,0,0,1,4.579,1.577,10,10,0,0,1,3.078,4.465,18.871,18.871,0,0,1,1.083,6.65,18.733,18.733,0,0,1-1.1,6.669A10.4,10.4,0,0,1,133.4-1.2,7.072,7.072,0,0,1,128.82.418ZM128.858-.8q2.584,0,3.952-2.964t1.368-8.588a21.068,21.068,0,0,0-1.368-8.55q-1.368-2.964-3.952-2.964T124.906-20.9a21.069,21.069,0,0,0-1.368,8.55q0,5.624,1.368,8.588T128.858-.8ZM148.732.418a7.049,7.049,0,0,1-4.56-1.6,10.2,10.2,0,0,1-3.059-4.5,19.03,19.03,0,0,1-1.083-6.669A18.871,18.871,0,0,1,141.113-19a10.133,10.133,0,0,1,3.078-4.484,7.125,7.125,0,0,1,4.579-1.6,7.179,7.179,0,0,1,4.579,1.577,10,10,0,0,1,3.078,4.465,18.871,18.871,0,0,1,1.083,6.65,18.733,18.733,0,0,1-1.1,6.669,10.4,10.4,0,0,1-3.1,4.522A7.072,7.072,0,0,1,148.732.418ZM148.77-.8q2.584,0,3.952-2.964t1.368-8.588a21.068,21.068,0,0,0-1.368-8.55q-1.368-2.964-3.952-2.964T144.818-20.9a21.068,21.068,0,0,0-1.368,8.55q0,5.624,1.368,8.588T148.77-.8ZM168.644.418a7.049,7.049,0,0,1-4.56-1.6,10.2,10.2,0,0,1-3.059-4.5,19.03,19.03,0,0,1-1.083-6.669A18.871,18.871,0,0,1,161.025-19a10.133,10.133,0,0,1,3.078-4.484,7.125,7.125,0,0,1,4.579-1.6,7.179,7.179,0,0,1,4.579,1.577,10,10,0,0,1,3.078,4.465,18.871,18.871,0,0,1,1.083,6.65,18.733,18.733,0,0,1-1.1,6.669,10.4,10.4,0,0,1-3.1,4.522A7.072,7.072,0,0,1,168.644.418ZM168.682-.8q2.584,0,3.952-2.964T174-12.35a21.068,21.068,0,0,0-1.368-8.55q-1.368-2.964-3.952-2.964T164.73-20.9a21.068,21.068,0,0,0-1.368,8.55q0,5.624,1.368,8.588T168.682-.8Z" transform="translate(301.046 2319)" fill="#fff"/>
      <path id="パス_741" data-name="パス 741" d="M4.367-6.71a9.206,9.206,0,0,1-.55.979h-2.8L.583-5.819V-5.2l.429-.088h2.5A10.13,10.13,0,0,1,.44-2.75l.143.3a8.846,8.846,0,0,0,3.96-2.838H6.369A6.83,6.83,0,0,0,10.021-2.2a4.111,4.111,0,0,1,.539-.957A7.045,7.045,0,0,1,6.809-5.291H9.977l.44.088v-.616l-.44.088H4.84a7.959,7.959,0,0,0,.572-1.056c.407-.033.781-.066.9-.077.462-.033.77-.066.9-.077.088-.011.286-.033.583-.066.077-.011.319-.044.583-.077a7.743,7.743,0,0,1,.946.957l.858-.693A10.888,10.888,0,0,0,6.864-8.613l-.242.253c.715.484,1.034.7,1.353.946-.913.033-2.035.055-3.784.066l-.473.011A7,7,0,0,0,4.884-8.558c.275-.055.385-.121.385-.242,0-.1-.088-.176-.242-.209L4.059-9.24a9.8,9.8,0,0,1-.913,1.9c-.594.011-.726.011-.957.011-.308,0-.737-.011-1.309-.022l.286.8c.066.165.132.242.231.242s.187-.077.286-.264c.462-.022.869-.033,1.012-.044.286-.022.561-.033.836-.055ZM.968.88C4.73.7,6.919.165,9.317-1.155a2.366,2.366,0,0,0,.253.022c.143,0,.253-.077.253-.176,0-.055-.033-.1-.11-.154L8.9-2.024A16.509,16.509,0,0,1,.924.517Zm.22-2.343a11.243,11.243,0,0,0,4.7-2.266h.143c.165,0,.275-.066.275-.154q0-.066-.1-.132l-.726-.517A11.648,11.648,0,0,1,1.111-1.771ZM1.573-.319a13.677,13.677,0,0,0,5.8-2.09,1.4,1.4,0,0,0,.209.011c.143,0,.264-.066.264-.165a.192.192,0,0,0-.1-.143l-.737-.539A13.357,13.357,0,0,1,1.474-.671Zm14.388-5.72V-7.5h2.057l.44.088V-8.03l-.44.088H15.961v-.924c.143-.11.176-.154.176-.22,0-.11-.077-.154-.231-.154h-.858v1.3H12.716l-.429-.088v.616l.429-.088h2.332v1.463h-3.1l-.44-.088v.616l.44-.088h4.521l-.033.022a19.479,19.479,0,0,1-1.672,1.155L14.74-4.4,14.1-4.5l-.11.55A28.224,28.224,0,0,1,11.44-2.64l.121.286a17.607,17.607,0,0,0,2.3-.924c-.154.726-.319,1.4-.55,2.233h.99c.055-.209.121-.528.209-.946h4.95C19.206.176,19.107.352,18.26.363H17.039V.825H18.7c1.309-.011,1.419-.231,1.749-3.256H14.6l.022-.143.033-.132c.011-.044.033-.187.077-.385.011-.1.033-.22.066-.385l.693-.033A29.919,29.919,0,0,0,19.9-3.927a1.379,1.379,0,0,0,.341.044c.11,0,.2-.066.2-.143,0-.044-.022-.088-.143-.2l-.6-.55a22.106,22.106,0,0,1-4.246.847l-.22.033-.231.022A22.371,22.371,0,0,0,17.611-5.6h3.443l.44.088v-.616l-.44.088H18.161A18.456,18.456,0,0,0,20.3-8.107c.352-.033.473-.1.473-.22,0-.077-.055-.143-.2-.209l-.715-.4a16.9,16.9,0,0,1-2.827,2.893Zm11.649-.1H25.729v6.9h.814v-.7H31.2V.682h.847v-6.82H30.118V-8.283h2l.44.088v-.616l-.44.088H25.938l-.429-.088v.616l.429-.088H27.61Zm.759-2.145h.99v2.145h-.99Zm0,2.585h.99V-.385h-.99ZM27.61-.385H26.543V-5.7H27.61ZM30.118-5.7H31.2V-.385H30.118ZM24.574-6.787c.231-.649.33-.957.583-1.771.176-.033.264-.11.264-.22,0-.088-.077-.154-.187-.187L24.31-9.24a26.072,26.072,0,0,1-1.87,5.973l.231.176a11.922,11.922,0,0,0,1.045-1.694v5.6h.858ZM36.685-2.541a10.587,10.587,0,0,0,3.564-2.09A10.625,10.625,0,0,0,43.142-2.8a3.644,3.644,0,0,1,.418-.858,11.384,11.384,0,0,1-2.794-1.485A11.368,11.368,0,0,0,42.8-8.063H39.226l.011-.033c.121-.231.132-.253.275-.561.209-.077.3-.143.3-.22a.206.206,0,0,0-.11-.154l-.935-.209a10.231,10.231,0,0,1-.792,2.013,10.169,10.169,0,0,1-1.045,1.683l.22.209A7.473,7.473,0,0,0,38.72-7.172a4.992,4.992,0,0,0,1.012,2,12.072,12.072,0,0,1-3.157,2.354Zm2.31-5.082h2.64a13.333,13.333,0,0,1-1.463,1.991,4.141,4.141,0,0,1-1.221-1.925ZM35.1.814h.847V-5.027a7.417,7.417,0,0,1,.781,1.672l.682-.594a3.89,3.89,0,0,0-1.463-1.4V-6.49h.8l.44.088v-.616l-.44.088h-.8V-8.811c.132-.1.176-.143.176-.22,0-.1-.077-.143-.231-.143H35.1V-6.93H33.946l-.44-.088V-6.4l.44-.088H35A18.4,18.4,0,0,1,33.44-1.859l.242.165A10.825,10.825,0,0,0,35.1-4.29ZM42.515.748v-3.7H37.906V.814h.869V.286h2.86V.748Zm-3.74-.9V-2.508h2.86V-.154ZM49.247-8.393A9.6,9.6,0,0,0,47.674-3.2a9.6,9.6,0,0,0,1.573,5.192h.6A12.494,12.494,0,0,1,49.071.2a10.785,10.785,0,0,1-.539-3.4,10.785,10.785,0,0,1,.539-3.4,12.494,12.494,0,0,1,.781-1.793ZM52.415.814h.814v-5.1a12.619,12.619,0,0,1,.825,1.9l.737-.649a6.87,6.87,0,0,0-1.562-1.606v-1.21h.913l.429.088V-6.38l-.429.088h-.913V-8.239c.286-.066.33-.077.748-.2a1.412,1.412,0,0,0,.275.044c.143,0,.242-.066.242-.165,0-.066-.022-.1-.11-.176l-.572-.506a13.145,13.145,0,0,1-3.036,1l.033.3a13.166,13.166,0,0,0,1.606-.143v1.793h-1.2l-.44-.088v.616l.44-.088h1.089a18.955,18.955,0,0,1-1.6,4.532l.22.187A9.318,9.318,0,0,0,52.415-3.74ZM54.989-6.82V-3.3h1.144v.033C56.045-1.155,55.4-.033,53.878.583l.143.3C56.034.418,56.969-.88,57.013-3.3h.858V-.1c.033.407.352.638.88.638h1.133c.55,0,.781-.209.825-.77l.121-1.342-.462-.055L60.291-.616c-.033.264-.121.341-.363.352h-.869c-.253-.011-.308-.066-.319-.3V-3.3h1.441V-6.82H58.5a7.537,7.537,0,0,0,1.166-1.749c.22-.022.341-.1.341-.209a.22.22,0,0,0-.176-.2L58.817-9.24a18.659,18.659,0,0,1-.726,2.42Zm.869,3.08V-6.38H59.3v2.64Zm-.682-5.247a8.362,8.362,0,0,1,.979,2.013l.9-.484a4.92,4.92,0,0,0-1.606-1.716ZM63.844-.7A3.007,3.007,0,0,0,66.55.506c.572.033,1.958.066,3.036.066.462,0,1.1-.011,1.969-.022a7.073,7.073,0,0,1,.264-.869c-.715.044-2.53.088-3.894.088A9.317,9.317,0,0,1,64.9-.484a1.944,1.944,0,0,1-.748-.506V-5.06H62.216l-.44-.088v.616l.44-.088h1.056V-.946a12.041,12.041,0,0,1-1.562.594l.352.957a.19.19,0,0,0,.154.121c.11,0,.2-.121.253-.363A10.966,10.966,0,0,0,63.811-.682Zm2.574-8.118-.44-.088v.638l.44-.088h1.793c.011.3.011.429.022.572a9.912,9.912,0,0,1-3.542,6.38l.143.264a7.159,7.159,0,0,0,3.674-4.5,7.153,7.153,0,0,0,2.717,4.389c.275-.473.319-.539.594-.979a6.389,6.389,0,0,1-2.53-3.036,9.384,9.384,0,0,1-.572-3.553Zm-1.859.759a5.049,5.049,0,0,0-2.2-.814l-.132.275a7.705,7.705,0,0,1,1.727,1.529Zm8.129-.33A13.05,13.05,0,0,1,73.469-6.6a10.835,10.835,0,0,1,.539,3.4A10.784,10.784,0,0,1,73.469.2a12.494,12.494,0,0,1-.781,1.793h.605A9.628,9.628,0,0,0,74.866-3.2a9.628,9.628,0,0,0-1.573-5.192Z" transform="translate(221.56 2318)" fill="#fff"/>
    </g>
    <path id="パス_740" data-name="パス 740" d="M8.712-8.91A12.2,12.2,0,0,1,7.92-4.374C7.128-2.448,5.166-.846,2.232.27l.18.54A12.742,12.742,0,0,0,7.56-1.512c1.872-1.53,2.7-3.546,2.844-6.966a2.434,2.434,0,0,1,.036-.432h5.634l.792.162V-9.9l-.792.162H10.458c.018-.486.018-.882.018-1.134v-2.61c.27-.18.36-.306.36-.45a.339.339,0,0,0-.342-.324l-1.908-.126.162,1.134v2.376c0,.252,0,.648-.018,1.134H2.052L1.26-9.9v1.152l.792-.162ZM20.61.414c6.534-1.3,10.08-5.256,11.916-13.32.288-.108.432-.234.432-.4,0-.144-.126-.27-.342-.324l-1.8-.486L30.744-13C29.25-6.084,25.974-1.98,20.448-.126ZM44.46-12.114c.2-.4.36-.792.63-1.494.342-.162.468-.27.468-.468,0-.162-.126-.27-.4-.324l-1.692-.36-.18,1.026A15.347,15.347,0,0,1,38.448-6.57l.288.432a12.078,12.078,0,0,0,5.292-5.148h5.634A15.719,15.719,0,0,1,45.27-3.222,17.691,17.691,0,0,1,38.52.306l.108.54c3.42-.63,5.256-1.332,7.236-2.754,2.97-2.16,4.95-5.652,5.778-10.206Zm18.558,3.33a1.955,1.955,0,0,0-1.98,1.944A1.955,1.955,0,0,0,63-4.878,1.963,1.963,0,0,0,64.944-6.84,1.968,1.968,0,0,0,63.018-8.784ZM81.936-10.3h5.652l.792.162v-1.152l-.792.162H81.936V-13.68c.252-.18.36-.306.36-.468a.324.324,0,0,0-.342-.306l-1.818-.126L80.3-13.5v2.376h-5.76l-.792-.162v1.152l.792-.162H80.3v9.234c0,.612-.27.882-.9.882H77.562V.648h3.024c.936.018,1.35-.432,1.35-1.458Zm1.782,2.142a22.38,22.38,0,0,1,3.6,6.732l1.728-.9A12.965,12.965,0,0,0,84.078-8.46ZM73.206-1.35A12.405,12.405,0,0,0,77.958-7.2c.324-.126.45-.252.45-.432a.38.38,0,0,0-.27-.342l-1.692-.612-.216.99a16.657,16.657,0,0,1-3.348,5.85ZM94.716.162c7.416-.774,11.016-5,11.412-13.356H92.376v5.688h1.71v-4.86h10.1c-.36,6.732-3.294,10.386-9.54,11.934Zm24.264-9.81a46.277,46.277,0,0,0,3.834-3.384c.486-.054.684-.18.684-.432a.558.558,0,0,0-.288-.414l-1.386-.918-.648.972a35.018,35.018,0,0,1-11.808,8.19l.2.54a23.741,23.741,0,0,0,7.74-3.348v9.4h1.674Zm14.508-4.068c.234-.126.36-.27.36-.432s-.144-.288-.36-.306l-1.8-.126.126,1.08V.864h1.674v-9.54A17.881,17.881,0,0,1,140.2-4.032l1.224-1.638a19.21,19.21,0,0,0-7.938-3.672Z" transform="translate(222 2257.844)" fill="#fff"/>
    <path id="パス_739" data-name="パス 739" d="M3.48-.864H5.592V-14.688H2.616L1.368-11.376H.48v-4.176H12.7v4.176h-.888l-1.2-3.312H7.632V-.864H9.744V0H3.48ZM27.048-14.688V-.864h1.92V0H23.136V-.864h1.872V-7.752h-7.08V-.864H19.8V0H13.968V-.864h1.92V-14.688h-1.92v-.864H19.8v.864H17.928v6.024h7.08v-6.024H23.136v-.864h5.832v.864ZM42.432-4.224V0H30.552V-.864h1.92V-14.688h-1.92v-.864H42.24v4.176h-.912l-1.272-3.312H34.512v6.024H38.28v-1.848h1.1V-5.9h-1.1V-7.752H34.512V-.864h5.736l1.272-3.36Zm7.536,3.36h1.92V-14.688h-1.92v-.864H53.88L61.1-3.888v-10.8h-1.92v-.864h4.872v.864h-1.92V0h-1.1L52.92-13.224V-.864h1.92V0H49.968ZM77.28-4.224V0H65.4V-.864h1.92V-14.688H65.4v-.864H77.088v4.176h-.912L74.9-14.688H69.36v6.024h3.768v-1.848h1.1V-5.9h-1.1V-7.752H69.36V-.864H75.1l1.272-3.36Zm23.88-10.464H99.384L95.232,0h-1.1l-4.3-12.144L85.92,0h-1.1L80.424-14.688h-1.9v-.864h6v.864h-1.92L85.9-3.24l3.912-12.216h1.008L95.208-3.312l3.144-11.376h-1.9v-.864h4.7ZM108.216-.864h1.92V-14.688h-1.92v-.864h4.1L117.6-3.528l5.088-12.024H126.7v.864h-1.92V-.864h1.92V0h-5.88V-.864h1.92v-12.12L117.6-.888h-1.1L111.168-13.08V-.864h1.848V0h-4.8Zm26.808,0V0H128.28V-.864h2.352V-14.688h-2.256v-.864h6.552v.864h-2.256V-.864Zm1.584,0h1.92V-14.688h-1.92v-.864h3.912l7.224,11.664v-10.8h-1.92v-.864H150.7v.864h-1.92V0h-1.1L139.56-13.224V-.864h1.92V0h-4.872Zm22.176,0V0H152.04V-.864h2.352V-14.688h-2.256v-.864h6.552v.864h-2.256V-.864ZM173.16.288a6.33,6.33,0,0,1-3.924-1.152,6.466,6.466,0,0,1-2.2-2.94,10.588,10.588,0,0,1-.672-3.756,11.369,11.369,0,0,1,.7-3.972,6.913,6.913,0,0,1,2.232-3.1,6.084,6.084,0,0,1,3.888-1.212,7.31,7.31,0,0,1,2.7.444,8.05,8.05,0,0,1,2,1.14v2.88H176.52a4.27,4.27,0,0,0-1.152-2.808,3.336,3.336,0,0,0-2.352-.888,3.773,3.773,0,0,0-3.4,1.716A7.988,7.988,0,0,0,168.5-8.928a14.67,14.67,0,0,0,.516,3.96,7.182,7.182,0,0,0,1.6,3.012A3.517,3.517,0,0,0,173.3-.792,4.2,4.2,0,0,0,175.9-1.68a4.176,4.176,0,0,0,1.536-2.568h.912a5.458,5.458,0,0,1-.96,2.328A5.358,5.358,0,0,1,175.536-.3,4.978,4.978,0,0,1,173.16.288Zm13.464,0a6.1,6.1,0,0,1-3.756-1.1,6.307,6.307,0,0,1-2.148-2.868,10.528,10.528,0,0,1-.672-3.78,11.612,11.612,0,0,1,.684-3.948,7.054,7.054,0,0,1,2.244-3.168,6.139,6.139,0,0,1,3.984-1.26,6.207,6.207,0,0,1,3.78,1.1,6.487,6.487,0,0,1,2.208,2.868,9.989,9.989,0,0,1,.708,3.756,11.124,11.124,0,0,1-.72,3.936,7.349,7.349,0,0,1-2.292,3.192A6.187,6.187,0,0,1,186.624.288ZM187.2-.5a3.531,3.531,0,0,0,3.216-1.764,8.968,8.968,0,0,0,1.08-4.716,14.262,14.262,0,0,0-.516-3.876,6.994,6.994,0,0,0-1.644-3.012,3.846,3.846,0,0,0-2.9-1.176,3.447,3.447,0,0,0-3.2,1.74,8.658,8.658,0,0,0-1.02,4.428,13.365,13.365,0,0,0,1.2,5.928A3.973,3.973,0,0,0,187.2-.5Zm15.048.792a6.1,6.1,0,0,1-3.756-1.1,6.307,6.307,0,0,1-2.148-2.868,10.528,10.528,0,0,1-.672-3.78,11.612,11.612,0,0,1,.684-3.948A7.054,7.054,0,0,1,198.6-14.58a6.139,6.139,0,0,1,3.984-1.26,6.207,6.207,0,0,1,3.78,1.1,6.487,6.487,0,0,1,2.208,2.868,9.989,9.989,0,0,1,.708,3.756,11.124,11.124,0,0,1-.72,3.936,7.349,7.349,0,0,1-2.292,3.192A6.187,6.187,0,0,1,202.248.288Zm.576-.792a3.531,3.531,0,0,0,3.216-1.764,8.968,8.968,0,0,0,1.08-4.716,14.262,14.262,0,0,0-.516-3.876,6.994,6.994,0,0,0-1.644-3.012,3.846,3.846,0,0,0-2.9-1.176,3.447,3.447,0,0,0-3.2,1.74,8.658,8.658,0,0,0-1.02,4.428,13.365,13.365,0,0,0,1.2,5.928A3.973,3.973,0,0,0,202.824-.5Zm15.1-15.048a4.919,4.919,0,0,1,3.528,1.128,3.875,3.875,0,0,1,1.176,2.928,4.184,4.184,0,0,1-.564,2.16,4.013,4.013,0,0,1-1.632,1.524,5.3,5.3,0,0,1-2.508.564H214.9V-.864h1.92V0h-5.88V-.864h1.92V-14.688h-1.92v-.864Zm-.288,7.392a2.455,2.455,0,0,0,1.956-.924,3.539,3.539,0,0,0,.78-2.364,3.532,3.532,0,0,0-.744-2.364,2.481,2.481,0,0,0-1.992-.876H214.9V-8.16ZM235.9-4.224V0h-11.88V-.864h1.92V-14.688h-1.92v-.864H235.7v4.176h-.912l-1.272-3.312h-5.544v6.024h3.768v-1.848h1.1V-5.9h-1.1V-7.752h-3.768V-.864h5.736l1.272-3.36Zm16.08,3.36V0H248.3l-4.56-7.176h-2.232V-.864h1.9V0h-5.856V-.864h1.92V-14.688h-1.92v-.864h6.984a4.822,4.822,0,0,1,3.528,1.164,3.993,3.993,0,0,1,1.176,2.964,4.1,4.1,0,0,1-.888,2.676,4.156,4.156,0,0,1-2.424,1.428l4.32,6.456ZM241.512-8.088h2.76a2.455,2.455,0,0,0,1.956-.924,3.539,3.539,0,0,0,.78-2.364,3.639,3.639,0,0,0-.756-2.4,2.448,2.448,0,0,0-1.98-.912h-2.76ZM265.68.288a6.33,6.33,0,0,1-3.924-1.152,6.466,6.466,0,0,1-2.2-2.94,10.587,10.587,0,0,1-.672-3.756,11.369,11.369,0,0,1,.7-3.972,6.913,6.913,0,0,1,2.232-3.1A6.084,6.084,0,0,1,265.7-15.84a7.31,7.31,0,0,1,2.7.444,8.051,8.051,0,0,1,2,1.14v2.88H269.04a4.27,4.27,0,0,0-1.152-2.808,3.336,3.336,0,0,0-2.352-.888,3.773,3.773,0,0,0-3.4,1.716,7.988,7.988,0,0,0-1.116,4.428,14.67,14.67,0,0,0,.516,3.96,7.182,7.182,0,0,0,1.6,3.012,3.517,3.517,0,0,0,2.688,1.164,4.2,4.2,0,0,0,2.592-.888,4.176,4.176,0,0,0,1.536-2.568h.912a5.458,5.458,0,0,1-.96,2.328A5.358,5.358,0,0,1,268.056-.3,4.978,4.978,0,0,1,265.68.288Zm8.256-.024a1.389,1.389,0,0,1-1.02-.42,1.389,1.389,0,0,1-.42-1.02,1.389,1.389,0,0,1,.42-1.02,1.389,1.389,0,0,1,1.02-.42,1.389,1.389,0,0,1,1.02.42,1.389,1.389,0,0,1,.42,1.02,1.389,1.389,0,0,1-.42,1.02A1.389,1.389,0,0,1,273.936.264ZM7.7,26.288A6.33,6.33,0,0,1,3.78,25.136a6.466,6.466,0,0,1-2.2-2.94A10.587,10.587,0,0,1,.912,18.44a11.37,11.37,0,0,1,.7-3.972,6.913,6.913,0,0,1,2.232-3.1A6.084,6.084,0,0,1,7.728,10.16a7.31,7.31,0,0,1,2.7.444,8.05,8.05,0,0,1,2,1.14v2.88H11.064a4.27,4.27,0,0,0-1.152-2.808,3.336,3.336,0,0,0-2.352-.888,3.773,3.773,0,0,0-3.4,1.716,7.988,7.988,0,0,0-1.116,4.428,14.67,14.67,0,0,0,.516,3.96,7.182,7.182,0,0,0,1.6,3.012,3.517,3.517,0,0,0,2.688,1.164,4.17,4.17,0,0,0,4.128-3.456h.912a5.458,5.458,0,0,1-.96,2.328A5.358,5.358,0,0,1,10.08,25.7,4.978,4.978,0,0,1,7.7,26.288Zm6.528-1.152h1.92V11.312h-1.92v-.864h5.952v.864H18.192V25.136h5.616l1.272-3.36h.912V26H14.232Zm27.888,0V26H36.552v-.864H38.3l-1.728-4.872h-5.16l-1.728,4.872H31.44V26H26.952v-.864h1.7l5.3-14.688h1.128l5.328,14.688Zm-5.88-5.784-2.208-6.216h-.1l-2.208,6.216ZM47.9,26.288a7.414,7.414,0,0,1-2.748-.48,4.348,4.348,0,0,1-1.788-1.176V21.8h1.3a4.771,4.771,0,0,0,1.08,2.868,3.009,3.009,0,0,0,2.208.828,3.158,3.158,0,0,0,2.292-.78,2.791,2.791,0,0,0,.8-2.1,2.683,2.683,0,0,0-1.32-2.4l-4.272-2.76a5.128,5.128,0,0,1-1.524-1.416,3.414,3.414,0,0,1-.54-1.968,3.541,3.541,0,0,1,1.26-2.844A5.2,5.2,0,0,1,48.12,10.16a6.989,6.989,0,0,1,2.46.408,4.609,4.609,0,0,1,1.788,1.152v2.9h-1.3a5.126,5.126,0,0,0-.912-2.892,2.6,2.6,0,0,0-2.04-.8,2.8,2.8,0,0,0-2.2.768,2.683,2.683,0,0,0-.684,1.848,2.284,2.284,0,0,0,1.1,2.064l4.2,2.688a6.063,6.063,0,0,1,1.884,1.716,3.621,3.621,0,0,1,.564,2,3.981,3.981,0,0,1-2.34,3.72A6.258,6.258,0,0,1,47.9,26.288Zm11.592,0a7.414,7.414,0,0,1-2.748-.48,4.348,4.348,0,0,1-1.788-1.176V21.8h1.3a4.771,4.771,0,0,0,1.08,2.868,3.009,3.009,0,0,0,2.208.828,3.158,3.158,0,0,0,2.292-.78,2.791,2.791,0,0,0,.8-2.1,2.683,2.683,0,0,0-1.32-2.4l-4.272-2.76a5.128,5.128,0,0,1-1.524-1.416,3.414,3.414,0,0,1-.54-1.968,3.541,3.541,0,0,1,1.26-2.844,5.2,5.2,0,0,1,3.468-1.068,6.989,6.989,0,0,1,2.46.408A4.609,4.609,0,0,1,63.96,11.72v2.9h-1.3a5.126,5.126,0,0,0-.912-2.892,2.6,2.6,0,0,0-2.04-.8,2.8,2.8,0,0,0-2.2.768,2.683,2.683,0,0,0-.684,1.848,2.284,2.284,0,0,0,1.1,2.064l4.2,2.688a6.063,6.063,0,0,1,1.884,1.716,3.621,3.621,0,0,1,.564,2,3.981,3.981,0,0,1-2.34,3.72A6.258,6.258,0,0,1,59.5,26.288ZM73.08,25.136V26H66.336v-.864h2.352V11.312H66.432v-.864h6.552v.864H70.728V25.136Zm8.5,1.152a6.33,6.33,0,0,1-3.924-1.152,6.466,6.466,0,0,1-2.2-2.94,10.587,10.587,0,0,1-.672-3.756,11.37,11.37,0,0,1,.7-3.972,6.913,6.913,0,0,1,2.232-3.1A6.084,6.084,0,0,1,81.6,10.16a7.31,7.31,0,0,1,2.7.444,8.05,8.05,0,0,1,2,1.14v2.88H84.936a4.27,4.27,0,0,0-1.152-2.808,3.336,3.336,0,0,0-2.352-.888,3.773,3.773,0,0,0-3.4,1.716,7.988,7.988,0,0,0-1.116,4.428,14.67,14.67,0,0,0,.516,3.96,7.182,7.182,0,0,0,1.6,3.012,3.517,3.517,0,0,0,2.688,1.164,4.17,4.17,0,0,0,4.128-3.456h.912a5.458,5.458,0,0,1-.96,2.328,5.358,5.358,0,0,1-1.848,1.62A4.978,4.978,0,0,1,81.576,26.288Zm15.1-1.152h2.112V11.312H95.808L94.56,14.624h-.888V10.448h12.216v4.176H105l-1.2-3.312h-2.976V25.136h2.112V26H96.672Zm24.912,0V26h-3.672l-4.56-7.176H111.12v6.312h1.9V26H107.16v-.864h1.92V11.312h-1.92v-.864h6.984a4.822,4.822,0,0,1,3.528,1.164,3.993,3.993,0,0,1,1.176,2.964,4.1,4.1,0,0,1-.888,2.676,4.156,4.156,0,0,1-2.424,1.428l4.32,6.456ZM111.12,17.912h2.76a2.455,2.455,0,0,0,1.956-.924,3.539,3.539,0,0,0,.78-2.364,3.639,3.639,0,0,0-.756-2.4,2.448,2.448,0,0,0-1.98-.912h-2.76Zm18.12,7.224V26H122.5v-.864h2.352V11.312h-2.256v-.864h6.552v.864h-2.256V25.136Zm1.584,0h1.92V11.312h-1.92v-.864h4.1l5.28,12.024L145.3,10.448H149.3v.864h-1.92V25.136h1.92V26h-5.88v-.864h1.92V13.016l-5.136,12.1h-1.1L133.776,12.92V25.136h1.848V26h-4.8Z" transform="translate(222 2206.76)" fill="#fff"/>
  </g>
</svg>
