<svg xmlns="http://www.w3.org/2000/svg" width="275.376" height="112.869" viewBox="0 0 275.376 112.869">
  <g id="txt01-01-sp" transform="translate(-222 -2190.873)">
    <g id="Price" transform="translate(0 -20.122)">
      <path id="パス_728" data-name="パス 728" d="M19.418-23.256,15.2-15.162h4.18v1.444h-4.9l-1.33,2.546v.38h6.23v1.444H13.148v7.98h3.344V0H6.574V-1.368H9.918v-7.98H3.686v-1.444H9.614L8.17-13.718H3.686v-1.444H7.448L3.42-23.256H.38v-1.368h9.652v1.368H6.992l5.244,10.678,5.472-10.678h-3.04v-1.368h7.79v1.368ZM41.8-5.586H37.62V0h-3V-5.586H23.978V-7.068l9.728-17.556H37.62V-8.17H41.8ZM34.618-8.17v-14.4h-.494L26.372-8.17ZM46.74-3.876a2.2,2.2,0,0,1,1.691.779,3.147,3.147,0,0,1,.7,2.185,5.713,5.713,0,0,1-1.064,3.42,7.413,7.413,0,0,1-2.888,2.356l-.57-.912a5.541,5.541,0,0,0,1.729-1.425,2.962,2.962,0,0,0,.82-1.881A1.153,1.153,0,0,0,47.12.3a2.36,2.36,0,0,1-.456.038,2,2,0,0,1-1.539-.589,2.11,2.11,0,0,1-.551-1.5,2.03,2.03,0,0,1,.627-1.52,2.126,2.126,0,0,1,1.539-.6Zm23.18-1.71H65.74V0h-3V-5.586H52.1V-7.068l9.728-17.556H65.74V-8.17h4.18ZM62.738-8.17v-14.4h-.494L54.492-8.17Zm21.584-4.978a7.269,7.269,0,0,1,3.591,2.28A6.235,6.235,0,0,1,89.3-6.688a6.351,6.351,0,0,1-1.216,3.933A7.232,7.232,0,0,1,84.911-.361a11.045,11.045,0,0,1-4.123.779,10.63,10.63,0,0,1-4.123-.8,7.33,7.33,0,0,1-3.116-2.394,6.337,6.337,0,0,1-1.2-3.914,6.235,6.235,0,0,1,1.387-4.18,7.269,7.269,0,0,1,3.591-2.28,6.37,6.37,0,0,1-2.85-2.014,5.622,5.622,0,0,1-1.254-3.762,5.422,5.422,0,0,1,1.064-3.4,6.548,6.548,0,0,1,2.793-2.09,9.843,9.843,0,0,1,3.743-.7,9.98,9.98,0,0,1,3.705.684,6.481,6.481,0,0,1,2.812,2.09,5.437,5.437,0,0,1,1.083,3.42,5.622,5.622,0,0,1-1.254,3.762,6.37,6.37,0,0,1-2.847,2.012Zm-3.5-10.716a4.172,4.172,0,0,0-3.211,1.387,5.265,5.265,0,0,0-1.273,3.7,5.265,5.265,0,0,0,1.273,3.7,4.172,4.172,0,0,0,3.211,1.387,4.156,4.156,0,0,0,3.23-1.387,5.315,5.315,0,0,0,1.254-3.7,5.265,5.265,0,0,0-1.273-3.7,4.172,4.172,0,0,0-3.207-1.387Zm0,23.066a4.832,4.832,0,0,0,3.686-1.539A6.059,6.059,0,0,0,85.956-6.65a6.282,6.282,0,0,0-1.33-4.218,4.722,4.722,0,0,0-3.8-1.558,4.722,4.722,0,0,0-3.8,1.558A6.282,6.282,0,0,0,75.7-6.65a6.059,6.059,0,0,0,1.44,4.313A4.832,4.832,0,0,0,80.826-.8ZM109.74-5.586h-4.18V0h-3V-5.586H91.922V-7.068l9.728-17.556h3.914V-8.17h4.18ZM102.562-8.17v-14.4h-.494L94.316-8.17Zm12.122,4.294a2.2,2.2,0,0,1,1.691.779,3.147,3.147,0,0,1,.7,2.185,5.713,5.713,0,0,1-1.064,3.42,7.413,7.413,0,0,1-2.888,2.356l-.57-.912a5.541,5.541,0,0,0,1.729-1.425A2.962,2.962,0,0,0,115.1.646,1.153,1.153,0,0,0,115.064.3a2.36,2.36,0,0,1-.456.038,2,2,0,0,1-1.539-.589,2.11,2.11,0,0,1-.551-1.5,2.03,2.03,0,0,1,.627-1.52,2.126,2.126,0,0,1,1.539-.6ZM128.82.418a7.049,7.049,0,0,1-4.56-1.6,10.2,10.2,0,0,1-3.059-4.5,19.03,19.03,0,0,1-1.083-6.669A18.871,18.871,0,0,1,121.2-19a10.133,10.133,0,0,1,3.078-4.484,7.125,7.125,0,0,1,4.579-1.6,7.179,7.179,0,0,1,4.579,1.577,10,10,0,0,1,3.078,4.465,18.871,18.871,0,0,1,1.083,6.65,18.733,18.733,0,0,1-1.1,6.669A10.4,10.4,0,0,1,133.4-1.2,7.072,7.072,0,0,1,128.82.418ZM128.858-.8q2.584,0,3.952-2.964t1.368-8.588a21.068,21.068,0,0,0-1.368-8.55q-1.368-2.964-3.952-2.964T124.906-20.9a21.069,21.069,0,0,0-1.368,8.55q0,5.624,1.368,8.588T128.858-.8ZM148.732.418a7.049,7.049,0,0,1-4.56-1.6,10.2,10.2,0,0,1-3.059-4.5,19.03,19.03,0,0,1-1.083-6.669A18.871,18.871,0,0,1,141.113-19a10.133,10.133,0,0,1,3.078-4.484,7.125,7.125,0,0,1,4.579-1.6,7.179,7.179,0,0,1,4.579,1.577,10,10,0,0,1,3.078,4.465,18.871,18.871,0,0,1,1.083,6.65,18.733,18.733,0,0,1-1.1,6.669,10.4,10.4,0,0,1-3.1,4.522A7.072,7.072,0,0,1,148.732.418ZM148.77-.8q2.584,0,3.952-2.964t1.368-8.588a21.068,21.068,0,0,0-1.368-8.55q-1.368-2.964-3.952-2.964T144.818-20.9a21.068,21.068,0,0,0-1.368,8.55q0,5.624,1.368,8.588T148.77-.8ZM168.644.418a7.049,7.049,0,0,1-4.56-1.6,10.2,10.2,0,0,1-3.059-4.5,19.03,19.03,0,0,1-1.083-6.669A18.871,18.871,0,0,1,161.025-19a10.133,10.133,0,0,1,3.078-4.484,7.125,7.125,0,0,1,4.579-1.6,7.179,7.179,0,0,1,4.579,1.577,10,10,0,0,1,3.078,4.465,18.871,18.871,0,0,1,1.083,6.65,18.733,18.733,0,0,1-1.1,6.669,10.4,10.4,0,0,1-3.1,4.522A7.072,7.072,0,0,1,168.644.418ZM168.682-.8q2.584,0,3.952-2.964T174-12.35a21.068,21.068,0,0,0-1.368-8.55q-1.368-2.964-3.952-2.964T164.73-20.9a21.068,21.068,0,0,0-1.368,8.55q0,5.624,1.368,8.588T168.682-.8Z" transform="translate(301.046 2319)" fill="#fff"/>
      <path id="パス_727" data-name="パス 727" d="M4.367-6.71a9.206,9.206,0,0,1-.55.979h-2.8L.583-5.819V-5.2l.429-.088h2.5A10.13,10.13,0,0,1,.44-2.75l.143.3a8.846,8.846,0,0,0,3.96-2.838H6.369A6.83,6.83,0,0,0,10.021-2.2a4.111,4.111,0,0,1,.539-.957A7.045,7.045,0,0,1,6.809-5.291H9.977l.44.088v-.616l-.44.088H4.84a7.959,7.959,0,0,0,.572-1.056c.407-.033.781-.066.9-.077.462-.033.77-.066.9-.077.088-.011.286-.033.583-.066.077-.011.319-.044.583-.077a7.743,7.743,0,0,1,.946.957l.858-.693A10.888,10.888,0,0,0,6.864-8.613l-.242.253c.715.484,1.034.7,1.353.946-.913.033-2.035.055-3.784.066l-.473.011A7,7,0,0,0,4.884-8.558c.275-.055.385-.121.385-.242,0-.1-.088-.176-.242-.209L4.059-9.24a9.8,9.8,0,0,1-.913,1.9c-.594.011-.726.011-.957.011-.308,0-.737-.011-1.309-.022l.286.8c.066.165.132.242.231.242s.187-.077.286-.264c.462-.022.869-.033,1.012-.044.286-.022.561-.033.836-.055ZM.968.88C4.73.7,6.919.165,9.317-1.155a2.366,2.366,0,0,0,.253.022c.143,0,.253-.077.253-.176,0-.055-.033-.1-.11-.154L8.9-2.024A16.509,16.509,0,0,1,.924.517Zm.22-2.343a11.243,11.243,0,0,0,4.7-2.266h.143c.165,0,.275-.066.275-.154q0-.066-.1-.132L5.48-4.532A11.648,11.648,0,0,1,1.111-1.771ZM1.573-.319a13.677,13.677,0,0,0,5.8-2.09,1.4,1.4,0,0,0,.209.011c.143,0,.264-.066.264-.165a.192.192,0,0,0-.1-.143l-.737-.539A13.357,13.357,0,0,1,1.474-.671Zm14.388-5.72V-7.5h2.057l.44.088V-8.03l-.44.088H15.961v-.924c.143-.11.176-.154.176-.22,0-.11-.077-.154-.231-.154h-.858v1.3H12.716l-.429-.088v.616l.429-.088h2.332v1.463h-3.1l-.44-.088v.616l.44-.088h4.521l-.033.022A19.48,19.48,0,0,1,14.764-4.42l-.024.02-.64-.1-.11.55a28.223,28.223,0,0,1-2.55,1.31l.121.286a17.607,17.607,0,0,0,2.3-.924c-.154.726-.319,1.4-.55,2.233h.99c.055-.209.121-.528.209-.946h4.95C19.206.176,19.107.352,18.26.363H17.039V.825H18.7c1.309-.011,1.419-.231,1.749-3.256H14.6l.022-.143.033-.132c.011-.044.033-.187.077-.385.011-.1.033-.22.066-.385l.693-.033A29.919,29.919,0,0,0,19.9-3.927a1.379,1.379,0,0,0,.341.044c.11,0,.2-.066.2-.143,0-.044-.022-.088-.143-.2l-.6-.55a22.106,22.106,0,0,1-4.246.847l-.22.033L15-3.874A22.371,22.371,0,0,0,17.611-5.6h3.443l.44.088v-.616l-.44.088H18.161A18.456,18.456,0,0,0,20.3-8.107c.352-.033.473-.1.473-.22,0-.077-.055-.143-.2-.209l-.715-.4a16.9,16.9,0,0,1-2.827,2.893Zm11.649-.1H25.729v6.9h.814v-.7H31.2V.682h.847v-6.82H30.118V-8.283h2l.44.088v-.616l-.44.088h-6.18l-.429-.088v.616l.429-.088H27.61Zm.759-2.145h.99v2.145h-.99Zm0,2.585h.99V-.385h-.99ZM27.61-.385H26.543V-5.7H27.61ZM30.118-5.7H31.2V-.385H30.118ZM24.574-6.787c.231-.649.33-.957.583-1.771.176-.033.264-.11.264-.22,0-.088-.077-.154-.187-.187L24.31-9.24a26.072,26.072,0,0,1-1.87,5.973l.231.176a11.922,11.922,0,0,0,1.045-1.694v5.6h.858ZM36.685-2.541a10.587,10.587,0,0,0,3.564-2.09A10.625,10.625,0,0,0,43.142-2.8a3.644,3.644,0,0,1,.418-.858,11.384,11.384,0,0,1-2.794-1.485A11.368,11.368,0,0,0,42.8-8.063H39.226l.011-.033c.121-.231.132-.253.275-.561.209-.077.3-.143.3-.22a.206.206,0,0,0-.11-.154l-.935-.209a10.231,10.231,0,0,1-.792,2.013A10.169,10.169,0,0,1,36.93-5.544l.22.209a7.473,7.473,0,0,0,1.57-1.837,4.992,4.992,0,0,0,1.012,2,12.072,12.072,0,0,1-3.157,2.354ZM39-7.623h2.64a13.333,13.333,0,0,1-1.463,1.991,4.141,4.141,0,0,1-1.221-1.925ZM35.1.814h.847V-5.027a7.417,7.417,0,0,1,.781,1.672l.682-.594a3.89,3.89,0,0,0-1.463-1.4V-6.49h.8l.44.088v-.616l-.44.088h-.8V-8.811c.132-.1.176-.143.176-.22,0-.1-.077-.143-.231-.143H35.1V-6.93H33.946l-.44-.088V-6.4l.44-.088H35a18.4,18.4,0,0,1-1.56,4.629l.242.165A10.825,10.825,0,0,0,35.1-4.29ZM42.515.748v-3.7H37.906V.814h.869V.286h2.86V.748Zm-3.74-.9V-2.508h2.86V-.154ZM49.247-8.393A9.6,9.6,0,0,0,47.674-3.2a9.6,9.6,0,0,0,1.573,5.192h.6A12.494,12.494,0,0,1,49.071.2a10.785,10.785,0,0,1-.539-3.4,10.785,10.785,0,0,1,.539-3.4,12.494,12.494,0,0,1,.781-1.793ZM52.415.814h.814v-5.1a12.619,12.619,0,0,1,.825,1.9l.737-.649a6.87,6.87,0,0,0-1.562-1.606v-1.21h.913l.429.088V-6.38l-.429.088h-.913V-8.239c.286-.066.33-.077.748-.2a1.412,1.412,0,0,0,.275.044c.143,0,.242-.066.242-.165,0-.066-.022-.1-.11-.176l-.572-.506a13.145,13.145,0,0,1-3.036,1l.033.3a13.165,13.165,0,0,0,1.606-.143v1.793h-1.2l-.44-.088v.616l.44-.088H52.3A18.955,18.955,0,0,1,50.7-1.32l.22.187A9.318,9.318,0,0,0,52.415-3.74ZM54.989-6.82V-3.3h1.144v.033C56.045-1.155,55.4-.033,53.878.583l.143.3C56.034.418,56.969-.88,57.013-3.3h.858V-.1c.033.407.352.638.88.638h1.133c.55,0,.781-.209.825-.77l.121-1.342-.462-.055L60.291-.616c-.033.264-.121.341-.363.352h-.869c-.253-.011-.308-.066-.319-.3V-3.3h1.441V-6.82H58.5a7.537,7.537,0,0,0,1.166-1.749c.22-.022.341-.1.341-.209a.22.22,0,0,0-.176-.2L58.817-9.24a18.659,18.659,0,0,1-.726,2.42Zm.869,3.08V-6.38H59.3v2.64Zm-.682-5.247a8.362,8.362,0,0,1,.979,2.013l.9-.484a4.92,4.92,0,0,0-1.606-1.716ZM63.844-.7A3.007,3.007,0,0,0,66.55.506c.572.033,1.958.066,3.036.066.462,0,1.1-.011,1.969-.022a7.072,7.072,0,0,1,.264-.869c-.715.044-2.53.088-3.894.088A9.317,9.317,0,0,1,64.9-.484a1.944,1.944,0,0,1-.748-.506V-5.06H62.216l-.44-.088v.616l.44-.088h1.056V-.946a12.041,12.041,0,0,1-1.562.594l.352.957a.19.19,0,0,0,.154.121c.11,0,.2-.121.253-.363A10.966,10.966,0,0,0,63.811-.682Zm2.574-8.118-.44-.088v.638l.44-.088h1.793c.011.3.011.429.022.572A9.912,9.912,0,0,1,64.691-1.4l.143.264a7.159,7.159,0,0,0,3.674-4.5,7.153,7.153,0,0,0,2.717,4.389c.275-.473.319-.539.594-.979a6.389,6.389,0,0,1-2.53-3.036,9.384,9.384,0,0,1-.572-3.553Zm-1.859.759a5.049,5.049,0,0,0-2.2-.814l-.132.275a7.705,7.705,0,0,1,1.727,1.529Zm8.129-.33A13.05,13.05,0,0,1,73.469-6.6a10.835,10.835,0,0,1,.539,3.4A10.784,10.784,0,0,1,73.469.2a12.493,12.493,0,0,1-.781,1.793h.605A9.628,9.628,0,0,0,74.866-3.2a9.628,9.628,0,0,0-1.573-5.192Z" transform="translate(221.56 2318)" fill="#fff"/>
    </g>
    <path id="パス_725" data-name="パス 725" d="M8.712-8.91A12.2,12.2,0,0,1,7.92-4.374C7.128-2.448,5.166-.846,2.232.27l.18.54A12.742,12.742,0,0,0,7.56-1.512c1.872-1.53,2.7-3.546,2.844-6.966a2.434,2.434,0,0,1,.036-.432h5.634l.792.162V-9.9l-.792.162H10.458c.018-.486.018-.882.018-1.134v-2.61c.27-.18.36-.306.36-.45a.339.339,0,0,0-.342-.324l-1.908-.126.162,1.134v2.376c0,.252,0,.648-.018,1.134H2.052L1.26-9.9v1.152l.792-.162ZM20.61.414c6.534-1.3,10.08-5.256,11.916-13.32.288-.108.432-.234.432-.4,0-.144-.126-.27-.342-.324l-1.8-.486L30.744-13C29.25-6.084,25.974-1.98,20.448-.126ZM44.46-12.114c.2-.4.36-.792.63-1.494.342-.162.468-.27.468-.468,0-.162-.126-.27-.4-.324l-1.692-.36-.18,1.026A15.347,15.347,0,0,1,38.448-6.57l.288.432a12.078,12.078,0,0,0,5.292-5.148h5.634A15.719,15.719,0,0,1,45.27-3.222,17.691,17.691,0,0,1,38.52.306l.108.54c3.42-.63,5.256-1.332,7.236-2.754,2.97-2.16,4.95-5.652,5.778-10.206Zm18.558,3.33a1.955,1.955,0,0,0-1.395.56,1.955,1.955,0,0,0-.585,1.384,1.955,1.955,0,0,0,.573,1.389A1.955,1.955,0,0,0,63-4.878,1.963,1.963,0,0,0,64.944-6.84a1.968,1.968,0,0,0-1.926-1.944ZM81.936-10.3h5.652l.792.162V-11.29l-.792.162H81.936V-13.68c.252-.18.36-.306.36-.468a.324.324,0,0,0-.107-.224.324.324,0,0,0-.235-.082l-1.818-.126L80.3-13.5v2.376H74.54l-.792-.162v1.152l.792-.162H80.3v9.234c0,.612-.27.882-.9.882H77.562V.648h3.024c.936.018,1.35-.432,1.35-1.458Zm1.782,2.142a22.38,22.38,0,0,1,3.6,6.732l1.728-.9A12.965,12.965,0,0,0,84.078-8.46ZM73.206-1.35A12.405,12.405,0,0,0,77.958-7.2c.324-.126.45-.252.45-.432a.38.38,0,0,0-.27-.342l-1.692-.612-.216.99a16.657,16.657,0,0,1-3.348,5.85ZM94.716.162c7.416-.774,11.016-5,11.412-13.356H92.376v5.688h1.71v-4.86h10.1c-.36,6.732-3.294,10.386-9.54,11.934Zm24.264-9.81a46.276,46.276,0,0,0,3.834-3.384c.486-.054.684-.18.684-.432a.558.558,0,0,0-.288-.414l-1.386-.918-.648.972a35.018,35.018,0,0,1-11.808,8.19l.2.54a23.741,23.741,0,0,0,7.74-3.348v9.4h1.674Zm14.508-4.068c.234-.126.36-.27.36-.432s-.144-.288-.36-.306l-1.8-.126.126,1.08V.864h1.674v-9.54A17.881,17.881,0,0,1,140.2-4.032l1.224-1.638a19.21,19.21,0,0,0-7.938-3.672Z" transform="translate(222 2257.806)" fill="#fff"/>
    <path id="パス_724" data-name="パス 724" d="M3.48-.864H5.592V-14.688H2.616L1.368-11.376H.48v-4.176H12.7v4.176h-.888l-1.2-3.312H7.632V-.864H9.744V0H3.48ZM27.048-14.688V-.864h1.92V0H23.136V-.864h1.872V-7.752h-7.08V-.864H19.8V0H13.968V-.864h1.92V-14.688h-1.92v-.864H19.8v.864H17.928v6.024h7.08v-6.024H23.136v-.864h5.832v.864ZM42.432-4.224V0H30.552V-.864h1.92V-14.688h-1.92v-.864H42.24v4.176h-.912l-1.272-3.312H34.512v6.024H38.28v-1.848h1.1V-5.9h-1.1V-7.752H34.512V-.864h5.736l1.272-3.36Zm7.536,3.36h1.92V-14.688h-1.92v-.864H53.88L61.1-3.888v-10.8H59.18v-.864h4.872v.864h-1.92V0h-1.1L52.92-13.224V-.864h1.92V0H49.968ZM77.28-4.224V0H65.4V-.864h1.92V-14.688H65.4v-.864H77.088v4.176h-.912L74.9-14.688H69.36v6.024h3.768v-1.848h1.1V-5.9h-1.1V-7.752H69.36V-.864H75.1l1.272-3.36Zm23.88-10.464H99.384L95.232,0h-1.1l-4.3-12.144L85.92,0h-1.1l-4.4-14.688h-1.9v-.864h6v.864H82.6L85.9-3.24l3.912-12.216H90.82L95.208-3.312l3.144-11.376h-1.9v-.864h4.7ZM108.216-.864h1.92V-14.688h-1.92v-.864h4.1L117.6-3.528l5.088-12.024H126.7v.864h-1.92V-.864h1.92V0h-5.88V-.864h1.92v-12.12L117.6-.888h-1.1L111.168-13.08V-.864h1.848V0h-4.8Zm26.808,0V0H128.28V-.864h2.352V-14.688h-2.256v-.864h6.552v.864h-2.256V-.864Zm1.584,0h1.92V-14.688h-1.92v-.864h3.912l7.224,11.664v-10.8h-1.92v-.864H150.7v.864h-1.92V0h-1.1l-8.12-13.224V-.864h1.92V0h-4.872Zm22.176,0V0H152.04V-.864h2.352V-14.688h-2.256v-.864h6.552v.864h-2.256V-.864ZM173.16.288a6.33,6.33,0,0,1-3.924-1.152,6.466,6.466,0,0,1-2.2-2.94,10.588,10.588,0,0,1-.672-3.756,11.369,11.369,0,0,1,.7-3.972,6.913,6.913,0,0,1,2.232-3.1,6.084,6.084,0,0,1,3.888-1.212,7.31,7.31,0,0,1,2.7.444,8.05,8.05,0,0,1,2,1.14v2.88H176.52a4.27,4.27,0,0,0-1.152-2.808,3.336,3.336,0,0,0-2.352-.888,3.773,3.773,0,0,0-3.4,1.716A7.988,7.988,0,0,0,168.5-8.928a14.67,14.67,0,0,0,.516,3.96,7.182,7.182,0,0,0,1.6,3.012A3.517,3.517,0,0,0,173.3-.792a4.2,4.2,0,0,0,2.6-.888,4.176,4.176,0,0,0,1.536-2.568h.912a5.458,5.458,0,0,1-.96,2.328A5.358,5.358,0,0,1,175.536-.3a4.978,4.978,0,0,1-2.376.588Zm13.464,0a6.1,6.1,0,0,1-3.756-1.1A6.307,6.307,0,0,1,180.72-3.68a10.528,10.528,0,0,1-.672-3.78,11.612,11.612,0,0,1,.684-3.948,7.054,7.054,0,0,1,2.244-3.168,6.139,6.139,0,0,1,3.984-1.26,6.207,6.207,0,0,1,3.78,1.1,6.487,6.487,0,0,1,2.208,2.868,9.989,9.989,0,0,1,.708,3.756,11.123,11.123,0,0,1-.72,3.935,7.349,7.349,0,0,1-2.292,3.193,6.187,6.187,0,0,1-4.02,1.272ZM187.2-.5a3.531,3.531,0,0,0,3.216-1.764A8.968,8.968,0,0,0,191.5-6.98a14.261,14.261,0,0,0-.516-3.876,6.994,6.994,0,0,0-1.644-3.012,3.846,3.846,0,0,0-2.9-1.176,3.447,3.447,0,0,0-3.2,1.74,8.658,8.658,0,0,0-1.02,4.428,13.365,13.365,0,0,0,1.2,5.928A3.973,3.973,0,0,0,187.2-.5Zm15.048.792a6.1,6.1,0,0,1-3.756-1.1,6.307,6.307,0,0,1-2.148-2.868,10.528,10.528,0,0,1-.672-3.78,11.612,11.612,0,0,1,.684-3.948A7.054,7.054,0,0,1,198.6-14.58a6.139,6.139,0,0,1,3.984-1.26,6.207,6.207,0,0,1,3.78,1.1,6.487,6.487,0,0,1,2.208,2.868,9.989,9.989,0,0,1,.708,3.756,11.123,11.123,0,0,1-.72,3.935,7.349,7.349,0,0,1-2.292,3.193,6.187,6.187,0,0,1-4.02,1.276Zm.576-.792a3.531,3.531,0,0,0,3.216-1.764,8.968,8.968,0,0,0,1.08-4.716,14.261,14.261,0,0,0-.516-3.876,6.994,6.994,0,0,0-1.644-3.012,3.846,3.846,0,0,0-2.9-1.176,3.447,3.447,0,0,0-3.2,1.74,8.658,8.658,0,0,0-1.02,4.428,13.365,13.365,0,0,0,1.2,5.928A3.973,3.973,0,0,0,202.824-.5Zm15.1-15.048a4.919,4.919,0,0,1,3.528,1.128,3.875,3.875,0,0,1,1.176,2.928,4.184,4.184,0,0,1-.564,2.16,4.013,4.013,0,0,1-1.632,1.524,5.3,5.3,0,0,1-2.508.564H214.9v6.38h1.92V0h-5.88V-.864h1.92V-14.688h-1.92v-.864Zm-.288,7.392a2.455,2.455,0,0,0,1.956-.924,3.539,3.539,0,0,0,.78-2.364,3.532,3.532,0,0,0-.744-2.364,2.481,2.481,0,0,0-1.992-.876H214.9V-8.16ZM235.9-4.224V0H224.02V-.864h1.92V-14.688h-1.92v-.864H235.7v4.176h-.912l-1.272-3.312h-5.544v6.024h3.768v-1.848h1.1V-5.9h-1.1V-7.752h-3.768V-.864h5.736l1.272-3.36Zm16.08,3.36V0H248.3l-4.56-7.176h-2.232V-.864h1.9V0h-5.856V-.864h1.92V-14.688h-1.92v-.864h6.984a4.822,4.822,0,0,1,3.528,1.164,3.993,3.993,0,0,1,1.176,2.964,4.1,4.1,0,0,1-.888,2.676,4.156,4.156,0,0,1-2.424,1.428l4.32,6.456ZM241.512-8.088h2.76a2.455,2.455,0,0,0,1.956-.924,3.539,3.539,0,0,0,.78-2.364,3.639,3.639,0,0,0-.756-2.4,2.448,2.448,0,0,0-1.98-.912h-2.76ZM265.68.288a6.33,6.33,0,0,1-3.924-1.152,6.466,6.466,0,0,1-2.2-2.94,10.588,10.588,0,0,1-.672-3.756,11.369,11.369,0,0,1,.7-3.972,6.913,6.913,0,0,1,2.232-3.1A6.084,6.084,0,0,1,265.7-15.84a7.31,7.31,0,0,1,2.7.444,8.051,8.051,0,0,1,2,1.14v2.88h-1.36a4.27,4.27,0,0,0-1.152-2.808,3.336,3.336,0,0,0-2.352-.888,3.773,3.773,0,0,0-3.4,1.716,7.988,7.988,0,0,0-1.116,4.428,14.67,14.67,0,0,0,.516,3.96,7.182,7.182,0,0,0,1.6,3.012,3.517,3.517,0,0,0,2.688,1.164,4.2,4.2,0,0,0,2.592-.888,4.176,4.176,0,0,0,1.536-2.568h.912a5.458,5.458,0,0,1-.96,2.328A5.358,5.358,0,0,1,268.056-.3a4.978,4.978,0,0,1-2.376.588Zm8.256-.024a1.389,1.389,0,0,1-1.02-.42,1.389,1.389,0,0,1-.42-1.02,1.389,1.389,0,0,1,.42-1.02,1.389,1.389,0,0,1,1.02-.42,1.389,1.389,0,0,1,1.02.42,1.389,1.389,0,0,1,.42,1.02,1.389,1.389,0,0,1-.42,1.02,1.389,1.389,0,0,1-1.02.42ZM12.48,10.448v4.176h-.912L10.3,11.312H4.752v6.024H8.52V15.488h1.1V20.1H8.52V18.248H4.752v6.888H6.816V26H.792v-.864h1.92V11.312H.792v-.864ZM26.208,25.136V26H20.64v-.864h1.752l-1.728-4.872H15.5l-1.728,4.872h1.752V26H11.04v-.864h1.7l5.3-14.688h1.128L24.5,25.136Zm-5.88-5.784L18.12,13.136h-.1l-2.208,6.216Zm19.056-8.04h-1.8L32.424,26h-1.1l-5.26-14.688h-1.92v-.864H30.12v.864H28.2L32.4,23.1l4.2-11.784H34.68v-.864h4.7Zm6.768,14.976a6.1,6.1,0,0,1-3.756-1.1,6.307,6.307,0,0,1-2.148-2.868,10.528,10.528,0,0,1-.672-3.78,11.612,11.612,0,0,1,.684-3.948A7.054,7.054,0,0,1,42.5,11.42a6.139,6.139,0,0,1,3.984-1.26,6.207,6.207,0,0,1,3.78,1.1,6.487,6.487,0,0,1,2.208,2.868,9.989,9.989,0,0,1,.708,3.756,11.123,11.123,0,0,1-.72,3.935,7.349,7.349,0,0,1-2.292,3.193,6.187,6.187,0,0,1-4.016,1.276Zm.576-.792a3.531,3.531,0,0,0,3.216-1.764,8.968,8.968,0,0,0,1.08-4.716,14.262,14.262,0,0,0-.516-3.876,6.994,6.994,0,0,0-1.644-3.012,3.846,3.846,0,0,0-2.9-1.176,3.447,3.447,0,0,0-3.2,1.74,8.657,8.657,0,0,0-1.02,4.428,13.365,13.365,0,0,0,1.2,5.928A3.973,3.973,0,0,0,46.728,25.5Zm14.976.792a5.315,5.315,0,0,1-3.816-1.344,5.075,5.075,0,0,1-1.416-3.864V11.312h-1.92v-.864h5.88v.864h-1.92V21.32a3.882,3.882,0,0,0,1,2.952,3.682,3.682,0,0,0,2.628.936,3.828,3.828,0,0,0,2.676-.948,3.749,3.749,0,0,0,1.044-2.916V11.312h-1.9v-.864h4.824v.864h-1.9V21.44a4.593,4.593,0,0,1-1.416,3.528,5.3,5.3,0,0,1-3.768,1.32Zm22.8-1.152V26H80.832l-4.56-7.176H74.04v6.312h1.9V26H70.08v-.864H72V11.312H70.08v-.864h6.984a4.822,4.822,0,0,1,3.528,1.164,3.993,3.993,0,0,1,1.176,2.964,4.1,4.1,0,0,1-.888,2.676,4.156,4.156,0,0,1-2.424,1.428l4.32,6.456ZM74.04,17.912H76.8a2.455,2.455,0,0,0,1.956-.924,3.539,3.539,0,0,0,.78-2.364,3.639,3.639,0,0,0-.756-2.4,2.448,2.448,0,0,0-1.98-.912H74.04ZM97.3,21.776V26H85.416v-.864h1.92V11.312h-1.92v-.864H97.1v4.176h-.912L94.92,11.312H89.376v6.024h3.768V15.488h1.1V20.1h-1.1V18.248H89.376v6.888h5.736l1.272-3.36Zm8.952-11.328q3.528,0,5.16,2.076a8.5,8.5,0,0,1,1.632,5.412,10.745,10.745,0,0,1-.708,3.9,6.753,6.753,0,0,1-2.232,3A6.163,6.163,0,0,1,106.248,26h-7.3v-.864h1.92V11.312h-1.92v-.864Zm0,14.688a3.712,3.712,0,0,0,3.528-2.088,10.884,10.884,0,0,0,1.1-5.136,8.857,8.857,0,0,0-1.14-4.824,3.861,3.861,0,0,0-3.492-1.776h-3.336V25.136Zm17.016,0h2.112V11.312H122.4l-1.248,3.312h-.888V10.448H132.48v4.176h-.888l-1.2-3.312h-2.976V25.136h2.112V26h-6.264Zm24.912,0V26H144.5l-4.56-7.176h-2.232v6.312h1.9V26h-5.856v-.864h1.92V11.312h-1.92v-.864h6.984a4.822,4.822,0,0,1,3.528,1.164,3.993,3.993,0,0,1,1.176,2.964,4.1,4.1,0,0,1-.888,2.676,4.156,4.156,0,0,1-2.424,1.428l4.32,6.456Zm-10.464-7.224h2.76a2.455,2.455,0,0,0,1.956-.924,3.539,3.539,0,0,0,.78-2.364,3.639,3.639,0,0,0-.756-2.4,2.448,2.448,0,0,0-1.98-.912h-2.76Zm18.12,7.224V26h-6.744v-.864h2.352V11.312h-2.256v-.864h6.552v.864h-2.26V25.136Zm1.584,0h1.92V11.312h-1.92v-.864h4.1l5.28,12.024,5.088-12.024H175.9v.864h-1.92V25.136h1.92V26h-5.88v-.864h1.92V13.016l-5.136,12.1h-1.1l-5.336-12.2V25.136h1.848V26h-4.8Z" transform="translate(222 2206.722)" fill="#fff"/>
  </g>
</svg>
