<svg xmlns="http://www.w3.org/2000/svg" width="88" height="36" viewBox="0 0 88 36">
  <g id="btn03-sp" transform="translate(-537 6992)">
    <rect id="長方形_8" data-name="長方形 8" width="88" height="36" rx="12" transform="translate(537 -6992)" fill="#58c4e5"/>
    <path id="パス_653" data-name="パス 653" d="M7.452-2.1V1.08H8.724V-2.1h2.412l.5.1v-.768l-.5.1H8.724V-4.584h1.74l.5.1v-.768l-.5.1H8.724v-1.8h2.148l.5.1v-.768l-.5.1H9.192A10.368,10.368,0,0,0,10.4-9.324c.252-.048.372-.144.372-.276,0-.108-.084-.192-.252-.24L9.24-10.2a15.745,15.745,0,0,1-.66,2.508l-.06.156H5.4l-.492-.1v.768l.492-.1H7.452v1.8h-1.7l-.5-.1v.768l.5-.1h1.7v1.908H5.244l-.492-.1V-2l.492-.1ZM1.956.228H3.372v.48H4.44V-2.94H.888V.828H1.956Zm0-.576V-2.364H3.372V-.348ZM3.912-9.672H1.368l-.5-.1v.816l.5-.1H3.912l.5.1v-.816Zm.216,1.68H.864l-.5-.1v.816l.5-.1H4.128l.5.1v-.816Zm-.216,1.68H1.392l-.5-.1v.816l.5-.1h2.52l.5.1v-.816Zm0,1.68H1.392l-.5-.1v.816l.5-.1h2.52l.5.1v-.816Zm1.608-5.2a8.819,8.819,0,0,1,.9,2.112L7.632-8.34a5,5,0,0,0-1.68-1.716Zm9.144.036.072.84-.1,3.972c-.012.42-.012.732-.012,1.02,0,1.98.24,2.964.876,3.588a3.848,3.848,0,0,0,2.64.948,4.349,4.349,0,0,0,3.78-1.992,6.749,6.749,0,0,0,.84-2.436l-.54-.168a5.91,5.91,0,0,1-.972,1.908,3.909,3.909,0,0,1-3.06,1.476,2.188,2.188,0,0,1-1.68-.72A3.361,3.361,0,0,1,16-3.564c0-.408,0-.888.012-1.32l.108-4.188c.156-.144.216-.24.216-.348,0-.168-.144-.276-.384-.288Zm16.4.444a26.316,26.316,0,0,1-2.94,2.484c-1.884,1.4-2.112,1.62-2.112,1.956,0,.288.132.42,1.176,1.14a17.989,17.989,0,0,1,4.62,4.62L33.264-.06a19.382,19.382,0,0,0-5.712-4.572c-.372-.216-.492-.3-.492-.348s.108-.132.588-.408a34.441,34.441,0,0,0,4.944-3.348c.252-.024.36-.1.36-.264,0-.1-.072-.18-.24-.288L31.6-10.02ZM43.86-3.132a5.931,5.931,0,0,0-1.524-.2c-1.332,0-2.256.756-2.256,1.848a1.7,1.7,0,0,0,.492,1.224A3.167,3.167,0,0,0,42.756.5,2.4,2.4,0,0,0,44.9-.408a1.586,1.586,0,0,0,.252-.984v-.156A8.061,8.061,0,0,1,46.812-.264l.732-1.188a9.284,9.284,0,0,0-2.4-1.368L45.06-6.708c.8-.048,1.476-.108,2.2-.216l.024-1.008-.816.36a14.272,14.272,0,0,1-1.416.18l-.036-1.68c.156-.132.228-.24.228-.36a.253.253,0,0,0-.264-.228l-1.344-.084.108.732.036,1.692c-.492.012-.864.024-1.188.024-.384,0-.972-.024-1.74-.06l-.792-.228.084.924c.744.024,1.2.036,2.076.036.732,0,1.176-.012,1.572-.024Zm.036,1.38a1.3,1.3,0,0,1-.168.732,1.361,1.361,0,0,1-1.2.48,2.479,2.479,0,0,1-1.392-.4.708.708,0,0,1-.324-.612c0-.564.516-.9,1.38-.9a3.9,3.9,0,0,1,1.692.384A.8.8,0,0,1,43.9-1.9ZM39.036.276a27.151,27.151,0,0,1-.348-4.344,38.454,38.454,0,0,1,.348-4.812c.18-.132.252-.216.252-.324,0-.144-.144-.264-.348-.288l-1.26-.18.012.744a51.31,51.31,0,0,0-.3,5.2A28.621,28.621,0,0,0,37.68.492Z" transform="translate(546.5 -6969)" fill="#fff"/>
    <g id="btn_link" transform="translate(599.622 -6982.069)">
      <g id="パス_649" data-name="パス 649" transform="translate(-7.241 -7.24)" fill="none" stroke-miterlimit="10">
        <path d="M23.119,15.309c-.035,2.586-.487,4.727-1.8,6.006-1.279,1.315-3.421,1.768-6.007,1.8-2.586-.035-4.727-.488-6.007-1.8-1.315-1.279-1.768-3.421-1.8-6.007.035-2.586.488-4.727,1.8-6.007,1.279-1.315,3.421-1.768,6.007-1.8,2.586.035,4.727.487,6.007,1.8C22.632,10.582,23.085,12.723,23.119,15.309Z" stroke="none"/>
        <path d="M 15.31006622314453 23.11813545227051 C 17.8958568572998 23.08354568481445 20.03728675842285 22.63062477111816 21.31657600402832 21.31555557250977 C 22.63164710998535 20.03627395629883 23.08454704284668 17.89485549926758 23.11913681030273 15.3090648651123 C 23.08454704284668 12.72327518463135 22.63164710998535 10.5818452835083 21.31657600402832 9.302535057067871 C 20.03728675842285 7.987484931945801 17.89583587646484 7.534584999084473 15.31006622314453 7.500004768371582 C 12.72427654266357 7.534564971923828 10.58284664154053 7.987484931945801 9.303556442260742 9.302555084228516 C 7.988506317138672 10.5818452835083 7.535596370697021 12.72329521179199 7.500996112823486 15.3090648651123 C 7.535596370697021 17.89484405517578 7.988506317138672 20.03628540039062 9.303556442260742 21.31557464599609 C 10.58284664154053 22.63062477111816 12.72428607940674 23.08353424072266 15.31006622314453 23.11813545227051 M 15.31006622314453 24.11822509765625 L 15.29668617248535 24.11804580688477 C 12.08180713653564 24.07502746582031 9.95210075378418 23.40911102294922 8.596394538879395 22.02273559570312 C 7.210020065307617 20.66703033447266 6.544103622436523 18.53732490539551 6.501086235046387 15.32244491577148 L 6.500905990600586 15.3090648651123 L 6.501086235046387 15.29568481445312 C 6.544103622436523 12.08080577850342 7.210017681121826 9.951101303100586 8.596392631530762 8.595396041870117 C 9.952117919921875 7.208981513977051 12.08182716369629 6.543062210083008 15.296706199646 6.500094890594482 L 15.31006622314453 6.499914646148682 L 15.32343578338623 6.500094890594482 C 18.53832626342773 6.543092250823975 20.66802215576172 7.208998680114746 22.02373695373535 8.595373153686523 C 23.41012191772461 9.951099395751953 24.0760383605957 12.08080577850342 24.11904716491699 15.29568481445312 L 24.11922645568848 15.3090648651123 L 24.11904716491699 15.32244491577148 C 24.0760383605957 18.53733444213867 23.41011810302734 20.66703414916992 22.02373313903809 22.02272033691406 C 20.66801834106445 23.40911483764648 18.53832626342773 24.07503700256348 15.32344627380371 24.11804580688477 L 15.31006622314453 24.11822509765625 Z" stroke="none" fill="#fff"/>
      </g>
      <g id="arrow" transform="translate(3.823 8.069) rotate(-45)">
        <line id="線_1" data-name="線 1" x1="5.849" transform="translate(0 2.925)" fill="none" stroke="#fff" stroke-miterlimit="10" stroke-width="1"/>
        <path id="パス_650" data-name="パス 650" d="M0,0,2.925,2.925,0,5.849" transform="translate(2.925 0)" fill="none" stroke="#fff" stroke-miterlimit="10" stroke-width="1"/>
      </g>
    </g>
  </g>
</svg>
