<svg xmlns="http://www.w3.org/2000/svg" width="72" height="36" viewBox="0 0 72 36">
  <g id="btn01-sp" transform="translate(-629 6992)">
    <g id="長方形_9" data-name="長方形 9" transform="translate(629 -6992)" stroke="#707070" stroke-width="1">
      <rect width="72" height="36" rx="12" stroke="none"/>
      <rect x="0.5" y="0.5" width="71" height="35" rx="11.5" fill="none"/>
    </g>
    <path id="パス_654" data-name="パス 654" d="M4.344-7.284V-5.22a6.007,6.007,0,0,0-1.8.84A3.031,3.031,0,0,0,1.1-1.908,2.721,2.721,0,0,0,4.08.66C5.124.66,5.616.18,5.616-.828V-4.716a5.643,5.643,0,0,1,1.176-.12,3.627,3.627,0,0,1,1.788.384A2.208,2.208,0,0,1,9.636-2.46,2.28,2.28,0,0,1,9.12-.948a1.85,1.85,0,0,1-1.308.6A2.482,2.482,0,0,1,6.66-.672L6.408-.24a2.506,2.506,0,0,0,1.8.7,2.744,2.744,0,0,0,2.82-2.82A2.984,2.984,0,0,0,9.564-4.992a5.471,5.471,0,0,0-2.748-.576,7.019,7.019,0,0,0-1.2.1V-7.344A25.5,25.5,0,0,0,8.652-7.62l.06-1.056-.816.42a15.175,15.175,0,0,1-2.244.24H5.616V-9.4c.18-.12.252-.216.252-.312,0-.144-.132-.24-.336-.252L4.26-10.044l.084.852v1.236H3.756c-.528,0-.876-.012-1.524-.06L1.4-8.28l.084.936c1.188.048,1.7.06,2.148.06h.672Zm0,6.372c0,.516-.132.708-.492.708A1.65,1.65,0,0,1,2.316-1.932a2.327,2.327,0,0,1,.612-1.524A3.4,3.4,0,0,1,4.344-4.4Zm4.476-8.2a7.805,7.805,0,0,1,1.5,2.58l1.224-.7a4.314,4.314,0,0,0-2.46-2.16ZM15.36-4.26v4.2h1.176v-.8h4.02v-3.4Zm1.176.576H19.38V-1.44H16.536Zm.876-6.108H12.84V1h1.236V-5.412h3.336Zm-3.336.576h2.208v1.284H14.076Zm2.208,1.86v1.368H14.076V-7.356Zm6.864-2.436H18.432v4.38h3.48V-.2a.492.492,0,0,1-.576.576H20.184V1H22c.792.024,1.176-.36,1.152-1.14ZM21.912-7.356v1.368H19.56V-7.356Zm0-.576H19.56V-9.216h2.352Zm8.52-1.62.036-.06c.2-.072.288-.156.288-.264s-.1-.168-.24-.192L29.16-10.2a16.224,16.224,0,0,1-4.8,5.16l.24.456A12.523,12.523,0,0,0,30.1-9.06a10.123,10.123,0,0,0,4.9,4.26,8.714,8.714,0,0,1,.648-1.488,11.867,11.867,0,0,1-5.22-3.24ZM34.08.96V-3.8H25.92V1H27.3V.276h5.4V.96ZM27.3-.348V-3.18h5.4V-.348Zm.348-4.872H32.3l.5.1V-5.94l-.5.1H27.648l-.5-.1v.816ZM40.38-6.432v-2.28c.18-.132.24-.216.24-.324a.243.243,0,0,0-.2-.228l-1.428-.12.1.768V-6.4L37.3-6.348l-.684-.18.084.888,2.388-.072V-4.1a7.956,7.956,0,0,0,.444,3.432c.4.708,1.428.984,3.66.984A21.827,21.827,0,0,0,45.8.156V-1.176a13.512,13.512,0,0,1-3.324.312c-1.1,0-1.62-.156-1.824-.528A7.787,7.787,0,0,1,40.38-4.2V-5.748l3.324-.1v.312c0,.864-.048,2.16-.1,2.9h1.3c.048-.564.084-1.716.1-2.952v-.3l2.34-.06.024-.924-.66.24-1.7.06V-8.712c.18-.132.24-.2.24-.324a.224.224,0,0,0-.2-.228l-1.428-.12.1.768v2.088Z" transform="translate(641 -6969)" fill="#fff"/>
  </g>
</svg>
