<svg xmlns="http://www.w3.org/2000/svg" width="257.193" height="15.946" viewBox="0 0 257.193 15.946">
  <path id="パス_701" data-name="パス 701" d="M-114.257-1.207c-2.057-1.989-2.057-1.989-2.482-2.363a26.349,26.349,0,0,0-3.145-2.465,22.515,22.515,0,0,0,2.652-4.692,3.269,3.269,0,0,1,.544-.918L-117.81-12.8a3.683,3.683,0,0,1-1.513.187l-5.984.085h-.408a7.44,7.44,0,0,1-1.5-.1l.068,2.176a13.4,13.4,0,0,1,1.853-.136c5.355-.085,5.355-.085,5.627-.1l-.187.442a16.386,16.386,0,0,1-5.712,6.919,14.035,14.035,0,0,1-3.4,1.87A6.82,6.82,0,0,1-127.585.425a20.2,20.2,0,0,0,6.477-4.913A32.68,32.68,0,0,1-115.889.561Zm2.533-2.142c.238-.306.306-.391.578-.714.918-1.088,2.346-2.856,3.043-3.791s.765-.986,1.037-.986c.289,0,.289,0,1.377,1.19A89.637,89.637,0,0,0-98.5-.459l1.071-2.329A12.183,12.183,0,0,1-99.042-4.08,56.407,56.407,0,0,1-104.55-9.5c-1.292-1.462-1.683-1.734-2.533-1.734a2.162,2.162,0,0,0-1.156.323,5.754,5.754,0,0,0-1.275,1.343c-2.278,2.856-3.162,3.859-3.655,4.131Zm11.135-9.282a1.966,1.966,0,0,0-1.955,1.955A1.97,1.97,0,0,0-100.589-8.7a1.973,1.973,0,0,0,1.972-1.972A1.97,1.97,0,0,0-100.589-12.631Zm0,.85a1.107,1.107,0,0,1,1.122,1.1,1.121,1.121,0,0,1-1.122,1.122,1.117,1.117,0,0,1-1.1-1.122A1.1,1.1,0,0,1-100.589-11.781Zm7.174,0a19.959,19.959,0,0,1,4.539,2.346l1.088-1.87A27.261,27.261,0,0,0-92.31-13.5ZM-94.758-7.65a19.883,19.883,0,0,1,4.607,2.5L-89.1-7.072a24.033,24.033,0,0,0-4.522-2.312Zm.969,8.194A10.98,10.98,0,0,1-92.6.272c4.182-.833,7.072-2.346,9.231-4.828a14.84,14.84,0,0,0,2.55-4.3,8.778,8.778,0,0,1-1.768-1.513,12.577,12.577,0,0,1-1.972,3.757,10.392,10.392,0,0,1-4.913,3.74,15.559,15.559,0,0,1-4.913,1.1Zm19.567-8.772-1.411.238a9.535,9.535,0,0,1-1.615.153l.357,1.938a8.741,8.741,0,0,1,1.5-.374l1.462-.238L-72.777-.17a7.089,7.089,0,0,1,.136,1.377l2.125-.374a6.507,6.507,0,0,1-.323-1.377l-1.207-6.29,4-.663a5.235,5.235,0,0,0,.629-.119,8.006,8.006,0,0,1-2.89,3.043,4.79,4.79,0,0,1,1.581,1.207,9.656,9.656,0,0,0,3.349-4.42,3.892,3.892,0,0,1,.425-.816l-1.19-1.071a4.291,4.291,0,0,1-1.122.289l-5.083.85-.255-1.309a6.677,6.677,0,0,1-.17-1.309l-2.023.306a5.347,5.347,0,0,1,.323,1.275Zm15.147-5.066a8.544,8.544,0,0,1,.068,1.547c0,4.76-.391,6.953-1.615,8.908A6.984,6.984,0,0,1-62.373-.884,6.05,6.05,0,0,1-60.656.765,10.826,10.826,0,0,0-58.31-2.38c.884-1.751,1.258-3.672,1.377-6.987a35.529,35.529,0,0,1,.17-3.808Zm4.505-.119a7.358,7.358,0,0,1,.068,1.122v.51l-.085,9.588a7.618,7.618,0,0,1-.153,1.8L-53.652.765a7.4,7.4,0,0,1,.731-.306A11.228,11.228,0,0,0-49.3-1.581a10.55,10.55,0,0,0,2.7-3.961,7.126,7.126,0,0,1-1.6-1.6,8.307,8.307,0,0,1-1.666,3.111,6.835,6.835,0,0,1-2.6,1.938l.085-9.673a9.212,9.212,0,0,1,.119-1.615Zm11.526,1.054a11.648,11.648,0,0,1-2.176-.119v2.21a12.248,12.248,0,0,1,2.142-.1h8.092A12.329,12.329,0,0,1-43.86-1.224,6.256,6.256,0,0,1-42.364.8c5.372-2.244,8.381-5.712,9.758-11.271a2.323,2.323,0,0,0,.323.034,1.973,1.973,0,0,0,1.972-1.972,1.97,1.97,0,0,0-1.972-1.955,1.959,1.959,0,0,0-1.955,1.972c-.289.017-.493.034-1,.034Zm10.761-1.156a1.107,1.107,0,0,1,1.122,1.105,1.121,1.121,0,0,1-1.122,1.122,1.117,1.117,0,0,1-1.1-1.122A1.1,1.1,0,0,1-32.283-13.515Zm5.8,2.244a13.073,13.073,0,0,1,1.955-.085h6a13.073,13.073,0,0,1,1.955.085v-2.091a9.673,9.673,0,0,1-1.989.119H-24.5a9.673,9.673,0,0,1-1.989-.119ZM-15.708-9.3a7.436,7.436,0,0,1-1.921.153h-8.092a12.067,12.067,0,0,1-2.21-.119v2.074a17.294,17.294,0,0,1,2.176-.085h8.279A8.845,8.845,0,0,1-20.213-3.3a11.04,11.04,0,0,1-4.726,2.244A5.923,5.923,0,0,1-23.613.918a15.128,15.128,0,0,0,4.454-2.312A12.021,12.021,0,0,0-15.215-7.14a7.665,7.665,0,0,1,.476-1.071ZM.221-13.8a13.6,13.6,0,0,1-3.162,3.179A24.827,24.827,0,0,1-11.866-6.2a6.394,6.394,0,0,1,1.139,1.938A27.544,27.544,0,0,0-4.658-7.021v5.984A9.562,9.562,0,0,1-4.76.8h2.38a12.86,12.86,0,0,1-.085-1.887V-8.347a30.062,30.062,0,0,0,4.012-3.5,7,7,0,0,1,.629-.595Zm20.026,12.6C18.19-3.2,18.19-3.2,17.765-3.57A26.349,26.349,0,0,0,14.62-6.035a22.515,22.515,0,0,0,2.652-4.692,3.27,3.27,0,0,1,.544-.918L16.694-12.8a3.683,3.683,0,0,1-1.513.187L9.2-12.529H8.789a7.44,7.44,0,0,1-1.5-.1l.068,2.176a13.4,13.4,0,0,1,1.853-.136c5.355-.085,5.355-.085,5.627-.1l-.187.442A16.386,16.386,0,0,1,8.942-3.332a14.035,14.035,0,0,1-3.4,1.87A6.82,6.82,0,0,1,6.919.425,20.2,20.2,0,0,0,13.4-4.488,32.68,32.68,0,0,1,18.615.561Zm3.162-9.078a1.878,1.878,0,0,1,.272-.017c.153,0,.153,0,.476.017.374,0,1.87.034,2.142.034,0,0,.221-.017.289-.017a.832.832,0,0,0-.136.221,22.516,22.516,0,0,1-2.04,2.907,10.414,10.414,0,0,1-1.53,1.513L24.429-4.1a7.644,7.644,0,0,1,1.479-1.547,5.747,5.747,0,0,1,3.485-1.751.933.933,0,0,1,1.037.918,8.316,8.316,0,0,0-3.655,2.4,2.709,2.709,0,0,0-.748,1.887A2.465,2.465,0,0,0,27.268,0a7.3,7.3,0,0,0,3.791.714A30.834,30.834,0,0,0,35.411.408,5.009,5.009,0,0,1,36.193.34l-.17-2.193a14.77,14.77,0,0,1-5,.714c-2.057,0-2.873-.357-2.873-1.241a1.79,1.79,0,0,1,.884-1.394,10.332,10.332,0,0,1,1.632-.884v.408a13.458,13.458,0,0,1-.1,1.972l1.972-.051a6.98,6.98,0,0,1-.051-.9c0-.119,0-.272.017-.561v-.68c0-.238,0-.238-.017-.68v-.187Q34.68-6.1,35.037-6.2a15.006,15.006,0,0,1,1.887-.459l-.8-1.955a5.311,5.311,0,0,1-1.258.51q-.637.2-2.6.918a2.237,2.237,0,0,0-2.431-1.8,4.11,4.11,0,0,0-2.4.765c-.221.17-.221.17-.34.255l-.017-.034a8.8,8.8,0,0,0,1.564-2.261c1.717-.051,3.876-.187,5.117-.34.867-.1.867-.1,1.343-.136l-.119-1.938a22.966,22.966,0,0,1-4.454.578c-.935.051-.935.051-1.071.068.034-.068.068-.119.153-.306a12.988,12.988,0,0,1,.68-1.53l-2.227-.238A6.733,6.733,0,0,1,27.387-12a20.543,20.543,0,0,1-3.944-.221Zm21.4,4.25a7.043,7.043,0,0,1,.629,1.105,5.978,5.978,0,0,0,.765-.935c0,.119-.017.51-.034,1.173v4.25a14.019,14.019,0,0,1-.1,1.9h1.8V.7h5.3a12.943,12.943,0,0,1,1.632.1V-.918a9.7,9.7,0,0,1-1.6.085H51.544V-2.074h1.275a11.524,11.524,0,0,1,1.411.068v-1.53a9.7,9.7,0,0,1-1.428.068H51.544V-4.709h1.275a11.887,11.887,0,0,1,1.411.068v-1.53A9.55,9.55,0,0,1,52.8-6.1H51.544V-7.327h1.581a11.749,11.749,0,0,1,1.36.068V-8.891a9.729,9.729,0,0,1-1.411.068H51.85a9.823,9.823,0,0,0,.646-1.5l-1.666-.357a8.762,8.762,0,0,1-.7,1.853H48.5a15.522,15.522,0,0,0,1.19-2.38h3.366v1.649h1.785a10.281,10.281,0,0,1-.051-1.1v-.986a11.237,11.237,0,0,1,.051-1.258,9.469,9.469,0,0,1-1.5.085H50.252c.255-.833.408-1.309.442-1.428l-1.921-.238c-.1.578-.17.952-.357,1.666H46.41a7.491,7.491,0,0,1-1.241-.051,5.576,5.576,0,0,1,.051.85v1.445a7.716,7.716,0,0,1-.068,1.1h1.683V-11.2h1.02a11.633,11.633,0,0,1-3.043,4.471v-.374c0-.51.017-.9.051-1.258a9.18,9.18,0,0,1-1.037.051H42.16a19.233,19.233,0,0,0,1.02-3.74h.663a6.63,6.63,0,0,1,1,.068V-13.8a11.143,11.143,0,0,1-1.632.1H41.225a11.307,11.307,0,0,1-1.632-.1v1.836a9.177,9.177,0,0,1,1.445-.085h.374a12.191,12.191,0,0,1-.544,2.431,10.157,10.157,0,0,1-1.887,3.57,7.175,7.175,0,0,1,.646,2.108,5.175,5.175,0,0,0,.918-1.547c-.034.459-.051.969-.051,1.309v3.5a12.956,12.956,0,0,1-.1,1.751h1.7v-1.6H43.3V.221h1.564a11.464,11.464,0,0,1-.051-1.309ZM47.855-6.1V-7.327h2.057V-6.1Zm0,1.394h2.057v1.241H47.855Zm0,2.635h2.057V-.833H47.855ZM42.092-6.681H43.3v4.505H42.092Zm20.791-3.366c.969.34,1.292.476,2.006.782a6.078,6.078,0,0,1-2.856,2.346,5.662,5.662,0,0,1,1.19,1.36,8.352,8.352,0,0,0,3.128-2.958,8.929,8.929,0,0,1,.952.578l-.1-.034a6.4,6.4,0,0,1,.425,1.7,11.647,11.647,0,0,0,1.343.068c1.394,0,1.87-.357,2.176-1.7a27.686,27.686,0,0,0,.459-4.25c.068-1.19.068-1.207.1-1.479a13.253,13.253,0,0,1-1.6.068H64.7a14.432,14.432,0,0,1-1.853-.1v1.8a12.517,12.517,0,0,1,1.819-.085H65.79a6.172,6.172,0,0,1-.272,1.377c-.646-.255-.986-.391-1.938-.7Zm6.936-1.9a17.285,17.285,0,0,1-.34,3.417c-.153.595-.323.731-.85.731a6.056,6.056,0,0,1-.935-.068l.748-1.258c-.714-.391-.935-.51-1.428-.765a8.956,8.956,0,0,0,.476-2.057ZM62.067-.51l1.377.816a15.6,15.6,0,0,0,1.139-4.658l-1.462-.323A9.2,9.2,0,0,1,62.067-.748V-2.873A9.584,9.584,0,0,1,62.118-4.1a8.514,8.514,0,0,1-1.156.051H58.48a9.308,9.308,0,0,1-1.326-.068,11.453,11.453,0,0,1,.068,1.343V-.255c0,.544-.034,1.105-.085,1.666h1.7V.578H60.52v.595h1.615a8.055,8.055,0,0,1-.068-1.309ZM58.786-2.618H60.52v1.7H58.786ZM57.137-12.1a10.6,10.6,0,0,1,1.377-.068h2.261a10.944,10.944,0,0,1,1.377.068v-1.7a7.694,7.694,0,0,1-1.377.085H58.514a7.579,7.579,0,0,1-1.377-.085Zm-.561,2.465a10.66,10.66,0,0,1,1.36-.068h3.332a12.392,12.392,0,0,1,1.292.051V-11.39a8.66,8.66,0,0,1-1.36.068H57.936a7.264,7.264,0,0,1-1.36-.085Zm.612,2.346a8.423,8.423,0,0,1,1.071-.051h2.805a9.18,9.18,0,0,1,1.037.051V-8.874a7.151,7.151,0,0,1-1.037.051H58.259a8.609,8.609,0,0,1-1.071-.051Zm0,2.38a9.082,9.082,0,0,1,1.054-.051H61.03a8.609,8.609,0,0,1,1.071.051V-6.494a7.269,7.269,0,0,1-1.054.051H58.259a8.609,8.609,0,0,1-1.071-.051Zm9.35,1.105A4.852,4.852,0,0,1,66.623-4.9H64.8a10.662,10.662,0,0,1,.085,1.258v3.5c0,1.054.425,1.258,2.516,1.258,2.448,0,2.754-.323,2.941-3.247a5.967,5.967,0,0,1-1.581-.527A6.741,6.741,0,0,1,68.578-.8c-.119.255-.34.306-1.309.306-.646,0-.731-.051-.731-.442ZM69.445-4.1a13.007,13.007,0,0,1,1.8,4.114l1.445-.884a20.423,20.423,0,0,0-1.87-3.961ZM65.484-6.018A10.332,10.332,0,0,1,68.051-3.5l1.275-1.1A14.445,14.445,0,0,0,66.691-6.97ZM83.963-9.044v-1.105c1.343-.034,1.649-.034,2.057-.034,1.411,0,2.227.034,2.856.085l-.017-1.955c-.629.068-1.955.1-4.913.119a13.365,13.365,0,0,1,.085-2.023l-2.142.017a9.224,9.224,0,0,1,.1,2.057c-.884.034-.884.034-1.445.051-1.394.034-1.564.034-2.669.068-2.193.085-2.465.085-2.89.085a7.4,7.4,0,0,1-.833-.034l.068,2.023c.459-.068.459-.068,3.026-.255.748-.051,2.346-.1,4.777-.17,0,.459,0,1.411.017,1.445a.7.7,0,0,0,.017.2,2.841,2.841,0,0,0-1.768-.51,3.129,3.129,0,0,0-3.383,3.094,2.656,2.656,0,0,0,1.173,2.3,3.133,3.133,0,0,0,1.972.612,2.8,2.8,0,0,0,2.5-1.207A3.578,3.578,0,0,1,80.58-1.7a8.023,8.023,0,0,1-2.89.986A5.579,5.579,0,0,1,78.9,1.207,11.884,11.884,0,0,0,81.974-.187a5.454,5.454,0,0,0,2.533-4.59,5.173,5.173,0,0,0-.544-2.4c0-.2-.017-.34-.017-.408Zm-1.955,2.8a1.549,1.549,0,0,1-1.666,1.53A1.342,1.342,0,0,1,78.9-6.052a1.489,1.489,0,0,1,1.581-1.36C81.413-7.412,82.008-6.953,82.008-6.239Zm14.841-.816a6.671,6.671,0,0,0,.7-.442c.34-.221,1.564-1.139,1.87-1.394.578-.493,1.819-1.6,2.669-2.38a3.644,3.644,0,0,1,.884-.7l-1.054-1.5a2.5,2.5,0,0,1-1.054.221c-1.649.119-3.723.2-5.168.2a15.375,15.375,0,0,1-2.006-.1l.085,2.04a5.735,5.735,0,0,1,.816-.085c3.077-.136,4.165-.2,4.811-.289l.017.017-.306.306a56.763,56.763,0,0,1-5.083,4.42,15.289,15.289,0,0,1-2.4,1.6L92.786-3.3a10.475,10.475,0,0,1,7-2.856c2.057,0,3.366.867,3.366,2.193,0,1.207-.612,1.938-2.023,2.465a4.572,4.572,0,0,0-.782-1.53A3.659,3.659,0,0,0,97.41-4.42c-1.7,0-2.924,1.02-2.924,2.431a2.426,2.426,0,0,0,1.02,1.955,5.751,5.751,0,0,0,3.3.782,8.411,8.411,0,0,0,4.114-.969,4.154,4.154,0,0,0,2.312-3.757c0-2.329-1.87-3.825-4.777-3.825a8.3,8.3,0,0,0-3.57.782ZM99.3-1a4.6,4.6,0,0,1-.884.068c-1.258,0-2.023-.391-2.023-1.071,0-.476.391-.782,1-.782C98.345-2.788,98.991-2.176,99.3-1Zm25.262-5.44-8.636,4.862L116.96.1,128.231-6.46,116.96-13.022l-1.054,1.666Z" transform="translate(128.962 14.484)" fill="#fff"/>
</svg>
