<svg xmlns="http://www.w3.org/2000/svg" width="744" height="64" viewBox="0 0 744 64">
  <g id="帯" transform="translate(-427 -881.3)">
    <path id="パス_681" data-name="パス 681" d="M0,0H744L714,64H30Z" transform="translate(427 881.3)" fill="#1c69d4"/>
    <path id="パス_697" data-name="パス 697" d="M-276.48,0h2.565V-16.821l5.643,12.771h2.511l5.643-12.771V0h2.565V-20.358h-3.591L-267-7.128l-5.859-13.23h-3.618Zm23.625-14.256v8.667c0,2.187.3,3.672,1.08,4.617S-249.75.459-247.833.459a23.983,23.983,0,0,0,6.642-1.134V-14.256h-2.538V-2.538a14.2,14.2,0,0,1-3.888.594c-1.107,0-1.755-.189-2.187-.756a5.2,5.2,0,0,1-.513-2.943v-8.613ZM-236.844,0h2.538V-9.936a11.606,11.606,0,0,1,2.241-1.242,12.619,12.619,0,0,1,2.808-.837V-14.58a11.235,11.235,0,0,0-3.186.891,11.968,11.968,0,0,0-1.863,1.161v-1.728h-2.538Zm8.883-7.047a12.073,12.073,0,0,0,.972,5.319A3.968,3.968,0,0,0-223.155.459a5.55,5.55,0,0,0,3.483-1.4c.621-.459,1.107-.864,1.539-1.242V0h2.538V-13.2a18.3,18.3,0,0,0-6.129-1.512c-2.484,0-4.023.648-5.1,2.349A10.286,10.286,0,0,0-227.961-7.047Zm2.565,0a7.943,7.943,0,0,1,.7-3.78c.594-1.08,1.566-1.485,3.078-1.485a10.6,10.6,0,0,1,3.483.81V-4.86c-.567.486-1.3,1.107-2,1.647A4.822,4.822,0,0,1-222.8-1.971a2.015,2.015,0,0,1-2.106-1.35A10.927,10.927,0,0,1-225.4-7.047Zm14.121-7.209v8.667c0,2.187.3,3.672,1.08,4.617S-208.17.459-206.253.459a23.983,23.983,0,0,0,6.642-1.134V-14.256h-2.538V-2.538a14.2,14.2,0,0,1-3.888.594c-1.107,0-1.755-.189-2.187-.756a5.2,5.2,0,0,1-.513-2.943v-8.613Zm16.6,12.366c.945,1.566,2.241,2.349,5.049,2.349a22.648,22.648,0,0,0,4.455-.675V-2.7a19,19,0,0,1-4.266.756c-1.539,0-2.565-.351-3.132-1.458a8.711,8.711,0,0,1-.675-3.7,9.346,9.346,0,0,1,.54-3.564c.567-1.3,1.566-1.647,3.267-1.647a18.691,18.691,0,0,1,4.266.864v-2.484a19.419,19.419,0,0,0-4.482-.783c-3.078,0-4.428,1.026-5.319,2.835a11.416,11.416,0,0,0-.837,4.833A10.27,10.27,0,0,0-194.67-1.89Zm12.8-18.468V0h2.538V-10.989a12.735,12.735,0,0,1,4.266-1.269,2.287,2.287,0,0,1,1.917.648,4.449,4.449,0,0,1,.513,2.727V0h2.538V-8.991c0-2.3-.216-3.564-1.053-4.482a4.176,4.176,0,0,0-3.429-1.242,14.086,14.086,0,0,0-4.752,1.3v-6.939ZM-163.242,0V-14.256h-2.538V0Zm.027-16.551v-3.807h-2.592v3.807Zm11.664-3.807V0h8.4c2.619,0,4.239-.486,5.427-1.431a5.364,5.364,0,0,0,1.836-4.4,5.321,5.321,0,0,0-.918-3.186,6.573,6.573,0,0,0-1.7-1.539c.324-.513.756-1.161,1.107-1.782a6.433,6.433,0,0,0,1.053-3.321,4.341,4.341,0,0,0-2.025-3.861,8.719,8.719,0,0,0-4.59-.837Zm2.592,11.2h6.426a4.574,4.574,0,0,1,2.673.594,2.994,2.994,0,0,1,1.323,2.727,2.979,2.979,0,0,1-1.08,2.565,5.7,5.7,0,0,1-3.51.783h-5.832Zm0-8.721h5.832a6.8,6.8,0,0,1,3.024.432,1.99,1.99,0,0,1,1.107,2,4.563,4.563,0,0,1-.81,2.376c-.27.459-.567.945-.864,1.431h-8.289ZM-131.652,0h2.565V-16.821l5.643,12.771h2.511l5.643-12.771V0h2.565V-20.358h-3.591l-5.859,13.23-5.859-13.23h-3.618ZM-109.4-20.358-105.192,0h3.591l3.888-13.878L-93.8,0h3.591l4.185-20.358h-2.619L-92.205-3.051-96.228-17.28h-2.943l-4,14.229-3.591-17.307Zm33.7,8.856a7.4,7.4,0,0,0,3.132,1.62L-68.5-8.505a6.856,6.856,0,0,1,2.781,1.269A2.607,2.607,0,0,1-65.1-5.292a2.808,2.808,0,0,1-1.161,2.43,5.7,5.7,0,0,1-3.564.81,38.918,38.918,0,0,1-7.047-1.026V-.513A37.049,37.049,0,0,0-69.93.459c2.673,0,4.428-.432,5.724-1.62a5.5,5.5,0,0,0,1.755-4.212,5.2,5.2,0,0,0-1.215-3.591,7.941,7.941,0,0,0-3.51-1.863l-4.05-1.35a7.9,7.9,0,0,1-2.511-1.134,2.406,2.406,0,0,1-.648-1.971,2.726,2.726,0,0,1,.972-2.268,5.13,5.13,0,0,1,3.348-.756,37.455,37.455,0,0,1,7.047,1.242v-2.592a32.779,32.779,0,0,0-7.1-1.161c-2.349,0-3.942.324-5.157,1.377a5.366,5.366,0,0,0-1.755,4.266A4.8,4.8,0,0,0-75.708-11.5ZM-58.374,0h2.592V-7.614c2.457,0,4.779,0,5.967-.081a6.124,6.124,0,0,0,4.4-1.728A6.832,6.832,0,0,0-43.9-14.2a6.508,6.508,0,0,0-1.566-4.563c-1.107-1.107-2.538-1.593-4.86-1.593h-8.046Zm2.592-17.847h5.211c1.431,0,2.376.135,3.051.783a3.909,3.909,0,0,1,.972,2.862,4.524,4.524,0,0,1-.7,2.835,3.6,3.6,0,0,1-2.835,1.134c-1.377.108-3.537.108-5.7.108ZM-40.041,0h14.2V-2.511h-11.61V-9.126h10.584v-2.511H-37.449v-6.21h11.178v-2.511h-13.77Zm18.657-3.186C-20.3-1.026-18.549.459-14.526.459A31.036,31.036,0,0,0-8.154-.405V-2.97a31.765,31.765,0,0,1-6.1.918c-2.592,0-4.023-.756-4.833-2.484a14.212,14.212,0,0,1-.81-5.481,14.658,14.658,0,0,1,.891-5.886c.864-1.728,2.241-2.4,4.752-2.4a14.268,14.268,0,0,1,2.808.351c1.134.216,2.268.513,3.294.783v-2.592a28.749,28.749,0,0,0-2.862-.675,19.6,19.6,0,0,0-3.429-.378c-3.78,0-5.508,1.3-6.669,3.24-1.08,1.809-1.431,4.563-1.431,7.587A16.237,16.237,0,0,0-21.384-3.186ZM-1.539,0V-20.358H-4.131V0Zm2.97,0H4.158L5.913-4.725h9.5L17.172,0h2.835L12.393-20.358h-3.4Zm9.234-17.712,3.861,10.5H6.777ZM36.315,0V-2.511H25.569V-20.358H22.977V0ZM47.844-2.592c1.242,2,3.159,3.051,7.1,3.051,3.348,0,5.373-.891,6.885-3.024,1.269-1.809,1.728-4.86,1.728-7.587,0-2.808-.459-5.886-1.782-7.722-1.431-2-3.375-2.943-6.831-2.943-3.942,0-5.994,1.35-7.263,3.483-1.026,1.728-1.377,4.617-1.377,7.182C46.305-7.209,46.764-4.32,47.844-2.592Zm2.079-13.392c1.026-1.836,2.862-2.322,5.022-2.322s3.807.513,4.806,2.133c.891,1.431,1.161,3.753,1.161,6.021,0,2.4-.27,4.995-1.458,6.4-1.134,1.35-2.619,1.7-4.509,1.7-2.133,0-3.969-.3-4.968-2.052-.783-1.377-1.026-3.942-1.026-6.048A13.656,13.656,0,0,1,49.923-15.984ZM68.256-.027h2.592V-8.856H81.027v-2.511H70.848v-6.48H81.972v-2.511H68.256Zm17.172,0H88.02V-8.856H98.2v-2.511H88.02v-6.48H99.144v-2.511H85.428ZM102.6,0h14.2V-2.511h-11.61V-9.126h10.584v-2.511H105.192v-6.21H116.37v-2.511H102.6Zm20.493,0V-7.857h5.643L133.515,0h3.078l-5.049-8.262c.567-.567,1.512-1.485,2.214-2.322a6.18,6.18,0,0,0,1.809-4.266,5.231,5.231,0,0,0-1.836-4.266c-1.269-.972-2.835-1.242-5.481-1.242H120.5V0Zm4.941-17.847c1.944,0,2.97.108,3.7.567a2.6,2.6,0,0,1,1.188,2.43,4.314,4.314,0,0,1-1.269,2.862c-.432.513-.945,1.053-1.485,1.62h-7.074v-7.479Zm23-.108H148.2a17.694,17.694,0,0,1-2.538-.162v2.133a15.153,15.153,0,0,1,2.43-.135h5.454a25.651,25.651,0,0,1-1.242,6.669c-1.863-2.214-2.619-3.078-4.212-4.7l-1.458,1.35a49.32,49.32,0,0,1,4.806,5.373A19.619,19.619,0,0,1,145.395-.27a5.581,5.581,0,0,1,1.539,1.647A22.8,22.8,0,0,0,152.739-5.7a43.567,43.567,0,0,1,3.267,5.1L157.6-2.187a61.184,61.184,0,0,0-3.888-5.508,26.511,26.511,0,0,0,1.917-8.424,17.71,17.71,0,0,1,2.349.108v-2.106a16.783,16.783,0,0,1-2.511.162h-2.4v-1.728a18.9,18.9,0,0,1,.162-2.673h-2.349a12.858,12.858,0,0,1,.162,2.673ZM164.862-14.5V-.945c0,.54-.216.648-1.4.648A25.215,25.215,0,0,1,160-.594a7.356,7.356,0,0,1,.648,2.133c1.08.081,1.863.108,2.835.108,2.862,0,3.429-.405,3.429-2.484V-14.5h.567a14.676,14.676,0,0,1,2.349.135,1.118,1.118,0,0,1,.27.027v-2.214a16.844,16.844,0,0,1-2.619.162h-.567V-19.17a22.378,22.378,0,0,1,.162-3h-2.4a16.333,16.333,0,0,1,.189,3v2.781h-3.969a15.982,15.982,0,0,1-2.565-.135v2.187a16.421,16.421,0,0,1,2.538-.162Zm-7.371,3.051a24.058,24.058,0,0,1,3.861,6.291l1.809-1.188a30.922,30.922,0,0,0-3.942-6.1Zm35.019.3c1.134,0,2.133.027,2.808.081a16.619,16.619,0,0,1-.108-2.268v-1.647a17.131,17.131,0,0,1,.108-2.268,26.506,26.506,0,0,1-2.97.108h-4.725a24.119,24.119,0,0,0,1.863-1.836c.621-.7.621-.7,1-1.08l-1.107-1.08a16,16,0,0,1-2.511.135h-4.833c.162-.189.3-.324.378-.4.162-.189.27-.324.324-.378a6.532,6.532,0,0,1,.594-.675L181.062-23a11.324,11.324,0,0,1-2.025,2.592,20.607,20.607,0,0,1-6.264,4.428,5.553,5.553,0,0,1,1.08,1.647,20.969,20.969,0,0,0,2.187-1.35v2.349a20.58,20.58,0,0,1-.081,2.268c.81-.054,1.674-.081,2.862-.081h4.212a28.315,28.315,0,0,1-9.477,2.835,6.085,6.085,0,0,1,1.026,1.7,29.318,29.318,0,0,0,8.208-2.646,6.761,6.761,0,0,1,.972,1.242,29.851,29.851,0,0,1-10.044,3.537,5.115,5.115,0,0,1,1.026,1.7,33.926,33.926,0,0,0,9.8-3.861c.243.567.378.918.567,1.485A35.756,35.756,0,0,1,173.259-.432,7.813,7.813,0,0,1,174.42,1.35a38.207,38.207,0,0,0,11.07-4.833,8.546,8.546,0,0,1,.081,1.107A3.332,3.332,0,0,1,185.139-.3c-.3.378-.675.486-1.728.486a14.934,14.934,0,0,1-2.484-.216,5.775,5.775,0,0,1,.621,2.079c.675.054,1.134.081,1.647.081a7.385,7.385,0,0,0,2.754-.378C187,1.269,187.569-.027,187.569-2a11.339,11.339,0,0,0-3.213-8.1,13.752,13.752,0,0,0,1.62-1.053h.594A20.942,20.942,0,0,0,191.484-2.4a16.119,16.119,0,0,0,4.833,3.483,7.145,7.145,0,0,1,1.377-2,12.1,12.1,0,0,1-4.212-2.592,20.742,20.742,0,0,1-2.322-2.457A24.255,24.255,0,0,0,194.1-7.992c1.026-.837,1.242-1,1.674-1.3l-1.755-1.377a13.357,13.357,0,0,1-3.888,3.186,15.622,15.622,0,0,1-1.566-3.672Zm-14.445-5.994a25.778,25.778,0,0,0,2.484-2.241h6.885a17.274,17.274,0,0,1-2.214,2.241Zm-.027,4.347v-2.673h6.372V-12.8Zm8.316,0v-2.673h6.858V-12.8Zm23.355,2.619v5.751c0,3.51,1.188,4.347,6.1,4.347,1.728,0,3.186-.081,5.292-.243.513-.027.756-.054,1-.054h.378l-.054-2.484a10.906,10.906,0,0,1-2.376.432c-1.512.135-3.078.216-3.888.216a9.549,9.549,0,0,1-3.213-.378c-.729-.3-.891-.756-.891-2.565v-5.022h7.911a27.2,27.2,0,0,1,3.294.135v-2.4a18.214,18.214,0,0,1-3.348.189h-7.857v-5.373h6.183a26.09,26.09,0,0,1,3.321.135v-2.4a17.872,17.872,0,0,1-3.348.189h-12.1a17.691,17.691,0,0,1-3.375-.189v2.4a26.09,26.09,0,0,1,3.321-.135h3.645v5.373h-5.184a19.068,19.068,0,0,1-3.375-.189v2.4a26.572,26.572,0,0,1,3.348-.135Zm37.53-1.269c1.431,0,2.484.054,3.321.135v-2.4a21.24,21.24,0,0,1-3.348.189H231.66a22.4,22.4,0,0,1-3.348-.189v2.4a26.616,26.616,0,0,1,3.321-.135h6.993a14.8,14.8,0,0,1-1.107,5.427c-1.134,2.349-3.267,3.969-6.723,5.076a5.816,5.816,0,0,1,1.539,2.106,16.886,16.886,0,0,0,4.752-2.646,10.872,10.872,0,0,0,3.645-6.858,21.4,21.4,0,0,0,.378-3.105Zm-16.2-6.534a24.847,24.847,0,0,1,3.294-.135h7.7a26.882,26.882,0,0,1,3.321.135v-2.43a17.2,17.2,0,0,1-3.348.189H234.36a17.052,17.052,0,0,1-3.321-.189ZM248.616-22.9a19.788,19.788,0,0,1,2.781,4.185l1.566-.891a20.147,20.147,0,0,0-2.835-4.1Zm-3.4,1.053a18.846,18.846,0,0,1,2.808,4.266l1.593-.891a21.13,21.13,0,0,0-2.835-4.185Zm13.716,1.134a13.478,13.478,0,0,1,.081,2.133c0,5.535-.351,8.991-1.188,11.367a12.979,12.979,0,0,1-4.455,6.183A6.54,6.54,0,0,1,255.312.783a16.791,16.791,0,0,0,4.644-6.8c1-2.727,1.215-4.7,1.431-12.177a14.029,14.029,0,0,1,.162-2.376Zm6.8-.216a11.479,11.479,0,0,1,.135,2.214v.594l-.162,15.282A6.3,6.3,0,0,1,265.518-.7L266.787.7a4.993,4.993,0,0,1,.648-.3c.27-.108.54-.216.864-.324a18.559,18.559,0,0,0,3.807-1.944,15.508,15.508,0,0,0,5.562-7.074,8.927,8.927,0,0,1-1.782-1.863,13.194,13.194,0,0,1-3.051,5.265A11.892,11.892,0,0,1,268.083-2.4l.135-15.687a15.571,15.571,0,0,1,.189-2.808Z" transform="translate(799 924)" fill="#fff"/>
  </g>
</svg>
