<svg xmlns="http://www.w3.org/2000/svg" width="273.856" height="237.192" viewBox="0 0 273.856 237.192">
  <g id="limited-txt03-sp" transform="translate(-188 -2303.088)">
    <g id="price" transform="translate(46 252.184)">
      <path id="パス_98" data-name="パス 98" d="M1.284-9.348V.8H2.34v-4.86H9.672V-.444c0,.468-.2.672-.672.672H7.452v.5H9.564c.816,0,1.164-.348,1.164-1.152V-9.348Zm1.056.48H5.424v4.332H2.34Zm4.128,0h3.2v4.332h-3.2Z" transform="translate(377.448 2282)" fill="#363636"/>
      <path id="パス_97" data-name="パス 97" d="M8.448-13.472a6.7,6.7,0,0,1,3.12.752,5.928,5.928,0,0,1,2.368,2.256,6.781,6.781,0,0,1,.912,3.584,7.15,7.15,0,0,1-1.056,3.968A6.821,6.821,0,0,1,11.12-.464,7.332,7.332,0,0,1,7.776.352a7.355,7.355,0,0,1-3.744-.96A6.807,6.807,0,0,1,1.44-3.232l1.024-.64A5.517,5.517,0,0,0,4.576-1.728a5.849,5.849,0,0,0,2.912.736,4.149,4.149,0,0,0,2.256-.656,4.7,4.7,0,0,0,1.68-1.936,6.726,6.726,0,0,0,.64-3.04,6.425,6.425,0,0,0-.64-2.992,4.309,4.309,0,0,0-1.68-1.824,4.483,4.483,0,0,0-2.256-.592,3.664,3.664,0,0,0-1.92.48,5.98,5.98,0,0,0-1.44,1.216H2.88l.768-10.4H13.824v2.56H4.64l-.448,6.208a5.645,5.645,0,0,1,1.84-1.088A6.8,6.8,0,0,1,8.448-13.472ZM20.128-3.264a1.852,1.852,0,0,1,1.424.656,2.65,2.65,0,0,1,.592,1.84,4.811,4.811,0,0,1-.9,2.88A6.243,6.243,0,0,1,18.816,4.1l-.48-.768a4.666,4.666,0,0,0,1.456-1.2A2.494,2.494,0,0,0,20.48.544a.971.971,0,0,0-.032-.288,1.988,1.988,0,0,1-.384.032,1.688,1.688,0,0,1-1.3-.5A1.777,1.777,0,0,1,18.3-1.472a1.71,1.71,0,0,1,.528-1.28A1.791,1.791,0,0,1,20.128-3.264ZM33.888-11.2q4.48,1.44,4.48,5.312a5.5,5.5,0,0,1-1.04,3.36A6.648,6.648,0,0,1,34.64-.384,8.346,8.346,0,0,1,31.2.352,6.921,6.921,0,0,1,27.5-.64,7.307,7.307,0,0,1,24.96-3.232l1.024-.64A5.14,5.14,0,0,0,28.16-1.728a6.055,6.055,0,0,0,2.784.7,4.968,4.968,0,0,0,2.224-.512,4.122,4.122,0,0,0,1.7-1.568,4.758,4.758,0,0,0,.656-2.56,4.542,4.542,0,0,0-1.3-3.408,4.425,4.425,0,0,0-3.216-1.264h-.8v-.992a5.423,5.423,0,0,0,2.208-.48,4.171,4.171,0,0,0,1.792-1.52,4.551,4.551,0,0,0,.7-2.608,4.755,4.755,0,0,0-.9-2.928,3.037,3.037,0,0,0-2.592-1.2,3.053,3.053,0,0,0-2.736,1.392,7.02,7.02,0,0,0-1.04,3.472H25.92v-3.84a6.332,6.332,0,0,1,2.368-1.536,8.529,8.529,0,0,1,3.136-.576,7.748,7.748,0,0,1,3.1.608,5.388,5.388,0,0,1,2.256,1.76,4.462,4.462,0,0,1,.848,2.72Q37.632-12.832,33.888-11.2ZM55.264-2.5V0H42.688V-1.12q4.064-4.416,5.936-6.672a20.282,20.282,0,0,0,2.688-3.952,8.1,8.1,0,0,0,.816-3.552,5.261,5.261,0,0,0-1.04-3.536,3.375,3.375,0,0,0-2.672-1.2,3.16,3.16,0,0,0-2.784,1.408,6.766,6.766,0,0,0-1.088,3.456H42.816v-3.84a5.984,5.984,0,0,1,2.4-1.536,9.128,9.128,0,0,1,3.232-.576,8.482,8.482,0,0,1,3.088.576A5.532,5.532,0,0,1,54-18.672a5.355,5.355,0,0,1,.976,3.312,5.916,5.916,0,0,1-.768,2.9,18.42,18.42,0,0,1-2.544,3.328Q49.888-7.2,45.248-2.5Zm16.768,0V0H59.456V-1.12q4.064-4.416,5.936-6.672a20.282,20.282,0,0,0,2.688-3.952A8.1,8.1,0,0,0,68.9-15.3a5.261,5.261,0,0,0-1.04-3.536,3.375,3.375,0,0,0-2.672-1.2A3.16,3.16,0,0,0,62.4-18.624a6.766,6.766,0,0,0-1.088,3.456H59.584v-3.84a5.984,5.984,0,0,1,2.4-1.536,9.128,9.128,0,0,1,3.232-.576,8.482,8.482,0,0,1,3.088.576,5.532,5.532,0,0,1,2.464,1.872,5.355,5.355,0,0,1,.976,3.312,5.916,5.916,0,0,1-.768,2.9,18.421,18.421,0,0,1-2.544,3.328Q66.656-7.2,62.016-2.5Zm5.312-.768a1.852,1.852,0,0,1,1.424.656,2.65,2.65,0,0,1,.592,1.84,4.811,4.811,0,0,1-.9,2.88A6.243,6.243,0,0,1,76.032,4.1l-.48-.768a4.666,4.666,0,0,0,1.456-1.2A2.494,2.494,0,0,0,77.7.544a.971.971,0,0,0-.032-.288,1.988,1.988,0,0,1-.384.032,1.688,1.688,0,0,1-1.3-.5,1.777,1.777,0,0,1-.464-1.264,1.71,1.71,0,0,1,.528-1.28A1.791,1.791,0,0,1,77.344-3.264ZM89.248.352a5.936,5.936,0,0,1-3.84-1.344,8.589,8.589,0,0,1-2.576-3.792A16.025,16.025,0,0,1,81.92-10.4a15.891,15.891,0,0,1,.912-5.6,8.533,8.533,0,0,1,2.592-3.776A6,6,0,0,1,89.28-21.12a6.045,6.045,0,0,1,3.856,1.328,8.419,8.419,0,0,1,2.592,3.76,15.891,15.891,0,0,1,.912,5.6,15.775,15.775,0,0,1-.928,5.616A8.756,8.756,0,0,1,93.1-1.008,5.956,5.956,0,0,1,89.248.352ZM89.28-.672q2.176,0,3.328-2.5A17.843,17.843,0,0,0,93.76-10.4a17.742,17.742,0,0,0-1.152-7.2q-1.152-2.5-3.328-2.5t-3.328,2.5A17.742,17.742,0,0,0,84.8-10.4a17.843,17.843,0,0,0,1.152,7.232Q87.1-.672,89.28-.672ZM106.016.352a5.936,5.936,0,0,1-3.84-1.344A8.589,8.589,0,0,1,99.6-4.784a16.025,16.025,0,0,1-.912-5.616A15.891,15.891,0,0,1,99.6-16a8.533,8.533,0,0,1,2.592-3.776,6,6,0,0,1,3.856-1.344,6.045,6.045,0,0,1,3.856,1.328,8.419,8.419,0,0,1,2.592,3.76,15.891,15.891,0,0,1,.912,5.6,15.775,15.775,0,0,1-.928,5.616,8.756,8.756,0,0,1-2.608,3.808A5.956,5.956,0,0,1,106.016.352Zm.032-1.024q2.176,0,3.328-2.5a17.843,17.843,0,0,0,1.152-7.232,17.742,17.742,0,0,0-1.152-7.2q-1.152-2.5-3.328-2.5t-3.328,2.5a17.742,17.742,0,0,0-1.152,7.2,17.843,17.843,0,0,0,1.152,7.232Q103.872-.672,106.048-.672ZM122.784.352a5.936,5.936,0,0,1-3.84-1.344,8.589,8.589,0,0,1-2.576-3.792,16.025,16.025,0,0,1-.912-5.616,15.891,15.891,0,0,1,.912-5.6,8.533,8.533,0,0,1,2.592-3.776,6,6,0,0,1,3.856-1.344,6.045,6.045,0,0,1,3.856,1.328,8.419,8.419,0,0,1,2.592,3.76,15.891,15.891,0,0,1,.912,5.6,15.775,15.775,0,0,1-.928,5.616,8.756,8.756,0,0,1-2.608,3.808A5.956,5.956,0,0,1,122.784.352Zm.032-1.024q2.176,0,3.328-2.5A17.843,17.843,0,0,0,127.3-10.4a17.742,17.742,0,0,0-1.152-7.2q-1.152-2.5-3.328-2.5t-3.328,2.5a17.742,17.742,0,0,0-1.152,7.2,17.843,17.843,0,0,0,1.152,7.232Q120.64-.672,122.816-.672Z" transform="translate(244.556 2284)" fill="#363636"/>
      <path id="パス_96" data-name="パス 96" d="M4.764-7.32a10.043,10.043,0,0,1-.6,1.068H1.1l-.468-.1v.672l.468-.1H3.828A11.051,11.051,0,0,1,.48-3l.156.324a9.65,9.65,0,0,0,4.32-3.1H6.948A7.451,7.451,0,0,0,10.932-2.4a4.484,4.484,0,0,1,.588-1.044A7.686,7.686,0,0,1,7.428-5.772h3.456l.48.1v-.672l-.48.1H5.28A8.682,8.682,0,0,0,5.9-7.4c.444-.036.852-.072.984-.084.5-.036.84-.072.984-.084.1-.012.312-.036.636-.072.084-.012.348-.048.636-.084a8.447,8.447,0,0,1,1.032,1.044l.936-.756A11.878,11.878,0,0,0,7.488-9.4l-.264.276C8-8.592,8.352-8.352,8.7-8.088c-1,.036-2.22.06-4.128.072L4.056-8A7.635,7.635,0,0,0,5.328-9.336c.3-.06.42-.132.42-.264,0-.108-.1-.192-.264-.228L4.428-10.08A10.693,10.693,0,0,1,3.432-8c-.648.012-.792.012-1.044.012-.336,0-.8-.012-1.428-.024l.312.876c.072.18.144.264.252.264s.2-.084.312-.288c.5-.024.948-.036,1.1-.048.312-.024.612-.036.912-.06ZM1.056.96C5.16.768,7.548.18,10.164-1.26a2.581,2.581,0,0,0,.276.024c.156,0,.276-.084.276-.192,0-.06-.036-.108-.12-.168l-.888-.612A18.01,18.01,0,0,1,1.008.564ZM1.3-1.6A12.265,12.265,0,0,0,6.42-4.068h.156c.18,0,.3-.072.3-.168q0-.072-.108-.144l-.792-.564A12.707,12.707,0,0,1,1.212-1.932Zm.42,1.248A14.92,14.92,0,0,0,8.04-2.628a1.53,1.53,0,0,0,.228.012c.156,0,.288-.072.288-.18a.209.209,0,0,0-.108-.156l-.8-.588A14.571,14.571,0,0,1,1.608-.732Zm16.656-6.24v-1.6h2.244l.48.1V-8.76l-.48.1H18.372V-9.672c.156-.12.192-.168.192-.24,0-.12-.084-.168-.252-.168h-.936v1.416H14.832l-.468-.1v.672l.468-.1h2.544v1.6H13.992l-.48-.1v.672l.48-.1h4.932l-.036.024a21.25,21.25,0,0,1-1.824,1.26L17.04-4.8l-.7-.108-.12.6A30.789,30.789,0,0,1,13.44-2.88l.132.312A19.208,19.208,0,0,0,16.08-3.576c-.168.792-.348,1.524-.6,2.436h1.08c.06-.228.132-.576.228-1.032h5.4C21.912.192,21.8.384,20.88.4H19.548V.9H21.36c1.428-.012,1.548-.252,1.908-3.552H16.884l.024-.156.036-.144c.012-.048.036-.2.084-.42.012-.108.036-.24.072-.42l.756-.036a32.639,32.639,0,0,0,4.812-.456,1.5,1.5,0,0,0,.372.048c.12,0,.216-.072.216-.156,0-.048-.024-.1-.156-.216l-.66-.6a24.115,24.115,0,0,1-4.632.924l-.24.036-.252.024a24.4,24.4,0,0,0,2.856-1.884h3.756l.48.1v-.672l-.48.1H20.772A20.133,20.133,0,0,0,23.1-8.844c.384-.036.516-.108.516-.24,0-.084-.06-.156-.216-.228l-.78-.432a18.432,18.432,0,0,1-3.084,3.156ZM32.04-6.7H29.988V.828h.888V.06h5.076V.744h.924V-6.7h-2.1v-2.34H36.96l.48.1v-.672l-.48.1H30.216l-.468-.1v.672l.468-.1H32.04Zm.828-2.34h1.08V-6.7h-1.08Zm0,2.82h1.08v5.8h-1.08ZM32.04-.42H30.876v-5.8H32.04Zm2.736-5.8h1.176v5.8H34.776ZM28.728-7.4c.252-.708.36-1.044.636-1.932.192-.036.288-.12.288-.24,0-.1-.084-.168-.2-.2l-1.008-.3A28.442,28.442,0,0,1,26.4-3.564l.252.192a13.006,13.006,0,0,0,1.14-1.848V.888h.936ZM42.9-2.772a11.55,11.55,0,0,0,3.888-2.28A11.591,11.591,0,0,0,49.944-3.06,3.976,3.976,0,0,1,50.4-4a12.419,12.419,0,0,1-3.048-1.62,12.4,12.4,0,0,0,2.22-3.18h-3.9l.012-.036c.132-.252.144-.276.3-.612.228-.084.324-.156.324-.24a.224.224,0,0,0-.12-.168l-1.02-.228a11.161,11.161,0,0,1-.864,2.2,11.093,11.093,0,0,1-1.14,1.836l.24.228a8.152,8.152,0,0,0,1.716-2,5.445,5.445,0,0,0,1.1,2.184A13.17,13.17,0,0,1,42.78-3.072Zm2.52-5.544H48.3a14.545,14.545,0,0,1-1.6,2.172,4.517,4.517,0,0,1-1.332-2.1ZM41.172.888H42.1V-5.484a8.091,8.091,0,0,1,.852,1.824l.744-.648a4.244,4.244,0,0,0-1.6-1.524V-7.08h.876l.48.1v-.672l-.48.1H42.1V-9.612c.144-.108.192-.156.192-.24,0-.108-.084-.156-.252-.156h-.864V-7.56h-1.26l-.48-.1v.672l.48-.1h1.152a20.078,20.078,0,0,1-1.7,5.052l.264.18A11.809,11.809,0,0,0,41.172-4.68ZM49.26.816V-3.216H44.232v4.1h.948V.312H48.3v.5ZM45.18-.168V-2.736H48.3V-.168ZM62.7-10.08a6.941,6.941,0,0,0-2.616,5.52A6.941,6.941,0,0,0,62.7.96h.66a7.108,7.108,0,0,1-2.4-5.508A7.587,7.587,0,0,1,62.2-8.772,5.4,5.4,0,0,1,63.36-10.08ZM67.14.888h.888V-4.68a13.765,13.765,0,0,1,.9,2.076l.8-.708a7.494,7.494,0,0,0-1.7-1.752v-1.32h1l.468.1V-6.96l-.468.1h-1V-8.988c.312-.072.36-.084.816-.216a1.54,1.54,0,0,0,.3.048c.156,0,.264-.072.264-.18,0-.072-.024-.108-.12-.192l-.624-.552a14.34,14.34,0,0,1-3.312,1.092l.036.324A14.363,14.363,0,0,0,67.14-8.82v1.956H65.832l-.48-.1v.672l.48-.1H67.02A20.678,20.678,0,0,1,65.28-1.44l.24.2A10.165,10.165,0,0,0,67.14-4.08ZM69.948-7.44V-3.6H71.2v.036c-.1,2.3-.8,3.528-2.46,4.2l.156.324c2.2-.5,3.216-1.92,3.264-4.56h.936V-.108c.036.444.384.7.96.7h1.236c.6,0,.852-.228.9-.84l.132-1.464-.5-.06-.084,1.1c-.036.288-.132.372-.4.384h-.948c-.276-.012-.336-.072-.348-.324V-3.6h1.572V-7.44H73.776a8.221,8.221,0,0,0,1.272-1.908c.24-.024.372-.108.372-.228a.24.24,0,0,0-.192-.216l-1.1-.288a20.353,20.353,0,0,1-.792,2.64ZM70.9-4.08V-6.96h3.756v2.88ZM70.152-9.8a9.122,9.122,0,0,1,1.068,2.2l.984-.528a5.367,5.367,0,0,0-1.752-1.872ZM80.568-.768c.7.924,1.38,1.236,2.952,1.32.624.036,2.136.072,3.312.072.5,0,1.2-.012,2.148-.024a7.715,7.715,0,0,1,.288-.948c-.78.048-2.76.1-4.248.1a10.164,10.164,0,0,1-3.3-.276A2.121,2.121,0,0,1,80.9-1.08V-5.52H78.792l-.48-.1v.672l.48-.1h1.152v4.008a13.135,13.135,0,0,1-1.7.648L78.624.66a.207.207,0,0,0,.168.132c.12,0,.216-.132.276-.4a11.963,11.963,0,0,0,1.464-1.14Zm2.808-8.856-.48-.1v.7l.48-.1h1.956c.012.324.012.468.024.624-.612,3.18-1.9,5.484-3.864,6.96l.156.288a7.81,7.81,0,0,0,4.008-4.908A7.8,7.8,0,0,0,88.62-1.368c.3-.516.348-.588.648-1.068a6.969,6.969,0,0,1-2.76-3.312,10.237,10.237,0,0,1-.624-3.876ZM81.348-8.8a5.508,5.508,0,0,0-2.4-.888l-.144.3a8.4,8.4,0,0,1,1.884,1.668ZM91.2-10.08a7.145,7.145,0,0,1,2.4,5.532A7.126,7.126,0,0,1,91.2.96h.648a6.9,6.9,0,0,0,2.628-5.52,6.9,6.9,0,0,0-2.628-5.52Z" transform="translate(141.52 2282)" fill="#363636"/>
    </g>
    <g id="color" transform="translate(-626 54.912)">
      <path id="パス_95" data-name="パス 95" d="M12.88-11.76.56.56l.56.56L13.44-11.2Zm7.9,4.83A9.491,9.491,0,0,1,20.16-3.4C19.544-1.9,18.018-.658,15.736.21l.14.42a9.91,9.91,0,0,0,4-1.806c1.456-1.19,2.1-2.758,2.212-5.418a1.893,1.893,0,0,1,.028-.336H26.5l.616.126v-.9l-.616.126H22.134c.014-.378.014-.686.014-.882v-2.03c.21-.14.28-.238.28-.35a.263.263,0,0,0-.266-.252l-1.484-.1.126.882v1.848c0,.2,0,.5-.014.882H15.6L14.98-7.7v.9L15.6-6.93ZM30.03.322c5.082-1.008,7.84-4.088,9.268-10.36.224-.084.336-.182.336-.308s-.1-.21-.266-.252l-1.4-.378-.056.868C36.75-4.732,34.2-1.54,29.9-.1ZM48.58-9.422c.154-.308.28-.616.49-1.162.266-.126.364-.21.364-.364,0-.126-.1-.21-.308-.252l-1.316-.28-.14.8A11.936,11.936,0,0,1,43.9-5.11l.224.336a9.394,9.394,0,0,0,4.116-4h4.382A12.226,12.226,0,0,1,49.21-2.506,13.759,13.759,0,0,1,43.96.238l.084.42a12.464,12.464,0,0,0,5.628-2.142,12.114,12.114,0,0,0,4.494-7.938Zm14.434,2.59a1.521,1.521,0,0,0-1.54,1.512A1.521,1.521,0,0,0,63-3.794,1.527,1.527,0,0,0,64.512-5.32,1.53,1.53,0,0,0,63.014-6.832ZM77.728-8.008h4.4l.616.126v-.9l-.616.126h-4.4V-10.64c.2-.14.28-.238.28-.364a.252.252,0,0,0-.266-.238l-1.414-.1.126.84v1.848h-4.48l-.616-.126v.9l.616-.126h4.48V-.826c0,.476-.21.686-.7.686H74.326V.5h2.352c.728.014,1.05-.336,1.05-1.134Zm1.386,1.666a17.406,17.406,0,0,1,2.8,5.236l1.344-.7A10.084,10.084,0,0,0,79.394-6.58ZM70.938-1.05a9.648,9.648,0,0,0,3.7-4.55c.252-.1.35-.2.35-.336a.3.3,0,0,0-.21-.266l-1.316-.476-.168.77a12.955,12.955,0,0,1-2.6,4.55ZM87.668.126c5.768-.6,8.568-3.892,8.876-10.388h-10.7v4.424h1.33v-3.78h7.854c-.28,5.236-2.562,8.078-7.42,9.282ZM106.54-7.5a35.994,35.994,0,0,0,2.982-2.632c.378-.042.532-.14.532-.336a.434.434,0,0,0-.224-.322l-1.078-.714-.5.756a27.236,27.236,0,0,1-9.184,6.37l.154.42a18.465,18.465,0,0,0,6.02-2.6V.742h1.3Zm11.284-3.164c.182-.1.28-.21.28-.336s-.112-.224-.28-.238l-1.4-.1.1.84V.672h1.3v-7.42a13.907,13.907,0,0,1,5.222,3.612L124-4.41a14.941,14.941,0,0,0-6.174-2.856Z" transform="translate(848.008 2429)" fill="#363636"/>
      <path id="パス_94" data-name="パス 94" d="M5.136.192A4.22,4.22,0,0,1,2.52-.576a4.31,4.31,0,0,1-1.464-1.96,7.058,7.058,0,0,1-.448-2.5,7.58,7.58,0,0,1,.464-2.648A4.609,4.609,0,0,1,2.56-9.752a4.056,4.056,0,0,1,2.592-.808,4.874,4.874,0,0,1,1.8.3,5.367,5.367,0,0,1,1.336.76v1.92H7.376a2.847,2.847,0,0,0-.768-1.872,2.224,2.224,0,0,0-1.568-.592A2.516,2.516,0,0,0,2.776-8.9a5.325,5.325,0,0,0-.744,2.952,9.78,9.78,0,0,0,.344,2.64A4.788,4.788,0,0,0,3.44-1.3a2.344,2.344,0,0,0,1.792.776A2.8,2.8,0,0,0,6.96-1.12,2.784,2.784,0,0,0,7.984-2.832h.608a3.639,3.639,0,0,1-.64,1.552A3.572,3.572,0,0,1,6.72-.2,3.319,3.319,0,0,1,5.136.192Zm7.6-.016A2.985,2.985,0,0,1,11.1-.28,2.991,2.991,0,0,1,9.992-1.568,4.457,4.457,0,0,1,9.6-3.488a4.7,4.7,0,0,1,.424-2.032,3.3,3.3,0,0,1,1.184-1.392,3.105,3.105,0,0,1,1.736-.5,3.014,3.014,0,0,1,1.648.456,3.043,3.043,0,0,1,1.12,1.288,4.381,4.381,0,0,1,.4,1.92,4.583,4.583,0,0,1-.432,2.016,3.394,3.394,0,0,1-1.2,1.4A3.107,3.107,0,0,1,12.736.176Zm.288-.48a1.5,1.5,0,0,0,1.28-.784,4.1,4.1,0,0,0,.512-2.24,6.021,6.021,0,0,0-.264-1.856,3.047,3.047,0,0,0-.744-1.28,1.543,1.543,0,0,0-1.1-.464,1.5,1.5,0,0,0-1.312.792,4.065,4.065,0,0,0-.5,2.168,5.973,5.973,0,0,0,.272,1.848,3.263,3.263,0,0,0,.76,1.328A1.515,1.515,0,0,0,13.024-.3ZM17.088-.48h1.024v-9.968l-1.152-.016v-.464l2.368-.128V-.48h1.024V0H17.088ZM24.48.176A2.985,2.985,0,0,1,22.848-.28a2.991,2.991,0,0,1-1.112-1.288,4.457,4.457,0,0,1-.392-1.92,4.694,4.694,0,0,1,.424-2.032,3.3,3.3,0,0,1,1.184-1.392,3.105,3.105,0,0,1,1.736-.5,3.014,3.014,0,0,1,1.648.456,3.043,3.043,0,0,1,1.12,1.288,4.381,4.381,0,0,1,.4,1.92,4.583,4.583,0,0,1-.432,2.016,3.394,3.394,0,0,1-1.2,1.4A3.107,3.107,0,0,1,24.48.176Zm.288-.48a1.5,1.5,0,0,0,1.28-.784,4.1,4.1,0,0,0,.512-2.24A6.021,6.021,0,0,0,26.3-5.184a3.047,3.047,0,0,0-.744-1.28,1.543,1.543,0,0,0-1.1-.464,1.5,1.5,0,0,0-1.312.792,4.065,4.065,0,0,0-.5,2.168,5.973,5.973,0,0,0,.272,1.848,3.263,3.263,0,0,0,.76,1.328A1.515,1.515,0,0,0,24.768-.3Zm8.256-7.1a1.793,1.793,0,0,1,.672.128,1.181,1.181,0,0,1,.48.32v1.424h-.7A.975.975,0,0,0,32.4-6.512a1,1,0,0,0-.88.592,2.807,2.807,0,0,0-.336,1.408V-.48H32.56V0H28.928V-.48h1.056V-6.752h-1.04v-.464l2.192-.128.016,1.152a2.025,2.025,0,0,1,.776-.872A2.007,2.007,0,0,1,33.024-7.408Z" transform="translate(814.392 2429)" fill="#363636"/>
    </g>
    <path id="パス_93" data-name="パス 93" d="M.792-.864h1.92V-14.688H.792v-.864H4.9l5.28,12.024,5.088-12.024h4.008v.864h-1.92V-.864h1.92V0h-5.88V-.864h1.92v-12.12L10.176-.888h-1.1L3.744-13.08V-.864H5.592V0H.792Zm26.808,0V0H20.856V-.864h2.352V-14.688H20.952v-.864H27.5v.864H25.248V-.864Zm1.584,0H31.1V-14.688h-1.92v-.864H33.1L40.32-3.888v-10.8H38.4v-.864h4.872v.864h-1.92V0h-1.1L32.136-13.224V-.864h1.92V0H29.184Zm22.176,0V0H44.616V-.864h2.352V-14.688H44.712v-.864h6.552v.864H49.008V-.864ZM65.736.288A6.33,6.33,0,0,1,61.812-.864a6.466,6.466,0,0,1-2.2-2.94,10.587,10.587,0,0,1-.672-3.756,11.369,11.369,0,0,1,.7-3.972,6.913,6.913,0,0,1,2.232-3.1A6.084,6.084,0,0,1,65.76-15.84a7.31,7.31,0,0,1,2.7.444,8.05,8.05,0,0,1,2,1.14v2.88H69.1a4.27,4.27,0,0,0-1.152-2.808,3.336,3.336,0,0,0-2.352-.888,3.773,3.773,0,0,0-3.4,1.716A7.988,7.988,0,0,0,61.08-8.928a14.67,14.67,0,0,0,.516,3.96,7.182,7.182,0,0,0,1.6,3.012A3.517,3.517,0,0,0,65.88-.792a4.2,4.2,0,0,0,2.592-.888,4.176,4.176,0,0,0,1.536-2.568h.912a5.458,5.458,0,0,1-.96,2.328A5.358,5.358,0,0,1,68.112-.3,4.978,4.978,0,0,1,65.736.288ZM79.2.288a6.1,6.1,0,0,1-3.756-1.1A6.307,6.307,0,0,1,73.3-3.684a10.528,10.528,0,0,1-.672-3.78,11.612,11.612,0,0,1,.684-3.948,7.054,7.054,0,0,1,2.244-3.168,6.139,6.139,0,0,1,3.984-1.26,6.207,6.207,0,0,1,3.78,1.1,6.487,6.487,0,0,1,2.208,2.868,9.989,9.989,0,0,1,.708,3.756,11.124,11.124,0,0,1-.72,3.936A7.349,7.349,0,0,1,83.22-.984,6.187,6.187,0,0,1,79.2.288ZM79.776-.5a3.531,3.531,0,0,0,3.216-1.764,8.968,8.968,0,0,0,1.08-4.716,14.262,14.262,0,0,0-.516-3.876,6.994,6.994,0,0,0-1.644-3.012,3.846,3.846,0,0,0-2.9-1.176,3.447,3.447,0,0,0-3.2,1.74,8.657,8.657,0,0,0-1.02,4.428,13.365,13.365,0,0,0,1.2,5.928A3.973,3.973,0,0,0,79.776-.5ZM94.824.288a6.1,6.1,0,0,1-3.756-1.1A6.307,6.307,0,0,1,88.92-3.684a10.528,10.528,0,0,1-.672-3.78,11.612,11.612,0,0,1,.684-3.948,7.054,7.054,0,0,1,2.244-3.168,6.139,6.139,0,0,1,3.984-1.26,6.207,6.207,0,0,1,3.78,1.1,6.487,6.487,0,0,1,2.208,2.868,9.988,9.988,0,0,1,.708,3.756,11.124,11.124,0,0,1-.72,3.936A7.349,7.349,0,0,1,98.844-.984,6.187,6.187,0,0,1,94.824.288ZM95.4-.5a3.531,3.531,0,0,0,3.216-1.764A8.968,8.968,0,0,0,99.7-6.984a14.262,14.262,0,0,0-.516-3.876,6.994,6.994,0,0,0-1.644-3.012,3.846,3.846,0,0,0-2.9-1.176,3.447,3.447,0,0,0-3.2,1.74,8.657,8.657,0,0,0-1.02,4.428,13.365,13.365,0,0,0,1.2,5.928A3.973,3.973,0,0,0,95.4-.5Zm15.1-15.048a4.919,4.919,0,0,1,3.528,1.128A3.875,3.875,0,0,1,115.2-11.5a4.184,4.184,0,0,1-.564,2.16A4.013,4.013,0,0,1,113-7.812a5.3,5.3,0,0,1-2.508.564h-3.024V-.864h1.92V0h-5.88V-.864h1.92V-14.688h-1.92v-.864Zm-.288,7.392a2.455,2.455,0,0,0,1.956-.924,3.539,3.539,0,0,0,.78-2.364,3.532,3.532,0,0,0-.744-2.364,2.481,2.481,0,0,0-1.992-.876h-2.736V-8.16Zm18.264,3.936V0h-11.88V-.864h1.92V-14.688h-1.92v-.864H128.28v4.176h-.912L126.1-14.688h-5.544v6.024h3.768v-1.848h1.1V-5.9h-1.1V-7.752h-3.768V-.864h5.736l1.272-3.36Zm16.08,3.36V0H140.88l-4.56-7.176h-2.232V-.864h1.9V0h-5.856V-.864h1.92V-14.688h-1.92v-.864h6.984a4.822,4.822,0,0,1,3.528,1.164,3.993,3.993,0,0,1,1.176,2.964,4.1,4.1,0,0,1-.888,2.676A4.156,4.156,0,0,1,138.5-7.32l4.32,6.456ZM134.088-8.088h2.76a2.455,2.455,0,0,0,1.956-.924,3.539,3.539,0,0,0,.78-2.364,3.639,3.639,0,0,0-.756-2.4,2.448,2.448,0,0,0-1.98-.912h-2.76Zm22.1,9.576a8.688,8.688,0,0,1-3.132-3.54,12.375,12.375,0,0,1-1.068-5.436,12.468,12.468,0,0,1,1.092-5.412,8.673,8.673,0,0,1,3.108-3.612l.36.336a7.409,7.409,0,0,0-2.052,3.408,16.319,16.319,0,0,0-.8,5.256,16.319,16.319,0,0,0,.8,5.256,7.409,7.409,0,0,0,2.052,3.408ZM163.368-10.1a5.026,5.026,0,0,1,2.34.564,4.446,4.446,0,0,1,1.776,1.692,5.086,5.086,0,0,1,.684,2.688,5.362,5.362,0,0,1-.792,2.976,5.115,5.115,0,0,1-2,1.836,5.5,5.5,0,0,1-2.508.612,5.516,5.516,0,0,1-2.808-.72,5.1,5.1,0,0,1-1.944-1.968l.768-.48A4.138,4.138,0,0,0,160.464-1.3a4.387,4.387,0,0,0,2.184.552,3.112,3.112,0,0,0,1.692-.492,3.526,3.526,0,0,0,1.26-1.452,5.044,5.044,0,0,0,.48-2.28,4.819,4.819,0,0,0-.48-2.244,3.232,3.232,0,0,0-1.26-1.368,3.363,3.363,0,0,0-1.692-.444,2.748,2.748,0,0,0-1.44.36,4.486,4.486,0,0,0-1.08.912h-.936l.576-7.8H167.4v1.92h-6.888l-.336,4.656a4.234,4.234,0,0,1,1.38-.816A5.1,5.1,0,0,1,163.368-10.1Zm7.176,3.336H175.8v.936h-5.256Zm14.28-8.784q3.528,0,5.16,2.076a8.5,8.5,0,0,1,1.632,5.412,10.745,10.745,0,0,1-.708,3.9,6.753,6.753,0,0,1-2.232,3A6.163,6.163,0,0,1,184.824,0h-7.3V-.864h1.92V-14.688h-1.92v-.864Zm0,14.688a3.712,3.712,0,0,0,3.528-2.088,10.884,10.884,0,0,0,1.1-5.136,8.857,8.857,0,0,0-1.14-4.824,3.861,3.861,0,0,0-3.492-1.776h-3.336V-.864ZM200.208.288a6.1,6.1,0,0,1-3.756-1.1A6.307,6.307,0,0,1,194.3-3.684a10.528,10.528,0,0,1-.672-3.78,11.612,11.612,0,0,1,.684-3.948,7.054,7.054,0,0,1,2.244-3.168,6.139,6.139,0,0,1,3.984-1.26,6.207,6.207,0,0,1,3.78,1.1,6.487,6.487,0,0,1,2.208,2.868,9.989,9.989,0,0,1,.708,3.756,11.124,11.124,0,0,1-.72,3.936,7.349,7.349,0,0,1-2.292,3.192A6.187,6.187,0,0,1,200.208.288Zm.576-.792A3.531,3.531,0,0,0,204-2.268a8.968,8.968,0,0,0,1.08-4.716,14.262,14.262,0,0,0-.516-3.876,6.994,6.994,0,0,0-1.644-3.012,3.846,3.846,0,0,0-2.9-1.176,3.447,3.447,0,0,0-3.2,1.74,8.658,8.658,0,0,0-1.02,4.428,13.365,13.365,0,0,0,1.2,5.928A3.973,3.973,0,0,0,200.784-.5Zm15.048.792a6.1,6.1,0,0,1-3.756-1.1,6.307,6.307,0,0,1-2.148-2.868,10.528,10.528,0,0,1-.672-3.78,11.612,11.612,0,0,1,.684-3.948,7.054,7.054,0,0,1,2.244-3.168,6.139,6.139,0,0,1,3.984-1.26,6.207,6.207,0,0,1,3.78,1.1,6.487,6.487,0,0,1,2.208,2.868,9.989,9.989,0,0,1,.708,3.756,11.124,11.124,0,0,1-.72,3.936,7.349,7.349,0,0,1-2.292,3.192A6.187,6.187,0,0,1,215.832.288Zm.576-.792a3.531,3.531,0,0,0,3.216-1.764,8.968,8.968,0,0,0,1.08-4.716,14.262,14.262,0,0,0-.516-3.876,6.994,6.994,0,0,0-1.644-3.012,3.846,3.846,0,0,0-2.9-1.176,3.447,3.447,0,0,0-3.2,1.74,8.658,8.658,0,0,0-1.02,4.428,13.365,13.365,0,0,0,1.2,5.928A3.973,3.973,0,0,0,216.408-.5Zm22.536-.36V0h-3.672l-4.56-7.176H228.48V-.864h1.9V0H224.52V-.864h1.92V-14.688h-1.92v-.864H231.5a4.822,4.822,0,0,1,3.528,1.164,3.993,3.993,0,0,1,1.176,2.964,4.1,4.1,0,0,1-.888,2.676A4.156,4.156,0,0,1,232.9-7.32l4.32,6.456ZM228.48-8.088h2.76a2.455,2.455,0,0,0,1.956-.924,3.539,3.539,0,0,0,.78-2.364,3.639,3.639,0,0,0-.756-2.4,2.448,2.448,0,0,0-1.98-.912h-2.76ZM239.9-16.512a8.687,8.687,0,0,1,3.132,3.54A12.375,12.375,0,0,1,244.1-7.536a12.468,12.468,0,0,1-1.092,5.412A8.673,8.673,0,0,1,239.9,1.488l-.36-.336A7.409,7.409,0,0,0,241.6-2.256a16.319,16.319,0,0,0,.8-5.256,16.319,16.319,0,0,0-.8-5.256,7.409,7.409,0,0,0-2.052-3.408ZM256.968.288a7.414,7.414,0,0,1-2.748-.48,4.348,4.348,0,0,1-1.788-1.176V-4.2h1.3a4.771,4.771,0,0,0,1.08,2.868,3.009,3.009,0,0,0,2.208.828,3.158,3.158,0,0,0,2.292-.78,2.791,2.791,0,0,0,.8-2.1,2.683,2.683,0,0,0-1.32-2.4l-4.272-2.76A5.128,5.128,0,0,1,253-9.96a3.414,3.414,0,0,1-.54-1.968,3.541,3.541,0,0,1,1.26-2.844,5.2,5.2,0,0,1,3.468-1.068,6.989,6.989,0,0,1,2.46.408,4.609,4.609,0,0,1,1.788,1.152v2.9h-1.3a5.126,5.126,0,0,0-.912-2.892,2.6,2.6,0,0,0-2.04-.8,2.8,2.8,0,0,0-2.2.768,2.683,2.683,0,0,0-.684,1.848,2.284,2.284,0,0,0,1.1,2.064l4.2,2.688a6.063,6.063,0,0,1,1.884,1.716,3.62,3.62,0,0,1,.564,2,4.1,4.1,0,0,1-.6,2.2,4.063,4.063,0,0,1-1.74,1.524A6.258,6.258,0,0,1,256.968.288ZM271.416.264a1.389,1.389,0,0,1-1.02-.42,1.389,1.389,0,0,1-.42-1.02,1.389,1.389,0,0,1,.42-1.02,1.389,1.389,0,0,1,1.02-.42,1.389,1.389,0,0,1,1.02.42,1.389,1.389,0,0,1,.42,1.02,1.389,1.389,0,0,1-.42,1.02A1.389,1.389,0,0,1,271.416.264ZM12.48,16.448v4.176h-.912L10.3,17.312H4.752v6.024H8.52V21.488h1.1V26.1H8.52V24.248H4.752v6.888H6.816V32H.792v-.864h1.92V17.312H.792v-.864ZM26.208,31.136V32H20.64v-.864h1.752l-1.728-4.872H15.5l-1.728,4.872h1.752V32H11.04v-.864h1.7l5.3-14.688h1.128L24.5,31.136Zm-5.88-5.784L18.12,19.136h-.1l-2.208,6.216Zm19.056-8.04h-1.8L32.424,32h-1.1L26.064,17.312h-1.92v-.864H30.12v.864H28.2L32.4,29.1l4.2-11.784H34.68v-.864h4.7Zm6.768,14.976a6.1,6.1,0,0,1-3.756-1.1,6.307,6.307,0,0,1-2.148-2.868,10.528,10.528,0,0,1-.672-3.78,11.612,11.612,0,0,1,.684-3.948A7.054,7.054,0,0,1,42.5,17.42a6.139,6.139,0,0,1,3.984-1.26,6.207,6.207,0,0,1,3.78,1.1,6.487,6.487,0,0,1,2.208,2.868,9.989,9.989,0,0,1,.708,3.756,11.124,11.124,0,0,1-.72,3.936,7.349,7.349,0,0,1-2.292,3.192A6.187,6.187,0,0,1,46.152,32.288Zm.576-.792a3.531,3.531,0,0,0,3.216-1.764,8.968,8.968,0,0,0,1.08-4.716,14.262,14.262,0,0,0-.516-3.876,6.994,6.994,0,0,0-1.644-3.012,3.846,3.846,0,0,0-2.9-1.176,3.447,3.447,0,0,0-3.2,1.74,8.657,8.657,0,0,0-1.02,4.428,13.365,13.365,0,0,0,1.2,5.928A3.973,3.973,0,0,0,46.728,31.5Zm14.976.792a5.315,5.315,0,0,1-3.816-1.344,5.075,5.075,0,0,1-1.416-3.864V17.312h-1.92v-.864h5.88v.864h-1.92V27.32a3.882,3.882,0,0,0,1,2.952,3.682,3.682,0,0,0,2.628.936,3.828,3.828,0,0,0,2.676-.948,3.749,3.749,0,0,0,1.044-2.916V17.312h-1.9v-.864h4.824v.864h-1.9V27.44a4.593,4.593,0,0,1-1.416,3.528A5.3,5.3,0,0,1,61.7,32.288Zm22.8-1.152V32H80.832l-4.56-7.176H74.04v6.312h1.9V32H70.08v-.864H72V17.312H70.08v-.864h6.984a4.822,4.822,0,0,1,3.528,1.164,3.993,3.993,0,0,1,1.176,2.964,4.1,4.1,0,0,1-.888,2.676,4.156,4.156,0,0,1-2.424,1.428l4.32,6.456ZM74.04,23.912H76.8a2.455,2.455,0,0,0,1.956-.924,3.539,3.539,0,0,0,.78-2.364,3.639,3.639,0,0,0-.756-2.4,2.448,2.448,0,0,0-1.98-.912H74.04ZM97.3,27.776V32H85.416v-.864h1.92V17.312h-1.92v-.864H97.1v4.176h-.912L94.92,17.312H89.376v6.024h3.768V21.488h1.1V26.1h-1.1V24.248H89.376v6.888h5.736l1.272-3.36Zm8.952-11.328q3.528,0,5.16,2.076a8.5,8.5,0,0,1,1.632,5.412,10.745,10.745,0,0,1-.708,3.9,6.753,6.753,0,0,1-2.232,3A6.163,6.163,0,0,1,106.248,32h-7.3v-.864h1.92V17.312h-1.92v-.864Zm0,14.688a3.712,3.712,0,0,0,3.528-2.088,10.884,10.884,0,0,0,1.1-5.136,8.857,8.857,0,0,0-1.14-4.824,3.861,3.861,0,0,0-3.492-1.776h-3.336V31.136Zm17.016,0h2.112V17.312H122.4l-1.248,3.312h-.888V16.448H132.48v4.176h-.888l-1.2-3.312h-2.976V31.136h2.112V32h-6.264Zm24.912,0V32H144.5l-4.56-7.176h-2.232v6.312h1.9V32h-5.856v-.864h1.92V17.312h-1.92v-.864h6.984a4.822,4.822,0,0,1,3.528,1.164,3.993,3.993,0,0,1,1.176,2.964,4.1,4.1,0,0,1-.888,2.676,4.156,4.156,0,0,1-2.424,1.428l4.32,6.456Zm-10.464-7.224h2.76a2.455,2.455,0,0,0,1.956-.924,3.539,3.539,0,0,0,.78-2.364,3.639,3.639,0,0,0-.756-2.4,2.448,2.448,0,0,0-1.98-.912h-2.76Zm18.12,7.224V32h-6.744v-.864h2.352V17.312h-2.256v-.864h6.552v.864H153.48V31.136Zm1.584,0h1.92V17.312h-1.92v-.864h4.1l5.28,12.024,5.088-12.024H175.9v.864h-1.92V31.136h1.92V32h-5.88v-.864h1.92V19.016l-5.136,12.1h-1.1L160.368,18.92V31.136h1.848V32h-4.8Zm21.792,1.128a1.434,1.434,0,1,1,1.02-.42A1.389,1.389,0,0,1,179.208,32.264Z" transform="translate(189 2424.864)" fill="#363636"/>
    <path id="パス_92" data-name="パス 92" d="M29.232,1.232a20.776,20.776,0,0,1-13.44-4.7A30.063,30.063,0,0,1,6.776-16.744,56.088,56.088,0,0,1,3.584-36.4,55.619,55.619,0,0,1,6.776-56a29.867,29.867,0,0,1,9.072-13.216,21,21,0,0,1,13.5-4.7,21.159,21.159,0,0,1,13.5,4.648,29.468,29.468,0,0,1,9.072,13.16,55.619,55.619,0,0,1,3.192,19.6,55.213,55.213,0,0,1-3.248,19.656A30.644,30.644,0,0,1,42.728-3.528,20.845,20.845,0,0,1,29.232,1.232Zm.112-3.584q7.616,0,11.648-8.736T45.024-36.4q0-16.464-4.032-25.2T29.344-70.336q-7.616,0-11.648,8.736T13.664-36.4q0,16.576,4.032,25.312T29.344-2.352ZM94.416-39.2q15.68,5.04,15.68,18.592a19.244,19.244,0,0,1-3.64,11.76,23.268,23.268,0,0,1-9.408,7.5,29.21,29.21,0,0,1-12.04,2.576A24.223,24.223,0,0,1,72.072-2.24a25.575,25.575,0,0,1-8.9-9.072l3.584-2.24a17.989,17.989,0,0,0,7.616,7.5,21.193,21.193,0,0,0,9.744,2.464A17.389,17.389,0,0,0,91.9-5.376a14.427,14.427,0,0,0,5.936-5.488,16.654,16.654,0,0,0,2.3-8.96q0-7.5-4.536-11.928a15.486,15.486,0,0,0-11.256-4.424h-2.8v-3.472a18.981,18.981,0,0,0,7.728-1.68,14.6,14.6,0,0,0,6.272-5.32A15.929,15.929,0,0,0,98-55.776a16.643,16.643,0,0,0-3.136-10.248q-3.136-4.2-9.072-4.2-6.384,0-9.576,4.872A24.569,24.569,0,0,0,72.576-53.2H66.528V-66.64a22.162,22.162,0,0,1,8.288-5.376,29.85,29.85,0,0,1,10.976-2.016A27.119,27.119,0,0,1,96.656-71.9a18.858,18.858,0,0,1,7.9,6.16,15.619,15.619,0,0,1,2.968,9.52Q107.52-44.912,94.416-39.2Z" transform="translate(188 2377.12)" fill="#363636"/>
  </g>
</svg>
