<svg xmlns="http://www.w3.org/2000/svg" width="481.946" height="283.595" viewBox="0 0 481.946 283.595">
  <g id="sec01-01" transform="translate(-882.997 -3154.434)">
    <rect id="長方形_189" data-name="長方形 189" width="341" height="23" transform="translate(955.939 3315.473)" fill="#26d6c3" opacity="0.3"/>
    <path id="パス_59" data-name="パス 59" d="M-185.518,8.085h3.366V-8.82c.719-.151,1.324-.3,1.513-.34l.3-.076.3-.076c.189.643.3,1.21.605,2.647l3.063-1.4a14.949,14.949,0,0,0-3.971-6.354l-1.135.756c.454,1.1.643,1.664.983,2.647-.832.076-3.858.265-4.917.3a82.73,82.73,0,0,0,7.148-8.509c.832-.189,1.172-.416,1.172-.832a.57.57,0,0,0-.34-.529l-3.29-1.853a72.483,72.483,0,0,1-6.543,11.043l-.529.756h-.151l-1.588.038c-.227,0-.794,0-1.513.038l.908,3.252a.687.687,0,0,0,.529.492c.265,0,.529-.227.87-.756,1.777-.3,2.231-.378,3.215-.567ZM-191.04-20.09a33.847,33.847,0,0,1,4.311,6.165l2.269-3.555a19.644,19.644,0,0,0-2.118-1.815,43.646,43.646,0,0,0,3.971-4.879c.794-.151,1.21-.454,1.21-.832,0-.227-.189-.454-.529-.605l-3.706-1.588a45.959,45.959,0,0,1-2.5,6.959A19.472,19.472,0,0,0-190.4-21.3ZM-172.093-4.7v-9.455c.492-.378.605-.529.605-.794,0-.34-.265-.529-.794-.529h-3.328V.408h3.517v-3.29h3.668V4.19c0,2.194.945,3.177,3.139,3.139h6.089c2.156.038,3.063-.832,3.252-2.95l.454-5.03-2-.227-.378,3.479c-.151.983-.454,1.248-1.437,1.286h-4.274c-.983-.038-1.286-.34-1.324-1.324V-2.882h7.677v-11.27c.492-.34.605-.529.605-.794,0-.34-.265-.529-.794-.529H-160.9V-4.7h-4.009V-18.955c1.891-.227,3.328-.454,6.391-1.059a3.232,3.232,0,0,0,1.1.227c.529,0,.87-.265.87-.681,0-.265-.113-.454-.492-.908l-2.269-2.572a54.609,54.609,0,0,1-5.6,1.778v-3.29c.454-.378.605-.567.605-.832,0-.34-.265-.529-.794-.529h-3.328v5.484c-3.139.719-4.992,1.059-8.358,1.588l.227,1.664c4.122-.151,6.089-.265,8.131-.454V-4.7Zm-9.341-.529a48.2,48.2,0,0,1,1.815,8.509l3.215-1.626a20.924,20.924,0,0,0-3.668-7.337Zm-8.32-.454a68.415,68.415,0,0,1-1.286,10.4l1.172.492A30.887,30.887,0,0,0-186.691-3.3c.605-.227.87-.492.87-.87,0-.3-.189-.454-.567-.567Zm58.09-17.283h11.043l1.551.3v-2.572l-1.551.3H-150.2l-1.588-.3v2.572l1.588-.3h14.069V4.228h-7V-13.7c.492-.378.605-.529.605-.794,0-.34-.265-.529-.794-.529h-4.16V4.228h-4.16l-1.588-.3V6.5l1.588-.3h32.373l1.588.3V3.925l-1.588.3h-12.4V-9.349h9.3l1.588.3v-2.572l-1.588.3h-9.3Zm35.739,8.131c.529-.454.756-.794.756-1.1,0-.378-.416-.719-.983-.756l-4.614-.34.34,2.383v2.307c-.076,6.24-1.1,9.455-3.82,12.216a22.8,22.8,0,0,1-7.98,5.03l.529,1.475c9.114-1.815,14.523-6.656,15.392-13.8,8.282-2.307,13.653-7.829,15.355-15.846h-30.1l-1.891-.378v2.874l1.891-.378h24.431A19.833,19.833,0,0,1-96.076-9.425c.076-.681.151-2.383.151-3.177Zm35.437-5.711A30.491,30.491,0,0,0-59.2-23.418c.756-.34,1.059-.605,1.059-1.059,0-.416-.34-.681-.945-.794l-4.538-.908-.454,2.345A33.6,33.6,0,0,1-74.027-9.009l.87,1.286a25.954,25.954,0,0,0,11.535-10.7h10.665c-1.248,5.6-4.727,12.178-8.056,15.392C-62.53.559-67.56,3.434-73.725,5.362l.34,1.588c7.11-1.324,11.611-3.026,15.657-6.013C-51.6-3.525-47.4-10.976-45.587-20.544Zm35.55,4.009v-6.921c.567-.416.832-.719.832-1.1a.88.88,0,0,0-.908-.794l-4.69-.265.378,2.647v6.807L-37-15.476l-1.967-.227.227,2.95,1.929-.567,7.488-.643V.105A7.368,7.368,0,0,0-28.569,3.7,3,3,0,0,0-26.9,4.719a47.707,47.707,0,0,0,9.039.529,88.7,88.7,0,0,0,9.984-.416V.484a58.563,58.563,0,0,1-10.589.756c-5.673,0-6.467-.3-6.467-2.345V-14.341l13.5-1.135A28.67,28.67,0,0,1-20.1-4.7l.87,1.324A23.023,23.023,0,0,0-5.31-18.2Zm45.913-.113H10.347v-6.127c.605-.454.832-.756.832-1.135a.826.826,0,0,0-.908-.756l-4.5-.3L6.15-22.4v5.749H.893l-1.815-.34v2.8l1.815-.34H6.15V-4.319h4.2V-14.531H20.975V-12.6C20.937-5.794,19.916-2.2,17.306.332A21.514,21.514,0,0,1,8.759,5.1l.567,1.74A26.056,26.056,0,0,0,19.916,2.715C24-.273,25.286-3.941,25.362-12.6v-1.929H30.77l1.815.34v-2.8l-1.815.34H25.362v-6.278c.605-.454.832-.756.832-1.135a.88.88,0,0,0-.908-.794L20.6-25.12l.378,2.572Zm27,24.053A24.258,24.258,0,0,0,60.155,2.3C63.71-.764,65-4.887,65-13.169V-23.607c.605-.416.832-.719.832-1.1a.919.919,0,0,0-.945-.794l-4.765-.265.378,2.572v10.476C60.382-5.643,59.4-2.315,56.525.6A21.018,21.018,0,0,1,47.6,5.816ZM42.3-22.548V-4.13h4.5v-18.8c.605-.454.832-.719.832-1.1a.865.865,0,0,0-.945-.794l-4.765-.3Zm65.2,11.951L75.926-12V-7l31.579-1.437Zm21.1-9.946a30.493,30.493,0,0,0,1.286-2.874c.756-.34,1.059-.605,1.059-1.059,0-.416-.34-.681-.945-.794l-4.538-.908-.454,2.345a33.6,33.6,0,0,1-9.946,14.825l.87,1.286a25.954,25.954,0,0,0,11.535-10.7h10.665c-1.248,5.6-4.727,12.178-8.055,15.392-3.517,3.593-8.547,6.467-14.712,8.4l.34,1.588c7.11-1.324,11.611-3.026,15.657-6.013,6.127-4.463,10.325-11.913,12.14-21.481ZM183.144-10.6,151.565-12V-7l31.579-1.437Zm23.977-5.446h11.005l1.891.378v-2.874l-1.891.378H207.121v-5.181c.605-.416.832-.719.832-1.1a.88.88,0,0,0-.908-.794l-4.69-.265.378,2.572v4.765H191.086l-1.891-.378v2.874l1.891-.378h11.648V2.866c0,1.361-.567,1.929-1.929,1.929h-3.9V6.913h6.959c2.269,0,3.252-.983,3.252-3.366Zm3.063,4.274a48.948,48.948,0,0,1,6.959,14.447l4.5-2.345c-2.572-5.938-5.749-9.984-10.287-13.01ZM188.325,2.639c4.084-2.307,7.829-6.883,10.136-12.4.756-.265,1.059-.567,1.059-.983,0-.34-.265-.643-.719-.832l-4.236-1.437-.492,2.231a35.6,35.6,0,0,1-6.694,12.216ZM218.807-27.2a3.947,3.947,0,0,0-4.009,3.933,3.971,3.971,0,0,0,3.971,3.971,3.963,3.963,0,0,0,3.933-3.971A3.972,3.972,0,0,0,218.807-27.2Zm-.076,1.815a2.147,2.147,0,0,1,2.156,2.118,2.147,2.147,0,0,1-2.118,2.156,2.131,2.131,0,0,1-2.156-2.156A2.164,2.164,0,0,1,218.732-25.385Zm39.559,6.5C252.353-7.723,244.184-1.748,231.477.673L229.4.6l1.74,4.2c.265.605.605.945,1.021.945.492,0,.794-.265,1.1-.945,8.434-2,13.539-4.425,18-8.472a29.99,29.99,0,0,0,8.472-14.6Zm-29.272-3.933a34.048,34.048,0,0,1,9.53,8.585l3.9-4.122c-3.063-2.95-7.375-4.954-12.783-5.862ZM-52.848,53.468c10.173-2.647,14.371-5.106,18.721-11.043a32.851,32.851,0,0,0,5.408-14.22,3.765,3.765,0,0,1-2.458-2.383h-23.3l-1.891-.378v2.874l1.891-.378H-33.75c-2.231,12.1-8.661,19.855-19.779,23.788Zm26.1-33.659a3.947,3.947,0,0,0-4.009,3.933,3.971,3.971,0,0,0,3.971,3.971,3.963,3.963,0,0,0,3.933-3.971A3.972,3.972,0,0,0-26.753,19.809Zm-.076,1.815a2.147,2.147,0,0,1,2.156,2.118A2.131,2.131,0,0,1-26.829,25.9a2.123,2.123,0,0,1-2.118-2.156A2.164,2.164,0,0,1-26.829,21.625Zm13.161,31.617a37.16,37.16,0,0,0,16-5.711A28.443,28.443,0,0,0,13.562,32.592l-1.437-.719A31.876,31.876,0,0,1-9.281,47.644V24.8c.605-.416.832-.719.832-1.1a.88.88,0,0,0-.908-.794l-4.69-.265.378,2.572ZM27.064,31.42l-7.6.681L17.5,31.874l.227,2.95,1.929-.567,7.413-.643V47.682c0,3.252.945,4.576,3.442,4.841,1.853.189,5.257.3,8.547.3a93.42,93.42,0,0,0,9.417-.416V48.06a63.281,63.281,0,0,1-10.589.681c-5.635,0-6.429-.3-6.429-2.269V33.235l13.577-1.172a28.712,28.712,0,0,1-8.661,10.816l.87,1.324a22.911,22.911,0,0,0,13.88-14.825L31.451,31.042V24.121c.605-.416.832-.719.832-1.1a.88.88,0,0,0-.908-.794l-4.69-.265.378,2.647Zm25.452-7.11a7.906,7.906,0,0,0-4.538-4.236l-.945.681a15.338,15.338,0,0,1,2.534,5.03Zm-9.833-3.026A16.1,16.1,0,0,1,44.8,26.5l2.988-1.4a8.218,8.218,0,0,0-4.122-4.463ZM88.1,28.394C82.166,39.551,74,45.526,61.29,47.947l-2.08-.076,1.74,4.2c.265.605.605.945,1.021.945.492,0,.794-.265,1.1-.945,8.434-2,13.539-4.425,18-8.472A29.99,29.99,0,0,0,89.541,29ZM58.832,24.461a34.048,34.048,0,0,1,9.53,8.585l3.9-4.122c-3.063-2.95-7.375-4.954-12.783-5.862Zm49.014-.945c.605-.378.832-.681.832-1.059,0-.416-.378-.756-.945-.794l-4.69-.265.3,2.572V54.187h4.5V34.445c5.181,2.307,8.85,5.03,13.35,9.909l3.328-4.387a39.2,39.2,0,0,0-16.678-7.488Z" transform="translate(1089.229 3383.342)" fill="#26d6c3" stroke="rgba(0,0,0,0)" stroke-width="1"/>
    <path id="パス_58" data-name="パス 58" d="M-89.058,2.505v8.3h-41.8V7.079Q-117.351-7.6-111.129-15.1a67.417,67.417,0,0,0,8.935-13.136,26.906,26.906,0,0,0,2.712-11.807q0-7.765-3.457-11.754a11.218,11.218,0,0,0-8.882-3.989,10.505,10.505,0,0,0-9.254,4.68,22.489,22.489,0,0,0-3.616,11.488h-5.744V-52.38a19.889,19.889,0,0,1,7.978-5.106A30.342,30.342,0,0,1-111.714-59.4a28.193,28.193,0,0,1,10.264,1.915,18.389,18.389,0,0,1,8.19,6.222,17.8,17.8,0,0,1,3.244,11.009,19.665,19.665,0,0,1-2.553,9.626,61.229,61.229,0,0,1-8.456,11.062q-5.9,6.435-21.327,22.071Zm34.25,9.467A19.731,19.731,0,0,1-67.572,7.5,28.55,28.55,0,0,1-76.134-5.1a53.267,53.267,0,0,1-3.031-18.667,52.821,52.821,0,0,1,3.031-18.614,28.365,28.365,0,0,1,8.616-12.551A19.943,19.943,0,0,1-54.7-59.4a20.094,20.094,0,0,1,12.817,4.414,27.986,27.986,0,0,1,8.616,12.5,52.821,52.821,0,0,1,3.031,18.614A52.436,52.436,0,0,1-33.322-5.206,29.1,29.1,0,0,1-41.991,7.451,19.8,19.8,0,0,1-54.808,11.972Zm.106-3.4q7.233,0,11.062-8.3t3.829-24.039q0-15.636-3.829-23.932T-54.7-56q-7.233,0-11.062,8.3t-3.829,23.932q0,15.742,3.829,24.039T-54.7,8.568ZM2.311-25.079c.425-4.751.78-10.849.78-13.686V-41.53H38.4l2.836.567v-4.113l-2.836.567H-21.161L-24-45.076v4.113l2.836-.567H-3.433v2.766C-3.858-22.172-5.986-10.33-9.886-2.671-13.644,4.987-18.182,10.235-24,13.5l1.205,2.2A36.091,36.091,0,0,0-4.638.094C-.809-6.5.68-11.606,1.956-22.1H26.279A233.854,233.854,0,0,1,23.088,7.966c-.567,2.553-2.127,3.687-5.035,3.546H8.409v3.333h13.4c4.822,0,7.233-1.7,8.084-5.744C31.1,3.711,32.519-11.18,33.228-25.079ZM51.665-44.438V15.553h6.24V-13.166h43.327V8.178c0,2.766-1.205,3.971-3.971,3.971H88.113v2.978h12.48c4.822,0,6.878-2.056,6.878-6.807V-44.438Zm6.24,2.836H76.129V-16H57.905Zm24.393,0h18.933V-16H82.3Zm57.863,26.237c-.5,6.595-1.7,11.7-3.687,15.6-2.624,5.6-10.566,11.488-18.65,13.9l.638,2.34c11.346-2.34,19.43-7.02,23.33-13.473,2.482-3.971,4.326-10.637,4.964-18.366h18.224c-.284,7.3-.851,13.969-1.844,22.408-.5,4.326-1.489,5.46-4.964,5.531h-8.935v2.978h12.835c4.326.071,6.382-1.489,7.162-5.6.709-3.333,1.773-16.38,2.2-28.152H132.22l-2.836-.567V-14.8l2.836-.567Zm10.069-28.577h9.786c1.418,12.055,8.155,22.833,19.146,30.492a51.909,51.909,0,0,1,3.9-6.807,43.058,43.058,0,0,1-11.346-8.722c-5.318-5.957-7.587-10.708-8.509-17.941H150.232l-2.836-.567v4.113ZM119.243-11.96c8.935-6.311,15.1-13.473,21.415-25.1,1.844-.213,2.624-.78,2.624-1.7,0-.567-.425-.993-1.347-1.418l-6.027-2.836C130.022-29.83,125.2-21.959,117.825-13.733Z" transform="translate(1100.173 3316.03)" fill="#26d6c3" stroke="rgba(0,0,0,0)" stroke-width="1"/>
    <path id="パス_57" data-name="パス 57" d="M-151.739-3.864V3.369c0,.879-.369,1.248-1.22,1.248h-2.326V5.809h3.29c1.73,0,2.468-.681,2.439-2.3V-19.01h-9.133v4.765c0,8.368-.312,12.877-1.021,14.835A10.553,10.553,0,0,1-163,5.383l.511.6c3.6-1.9,5.276-4.879,5.616-9.842Zm0-1.135h-5.049v-.085l.113-2.071c0-.17,0-.908.028-1.957,0-.227,0-1.163.028-1.929h4.879Zm0-7.176h-4.85l.028-2.071v-3.631h4.822Zm-17.728-3.943V-19.01c.369-.255.454-.369.454-.567,0-.255-.2-.369-.6-.369h-1.986v3.829h-1.22l-1.135-.227v1.588l1.135-.227h1.22V-2.814h-1.759l-1.135-.227v1.588l1.135-.227h12.339l1.135.227V-3.041l-1.135.227h-1.22V-14.982h1.248l1.135.227v-1.588l-1.135.227h-1.248V-19.01c.369-.255.454-.369.454-.539,0-.284-.2-.4-.6-.4h-1.986v3.829Zm0,1.135h5.106v3.092h-5.106Zm0,12.168v-3.6h5.106v3.6Zm5.106-7.942v3.205h-5.106v-3.205Zm-9.871,15.714A17.812,17.812,0,0,0-169.3,1.1c.6,0,.964-.17.964-.454a.534.534,0,0,0-.284-.425l-1.9-1.276a26.224,26.224,0,0,1-4.113,5.389Zm8.339-5.049a31.459,31.459,0,0,1,3.063,4l1.73-1.73a18.239,18.239,0,0,0-4.226-2.922ZM-127.459,2.6V-7.437h-11.913V4.277h2.184V2.6Zm-9.729-5.673V-6.3h7.545v3.234Zm0,1.135h7.545v3.4h-7.545Zm2.354-17.16h-10.24v24.9h2.241V-9.934h8Zm-8,1.135h5.871v2.808h-5.871Zm5.871,3.943v2.95h-5.871v-2.95Zm4.992-5.077v9.162h8.368v13.1c0,.908-.4,1.3-1.3,1.3h-2.383V5.667h3.914c1.418,0,2.014-.6,2.014-2.042V-19.1Zm2.127,5.077h6.24v2.95h-6.24Zm0-1.135v-2.808h6.24v2.808Zm26.124.539v-4.4c.369-.255.454-.369.454-.567,0-.255-.2-.369-.6-.369h-2.326v5.333H-116.51v13.5h2.468V-2.956h7.857V5.809h2.468V-2.956h8.084v1.617h2.468V-14.614Zm0,1.135h8.084V-4.09h-8.084Zm-2.468,9.389h-7.857v-9.389h7.857ZM-66.05-15.975a22.555,22.555,0,0,0-3.631-.255,16.231,16.231,0,0,0-8.765,2.212l.2.851a34.383,34.383,0,0,1,6.978-.737,24.089,24.089,0,0,1,5.219.511Zm-19.571-2.638.028,1.361a107,107,0,0,0-.851,13.1,43.072,43.072,0,0,0,.681,8.68l2.581-.482A42.758,42.758,0,0,1-83.976-5,96.484,96.484,0,0,1-83.1-17.025c.425-.284.6-.482.6-.709s-.227-.425-.6-.482ZM-78.53-6.558A7.634,7.634,0,0,0-79.466-2.9a5.154,5.154,0,0,0,2.78,4.85,14.4,14.4,0,0,0,6.439,1.078,32.87,32.87,0,0,0,5.276-.4V-.091a29.777,29.777,0,0,1-6.212.6A10.2,10.2,0,0,1-76.29-.431a3.731,3.731,0,0,1-1.759-3.46,7.971,7.971,0,0,1,.369-2.439ZM-34.792-17.45a5.68,5.68,0,0,0-3.347-2.95l-.454.4a11.4,11.4,0,0,1,1.9,3.574Zm-6.07.936a24.309,24.309,0,0,0-5.049-.425c-4.879,0-7.6.482-10.75,1.9l.227.964a47.788,47.788,0,0,1,8-.652,26.671,26.671,0,0,1,7.573.908Zm-16,10.3a9.011,9.011,0,0,0-1.532,4.794c0,2.3,1.645,4.17,4.51,5.134a26.557,26.557,0,0,0,7.346.823,61.014,61.014,0,0,0,8.226-.539V1.1a44.194,44.194,0,0,1-8.935.851c-6.467,0-9.559-1.475-9.559-4.567a7.2,7.2,0,0,1,.879-3.205Zm15-13.473A11.724,11.724,0,0,1-40.21-16l1.929-.908a5.662,5.662,0,0,0-3.063-3.148Zm33.413,5.645,1.135.227v-1.588l-1.135.227h-7.942c-.028-.652-.057-1.3-.057-2.212v-1.759c.369-.284.454-.369.454-.567,0-.255-.2-.369-.6-.369H-18.71v2.695c0,.879.028,1.56.057,2.212h-12V-12c.085,11.09-.255,13.643-2.156,17.217l.6.482a11.784,11.784,0,0,0,3.46-6.581A35.571,35.571,0,0,0-28.325-8h5.645c-.028,1.957-.17,4.4-.312,6.382-.113,1.22-.454,1.588-1.5,1.617h-2.241V1.185h3.347c1.418,0,2.212-.511,2.5-1.7a72.92,72.92,0,0,0,.425-8.623h-7.857L-28.3-12v-2.042h9.7c.34,5.276,1.248,9.417,2.78,12.622A22.862,22.862,0,0,1-24.1,4.816l.255.851A20.263,20.263,0,0,0-14.767.448C-12.9,3.54-10.541,5.667-8.924,5.667c.567,0,1.135-.6,1.447-1.532A18.572,18.572,0,0,0-6.74-1.112l-1.021-.142C-8.073,2.008-8.385,3.171-8.9,3.171a2.416,2.416,0,0,1-1.163-.652,13.651,13.651,0,0,1-3.063-3.744l-.057-.142-.057-.085A38.012,38.012,0,0,0-9.293-8.771c.539-.142.766-.312.766-.624,0-.255-.17-.425-.539-.6l-2.042-.794a29.5,29.5,0,0,1-3.148,7.2,31.586,31.586,0,0,1-2.071-10.466Zm-5.673-5.021a17.477,17.477,0,0,1,2.1,3.234l2.269-1.617a10.485,10.485,0,0,0-3.716-2.071ZM.521,5.809H2.705V-6.813h.085l1.276-.255c.34-.085.681-.142.993-.227.2.6.312,1.021.567,2.014l2.127-.993a9.973,9.973,0,0,0-3.432-4.51l-.652.369A12.381,12.381,0,0,1,4.776-8.147l-.539.057c-1.191.057-1.844.085-4,.17H-.1A69.176,69.176,0,0,0,5.542-14.5c.624-.057.851-.227.851-.567a.477.477,0,0,0-.284-.425L4.067-16.628a64.24,64.24,0,0,1-5.531,8.68l-.057.085h-.624l-.6.028-1.7.028.6,1.986a.549.549,0,0,0,.425.369c.2,0,.369-.142.624-.482C-.7-6.246-.528-6.246.521-6.445ZM-4.3-15.011A23,23,0,0,1-.642-10.3L.805-12.4a7.449,7.449,0,0,0-1.957-1.645,29.6,29.6,0,0,0,3.205-3.971c.681-.142.908-.312.908-.624a.559.559,0,0,0-.4-.482L.238-20.116A28.736,28.736,0,0,1-2-14.614a10.124,10.124,0,0,0-1.9-1.021Zm15.629.34c.4-.794.681-1.475,1.532-3.659.567-.142.823-.34.823-.652a.658.658,0,0,0-.511-.539l-2.524-.6A34.968,34.968,0,0,1,6.591-9.593l.681.539a19.818,19.818,0,0,0,3.46-4.482h7.573c-.17,7.346-.879,16.763-1.276,17.132a1.494,1.494,0,0,1-1.645.879H11.754V5.667h4.822c2.127.028,2.95-.794,3.205-3.063.34-2.61.908-11.941,1.021-17.274ZM3.982-4.09a33.537,33.537,0,0,1,1.475,6.3l2.3-.993A16.191,16.191,0,0,0,4.748-4.374Zm-7.8,7.63A19.8,19.8,0,0,0-.982-2.672c.482-.142.681-.312.681-.6,0-.227-.113-.369-.425-.454l-2.241-.652a35.581,35.581,0,0,1-1.475,7.6ZM9.258-7.891A23.464,23.464,0,0,1,12.52-1.453l2.354-1.588A16.329,16.329,0,0,0,10-8.4ZM35.069-2.53c-.652,2.581-1.532,4.311-2.212,4.311-.652,0-1.674-1.333-2.468-3.148-1.049-2.5-1.588-6.5-1.588-12.14v-1.815c.482-.34.624-.511.624-.794s-.284-.482-.709-.511l-2.553-.17.142,1.7c.028,3.659.057,5.616.057,5.871a26.7,26.7,0,0,0,1.7,8.935c1.22,2.95,2.751,4.51,4.368,4.51,1.588,0,2.978-2.269,3.886-6.354ZM49.705-2.3c-.936-5.5-3.744-10.608-7.261-13.246l-.709.539c2.5,3.6,4.17,8,5.247,13.927Zm9.644-11.346a84.7,84.7,0,0,1-5.9,17.7l2.524.737a98.4,98.4,0,0,0,5.843-18.494,67.64,67.64,0,0,0,9.474-.709l.113-1.957-1.957.851c-2.524.284-3.574.4-5.957.482-.113,0-.709.028-1.39.057v-.057l.085-.425c.113-.567.227-1.106.539-2.61.34-.227.511-.425.511-.681a.54.54,0,0,0-.482-.482l-2.5-.511L60.2-17.961c-.255,1.361-.312,1.759-.6,3.063H54.981l-1.787-.6.17,1.9h1.844c.993,0,1.361,0,3.092-.028Zm5.276,9.786a7.993,7.993,0,0,0-.964,3.744c0,3.319,2.723,4.794,8.821,4.794a30.043,30.043,0,0,0,4.794-.34V1.582a20.886,20.886,0,0,1-5.418.652,11.45,11.45,0,0,1-5.418-.993,2.488,2.488,0,0,1-1.333-2.326,8.663,8.663,0,0,1,.425-2.524ZM76.141-10.87a18.344,18.344,0,0,0-3.007-.227,17.844,17.844,0,0,0-5.645.879,8.408,8.408,0,0,0-2.014.936l.227.823a28.457,28.457,0,0,1,5.247-.454,18.516,18.516,0,0,1,5.191.6Zm11.232-2.723a83.682,83.682,0,0,1-5.9,17.7L84,4.816a95.056,95.056,0,0,0,5.843-18.465H90.1a70.041,70.041,0,0,0,9.133-.709l.085-1.957-1.957.823c-2.241.284-3.687.4-7.148.539h-.085v-.085c.085-.34.142-.652.227-.964.057-.312.227-1.135.4-2.014.369-.255.539-.454.539-.681a.6.6,0,0,0-.511-.511l-2.5-.482-.057,1.759c-.255,1.418-.369,1.957-.6,3.063H83.005l-1.787-.6.17,1.9c4.2,0,4.708,0,5.673-.028ZM107.03-17.45a5.6,5.6,0,0,0-3.347-2.95l-.454.4a11.457,11.457,0,0,1,1.9,3.574ZM92.649-3.778a7.888,7.888,0,0,0-.964,3.716c0,3.29,2.723,4.794,8.736,4.794a31.354,31.354,0,0,0,4.879-.34V1.639a21.669,21.669,0,0,1-5.446.652q-6.722,0-6.722-3.234a8.084,8.084,0,0,1,.425-2.581Zm11.544-7.063a21.072,21.072,0,0,0-2.922-.2,15.26,15.26,0,0,0-7.743,1.787l.227.851A25.649,25.649,0,0,1,99-8.856a19.812,19.812,0,0,1,5.191.567ZM99.91-19.577a12.528,12.528,0,0,1,1.73,3.886l1.9-.908a5.532,5.532,0,0,0-3.12-3.347ZM120.163-2.53c-.652,2.581-1.532,4.311-2.212,4.311-.652,0-1.673-1.333-2.468-3.148-1.049-2.5-1.588-6.5-1.588-12.14v-1.815c.482-.34.624-.511.624-.794s-.284-.482-.709-.511l-2.553-.17.142,1.7c.028,3.659.057,5.616.057,5.871a26.7,26.7,0,0,0,1.7,8.935c1.22,2.95,2.751,4.51,4.368,4.51,1.588,0,2.978-2.269,3.886-6.354ZM134.8-2.3c-.936-5.5-3.744-10.608-7.261-13.246l-.709.539c2.5,3.6,4.17,8,5.247,13.927Zm9.644-11.346a84.694,84.694,0,0,1-5.9,17.7l2.524.737a98.4,98.4,0,0,0,5.843-18.494,67.641,67.641,0,0,0,9.474-.709l.113-1.957-1.957.851c-2.524.284-3.574.4-5.957.482-.113,0-.709.028-1.39.057v-.057l.085-.425c.113-.567.227-1.106.539-2.61.34-.227.511-.425.511-.681a.54.54,0,0,0-.482-.482l-2.5-.511-.057,1.787c-.255,1.361-.312,1.759-.6,3.063h-4.623l-1.787-.6.17,1.9H140.3c.993,0,1.361,0,3.092-.028Zm5.276,9.786a7.993,7.993,0,0,0-.964,3.744c0,3.319,2.723,4.794,8.821,4.794a30.043,30.043,0,0,0,4.794-.34V1.582a20.886,20.886,0,0,1-5.418.652,11.45,11.45,0,0,1-5.418-.993A2.488,2.488,0,0,1,150.2-1.084a8.664,8.664,0,0,1,.425-2.524Zm11.516-7.006a18.344,18.344,0,0,0-3.007-.227,17.844,17.844,0,0,0-5.645.879,8.408,8.408,0,0,0-2.014.936l.227.823a28.457,28.457,0,0,1,5.247-.454,18.516,18.516,0,0,1,5.191.6Zm13.9,2.383A14.484,14.484,0,0,0,170.68-6.36a6.838,6.838,0,0,0-3.148,5.588c0,3.375,2.836,5.9,6.666,5.9a3.963,3.963,0,0,0,2.5-.737,3.474,3.474,0,0,0,.823-2.553V-7.608a20.08,20.08,0,0,1,3.12-.255,9.024,9.024,0,0,1,4.623.993,5.343,5.343,0,0,1,2.581,4.794,4.877,4.877,0,0,1-4.822,5.191,5.6,5.6,0,0,1-2.666-.709l-.425.794a5.7,5.7,0,0,0,3.943,1.39,6.3,6.3,0,0,0,6.552-6.5,6.782,6.782,0,0,0-3.375-6.013,12.377,12.377,0,0,0-6.354-1.333A18.59,18.59,0,0,0,177.515-9v-4.794c2.723-.142,6.042-.454,7.545-.709l.113-2.1-1.73.879a38.373,38.373,0,0,1-5.928.624v-3.46c.425-.284.567-.454.567-.709s-.255-.454-.6-.482l-2.581-.2.227,1.759v3.177c-.681.028-1.135.028-1.588.028-1.39,0-2.3-.028-3.772-.142l-1.7-.567.17,1.844c2.354.142,3.46.17,5.134.17.737,0,1.191,0,1.759-.028Zm0,10.1c0,1.418-.369,1.929-1.361,1.929a4.229,4.229,0,0,1-4.056-4.4,5.524,5.524,0,0,1,1.56-3.716,9.422,9.422,0,0,1,3.858-2.439ZM185.94-17.734a16.828,16.828,0,0,1,3.546,5.645l2.354-1.333a9.385,9.385,0,0,0-5.446-4.765Zm19.827.482H197.8a4.348,4.348,0,0,0-.085-1.22h-.964a7.472,7.472,0,0,1-2.638,4.652l1.645,2.071a6.015,6.015,0,0,0,1.986-4.368h19.174a27.526,27.526,0,0,1-1.106,3.375l.737.425a10.684,10.684,0,0,0,3.659-4.935H208.291v-1.9c.369-.284.454-.4.454-.6,0-.255-.2-.369-.6-.369h-2.383ZM203.1-12.969c.284-.284.482-.539,1.049-1.163.6-.057.879-.227.879-.539a.394.394,0,0,0-.284-.34l-2.326-.737a24.48,24.48,0,0,1-7.914,7.8l.4.624a19.135,19.135,0,0,0,6.5-3.914,16.047,16.047,0,0,0,4.056,4.453A47.556,47.556,0,0,1,194.109-2.5l.255.851A36.849,36.849,0,0,0,207.3-5.594a34.1,34.1,0,0,0,11.885,3.631A12.3,12.3,0,0,1,220.2-4.346a35.432,35.432,0,0,1-10.949-2.439,28.575,28.575,0,0,0,6.552-6.183Zm-1.078,1.135h9.729A25.6,25.6,0,0,1,207.1-7.806a15.6,15.6,0,0,1-5.106-4ZM213.794,4.9v.908h2.354V-2.077h-17.9V5.951H200.6V4.9Zm0-1.135H200.6V-.942h13.189Zm12.594,2.042h2.1V-8.09A19.735,19.735,0,0,1,230.1-3.977l1.617-1.5a8.742,8.742,0,0,0-3.234-3.6v-3.8H230.3l1.135.227v-1.588l-1.135.227h-1.815V-19.01c.34-.255.454-.369.454-.567,0-.255-.2-.369-.624-.369h-1.929v5.928h-2.638l-1.106-.227v1.588l1.106-.227h2.411A49.982,49.982,0,0,1,222.473-.829L223.1-.4a27.761,27.761,0,0,0,3.29-6.212Zm11.97-12.651V3.228c-.028.936-.34,1.22-1.276,1.248h-1.674V5.667h2.723c1.7,0,2.411-.652,2.411-2.241V-3.693a17.224,17.224,0,0,0,6.722,7.885,18.194,18.194,0,0,1,1.276-2.3,18.649,18.649,0,0,1-5.474-3.8,30.284,30.284,0,0,0,3.375-1.9h.34c.482,0,.766-.2.766-.511a.356.356,0,0,0-.17-.312l-1.787-1.39a34.616,34.616,0,0,1-3.148,3.489,12.57,12.57,0,0,1-1.9-2.695V-6.842h6.581l1.106.227V-8.2l-1.106.227h-6.581V-11.04h4.822l1.135.227V-12.4l-1.135.227h-4.822v-2.78h6.212l1.135.227v-1.588l-1.135.227h-4.425a11.936,11.936,0,0,0,2.241-2.468c.511-.057.766-.227.766-.539,0-.227-.142-.34-.482-.425l-2.184-.6a21.794,21.794,0,0,1-1.39,4.028h-5.162l1.844-1.135a9.48,9.48,0,0,0-3.319-2.751l-.624.369a15.6,15.6,0,0,1,1.645,3.517h-2.95l-1.106-.227v1.588l1.106-.227h5.645v2.78h-4.4l-1.135-.227v1.588l1.135-.227h4.4v3.063H232.6L231.493-8.2v1.588l1.106-.227ZM230.841,3.341c.113.284.312.482.511.482.227,0,.4-.227.539-.737A35.442,35.442,0,0,0,237.676-.6l-.284-.709a47.663,47.663,0,0,1-7.4,2.695ZM232.514-5.2a15.615,15.615,0,0,1,2.156,3.489l1.9-1.475a9.979,9.979,0,0,0-3.432-2.553ZM-170.015,57.555l1.513-1.513-33.281-33.281-1.513,1.513Zm55.178-30.747c.378-.454.794-.983,1.626-2.042.908-.151,1.248-.34,1.248-.756,0-.265-.265-.529-.681-.605l-3.252-.643a44.448,44.448,0,0,1-10.778,12.216l.567.945a32.653,32.653,0,0,0,8.925-6.5l.076.113a22.46,22.46,0,0,0,5.143,7.45,48.919,48.919,0,0,1-15.695,7.413l.34,1.172c8.131-1.74,12.291-3.366,17.472-6.807,3.442,2.61,9.871,5.219,15.695,6.354a33.235,33.235,0,0,1,1.286-3.4,39.412,39.412,0,0,1-14.6-4.652,41.129,41.129,0,0,0,9.341-10.249Zm-1.324,1.513h13.048a40.729,40.729,0,0,1-6.845,7.11,21.96,21.96,0,0,1-6.24-7.072Zm17.51,28.818V44.394h-22.805V57.328h3.252V55.475h16.3v1.664Zm-3.252-3.177h-16.3V45.907h16.3Zm29.423-10.1h-8.774V57.328h3.1v-2.08h16.943v1.815h3.177v-13.2H-69.3V37.511H-58.41l1.437.3V35.7l-1.437.3H-69.3V31.5c.492-.34.605-.492.605-.756,0-.34-.265-.492-.794-.492h-2.988Zm-5.673,9.871V45.377h16.943v8.358Zm8.585-26.776v-2.95c.492-.34.605-.492.605-.756,0-.34-.265-.492-.794-.492h-3.252v4.2h-13.88v6.2c0,14.258-.454,18.04-2.95,23.524l.832.529a19.353,19.353,0,0,0,4.311-8.131c.719-2.5,1.021-6.959,1.059-15.922v-4.69h26.587l1.513.3V26.657l-1.513.3ZM-32.656,38.8V31.006h9.682l1.513.3V29.19l-1.513.3h-9.682V24.236c.492-.34.605-.492.605-.756,0-.34-.265-.492-.794-.492h-3.139v6.5h-6.5c.378-.794.643-1.361,1.172-2.685.832-.189,1.21-.492,1.21-.908,0-.3-.227-.529-.605-.643l-3.479-1.021A42.639,42.639,0,0,1-49.3,36.527l.908.719a21.672,21.672,0,0,0,5.106-6.24h7.3V38.8h-13.8l-1.513-.3v2.118l1.513-.3H-41.2v.378c-.038,3.933-1.324,8.207-3.1,10.211a14.8,14.8,0,0,1-7.715,4.992l.416,1.248c9.228-1.778,13.691-7.034,13.728-16.262v-.567h5.559v12.14c0,2.95,1.021,3.782,4.614,3.744h6.089c2.534,0,3.631-.983,3.9-3.555l.492-4.5-1.7-.265-.416,3.479c-.151,1.324-.719,1.815-2.042,1.815h-5.749c-1.551-.076-1.929-.34-1.929-1.551V40.309h9.644l1.475.3V38.494l-1.475.3ZM-6.485,57.555h2.95V56.042H13.522v1.286h3.026V41.066H-3.61a23.917,23.917,0,0,0,2.231-3.215H18.854l1.513.3V36.036l-1.513.3H4.71V33.124H14.959l1.513.3V31.308l-1.513.3H4.71V28.585H17.379l1.513.3V26.77l-1.513.3H9.173a9.35,9.35,0,0,0,2.534-2.156c.719-.076,1.135-.378,1.135-.756,0-.265-.265-.492-.567-.567l-3.517-.832a26.974,26.974,0,0,1-1.286,4.311H-3.157l2.836-1.7a15.577,15.577,0,0,0-4.652-2.61l-.908.416a23.353,23.353,0,0,1,2.042,3.9H-10.8l-1.475-.3v2.118l1.475-.3h12.4v3.026H-8.376l-1.475-.3v2.118l1.475-.3H1.609v3.215H-12.233l-1.475-.3v2.118l1.475-.3h7.413A28.856,28.856,0,0,1-14.2,47.76l.454.908a29.461,29.461,0,0,0,7.261-4.614Zm2.95-3.026V51.353H13.522v3.177Zm0-4.69V46.928H13.522V49.84Zm0-4.425V42.578H13.522v2.836ZM78.987,28.132c-2.042,2.761-4.349,5.068-8.7,8.736A30.65,30.65,0,0,0,62.762,32.9l-.945.832a32.412,32.412,0,0,1,5.673,5.295l-.113.076a59.233,59.233,0,0,1-14.031,7.715l.378,1.248a61.113,61.113,0,0,0,8.207-3.139v12.4h3.252V55.4H81.634v1.74h3.328V42.578H66.62a48.787,48.787,0,0,0,5.143-3.29A47.016,47.016,0,0,0,84.206,26.619H67.641l.113-.113,1.4-1.664c.983-.113,1.361-.34,1.361-.756,0-.3-.265-.529-.681-.605l-3.442-.719a47.332,47.332,0,0,1-12.4,12.745l.605.983a35.207,35.207,0,0,0,11.724-8.358Zm-13.8,15.96H81.634v9.8H65.183Zm31.2,13.237h2.8V38.8a26.313,26.313,0,0,1,2.156,5.484l2.156-2a11.655,11.655,0,0,0-4.311-4.8V32.405h2.42l1.513.3V30.59l-1.513.3h-2.42V24.236c.454-.34.605-.492.605-.756,0-.34-.265-.492-.832-.492H96.384v7.9H92.867l-1.475-.3v2.118l1.475-.3h3.215a66.644,66.644,0,0,1-4.917,16.073l.832.567a37.013,37.013,0,0,0,4.387-8.282Zm15.96-16.867V53.886c-.038,1.248-.454,1.626-1.7,1.664H108.41v1.588h3.631c2.269,0,3.215-.87,3.215-2.988V44.659c2.269,4.841,5.37,8.472,8.963,10.514a24.257,24.257,0,0,1,1.7-3.063,24.866,24.866,0,0,1-7.3-5.068,40.377,40.377,0,0,0,4.5-2.534h.454c.643,0,1.021-.265,1.021-.681a.475.475,0,0,0-.227-.416l-2.383-1.853a46.152,46.152,0,0,1-4.2,4.652,16.76,16.76,0,0,1-2.534-3.593V40.461h8.774l1.475.3V38.645l-1.475.3h-8.774V34.863h6.429l1.513.3V33.048l-1.513.3h-6.429V29.644h8.282l1.513.3V27.829l-1.513.3h-5.9a15.916,15.916,0,0,0,2.988-3.29c.681-.076,1.021-.3,1.021-.719,0-.3-.189-.454-.643-.567l-2.912-.794a29.059,29.059,0,0,1-1.853,5.37h-6.883l2.458-1.513a12.64,12.64,0,0,0-4.425-3.668l-.832.492a20.8,20.8,0,0,1,2.194,4.69h-3.933l-1.475-.3v2.118l1.475-.3h7.526v3.706h-5.862l-1.513-.3v2.118l1.513-.3h5.862v4.084h-7.677l-1.475-.3v2.118l1.475-.3ZM102.321,54.038c.151.378.416.643.681.643.3,0,.529-.3.719-.983a47.256,47.256,0,0,0,7.715-4.917l-.378-.945a63.552,63.552,0,0,1-9.871,3.593Zm2.231-11.384a20.82,20.82,0,0,1,2.874,4.652l2.534-1.967a13.3,13.3,0,0,0-4.576-3.4Zm51.51,5.37A38.429,38.429,0,0,0,162,44.545h.34c.567,0,.983-.265.983-.643a.915.915,0,0,0-.454-.681l-2.42-1.891a25.285,25.285,0,0,1-4.425,4.992c-.34.3-.567.529-.832.756a19.2,19.2,0,0,1-3.026-6.77h9.19V24.123H143.62V52.752c-1.891.416-2.194.492-4.425.908l1.248,2.988q.284.681.681.681c.416,0,.643-.3.719-.945A62.044,62.044,0,0,0,154.55,50.71a20.124,20.124,0,0,0,6.959,6.656,13.053,13.053,0,0,1,2.269-3.177,22.545,22.545,0,0,1-7.829-6.127Zm-9.493-7.715h4.16l.038.113a23.849,23.849,0,0,0,3.215,9.417c-2.912.945-4.576,1.437-7.413,2.194Zm0-1.513V32.745h11.762V38.8Zm0-7.564v-5.6h11.762v5.6Zm-15.808-7.11V57.215h2.95V25.635h4.727a72.409,72.409,0,0,1-3.063,9.946,25.474,25.474,0,0,1,1.815,3.252,13.912,13.912,0,0,1,.983,5.559,4.333,4.333,0,0,1-.681,2.8,3.049,3.049,0,0,1-2,.681h-.756v1.588h.908c2.345,0,3.82-.529,4.614-1.664a6.725,6.725,0,0,0,.945-3.782c0-3.026-1.1-5.257-4.16-8.585a43.905,43.905,0,0,0,5.295-11.308ZM186.015,35.96h10.816l1.513.3V34.145l-1.513.3H171.871l-1.513-.3v2.118l1.513-.3h10.968V52.6a11.294,11.294,0,0,1-7.337-5.9,44.186,44.186,0,0,0,1.248-5.37c.681-.34.983-.605.983-.945,0-.378-.3-.605-.87-.719l-3.29-.643c-.454,7.45-2.988,14.107-6.77,17.7l.681.87a17.4,17.4,0,0,0,7.564-9.455c1.815,3.668,3.858,5.711,7,6.921,2.647,1.021,6.959,1.4,16.376,1.4h1.891a14.473,14.473,0,0,1,1.286-3.139c-3.668.076-5.37.113-7.223.113-3.328,0-5.938-.076-8.358-.265v-8.32h9.341l1.513.3V43.032l-1.513.3h-9.341Zm-3.706-8.736H171.757V27.11a5.006,5.006,0,0,0-.113-1.551h-1.286a9.779,9.779,0,0,1-3.555,6.089l2.345,2.836c1.891-2.042,2.269-2.874,2.534-5.749h25.452a28.715,28.715,0,0,1-2.118,4.349l.832.567c3.139-2.194,4.954-4.236,5.749-6.429H185.751V24.009c.454-.34.605-.492.605-.756,0-.34-.265-.492-.794-.492h-3.252Zm93.414-4.463L242.442,56.042l1.513,1.513,33.281-33.281Z" transform="translate(1087 3175.4)" fill="#363636" stroke="rgba(0,0,0,0)" stroke-width="1"/>
    <path id="パス_72" data-name="パス 72" d="M5.171,28.915q7.942,2.553,7.942,9.417a9.747,9.747,0,0,1-1.844,5.957,11.785,11.785,0,0,1-4.765,3.8,14.8,14.8,0,0,1-6.1,1.3,12.269,12.269,0,0,1-6.552-1.759,12.954,12.954,0,0,1-4.51-4.6l1.815-1.135a9.111,9.111,0,0,0,3.858,3.8A10.735,10.735,0,0,0-.048,46.954a8.807,8.807,0,0,0,3.943-.908A7.307,7.307,0,0,0,6.9,43.267a8.435,8.435,0,0,0,1.163-4.538,8.052,8.052,0,0,0-2.3-6.042,7.844,7.844,0,0,0-5.7-2.241H-1.352V28.688a9.614,9.614,0,0,0,3.914-.851,7.394,7.394,0,0,0,3.177-2.695,8.068,8.068,0,0,0,1.248-4.623A8.43,8.43,0,0,0,5.4,15.328,5.384,5.384,0,0,0,.8,13.2a5.412,5.412,0,0,0-4.85,2.468,12.444,12.444,0,0,0-1.844,6.155H-8.954V15.016a11.225,11.225,0,0,1,4.2-2.723A15.119,15.119,0,0,1,.8,11.272a13.736,13.736,0,0,1,5.5,1.078,9.552,9.552,0,0,1,4,3.12,7.911,7.911,0,0,1,1.5,4.822Q11.809,26.022,5.171,28.915Z" transform="translate(1122.032 3181.159)" fill="#363636" stroke="rgba(0,0,0,0)" stroke-width="1"/>
  </g>
</svg>
