<svg xmlns="http://www.w3.org/2000/svg" width="300" height="48" viewBox="0 0 300 48">
  <g id="グループ_397" data-name="グループ 397" transform="translate(-814 -2636)">
    <rect id="長方形_173" data-name="長方形 173" width="300" height="48" transform="translate(814 2636)"/>
    <path id="パス_53" data-name="パス 53" d="M-99.379-.5h1.12V-8.568h-1.12v-.5h2.394l3.08,7.014,2.968-7.014H-88.6v.5h-1.12V-.5h1.12V0h-3.43V-.5h1.12v-7.07l-3,7.056h-.644L-97.657-7.63V-.5h1.078V0h-2.8Zm16.758,0V0h-3.934V-.5h1.372V-8.568H-86.5v-.5h3.822v.5h-1.316V-.5Zm2.044,0h1.12V-8.568h-1.12v-.5h2.282l4.214,6.8v-6.3H-75.2v-.5h2.842v.5h-1.12V0h-.644l-4.732-7.714V-.5h1.12V0h-2.842Zm14.056,0V0h-3.934V-.5h1.372V-8.568H-70.4v-.5h3.822v.5h-1.316V-.5Zm7.966-10.024h2.086a22.321,22.321,0,0,0,.98,6.272A11.671,11.671,0,0,0-52.507.756,10.142,10.142,0,0,1-51.5-.658a9.556,9.556,0,0,1-1.638-1.82,13.75,13.75,0,0,1-1.918-4.144,17.612,17.612,0,0,1-.6-4.088c0-.1,0-.266.014-.476h-2.912l-.56-.112v.882ZM-64.071.882c2.058-1.568,3.612-4.746,4.242-8.694.308-.1.434-.224.434-.392s-.112-.266-.392-.336l-1.344-.336A23.571,23.571,0,0,1-62.1-4.144,12.729,12.729,0,0,1-64.379.546Zm21.8-11.088h4.62l.546.112v-.812l-.546.112H-47.985l-.56-.112v.812l.56-.112h4.438V-5.88h-3.724l-.56-.112v.812l.56-.112h3.724v4.97h-5.068l-.56-.112V.378l.56-.112h11.578l.56.112V-.434l-.56.112h-5.236v-4.97h3.892l.56.112v-.812l-.56.112h-3.892Zm15.344,2.422a19.087,19.087,0,0,0,4.8-3.444H-32.193l-.56-.112v.812l.56-.112h7.7a16.107,16.107,0,0,1-2.562,2.394L-28.2-8.512v2.786h-5.376l-.56-.112v.812l.56-.112H-28.2V-.35c0,.462-.2.658-.644.658h-1.6V.966h2.226c.9,0,1.3-.378,1.288-1.246V-5.138h5.11l.56.112v-.812l-.56.112h-5.11ZM-8.113-5.978H-1.8l.56.112V-6.65l-.56.112h-11.76l-.56-.112v.784l.56-.112h.7V-.63c-.112.028-.182.028-.378.056-.294.042-.588.084-.882.112L-13.727.56c.056.14.154.224.252.224s.2-.084.266-.28A28.609,28.609,0,0,0-9.149-.882v2h1.036ZM-9.149-4.27v1.246h-2.674V-4.27Zm-2.674-.56V-5.978h2.674V-4.83Zm2.674,2.366v1.12l-.28.056c-.7.168-1.722.378-2.394.49V-2.464ZM-7.693,1.12A7.656,7.656,0,0,0-4.585-.56a7.157,7.157,0,0,0,2.744,1.6,7.055,7.055,0,0,1,.6-1.092A7.768,7.768,0,0,1-3.885-1.3,11.956,11.956,0,0,0-1.9-5H-6.923l-.56-.112v.784l.56-.112h.168A7.722,7.722,0,0,0-5.173-1.176,7.151,7.151,0,0,1-7.861.77Zm4.4-5.558A11.184,11.184,0,0,1-4.613-1.89,6.5,6.5,0,0,1-6.265-4.438Zm-9-6.818v3.738h9.31v-3.738Zm1.12,3.178V-9.142h7.042v1.064Zm0-1.624V-10.7h7.042V-9.7ZM3.549-4.228A12.382,12.382,0,0,1,1-.35l.2.308A10.071,10.071,0,0,0,3.9-2.758L3.927-2.8V1.036H5.019V-2.912a10.925,10.925,0,0,1,1.456,1.89L7.2-2A6.564,6.564,0,0,0,5.355-3.136c-.28-.112-.28-.126-.336-.14v-.952h2.03l.56.112V-4.9l-.56.112H5.019V-6.5H7.273l.546.112v-.784l-.546.112H5.509A17.931,17.931,0,0,0,6.573-9.52h.518l.56.112v-.784l-.56.112H5.033v-1.134c.182-.126.224-.182.224-.28,0-.126-.1-.182-.294-.182H3.885v1.6H1.757l-.56-.112v.784l.56-.112H2.2l.014.042a14.96,14.96,0,0,1,.462,2.142l.028.14.028.14H1.547L1-7.168v.784L1.547-6.5h2.38v1.708H1.757L1.2-4.9v.784l.56-.112Zm1.9-5.292A22.957,22.957,0,0,1,5.047-7.1l-.014.042H2.947l.882-.56A8.045,8.045,0,0,0,2.667-9.478L2.639-9.52Zm3.962-1.036-1.106-.406V-9.24a42.253,42.253,0,0,1-.224,6.23A6.777,6.777,0,0,1,6.363.756L6.6,1.05A5.619,5.619,0,0,0,9.065-2.506,16.577,16.577,0,0,0,9.4-6.426h1.834V1.036h1.12V-6.426h.966l.56.112V-7.1l-.56.112H9.415v-3.108a16.7,16.7,0,0,0,3.458-.434,1.453,1.453,0,0,0,.322.042c.112,0,.238-.084.238-.182a.256.256,0,0,0-.084-.14l-.812-.84a15.977,15.977,0,0,1-3.08,1.078ZM28.259-9.128l.56.112V-9.8l-.56.112H21.371c.154-.392.238-.658.406-1.19.266-.1.378-.2.378-.336s-.1-.21-.308-.266l-1.176-.28a20.137,20.137,0,0,1-.588,2.072H16.849L16.3-9.8v.784l.546-.112h3.038c-.322.8-.336.854-.84,1.9l-.014.042-.616-.112V-6.02a18.38,18.38,0,0,1-2.3,3.206l.238.336a12.261,12.261,0,0,0,2.058-1.946v5.46h1.12v-7a18,18,0,0,0,1.61-3.164ZM25.3-4.9V-7.728c.182-.126.224-.182.224-.28,0-.126-.1-.182-.294-.182H24.129V-4.9h-2.66l-.56-.112v.784l.56-.112h2.66V-.112H20.741l-.546-.112V.56l.546-.112h7.7L29,.56V-.224l-.56.112H25.3V-4.34h2.548l.56.112v-.784l-.56.112Zm13.44-5.558v-.84c.182-.126.224-.182.224-.28,0-.126-.1-.182-.294-.182h-1.2v1.3H32.333V-7.91c0,5.264-.182,6.706-1.092,8.708l.322.182a7.176,7.176,0,0,0,1.6-3.15,28.233,28.233,0,0,0,.35-5.74V-9.9h9.87l.56.112v-.784l-.56.112ZM38.213-.9V.98h1.022V-.9h4.186l.56.112v-.784l-.56.112H39.235V-2.534h3.584V-6.72H39.235V-7.77h3.99l.56.112v-.784l-.56.112h-3.99v-.644c.182-.126.224-.182.224-.28,0-.126-.1-.182-.294-.182h-.952V-8.33H34.7l-.546-.112v.784L34.7-7.77h3.514v1.05h-3.43v4.186h3.43v1.078h-4l-.56-.112v.784l.56-.112Zm0-2.2h-2.38V-4.382h2.38Zm0-1.848h-2.38V-6.16h2.38ZM39.235-6.16h2.506v1.218H39.235Zm0,1.778h2.506v1.288H39.235ZM54.271-7.14H50.995l-.546-.112v.784l.546-.112h7.686l.56.112v-.784l-.56.112h-3.3V-8.3h2.366l.56.112v-.784l-.56.112H55.377V-9.968h2.814l.546.112v-.784l-.546.112H55.377v-.686c.182-.126.224-.182.224-.28,0-.126-.1-.182-.294-.182H54.271v1.148h-2.7l-.56-.112v.784l.56-.112h2.7v1.106H52.129l-.56-.112v.784l.56-.112h2.142ZM55.055.378V.966h2.114c.7,0,.994-.294.994-1.008V-5.628h-6.58V1.036h1.092V-1.6h4.382v1.33c0,.448-.2.644-.658.644Zm-2.38-2.534v-1.2h4.382v1.2Zm0-1.764V-5.068h4.382V-3.92ZM47.131-4.942a6.052,6.052,0,0,0,.5-2.9c0-.476-.014-.882-.07-1.862h-.476a10.939,10.939,0,0,1-.728,3.654Zm1.246-6.734V1.036h1.106v-12.25c.168-.126.224-.182.224-.28,0-.126-.1-.182-.294-.182Zm1.288,2.2a7.837,7.837,0,0,1,.882,2.058l.84-.784a3.712,3.712,0,0,0-1.47-1.47ZM69.237-6.286V-10.6h3.276c-.126,2.618-.168,2.73-1.064,2.744h-1.12v.588h1.54c.882.014,1.3-.2,1.484-.7a16.624,16.624,0,0,0,.266-3.192h-5.46V1.036h1.078V.7l.21.252A9.189,9.189,0,0,0,71.589-.966,9.563,9.563,0,0,0,73.731.924a7.231,7.231,0,0,1,.63-1.12A10.55,10.55,0,0,1,72.177-1.82a11.272,11.272,0,0,0,1.442-4.466Zm.462.56a8.83,8.83,0,0,0,1.344,4.032A9.915,9.915,0,0,1,69.237.546V-5.726Zm2.716,0a11.287,11.287,0,0,1-.91,3.164,7.046,7.046,0,0,1-1.386-3.164Zm-5.25-1.526.56.112v-.784l-.56.112H65.121V-9.59h1.5l.56.112v-.784l-.56.112h-1.5V-11.3c.182-.126.224-.182.224-.28,0-.126-.1-.182-.294-.182h-.98v1.61H62.587l-.546-.112v.784l.546-.112h1.484v1.778h-2.03l-.56-.112v.784l.56-.112h.448a18.33,18.33,0,0,1,.476,2.436h-.826l-.56-.112v.784l.56-.112h1.932V-2.38h-1.61l-.56-.112v.784l.56-.112h1.61V1.05h1.05V-1.82h1.624l.56.112v-.784l-.56.112H65.121V-4.256h1.946l.56.112v-.784l-.56.112H65.639a10.755,10.755,0,0,0,1.246-2.436Zm-1.47,0a22.56,22.56,0,0,1-.56,2.436h-1.9l.8-.644a7.672,7.672,0,0,0-1.106-1.792ZM97.769-5.32l-9.156-4.858V-9.3L96.089-5.32,88.613-1.344v.882Z" transform="translate(964 2665)" fill="#fff"/>
  </g>
</svg>
