<svg xmlns="http://www.w3.org/2000/svg" xmlns:xlink="http://www.w3.org/1999/xlink" width="304.142" height="72.48" viewBox="0 0 304.142 72.48">
  <defs>
    <clipPath id="clip-path">
      <rect id="長方形_53" data-name="長方形 53" width="26" height="52" fill="#fff"/>
    </clipPath>
  </defs>
  <g id="グループ_151" data-name="グループ 151" transform="translate(-396.689 -2640.14)">
    <path id="パス_695" data-name="パス 695" d="M8.78-13.96c.22-.54.48-1.16.7-1.72.16-.42.24-.64.34-.84l-1.78-.34a11.471,11.471,0,0,1-.92,2.9H3.48a15.133,15.133,0,0,1-2.24-.12v1.66a20.629,20.629,0,0,1,2.24-.1H6.42A16.8,16.8,0,0,1,4.78-9.94H3.76a6.136,6.136,0,0,1,.08,1.18A18.532,18.532,0,0,1,.7-5.8,4.121,4.121,0,0,1,1.82-4.5,23.084,23.084,0,0,0,3.86-6.44V-.7a14.151,14.151,0,0,1-.12,2.14H5.5A15.591,15.591,0,0,1,5.4-.7V-8.24a27.384,27.384,0,0,0,2.68-4.28h8.5a21.051,21.051,0,0,1,2.26.1v-1.66a15.636,15.636,0,0,1-2.26.12Zm4.16,6.34V-9.18a12.959,12.959,0,0,1,.1-2.14H11.26a12.815,12.815,0,0,1,.12,2.12v1.58H8.84a9.772,9.772,0,0,1-1.96-.12v1.62a13.138,13.138,0,0,1,1.98-.1h2.52V-.84H8.18a19.267,19.267,0,0,1-2.04-.1V.7A14.523,14.523,0,0,1,8.18.58h8.5A14.68,14.68,0,0,1,18.76.7V-.94a13.648,13.648,0,0,1-2.08.1H12.94V-6.22H15.9a13.3,13.3,0,0,1,1.98.1V-7.74a10.121,10.121,0,0,1-1.98.12Zm17.64-3.52v1.36H27.22a15.332,15.332,0,0,1-1.9-.08c.04.5.06.8.06,1.62v3.06c0,.84-.02,1.26-.06,1.7a16.24,16.24,0,0,1,1.88-.08h3.38v1.44H25.86a12.462,12.462,0,0,1-1.9-.1V-.76a18.178,18.178,0,0,1,2-.1h4.62v.5a12.569,12.569,0,0,1-.12,2.02h1.62a10.727,10.727,0,0,1-.12-2V-.86h4.92a16.534,16.534,0,0,1,2.14.12V-2.22a13.487,13.487,0,0,1-2.08.1H31.96V-3.56h3.7a15.865,15.865,0,0,1,1.86.08,16.282,16.282,0,0,1-.06-1.68V-8.22a11.654,11.654,0,0,1,.06-1.64,15.225,15.225,0,0,1-1.86.08h-3.7v-1.36h4.78a8.425,8.425,0,0,1,1.74.12v-1.44a10.425,10.425,0,0,1-1.74.1H31.96a5.972,5.972,0,0,1,.1-1H30.48a6.212,6.212,0,0,1,.1,1H26.44a10.955,10.955,0,0,1-1.78-.1v1.42a10.542,10.542,0,0,1,1.76-.1Zm0,2.54v1.3h-3.8V-8.6Zm1.38,0h4.1v1.3h-4.1ZM30.58-6.14v1.4h-3.8v-1.4Zm1.38,0h4.1v1.4h-4.1Zm-2.3-8.96h-5.1a19.872,19.872,0,0,1-2.3-.1c.06.48.08,1.04.1,1.56v.32l-.08,5.36c-.02.98-.16,2.58-.3,3.6A10.617,10.617,0,0,1,20.48.02,5.142,5.142,0,0,1,21.7,1.26a11.608,11.608,0,0,0,1.6-4.32c.42-2.14.54-4.62.54-10.76H36.78a12.879,12.879,0,0,1,2.06.1v-1.5a15.372,15.372,0,0,1-2.12.12H31.18v-.44a4.23,4.23,0,0,1,.12-1.26H29.54a4.321,4.321,0,0,1,.12,1.24ZM57-9.8a13.9,13.9,0,0,1,1.96.12V-11.3a13.162,13.162,0,0,1-2,.12H53c.06-1.08.1-1.94.14-3.36a15.885,15.885,0,0,1,.1-1.84H51.5a15.044,15.044,0,0,1,.08,1.78c0,1.6-.02,2.38-.06,3.42H48.8a14.021,14.021,0,0,1-2.02-.12v1.62a14.723,14.723,0,0,1,2.04-.12H51.4a15.11,15.11,0,0,1-1.32,5.24A10.38,10.38,0,0,1,46.34-.02,4.129,4.129,0,0,1,47.4,1.3a11.884,11.884,0,0,0,3.28-3.74A17.108,17.108,0,0,0,52.54-7.7a16.409,16.409,0,0,0,1.42,4.12A13.807,13.807,0,0,0,58.04,1.4,5.633,5.633,0,0,1,59.12-.08a11.782,11.782,0,0,1-4.04-4.56A19.33,19.33,0,0,1,53.36-9.8ZM44.48-7a20.065,20.065,0,0,1-3.82,2.02l.68,1.58a1.669,1.669,0,0,1,.34-.22c.4-.24.66-.4.78-.46.86-.52,1.26-.78,2.02-1.28v4.9a13.508,13.508,0,0,1-.12,1.96h1.76A9.529,9.529,0,0,1,46-.32V-14.76a9.778,9.778,0,0,1,.12-1.82H44.36a12.434,12.434,0,0,1,.12,1.82Zm-3.52-6.4A17.444,17.444,0,0,1,42.4-9.04l1.36-.6a19.141,19.141,0,0,0-1.5-4.3Zm17,.66a17.211,17.211,0,0,0-2.7-3.24l-1.12.78a15.041,15.041,0,0,1,2.62,3.34ZM69.74-8.2a10.273,10.273,0,0,1-1,4.86A7.6,7.6,0,0,1,64.58.04a4.913,4.913,0,0,1,1.08,1.3,8.818,8.818,0,0,0,4.38-3.9A12.236,12.236,0,0,0,71.26-8.2h2V-.34a1.11,1.11,0,0,0,.52,1.1,4.583,4.583,0,0,0,2.24.28c2.82,0,3.06-.32,3.24-4.3a3.953,3.953,0,0,1-1.44-.64,9.925,9.925,0,0,1-.34,3.22c-.16.22-.52.3-1.54.3-1,0-1.18-.06-1.18-.48V-8.2h1.28c.42,0,1,.02,1.68.08a10.428,10.428,0,0,1-.08-1.66v-4.34a11.2,11.2,0,0,1,.08-1.7,12.926,12.926,0,0,1-1.84.08h-6.6a13.147,13.147,0,0,1-1.94-.08c.06.8.08,1.36.08,1.68v4.2a7.3,7.3,0,0,1-.04,1.2c-.02.42-.02.42-.04.62.7-.06,1.22-.08,1.62-.08Zm-.82-6.1h7.22v4.74H68.92Zm-6.9-1.2a17.893,17.893,0,0,1,3.38,2.9l.96-1.24a19.766,19.766,0,0,0-3.38-2.72Zm-.98,4.86a17.426,17.426,0,0,1,3.48,2.78l.96-1.3a24.533,24.533,0,0,0-3.54-2.6Zm3.5,4.56c-1.16,3-2.24,4.9-3.42,6.06l1.36,1.24a5.51,5.51,0,0,1,.34-.58c.76-1.22.76-1.22.96-1.56a30.051,30.051,0,0,0,2-4.22ZM18.22,25.82a50.5,50.5,0,0,0-6.64-5.88,25.873,25.873,0,0,0,3.22-5.56,3.466,3.466,0,0,1,.58-1l-.98-1a3.761,3.761,0,0,1-1.42.18l-6.92.08H5.62a10.317,10.317,0,0,1-1.9-.12l.06,1.9a16.7,16.7,0,0,1,2.3-.16c6.56-.1,6.56-.1,6.8-.12a1.378,1.378,0,0,1-.06.16,1.619,1.619,0,0,0-.12.26,20.814,20.814,0,0,1-4.44,6.56A19.413,19.413,0,0,1,1.64,25.6,5.2,5.2,0,0,1,2.8,27.18,25.442,25.442,0,0,0,6.7,24.8a22.174,22.174,0,0,0,3.8-3.52,39.934,39.934,0,0,1,6.3,6.1ZM34.6,12.26a2.28,2.28,0,1,0,2.28,2.28A2.279,2.279,0,0,0,34.6,12.26Zm0,.88a1.4,1.4,0,1,1-1.4,1.4A1.417,1.417,0,0,1,34.6,13.14ZM21.22,22.66l.6-.76c1.22-1.42,2.64-3.18,3.6-4.42l.74-.96a.789.789,0,0,1,.6-.32c.26,0,.48.12.8.48a91.73,91.73,0,0,0,7.62,7.62l1.86,1.64.92-2a12.1,12.1,0,0,1-1.74-1.28,67.126,67.126,0,0,1-6.74-6.5c-1.46-1.62-1.84-1.88-2.7-1.88-.94,0-1.48.38-2.64,1.9-1.1,1.44-2.88,3.56-3.46,4.14a2.8,2.8,0,0,1-.68.52Zm22.06-9.74a21.926,21.926,0,0,1,5.04,2.66l.94-1.56a29.917,29.917,0,0,0-5.06-2.54Zm-1.58,4.8a23.033,23.033,0,0,1,5.2,2.8l.9-1.6a31.135,31.135,0,0,0-5.14-2.64Zm.8,9.6a4.634,4.634,0,0,1,.8-.2c.4-.08.74-.16,1.08-.22a24.484,24.484,0,0,0,5.2-1.76,15.893,15.893,0,0,0,7.74-8.66,8.21,8.21,0,0,1-1.5-1.28,14.092,14.092,0,0,1-2.38,4.46,12.877,12.877,0,0,1-5.92,4.44,17.228,17.228,0,0,1-5.5,1.26Zm23.14-9.68-1.8.28a12.051,12.051,0,0,1-1.92.2l.32,1.66a10.4,10.4,0,0,1,1.86-.42l1.78-.3,1.34,7.24a10.343,10.343,0,0,1,.24,1.9l1.82-.32a8.536,8.536,0,0,1-.44-1.86L67.46,18.8l5.6-.94a2.617,2.617,0,0,0,.58-.12.72.72,0,0,1-.1.18,8.216,8.216,0,0,1-3.52,3.72,4.26,4.26,0,0,1,1.3,1.02,10.49,10.49,0,0,0,3.9-4.82,4.251,4.251,0,0,1,.46-.92l-.98-.88a5.082,5.082,0,0,1-1.18.28L67.2,17.38l-.3-1.58a9.656,9.656,0,0,1-.24-1.62l-1.72.28a6.487,6.487,0,0,1,.4,1.56ZM83.2,11.66a9.986,9.986,0,0,1,.06,1.58c0,4.1-.26,6.66-.88,8.42a9.614,9.614,0,0,1-3.3,4.58,4.844,4.844,0,0,1,1.44,1.34,12.438,12.438,0,0,0,3.44-5.04c.74-2.02.9-3.48,1.06-9.02a10.39,10.39,0,0,1,.12-1.76Zm5.04-.16a8.5,8.5,0,0,1,.1,1.64v.44L88.22,24.9a4.668,4.668,0,0,1-.14,1.58l.94,1.04a3.7,3.7,0,0,1,.48-.22c.2-.08.4-.16.64-.24a13.747,13.747,0,0,0,2.82-1.44,11.488,11.488,0,0,0,4.12-5.24A6.613,6.613,0,0,1,95.76,19a9.773,9.773,0,0,1-2.26,3.9,8.809,8.809,0,0,1-3.52,2.32l.1-11.62a11.536,11.536,0,0,1,.14-2.08Zm13.2,1.38a14.008,14.008,0,0,1-2.48-.14v1.9a19.049,19.049,0,0,1,2.44-.12h9.88c-1.1,4.3-3.02,7.16-6.24,9.3a15.617,15.617,0,0,1-4.48,2.1,4.831,4.831,0,0,1,1.2,1.66,18.744,18.744,0,0,0,6.32-3.84,17.313,17.313,0,0,0,5-8.72l.12-.42a2.4,2.4,0,0,0,.66.1,2.28,2.28,0,1,0-2.28-2.28,3.282,3.282,0,0,0,.04.46Zm12.42-1.86a1.4,1.4,0,1,1-1.4,1.4A1.417,1.417,0,0,1,113.86,11.02Zm6.9,2.5a17.912,17.912,0,0,1,2.28-.1h6.54a17.161,17.161,0,0,1,2.28.1v-1.8a11.87,11.87,0,0,1-2.3.14h-6.5a11.167,11.167,0,0,1-2.3-.14Zm-1.72,4.68a19.432,19.432,0,0,1,2.52-.1h10.1a11.492,11.492,0,0,1-3.26,5.1,13,13,0,0,1-5.8,2.92,5.073,5.073,0,0,1,1.06,1.64,18.026,18.026,0,0,0,4.9-2.42,13.539,13.539,0,0,0,4.82-6.7,4.886,4.886,0,0,1,.56-1.26l-.86-1a4.368,4.368,0,0,1-1.58.16h-9.92a14.626,14.626,0,0,1-2.54-.14Zm32.9-7.18a16.461,16.461,0,0,1-3.78,3.78,28.642,28.642,0,0,1-10.42,5.18,4.965,4.965,0,0,1,.94,1.6,31.213,31.213,0,0,0,7.56-3.42v7.2a13.254,13.254,0,0,1-.12,2.34h2.04a16.516,16.516,0,0,1-.1-2.36v-8.3a33.475,33.475,0,0,0,4.8-4.18,7.347,7.347,0,0,1,.72-.68Zm22.68,14.8a50.5,50.5,0,0,0-6.64-5.88,25.873,25.873,0,0,0,3.22-5.56,3.466,3.466,0,0,1,.58-1l-.98-1a3.761,3.761,0,0,1-1.42.18l-6.92.08h-.44a10.317,10.317,0,0,1-1.9-.12l.06,1.9a16.7,16.7,0,0,1,2.3-.16c6.56-.1,6.56-.1,6.8-.12a1.381,1.381,0,0,1-.06.16,1.618,1.618,0,0,0-.12.26,20.814,20.814,0,0,1-4.44,6.56,19.413,19.413,0,0,1-6.62,4.48,5.2,5.2,0,0,1,1.16,1.58,25.441,25.441,0,0,0,3.9-2.38,22.174,22.174,0,0,0,3.8-3.52,39.935,39.935,0,0,1,6.3,6.1Zm8.62-12.46a25.171,25.171,0,0,1-4.3-.24l-.04,1.64a1.9,1.9,0,0,1,.42-.04,3.445,3.445,0,0,1,.4.02c.42.02,2.4.06,2.8.06.08,0,.3-.02.36-.02-.12.22-.12.22-.18.32a19.909,19.909,0,0,1-4.38,5.52l1.32,1.32a7.157,7.157,0,0,1,1.6-1.7,7.32,7.32,0,0,1,4.34-2.1c.9,0,1.36.44,1.48,1.42a15.75,15.75,0,0,0-2.94,1.6c-1.42,1.02-2.12,2.1-2.12,3.24a2.668,2.668,0,0,0,1.36,2.4,8.282,8.282,0,0,0,4.1.78,33.717,33.717,0,0,0,4.98-.38,4.758,4.758,0,0,1,.82-.1l-.18-1.84a16.81,16.81,0,0,1-5.44.8c-2.82,0-3.96-.52-3.96-1.78a2.391,2.391,0,0,1,1.18-1.88,12.271,12.271,0,0,1,2.4-1.32v.62a25.162,25.162,0,0,1-.12,2.66l1.64-.02a5.494,5.494,0,0,1-.04-.82V22.7c.02-.4.02-.82.02-1.04,0-.44,0-.5-.02-1.16a30.781,30.781,0,0,1,5.3-1.7l-.72-1.64a5.619,5.619,0,0,1-1.4.58c-.98.34-1.8.64-3.36,1.24a2.481,2.481,0,0,0-2.7-2.18,5.161,5.161,0,0,0-2.76.82,4.531,4.531,0,0,0-.68.5,2.738,2.738,0,0,0-.28.2.248.248,0,0,1-.04-.06l.04-.04c0-.02.08-.08.2-.16a5.633,5.633,0,0,0,.64-.74,15.039,15.039,0,0,0,1.62-2.54c1.96-.06,4.52-.24,5.9-.42,1.16-.16,1.16-.16,1.54-.2l-.12-1.6a26.45,26.45,0,0,1-5.4.7c-1.12.06-1.12.06-1.26.08a13.064,13.064,0,0,0,.6-1.34,4.312,4.312,0,0,1,.48-1.02l-1.88-.28a8.694,8.694,0,0,1-.9,2.66ZM6.98,46.64a4.612,4.612,0,0,1,.82,1.24,8.938,8.938,0,0,0,1.22-1.5c-.02.12-.04.72-.06,1.82v5.3a12.018,12.018,0,0,1-.14,2.12h1.5v-.96h6.56a15.147,15.147,0,0,1,1.9.12v-1.5a12.146,12.146,0,0,1-1.9.1H14.56v-2.1h1.78a12.875,12.875,0,0,1,1.74.1V49.96a10.514,10.514,0,0,1-1.78.1H14.56V48.1h1.78a12.692,12.692,0,0,1,1.74.1V46.78a10.09,10.09,0,0,1-1.78.1H14.56V44.9h2.08c.6,0,1.06.02,1.72.08V43.56a10.4,10.4,0,0,1-1.76.1H14.92a12.334,12.334,0,0,0,.68-1.56c.04-.08.08-.2.14-.36l-1.42-.32a10.036,10.036,0,0,1-.82,2.24H11.04a17.923,17.923,0,0,0,1.54-3.02h4.8v2.12H18.9a6.74,6.74,0,0,1-.08-1.16V40.56a11.78,11.78,0,0,1,.06-1.36,13.541,13.541,0,0,1-1.94.1H13.06c.1-.28.3-.92.62-1.92l-1.56-.24a16.8,16.8,0,0,1-.52,2.16H9.38a9.6,9.6,0,0,1-1.66-.06c.02.46.04.8.04,1.02V41.6a7.181,7.181,0,0,1-.08,1.22H9.12V40.64h2a14.986,14.986,0,0,1-1.86,3.4A11.913,11.913,0,0,1,6.98,46.6v-.72c0-.68.02-1.12.06-1.58a7.333,7.333,0,0,1-1.22.08H3.68a25.466,25.466,0,0,0,1.28-4.92H6.02a10.852,10.852,0,0,1,1.38.08V38a9.356,9.356,0,0,1-1.76.12H3.02A11.964,11.964,0,0,1,1.18,38v1.58a8.677,8.677,0,0,1,1.72-.12h.62a19.933,19.933,0,0,1-.72,3.38A13.679,13.679,0,0,1,.4,47.5a5.4,5.4,0,0,1,.76,1.46,10.626,10.626,0,0,0,1.28-2.28c-.06.64-.1,1.68-.1,1.98v4.46a12.656,12.656,0,0,1-.12,1.94h1.5V53.04H5.66v1.1H7.04c-.04-.46-.06-.86-.06-1.64Zm3.34.24V44.9h2.92v1.98Zm0,1.22h2.92v1.96H10.32Zm0,3.18h2.92v2.1H10.32ZM3.72,45.7H5.66v6H3.72Zm24.86-3.98a26,26,0,0,1,2.58,1.04,7.6,7.6,0,0,1-3.66,3.38,4.676,4.676,0,0,1,1.02,1.14,9.856,9.856,0,0,0,3.86-3.9,16.762,16.762,0,0,1,1.8,1.14l.76-1.16c-.98-.6-1.36-.8-2.06-1.16a11.051,11.051,0,0,0,.58-2.58h3.36a24.551,24.551,0,0,1-.44,4.4c-.18.86-.4,1.06-1.12,1.06a8.052,8.052,0,0,1-1.8-.22,4.857,4.857,0,0,1,.36,1.48c.46.04,1.1.08,1.58.08,1.34,0,1.8-.24,2.14-1.1a22.632,22.632,0,0,0,.72-4.98c.1-1.84.1-1.84.14-2.12a16.022,16.022,0,0,1-1.88.08H30.34a13.866,13.866,0,0,1-2.06-.12v1.56a10.7,10.7,0,0,1,2.04-.12h1.72a9.99,9.99,0,0,1-.4,1.98c-.76-.32-1.22-.5-2.4-.92Zm-6.92-2.2a10.391,10.391,0,0,1,1.5-.08h2.6a11.125,11.125,0,0,1,1.5.08V38.04a7.651,7.651,0,0,1-1.5.1h-2.6a7.528,7.528,0,0,1-1.5-.1Zm-.7,2.8a12.146,12.146,0,0,1,1.6-.08h3.7c.66,0,1,.02,1.46.06V40.8a7.8,7.8,0,0,1-1.6.1H22.56a8.29,8.29,0,0,1-1.6-.1Zm.78,2.78a7.82,7.82,0,0,1,1.34-.08h2.84a8.219,8.219,0,0,1,1.3.08V43.66a7.027,7.027,0,0,1-1.3.08H23.08a7.672,7.672,0,0,1-1.34-.08Zm0,2.78a7.858,7.858,0,0,1,1.32-.08H25.9a8.011,8.011,0,0,1,1.32.08V46.46a10.2,10.2,0,0,1-1.3.06H23.08a11.393,11.393,0,0,1-1.34-.06Zm1.46,7.64V54.44h2.58v.82h1.4a11.349,11.349,0,0,1-.08-1.62V50.7a13.315,13.315,0,0,1,.06-1.52,11.494,11.494,0,0,1-1.44.06H23.38a11.349,11.349,0,0,1-1.62-.08,13.506,13.506,0,0,1,.08,1.62v2.8c0,.68-.04,1.3-.1,1.94Zm-.02-5.08h2.6V53.2h-2.6Zm5.46-1.64a10.418,10.418,0,0,1-1.3,4.62l1.28.68a15.433,15.433,0,0,0,1.32-5.02Zm3.46,1.16a7.092,7.092,0,0,1,.1-1.46H30.58a9.58,9.58,0,0,1,.12,1.58v3.74c0,1.1.46,1.32,2.72,1.32,2,0,2.66-.18,3-.8A7.253,7.253,0,0,0,37,51.5a4.629,4.629,0,0,1-1.34-.46c-.04.64-.08,1.2-.14,1.64-.12.8-.26.98-.82,1.08-.18.02-1.1.06-1.5.06-.92,0-1.1-.08-1.1-.52Zm4.14-.78a15.725,15.725,0,0,1,2.3,4.48l1.24-.78a19.852,19.852,0,0,0-2.38-4.34Zm-4.98-2.34a10.865,10.865,0,0,1,3.12,2.8l1.08-.96a15.508,15.508,0,0,0-3.2-2.66Zm19.7-6.36c-2.24.06-3.12.08-4.82.14-3.02.12-3.14.12-3.68.12-.3,0-.46,0-.86-.02l.06,1.72c1.24-.2,5.9-.46,9.32-.52,0,1.1.02,2.14.04,2.32v.14a3.012,3.012,0,0,0-2.22-.8,3.45,3.45,0,0,0-3.7,3.4,3.455,3.455,0,0,0,5.92,2.22,3.183,3.183,0,0,0,.54-.88,4.487,4.487,0,0,1-.58,2.02c-.86,1.56-2.4,2.54-4.98,3.24a5.151,5.151,0,0,1,1.02,1.54,12.906,12.906,0,0,0,3.3-1.62,6.291,6.291,0,0,0,2.74-5.28,5.794,5.794,0,0,0-.5-2.48V41.9c1.6-.02,1.94-.02,2.22-.02a34.709,34.709,0,0,1,3.68.1V40.3c-.66.08-2.18.12-5.92.14a17.152,17.152,0,0,1,.1-2.62h-1.8a8.968,8.968,0,0,1,.1,1.16Zm-2.02,4.44a2.262,2.262,0,0,1,1.58.58,1.345,1.345,0,0,1,.4,1.06,2.116,2.116,0,0,1-2.22,2.2,1.843,1.843,0,0,1-1.96-1.9A2.037,2.037,0,0,1,48.94,44.92Zm15.7-4.24a9.962,9.962,0,0,1,1.06-.1c2.92-.12,5.18-.24,5.92-.36a.44.44,0,0,0,.16-.02l.02.04-.22.22-.16.16a65.062,65.062,0,0,1-9.3,7.7l1.02,1.52a12.7,12.7,0,0,1,8.4-3.4c2.62,0,4.2,1.1,4.2,2.94a3.058,3.058,0,0,1-1.36,2.56,4.815,4.815,0,0,1-1.64.76,5.608,5.608,0,0,0-.9-1.9,4.1,4.1,0,0,0-3.34-1.64c-1.76,0-3.06,1.06-3.06,2.48a2.729,2.729,0,0,0,.6,1.68c.74.86,2.1,1.3,4.06,1.3,4.42,0,7.36-2.12,7.36-5.28,0-2.6-2.16-4.28-5.52-4.28a9.786,9.786,0,0,0-4.7,1.16l-.04-.08a48.038,48.038,0,0,0,6.46-5.46,3.612,3.612,0,0,1,1.02-.84l-.96-1.3a2.025,2.025,0,0,1-1.04.24c-1.78.14-4.42.26-6.1.26a10.585,10.585,0,0,1-2.02-.12ZM71.18,53.1a6.967,6.967,0,0,1-1.32.12c-1.74,0-2.84-.6-2.84-1.54,0-.7.58-1.14,1.48-1.14C69.86,50.54,70.76,51.42,71.18,53.1Z" transform="translate(462.322 2657)" fill="#fff"/>
    <path id="パス_694" data-name="パス 694" d="M14.38-7.6,3.48-1.52l.86,1.4L17.52-7.6,4.34-15.08l-.88,1.4Z" transform="translate(683.311 2684)" fill="#fff"/>
    <g id="click_mark" data-name="click mark" transform="translate(414.474 2647) rotate(20)">
      <g id="グループ_128" data-name="グループ 128" transform="translate(0 0)" clip-path="url(#clip-path)">
        <path id="パス_690" data-name="パス 690" d="M22.945,23.9a3.105,3.105,0,0,0-1.893.587,3.34,3.34,0,0,0-4.882-1.33A3.577,3.577,0,0,0,12.177,20.8V12.046a3.231,3.231,0,1,0-6.463,0V26.594a8.173,8.173,0,0,0-2.487,2.681,6.392,6.392,0,0,0-.845,3.382l.144,4.62a8.232,8.232,0,0,0,1.613,4.656l4.747,6.427L9.062,51.3A.741.741,0,0,0,9.8,52h.045a.741.741,0,0,0,.695-.785l-.19-3.161a.743.743,0,0,0-.144-.4l-4.878-6.6a6.752,6.752,0,0,1-1.323-3.819l-.144-4.62a4.906,4.906,0,0,1,.649-2.6,6.675,6.675,0,0,1,1.2-1.523v4.934a.741.741,0,1,0,1.481,0V12.046a1.75,1.75,0,1,1,3.5,0v9.772s0,.007,0,.011v2.155a.741.741,0,1,0,1.481,0V22.319a2.109,2.109,0,0,1,2.714,2.007.9.9,0,0,0,.57,1,.867.867,0,0,0,1.034-.441,1.861,1.861,0,0,1,3.4,1.017.783.783,0,0,0,1.521.36,1.634,1.634,0,0,1,1.493-.886,1.686,1.686,0,0,1,1.605,1.708v12.28l-2.274,6.779a.743.743,0,0,0-.037.287l.312,4.532a.741.741,0,0,0,.738.691l.052,0A.741.741,0,0,0,24,50.864l-.3-4.385,2.266-6.754A.742.742,0,0,0,26,39.489v-12.4A3.176,3.176,0,0,0,22.945,23.9M8.6,5.851a.741.741,0,0,0,.741-.742V.742a.741.741,0,1,0-1.481,0V5.109a.741.741,0,0,0,.741.742M3.529,7.832a.742.742,0,0,0,.546-1.243L1.286,3.542a.741.741,0,1,0-1.092,1L2.982,7.591a.738.738,0,0,0,.546.241m9.986,0a.738.738,0,0,0,.524-.217l3.041-3.047a.741.741,0,1,0-1.047-1.049L12.991,6.565a.742.742,0,0,0,.524,1.267" transform="translate(0 0)" fill="#fff"/>
      </g>
    </g>
  </g>
</svg>
