<svg xmlns="http://www.w3.org/2000/svg" width="312.28" height="18.48" viewBox="0 0 312.28 18.48">
  <path id="パス_699" data-name="パス 699" d="M-139.98-1.18a50.5,50.5,0,0,0-6.64-5.88,25.873,25.873,0,0,0,3.22-5.56,3.466,3.466,0,0,1,.58-1l-.98-1a3.761,3.761,0,0,1-1.42.18l-6.92.08h-.44a10.317,10.317,0,0,1-1.9-.12l.06,1.9a16.7,16.7,0,0,1,2.3-.16c6.56-.1,6.56-.1,6.8-.12a1.378,1.378,0,0,1-.06.16,1.619,1.619,0,0,0-.12.26,20.814,20.814,0,0,1-4.44,6.56,19.413,19.413,0,0,1-6.62,4.48A5.2,5.2,0,0,1-155.4.18a25.441,25.441,0,0,0,3.9-2.38,22.174,22.174,0,0,0,3.8-3.52,39.935,39.935,0,0,1,6.3,6.1Zm16.38-13.56a2.279,2.279,0,0,0-2.28,2.28,2.279,2.279,0,0,0,2.28,2.28,2.279,2.279,0,0,0,2.28-2.28A2.279,2.279,0,0,0-123.6-14.74Zm0,.88a1.417,1.417,0,0,1,1.4,1.4,1.417,1.417,0,0,1-1.4,1.4,1.417,1.417,0,0,1-1.4-1.4A1.417,1.417,0,0,1-123.6-13.86Zm-13.38,9.52.6-.76c1.22-1.42,2.64-3.18,3.6-4.42l.74-.96a.789.789,0,0,1,.6-.32c.26,0,.48.12.8.48a91.73,91.73,0,0,0,7.62,7.62l1.86,1.64.92-2a12.1,12.1,0,0,1-1.74-1.28,67.126,67.126,0,0,1-6.74-6.5c-1.46-1.62-1.84-1.88-2.7-1.88-.94,0-1.48.38-2.64,1.9-1.1,1.44-2.88,3.56-3.46,4.14a2.8,2.8,0,0,1-.68.52Zm22.06-9.74a21.926,21.926,0,0,1,5.04,2.66l.94-1.56A29.917,29.917,0,0,0-114-15.52Zm-1.58,4.8a23.033,23.033,0,0,1,5.2,2.8l.9-1.6a31.135,31.135,0,0,0-5.14-2.64Zm.8,9.6a4.634,4.634,0,0,1,.8-.2c.4-.08.74-.16,1.08-.22a24.484,24.484,0,0,0,5.2-1.76,15.893,15.893,0,0,0,7.74-8.66,8.21,8.21,0,0,1-1.5-1.28,14.092,14.092,0,0,1-2.38,4.46,12.877,12.877,0,0,1-5.92,4.44,17.228,17.228,0,0,1-5.5,1.26Zm23.14-9.68-1.8.28a12.051,12.051,0,0,1-1.92.2l.32,1.66a10.4,10.4,0,0,1,1.86-.42l1.78-.3L-90.98-.7a10.343,10.343,0,0,1,.24,1.9l1.82-.32a8.536,8.536,0,0,1-.44-1.86L-90.74-8.2l5.6-.94a2.617,2.617,0,0,0,.58-.12.72.72,0,0,1-.1.18,8.216,8.216,0,0,1-3.52,3.72,4.26,4.26,0,0,1,1.3,1.02,10.49,10.49,0,0,0,3.9-4.82,4.251,4.251,0,0,1,.46-.92l-.98-.88a5.082,5.082,0,0,1-1.18.28L-91-9.62l-.3-1.58a9.656,9.656,0,0,1-.24-1.62l-1.72.28a6.487,6.487,0,0,1,.4,1.56ZM-75-15.34a9.986,9.986,0,0,1,.06,1.58c0,4.1-.26,6.66-.88,8.42a9.614,9.614,0,0,1-3.3,4.58A4.844,4.844,0,0,1-77.68.58a12.438,12.438,0,0,0,3.44-5.04c.74-2.02.9-3.48,1.06-9.02a10.39,10.39,0,0,1,.12-1.76Zm5.04-.16a8.5,8.5,0,0,1,.1,1.64v.44L-69.98-2.1a4.668,4.668,0,0,1-.14,1.58l.94,1.04A3.7,3.7,0,0,1-68.7.3c.2-.08.4-.16.64-.24a13.747,13.747,0,0,0,2.82-1.44,11.488,11.488,0,0,0,4.12-5.24A6.613,6.613,0,0,1-62.44-8,9.773,9.773,0,0,1-64.7-4.1a8.809,8.809,0,0,1-3.52,2.32l.1-11.62a11.536,11.536,0,0,1,.14-2.08Zm13.2,1.38a14.008,14.008,0,0,1-2.48-.14v1.9a19.049,19.049,0,0,1,2.44-.12h9.88c-1.1,4.3-3.02,7.16-6.24,9.3a15.618,15.618,0,0,1-4.48,2.1A4.832,4.832,0,0,1-56.44.58a18.744,18.744,0,0,0,6.32-3.84,17.313,17.313,0,0,0,5-8.72l.12-.42a2.4,2.4,0,0,0,.66.1,2.279,2.279,0,0,0,2.28-2.28,2.279,2.279,0,0,0-2.28-2.28,2.279,2.279,0,0,0-2.28,2.28,3.283,3.283,0,0,0,.04.46Zm12.42-1.86a1.417,1.417,0,0,1,1.4,1.4,1.417,1.417,0,0,1-1.4,1.4,1.417,1.417,0,0,1-1.4-1.4A1.417,1.417,0,0,1-44.34-15.98Zm6.9,2.5a17.912,17.912,0,0,1,2.28-.1h6.54a17.161,17.161,0,0,1,2.28.1v-1.8a11.87,11.87,0,0,1-2.3.14h-6.5a11.167,11.167,0,0,1-2.3-.14ZM-39.16-8.8a19.432,19.432,0,0,1,2.52-.1h10.1A11.492,11.492,0,0,1-29.8-3.8,13,13,0,0,1-35.6-.88,5.073,5.073,0,0,1-34.54.76a18.026,18.026,0,0,0,4.9-2.42,13.539,13.539,0,0,0,4.82-6.7,4.886,4.886,0,0,1,.56-1.26l-.86-1a4.368,4.368,0,0,1-1.58.16h-9.92a14.626,14.626,0,0,1-2.54-.14Zm32.9-7.18a16.461,16.461,0,0,1-3.78,3.78A28.642,28.642,0,0,1-20.46-7.02a4.965,4.965,0,0,1,.94,1.6,31.213,31.213,0,0,0,7.56-3.42v7.2A13.255,13.255,0,0,1-12.08.7h2.04a16.516,16.516,0,0,1-.1-2.36v-8.3a33.474,33.474,0,0,0,4.8-4.18,7.346,7.346,0,0,1,.72-.68ZM16.42-1.18A50.5,50.5,0,0,0,9.78-7.06,25.873,25.873,0,0,0,13-12.62a3.466,3.466,0,0,1,.58-1l-.98-1a3.761,3.761,0,0,1-1.42.18l-6.92.08H3.82a10.317,10.317,0,0,1-1.9-.12l.06,1.9a16.7,16.7,0,0,1,2.3-.16c6.56-.1,6.56-.1,6.8-.12a1.378,1.378,0,0,1-.06.16,1.619,1.619,0,0,0-.12.26A20.814,20.814,0,0,1,6.46-5.88,19.413,19.413,0,0,1-.16-1.4,5.2,5.2,0,0,1,1,.18,25.442,25.442,0,0,0,4.9-2.2,22.174,22.174,0,0,0,8.7-5.72,39.934,39.934,0,0,1,15,.38Zm8.62-12.46a25.17,25.17,0,0,1-4.3-.24l-.04,1.64a1.9,1.9,0,0,1,.42-.04,3.444,3.444,0,0,1,.4.02c.42.02,2.4.06,2.8.06.08,0,.3-.02.36-.02-.12.22-.12.22-.18.32a19.909,19.909,0,0,1-4.38,5.52l1.32,1.32a7.157,7.157,0,0,1,1.6-1.7,7.32,7.32,0,0,1,4.34-2.1c.9,0,1.36.44,1.48,1.42a15.75,15.75,0,0,0-2.94,1.6C24.5-4.82,23.8-3.74,23.8-2.6A2.668,2.668,0,0,0,25.16-.2a8.282,8.282,0,0,0,4.1.78A33.717,33.717,0,0,0,34.24.2a4.758,4.758,0,0,1,.82-.1l-.18-1.84a16.81,16.81,0,0,1-5.44.8c-2.82,0-3.96-.52-3.96-1.78A2.391,2.391,0,0,1,26.66-4.6a12.271,12.271,0,0,1,2.4-1.32v.62a25.161,25.161,0,0,1-.12,2.66l1.64-.02a5.5,5.5,0,0,1-.04-.82V-4.3c.02-.4.02-.82.02-1.04,0-.44,0-.5-.02-1.16a30.781,30.781,0,0,1,5.3-1.7l-.72-1.64a5.62,5.62,0,0,1-1.4.58c-.98.34-1.8.64-3.36,1.24a2.481,2.481,0,0,0-2.7-2.18,5.161,5.161,0,0,0-2.76.82,4.53,4.53,0,0,0-.68.5,2.738,2.738,0,0,0-.28.2.248.248,0,0,1-.04-.06l.04-.04c0-.02.08-.08.2-.16a5.632,5.632,0,0,0,.64-.74,15.039,15.039,0,0,0,1.62-2.54c1.96-.06,4.52-.24,5.9-.42,1.16-.16,1.16-.16,1.54-.2l-.12-1.6a26.45,26.45,0,0,1-5.4.7c-1.12.06-1.12.06-1.26.08a13.061,13.061,0,0,0,.6-1.34,4.313,4.313,0,0,1,.48-1.02l-1.88-.28a8.694,8.694,0,0,1-.9,2.66ZM45.18-7.36A4.612,4.612,0,0,1,46-6.12a8.938,8.938,0,0,0,1.22-1.5c-.02.12-.04.72-.06,1.82V-.5a12.018,12.018,0,0,1-.14,2.12h1.5V.66h6.56a15.147,15.147,0,0,1,1.9.12V-.72a12.147,12.147,0,0,1-1.9.1H52.76v-2.1h1.78a12.876,12.876,0,0,1,1.74.1V-4.04a10.514,10.514,0,0,1-1.78.1H52.76V-5.9h1.78a12.692,12.692,0,0,1,1.74.1V-7.22a10.09,10.09,0,0,1-1.78.1H52.76V-9.1h2.08c.6,0,1.06.02,1.72.08v-1.42a10.4,10.4,0,0,1-1.76.1H53.12a12.334,12.334,0,0,0,.68-1.56c.04-.08.08-.2.14-.36l-1.42-.32a10.036,10.036,0,0,1-.82,2.24H49.24a17.924,17.924,0,0,0,1.54-3.02h4.8v2.12H57.1a6.74,6.74,0,0,1-.08-1.16v-1.04a11.78,11.78,0,0,1,.06-1.36,13.54,13.54,0,0,1-1.94.1H51.26c.1-.28.3-.92.62-1.92l-1.56-.24a16.8,16.8,0,0,1-.52,2.16H47.58a9.6,9.6,0,0,1-1.66-.06c.02.46.04.8.04,1.02v1.34a7.181,7.181,0,0,1-.08,1.22h1.44v-2.18h2a14.986,14.986,0,0,1-1.86,3.4A11.913,11.913,0,0,1,45.18-7.4v-.72c0-.68.02-1.12.06-1.58a7.333,7.333,0,0,1-1.22.08H41.88a25.466,25.466,0,0,0,1.28-4.92h1.06a10.852,10.852,0,0,1,1.38.08V-16a9.356,9.356,0,0,1-1.76.12H41.22A11.964,11.964,0,0,1,39.38-16v1.58a8.678,8.678,0,0,1,1.72-.12h.62A19.934,19.934,0,0,1,41-11.16,13.679,13.679,0,0,1,38.6-6.5a5.4,5.4,0,0,1,.76,1.46,10.626,10.626,0,0,0,1.28-2.28c-.06.64-.1,1.68-.1,1.98V-.88a12.656,12.656,0,0,1-.12,1.94h1.5V-.96h1.94V.14h1.38c-.04-.46-.06-.86-.06-1.64Zm3.34.24V-9.1h2.92v1.98Zm0,1.22h2.92v1.96H48.52Zm0,3.18h2.92v2.1H48.52ZM41.92-8.3h1.94v6H41.92Zm24.86-3.98a26,26,0,0,1,2.58,1.04A7.6,7.6,0,0,1,65.7-7.86a4.676,4.676,0,0,1,1.02,1.14,9.856,9.856,0,0,0,3.86-3.9,16.763,16.763,0,0,1,1.8,1.14l.76-1.16c-.98-.6-1.36-.8-2.06-1.16a11.05,11.05,0,0,0,.58-2.58h3.36a24.551,24.551,0,0,1-.44,4.4c-.18.86-.4,1.06-1.12,1.06a8.052,8.052,0,0,1-1.8-.22,4.857,4.857,0,0,1,.36,1.48c.46.04,1.1.08,1.58.08,1.34,0,1.8-.24,2.14-1.1a22.632,22.632,0,0,0,.72-4.98c.1-1.84.1-1.84.14-2.12a16.021,16.021,0,0,1-1.88.08H68.54a13.866,13.866,0,0,1-2.06-.12v1.56a10.7,10.7,0,0,1,2.04-.12h1.72a9.99,9.99,0,0,1-.4,1.98c-.76-.32-1.22-.5-2.4-.92Zm-6.92-2.2a10.391,10.391,0,0,1,1.5-.08h2.6a11.125,11.125,0,0,1,1.5.08v-1.48a7.651,7.651,0,0,1-1.5.1h-2.6a7.528,7.528,0,0,1-1.5-.1Zm-.7,2.8a12.146,12.146,0,0,1,1.6-.08h3.7c.66,0,1,.02,1.46.06v-1.5a7.8,7.8,0,0,1-1.6.1H60.76a8.29,8.29,0,0,1-1.6-.1Zm.78,2.78a7.819,7.819,0,0,1,1.34-.08h2.84a8.219,8.219,0,0,1,1.3.08v-1.44a7.027,7.027,0,0,1-1.3.08H61.28a7.672,7.672,0,0,1-1.34-.08Zm0,2.78a7.858,7.858,0,0,1,1.32-.08H64.1a8.011,8.011,0,0,1,1.32.08V-7.54a10.2,10.2,0,0,1-1.3.06H61.28a11.393,11.393,0,0,1-1.34-.06ZM61.4,1.52V.44h2.58v.82h1.4A11.35,11.35,0,0,1,65.3-.36V-3.3a13.314,13.314,0,0,1,.06-1.52,11.494,11.494,0,0,1-1.44.06H61.58a11.349,11.349,0,0,1-1.62-.08,13.505,13.505,0,0,1,.08,1.62v2.8c0,.68-.04,1.3-.1,1.94Zm-.02-5.08h2.6V-.8h-2.6ZM66.84-5.2a10.418,10.418,0,0,1-1.3,4.62L66.82.1a15.433,15.433,0,0,0,1.32-5.02ZM70.3-4.04a7.092,7.092,0,0,1,.1-1.46H68.78a9.58,9.58,0,0,1,.12,1.58V-.18c0,1.1.46,1.32,2.72,1.32,2,0,2.66-.18,3-.8A7.253,7.253,0,0,0,75.2-2.5a4.629,4.629,0,0,1-1.34-.46c-.04.64-.08,1.2-.14,1.64-.12.8-.26.98-.82,1.08-.18.02-1.1.06-1.5.06-.92,0-1.1-.08-1.1-.52Zm4.14-.78a15.724,15.724,0,0,1,2.3,4.48l1.24-.78A19.852,19.852,0,0,0,75.6-5.46ZM69.46-7.16a10.865,10.865,0,0,1,3.12,2.8l1.08-.96a15.508,15.508,0,0,0-3.2-2.66Zm19.7-6.36c-2.24.06-3.12.08-4.82.14-3.02.12-3.14.12-3.68.12-.3,0-.46,0-.86-.02l.06,1.72c1.24-.2,5.9-.46,9.32-.52,0,1.1.02,2.14.04,2.32v.14a3.012,3.012,0,0,0-2.22-.8,3.45,3.45,0,0,0-3.7,3.4,3.234,3.234,0,0,0,3.4,3.26A3.255,3.255,0,0,0,89.22-4.8a3.183,3.183,0,0,0,.54-.88,4.487,4.487,0,0,1-.58,2.02c-.86,1.56-2.4,2.54-4.98,3.24a5.151,5.151,0,0,1,1.02,1.54A12.905,12.905,0,0,0,88.52-.5a6.291,6.291,0,0,0,2.74-5.28,5.794,5.794,0,0,0-.5-2.48V-12.1c1.6-.02,1.94-.02,2.22-.02a34.708,34.708,0,0,1,3.68.1V-13.7c-.66.08-2.18.12-5.92.14a17.152,17.152,0,0,1,.1-2.62h-1.8a8.968,8.968,0,0,1,.1,1.16ZM87.14-9.08a2.262,2.262,0,0,1,1.58.58,1.345,1.345,0,0,1,.4,1.06,2.116,2.116,0,0,1-2.22,2.2,1.843,1.843,0,0,1-1.96-1.9A2.037,2.037,0,0,1,87.14-9.08Zm15.7-4.24a9.962,9.962,0,0,1,1.06-.1c2.92-.12,5.18-.24,5.92-.36a.44.44,0,0,0,.16-.02l.02.04-.22.22-.16.16a65.063,65.063,0,0,1-9.3,7.7l1.02,1.52a12.7,12.7,0,0,1,8.4-3.4c2.62,0,4.2,1.1,4.2,2.94a3.058,3.058,0,0,1-1.36,2.56,4.815,4.815,0,0,1-1.64.76,5.608,5.608,0,0,0-.9-1.9,4.1,4.1,0,0,0-3.34-1.64c-1.76,0-3.06,1.06-3.06,2.48a2.729,2.729,0,0,0,.6,1.68c.74.86,2.1,1.3,4.06,1.3,4.42,0,7.36-2.12,7.36-5.28,0-2.6-2.16-4.28-5.52-4.28a9.786,9.786,0,0,0-4.7,1.16l-.04-.08a48.038,48.038,0,0,0,6.46-5.46,3.612,3.612,0,0,1,1.02-.84l-.96-1.3a2.025,2.025,0,0,1-1.04.24c-1.78.14-4.42.26-6.1.26a10.585,10.585,0,0,1-2.02-.12ZM109.38-.9a6.967,6.967,0,0,1-1.32.12c-1.74,0-2.84-.6-2.84-1.54,0-.7.58-1.14,1.48-1.14C108.06-3.46,108.96-2.58,109.38-.9Zm43.2-6.7-10.9,6.08.86,1.4L155.72-7.6l-13.18-7.48-.88,1.4Z" transform="translate(156.56 16.86)" fill="#fff"/>
</svg>
