<svg xmlns="http://www.w3.org/2000/svg" xmlns:xlink="http://www.w3.org/1999/xlink" width="226.771" height="57.757" viewBox="0 0 226.771 57.757">
  <defs>
    <clipPath id="clip-path">
      <path id="パス_695" data-name="パス 695" d="M0,0H26V52H0Z" fill="#fff"/>
    </clipPath>
  </defs>
  <g id="btn02-sp" transform="translate(-435.041 -2647)">
    <path id="パス_697" data-name="パス 697" d="M13.86-11.66a32.829,32.829,0,0,0,1.04,8.1C15.72-.8,16.96,1,18.04,1A1.2,1.2,0,0,0,19.1.12a10.041,10.041,0,0,0,.58-2.9,4.258,4.258,0,0,1-1.28-.9c-.04,1.66-.22,2.8-.44,2.8-.06,0-.26-.2-.44-.42a10.414,10.414,0,0,1-1.26-2.86,32.245,32.245,0,0,1-.94-7.5h1.9a15.452,15.452,0,0,1,2.06.12v-1.6a15.012,15.012,0,0,1-1.86.1H15.28c-.02-1.02-.02-1.38-.02-2.08a6.37,6.37,0,0,1,.1-1.38H13.68a8.077,8.077,0,0,1,.08,1.24c.02.9.02,1.18.06,2.22H10.14a14.437,14.437,0,0,1-2.06-.12v1.62a15.781,15.781,0,0,1,2.04-.12ZM9.96-7.7v5.3a17.716,17.716,0,0,1-2.44.46L7.88-.38c.36-.12.6-.2,1.14-.34a36.973,36.973,0,0,0,5.18-1.7l-.06-1.34c-1.36.52-1.86.7-2.76.96V-7.7h.74c.48,0,.9.02,1.4.06V-9.1a7.651,7.651,0,0,1-1.5.1H9.38a9.832,9.832,0,0,1-1.6-.12v1.5A11.374,11.374,0,0,1,9.32-7.7ZM1.8-14.56a10.936,10.936,0,0,1,1.5-.08H5.86a10.216,10.216,0,0,1,1.5.08v-1.46a7.776,7.776,0,0,1-1.5.1H3.3a7.776,7.776,0,0,1-1.5-.1Zm-.7,2.84a12.342,12.342,0,0,1,1.6-.08H6.08c.68,0,.98.02,1.46.06v-1.48a10.691,10.691,0,0,1-1.6.08H2.7a8.546,8.546,0,0,1-1.6-.1Zm.78,2.74a11.161,11.161,0,0,1,1.34-.06H5.84a11.585,11.585,0,0,1,1.3.06v-1.4a9.983,9.983,0,0,1-1.3.06H3.22a11.393,11.393,0,0,1-1.34-.06Zm0,2.78A11.483,11.483,0,0,1,3.2-6.26H5.82a11.977,11.977,0,0,1,1.32.06V-7.6a10.2,10.2,0,0,1-1.3.06H3.22A11.161,11.161,0,0,1,1.88-7.6ZM3.24,1.46V.44H5.86V1.2H7.24A11.958,11.958,0,0,1,7.16-.34V-3.32a13.731,13.731,0,0,1,.06-1.54,11.275,11.275,0,0,1-1.44.06H3.44a15.814,15.814,0,0,1-1.6-.06,12.342,12.342,0,0,1,.08,1.6V-.48c0,.68-.04,1.34-.1,1.94ZM3.22-3.62H5.86V-.8H3.22ZM15.7-15.76a10.649,10.649,0,0,1,2.16,2.5l1.06-.9a13.359,13.359,0,0,0-2.2-2.4Zm8.92,4.32V-9.4H23.18a15.036,15.036,0,0,1-2.06-.12v1.54a14.244,14.244,0,0,1,2.06-.12h1.44v2.28h-.74a17.662,17.662,0,0,1-1.96-.1v1.44A16.209,16.209,0,0,1,24-4.6h4.22a12.954,12.954,0,0,1-2.7,2.16A18.723,18.723,0,0,1,20.66-.36a5.3,5.3,0,0,1,.92,1.4,16.97,16.97,0,0,0,7.6-4.84c-.04.52-.06,1.02-.08,1.46V-.46a12.421,12.421,0,0,1-.14,2.14H30.7a10.342,10.342,0,0,1-.14-2.14V-2.34c0-.38-.02-.7-.08-1.48a17.292,17.292,0,0,0,7.94,4.86A7.441,7.441,0,0,1,39.3-.5a16.74,16.74,0,0,1-4.58-1.68,14.684,14.684,0,0,1-3.3-2.42h4.64a15.351,15.351,0,0,1,2.08.12V-5.92a17.662,17.662,0,0,1-1.96.1h-.96V-8.1h1.56a12.1,12.1,0,0,1,2.08.12V-9.52a15.146,15.146,0,0,1-2.08.12H35.22v-2.04h.94a19.107,19.107,0,0,1,1.96.1v-1.44a14.944,14.944,0,0,1-2.08.12H30.56v-1.92c2.14-.2,3.72-.44,5.64-.8.38-.08.46-.1.76-.14L35.94-16.9a12.4,12.4,0,0,1-2.9.68,66.324,66.324,0,0,1-9.78.72h-.72a5.357,5.357,0,0,1,.58,1.36c2.02-.04,2.02-.04,5.98-.32v1.8H23.98a15.146,15.146,0,0,1-2.08-.12v1.44a14.729,14.729,0,0,1,1.96-.1Zm1.44,0H29.1V-9.4H26.06Zm0,3.34H29.1v2.28H26.06Zm7.72,2.28H30.56V-8.1h3.22Zm0-3.58H30.56v-2.04h3.22Zm22.24-6.44a10.47,10.47,0,0,1-1.54.08h-9.1a13.087,13.087,0,0,1-2.2-.12v1.6a14.867,14.867,0,0,1,2.16-.1h8.84a20.615,20.615,0,0,1-3.96,2.62c-1.06-.66-1.72-1.04-3.26-1.86l-1.02,1.04a31.227,31.227,0,0,1,5.24,3.22h-7.5a16.732,16.732,0,0,1-2.34-.12v1.66a17.314,17.314,0,0,1,2.2-.12H49.5V-.7c0,.44-.18.56-.86.56a19.778,19.778,0,0,1-2.86-.22,4.7,4.7,0,0,1,.4,1.62c.6.04,1.74.08,2.28.08,2.1,0,2.62-.36,2.62-1.76V-7.94h5.66a13.361,13.361,0,0,1-3.12,2.86,4.551,4.551,0,0,1,1.26,1.02A17.87,17.87,0,0,0,58.5-7.78c.1-.14.18-.24.22-.3.08-.08.14-.16.16-.18.1-.14.1-.14.16-.22l-.9-.98a12.64,12.64,0,0,1-2.16.1h-3.6l.54-.54c-.78-.56-.98-.72-1.4-1a27.187,27.187,0,0,0,4.8-3.3c.4-.36.4-.36.62-.54Zm5.16,9.3a10.8,10.8,0,0,1,1.24-.12c.76-.06.76-.06,2.14-.18V-.5a14.551,14.551,0,0,1-.12,2.08H66.1a14.832,14.832,0,0,1-.12-2.06v-6.5c.82-.1.82-.1,1.26-.14.12-.02.28-.04.5-.06.12.38.2.58.38,1.22l1.22-.52a24.554,24.554,0,0,0-1.72-3.84l-1.08.44a14.075,14.075,0,0,1,.72,1.52c-1.06.12-1.4.16-2.94.26a49.191,49.191,0,0,0,3.6-4.92c.28-.42.42-.6.6-.84l-1.36-.8a22.235,22.235,0,0,1-2.26,3.7,17.746,17.746,0,0,0-1.2-1.32,29.908,29.908,0,0,0,1.94-3.12,3.219,3.219,0,0,1,.46-.74l-1.44-.62a15.6,15.6,0,0,1-1.88,3.56L62-13.98l-.86,1.12a20.6,20.6,0,0,1,2.94,3.04c-.52.72-.74.98-1.42,1.8-.6.02-.76.02-.94.02a4.505,4.505,0,0,1-.76-.06ZM77-12.02a56.87,56.87,0,0,1-.78,10.2C75.94-.54,75.72-.3,74.78-.3a15.57,15.57,0,0,1-2.64-.26,6.556,6.556,0,0,1,.4,1.64c.86.06,1.46.1,1.98.1,2.14,0,2.66-.4,3.14-2.36a51.31,51.31,0,0,0,.84-9.16c.04-2.58.04-2.58.1-3.2a10.655,10.655,0,0,1-1.62.08H72.16c.24-.6.38-.94.58-1.54a9.761,9.761,0,0,1,.46-1.22l-1.62-.36a12.742,12.742,0,0,1-1,3.08A13.327,13.327,0,0,1,68.3-9.9a4.446,4.446,0,0,1,1.2,1,16,16,0,0,0,2-3.12ZM62.16-5.66A15.963,15.963,0,0,1,60.94-.3l1.3.62a19.108,19.108,0,0,0,1.22-5.74Zm4.82.22a31.738,31.738,0,0,1,.96,4.9l1.34-.38a39.832,39.832,0,0,0-1.12-4.86Zm7.68.76a23.289,23.289,0,0,0-2.74-4.94l-1.24.72A19.509,19.509,0,0,1,73.3-3.92ZM11.86,13.7a19.029,19.029,0,0,1-4,.82V12.78a12.4,12.4,0,0,1,.1-1.94H6.16a14.021,14.021,0,0,1,.12,2.02v1.78c-1.32.06-1.32.06-1.78.06a10.2,10.2,0,0,1-2.16-.16v1.6a2.986,2.986,0,0,1,.38-.02c.08,0,.24,0,.46.02.34,0,.9.02,1.18.02a9.238,9.238,0,0,0,1.12-.04c.64-.04.64-.04.8-.04v3.58a11.075,11.075,0,0,0-2.84,1.66,3.786,3.786,0,0,0-1.62,2.74,2.583,2.583,0,0,0,.98,2,5.535,5.535,0,0,0,3.42,1.32,1.45,1.45,0,0,0,1.54-1,5.4,5.4,0,0,0,.1-1.44V20.72A12.676,12.676,0,0,1,12,19.96c2.48,0,4.06,1.2,4.06,3.1a2.51,2.51,0,0,1-2.5,2.68,1.681,1.681,0,0,1-1.68-1.02,6.161,6.161,0,0,1-.24-1.86c0-.24.02-.4.04-.78a5.341,5.341,0,0,1-1.58.64,7.546,7.546,0,0,0,.28,2.34,3.012,3.012,0,0,0,3.14,2.26,4.156,4.156,0,0,0,4.22-4.26,4.265,4.265,0,0,0-2.06-3.66,6.922,6.922,0,0,0-3.58-.88,14.263,14.263,0,0,0-4.26.68V15.98a29.161,29.161,0,0,0,2.92-.46c.72-.16.8-.16,1.18-.22ZM6.28,24.8c0,.8-.08.96-.44.96a3.389,3.389,0,0,1-1.66-.54c-.54-.36-.8-.72-.8-1.14,0-.88,1.04-1.9,2.9-2.84Zm12.28-8.46a16.941,16.941,0,0,0-4.02-3.88l-1.28.92A16.417,16.417,0,0,1,17.3,17.4Zm4.82,1.1H27c.76,0,1.44.02,1.98.06-.04-.42-.06-1-.06-1.84V12.78c0-.78.02-1.28.06-1.9a17.548,17.548,0,0,1-2.04.08H23.9a18.565,18.565,0,0,1-2.08-.08c.06.64.08,1.22.08,2.22V26.12a15.833,15.833,0,0,1-.12,2.32H23.5a14.97,14.97,0,0,1-.12-2.3Zm0-5.3h4.16V13.6H23.38Zm0,2.62h4.16v1.5H23.38ZM38.14,13.1a18.86,18.86,0,0,1,.1-2.22,18.969,18.969,0,0,1-2.1.08H32.76a17.77,17.77,0,0,1-2.04-.08c.04.56.06,1.14.06,1.9v2.88c0,.8-.02,1.2-.06,1.84.52-.04,1.16-.06,1.98-.06h3.96v8.78c0,.44-.14.54-.68.54a21.5,21.5,0,0,1-2.54-.18,4.835,4.835,0,0,1,.42,1.52c1.1.06,1.38.06,2.24.06,1.64,0,2.04-.36,2.04-1.8Zm-5.98-.96h4.5V13.6h-4.5Zm0,2.62h4.5v1.5h-4.5Zm1.46,5.62a11.567,11.567,0,0,1,.06-1.26c-.44.04-.9.06-1.5.06h-4.6c-.54,0-.98-.02-1.4-.06a12.917,12.917,0,0,1,.06,1.3v4.06a12.95,12.95,0,0,1-.1,1.9h1.54V24.86h4.68a12.769,12.769,0,0,1,1.32.06,10.928,10.928,0,0,1-.06-1.24Zm-5.94.08H32.2v3.12H27.68ZM42.56,12.7c.04.38.04.46.06,1.2.1,5,.38,7.46,1.06,9.46.68,2.02,1.8,3.22,3.02,3.22,1.52,0,2.46-1.38,3.48-5.02a6.9,6.9,0,0,1-1.4-1.34,14.561,14.561,0,0,1-1.04,3.48c-.28.64-.62.96-.96.96-.72,0-1.48-1.34-1.9-3.4a35.031,35.031,0,0,1-.48-6.02,16.654,16.654,0,0,1,.14-2.52Zm10.12,1.76a17.944,17.944,0,0,1,4.14,10.1l1.72-.68a18.913,18.913,0,0,0-4.4-10.14Zm12.56,3.48a12.542,12.542,0,0,1,1.6-.08h6.24a12.975,12.975,0,0,1,1.72.08v-1.6a23.948,23.948,0,0,0,3.82,2.22,7.1,7.1,0,0,1,.86-1.52,19.949,19.949,0,0,1-5.36-3.12,13.616,13.616,0,0,1-3.32-3.54H69.04a12.7,12.7,0,0,1-3.02,3.46,19.92,19.92,0,0,1-5.4,3.28,3.96,3.96,0,0,1,.92,1.38,21.866,21.866,0,0,0,3.7-2.12Zm1.62-1.52a10.73,10.73,0,0,1-1.58-.08,17.444,17.444,0,0,0,4.68-4.62,18.435,18.435,0,0,0,4.82,4.62,12.266,12.266,0,0,1-1.7.08ZM65.28,28.36V27.24h9.4v1.12h1.7a14.308,14.308,0,0,1-.12-2v-4.5a12.212,12.212,0,0,1,.1-1.86,11.038,11.038,0,0,1-1.6.08H65.2A11.038,11.038,0,0,1,63.6,20a12.7,12.7,0,0,1,.1,1.86v4.5a14.928,14.928,0,0,1-.12,2Zm0-6.88h9.4v4.36h-9.4Zm16.96,2.68a13.9,13.9,0,0,1,1.72-1.86,5.412,5.412,0,0,0,1-1.06h.02c-.02.3-.04.5-.04,1.28-.02,4.72-.02,4.72-.12,5.38H86.7c-.1-.82-.14-2.58-.14-5.72V19.96c2.46-2.24,4.42-3.28,6.2-3.28a3.564,3.564,0,0,1,3.76,3.78,4.788,4.788,0,0,1-.56,2.36A4.334,4.334,0,0,1,92.08,25a8.736,8.736,0,0,1-3.54-.76,6.492,6.492,0,0,1,.2,1.34v.48a10.843,10.843,0,0,0,3.3.54,6.315,6.315,0,0,0,4.46-1.62,6.237,6.237,0,0,0,1.76-4.36,5.315,5.315,0,0,0-1.38-3.86,5.392,5.392,0,0,0-4.08-1.64,8.238,8.238,0,0,0-5.48,2.26,5.8,5.8,0,0,0-.74.66h-.04a2.415,2.415,0,0,0,.06-.5c.02-1.02.02-1.02.04-1.34a7.718,7.718,0,0,1,1.08-1.3l-.58-.7a.735.735,0,0,1-.4.1l.06-1.5a8.1,8.1,0,0,1,.18-1.88H85.12a5.769,5.769,0,0,1,.04.84c0,.94-.02,1.54-.06,2.68-1.16.08-2.4.16-2.72.16a3.693,3.693,0,0,1-.6-.04l.12,1.64a14.939,14.939,0,0,1,2.2-.24l.96-.06c-.06,1.68-.06,1.8-.08,3.34a37.659,37.659,0,0,1-3.66,3.26Zm22.72-12.54a20.383,20.383,0,0,1,.12,3.24v.96c-2.38.18-3.2.24-3.58.24-.1,0-.26,0-.48-.02l.14,1.68a37.27,37.27,0,0,1,3.92-.4v2.86c0,3.32.1,4.26.6,5.16.68,1.24,2.3,1.78,5.38,1.78a36.167,36.167,0,0,0,5.14-.38c.42-.06.54-.08.84-.1l-.16-1.86a18.274,18.274,0,0,1-5.58.74,12.418,12.418,0,0,1-3.02-.3,1.727,1.727,0,0,1-1.34-1.2,22.521,22.521,0,0,1-.24-4.9V17.74a1.249,1.249,0,0,0,.02-.24,1.52,1.52,0,0,0-.02-.28c3.2-.2,3.2-.2,6.32-.32a19.089,19.089,0,0,1-.22,2.92c-.16.92-.38,1.22-.94,1.22a5.662,5.662,0,0,1-2.6-1.06c.04.44.06.64.06.92a6.277,6.277,0,0,1-.06.78,6.028,6.028,0,0,0,2.78.86,2.127,2.127,0,0,0,2.16-1.7,16.632,16.632,0,0,0,.42-3.98c2.06-.06,2.56-.06,2.94-.06.5,0,.7.02,1.2.06l-.04-1.7c-.64.08-1.78.14-4.08.2V12.58a10.45,10.45,0,0,1,.08-1.34h-1.8a18.7,18.7,0,0,1,.12,3v1.18c-3.14.12-3.14.12-6.32.32a23.139,23.139,0,0,1,.18-4.12Z" transform="translate(501.5 2670.378)" fill="#fff"/>
    <path id="パス_696" data-name="パス 696" d="M14.38-7.6,3.48-1.52l.86,1.4L17.52-7.6,4.34-15.08l-.88,1.4Z" transform="translate(644.292 2684)" fill="#fff"/>
    <g id="click_mark" data-name="click mark" transform="translate(452.826 2647) rotate(20)">
      <g id="マスクグループ_11" data-name="マスクグループ 11" transform="translate(0 0)" clip-path="url(#clip-path)">
        <path id="パス_690" data-name="パス 690" d="M22.945,23.9a3.105,3.105,0,0,0-1.893.587,3.34,3.34,0,0,0-4.882-1.33A3.577,3.577,0,0,0,12.177,20.8V12.046a3.231,3.231,0,1,0-6.463,0V26.594a8.173,8.173,0,0,0-2.487,2.681,6.392,6.392,0,0,0-.845,3.382l.144,4.62a8.232,8.232,0,0,0,1.613,4.656l4.747,6.427L9.062,51.3A.741.741,0,0,0,9.8,52h.045a.741.741,0,0,0,.695-.785l-.19-3.161a.743.743,0,0,0-.144-.4l-4.878-6.6a6.752,6.752,0,0,1-1.323-3.819l-.144-4.62a4.906,4.906,0,0,1,.649-2.6,6.675,6.675,0,0,1,1.2-1.523v4.934a.741.741,0,1,0,1.481,0V12.046a1.75,1.75,0,1,1,3.5,0v9.772s0,.007,0,.011v2.155a.741.741,0,1,0,1.481,0V22.319a2.109,2.109,0,0,1,2.714,2.007.9.9,0,0,0,.57,1,.867.867,0,0,0,1.034-.441,1.861,1.861,0,0,1,3.4,1.017.783.783,0,0,0,1.521.36,1.634,1.634,0,0,1,1.493-.886,1.686,1.686,0,0,1,1.605,1.708v12.28l-2.274,6.779a.743.743,0,0,0-.037.287l.312,4.532a.741.741,0,0,0,.738.691l.052,0A.741.741,0,0,0,24,50.864l-.3-4.385,2.266-6.754A.742.742,0,0,0,26,39.489v-12.4A3.176,3.176,0,0,0,22.945,23.9M8.6,5.851a.741.741,0,0,0,.741-.742V.742a.741.741,0,1,0-1.481,0V5.109a.741.741,0,0,0,.741.742M3.529,7.832a.742.742,0,0,0,.546-1.243L1.286,3.542a.741.741,0,1,0-1.092,1L2.982,7.591a.738.738,0,0,0,.546.241m9.986,0a.738.738,0,0,0,.524-.217l3.041-3.047a.741.741,0,1,0-1.047-1.049L12.991,6.565a.742.742,0,0,0,.524,1.267" transform="translate(0 0)" fill="#fff"/>
      </g>
    </g>
  </g>
</svg>
