<svg xmlns="http://www.w3.org/2000/svg" width="290.8" height="87.52" viewBox="0 0 290.8 87.52">
  <path id="パス_698" data-name="パス 698" d="M18.48,11.16v6.68H6.72a28.945,28.945,0,0,1-4.2-.24v3.36a30.516,30.516,0,0,1,4.2-.24h6.96a28.671,28.671,0,0,1-.32,3.4,11.424,11.424,0,0,1-3,6.64c-2.16,2.16-4.68,3.52-8.6,4.76a13.062,13.062,0,0,1,1.92,2.92c4.2-1.72,6.32-3,8.6-5.2,3-2.92,4.12-6.04,4.56-12.52H22.4V34.64c0,2.32,1.2,2.92,6.04,2.92,5.36,0,6.88-.4,7.88-2.16.68-1.16,1.04-3,1.32-6.6a12.377,12.377,0,0,1-3.12-1.2c0,3.08-.16,4.64-.64,5.72s-1.4,1.32-4.8,1.32c-3.08,0-3.6-.16-3.6-1.16V20.72h8.16a31.151,31.151,0,0,1,4.24.24V17.6a29.179,29.179,0,0,1-4.24.24H21.56V11.16h9.28a26.846,26.846,0,0,1,3.96.24V8.08a26.105,26.105,0,0,1-3.96.24H21.56V5.48A24.67,24.67,0,0,1,21.8,1.8H18.24a21.609,21.609,0,0,1,.24,3.68V8.32H11.6c.56-1.2.76-1.72,1.36-3.24a16.341,16.341,0,0,1,.76-1.88L10.4,2.36A19.393,19.393,0,0,1,8.48,7.88a20.9,20.9,0,0,1-5.2,6.72,9.805,9.805,0,0,1,2.48,2.08,30.831,30.831,0,0,0,4.32-5.52ZM68.16,23.2H72a32.372,32.372,0,0,1,3.96.16v-2.8a29.938,29.938,0,0,1-3.96.16H68.16V16.68H72a32.794,32.794,0,0,1,3.96.16v-2.8A30.333,30.333,0,0,1,72,14.2H68.16v-4h5.48a28.943,28.943,0,0,1,3.52.16V7.4a23.677,23.677,0,0,1-3.8.2H68.32A32.828,32.828,0,0,0,70,4.6c.64-1.28.88-1.72,1.08-2.08L68,1.8a23.981,23.981,0,0,1-2.68,5.8H58.96a35.69,35.69,0,0,0,1.76-3.48c.6-1.4.6-1.4.8-1.88L58.48,1.6a22.779,22.779,0,0,1-2.76,6.36,29.778,29.778,0,0,1-5.56,6.56,5.981,5.981,0,0,1,1.92,2.2,19.909,19.909,0,0,0,3.2-3.84,3.268,3.268,0,0,1,.04.56c0,.04-.04.32-.04.72-.04.24-.04,1.48-.04,1.88v10.4a35.988,35.988,0,0,1-.16,4.08,27.114,27.114,0,0,1,3.32-.16H73.72a28.378,28.378,0,0,1,3.92.2v-3a23.242,23.242,0,0,1-3.92.2H68.16Zm-2.84,0v4.56H58.16V23.2Zm0-2.48H58.16V16.68h7.16Zm0-6.52H58.16v-4h7.16ZM42.88,4.48a40.218,40.218,0,0,1,6.4,7.32l2.4-2.2a53.574,53.574,0,0,0-6.56-7.12Zm-.76,15.88a14.776,14.776,0,0,1,2.84-.2h2.52v9.36a25.846,25.846,0,0,1-6.24,4.6l1.52,3.16c.76-.64,1.08-.92,1.36-1.16A39.474,39.474,0,0,0,48.92,32a9.8,9.8,0,0,0,4.04,3.6c2.36,1.12,4.76,1.4,12.08,1.4,4.32,0,9.16-.08,12.96-.24a13.1,13.1,0,0,1,1-3.48,110.2,110.2,0,0,1-16.2.84c-4.64,0-7.08-.32-9-1.16a6.084,6.084,0,0,1-3.36-3.52V21.52a30.829,30.829,0,0,1,.2-4.28,18.683,18.683,0,0,1-3.08.2H45.24a16.673,16.673,0,0,1-3.12-.2ZM93.68,7.72a50.341,50.341,0,0,1-8.6-.48L85,10.52a3.791,3.791,0,0,1,.84-.08,6.889,6.889,0,0,1,.8.04c.84.04,4.8.12,5.6.12.16,0,.6-.04.72-.04-.24.44-.24.44-.36.64-2.72,4.76-6.12,9.04-8.76,11.04l2.64,2.64a14.314,14.314,0,0,1,3.2-3.4c3.16-2.72,6.24-4.2,8.68-4.2,1.8,0,2.72.88,2.96,2.84a31.5,31.5,0,0,0-5.88,3.2c-2.84,2.04-4.24,4.2-4.24,6.48a5.336,5.336,0,0,0,2.72,4.8c1.92,1.08,4.48,1.56,8.2,1.56a67.434,67.434,0,0,0,9.96-.76,9.515,9.515,0,0,1,1.64-.2l-.36-3.68a33.621,33.621,0,0,1-10.88,1.6c-5.64,0-7.92-1.04-7.92-3.56,0-1.36.72-2.48,2.36-3.76a24.542,24.542,0,0,1,4.8-2.64V24.4a50.32,50.32,0,0,1-.24,5.32l3.28-.04a10.991,10.991,0,0,1-.08-1.64V26.4c.04-.8.04-1.64.04-2.08,0-.88,0-1-.04-2.32,5.32-2.04,8.44-3.04,10.6-3.4l-1.44-3.28a11.24,11.24,0,0,1-2.8,1.16c-1.96.68-3.6,1.28-6.72,2.48-.56-2.88-2.4-4.36-5.4-4.36a10.323,10.323,0,0,0-5.52,1.64,9.061,9.061,0,0,0-1.36,1,5.476,5.476,0,0,0-.56.4.5.5,0,0,1-.08-.12l.08-.08c0-.04.16-.16.4-.32a11.265,11.265,0,0,0,1.28-1.48,30.079,30.079,0,0,0,3.24-5.08c3.92-.12,9.04-.48,11.8-.84,2.32-.32,2.32-.32,3.08-.4l-.24-3.2a52.9,52.9,0,0,1-10.8,1.4c-2.24.12-2.24.12-2.52.16A26.121,26.121,0,0,0,98.92,5a8.625,8.625,0,0,1,.96-2.04L96.12,2.4c-.12,1.28-.56,2.52-1.8,5.32ZM148.56,32.4a10.076,10.076,0,0,1-3.16-4.56,33.971,33.971,0,0,0,.52-4.68,18.047,18.047,0,0,1,.24-2.32l-2.88-.28c.04.52.04.8.04,1.4,0,6.4-1.28,10.36-4.56,14.28a8.785,8.785,0,0,1,2.52,1.56,21.585,21.585,0,0,0,3.4-6.88c2,4.4,5.48,6.2,11.92,6.2.36,0,.92,0,1.64-.04a9.363,9.363,0,0,1,.84-3.08,32.055,32.055,0,0,1-3.8.24,12.047,12.047,0,0,1-4.08-.52V26.76h2.12a18.985,18.985,0,0,1,3.4.2V24.12a18.447,18.447,0,0,1-3.4.2H151.2V17.76h4.08a20.256,20.256,0,0,1-2.2,3.52,8.646,8.646,0,0,1,2.28,1.12,36.928,36.928,0,0,0,2.08-3.64c.56-1.16.56-1.16,1.08-2.16l-1.28-1.44a32.415,32.415,0,0,1-3.4.12h-1.8l1.68-1.44c-1-1-1.4-1.36-2.04-1.96a34.125,34.125,0,0,0,4.76-5.4,10.22,10.22,0,0,1,1.08-1.4l-1.44-1.8a30.766,30.766,0,0,1-3.28.12h-5.24a26.6,26.6,0,0,1-3.96-.2V6.08a32.169,32.169,0,0,1,3.72-.16h6.28a20.025,20.025,0,0,1-3.84,4.28c-1.12-.96-1.56-1.32-3.04-2.44l-1.92,1.6a41.068,41.068,0,0,1,6.56,5.92H145.8a18.407,18.407,0,0,1-3.44-.2v2.88a21.9,21.9,0,0,1,3.36-.2h2.84ZM138.8,20.28q1.56,0,2.88.12V17.68a20.432,20.432,0,0,1-3,.16h-5.16c.32-.8.44-1.12.84-2.12l-2.6-.8a13.963,13.963,0,0,1-3.56,6.72,8.276,8.276,0,0,1,2,1.72,21.342,21.342,0,0,0,2.12-3.08h2.32a35.37,35.37,0,0,1-.28,4h-2.6a21.257,21.257,0,0,1-2.96-.16v2.92a15.03,15.03,0,0,1,2.84-.2h2.2c-1.08,4.16-2.72,6.32-6.64,8.84a7.891,7.891,0,0,1,1.92,2.28c3.8-2.88,5.28-4.8,6.56-8.6a16.424,16.424,0,0,0,3.4,4.56,12.042,12.042,0,0,1,1.56-2.36,13.879,13.879,0,0,1-3.96-4.72H139a17.476,17.476,0,0,1,2.84.16V24.12a18.84,18.84,0,0,1-2.96.16h-2.04c.16-1.28.2-2.04.32-4ZM133.52,8.92a44.717,44.717,0,0,0,8.92-3.6L140.6,2.96c-2,1.56-3.52,2.28-7.08,3.48V4.88a15.551,15.551,0,0,1,.2-3h-3.16a17.469,17.469,0,0,1,.2,3.12v6.76c0,2.28.88,2.72,5.4,2.72,5.92,0,6.4-.36,7-5.44A7.918,7.918,0,0,1,140.52,8c-.08,1.96-.32,3.12-.72,3.52-.44.4-1.28.52-3.8.52-2.08,0-2.48-.2-2.48-1.2ZM121.64,5.2a38.98,38.98,0,0,1,4.96,7.76l2.44-2a51.229,51.229,0,0,0-5-7.6Zm4.44,16.04a51.427,51.427,0,0,1-3.28,8.44A17.282,17.282,0,0,1,120.72,33l2.64,2.48c.36-.84.56-1.24.96-2.12a71.963,71.963,0,0,0,4.08-10.08Zm37.68-2.52h-.56a7.205,7.205,0,0,1-1.68-.12l.32,3.08a45.184,45.184,0,0,1,5.72-.6V33.56a25.551,25.551,0,0,1-.24,4.48h3.16a29.882,29.882,0,0,1-.2-4.48V20.84c1.36-.16,1.84-.2,2.84-.36.12.56.2.76.32,1.44l2.24-1.08A40.331,40.331,0,0,0,173.04,14l-2.08.84a25.072,25.072,0,0,1,1.4,3.32c-1.28.16-2.24.24-5.28.44a93.116,93.116,0,0,0,6.72-9.52A20.636,20.636,0,0,1,175,7.2l-2.72-1.44c-.56,1.6-1.44,3.24-3.92,7.04-.6-.88-.84-1.2-1.88-2.52,1.2-1.84,1.8-2.92,3.56-6.2.52-1,.52-1,.76-1.44L168,1.36a25.19,25.19,0,0,1-3.2,6.92c-.52-.6-.8-.88-1.52-1.72l-1.52,2.32a49.258,49.258,0,0,1,5.04,6.24c-.96,1.4-.96,1.4-2.64,3.6ZM185.08,5.56h-6.04c-1.76,0-2.88-.04-3.68-.12a12.21,12.21,0,0,1,.16,2.4v2.48a18.157,18.157,0,0,1-.16,2.6h2.96V8.12h16.84v3.2c-.68.04-1.04.04-1.76.04h-6.72a19.69,19.69,0,0,1-3.16-.2v2.92a17.2,17.2,0,0,1,3.12-.2h2.12a23.174,23.174,0,0,1-1.2,4.2h-.48c-1.64,0-2.48-.04-3.56-.12a30.687,30.687,0,0,1,.16,3.64V34.28a25.491,25.491,0,0,1-.2,3.68h2.84V36.04h7.84V38h2.92a26.213,26.213,0,0,1-.24-3.76V21.68a30.872,30.872,0,0,1,.16-3.72c-1,.08-2.08.12-3.68.12h-2.96a34.863,34.863,0,0,0,1.2-4.2h1.96a17.743,17.743,0,0,1,3.12.2V11.56h1.48A16.7,16.7,0,0,1,198,9.32V7.72a20.121,20.121,0,0,1,.12-2.36,26.7,26.7,0,0,1-4.12.2h-6v-.8a12.917,12.917,0,0,1,.24-3.08h-3.36a15.5,15.5,0,0,1,.2,3.04Zm1.24,15.04h7.84v4.96h-7.84Zm0,7.44h7.84v5.44h-7.84Zm-23.04-4.68a39.083,39.083,0,0,1-1.88,11l2.44,1.16c1-3.28,1.4-5.8,1.92-11.72Zm8.44.72a57.906,57.906,0,0,1,1.44,9.36l2.4-.72a74.115,74.115,0,0,0-1.64-9.24Zm6.28,9.4a31.93,31.93,0,0,1-.2,4.48h3.04a40.442,40.442,0,0,1-.16-4.72V17.36a59.071,59.071,0,0,0,2.44-6.88l-2.76-.84a29.992,29.992,0,0,1-2.4,7.36,21.941,21.941,0,0,1-3.28,5.2,11.868,11.868,0,0,1,1.56,2.4,18.361,18.361,0,0,0,2-3.16A36.1,36.1,0,0,0,178,26.2ZM209,3.56a21.011,21.011,0,0,1,.12,2.24c0,.6,0,1.52-.04,2.68-.28,12.56-.32,13.8-.32,16.24a20.423,20.423,0,0,0,.56,5.28,8.407,8.407,0,0,0,2.96,4.28A11.843,11.843,0,0,0,218.96,36a14.4,14.4,0,0,0,11.36-5c1.8-2.08,2.96-4.52,4.52-9.4a12.675,12.675,0,0,1-3.4-2.28,22.4,22.4,0,0,1-1.96,6.4c-2.12,4.48-5.8,6.96-10.28,6.96-2.76,0-4.8-.84-5.84-2.36-.84-1.32-1.12-2.84-1.12-6.48,0-2.68.24-12.36.4-15.28a32.166,32.166,0,0,1,.44-4.96Zm35.2,9.16h1c1.08.04,2.16.08,2.48.08,1.32,0,2.8-.04,3.32-.04-1.56,8.12-4.48,16.76-7.4,21.92l3.52,1.48a112.219,112.219,0,0,0,4.56-12.52A112.843,112.843,0,0,0,254.4,12.6a59.682,59.682,0,0,0,6.68-.92c.84-.16.84-.16,1.16-.2l-.16-3.28a33.9,33.9,0,0,1-7.12,1.32c.2-1.04.28-1.48.52-2.84a37.809,37.809,0,0,1,.72-3.8l-3.76-.4V3a47.712,47.712,0,0,1-.88,6.72c-1.08.04-1.56.04-2.2.04a28.758,28.758,0,0,1-5.12-.36Zm30.64,1.68c-2.92-.12-3.48-.12-4.24-.12a47.126,47.126,0,0,0-10.96,1.32l.32,3.2a37.041,37.041,0,0,1,10.12-1.32,33.73,33.73,0,0,1,4.8.32Zm-14.88,8.56c-2.12,2.84-2.76,4.24-2.76,6.08,0,4.08,3.52,6.2,10.2,6.2a42.678,42.678,0,0,0,7.2-.68c1.36-.24,1.36-.24,1.84-.32l-.32-3.56a28.877,28.877,0,0,1-8.88,1.44c-4.32,0-6.72-1.24-6.72-3.44a5.5,5.5,0,0,1,.52-2.16,9.5,9.5,0,0,1,1.68-2.28Zm21.76,6a39.622,39.622,0,0,1,8.12,8.84l2.72-2.6a43.425,43.425,0,0,0-8.32-8.56ZM29.6,84.4v2.4h3.84a25.636,25.636,0,0,1-.2-3.96V62.08c0-1.52,0-2.2.08-3.16-1,.04-1.6.08-2.08.08H11.84a25,25,0,0,1-4.96-.28v3.8a37.507,37.507,0,0,1,4.92-.2H29.64V81.08H11a22.975,22.975,0,0,1-4.72-.28v3.76a40.515,40.515,0,0,1,4.68-.16ZM45.84,61a44.412,44.412,0,0,1,9.76,7.92l2.44-3a55.344,55.344,0,0,0-9.84-7.6Zm.6,26.12a21.614,21.614,0,0,1,2.48-.64c6.44-1.44,10.92-3.2,15-6,5.36-3.64,9.08-8.28,12.36-15.4a10.17,10.17,0,0,1-2.96-2.76c-3.28,8.6-8.56,14.4-16.2,17.8a36.456,36.456,0,0,1-11.72,3ZM90,57.64A46.956,46.956,0,0,1,87,72.6,28.854,28.854,0,0,1,79.84,84a10.907,10.907,0,0,1,3.12,2.48c5.72-6.28,8.76-13.64,10.48-25.28a15.992,15.992,0,0,1,.52-2.84Zm11.6.72a15.429,15.429,0,0,1,.52,2.72,60.829,60.829,0,0,0,4.08,14.68,39.12,39.12,0,0,0,6.72,10.8,11.288,11.288,0,0,1,3.04-2.68c-4.2-4.2-7.08-9.52-9.08-16.72a49.985,49.985,0,0,1-1.76-9.52Zm11.28-3.6a4.56,4.56,0,1,0,4.56,4.56A4.558,4.558,0,0,0,112.88,54.76Zm0,1.76a2.8,2.8,0,1,1-2.8,2.8A2.835,2.835,0,0,1,112.88,56.52Zm20.6-2.2a16.934,16.934,0,0,1-2.4,5.68,30.464,30.464,0,0,1-10.12,11.16,7.343,7.343,0,0,1,2.72,2.44,40.129,40.129,0,0,0,9.48-10.32l13.08-.2a35.291,35.291,0,0,1-6.84,13.04,33.536,33.536,0,0,1-14,9.84,8.057,8.057,0,0,1,2.4,2.92,39.354,39.354,0,0,0,14-10.04,41.56,41.56,0,0,0,8.04-15.16,5.9,5.9,0,0,1,.88-2.08l-1.96-1.92a5.655,5.655,0,0,1-2.32.32c-1.2.04-4.6.08-10.2.16h-.48a3.828,3.828,0,0,0-1,.12,36.142,36.142,0,0,0,1.76-3.48,5.327,5.327,0,0,1,.88-1.56ZM172.32,88.4a35.675,35.675,0,0,1-.2-4.64V73.32a23.7,23.7,0,0,0-.16-3.28,8.234,8.234,0,0,0,1.32.68A84.976,84.976,0,0,1,188,78.56l2-3.48a104.7,104.7,0,0,0-17.88-8.44V59.52a31.873,31.873,0,0,1,.2-4.52h-4.04a22.455,22.455,0,0,1,.24,4.4V83.76a28.232,28.232,0,0,1-.24,4.64Z" transform="translate(-1.76 -1.36)" fill="#1c69d4"/>
</svg>
