<svg xmlns="http://www.w3.org/2000/svg" width="317.96" height="388.225" viewBox="0 0 317.96 388.225">
  <g id="mv-txt-sp" transform="translate(2 13.023)">
    <path id="パス_701" data-name="パス 701" d="M9.04,1.58a12.691,12.691,0,0,1,.08,1.68c0,4.5-1.04,7.88-3.32,10.78A13.482,13.482,0,0,1,.96,17.96a4.406,4.406,0,0,1,1.2,1.44A17.668,17.668,0,0,0,5.7,16.66a13.933,13.933,0,0,0,2.92-4.04,15.584,15.584,0,0,0,1.42-4.34,16.852,16.852,0,0,0,2.62,6.12,18.8,18.8,0,0,0,5.24,5,4.992,4.992,0,0,1,1.2-1.52,15.705,15.705,0,0,1-2.18-1.44,17.883,17.883,0,0,1-2.86-2.92,17.181,17.181,0,0,1-2.76-5.6,24.421,24.421,0,0,1-.5-4.52,14.262,14.262,0,0,1,.12-1.82Zm26.7,2.78a13.38,13.38,0,0,1,2.5.14V2.84a16.361,16.361,0,0,1-2.5.14H26.02c.22-.4.32-.62.52-1.02.18-.38.22-.44.34-.68L25.22.96a4,4,0,0,1-.4,1.2,14.13,14.13,0,0,1-3.78,4.9,2.667,2.667,0,0,1,1.1,1.06,16.114,16.114,0,0,0,3.1-3.76Zm-2,13.16a46.381,46.381,0,0,0-3.84-3.18,19.98,19.98,0,0,0,1.62-1.96c.48-.66.48-.66.8-1.06l-1.54-.82a9.021,9.021,0,0,1-2.06,2.96c-1.48-1.02-2.2-1.48-3.76-2.38l-1.04.96a36.591,36.591,0,0,1,3.76,2.44,19,19,0,0,1-6.04,3.5,4.137,4.137,0,0,1,1.12,1.34,22.033,22.033,0,0,0,6.1-3.96,30.233,30.233,0,0,1,3.78,3.4Zm.78-7.42a20.057,20.057,0,0,0,.8,6.52c.56,1.58,1.54,2.72,2.36,2.72.98,0,1.54-1.26,1.86-4.12a3.827,3.827,0,0,1-1.28-.92c-.1,1.68-.42,3.22-.66,3.22-.22,0-.64-.72-.92-1.52A18.843,18.843,0,0,1,36,10.4a15.893,15.893,0,0,1,.08-1.74,19.918,19.918,0,0,1-2.28.08H24.06a13.842,13.842,0,0,1-1.82-.1v1.58a14.975,14.975,0,0,1,2.12-.12ZM24.76,7.3a11.866,11.866,0,0,1,1.88-.1H34.6a12.95,12.95,0,0,1,2,.1V5.76a14.566,14.566,0,0,1-2,.1H26.42a10.926,10.926,0,0,1-1.66-.08ZM49.9,16.68a3.923,3.923,0,0,1,.86,1.62,13.224,13.224,0,0,0,3.34-1.04,7.38,7.38,0,0,0,4.38-6.92c0-4.22-3.02-7.02-7.56-7.02a8.546,8.546,0,0,0-6.58,2.7,8.325,8.325,0,0,0-2.14,5.6c0,2.92,1.48,5.06,3.5,5.06,1.5,0,2.7-1.2,3.84-3.82a29.07,29.07,0,0,0,2-8,5.279,5.279,0,0,1,2.24.54,5.165,5.165,0,0,1,2.96,4.86,5.874,5.874,0,0,1-3.16,5.34A10.936,10.936,0,0,1,49.9,16.68ZM49.82,4.9a27.309,27.309,0,0,1-1.78,7.2c-.82,1.88-1.58,2.8-2.36,2.8-1.04,0-1.84-1.44-1.84-3.26a6.826,6.826,0,0,1,3.12-5.8A5.657,5.657,0,0,1,49.82,4.9Zm11.76,8.68a5.113,5.113,0,0,0,1.02,2.8c.94,1.22,2.66,1.88,4.92,1.88,3.52,0,5.56-1.68,5.56-4.58a3.557,3.557,0,0,0-1.4-3.04,7.333,7.333,0,0,0-3.22-1.28,15.19,15.19,0,0,1-2.86-.72A2.222,2.222,0,0,1,63.98,6.5c0-1.52,1.36-2.56,3.34-2.56a3.6,3.6,0,0,1,2.84,1.1,3.032,3.032,0,0,1,.66,1.58l2.02-.26a4.8,4.8,0,0,0-.9-2.16,5.441,5.441,0,0,0-4.58-1.9c-3.22,0-5.3,1.68-5.3,4.26a3.506,3.506,0,0,0,1.78,3.18,8.7,8.7,0,0,0,2.8,1.02c2.54.56,2.72.6,3.36.96a2.222,2.222,0,0,1,1.12,2.06c0,1.76-1.38,2.82-3.64,2.82a3.953,3.953,0,0,1-3.24-1.32,3.221,3.221,0,0,1-.6-1.92Zm24.88-11A13.389,13.389,0,0,1,86.62,5v7.24c0,2.84-1.54,4.4-4.36,4.4s-4.38-1.58-4.38-4.4V5a12.7,12.7,0,0,1,.16-2.42h-2.2A13.25,13.25,0,0,1,76,5v7.3c0,3.86,2.22,6,6.22,6a6.477,6.477,0,0,0,4.7-1.64A6.01,6.01,0,0,0,88.5,12.3V4.96a13.049,13.049,0,0,1,.16-2.38Zm7.1,2.06A13.313,13.313,0,0,1,93,2.58H90.58A19.851,19.851,0,0,1,91.6,4.92l4.28,11.16A15.692,15.692,0,0,1,96.52,18h2.36a15.045,15.045,0,0,1,.62-1.92l4.28-11.16a15.051,15.051,0,0,1,1.02-2.34h-2.42a9.558,9.558,0,0,1-.58,2.06L98.18,14.78c-.16.42-.24.66-.48,1.44-.22-.72-.38-1.2-.46-1.44Zm18.5-.28a25.17,25.17,0,0,1-4.3-.24l-.04,1.64a1.9,1.9,0,0,1,.42-.04,3.444,3.444,0,0,1,.4.02c.42.02,2.4.06,2.8.06.08,0,.3-.02.36-.02-.12.22-.12.22-.18.32a19.909,19.909,0,0,1-4.38,5.52l1.32,1.32a7.157,7.157,0,0,1,1.6-1.7,7.32,7.32,0,0,1,4.34-2.1c.9,0,1.36.44,1.48,1.42a15.75,15.75,0,0,0-2.94,1.6c-1.42,1.02-2.12,2.1-2.12,3.24a2.668,2.668,0,0,0,1.36,2.4,8.282,8.282,0,0,0,4.1.78,33.717,33.717,0,0,0,4.98-.38,4.758,4.758,0,0,1,.82-.1l-.18-1.84a16.81,16.81,0,0,1-5.44.8c-2.82,0-3.96-.52-3.96-1.78a2.391,2.391,0,0,1,1.18-1.88,12.271,12.271,0,0,1,2.4-1.32v.62a25.159,25.159,0,0,1-.12,2.66l1.64-.02a5.5,5.5,0,0,1-.04-.82V13.7c.02-.4.02-.82.02-1.04,0-.44,0-.5-.02-1.16a30.781,30.781,0,0,1,5.3-1.7l-.72-1.64a5.62,5.62,0,0,1-1.4.58c-.98.34-1.8.64-3.36,1.24a2.481,2.481,0,0,0-2.7-2.18,5.161,5.161,0,0,0-2.76.82,4.531,4.531,0,0,0-.68.5,2.738,2.738,0,0,0-.28.2.248.248,0,0,1-.04-.06l.04-.04c0-.02.08-.08.2-.16a5.633,5.633,0,0,0,.64-.74,15.039,15.039,0,0,0,1.62-2.54c1.96-.06,4.52-.24,5.9-.42,1.16-.16,1.16-.16,1.54-.2l-.12-1.6a26.45,26.45,0,0,1-5.4.7c-1.12.06-1.12.06-1.26.08a13.062,13.062,0,0,0,.6-1.34,4.313,4.313,0,0,1,.48-1.02l-1.88-.28a8.694,8.694,0,0,1-.9,2.66Zm20.78,3.42a.151.151,0,0,1,.08-.02.918.918,0,0,1,.2.02,3.471,3.471,0,0,1,.36.02c.06,0,.28.02.6.04.72.06,1.46.08,2.26.08.74,0,1.24-.02,2.2-.06.1,3.24.14,4.5.2,4.94a5.625,5.625,0,0,0-2.08-.36c-2.28,0-3.9,1.24-3.9,2.98,0,1.82,1.48,2.96,3.86,2.96,1.72,0,3.02-.62,3.5-1.68a3.351,3.351,0,0,0,.24-1.38,3.1,3.1,0,0,0-.02-.42c.1.06.1.08.18.12a2.323,2.323,0,0,1,.22.14,11.968,11.968,0,0,1,2.08,1.42,5.566,5.566,0,0,1,.6.58l.72-1.7a2.114,2.114,0,0,1-.52-.34,15.832,15.832,0,0,0-3.28-1.92c-.2-3.38-.2-3.62-.22-5.46a27.419,27.419,0,0,0,3.16-.52,2.85,2.85,0,0,1,.32-.06l-.08-1.6a14.734,14.734,0,0,1-3.4.72V5.16a22.018,22.018,0,0,1,.12-2.92h-1.78c.02.2.04.5.04.86.02,1.38.02,1.38.02,3.3-.66.02-1.12.04-1.9.04a16.082,16.082,0,0,1-3.76-.3Zm5.94,6.5v.58a2.237,2.237,0,0,1-.34,1.4,2.619,2.619,0,0,1-1.9.66c-1.3,0-2.18-.6-2.18-1.5,0-.94.94-1.54,2.38-1.54A5.137,5.137,0,0,1,138.78,14.28Zm-9.22,1.08v-.48a3.128,3.128,0,0,0-.02-.5c-.02-.92-.04-1.9-.04-2.36a29.335,29.335,0,0,1,1.56-9.56l-1.9-.26a6.014,6.014,0,0,1-.22,1.34,34.61,34.61,0,0,0-1,8.2,32,32,0,0,0,.56,6.08,3.541,3.541,0,0,1,.1.74l1.74-.14a2.26,2.26,0,0,1-.04-.44,17.288,17.288,0,0,1,1.8-5.8l-1.26-.56c-.06.18-.08.24-.18.48a20.838,20.838,0,0,0-1.04,3.28Zm20.5-12.94a6.764,6.764,0,0,1,.06,1.1l-.02,1.34c-.14,6.28-.16,6.9-.16,8.12a10.274,10.274,0,0,0,.28,2.66,4.069,4.069,0,0,0,1.48,2.12,5.763,5.763,0,0,0,3.34.88,7.217,7.217,0,0,0,5.68-2.52,12.284,12.284,0,0,0,2.26-4.7,5.522,5.522,0,0,1-1.7-1.14,11.554,11.554,0,0,1-.98,3.22,5.582,5.582,0,0,1-5.14,3.46,3.37,3.37,0,0,1-2.92-1.18c-.42-.66-.56-1.42-.56-3.22,0-1.36.12-6.2.2-7.66a18.837,18.837,0,0,1,.22-2.46Zm6.34,1.1a13.959,13.959,0,0,1,2.08,3.16l1.18-.66a15.652,15.652,0,0,0-2.1-3.1Zm2.32-1.08a14.657,14.657,0,0,1,2.06,3.1l1.16-.66a14.924,14.924,0,0,0-2.1-3.04Zm18.94-.32a21.639,21.639,0,0,1-.6,3.18h-.56a9.991,9.991,0,0,0-4.24.92,23.683,23.683,0,0,1-.52-3.4L170,3.16a4.627,4.627,0,0,1,.26,1.08c.18,1,.44,2.28.58,2.8a7.411,7.411,0,0,0-2,2.04,7.179,7.179,0,0,0-1.18,3.88c0,2.44,1.22,4.08,3.02,4.08,1.22,0,2.46-.8,3.78-2.4a23.789,23.789,0,0,0,3.8-7.72c2.56.56,3.94,2.1,3.94,4.4,0,2.26-1.28,3.94-3.76,4.94a9.668,9.668,0,0,1-3.06.74,3.717,3.717,0,0,1,.92,1.62,15.126,15.126,0,0,0,3.06-.9c2.92-1.24,4.54-3.48,4.54-6.3,0-3.06-1.92-5.22-5.24-5.92.08-.32.1-.42.26-1.02a9.278,9.278,0,0,1,.54-2Zm-6.4,6.54a25.168,25.168,0,0,0,1.8,5.16c-.84,1.04-1.62,1.58-2.3,1.58-.92,0-1.54-.98-1.54-2.42A5.652,5.652,0,0,1,171.26,8.66Zm2.88,3.84a3.791,3.791,0,0,0-.12-.36,28.2,28.2,0,0,1-1.44-4.4,7.215,7.215,0,0,1,3.7-.98h.38a23.458,23.458,0,0,1-2.32,5.36,2.55,2.55,0,0,0-.14.24.338.338,0,0,1-.04.1Zm12.66,2.48a19.811,19.811,0,0,1,4.06,4.42l1.36-1.3a21.712,21.712,0,0,0-4.16-4.28Zm28.28-13.7a13.444,13.444,0,0,1-2.76,3.18,19.944,19.944,0,0,1-5.68,3.58,5.547,5.547,0,0,1,.94,1.4,22.97,22.97,0,0,0,4.6-2.82A19.955,19.955,0,0,0,216,2.68a17.127,17.127,0,0,0,3.8,3.9,26.991,26.991,0,0,0,4.84,2.94,4.927,4.927,0,0,1,.92-1.54,18.764,18.764,0,0,1-4.66-2.56,14.86,14.86,0,0,1-4.04-4.14Zm-3.34,7.54a13.083,13.083,0,0,1,1.68-.08h5.24a15.263,15.263,0,0,1,1.78.08V7.22a12.975,12.975,0,0,1-1.72.08h-5.36a11.172,11.172,0,0,1-1.62-.08Zm10.78,2.16a12.328,12.328,0,0,1-2.18.1h-8.96a22.283,22.283,0,0,1-2.38-.12v1.7c.86-.08,1.58-.12,2.36-.12h9.66l-3.74,4.54a11.178,11.178,0,0,1-1.6,1.62l1.7.96c.4-.6.78-1.1,1.32-1.78L222.64,13c.22-.28.64-.74.84-.94Zm14.74-6.5c-2.24.06-3.12.08-4.82.14-3.02.12-3.14.12-3.68.12-.3,0-.46,0-.86-.02l.06,1.72c1.24-.2,5.9-.46,9.32-.52,0,1.1.02,2.14.04,2.32v.14a3.012,3.012,0,0,0-2.22-.8,3.45,3.45,0,0,0-3.7,3.4,3.455,3.455,0,0,0,5.92,2.22,3.183,3.183,0,0,0,.54-.88,4.487,4.487,0,0,1-.58,2.02c-.86,1.56-2.4,2.54-4.98,3.24a5.151,5.151,0,0,1,1.02,1.54,12.905,12.905,0,0,0,3.3-1.62,6.291,6.291,0,0,0,2.74-5.28,5.794,5.794,0,0,0-.5-2.48V5.9c1.6-.02,1.94-.02,2.22-.02a34.709,34.709,0,0,1,3.68.1V4.3c-.66.08-2.18.12-5.92.14a17.151,17.151,0,0,1,.1-2.62h-1.8a8.969,8.969,0,0,1,.1,1.16Zm-2.02,4.44a2.262,2.262,0,0,1,1.58.58,1.345,1.345,0,0,1,.4,1.06,2.116,2.116,0,0,1-2.22,2.2,1.843,1.843,0,0,1-1.96-1.9A2.037,2.037,0,0,1,235.24,8.92Zm22.62-7.2a31.3,31.3,0,0,1-5.92,5.5,15.994,15.994,0,0,0-1.72,1.38,2.147,2.147,0,0,0-.6,1.42c0,.76.34,1.22,1.5,2.14a65.524,65.524,0,0,1,5.1,4.2,18.772,18.772,0,0,1,2.58,2.74l1.5-1.48a5.29,5.29,0,0,1-.58-.5,58.207,58.207,0,0,0-6.38-5.4c-1.66-1.26-1.78-1.38-1.78-1.72,0-.26.16-.42.84-.96,2.38-1.82,3.68-2.88,4.66-3.8,1.94-1.84,2.18-2.08,2.46-2.28Zm2.78,3.76a14.658,14.658,0,0,1,2.06,3.1l1.16-.66a14.924,14.924,0,0,0-2.1-3.04Zm-2.32,1.08a13.959,13.959,0,0,1,2.08,3.16l1.18-.66a15.652,15.652,0,0,0-2.1-3.1Zm12.06,8.82c0-.34-.02-.42-.02-.86-.02-.54-.04-1.5-.04-1.9a37.06,37.06,0,0,1,.46-6.12,24.313,24.313,0,0,1,1-3.98l-1.9-.26a12.275,12.275,0,0,1-.28,1.7,34.327,34.327,0,0,0-.88,7.92,30.2,30.2,0,0,0,.52,5.7c.06.4.08.52.12.84l1.74-.12a2.983,2.983,0,0,1-.02-.38,16.242,16.242,0,0,1,1.68-5.64l-1.2-.56a17.356,17.356,0,0,0-1.16,3.66Zm3.78-9.14c.16.02.2.02.32.04a2.469,2.469,0,0,0,.36.04,24.058,24.058,0,0,0,2.68.14,34.555,34.555,0,0,0,4.26-.26q1.29-.18,1.38-.18l-.1-1.7a22.15,22.15,0,0,1-5.48.54,13.818,13.818,0,0,1-3.38-.3Zm1.44,3.74a5.844,5.844,0,0,0-1.78,3.78,3.226,3.226,0,0,0,.6,1.92c.84,1.08,2.34,1.58,4.7,1.58a22.886,22.886,0,0,0,4.12-.38c.42-.08.46-.08.72-.12l-.18-1.82a13.864,13.864,0,0,1-4.66.7c-2.42,0-3.66-.68-3.66-2.04a4.537,4.537,0,0,1,1.5-2.94Zm15.26-3.42V8.6h-1.44a15.036,15.036,0,0,1-2.06-.12v1.54a14.244,14.244,0,0,1,2.06-.12h1.44v2.28h-.74a17.662,17.662,0,0,1-1.96-.1v1.44a16.208,16.208,0,0,1,2.08-.12h4.22a12.954,12.954,0,0,1-2.7,2.16,18.723,18.723,0,0,1-4.86,2.08,5.3,5.3,0,0,1,.92,1.4,16.969,16.969,0,0,0,7.6-4.84c-.04.52-.06,1.02-.08,1.46v1.88a12.42,12.42,0,0,1-.14,2.14h1.74a10.34,10.34,0,0,1-.14-2.14V15.66c0-.38-.02-.7-.08-1.48a17.292,17.292,0,0,0,7.94,4.86,7.44,7.44,0,0,1,.88-1.54,16.74,16.74,0,0,1-4.58-1.68,14.684,14.684,0,0,1-3.3-2.42h4.64a15.351,15.351,0,0,1,2.08.12V12.08a17.663,17.663,0,0,1-1.96.1h-.96V9.9h1.56a12.1,12.1,0,0,1,2.08.12V8.48a15.145,15.145,0,0,1-2.08.12h-1.56V6.56h.94a19.107,19.107,0,0,1,1.96.1V5.22a14.944,14.944,0,0,1-2.08.12H296.8V3.42c2.14-.2,3.72-.44,5.64-.8.38-.08.46-.1.76-.14L302.18,1.1a12.4,12.4,0,0,1-2.9.68,66.324,66.324,0,0,1-9.78.72h-.72a5.358,5.358,0,0,1,.58,1.36c2.02-.04,2.02-.04,5.98-.32v1.8h-5.12a15.146,15.146,0,0,1-2.08-.12V6.66a14.729,14.729,0,0,1,1.96-.1Zm1.44,0h3.04V8.6H292.3Zm0,3.34h3.04v2.28H292.3Zm7.72,2.28H296.8V9.9h3.22Zm0-3.58H296.8V6.56h3.22ZM2.12,45.68a5.207,5.207,0,0,1,.5-.64c.34-.38.6-.68.82-.9.56-.62.56-.62.9-1.04a3.306,3.306,0,0,0,.38-.5l.04.02a8.155,8.155,0,0,0-.08,1.22c0,4.22,0,4.26-.14,5.1H6.4c-.06-.62-.08-2.14-.08-5.6,0-.46,0-1,.02-2.02,2.9-2.98,5.34-4.68,6.66-4.68a.918.918,0,0,1,1.02,1.02,14.453,14.453,0,0,1-.46,2.78c-.76,3.52-.8,3.8-.8,4.82a2.6,2.6,0,0,0,.98,2.34,2.625,2.625,0,0,0,1.52.44,3.594,3.594,0,0,0,2.78-1.44,9.7,9.7,0,0,0,1.28-1.98,7.868,7.868,0,0,1-1.06-1.64,8.7,8.7,0,0,1-1.14,2.28,2.261,2.261,0,0,1-1.58,1.08c-.72,0-1.1-.46-1.1-1.28a14.227,14.227,0,0,1,.42-2.74c.86-3.86.9-4.06.9-4.92a2.3,2.3,0,0,0-2.46-2.42c-1.2,0-2.62.66-4.44,2.1a13.65,13.65,0,0,0-2.52,2.28l-.04-.02a11.808,11.808,0,0,0,.06-1.22c0-.06.02-.22.02-.46,0-.1.02-.24.02-.44a6.054,6.054,0,0,1,1.04-1.24l-.58-.7a1.214,1.214,0,0,1-.36.1,25.612,25.612,0,0,1,.24-3.46L4.9,31.88c.02.38.04.6.04.86,0,.44-.02,1.36-.06,2.78-1.4.1-2.26.14-2.56.14a4.36,4.36,0,0,1-.68-.04l.08,1.64a25.217,25.217,0,0,1,3.12-.28c-.04,1.14-.04,1.14-.06,1.72-.02.94-.04,1.56-.04,1.86-.42.44-1.54,1.58-2.3,2.32A7.639,7.639,0,0,1,1.2,43.94Zm22.7-11a9.961,9.961,0,0,1,1.06-.1c2.92-.12,5.18-.24,5.92-.36a.44.44,0,0,0,.16-.02l.02.04-.22.22-.16.16a65.062,65.062,0,0,1-9.3,7.7l1.02,1.52a12.7,12.7,0,0,1,8.4-3.4c2.62,0,4.2,1.1,4.2,2.94a3.058,3.058,0,0,1-1.36,2.56,4.815,4.815,0,0,1-1.64.76,5.608,5.608,0,0,0-.9-1.9,4.1,4.1,0,0,0-3.34-1.64c-1.76,0-3.06,1.06-3.06,2.48a2.729,2.729,0,0,0,.6,1.68c.74.86,2.1,1.3,4.06,1.3,4.42,0,7.36-2.12,7.36-5.28,0-2.6-2.16-4.28-5.52-4.28a9.786,9.786,0,0,0-4.7,1.16l-.04-.08a48.038,48.038,0,0,0,6.46-5.46,3.612,3.612,0,0,1,1.02-.84l-.96-1.3a2.025,2.025,0,0,1-1.04.24c-1.78.14-4.42.26-6.1.26a10.585,10.585,0,0,1-2.02-.12ZM31.36,47.1a6.967,6.967,0,0,1-1.32.12c-1.74,0-2.84-.6-2.84-1.54,0-.7.58-1.14,1.48-1.14C30.04,44.54,30.94,45.42,31.36,47.1Zm12.8-14.52c-1.18,0-1.7-.02-2.28-.04a12.726,12.726,0,0,1,.16,2.22V45.52a12.641,12.641,0,0,1-.18,2.52c.74-.04,1.3-.04,2.3-.04h4.62c3.14,0,4.92-1.54,4.92-4.26a3.886,3.886,0,0,0-1.22-3.02,3.5,3.5,0,0,0-1.96-.86,3.661,3.661,0,0,0,1.56-.82,3.452,3.452,0,0,0,1.08-2.7c0-2.42-1.66-3.76-4.6-3.76ZM43.9,39.1V34.2h4.54c1.86,0,2.82.8,2.82,2.34,0,1.64-1.02,2.56-2.8,2.56Zm0,1.6h4.62c2.14,0,3.24.98,3.24,2.86,0,1.84-1.12,2.82-3.18,2.82H43.9Zm26.74,4.78A17.166,17.166,0,0,1,70.48,48h2.1a13.9,13.9,0,0,1-.16-2.52V35.12a15.331,15.331,0,0,1,.16-2.54h-2.7a9.362,9.362,0,0,1-.68,2.1l-4.68,10.7-4.68-10.7a12.154,12.154,0,0,1-.68-2.1h-2.7a15.332,15.332,0,0,1,.16,2.54V45.48A14.624,14.624,0,0,1,56.46,48h2.1a14.188,14.188,0,0,1-.16-2.52V38.44c0-.6-.06-2.24-.14-3.7a26.634,26.634,0,0,0,1.32,3.52l3.3,7.48A9.5,9.5,0,0,1,63.66,48h1.68a11.761,11.761,0,0,1,.8-2.24l3.4-7.62a18.865,18.865,0,0,0,1.24-3.38c-.06.9-.14,2.82-.14,3.54ZM83.6,32.58a12.23,12.23,0,0,1-.44,1.98l-2.58,8.58c-.1.3-.42,1.66-.56,2.4-.2-1.04-.42-2.08-.52-2.46l-2.22-8.4a10.685,10.685,0,0,1-.38-2.1H74.54a14.7,14.7,0,0,1,.8,2.3l3.18,11.1A18.778,18.778,0,0,1,79.06,48h1.86a15.441,15.441,0,0,1,.5-1.96l2.48-8.3c.16-.54.38-1.38.6-2.38a22.953,22.953,0,0,0,.58,2.38l2.5,8.3a15.7,15.7,0,0,1,.5,1.96h1.88c.08-.42.08-.42.52-2.02l3.18-11.1a15.816,15.816,0,0,1,.78-2.3H92.1a10.734,10.734,0,0,1-.36,2.1l-2.22,8.38c-.06.2-.24,1.02-.52,2.48-.34-1.5-.5-2.18-.6-2.52l-2.56-8.46a15.793,15.793,0,0,1-.46-1.98Zm20.82,14.1a3.923,3.923,0,0,1,.86,1.62,13.224,13.224,0,0,0,3.34-1.04A7.38,7.38,0,0,0,113,40.34c0-4.22-3.02-7.02-7.56-7.02a8.546,8.546,0,0,0-6.58,2.7,8.325,8.325,0,0,0-2.14,5.6c0,2.92,1.48,5.06,3.5,5.06,1.5,0,2.7-1.2,3.84-3.82a29.07,29.07,0,0,0,2-8,5.279,5.279,0,0,1,2.24.54,5.165,5.165,0,0,1,2.96,4.86,5.874,5.874,0,0,1-3.16,5.34A10.936,10.936,0,0,1,104.42,46.68Zm-.08-11.78a27.309,27.309,0,0,1-1.78,7.2c-.82,1.88-1.58,2.8-2.36,2.8-1.04,0-1.84-1.44-1.84-3.26a6.826,6.826,0,0,1,3.12-5.8A5.657,5.657,0,0,1,104.34,34.9Zm23.28,2.66v-3.2a24.754,24.754,0,0,0,5.66-1.44,7.513,7.513,0,0,1,.72-.26l-1.22-1.36a6.057,6.057,0,0,1-1.8.84,18.609,18.609,0,0,1-4.82.92H126a20.925,20.925,0,0,1,.12,2.7c0,4.78-.2,7.42-.66,9.18a9.631,9.631,0,0,1-1.82,3.68,6.138,6.138,0,0,1,1.36.98c1.8-2.48,2.56-5.54,2.6-10.64h2.84V47.5a13.732,13.732,0,0,1-.12,2.1h1.76a10.906,10.906,0,0,1-.12-2.1V38.96h.66a10.138,10.138,0,0,1,1.74.1V37.44a10.452,10.452,0,0,1-1.84.12Zm-7.54,1.62c.02.22.04.32.04.48v1.52H117.8a7.98,7.98,0,0,1-1.74-.12V42.6a9.63,9.63,0,0,1,1.7-.1h1.82a8.922,8.922,0,0,1-1.36,1.94,11.81,11.81,0,0,1-2.52,2.12,5.145,5.145,0,0,1,.82,1.38,11.549,11.549,0,0,0,3.68-4.24c-.06.68-.08,1.12-.08,1.58v2.6a10.338,10.338,0,0,1-.12,1.68h1.64a10.952,10.952,0,0,1-.1-1.7V45.22c0-.5-.02-.76-.08-1.7a9.349,9.349,0,0,0,2.34,2.58,6.592,6.592,0,0,1,.78-1.3,8.379,8.379,0,0,1-2.6-2.3h1.56a9.518,9.518,0,0,1,1.68.1V41.06a8.256,8.256,0,0,1-1.68.12h-2V39.66a4.747,4.747,0,0,1,.02-.48h2.06a10.492,10.492,0,0,1,1.7.1V37.72a9.63,9.63,0,0,1-1.7.1h-1a18.807,18.807,0,0,0,1.32-2.76l-1.42-.44a10.832,10.832,0,0,1-1.28,3.2h-3.5a9.493,9.493,0,0,1-1.7-.1v1.56a9.769,9.769,0,0,1,1.7-.1Zm1.54-6.06v-.48a6.575,6.575,0,0,1,.1-1.4H120a7.263,7.263,0,0,1,.1,1.42v.46h-1.86a9.8,9.8,0,0,1-1.8-.1v1.56a10.541,10.541,0,0,1,1.76-.1h5.12a10.987,10.987,0,0,1,1.76.1V33.02a9.858,9.858,0,0,1-1.74.1Zm-1.7,4.14a11.987,11.987,0,0,0-1.06-2.62l-1.28.44a10.662,10.662,0,0,1,1.06,2.62Zm24.42-3.9h-5.62a11.918,11.918,0,0,1-2.1-.14v1.6a15.242,15.242,0,0,1,2.06-.12h5.66v1.58h-3.8a14.3,14.3,0,0,1-2.22-.1,18.916,18.916,0,0,1,.08,2.12v3.24a18.338,18.338,0,0,1-.08,2.08,15.38,15.38,0,0,1,2.3-.1h3.72v1.62h-5.78a11.057,11.057,0,0,1-2.1-.14v1.62a14.975,14.975,0,0,1,2.12-.12h5.76v.84a13.727,13.727,0,0,1-.14,2.24h1.78a12.943,12.943,0,0,1-.14-2.24V46.5h6.08a16.318,16.318,0,0,1,2.14.12V45a10.75,10.75,0,0,1-2.12.14h-6.1V43.52h4.06a15.233,15.233,0,0,1,2.28.1,17.455,17.455,0,0,1-.08-2.08V38.26a17.673,17.673,0,0,1,.08-2.08,14.919,14.919,0,0,1-2.26.1h-4.08V34.7h5.92a16.537,16.537,0,0,1,2.1.12v-1.6a11.02,11.02,0,0,1-2.12.14h-5.9v-.22a10.362,10.362,0,0,1,.14-1.86H144.2a10.216,10.216,0,0,1,.14,1.86Zm0,4.2v1.7H139.9v-1.7Zm0,2.96v1.72H139.9V40.52Zm1.5,1.72V40.52h4.76v1.72Zm0-2.98v-1.7h4.76v1.7Zm11.24-.64a37.867,37.867,0,0,1,3.88-.7,31.193,31.193,0,0,1-2.12,6.16,20.405,20.405,0,0,1-2.08,3.66l1.64.94,1.3-2.52a37.632,37.632,0,0,0,2.94-8.38A12.162,12.162,0,0,1,164,37.7c1.78,0,2.34.64,2.34,2.68a15.269,15.269,0,0,1-.82,5.48,1.2,1.2,0,0,1-1.1.88,7.741,7.741,0,0,1-2.94-.88,5.879,5.879,0,0,1,.1,1.1c0,.24-.02.36-.04.7a7.976,7.976,0,0,0,3.02.72,2.211,2.211,0,0,0,2.04-.92c.86-1.14,1.4-3.82,1.4-7,0-1.7-.28-2.62-.96-3.32a3.858,3.858,0,0,0-2.88-.88c-.44,0-.74,0-1.22.04.1-.46.32-1.74.42-2.26a14.131,14.131,0,0,1,.36-1.86l-1.88-.22v.28a28.044,28.044,0,0,1-.56,4.2,41.163,41.163,0,0,1-4.4.48Zm11.66-2.8a16.668,16.668,0,0,1,4.02,7.4l1.56-.86a18.272,18.272,0,0,0-4.16-7.28Zm3.42-4.56a14.658,14.658,0,0,1,2.06,3.1l1.16-.66a14.924,14.924,0,0,0-2.1-3.04Zm-2.32,1.08a13.959,13.959,0,0,1,2.08,3.16l1.18-.66a15.652,15.652,0,0,0-2.1-3.1Zm15.96,9.32a3.667,3.667,0,0,1,.96,1.08,7.827,7.827,0,0,0,2.32-3.1,17.558,17.558,0,0,1,1.5,1.94l.84-1.08a17.838,17.838,0,0,0-1.88-2.18,14.437,14.437,0,0,0,.46-3.3h1.54a19.5,19.5,0,0,0,.6,5.66c.4,1.34.98,2.08,1.66,2.08.78,0,1.18-.86,1.54-3.32a3.212,3.212,0,0,1-1.06-.7c-.12,1.68-.28,2.48-.46,2.48-.16,0-.38-.5-.56-1.38a26.561,26.561,0,0,1-.36-4.78,9.044,9.044,0,0,1,.08-1.36,10.389,10.389,0,0,1-1.58.08h-1.34c.02-.7.02-.7.04-1.34a5.372,5.372,0,0,1,.08-1.1h-1.56a10.2,10.2,0,0,1,.12,1.88c0,.16,0,.28-.02.56h-.88a8.549,8.549,0,0,1-1.36-.08v1.38c.46-.04.84-.06,1.36-.06h.84a15.358,15.358,0,0,1-.24,2.28c-.36-.32-.5-.46-1.12-.98l-.74.98c.76.62,1.02.84,1.5,1.3a5.66,5.66,0,0,1-2.28,3v-.96c-1.54.2-2.2.28-3.42.4v-1.2h1.3a11.982,11.982,0,0,1,1.24.06V38.7a7.032,7.032,0,0,1-1.22.08h-1.32v-.12a8.278,8.278,0,0,1,.08-1.34h-1.48a7.749,7.749,0,0,1,.08,1.3v.16h-1.34a6.179,6.179,0,0,1-1.24-.08v1.22a7.589,7.589,0,0,1,1.24-.08h1.34v1.32c-1.18.08-2.6.16-3.32.16-.18,0-.32,0-.58-.02l.2,1.32c.38-.06.7-.1.98-.12,2.26-.14,4.84-.42,7.46-.8Zm-4.78-8.98h-1.74a9.507,9.507,0,0,1-1.44-.08v1.22c.5-.04.86-.06,1.44-.06h1.74V34.9h-2.48a10.951,10.951,0,0,1-1.56-.08v1.26a13.951,13.951,0,0,1,1.54-.08h1.12a2.017,2.017,0,0,1-.66.92,5.335,5.335,0,0,1-2.26.96,2.666,2.666,0,0,1,.66,1.08,6.308,6.308,0,0,0,2.56-1.38A3.448,3.448,0,0,0,180.9,36h1.7v1.24c0,.72.24.84,1.58.84,1.82,0,2.02-.12,2.14-1.32a3.366,3.366,0,0,1-1.04-.36c-.02.78-.04.8-.84.8-.58,0-.66-.04-.66-.3V36h.94a10.505,10.505,0,0,1,1.48.06V34.84a15.12,15.12,0,0,1-1.52.06h-2.3V33.76h1.64c.62,0,.98.02,1.46.06V32.6a9.92,9.92,0,0,1-1.48.08h-1.62v-.14a6.408,6.408,0,0,1,.1-1.22h-1.56a8.839,8.839,0,0,1,.1,1.22Zm10.04,12.34a8.289,8.289,0,0,1-.44,2.6c-.14.3-.36.38-1.1.38a18.255,18.255,0,0,1-2.8-.24,3.323,3.323,0,0,1,.5,1.48c.82.06,1.56.1,2.18.1,1.4,0,2-.16,2.36-.64.42-.56.68-1.78.84-4.02a8.729,8.729,0,0,1,.12-.98,19.555,19.555,0,0,1-2.14.08h-4.8c.04-.24.06-.36.08-.54a5.039,5.039,0,0,1,.14-.84l-1.66-.04a4.565,4.565,0,0,1,.04.54,4.941,4.941,0,0,1-.08.88h-4.02a16.646,16.646,0,0,1-2.04-.1v1.44a13.4,13.4,0,0,1,2.02-.1h3.56c-1,1.72-3.12,2.74-6.66,3.18a3.3,3.3,0,0,1,.82,1.36,15.247,15.247,0,0,0,4.08-1.24,6.4,6.4,0,0,0,3.34-3.3Zm9.46-10.4a12.23,12.23,0,0,1,1.24-.08,48,48,0,0,0,6.06-.48c-.26.24-.32.3-.74.68a38.722,38.722,0,0,1-6.22,4.82,24.8,24.8,0,0,1-3.5.4h-.22l.18,1.76a54.621,54.621,0,0,1,5.64-.84c2.28-.28,2.86-.36,4.18-.58-2.6,1.1-3.96,2.68-3.96,4.56a3.129,3.129,0,0,0,1.3,2.56,8.741,8.741,0,0,0,5.04,1.24l1.48.02-.08-1.82a6.9,6.9,0,0,1-1.52.14,7.155,7.155,0,0,1-3.62-.78,1.928,1.928,0,0,1-.94-1.64,2.373,2.373,0,0,1,.62-1.58,6.545,6.545,0,0,1,2.42-1.82,13.346,13.346,0,0,1,5.54-1.08l.46.02-.14-1.68a4.146,4.146,0,0,1-.6.1c-.34.02-.9.08-1.72.14l-3.28.3c-2.8.22-3.88.34-4.8.5a42.529,42.529,0,0,0,6.22-4.88,6.854,6.854,0,0,1,1.04-.88l-.98-1.24a3.993,3.993,0,0,1-1.2.26c-1.48.16-4.3.28-6.2.28a11.967,11.967,0,0,1-1.82-.1Zm9.82.16a14.351,14.351,0,0,1,1.94,3l1.12-.64a13.892,13.892,0,0,0-1.96-2.94Zm2.2-1.22a13.687,13.687,0,0,1,2.08,3.04l1.12-.64a14.964,14.964,0,0,0-2.1-3Zm7.4,1.24a10.674,10.674,0,0,1,1.5-.12,48.8,48.8,0,0,0,5.74-.38l.02.02c-.06.06-.26.26-.36.38-1.4,1.52-4.26,4.24-6.44,6.1a17.6,17.6,0,0,1-2.6,1.94l1.14,1.5a9.5,9.5,0,0,1,1.6-1.28,11.629,11.629,0,0,1,6.32-2.14c2.38,0,3.84,1,3.84,2.64,0,1.98-2.06,3.32-5.08,3.32a12,12,0,0,1-5.1-1.18,7.826,7.826,0,0,1,.18,1.5v.4a14.835,14.835,0,0,0,4.78.88,10.282,10.282,0,0,0,4.34-.86,4.516,4.516,0,0,0,2.68-4.08c0-2.48-2.04-4.04-5.26-4.04a8.389,8.389,0,0,0-4.7,1.4l-.06-.06a26.945,26.945,0,0,0,3.56-3.02l2.24-2.22c.64-.62.98-.94,1-.98a3.338,3.338,0,0,1,.56-.44l-.96-1.36a2.219,2.219,0,0,1-.9.2c-1.3.14-3.9.26-5.6.26a12.369,12.369,0,0,1-2.52-.14Zm18.16-1.1c.04.38.04.46.06,1.2.1,5,.38,7.46,1.06,9.46.68,2.02,1.8,3.22,3.02,3.22,1.52,0,2.46-1.38,3.48-5.02a6.9,6.9,0,0,1-1.4-1.34,14.562,14.562,0,0,1-1.04,3.48c-.28.64-.62.96-.96.96-.72,0-1.48-1.34-1.9-3.4a35.032,35.032,0,0,1-.48-6.02,16.655,16.655,0,0,1,.14-2.52Zm10.12,1.76a17.944,17.944,0,0,1,4.14,10.1l1.72-.68a18.913,18.913,0,0,0-4.4-10.14Zm11.64,7.7a3.11,3.11,0,1,0,3.1,3.1A3.12,3.12,0,0,0,259.86,43.16Zm0,1.28a1.82,1.82,0,1,1-1.82,1.82A1.81,1.81,0,0,1,259.86,44.44ZM5,64.7H2.9a13.106,13.106,0,0,1-1.88-.12v1.58a11.224,11.224,0,0,1,1.8-.1H6.86A19,19,0,0,1,5.94,71C4.56,69.36,4,68.72,2.82,67.52l-1.08,1A36.534,36.534,0,0,1,5.3,72.5,14.533,14.533,0,0,1,.82,77.8a4.134,4.134,0,0,1,1.14,1.22,16.887,16.887,0,0,0,4.3-5.24,32.272,32.272,0,0,1,2.42,3.78l1.18-1.18A45.32,45.32,0,0,0,6.98,72.3,19.638,19.638,0,0,0,8.4,66.06a13.119,13.119,0,0,1,1.74.08V64.58a12.431,12.431,0,0,1-1.86.12H6.5V63.42a14,14,0,0,1,.12-1.98H4.88A9.525,9.525,0,0,1,5,63.42Zm10.24,2.56V77.3c0,.4-.16.48-1.04.48a18.678,18.678,0,0,1-2.56-.22,5.449,5.449,0,0,1,.48,1.58c.8.06,1.38.08,2.1.08,2.12,0,2.54-.3,2.54-1.84V67.26h.42a10.871,10.871,0,0,1,1.74.1.829.829,0,0,1,.2.02V65.74a12.476,12.476,0,0,1-1.94.12h-.42V63.8a16.576,16.576,0,0,1,.12-2.22H15.1a12.1,12.1,0,0,1,.14,2.22v2.06H12.3a11.839,11.839,0,0,1-1.9-.1v1.62a12.165,12.165,0,0,1,1.88-.12ZM9.78,69.52a17.82,17.82,0,0,1,2.86,4.66l1.34-.88a22.905,22.905,0,0,0-2.92-4.52Zm25.94.22c.84,0,1.58.02,2.08.06a12.312,12.312,0,0,1-.08-1.68V66.9a12.691,12.691,0,0,1,.08-1.68,19.635,19.635,0,0,1-2.2.08H32.1a17.867,17.867,0,0,0,1.38-1.36c.46-.52.46-.52.74-.8l-.82-.8a11.85,11.85,0,0,1-1.86.1H27.96c.12-.14.22-.24.28-.3.12-.14.2-.24.24-.28a4.837,4.837,0,0,1,.44-.5l-1.68-.4a8.388,8.388,0,0,1-1.5,1.92,15.265,15.265,0,0,1-4.64,3.28,4.113,4.113,0,0,1,.8,1.22,15.533,15.533,0,0,0,1.62-1v1.74a15.245,15.245,0,0,1-.06,1.68c.6-.04,1.24-.06,2.12-.06H28.7a20.974,20.974,0,0,1-7.02,2.1,4.508,4.508,0,0,1,.76,1.26,21.717,21.717,0,0,0,6.08-1.96,5.008,5.008,0,0,1,.72.92,22.112,22.112,0,0,1-7.44,2.62,3.789,3.789,0,0,1,.76,1.26,25.13,25.13,0,0,0,7.26-2.86c.18.42.28.68.42,1.1a26.486,26.486,0,0,1-8.78,3.5A5.787,5.787,0,0,1,22.32,79a28.3,28.3,0,0,0,8.2-3.58,6.331,6.331,0,0,1,.06.82,2.468,2.468,0,0,1-.32,1.54c-.22.28-.5.36-1.28.36a11.063,11.063,0,0,1-1.84-.16,4.278,4.278,0,0,1,.46,1.54c.5.04.84.06,1.22.06a5.47,5.47,0,0,0,2.04-.28c.78-.36,1.2-1.32,1.2-2.78a8.4,8.4,0,0,0-2.38-6,10.187,10.187,0,0,0,1.2-.78h.44a15.512,15.512,0,0,0,3.64,6.48,11.94,11.94,0,0,0,3.58,2.58,5.292,5.292,0,0,1,1.02-1.48,8.963,8.963,0,0,1-3.12-1.92,15.364,15.364,0,0,1-1.72-1.82,17.967,17.967,0,0,0,2.18-1.5c.76-.62.92-.74,1.24-.96l-1.3-1.02a9.9,9.9,0,0,1-2.88,2.36,11.572,11.572,0,0,1-1.16-2.72ZM25.02,65.3a19.1,19.1,0,0,0,1.84-1.66h5.1a12.8,12.8,0,0,1-1.64,1.66ZM25,68.52V66.54h4.72v1.98Zm6.16,0V66.54h5.08v1.98Zm17.3,1.94v4.26c0,2.6.88,3.22,4.52,3.22,1.28,0,2.36-.06,3.92-.18.38-.02.56-.04.74-.04h.28l-.04-1.84a8.078,8.078,0,0,1-1.76.32c-1.12.1-2.28.16-2.88.16a7.073,7.073,0,0,1-2.38-.28c-.54-.22-.66-.56-.66-1.9V70.46h5.86a20.151,20.151,0,0,1,2.44.1V68.78a13.491,13.491,0,0,1-2.48.14H50.2V64.94h4.58a19.325,19.325,0,0,1,2.46.1V63.26a13.239,13.239,0,0,1-2.48.14H45.8a13.1,13.1,0,0,1-2.5-.14v1.78a19.325,19.325,0,0,1,2.46-.1h2.7v3.98H44.62a14.124,14.124,0,0,1-2.5-.14v1.78a19.684,19.684,0,0,1,2.48-.1Zm27.8-.94c1.06,0,1.84.04,2.46.1V67.84a15.732,15.732,0,0,1-2.48.14H64.72a16.59,16.59,0,0,1-2.48-.14v1.78a19.715,19.715,0,0,1,2.46-.1h5.18a10.965,10.965,0,0,1-.82,4.02c-.84,1.74-2.42,2.94-4.98,3.76a4.308,4.308,0,0,1,1.14,1.56,12.508,12.508,0,0,0,3.52-1.96,8.053,8.053,0,0,0,2.7-5.08,15.851,15.851,0,0,0,.28-2.3Zm-12-4.84a18.405,18.405,0,0,1,2.44-.1h5.7a19.912,19.912,0,0,1,2.46.1v-1.8a12.745,12.745,0,0,1-2.48.14H66.72a12.631,12.631,0,0,1-2.46-.14Zm13.02-3.64a14.657,14.657,0,0,1,2.06,3.1l1.16-.66a14.924,14.924,0,0,0-2.1-3.04Zm-2.52.78a13.959,13.959,0,0,1,2.08,3.16l1.18-.66a15.652,15.652,0,0,0-2.1-3.1Zm10.16.84a9.986,9.986,0,0,1,.06,1.58c0,4.1-.26,6.66-.88,8.42a9.614,9.614,0,0,1-3.3,4.58,4.844,4.844,0,0,1,1.44,1.34,12.438,12.438,0,0,0,3.44-5.04c.74-2.02.9-3.48,1.06-9.02a10.39,10.39,0,0,1,.12-1.76Zm5.04-.16a8.5,8.5,0,0,1,.1,1.64v.44L89.94,75.9a4.668,4.668,0,0,1-.14,1.58l.94,1.04a3.7,3.7,0,0,1,.48-.22c.2-.08.4-.16.64-.24a13.747,13.747,0,0,0,2.82-1.44,11.488,11.488,0,0,0,4.12-5.24A6.613,6.613,0,0,1,97.48,70a9.773,9.773,0,0,1-2.26,3.9,8.809,8.809,0,0,1-3.52,2.32l.1-11.62a11.536,11.536,0,0,1,.14-2.08Zm17.38,5.28a.151.151,0,0,1,.08-.02.919.919,0,0,1,.2.02,3.471,3.471,0,0,1,.36.02c.06,0,.28.02.6.04.72.06,1.46.08,2.26.08.74,0,1.24-.02,2.2-.06.1,3.24.14,4.5.2,4.94a5.625,5.625,0,0,0-2.08-.36c-2.28,0-3.9,1.24-3.9,2.98,0,1.82,1.48,2.96,3.86,2.96,1.72,0,3.02-.62,3.5-1.68a3.351,3.351,0,0,0,.24-1.38,3.1,3.1,0,0,0-.02-.42c.1.06.1.08.18.12a2.324,2.324,0,0,1,.22.14,11.967,11.967,0,0,1,2.08,1.42,5.566,5.566,0,0,1,.6.58l.72-1.7a2.114,2.114,0,0,1-.52-.34,15.833,15.833,0,0,0-3.28-1.92c-.2-3.38-.2-3.62-.22-5.46a27.419,27.419,0,0,0,3.16-.52,2.849,2.849,0,0,1,.32-.06l-.08-1.6a14.734,14.734,0,0,1-3.4.72V65.16a22.018,22.018,0,0,1,.12-2.92h-1.78c.02.2.04.5.04.86.02,1.38.02,1.38.02,3.3-.66.02-1.12.04-1.9.04a16.081,16.081,0,0,1-3.76-.3Zm5.94,6.5v.58a2.237,2.237,0,0,1-.34,1.4,2.619,2.619,0,0,1-1.9.66c-1.3,0-2.18-.6-2.18-1.5,0-.94.94-1.54,2.38-1.54A5.137,5.137,0,0,1,113.28,74.28Zm-9.22,1.08v-.48a3.127,3.127,0,0,0-.02-.5c-.02-.92-.04-1.9-.04-2.36a29.335,29.335,0,0,1,1.56-9.56l-1.9-.26a6.013,6.013,0,0,1-.22,1.34,34.609,34.609,0,0,0-1,8.2,32,32,0,0,0,.56,6.08,3.541,3.541,0,0,1,.1.74l1.74-.14a2.26,2.26,0,0,1-.04-.44,17.288,17.288,0,0,1,1.8-5.8l-1.26-.56c-.06.18-.08.24-.18.48a20.839,20.839,0,0,0-1.04,3.28ZM136.4,63.64a4,4,0,0,1-1.52.16h-9.52a13.877,13.877,0,0,1-2.48-.14v1.9a15.951,15.951,0,0,1,2.44-.12h9.88c-1.1,4.3-3.02,7.16-6.24,9.3a15.618,15.618,0,0,1-4.48,2.1,4.651,4.651,0,0,1,1.2,1.66A19.068,19.068,0,0,0,132,74.66a17.313,17.313,0,0,0,5-8.72,5.191,5.191,0,0,1,.44-1.32Zm14.58,6.2h2.92a14.174,14.174,0,0,1,1.88.08V68.26a9.828,9.828,0,0,1-1.9.14h-7.26a12.266,12.266,0,0,1-1.9-.12v1.64a16.179,16.179,0,0,1,1.9-.08h2.72V76.6H145.4a10.064,10.064,0,0,1-1.9-.12v1.66a15.7,15.7,0,0,1,1.92-.08h9.68a12.118,12.118,0,0,1,1.92.1V76.5a11.663,11.663,0,0,1-1.92.1h-4.12Zm26.88-6.74a4.468,4.468,0,0,1-1.76.14H165.46a15.852,15.852,0,0,1-2.5-.14v1.82a20.111,20.111,0,0,1,2.46-.1h11.12a9.929,9.929,0,0,1-2.14,2.84,8.923,8.923,0,0,1-3.1,1.88,5.054,5.054,0,0,1,1.22,1.34,12.272,12.272,0,0,0,5.8-5.84,4.6,4.6,0,0,1,.5-.84Zm-8.94,3.62a4.405,4.405,0,0,1,.08,1.1c0,3.88-.74,5.82-2.84,7.52a9.479,9.479,0,0,1-3.6,1.78,4.844,4.844,0,0,1,1.1,1.62,11.353,11.353,0,0,0,5.14-3.5c1.36-1.74,1.9-3.68,1.98-7.06a7.616,7.616,0,0,1,.08-1.46Zm23.78,3.92a13.383,13.383,0,0,0,1.88,4.56,13.02,13.02,0,0,0,4.62,4.2,4.825,4.825,0,0,1,.96-1.38,11.035,11.035,0,0,1-4.26-3.38c.94-.64,1.72-1.22,2.44-1.78.76-.62,1.16-.92,1.2-.96l-1.16-1.08a14.98,14.98,0,0,1-3.22,2.68,10.82,10.82,0,0,1-1.06-2.86h2.6c.7,0,1.24.02,1.84.06a16.574,16.574,0,0,1-.08-2.1V64.3c0-1.24.02-1.7.06-2.2a10.812,10.812,0,0,1-1.9.1h-5.34a15.446,15.446,0,0,1-1.94-.08c.06.68.08,1.28.08,2.08V77.44a19.57,19.57,0,0,1-2.56.42l.36,1.6a6.3,6.3,0,0,1,.94-.28c2.98-.7,4.2-1.02,6.36-1.68l-.06-1.42a37.111,37.111,0,0,1-3.58,1.02V70.64Zm-1.82-7.1h6.18v2.2h-6.18Zm0,3.5h6.18v2.32h-6.18ZM182.52,77.5a13.423,13.423,0,0,1-.12,1.98h1.7a15.419,15.419,0,0,1-.1-1.98V63.32h3.1a29.644,29.644,0,0,1-2.18,4.84,7.568,7.568,0,0,1,1.64,2.32,5.489,5.489,0,0,1,.44,2.1c0,.78-.26,1-1.16,1a8.563,8.563,0,0,1-1.2-.1,4.141,4.141,0,0,1,.34,1.5h.76a6.141,6.141,0,0,0,1.62-.18c.74-.22,1.14-.92,1.14-2a6.3,6.3,0,0,0-.18-1.56,7.066,7.066,0,0,0-1.8-3.22,38.478,38.478,0,0,0,1.74-3.64c.5-1.22.5-1.22.64-1.5l-.82-1a4.79,4.79,0,0,1-1.32.1h-2.92a11.018,11.018,0,0,1-1.38-.06c.04.58.06,1.04.06,1.6Zm27.68-.78a5.961,5.961,0,0,1-3.56-3.22c.22-.76.5-1.76.54-2.04.18-.78.18-.78.26-1.08l-1.64-.32v.14a12.982,12.982,0,0,1-1.26,4.58,10.927,10.927,0,0,1-2.64,3.48,4.069,4.069,0,0,1,1.24,1.14,14.248,14.248,0,0,0,2.96-4.38c1.46,2.66,4.2,3.8,9.1,3.8,1.9,0,2.38,0,3.88-.06a6.018,6.018,0,0,1,.48-1.64c-1.76.14-3.14.2-4.64.2a21.582,21.582,0,0,1-3.24-.2V72.96h3.82a13.373,13.373,0,0,1,1.94.1V71.48a12.128,12.128,0,0,1-1.94.12h-3.82V68.52h3.24a13.162,13.162,0,0,1,2,.12v-1.6a13.346,13.346,0,0,1-2,.12h-8.1a12.872,12.872,0,0,1-1.98-.12v1.6a13.052,13.052,0,0,1,1.98-.12h3.38Zm-.32-13.16H204.5c-.78,0-1.4-.02-2.06-.08a13.2,13.2,0,0,1,.08,1.38V66.2a8.063,8.063,0,0,1-.1,1.48H204V64.96h13.68v2.72h1.54a10.509,10.509,0,0,1-.08-1.46V64.86a9.683,9.683,0,0,1,.08-1.38c-.68.06-1.28.08-2.06.08h-5.72v-.9a5.09,5.09,0,0,1,.12-1.26h-1.82a5.53,5.53,0,0,1,.14,1.26ZM239.2,76.82a50.5,50.5,0,0,0-6.64-5.88,25.873,25.873,0,0,0,3.22-5.56,3.466,3.466,0,0,1,.58-1l-.98-1a3.761,3.761,0,0,1-1.42.18l-6.92.08h-.44a10.317,10.317,0,0,1-1.9-.12l.06,1.9a16.7,16.7,0,0,1,2.3-.16c6.56-.1,6.56-.1,6.8-.12a1.378,1.378,0,0,1-.06.16,1.619,1.619,0,0,0-.12.26,20.814,20.814,0,0,1-4.44,6.56,19.413,19.413,0,0,1-6.62,4.48,5.2,5.2,0,0,1,1.16,1.58,25.441,25.441,0,0,0,3.9-2.38,22.174,22.174,0,0,0,3.8-3.52,39.935,39.935,0,0,1,6.3,6.1Zm16.56-13.56a2.28,2.28,0,1,0,2.28,2.28A2.279,2.279,0,0,0,255.76,63.26Zm0,.88a1.4,1.4,0,1,1-1.4,1.4A1.417,1.417,0,0,1,255.76,64.14Zm-13.38,9.52.6-.76c1.22-1.42,2.64-3.18,3.6-4.42l.74-.96a.789.789,0,0,1,.6-.32c.26,0,.48.12.8.48a91.734,91.734,0,0,0,7.62,7.62l1.86,1.64.92-2a12.107,12.107,0,0,1-1.74-1.28,67.128,67.128,0,0,1-6.74-6.5c-1.46-1.62-1.84-1.88-2.7-1.88-.94,0-1.48.38-2.64,1.9-1.1,1.44-2.88,3.56-3.46,4.14a2.8,2.8,0,0,1-.68.52Zm22.24-9.74a21.927,21.927,0,0,1,5.04,2.66l.94-1.56a29.917,29.917,0,0,0-5.06-2.54Zm-1.58,4.8a23.033,23.033,0,0,1,5.2,2.8l.9-1.6A31.134,31.134,0,0,0,264,67.28Zm.8,9.6a4.634,4.634,0,0,1,.8-.2c.4-.08.74-.16,1.08-.22a24.485,24.485,0,0,0,5.2-1.76,15.893,15.893,0,0,0,7.74-8.66,8.21,8.21,0,0,1-1.5-1.28,14.092,14.092,0,0,1-2.38,4.46,12.877,12.877,0,0,1-5.92,4.44,17.228,17.228,0,0,1-5.5,1.26Zm23.32-9.68-1.8.28a12.052,12.052,0,0,1-1.92.2l.32,1.66a10.4,10.4,0,0,1,1.86-.42l1.78-.3,1.34,7.24a10.343,10.343,0,0,1,.24,1.9l1.82-.32a8.534,8.534,0,0,1-.44-1.86l-1.38-7.22,5.6-.94a2.617,2.617,0,0,0,.58-.12.72.72,0,0,1-.1.18,8.216,8.216,0,0,1-3.52,3.72,4.26,4.26,0,0,1,1.3,1.02,10.49,10.49,0,0,0,3.9-4.82,4.252,4.252,0,0,1,.46-.92l-.98-.88a5.082,5.082,0,0,1-1.18.28l-6.32,1.06-.3-1.58a9.655,9.655,0,0,1-.24-1.62l-1.72.28a6.488,6.488,0,0,1,.4,1.56Zm17.74-5.98a9.987,9.987,0,0,1,.06,1.58c0,4.1-.26,6.66-.88,8.42a9.614,9.614,0,0,1-3.3,4.58,4.844,4.844,0,0,1,1.44,1.34,12.438,12.438,0,0,0,3.44-5.04c.74-2.02.9-3.48,1.06-9.02a10.389,10.389,0,0,1,.12-1.76Zm5.04-.16a8.5,8.5,0,0,1,.1,1.64v.44l-.12,11.32a4.667,4.667,0,0,1-.14,1.58l.94,1.04a3.7,3.7,0,0,1,.48-.22c.2-.08.4-.16.64-.24a13.747,13.747,0,0,0,2.82-1.44,11.488,11.488,0,0,0,4.12-5.24A6.613,6.613,0,0,1,317.46,70a9.773,9.773,0,0,1-2.26,3.9,8.809,8.809,0,0,1-3.52,2.32l.1-11.62a11.537,11.537,0,0,1,.14-2.08ZM5.04,93.88a14.007,14.007,0,0,1-2.48-.14v1.9A19.048,19.048,0,0,1,5,95.52h9.88c-1.1,4.3-3.02,7.16-6.24,9.3a15.617,15.617,0,0,1-4.48,2.1,4.832,4.832,0,0,1,1.2,1.66,18.744,18.744,0,0,0,6.32-3.84,17.313,17.313,0,0,0,5-8.72l.12-.42a2.4,2.4,0,0,0,.66.1,2.28,2.28,0,1,0-2.28-2.28,3.283,3.283,0,0,0,.04.46Zm12.42-1.86a1.4,1.4,0,1,1-1.4,1.4A1.417,1.417,0,0,1,17.46,92.02Zm7.08,2.5a17.913,17.913,0,0,1,2.28-.1h6.54a17.162,17.162,0,0,1,2.28.1v-1.8a11.87,11.87,0,0,1-2.3.14h-6.5a11.167,11.167,0,0,1-2.3-.14ZM22.82,99.2a19.433,19.433,0,0,1,2.52-.1h10.1a11.492,11.492,0,0,1-3.26,5.1,13,13,0,0,1-5.8,2.92,5.073,5.073,0,0,1,1.06,1.64,18.026,18.026,0,0,0,4.9-2.42,13.539,13.539,0,0,0,4.82-6.7,4.886,4.886,0,0,1,.56-1.26l-.86-1a4.368,4.368,0,0,1-1.58.16H25.36a14.626,14.626,0,0,1-2.54-.14ZM55.9,92.02a16.461,16.461,0,0,1-3.78,3.78,28.642,28.642,0,0,1-10.42,5.18,4.965,4.965,0,0,1,.94,1.6,31.213,31.213,0,0,0,7.56-3.42v7.2a13.255,13.255,0,0,1-.12,2.34h2.04a16.515,16.515,0,0,1-.1-2.36v-8.3a33.475,33.475,0,0,0,4.8-4.18,7.347,7.347,0,0,1,.72-.68Zm22.86,14.8a50.5,50.5,0,0,0-6.64-5.88,25.873,25.873,0,0,0,3.22-5.56,3.466,3.466,0,0,1,.58-1l-.98-1a3.761,3.761,0,0,1-1.42.18l-6.92.08h-.44a10.317,10.317,0,0,1-1.9-.12l.06,1.9a16.7,16.7,0,0,1,2.3-.16c6.56-.1,6.56-.1,6.8-.12a1.377,1.377,0,0,1-.06.16,1.62,1.62,0,0,0-.12.26,20.814,20.814,0,0,1-4.44,6.56,19.414,19.414,0,0,1-6.62,4.48,5.2,5.2,0,0,1,1.16,1.58,25.441,25.441,0,0,0,3.9-2.38,22.174,22.174,0,0,0,3.8-3.52,39.934,39.934,0,0,1,6.3,6.1Zm3.76-10.4a56.179,56.179,0,0,1,6.58-.64,43.323,43.323,0,0,0,4.4-.44c-3.38,1.52-5.36,4.12-5.36,7.04a5,5,0,0,0,2.38,4.32,10.979,10.979,0,0,0,4.42,1.48,4.084,4.084,0,0,1,.64.12l.28-1.94a9.472,9.472,0,0,1-3-.52c-2-.66-3.02-1.86-3.02-3.62a6.372,6.372,0,0,1,3.18-5.1,9.636,9.636,0,0,1,5.1-1.7h.24l-.14-1.78a14.522,14.522,0,0,1-2.34.2c-3.3.14-8.78.46-11.58.66-.62.04-.88.06-1.16.06l-.72-.02ZM94.8,98.3a13.96,13.96,0,0,1,2.08,3.16l1.18-.66a15.652,15.652,0,0,0-2.1-3.1Zm2.32-1.08a14.658,14.658,0,0,1,2.06,3.1l1.16-.66a14.924,14.924,0,0,0-2.1-3.04Zm8.06-2.12c.26.02.32.02.68.06a35.683,35.683,0,0,0,4.22.26,19.385,19.385,0,0,0,2.98-.22l-.38.2c-.26.14-.3.16-.52.28-.8.46-1.16.68-2.46,1.54l1.22.98a29.645,29.645,0,0,1,5.12-3.12l-.1-1.6a23.347,23.347,0,0,1-5.26.4,23.433,23.433,0,0,1-5.36-.48Zm11.92,10.18a19.521,19.521,0,0,1-6.04.78,14.141,14.141,0,0,1-3.62-.36c-1.08-.36-1.64-.98-1.64-1.84,0-.92.6-1.82,1.88-2.88l-1.22-.92c-1.64,1.4-2.38,2.64-2.38,4a3.23,3.23,0,0,0,2.36,3.1,14.176,14.176,0,0,0,4.74.64,34.5,34.5,0,0,0,5.38-.46,6.115,6.115,0,0,1,.72-.1Zm-.54-8.76a14.657,14.657,0,0,1,2.06,3.1l1.16-.66a14.924,14.924,0,0,0-2.1-3.04Zm-2.32,1.08a13.96,13.96,0,0,1,2.08,3.16l1.18-.66a15.652,15.652,0,0,0-2.1-3.1Zm23.26-.48a14.551,14.551,0,0,1,2.08.12V95.82a10.6,10.6,0,0,1-2,.12h-7.62c.3-.4.3-.4,1.04-1.44l-1.54-.4a7.821,7.821,0,0,1-1.14,1.84h-3.8a12.007,12.007,0,0,1-1.98-.12v1.42a14.634,14.634,0,0,1,2.06-.12h2.76a16.487,16.487,0,0,1-1.88,1.82c2.38.32,3.02.42,4.4.7a22.938,22.938,0,0,1-7.28,1.04,3.755,3.755,0,0,1,.64,1.26,23.124,23.124,0,0,0,8.62-1.82,41.845,41.845,0,0,1,6.04,2l.94-1.16a48.373,48.373,0,0,0-5.52-1.68,7.929,7.929,0,0,0,2.16-2.16Zm-3.72,0a6.382,6.382,0,0,1-2.12,1.78c-1.42-.3-2.3-.48-3.66-.68a14.379,14.379,0,0,0,1.02-1.1Zm-2.22,5.8v-.22a8.327,8.327,0,0,1,.08-1.32H130a6.938,6.938,0,0,1,.1,1.32v.22h-5.64a16.763,16.763,0,0,1-2.18-.12v1.52a17.094,17.094,0,0,1,2.2-.12h4.42a11.1,11.1,0,0,1-2.5,1.8,20.245,20.245,0,0,1-4.72,1.92,4.712,4.712,0,0,1,.96,1.38,25.747,25.747,0,0,0,3.58-1.62,16.348,16.348,0,0,0,3.92-2.9c-.04,1.14-.04,1.62-.04,1.98v.86a10.976,10.976,0,0,1-.12,1.88h1.68a10.272,10.272,0,0,1-.1-1.88v-.88c0-.38-.04-1.1-.08-1.98a18.106,18.106,0,0,0,4.12,2.98,22.325,22.325,0,0,0,3.72,1.56,6.014,6.014,0,0,1,.9-1.42,18,18,0,0,1-7.54-3.68h4.86a17.77,17.77,0,0,1,2.24.12V102.8a18.456,18.456,0,0,1-2.24.12ZM124.8,92.64c-.86,0-1.4-.02-2.06-.08a7.982,7.982,0,0,1,.08,1.22v.48a6.471,6.471,0,0,1-.08,1.1h1.54V93.88H137.9v1.5h1.52a9.119,9.119,0,0,1-.06-1.14V93.8a7.283,7.283,0,0,1,.08-1.24,19.326,19.326,0,0,1-2.06.08h-5.74a8.061,8.061,0,0,1,.12-1.52h-1.78a6.884,6.884,0,0,1,.12,1.52Zm32.98,2.96v11.48c0,.48-.14.54-1.06.54a16.331,16.331,0,0,1-2.72-.24,5.478,5.478,0,0,1,.4,1.64c.9.06,1.54.08,2.24.08,2.28,0,2.72-.28,2.72-1.68V95.9a15.556,15.556,0,0,1,.08-1.82,16.036,16.036,0,0,1-2.1.1h-5.38c.02-.38.02-.46.04-1.58a8.057,8.057,0,0,1,.16-1.46h-1.82a8.655,8.655,0,0,1,.12,1.74c0,.38-.02.74-.04,1.3h-5.18a16.274,16.274,0,0,1-2.08-.1,15.279,15.279,0,0,1,.08,1.84v11.22a14.771,14.771,0,0,1-.14,2.28h1.82a15.085,15.085,0,0,1-.1-2.26V95.6h5.48a9.068,9.068,0,0,1-2.04,5.22,10.8,10.8,0,0,1-3.24,2.48,5.377,5.377,0,0,1,1.06,1.26,11.482,11.482,0,0,0,4.04-3.7,8.86,8.86,0,0,0,1.1-2.32,13.652,13.652,0,0,0,5.3,5.78,5.671,5.671,0,0,1,1.04-1.4,12.831,12.831,0,0,1-3.84-3.04,11.672,11.672,0,0,1-2.02-3.38c.06-.36.08-.5.12-.9Zm7.8,7.56a3.11,3.11,0,1,0,3.1,3.1A3.12,3.12,0,0,0,165.58,103.16Zm0,1.28a1.82,1.82,0,1,1-1.82,1.82A1.81,1.81,0,0,1,165.58,104.44ZM2.66,125.84a2.714,2.714,0,0,1,.36-.02,3.249,3.249,0,0,1,.36.02c1.62.06,2.54.08,2.76.08H6.8c-.08,1.4-.08,1.4-.1,2.84-2.92,1.28-4.66,3.54-4.66,6.08,0,1.84,1.12,3.16,2.7,3.16,1.44,0,2.94-.78,4.52-2.36a18.026,18.026,0,0,0,3.9-6c1.96.54,3.02,1.68,3.02,3.28,0,1.7-1.24,3.1-3.4,3.86a9.673,9.673,0,0,1-2.98.5,4.856,4.856,0,0,1,.76,1.6,11.1,11.1,0,0,0,4.1-1.12,5.192,5.192,0,0,0,3.22-4.74c0-2.32-1.58-4.08-4.24-4.7.38-.94.58-1.44.62-1.52l-1.64-.48a7.9,7.9,0,0,1-.46,1.72c-.5-.04-.74-.06-1.12-.06a10.7,10.7,0,0,0-2.82.36c0-.78.02-.94.12-2.46a61.277,61.277,0,0,0,7.08-.76,6.112,6.112,0,0,1,.72-.1l-.1-1.66a32.058,32.058,0,0,1-7.6,1.1,12.889,12.889,0,0,1,.4-2.7l-1.82-.12c.02.16.04.26.04.32,0,.18-.04.9-.06,1.14-.08.98-.08.98-.12,1.42H6.4a15.374,15.374,0,0,1-3.72-.3Zm4.06,4.48a27.76,27.76,0,0,0,.38,5.16,3.31,3.31,0,0,1-2.14.96c-.82,0-1.36-.68-1.36-1.72a4.431,4.431,0,0,1,1.14-2.82A6.608,6.608,0,0,1,6.72,130.32Zm1.7,4.16v-.12c0-.08-.02-.26-.04-.46a36.716,36.716,0,0,1-.2-4.12,7.884,7.884,0,0,1,2.64-.46,5.911,5.911,0,0,1,.86.04,16.537,16.537,0,0,1-2.74,4.5c-.34.42-.34.42-.48.62Zm18.24-12.82a21.869,21.869,0,0,1-.66,3.68c-.32.02-.84.02-1.38.02a13.111,13.111,0,0,1-2.42-.16v1.64h.7c.6.02.76.02,1.24.02.84,0,.92,0,1.44-.02a27.344,27.344,0,0,1-3.94,8.18l1.62.94c.1-.18.22-.4.4-.7.76-1.34.94-1.68,1.42-2.64a37.508,37.508,0,0,0,2.2-5.84,31.328,31.328,0,0,0,3.26-.4,5.984,5.984,0,0,1,.68-.1l-.06-1.66a16.9,16.9,0,0,1-3.46.62c.24-.94.36-1.38.5-2.06a9.516,9.516,0,0,1,.3-1.28Zm12.06,5.44a26.954,26.954,0,0,0-5.38-2.66l-.86,1.36a22.207,22.207,0,0,1,5.42,2.74Zm.02,8.9c-.12-.1-.12-.1-.3-.24a5.483,5.483,0,0,0-.56-.48,13.6,13.6,0,0,0-3.4-2,24.85,24.85,0,0,1-.22-2.94,5.8,5.8,0,0,1,.28-1.92l-1.64-.14a8.535,8.535,0,0,0-.2,1.86c0,.66.06,1.74.14,2.72a7.769,7.769,0,0,0-2.02-.26c-2.46,0-4.18,1.3-4.18,3.16a2.735,2.735,0,0,0,1.92,2.62,6.475,6.475,0,0,0,2.18.36,3.977,3.977,0,0,0,3.16-1.2,3.469,3.469,0,0,0,.66-2.06,2.76,2.76,0,0,0-.04-.52,11.555,11.555,0,0,1,3.38,2.64Zm-5.82-1.6a5.657,5.657,0,0,1,.06.8c0,1.38-.76,2.04-2.34,2.04-1.5,0-2.4-.58-2.4-1.54,0-1.02,1-1.68,2.58-1.68A5.7,5.7,0,0,1,32.92,134.4Zm9.54-7.54h.5c.54.02,1.08.04,1.24.04.66,0,1.4-.02,1.66-.02a39.885,39.885,0,0,1-3.7,10.96l1.76.74a56.111,56.111,0,0,0,2.28-6.26,56.425,56.425,0,0,0,1.36-5.52,29.841,29.841,0,0,0,3.34-.46c.42-.08.42-.08.58-.1l-.08-1.64a16.95,16.95,0,0,1-3.56.66c.1-.52.14-.74.26-1.42a18.91,18.91,0,0,1,.36-1.9l-1.88-.2V122a23.855,23.855,0,0,1-.44,3.36c-.54.02-.78.02-1.1.02a14.379,14.379,0,0,1-2.56-.18Zm15.32.84c-1.46-.06-1.74-.06-2.12-.06a23.563,23.563,0,0,0-5.48.66l.16,1.6a18.521,18.521,0,0,1,5.06-.66,16.865,16.865,0,0,1,2.4.16Zm-7.44,4.28c-1.06,1.42-1.38,2.12-1.38,3.04,0,2.04,1.76,3.1,5.1,3.1a21.338,21.338,0,0,0,3.6-.34c.68-.12.68-.12.92-.16l-.16-1.78a14.439,14.439,0,0,1-4.44.72c-2.16,0-3.36-.62-3.36-1.72a2.751,2.751,0,0,1,.26-1.08,4.75,4.75,0,0,1,.84-1.14Zm19.74,4.7a3.923,3.923,0,0,1,.86,1.62,13.224,13.224,0,0,0,3.34-1.04,7.38,7.38,0,0,0,4.38-6.92c0-4.22-3.02-7.02-7.56-7.02a8.546,8.546,0,0,0-6.58,2.7,8.325,8.325,0,0,0-2.14,5.6c0,2.92,1.48,5.06,3.5,5.06,1.5,0,2.7-1.2,3.84-3.82a29.07,29.07,0,0,0,2-8,5.279,5.279,0,0,1,2.24.54,5.165,5.165,0,0,1,2.96,4.86,5.874,5.874,0,0,1-3.16,5.34A10.937,10.937,0,0,1,70.08,136.68ZM70,124.9a27.309,27.309,0,0,1-1.78,7.2c-.82,1.88-1.58,2.8-2.36,2.8-1.04,0-1.84-1.44-1.84-3.26a6.826,6.826,0,0,1,3.12-5.8A5.657,5.657,0,0,1,70,124.9Zm23.02,12.54h-4a11.79,11.79,0,0,1-1.94-.1v1.56a14.649,14.649,0,0,1,2.08-.1h8.8a14.172,14.172,0,0,1,2.06.1v-1.56a12.636,12.636,0,0,1-2,.1H94.44v-2.68H97.3a12.818,12.818,0,0,1,1.98.1v-1.54a12.663,12.663,0,0,1-1.98.1H94.44v-2.1h2.28c1.14,0,1.62.02,2.34.08a25.788,25.788,0,0,1-.08-2.6v-4.1c0-1.18.02-2,.08-2.58a17.729,17.729,0,0,1-2.56.1H91.16a20.656,20.656,0,0,1-2.62-.1,20.318,20.318,0,0,1,.1,2.58v4.34a16.6,16.6,0,0,1-.08,2.36,23.327,23.327,0,0,1,2.46-.08h2v2.1H90.48a11.35,11.35,0,0,1-1.94-.1v1.54a11.918,11.918,0,0,1,1.96-.1h2.52Zm0-13.9v2.6H90.04v-2.6Zm1.42,0h3.12v2.6H94.44Zm-1.42,3.9V130H90.04v-2.56Zm1.42,0h3.12V130H94.44Zm-10.26-3.68v4.48h-.92a7.077,7.077,0,0,1-1.38-.1v1.5a7.241,7.241,0,0,1,1.36-.1h.94v5.34a17.325,17.325,0,0,1-2.68.84l.44,1.64a6.234,6.234,0,0,1,.8-.34c2.72-1.08,3.42-1.38,5.22-2.26l-.08-1.5c-1.06.52-1.42.7-2.24,1.04v-4.76h.7a9,9,0,0,1,1.32.08v-1.48a6.565,6.565,0,0,1-1.32.1h-.7v-4.48h.88a11.835,11.835,0,0,1,1.52.08v-1.56a7.917,7.917,0,0,1-1.68.12H83.38a9.8,9.8,0,0,1-1.74-.12v1.58a8.975,8.975,0,0,1,1.58-.1Zm24.56,1.54a11.4,11.4,0,0,1,1.48.08v-1.5a10.751,10.751,0,0,1-1.5.08H107.2v-.9a7.873,7.873,0,0,1,.1-1.66h-1.64a8.207,8.207,0,0,1,.12,1.62v.94h-1.96a11.133,11.133,0,0,1-1.64-.08v1.5a11.53,11.53,0,0,1,1.62-.08h1.56a13.269,13.269,0,0,1-3.8,4.78,3.754,3.754,0,0,1,.92,1.3,15.454,15.454,0,0,0,3.4-4.7c-.06,1.12-.1,1.82-.1,2.08v1.88a11.791,11.791,0,0,1-.12,2h1.64a10.107,10.107,0,0,1-.12-2v-1.9a16.657,16.657,0,0,0-.14-2.14,10.72,10.72,0,0,0,2.74,3.16,4.932,4.932,0,0,1,.78-1.34,9.017,9.017,0,0,1-3.14-3.12Zm4.12-3.2a19.309,19.309,0,0,1-2-.08,16.718,16.718,0,0,1,.08,1.94v6.48c0,.74-.04,1.36-.1,1.98.74-.04,1.26-.06,2-.06h3.9c.54,0,1.52.04,2.04.08a14.807,14.807,0,0,1-.1-2v-6.48a16.069,16.069,0,0,1,.08-1.94,19.229,19.229,0,0,1-2.02.08Zm-.5,1.3h4.88v1.68h-4.88Zm0,2.94h4.88v1.7h-4.88Zm0,2.96h4.88v1.76h-4.88Zm-9.1,9.4a13.609,13.609,0,0,0,2.34-4.84l-1.38-.58a10.136,10.136,0,0,1-2.26,4.48Zm5.22-3.7a11,11,0,0,1,.1-1.86h-1.72a12.814,12.814,0,0,1,.12,1.86v2.26c0,.9.2,1.28.8,1.52a8.849,8.849,0,0,0,3.18.32c2.84,0,3.7-.12,4.26-.58.48-.42.64-.92.84-2.84a5.032,5.032,0,0,1-1.52-.5c-.02,1.26-.16,1.94-.42,2.16-.32.28-1.04.36-3.12.36-2.24,0-2.52-.1-2.52-.82Zm4.9.22a18.776,18.776,0,0,0-2.84-2.82l-1.08.78a15.192,15.192,0,0,1,2.78,3.02Zm6.6,2.36a26.108,26.108,0,0,0-2.96-4.4l-1.32.7a20.09,20.09,0,0,1,2.9,4.62Zm10.64-.9a3.923,3.923,0,0,1,.86,1.62,13.224,13.224,0,0,0,3.34-1.04,7.38,7.38,0,0,0,4.38-6.92c0-4.22-3.02-7.02-7.56-7.02a8.546,8.546,0,0,0-6.58,2.7,8.325,8.325,0,0,0-2.14,5.6c0,2.92,1.48,5.06,3.5,5.06,1.5,0,2.7-1.2,3.84-3.82a29.071,29.071,0,0,0,2-8,5.279,5.279,0,0,1,2.24.54,5.165,5.165,0,0,1,2.96,4.86,5.874,5.874,0,0,1-3.16,5.34A10.937,10.937,0,0,1,130.62,136.68Zm-.08-11.78a27.31,27.31,0,0,1-1.78,7.2c-.82,1.88-1.58,2.8-2.36,2.8-1.04,0-1.84-1.44-1.84-3.26a6.826,6.826,0,0,1,3.12-5.8A5.657,5.657,0,0,1,130.54,124.9Zm29.58,4.24a19.11,19.11,0,0,1-2.74.14h-12.2a20.315,20.315,0,0,1-2.78-.14v1.98a21.305,21.305,0,0,1,2.78-.14h12.2a20.248,20.248,0,0,1,2.74.14Zm3,.2c.58-.06.66-.06,1-.08.98-.04,1.68-.06,2.06-.06,1.6-.06,2.58-.1,4.38-.2,3.26-.2,4.08-.26,6.78-.56.54.68.8,1.02,1.56,2.04l1.36-1a47.4,47.4,0,0,0-5.78-6.1l-1.34.82a23.31,23.31,0,0,1,3.14,3c-2.96.28-3.52.32-8.72.48a39.463,39.463,0,0,0,2.92-4.54c.62-1.12.62-1.12.68-1.22l-1.76-.6a25.255,25.255,0,0,1-3.72,6.38c-.12,0-1.16.02-1.24.02a12.3,12.3,0,0,1-1.62-.1Zm3.44,10.08v-1.18h9.74v1.18H178a15.142,15.142,0,0,1-.12-2v-4.68a10.685,10.685,0,0,1,.1-1.68,12.74,12.74,0,0,1-1.74.08h-9.62a12.084,12.084,0,0,1-1.7-.08,14.6,14.6,0,0,1,.1,1.68v4.68a16.774,16.774,0,0,1-.12,2Zm.02-6.88h9.74v4.3h-9.74Zm16.7-3.92a37.868,37.868,0,0,1,3.88-.7,31.193,31.193,0,0,1-2.12,6.16,20.406,20.406,0,0,1-2.08,3.66l1.64.94,1.3-2.52a37.632,37.632,0,0,0,2.94-8.38,12.162,12.162,0,0,1,1.36-.08c1.78,0,2.34.64,2.34,2.68a15.269,15.269,0,0,1-.82,5.48,1.2,1.2,0,0,1-1.1.88,7.741,7.741,0,0,1-2.94-.88,5.879,5.879,0,0,1,.1,1.1c0,.24-.02.36-.04.7a7.976,7.976,0,0,0,3.02.72,2.211,2.211,0,0,0,2.04-.92c.86-1.14,1.4-3.82,1.4-7,0-1.7-.28-2.62-.96-3.32a3.858,3.858,0,0,0-2.88-.88c-.44,0-.74,0-1.22.04.1-.46.32-1.74.42-2.26a14.129,14.129,0,0,1,.36-1.86l-1.88-.22v.28a28.044,28.044,0,0,1-.56,4.2,41.165,41.165,0,0,1-4.4.48Zm11.66-2.8a16.668,16.668,0,0,1,4.02,7.4l1.56-.86a18.272,18.272,0,0,0-4.16-7.28Zm3.42-4.56a14.658,14.658,0,0,1,2.06,3.1l1.16-.66a14.924,14.924,0,0,0-2.1-3.04Zm-2.32,1.08a13.959,13.959,0,0,1,2.08,3.16l1.18-.66a15.652,15.652,0,0,0-2.1-3.1Zm8.76,4.02a9.345,9.345,0,0,1,1.28-.04,45.774,45.774,0,0,0,5.4-.34c.58,1.26.58,1.26,1.02,2.08a42,42,0,0,1-6.12.46,12.045,12.045,0,0,1-1.72-.08l.04,1.62a9.29,9.29,0,0,1,1.46-.08,46.99,46.99,0,0,0,7.02-.58,17.037,17.037,0,0,0,1.96,2.84,12.169,12.169,0,0,0-3.86-.54,8.845,8.845,0,0,0-4.56.96,3.033,3.033,0,0,0-1.64,2.58,2.936,2.936,0,0,0,1.52,2.56,8.232,8.232,0,0,0,4.34.88,18.2,18.2,0,0,0,5.12-.72c.9-.26.9-.26,1.24-.34l-.32-1.8a14.094,14.094,0,0,1-6,1.32c-2.64,0-4.1-.68-4.1-1.92,0-1.3,1.76-2.12,4.58-2.12a9.725,9.725,0,0,1,4.78.9l1.34-.96a21.986,21.986,0,0,1-2.84-3.88c.86-.18,1.22-.24,1.52-.32,2.18-.54,2.18-.54,2.62-.62l-.18-1.62a22.325,22.325,0,0,1-4.6,1.22c-.3-.52-.7-1.32-1.04-2.06,1.02-.16,3.46-.68,4.98-1.08l-.14-1.56a26.27,26.27,0,0,1-5.36,1.3,15.033,15.033,0,0,1-.98-2.7l-1.78.28c.16.28.72,1.56,1.14,2.62a36.613,36.613,0,0,1-4.56.26c-.74,0-1.12-.02-1.62-.06Zm20.74,4.96a9.875,9.875,0,0,1,2.2-.66,22.146,22.146,0,0,1,5.28-.8c2.32,0,3.54.94,3.54,2.7,0,1.74-1.34,3.2-3.6,3.94a14.888,14.888,0,0,1-3.98.62h-.3a4.745,4.745,0,0,1,.62,1.64,17.892,17.892,0,0,0,4.18-.78c2.94-.96,4.72-2.96,4.72-5.32a4.521,4.521,0,0,0-.66-2.38c-.78-1.28-2.26-1.92-4.36-1.92a26.525,26.525,0,0,0-6.14.88,11.162,11.162,0,0,1-1.9.36Zm22.78-9.12a7.245,7.245,0,0,1,.32,1.28,43.827,43.827,0,0,0,1.42,5.54,11.844,11.844,0,0,0-2.64,1.66,4.472,4.472,0,0,0-1.78,3.38,3.425,3.425,0,0,0,1.68,3.1c1.2.68,2.78.96,5.36.96a37.935,37.935,0,0,0,4.56-.28,10.4,10.4,0,0,1,1.52-.12l-.18-1.98a20.663,20.663,0,0,1-5.88.72,15.318,15.318,0,0,1-3.34-.3c-1.28-.34-1.92-1.02-1.92-2.06a2.929,2.929,0,0,1,1.04-2.14,12.884,12.884,0,0,1,3.7-2.06,47.864,47.864,0,0,1,6.2-1.96l-.68-1.8a7.313,7.313,0,0,1-1.32.54c-3.52,1.2-3.52,1.2-4.74,1.7a33.236,33.236,0,0,1-1.46-6.52Zm21.08,11.48a4.374,4.374,0,0,1-1.92,3.16,9.556,9.556,0,0,1-4.16,1.46,4.846,4.846,0,0,1,.84,1.42,9.886,9.886,0,0,0,5.08-2.38,5.817,5.817,0,0,0,1.8-3.66h2.26v4c0,1.3.56,1.54,3.58,1.54,3.84,0,4.08-.22,4.5-3.86a6.116,6.116,0,0,1-1.5-.64c-.2,3.08-.2,3.08-2.9,3.08-1.96,0-2.14-.06-2.14-.66v-3.46h1.74c1,0,1.68.02,2.2.06a14.96,14.96,0,0,1-.1-2.1v-6.92a25.984,25.984,0,0,1,.1-2.62,20.94,20.94,0,0,1-2.12.1h-8.64a16.223,16.223,0,0,1-2.1-.1,24.565,24.565,0,0,1,.1,2.62v6.92a15.485,15.485,0,0,1-.1,2.1c.6-.04,1.14-.06,2.22-.06Zm-1.9-10.08h9.7v1.94h-9.7Zm0,3.28h9.7v2h-9.7Zm0,3.34h9.7v2.12h-9.7Zm17.08-1.94a9.584,9.584,0,0,1,1.5-.5,31.114,31.114,0,0,1,8.12-1.42c2.66,0,4.28,1.32,4.28,3.5,0,2.22-1.56,4-4.36,4.96a18.306,18.306,0,0,1-5.48.86,5.483,5.483,0,0,1,.72,1.8,17.541,17.541,0,0,0,6.74-1.58c2.72-1.32,4.24-3.48,4.24-6.04,0-3.2-2.38-5.18-6.2-5.18a26.5,26.5,0,0,0-5.74.72c-3.7.84-3.7.84-4.26.86ZM1.82,158.54a29.042,29.042,0,0,1,3.88-.7,31.438,31.438,0,0,1-2.12,6.14,19.714,19.714,0,0,1-2.08,3.66l1.64.94c.6-1.12,1.02-1.96,1.3-2.52a37.461,37.461,0,0,0,2.94-8.36,12.162,12.162,0,0,1,1.36-.08c1.78,0,2.34.64,2.34,2.68a15.665,15.665,0,0,1-.8,5.46,1.239,1.239,0,0,1-1.12.9,7.833,7.833,0,0,1-2.94-.9,5.937,5.937,0,0,1,.1,1.12,4.49,4.49,0,0,1-.04.68,8.069,8.069,0,0,0,3.02.74,2.255,2.255,0,0,0,2.04-.92c.86-1.14,1.4-3.82,1.4-7,0-1.7-.26-2.62-.96-3.32a3.83,3.83,0,0,0-2.88-.9c-.44,0-.74.02-1.22.06.1-.48.32-1.74.42-2.28a14.132,14.132,0,0,1,.36-1.86l-1.88-.2v.26a28.043,28.043,0,0,1-.56,4.2c-1.68.26-3.68.48-4.4.5Zm11.76-2.86a16.58,16.58,0,0,1,4.02,7.4l1.58-.84a18.513,18.513,0,0,0-4.16-7.28Zm11.24-1a9.964,9.964,0,0,1,1.06-.1c2.92-.12,5.18-.24,5.92-.36a.44.44,0,0,0,.16-.02l.02.04-.22.22-.16.16a65.063,65.063,0,0,1-9.3,7.7l1.02,1.52a12.7,12.7,0,0,1,8.4-3.4c2.62,0,4.2,1.1,4.2,2.94a3.058,3.058,0,0,1-1.36,2.56,4.815,4.815,0,0,1-1.64.76,5.608,5.608,0,0,0-.9-1.9,4.1,4.1,0,0,0-3.34-1.64c-1.76,0-3.06,1.06-3.06,2.48a2.729,2.729,0,0,0,.6,1.68c.74.86,2.1,1.3,4.06,1.3,4.42,0,7.36-2.12,7.36-5.28,0-2.6-2.16-4.28-5.52-4.28a9.786,9.786,0,0,0-4.7,1.16l-.04-.08a48.037,48.037,0,0,0,6.46-5.46,3.612,3.612,0,0,1,1.02-.84l-.96-1.3a2.025,2.025,0,0,1-1.04.24c-1.78.14-4.42.26-6.1.26a10.585,10.585,0,0,1-2.02-.12Zm6.54,12.42a6.967,6.967,0,0,1-1.32.12c-1.74,0-2.84-.6-2.84-1.54,0-.7.58-1.14,1.48-1.14C30.04,164.54,30.94,165.42,31.36,167.1Zm13.14-3.94a3.11,3.11,0,1,0,3.1,3.1A3.12,3.12,0,0,0,44.5,163.16Zm0,1.28a1.82,1.82,0,1,1-1.82,1.82A1.81,1.81,0,0,1,44.5,164.44Z" transform="translate(-2.82 205.822)" fill="#fff"/>
    <path id="パス_699" data-name="パス 699" d="M3.381-14.532a12.694,12.694,0,0,1,1.827-.126H6.342V-2.5A13.247,13.247,0,0,1,6.174-.126H8.169A13.4,13.4,0,0,1,8-2.5V-12.7a34.456,34.456,0,0,1,.189-3.486,11.957,11.957,0,0,1-1.743.105H5.124a10.17,10.17,0,0,1-1.743-.105Zm13.8,0A12.694,12.694,0,0,1,19-14.658h1.134V-2.5a13.247,13.247,0,0,1-.168,2.373h1.995A13.4,13.4,0,0,1,21.8-2.5V-12.7a34.456,34.456,0,0,1,.189-3.486,11.957,11.957,0,0,1-1.743.105H18.921a10.17,10.17,0,0,1-1.743-.105Zm26,9.177V-.714c0,.525-.168.651-.777.651a21.043,21.043,0,0,1-3-.21,5.871,5.871,0,0,1,.336,1.428c.945.063,1.827.084,2.52.084a3.033,3.033,0,0,0,1.68-.273A1.6,1.6,0,0,0,44.52-.5V-14.322a18.375,18.375,0,0,1,.084-2.163,16.889,16.889,0,0,1-2.184.105h-7.9a17.845,17.845,0,0,1-2.205-.105c.063.8.084,1.638.084,3.57,0,4.662-.231,7.245-.819,9.24A8.816,8.816,0,0,1,29.106.441a4.832,4.832,0,0,1,1.155,1.113A11.3,11.3,0,0,0,32.571-2.1a14.446,14.446,0,0,0,.861-3.255Zm-9.6-1.26c.168-1.785.21-2.583.231-3.738h9.366v3.738Zm.231-5v-.5l.021-2.982h9.345v3.486ZM58.527-.126A23.616,23.616,0,0,1,61.11,0V-1.764a18.334,18.334,0,0,1-2.562.147h-6.7a5.885,5.885,0,0,1,1.2-2.436A11.435,11.435,0,0,1,56.07-6.636a16.554,16.554,0,0,0,3.57-2.709,4.383,4.383,0,0,0,1.239-2.982c0-2.478-2.037-4.074-5.208-4.074a5.368,5.368,0,0,0-4.221,1.617,5.71,5.71,0,0,0-1.323,3.024l1.764.294a4.249,4.249,0,0,1,.735-2.121,3.473,3.473,0,0,1,3.045-1.365c2.142,0,3.486,1.029,3.486,2.625,0,1.281-.693,2.205-2.772,3.612a28.511,28.511,0,0,0-3.213,2.31,9.218,9.218,0,0,0-2.73,3.612,9.643,9.643,0,0,0-.609,2.772,15.04,15.04,0,0,1,2.31-.105Zm13.8,0A23.616,23.616,0,0,1,74.907,0V-1.764a18.334,18.334,0,0,1-2.562.147h-6.7a5.885,5.885,0,0,1,1.2-2.436,11.435,11.435,0,0,1,3.024-2.583,16.553,16.553,0,0,0,3.57-2.709,4.383,4.383,0,0,0,1.239-2.982c0-2.478-2.037-4.074-5.208-4.074a5.368,5.368,0,0,0-4.221,1.617,5.71,5.71,0,0,0-1.323,3.024l1.764.294a4.249,4.249,0,0,1,.735-2.121,3.473,3.473,0,0,1,3.045-1.365c2.142,0,3.486,1.029,3.486,2.625,0,1.281-.693,2.205-2.772,3.612a28.511,28.511,0,0,0-3.213,2.31,9.218,9.218,0,0,0-2.73,3.612A9.643,9.643,0,0,0,63.63-.021a15.04,15.04,0,0,1,2.31-.105Zm7.539-.819a16.141,16.141,0,0,1-.126,2.226H81.27V-.084H92.106V1.281h1.533a16.053,16.053,0,0,1-.126-2.247V-14.427a13.207,13.207,0,0,1,.105-1.932,15.234,15.234,0,0,1-2.163.1h-9.45a17.133,17.133,0,0,1-2.247-.1,14.714,14.714,0,0,1,.105,2.058ZM81.27-14.973H92.106v5.88H81.27Zm0,7.161H92.106v6.447H81.27ZM104.055,2.5a14.894,14.894,0,0,1-2.1-4.242,15.6,15.6,0,0,1-.714-4.767,15.463,15.463,0,0,1,.714-4.746,14.894,14.894,0,0,1,2.1-4.242l-1.323-.84a17.159,17.159,0,0,0-2.226,4.368,17.1,17.1,0,0,0-.861,5.46,17.1,17.1,0,0,0,.861,5.46,16.913,16.913,0,0,0,2.226,4.389ZM114.3-10.143v2.856h-5.439a13.785,13.785,0,0,1-2.058-.126v1.47a14.28,14.28,0,0,1,2.037-.126h5.46V-.525H108.57a19.383,19.383,0,0,1-2.394-.126V.861A18.317,18.317,0,0,1,108.57.714H121.8a15.448,15.448,0,0,1,2.31.147V-.651a17.6,17.6,0,0,1-2.289.126h-6.153V-6.069h5.859a14.183,14.183,0,0,1,2.058.126v-1.47a13.4,13.4,0,0,1-2.058.126h-5.859v-2.856h2.562a12.04,12.04,0,0,1,1.932.105v-1.3a22.5,22.5,0,0,0,4.1,2.142,6.508,6.508,0,0,1,.84-1.344,18.814,18.814,0,0,1-5.481-2.814,14.235,14.235,0,0,1-3.759-3.8H114.24c-1.722,2.814-4.767,5.1-8.862,6.657a4.523,4.523,0,0,1,.882,1.239,20.06,20.06,0,0,0,3.822-2.037v1.26a12.656,12.656,0,0,1,1.953-.105ZM112.014-11.3a12.687,12.687,0,0,1-1.785-.084,17.505,17.505,0,0,0,4.83-4.6,19.042,19.042,0,0,0,5.019,4.6,13.529,13.529,0,0,1-1.848.084Zm-3.087,6.426a15.874,15.874,0,0,1,1.827,3.738l1.218-.483a21.347,21.347,0,0,0-1.848-3.8Zm11.025-.5a14.183,14.183,0,0,1-2.1,3.969l1.176.483a25.164,25.164,0,0,0,2.247-3.906Zm6.3-10.122a14.894,14.894,0,0,1,2.1,4.242,15.367,15.367,0,0,1,.714,4.746,15.5,15.5,0,0,1-.714,4.767,14.894,14.894,0,0,1-2.1,4.242l1.323.84A16.913,16.913,0,0,0,129.8-1.05a16.445,16.445,0,0,0,.861-5.46,16.533,16.533,0,0,0-.861-5.46,17.159,17.159,0,0,0-2.226-4.368Zm9.009,8.4a7.4,7.4,0,0,1,1.764-1.47,4.3,4.3,0,0,1,2.163-.546c1.281,0,2.121.357,3.78,1.6a10.461,10.461,0,0,0,2.919,1.7,6.626,6.626,0,0,0,2,.336,5.673,5.673,0,0,0,2.772-.714,8.588,8.588,0,0,0,2.415-2.163L151.977-9.3a5.6,5.6,0,0,1-2.394,2.037,4.084,4.084,0,0,1-1.68.357c-1.2,0-2.268-.462-4.032-1.722a12.9,12.9,0,0,0-1.974-1.26,5.673,5.673,0,0,0-2.625-.609c-1.89,0-3.192.651-5.061,2.478Zm29.253-7.434a12.694,12.694,0,0,1,1.827-.126h1.134V-2.5a13.246,13.246,0,0,1-.168,2.373h2a13.4,13.4,0,0,1-.168-2.373V-12.7a34.453,34.453,0,0,1,.189-3.486,11.957,11.957,0,0,1-1.743.105h-1.323a10.17,10.17,0,0,1-1.743-.105ZM184.863-.126A23.616,23.616,0,0,1,187.446,0V-1.764a18.334,18.334,0,0,1-2.562.147h-6.7a5.885,5.885,0,0,1,1.2-2.436,11.435,11.435,0,0,1,3.024-2.583,16.554,16.554,0,0,0,3.57-2.709,4.383,4.383,0,0,0,1.239-2.982c0-2.478-2.037-4.074-5.208-4.074a5.368,5.368,0,0,0-4.221,1.617,5.71,5.71,0,0,0-1.323,3.024l1.764.294a4.249,4.249,0,0,1,.735-2.121,3.473,3.473,0,0,1,3.045-1.365c2.142,0,3.486,1.029,3.486,2.625,0,1.281-.693,2.205-2.772,3.612a28.511,28.511,0,0,0-3.213,2.31,9.218,9.218,0,0,0-2.73,3.612,9.643,9.643,0,0,0-.609,2.772,15.04,15.04,0,0,1,2.31-.105Zm19.446-5.229V-.714c0,.525-.168.651-.777.651a21.042,21.042,0,0,1-3-.21,5.871,5.871,0,0,1,.336,1.428c.945.063,1.827.084,2.52.084a3.033,3.033,0,0,0,1.68-.273,1.6,1.6,0,0,0,.588-1.47V-14.322a18.378,18.378,0,0,1,.084-2.163,16.889,16.889,0,0,1-2.184.105h-7.9a17.845,17.845,0,0,1-2.205-.105c.063.8.084,1.638.084,3.57,0,4.662-.231,7.245-.819,9.24A8.816,8.816,0,0,1,190.239.441a4.832,4.832,0,0,1,1.155,1.113A11.3,11.3,0,0,0,193.7-2.1a14.446,14.446,0,0,0,.861-3.255Zm-9.6-1.26c.168-1.785.21-2.583.231-3.738h9.366v3.738Zm.231-5v-.5l.021-2.982h9.345v3.486Zm18.165-2.919a12.694,12.694,0,0,1,1.827-.126h1.134V-2.5A13.246,13.246,0,0,1,215.9-.126h2a13.4,13.4,0,0,1-.168-2.373V-12.7a34.453,34.453,0,0,1,.189-3.486,11.957,11.957,0,0,1-1.743.105h-1.323a10.17,10.17,0,0,1-1.743-.105ZM227.2-.945a16.141,16.141,0,0,1-.126,2.226h1.533V-.084h10.836V1.281h1.533a16.053,16.053,0,0,1-.126-2.247V-14.427a13.2,13.2,0,0,1,.105-1.932,15.235,15.235,0,0,1-2.163.1h-9.45a17.133,17.133,0,0,1-2.247-.1,14.714,14.714,0,0,1,.1,2.058Zm1.407-14.028h10.836v5.88H228.606Zm0,7.161h10.836v6.447H228.606ZM251.391,2.5a14.893,14.893,0,0,1-2.1-4.242,15.6,15.6,0,0,1-.714-4.767,15.463,15.463,0,0,1,.714-4.746,14.893,14.893,0,0,1,2.1-4.242l-1.323-.84a17.16,17.16,0,0,0-2.226,4.368,17.1,17.1,0,0,0-.861,5.46,17.1,17.1,0,0,0,.861,5.46,16.914,16.914,0,0,0,2.226,4.389Zm4.284-3.444a16.141,16.141,0,0,1-.126,2.226h1.533V-.084h10.836V1.281h1.533a16.056,16.056,0,0,1-.126-2.247V-14.427a13.209,13.209,0,0,1,.1-1.932,15.234,15.234,0,0,1-2.163.1h-9.45a17.133,17.133,0,0,1-2.247-.1,14.714,14.714,0,0,1,.1,2.058Zm1.407-14.028h10.836v5.88H257.082Zm0,7.161h10.836v6.447H257.082ZM273.588-15.5a14.893,14.893,0,0,1,2.1,4.242A15.367,15.367,0,0,1,276.4-6.51a15.5,15.5,0,0,1-.714,4.767,14.893,14.893,0,0,1-2.1,4.242l1.323.84a16.913,16.913,0,0,0,2.226-4.389A16.445,16.445,0,0,0,278-6.51a16.533,16.533,0,0,0-.861-5.46,17.159,17.159,0,0,0-2.226-4.368Z" transform="translate(-5.381 173.134)" fill="#fff"/>
    <path id="パス_698" data-name="パス 698" d="M4.14,14.316V49H18.446c4.462,0,7.222-.828,9.246-2.438,2.07-1.656,3.128-4.232,3.128-7.5a9.066,9.066,0,0,0-1.564-5.428,11.2,11.2,0,0,0-2.9-2.622c.552-.874,1.288-1.978,1.886-3.036a10.959,10.959,0,0,0,1.794-5.658,7.4,7.4,0,0,0-3.45-6.578c-1.932-1.15-4.278-1.426-7.82-1.426Zm4.416,19.09H19.5a7.792,7.792,0,0,1,4.554,1.012,5.1,5.1,0,0,1,2.254,4.646,5.075,5.075,0,0,1-1.84,4.37c-1.242.92-2.99,1.334-5.98,1.334H8.556Zm0-14.858h9.936c2.346,0,4.048.138,5.152.736a3.39,3.39,0,0,1,1.886,3.4,7.773,7.773,0,0,1-1.38,4.048c-.46.782-.966,1.61-1.472,2.438H8.556ZM37.628,49H42V20.342L51.612,42.1H55.89L65.5,20.342V49h4.37V14.316H63.756l-9.982,22.54-9.982-22.54H37.628Zm37.49-34.684L82.294,49h6.118l6.624-23.644L101.706,49h6.118l7.13-34.684h-4.462L104.42,43.8,97.566,19.56H92.552L85.744,43.8,79.626,14.316ZM135.608,49V35.614h9.614L153.364,49h5.244l-8.6-14.076c.966-.966,2.576-2.53,3.772-3.956,1.794-2.07,3.082-4.186,3.082-7.268a8.912,8.912,0,0,0-3.128-7.268c-2.162-1.656-4.83-2.116-9.338-2.116h-13.2V49Zm8.418-30.406c3.312,0,5.06.184,6.3.966a4.421,4.421,0,0,1,2.024,4.14,7.35,7.35,0,0,1-2.162,4.876c-.736.874-1.61,1.794-2.53,2.76H135.608V18.594ZM162.794,45.78c1.7,2.576,4.14,4,9.568,4a48.868,48.868,0,0,0,8.418-.92v-4a46.52,46.52,0,0,1-8.142.966c-3.358,0-5.29-.736-6.44-2.668a8.668,8.668,0,0,1-.966-4.37h16.33a31.581,31.581,0,0,0,.46-4.876,11.389,11.389,0,0,0-1.426-6.118c-1.472-2.3-4.14-3.864-8.832-3.864-4.83,0-7.636,1.7-9.108,4.324s-1.7,5.75-1.7,8.74C160.954,41.134,161.368,43.618,162.794,45.78Zm3.45-15.41c1.058-1.886,2.76-2.622,5.52-2.622,2.484,0,4.324.736,5.29,2.346a6.367,6.367,0,0,1,.736,3.312,15.422,15.422,0,0,1-.138,1.932h-12.42A12.011,12.011,0,0,1,166.244,30.37Zm20.792,6.624c0,3.634.552,7.038,1.656,9.062a6.761,6.761,0,0,0,6.532,3.726c2.3,0,3.956-.92,5.934-2.392,1.058-.782,1.886-1.472,2.622-2.116V49H208.1V26.506c-3.91-1.426-7.13-2.576-10.442-2.576-4.232,0-6.854,1.1-8.694,4C187.542,30.186,187.036,33.5,187.036,36.994Zm4.37,0a13.532,13.532,0,0,1,1.2-6.44c1.012-1.84,2.668-2.53,5.244-2.53a18.062,18.062,0,0,1,5.934,1.38V40.72c-.966.828-2.208,1.886-3.4,2.806-1.472,1.15-3.082,2.116-4.554,2.116a3.434,3.434,0,0,1-3.588-2.3A18.616,18.616,0,0,1,191.406,36.994Zm22.77-.092c0,3.91.506,6.854,1.656,9.016a6.789,6.789,0,0,0,6.578,3.864A10.791,10.791,0,0,0,228.3,47.9c1.2-.736,2.254-1.472,2.852-1.932V49h4.324V14.316H231.15V25.4a27.756,27.756,0,0,0-7.5-1.472c-3.588,0-6.118,1.1-7.728,3.91C214.59,30.186,214.176,33.222,214.176,36.9Zm4.37-.046a14.938,14.938,0,0,1,1.012-6.348c.874-1.886,2.484-2.484,4.784-2.484A25.161,25.161,0,0,1,231.15,29.5V41.5a40.156,40.156,0,0,1-3.5,2.438,9.256,9.256,0,0,1-4.508,1.656c-2.07,0-3.082-.69-3.726-2.346A17.07,17.07,0,0,1,218.546,36.856Zm20.516-12.144,9.752,24.2-3.588,8.924h4.6l13.386-33.12H258.52L251.16,43.25,243.8,24.712Zm38.272,14.582c0,3.5,0,5.014.506,6.44a4.2,4.2,0,0,0,3.036,2.668,31.612,31.612,0,0,0,7.084.92V45.228a20.08,20.08,0,0,1-4.508-.552A2.124,2.124,0,0,1,281.8,42.79a26.335,26.335,0,0,1-.138-3.588V29.128h7.452V25.034h-7.452V18.456h-4.324Zm17.02,6.578c1.794,2.576,4.232,3.91,8.97,3.91,4.83,0,7.544-1.7,9.2-4.416,1.15-1.886,1.794-5.06,1.794-8.51,0-3.358-.46-6.808-2.208-9.2-1.84-2.53-4.554-3.726-8.786-3.726-5.244,0-7.866,1.886-9.476,4.922-1.058,1.978-1.518,5.106-1.518,8.142C292.33,40.536,293.066,43.986,294.354,45.872Zm3.4-15c1.058-2.07,2.806-2.852,5.566-2.852,2.576,0,4.232.644,5.382,2.53,1.012,1.656,1.242,3.68,1.242,6.164,0,2.76-.368,5.06-1.334,6.578-1.058,1.656-2.852,2.392-5.29,2.392-2.53,0-4.324-.552-5.428-2.53a13.334,13.334,0,0,1-1.2-6.21A13.955,13.955,0,0,1,297.758,30.876ZM8.556,95V81.614H18.17L26.312,95h5.244l-8.6-14.076c.966-.966,2.576-2.53,3.772-3.956,1.794-2.07,3.082-4.186,3.082-7.268a8.912,8.912,0,0,0-3.128-7.268c-2.162-1.656-4.83-2.116-9.338-2.116H4.14V95Zm8.418-30.406c3.312,0,5.06.184,6.3.966A4.421,4.421,0,0,1,25.3,69.7a7.35,7.35,0,0,1-2.162,4.876c-.736.874-1.61,1.794-2.53,2.76H8.556V64.594ZM35.926,91.872c1.794,2.576,4.232,3.91,8.97,3.91,4.83,0,7.544-1.7,9.2-4.416,1.15-1.886,1.794-5.06,1.794-8.51,0-3.358-.46-6.808-2.208-9.2-1.84-2.53-4.554-3.726-8.786-3.726-5.244,0-7.866,1.886-9.476,4.922C34.362,76.83,33.9,79.958,33.9,82.994,33.9,86.536,34.638,89.986,35.926,91.872Zm3.4-15c1.058-2.07,2.806-2.852,5.566-2.852,2.576,0,4.232.644,5.382,2.53,1.012,1.656,1.242,3.68,1.242,6.164,0,2.76-.368,5.06-1.334,6.578-1.058,1.656-2.852,2.392-5.29,2.392-2.53,0-4.324-.552-5.428-2.53a13.334,13.334,0,0,1-1.2-6.21A13.955,13.955,0,0,1,39.33,76.876ZM66.286,95V60.316H61.962V95ZM77.6,95V60.316H73.278V95Zm19.09-.046h4.416V79.912H118.45V75.634H101.108V64.594H120.06V60.316H96.692Zm25.76-11.96c0,3.634.552,7.038,1.656,9.062a6.761,6.761,0,0,0,6.532,3.726c2.3,0,3.956-.92,5.934-2.392,1.058-.782,1.886-1.472,2.622-2.116V95h4.324V72.506c-3.91-1.426-7.13-2.576-10.442-2.576-4.232,0-6.854,1.1-8.694,4C122.958,76.186,122.452,79.5,122.452,82.994Zm4.37,0a13.532,13.532,0,0,1,1.2-6.44c1.012-1.84,2.668-2.53,5.244-2.53A18.062,18.062,0,0,1,139.2,75.4V86.72c-.966.828-2.208,1.886-3.4,2.806-1.472,1.15-3.082,2.116-4.554,2.116a3.434,3.434,0,0,1-3.588-2.3A18.616,18.616,0,0,1,126.822,82.994ZM154.836,95V70.712h-4.324V95Zm.046-28.2V60.316h-4.416V66.8ZM161.828,95h4.324V78.072a19.772,19.772,0,0,1,3.818-2.116,21.5,21.5,0,0,1,4.784-1.426V70.16a19.14,19.14,0,0,0-5.428,1.518,20.389,20.389,0,0,0-3.174,1.978V70.712h-4.324Z" transform="translate(-6.14 39.661)" fill="#fff"/>
    <path id="パス_697" data-name="パス 697" d="M10,31.5H8.1a46.151,46.151,0,0,1-5.7-.3v6.65a46.724,46.724,0,0,1,5.7-.3H24.35V42.7a41.5,41.5,0,0,1-.3,5.8H31.3a34.3,34.3,0,0,1-.3-5.7V37.55H42a45.852,45.852,0,0,1,5.65.3V31.2a43.635,43.635,0,0,1-5.65.3H31V24.1h7.7a51.843,51.843,0,0,1,5.2.2V18.1a52.8,52.8,0,0,1-5.45.2H31V12.6h9.55a39.226,39.226,0,0,1,5.35.3V6.4a31.821,31.821,0,0,1-5.35.3H17.85c.35-.8.55-1.2.9-2,.7-1.5.75-1.6,1.1-2.3l-7.1-1.3A19.49,19.49,0,0,1,11.5,4.7C9.4,9.4,6.75,12.75,1.85,16.75A28.969,28.969,0,0,1,6.2,22.3a43.023,43.023,0,0,0,3.7-3.7c.05.75.1,1.5.1,2.45Zm6.4,0V24.1h7.95v7.4Zm7.95-18.9v5.7h-11c-1.25,0-2.1-.05-3.1-.1a53.506,53.506,0,0,0,4.25-5.6Zm65.3,26.95c0,1.75-.25,1.95-2.9,1.95a60.159,60.159,0,0,1-6.2-.5,18.717,18.717,0,0,1,1.9,6.65c2,.05,3.45.1,4.7.1,7.35,0,9.1-1.1,9.1-5.7V13.2a34.329,34.329,0,0,1,.25-5.05c-1.8.15-3,.2-6.05.2H78.1c.05-1.05.1-1.35.15-2.55a24.037,24.037,0,0,1,.35-4.2H71.3a20.363,20.363,0,0,1,.35,4.3,22.22,22.22,0,0,1-.1,2.45H59.8c-2.85,0-4.25-.05-6.2-.2a46.456,46.456,0,0,1,.2,5V41.9a45.758,45.758,0,0,1-.35,6.3h7.2a44.121,44.121,0,0,1-.25-6.15V31.65a19.731,19.731,0,0,1,3.4,5.6c5.7-3.9,8.7-7.35,11.1-13a37.788,37.788,0,0,0,11.35,11.8,32.5,32.5,0,0,1,3.4-5.7Zm0-25.2v15.3A30.628,30.628,0,0,1,77.1,16.7a23.063,23.063,0,0,0,.4-2.35Zm-29.25,0H71a23.789,23.789,0,0,1-3.9,10.8,20.376,20.376,0,0,1-6.7,5.95Zm41.9,14.1a23.318,23.318,0,0,1,3.25-.3c1.75-.05,2.35-.1,3.8-.15V42.95a31.422,31.422,0,0,1-.3,5.4h6.3a30.739,30.739,0,0,1-.3-5.4V27.55c1.75-.15,1.8-.15,2.9-.3.2,1,.2,1,.4,1.9l3.8-1.55V42.4a48.389,48.389,0,0,1-.25,5.85h6.3a48.445,48.445,0,0,1-.2-5.3v-9.8a27.21,27.21,0,0,1,2.35,4.15c2.7-4.4,3.45-6.45,4.4-11.95,1.15,5.3,1.45,6.15,4.3,11.8a24.2,24.2,0,0,1,2.25-4.05v7.4c0,.9-.5,1.25-1.8,1.25a33.066,33.066,0,0,1-4.65-.4,19.74,19.74,0,0,1,1.65,6.3c1.25.1,1.85.1,2.95.1,3,0,4.25-.15,5.4-.65,1.75-.75,2.35-2.15,2.35-5.4V14.75a50.072,50.072,0,0,1,.2-5.35c-1.15.1-2.15.15-4.4.15h-5.5V6.45A31.405,31.405,0,0,1,137.75,2H131.3a39.24,39.24,0,0,1,.25,4.35v3.2H126.5c-2.2,0-3.05-.05-4.5-.15a47.06,47.06,0,0,1,.15,5.3V25.05a52.253,52.253,0,0,0-2.9-8.55l-4.1,1.7c.75,1.9.95,2.5,1.35,3.8-2.55.2-2.55.2-4.5.3,1.6-2.1,5.8-8.05,7.2-10.25a25.741,25.741,0,0,1,1.95-2.85L116,6.45a53.581,53.581,0,0,1-4.7,8.3,23.781,23.781,0,0,0-1.55-1.95A88.876,88.876,0,0,0,114.3,5c.55-1.05.7-1.3,1-1.8l-5.65-2a31.811,31.811,0,0,1-3.45,7.3l-1.3-1.4-3.1,5.15a64.872,64.872,0,0,1,6.1,7.55c-.85,1.15-1.2,1.65-2,2.7-.95.05-1.25.05-1.65.05a12.662,12.662,0,0,1-2.5-.2Zm25.7-13h3.7c-.25,6.45-1.45,11-3.7,14.25Zm13.3,0V29.5a30.216,30.216,0,0,1-2.55-5.7,27.025,27.025,0,0,1-1.3-8.35Zm-38,14.5c-.1,6.7-.5,9.85-1.6,13.7l4.65,2.4a79,79,0,0,0,1.7-15.4Zm12.8.75a76.654,76.654,0,0,1,.85,12.4l4.1-1a96.542,96.542,0,0,0-1.25-12.2ZM158.65,5.95a47.827,47.827,0,0,1-6.05-.3v6.2a49.989,49.989,0,0,1,5.85-.3h13.1V13.9h-9.6a47.5,47.5,0,0,1-5.45-.2,46.458,46.458,0,0,1,.2,5V28.75a46.458,46.458,0,0,1-.2,5,48.972,48.972,0,0,1,5.55-.2h9.5v2.4h-13.1a44.668,44.668,0,0,1-6.05-.3V42a47.429,47.429,0,0,1,6.15-.3h13v.75a37.629,37.629,0,0,1-.35,5.75h7.25a36.773,36.773,0,0,1-.35-5.75V41.7h13.4a48.657,48.657,0,0,1,6.25.3V35.65a43.513,43.513,0,0,1-6.1.3H178.1v-2.4h10a48.514,48.514,0,0,1,5.5.2,46.453,46.453,0,0,1-.2-5V18.65a46.041,46.041,0,0,1,.2-4.95,46.835,46.835,0,0,1-5.5.2h-10V11.55h13.45a51.208,51.208,0,0,1,5.95.3V5.65a44.849,44.849,0,0,1-6.15.3H178.1a28.142,28.142,0,0,1,.3-4.2h-7.15a27.661,27.661,0,0,1,.3,4.2Zm12.9,12.9V21.4H163.1V18.85Zm0,7.2V28.6H163.1V26.05Zm6.55,2.55V26.05H187V28.6Zm0-7.2V18.85H187V21.4Zm63.6-10.05v4.6h6.15a23.469,23.469,0,0,1-.2-3.55V9.3a33.285,33.285,0,0,1,.15-3.8,31.38,31.38,0,0,1-4.15.2H234.9c.55-2.05.75-2.7,1.1-3.85l-6.7-.75a39.255,39.255,0,0,1-.9,4.6h-7.1a17.526,17.526,0,0,1-2.7-.1V3.05a38.141,38.141,0,0,1-5.1.25h-5.95a45.444,45.444,0,0,1-5-.25v6.3a26.991,26.991,0,0,1,4.25-.25h.8a32,32,0,0,1-6.75,16.15A27.364,27.364,0,0,1,202.8,33a13.425,13.425,0,0,0,2.35-3.7c-.1,1.25-.1,2.15-.1,3.1v9.75c0,2-.1,3.75-.25,5.3h5.75v-4.4h2.8V45.1h5.45a21.75,21.75,0,0,1-.15-3.75V26.55a18.4,18.4,0,0,1,1.6,3.45,18.749,18.749,0,0,0,1.7-2.1c0,.25,0,1.2-.05,2.8v12a43.727,43.727,0,0,1-.3,5.75h6.3V46.3H243a38.866,38.866,0,0,1,4.85.3V40.85a35.534,35.534,0,0,1-4.65.2h-4.3v-2.9h3.3a28.755,28.755,0,0,1,3.9.2V33.3a24.337,24.337,0,0,1-3.95.2H238.9V30.6h3.3a28.288,28.288,0,0,1,3.9.2V25.75a23.942,23.942,0,0,1-3.95.2H238.9V23.1h4.2a30.617,30.617,0,0,1,3.8.2V17.7a25.228,25.228,0,0,1-3.9.2h-3.25a27.774,27.774,0,0,0,1.8-4l-5.9-1.25a22.12,22.12,0,0,1-2,5.25h-3.9a41.626,41.626,0,0,0,3.2-6.55Zm-14.9,0a36.14,36.14,0,0,1-2.25,4.75,31.606,31.606,0,0,1-5.9,7.3v-.75c0-1.4.05-2.45.15-3.5a26.065,26.065,0,0,1-3,.15h-4.85A44.364,44.364,0,0,0,213.7,9.1h2.25a16.264,16.264,0,0,1,2.2.15V12.9a24.608,24.608,0,0,1-.2,3.35h5.8v-4.9Zm1.1,14.6V23.1h5.15v2.85Zm0,4.65h5.15v2.9H227.9Zm0,7.55h5.15v2.9H227.9Zm-17.4-13.1h2.9V37.2h-2.9Zm42.25,3.65c.7-.1,1.2-.15,2.05-.25,3.45-.2,3.45-.2,5.75-.35V43.05a31.376,31.376,0,0,1-.3,5.45h6.5a32.067,32.067,0,0,1-.3-5.45V27.6c.7-.05.7-.05,2.9-.3.2.9.3,1.2.45,2.2l4.7-1.9a85.9,85.9,0,0,0-3.85-10.3l-4.15,1.6a34.989,34.989,0,0,1,1.3,3.35c-2,.15-2.45.2-5,.3,2.05-2.4,5.7-7.25,8-10.65.9-1.4,1.3-1.9,1.7-2.45L267.15,6.5a56.443,56.443,0,0,1-5.05,8.45c-.75-.95-1-1.2-1.65-2A74.433,74.433,0,0,0,265,5.35a14.659,14.659,0,0,1,1-1.8L260.45,1.4a35.447,35.447,0,0,1-3.7,7.55c-.5-.55-.75-.85-1.45-1.7l-3.15,5.15a46.694,46.694,0,0,1,6.55,7.4c-.95,1.35-1.35,1.85-2.3,3h-1.7a11.437,11.437,0,0,1-2.5-.2Zm38.1-13.85c0,10.35-.5,18.75-1.3,23.15-.6,3.05-1.15,3.65-3.4,3.65a50.557,50.557,0,0,1-6.45-.6,22.065,22.065,0,0,1,1.65,6.6c1.7.1,3,.15,4.4.15,3.5,0,5.7-.45,6.95-1.35,1.8-1.4,2.8-4.15,3.55-10.05.5-4.05,1-12.8,1.05-18.8.05-7.45.05-7.45.25-9.15a27.061,27.061,0,0,1-4.05.2H282.95c.45-1.2,1-2.9,1.25-3.7a17.84,17.84,0,0,1,.7-2.15l-6.6-1.1a36.507,36.507,0,0,1-2,6.85,33.069,33.069,0,0,1-5.45,9.05,17.932,17.932,0,0,1,4.65,4.75,35.272,35.272,0,0,0,4.85-7.5ZM253.9,30.1a49.84,49.84,0,0,1-2.1,13.45l5,2.3c1.45-5.05,1.75-7.3,2.15-15.1Zm13.85.85a119.861,119.861,0,0,1,1.5,13.1l5.3-1A101.693,101.693,0,0,0,272.4,29.9ZM287.35,33a59.7,59.7,0,0,0-5.7-12.7l-5.5,2.6c2.25,4.05,3.2,6.35,5.25,12.9Zm25.05.15c-.05-1.25-.1-1.75-.1-2.3,0-.6,0-.6.15-3.6l.85-16.45c.1-2.6.3-4.95.5-6.4h-9.75c.2,1.7.4,4.15.5,6.4l.85,16.45c.15,2.9.15,2.9.15,3.55,0,.55-.05,1.1-.1,2.35Zm.8,11.9v-8.1h-8.55v8.1Z" transform="translate(-3.85 -14.123)" fill="#fff"/>
  </g>
</svg>
