<svg xmlns="http://www.w3.org/2000/svg" xmlns:xlink="http://www.w3.org/1999/xlink" width="1252.967" height="279.516" viewBox="0 0 1252.967 279.516">
  <defs>
    <linearGradient id="linear-gradient" y1="1" x2="0" gradientUnits="objectBoundingBox">
      <stop offset="0" stop-color="#fff4dc"/>
      <stop offset="0.26" stop-color="#e4cea3"/>
      <stop offset="0.49" stop-color="#fff3dc"/>
      <stop offset="0.74" stop-color="#e4cea3"/>
      <stop offset="0.99" stop-color="#fff4dc"/>
    </linearGradient>
  </defs>
  <g id="mv-txt01" transform="translate(-0.91 -0.672)">
    <path id="パス_700" data-name="パス 700" d="M591.717,169.649h-8.259v-9.556h-49.4v9.556h-8.487a33.859,33.859,0,0,0,.382-6.039v-5.886c0-1.988-.153-3.9-.306-5.657,2.753.229,5.353.3,8.411.3h19.958v-2.828a24.728,24.728,0,0,0-.459-4.893h9.405a23.27,23.27,0,0,0-.382,4.816v2.9h20.646c3.059,0,5.658-.076,8.488-.3a41.949,41.949,0,0,0-.306,5.657v5.962A49.234,49.234,0,0,0,591.717,169.649Zm-53.45,9.174,8.488,1.6c-.383,1.3-.383,1.376-1.071,4.51-.382,1.529-.841,3.287-1.988,6.88,3.059,5.428,6.194,8.256,11.623,10.626V174.083H544.078a54.429,54.429,0,0,0-7.723.382v-8.1a51.238,51.238,0,0,0,7.723.382h29.287a53.528,53.528,0,0,0,7.876-.382v8.1a54.811,54.811,0,0,0-7.876-.382H563.348v9.785H577.8a39.172,39.172,0,0,0,7.494-.459v8.18a59.769,59.769,0,0,0-7.494-.382H563.348v13.148a89.267,89.267,0,0,0,12.464.765c4.435,0,9.635-.229,17.434-.917a29.729,29.729,0,0,0-2.141,8.714c-6.27.153-10.246.23-16.287.23-17.893,0-27.91-3.9-34.181-13.149-2.447,5.275-5.352,9.479-10.475,14.983-1.989-2.828-3.059-3.822-6.576-6.268a45.264,45.264,0,0,0,13.152-21.634A47.458,47.458,0,0,0,538.267,178.823Zm-24.606,36.235c-7.418-4.663-12.082-9.021-15.982-14.831-3.67-5.5-5.658-10.4-7.57-18.729H484.6v21.94c8.565-1.911,8.565-1.911,12.694-3.287l.229,7.721c-7.952,2.37-13.075,3.593-24.392,6.116a35.627,35.627,0,0,0-3.9,1.07l-1.529-8.639a68.559,68.559,0,0,0,9.023-1.3V155.277c0-3.44-.077-5.274-.306-8.179a39.239,39.239,0,0,0,7.34.382h21.87a41.584,41.584,0,0,0,7.111-.382c-.153,1.834-.229,3.593-.229,8.485V173.4a76.253,76.253,0,0,0,.3,8.332,14.612,14.612,0,0,0-2.141-.152l6.194,5.274a14.089,14.089,0,0,0-2.141,1.606c-2.37,2.064-7.035,5.657-10.323,7.95a39.658,39.658,0,0,0,14.07,10.855A28.958,28.958,0,0,0,513.661,215.058Zm-8.947-60.239H484.6v6.192h20.111Zm0,12.919H484.6v6.8h20.111Zm5.659,13.837c-.995-.077-2.677-.077-3.747-.077H497.45a39.127,39.127,0,0,0,2.982,8.639C505.02,186.926,509,183.409,510.373,181.575Zm-42.516-10.856c3.136,4.281,4.359,6.5,5.43,9.785a26.117,26.117,0,0,1,1.223,7.568q0,6.766-4.129,8.715c-2.065,1.071-4.206,1.376-9.711,1.376-.153-3.669-.459-5.427-1.606-8.026a26.332,26.332,0,0,0,3.364.305c2.983,0,3.977-.841,3.977-3.363a20.821,20.821,0,0,0-1.683-7.874c-1.147-2.523-2.294-4.281-5.352-7.8,3.364-6.5,4.205-8.485,7.111-17.2h-8.87V206.19c0,3.211.153,6.039.382,8.791h-8.87a68.429,68.429,0,0,0,.459-8.791V153.672c0-2.37-.076-3.669-.229-7.033a48.066,48.066,0,0,0,5.582.229h11.24a25.678,25.678,0,0,0,5.582-.382l4.359,5.351a49.721,49.721,0,0,0-2.371,5.81A123.035,123.035,0,0,1,467.857,170.719Zm-33.032,33.866a17.589,17.589,0,0,1-6.575,3.172,40.54,40.54,0,0,1-10.093,1.032H392.85V151.155h27.295a40.905,40.905,0,0,1,7.8.612,14.028,14.028,0,0,1,5.428,2.293,14.041,14.041,0,0,1,5.811,11.313,14.6,14.6,0,0,1-.688,4.7,21.9,21.9,0,0,1-1.911,4.089q-.843,1.376-1.644,2.637t-1.491,2.331q1.3.995,2.408,1.988a18.22,18.22,0,0,1,2.179,2.369,12.394,12.394,0,0,1,1.759,3.631,15.263,15.263,0,0,1,.688,4.625,18.759,18.759,0,0,1-1.376,7.376A13.323,13.323,0,0,1,434.825,204.585Zm-7.684-40.359a3.715,3.715,0,0,0-1.567-1.682,6.924,6.924,0,0,0-2.6-.687q-1.605-.153-4.129-.153H404.318v12.765h19.956c.254-.408.56-.891.917-1.453s.662-1.07.918-1.528a19.258,19.258,0,0,0,1.07-2.179,6.645,6.645,0,0,0,.459-2.56A5.949,5.949,0,0,0,427.141,164.226Zm-1.262,21.938a9.025,9.025,0,0,0-3.1-.918,38.854,38.854,0,0,0-4.7-.229H404.318v13.224h14.069a33.168,33.168,0,0,0,5.543-.344,6.328,6.328,0,0,0,3.1-1.414,4.676,4.676,0,0,0,1.453-2.064,8.485,8.485,0,0,0,.382-2.675Q428.861,187.771,425.879,186.164ZM342.54,151.155h40.829v10.778h-29.36v12.154h27.678v10.777H354.009v13.148h30.66v10.777H342.54Zm-33,57.634-9.1-32.944-9.1,32.944h-14.68l-11.622-57.634h11.775l8.41,42.576,9.481-33.862H306.33l9.328,33.862,8.563-42.576h11.545l-11.7,57.634Zm-68.547-24v.841c.076,1.988.076,1.988.076,3.058v3.058c-.076,1.3-.076,1.987-.076,2.523a31.365,31.365,0,0,0,.229,4.051l-8.87.23a60.482,60.482,0,0,0,.459-8.868v-1.835a46.524,46.524,0,0,0-7.341,3.975c-2.676,1.988-3.976,4.052-3.976,6.269,0,3.975,3.67,5.58,12.923,5.58,9.176,0,17.052-1.146,22.481-3.21l.764,9.861a22.577,22.577,0,0,0-3.517.306A138.712,138.712,0,0,1,234.571,212c-8.106,0-13.153-.917-17.052-3.211a11.081,11.081,0,0,1-5.582-9.861c0-3.134.917-5.581,3.364-8.486,3.441-4.281,7.8-7.186,16.44-10.779-.382-2.828-1.911-4.128-4.664-4.128-4.435,0-9.788,2.676-15.676,7.874a34.387,34.387,0,0,0-6.652,6.957l-6.958-6.88a46.852,46.852,0,0,0,6.881-6.8,101.1,101.1,0,0,0,9.176-13.072,3.73,3.73,0,0,1,.612-.994c-.306,0-1.3.077-1.3.077-1.223,0-7.952-.153-9.635-.153-1.452-.077-1.452-.077-2.141-.077a8.386,8.386,0,0,0-1.223.077l.153-8.715c3.135.688,8.029.994,17.74.994,2.065-4.587,2.753-6.881,3.059-9.48l10.017,1.071c-.459.764-.459.764-3.059,6.88-.382.841-.535,1.07-.688,1.376.612-.077.612-.077,4.817-.306,8.87-.535,15.829-1.376,20.034-2.6l.536,8.715c-2.141.152-2.141.152-6.041.611-5.582.688-15.293,1.3-23.017,1.529a39.556,39.556,0,0,1-7.034,10.167l.076.153c.535-.382.535-.382,1.529-1.146a18.487,18.487,0,0,1,10.782-3.441c5.964,0,9.711,2.829,10.035,8.1,6.788-2.141,10.687-3.517,12.6-4.128,4.129-1.453,4.435-1.529,5.659-2.294l3.593,8.792a67.287,67.287,0,0,0-8.487,2.064Q250.858,181.345,240.994,184.785Zm-75.049,24-9.1-32.944-9.1,32.944h-14.68l-11.621-57.634h11.774l8.41,42.576,9.481-33.862h11.622l9.328,33.862,8.563-42.576H192.17l-11.7,57.634Zm-62.474-40.282L90.856,197.324H80.84L68.224,168.507v40.282H57.061V151.155H71.818l14.144,32.333,14.145-32.333h14.527v57.634H103.471ZM42.886,204.585a17.589,17.589,0,0,1-6.575,3.172,40.54,40.54,0,0,1-10.093,1.032H.91V151.155h27.3a40.912,40.912,0,0,1,7.8.612,14.027,14.027,0,0,1,5.428,2.293,14.041,14.041,0,0,1,5.811,11.313,14.6,14.6,0,0,1-.688,4.7,21.846,21.846,0,0,1-1.912,4.089Q43.8,175.539,43,176.8t-1.491,2.331q1.3.995,2.408,1.988a18.219,18.219,0,0,1,2.179,2.369,12.393,12.393,0,0,1,1.759,3.631,15.294,15.294,0,0,1,.688,4.625,18.759,18.759,0,0,1-1.376,7.376A13.331,13.331,0,0,1,42.886,204.585ZM35.2,164.226a3.715,3.715,0,0,0-1.567-1.682,6.929,6.929,0,0,0-2.6-.687q-1.6-.153-4.129-.153H12.379v12.765H32.335c.254-.408.56-.891.917-1.453s.662-1.07.918-1.528a19.255,19.255,0,0,0,1.07-2.179,6.645,6.645,0,0,0,.459-2.56A5.949,5.949,0,0,0,35.2,164.226ZM33.94,186.164a9.025,9.025,0,0,0-3.1-.918,38.854,38.854,0,0,0-4.7-.229H12.379v13.224H26.447a33.174,33.174,0,0,0,5.544-.344,6.328,6.328,0,0,0,3.1-1.414,4.684,4.684,0,0,0,1.453-2.064,8.485,8.485,0,0,0,.382-2.675Q36.922,187.771,33.94,186.164Z" fill="#fff" fill-rule="evenodd"/>
    <path id="パス_701" data-name="パス 701" d="M1184.6,165.445a95.824,95.824,0,0,1,12.694-1.529c14.834-1.071,19.575-1.529,25.769-2.447a33.818,33.818,0,0,0-10.629,7.721,26.614,26.614,0,0,0-7.264,17.965c0,7.951,3.9,14.448,10.934,18.424,4.665,2.6,9.482,3.975,17.893,5.045,1.453.229,1.606.229,2.6.459l1.377-10.4c-.765.076-1.453.076-1.53.076a46.391,46.391,0,0,1-11.393-1.987c-6.423-1.911-10.17-6.5-10.17-12.461,0-7.721,5.735-15.365,15.446-20.411a34.205,34.205,0,0,1,15.14-4.128,11.758,11.758,0,0,1,1.606.077l-.535-9.709c-1.224.306-1.606.306-7.876.612-20.417.993-33.492,1.681-39.074,1.987-11.241.765-11.241.765-12.617.765-.383,0-1.224,0-2.906-.077Zm46.8,7.338a51.592,51.592,0,0,1,8.029,11.391l5.353-2.829a49.543,49.543,0,0,0-8.029-11.237Zm22.481,3.593a44.215,44.215,0,0,0-7.952-10.779l-5.123,2.676a56.309,56.309,0,0,1,7.8,11.085Z" fill="#fff" fill-rule="evenodd"/>
    <path id="パス_702" data-name="パス 702" d="M1139.23,144.588c12.974,7.841,23.382,12.4,36.355,15.825a44.737,44.737,0,0,0-7.983,14.97l-6.273-2.566c-.143,1.71-.143,2.708-.143,5.987v31.365c0,6.7.143,10.835.713,14.257h-16.253V217.3h-36.07v7.271h-15.825a90.161,90.161,0,0,0,.713-14.115v-36.5l-4.562,2a38.087,38.087,0,0,0-5.7-9.267c-.427,1-.713,1.283-1.283,2.424-4.847-8.127-4.99-8.412-8.411-17.01.427,7.6.57,12.59.57,19.576v35.642a139.922,139.922,0,0,0,.855,17.536h-16.4a146.4,146.4,0,0,0,.855-17.536V178.234c.571-12.261.571-12.261,1-18.534-4.989,16.11-7.27,21.671-12.688,30.795-3.279-6.558-4.99-9.124-9.124-13.116a133.567,133.567,0,0,0,19.389-44.624h-5.418a73.3,73.3,0,0,0-10.55.57V118.5a60.953,60.953,0,0,0,10.693.713h6.558V107.235c0-7.413-.143-11.263-.713-14.827h16.253a103.237,103.237,0,0,0-.713,14.827v11.976h4.134a44.056,44.056,0,0,0,8.269-.57v10.407c11.263-11.12,19.675-25.234,22.1-37.21l15.825,2.709c-.712,1.425-1,2.281-2.423,5.7a36.248,36.248,0,0,1-1.426,3.564h19.96c6.415,0,9.694-.143,12.4-.713l8.7,9.267a42.8,42.8,0,0,0-3.85,6.273A128.65,128.65,0,0,1,1139.23,144.588Zm-29.654,58.453h36.07v-19.96h-36.07Zm40.775-33.5h2.994a163.632,163.632,0,0,1-25.377-14.969c-8.127,6.273-12.4,8.839-24.379,14.969Zm-45.764-37.923a89.05,89.05,0,0,1-10.978,11.834,43.375,43.375,0,0,0-8.982-10.55c-2.709-.143-3.422-.143-5.275-.143H1075.5c3.849,9.267,8.269,16.253,15.682,24.664-1.283,1.283-1.711,1.711-2.709,2.852a131.17,131.17,0,0,0,28.086-15.255A95.183,95.183,0,0,1,1104.587,131.614Zm9.552-13.829c-.571,1-.713,1.283-1.426,2.424,5.988,8.126,8.982,11.263,14.827,16.11,6.843-6.558,10.122-10.692,14.4-18.534Zm-112.717-2.994v19.247h14.542a105.225,105.225,0,0,0,12.831-.57,115.644,115.644,0,0,0-.571,13.4v59.166a167.85,167.85,0,0,0,.856,17.821h-16.253v-7.841H952.378v7.841H936.411a138.854,138.854,0,0,0,.855-15.683V147.154a100.455,100.455,0,0,0-.713-13.686,111.95,111.95,0,0,0,13.117.57h13.4V114.791h-6.986c-6.986,0-12.261.286-16.823.713V99.679a122.916,122.916,0,0,0,16.823.856h59.593a131.126,131.126,0,0,0,17.394-.856V115.5c-4.135-.427-9.837-.713-16.823-.713Zm0,87.4H1013.4V147.725h-11.975Zm-38.351-54.461h-11.4v54.461h11.4Zm24.664-32.934H976.757v19.247h10.978Zm0,32.934H976.757v54.461h10.978Zm-60.449-19.1v79.552A123.224,123.224,0,0,0,928,224.711H911.6a149.724,149.724,0,0,0,.855-16.68V165.546c0-5.846,0-8.412.428-15.54a92.186,92.186,0,0,1-9.552,14.684,88.415,88.415,0,0,0-6.13-16.965c8.981-9.838,15.682-21.528,21.385-37.068,3.136-8.412,4.419-13.4,5.275-19.674l15.4,6.273c-1.14,3.279-1.568,4.562-2.709,7.841C933.559,114.079,933.559,114.079,927.286,128.621Zm-40.192,75.846c0,14.4-3.992,17.25-24.807,17.25-3.136,0-5.132-.142-11.833-.427a63.178,63.178,0,0,0-4.847-15.968A177.408,177.408,0,0,0,865,206.748c5.417,0,6.843-.856,6.843-4.277v-89.1a169.53,169.53,0,0,0-1-19.389h17.251a149.056,149.056,0,0,0-1,19.389Zm-31.222-31.936c0,9.125.142,12.689.712,16.966H840.189c.57-4.134.713-7.128.713-16.68V118.641a131.335,131.335,0,0,0-.855-17.394h16.68c-.713,4.705-.855,8.982-.855,17.394ZM829.211,145.3c-4.7-.428-9.837-.57-17.963-.57h-14.97c-.142,7.7-.285,8.411-.57,13.829h19.674a90,90,0,0,0,13.544-.713c-.285,2.851-.285,4.277-.427,9.98,0,19.817-1.426,37.352-3.565,44.2-2.423,7.7-6.273,9.837-18.533,9.837-3.137,0-6.416-.143-12.689-.713a44.457,44.457,0,0,0-3.564-15.682,97.269,97.269,0,0,0,14.969,1.425c3.992,0,5.561-1,6.131-3.849,1.283-5.988,2-15.968,2.138-30.795H794.14c-2,12.974-4.135,20.673-8.127,29.084-4.419,8.982-8.7,14.827-16.538,22.383-3.706-6.843-5.417-8.982-10.692-13.971,11.548-9.98,16.538-19.675,19.674-37.5,1.568-8.981,2.139-15.825,2.424-27.515a142.849,142.849,0,0,0-15.825.57c.428-4.99.57-8.269.57-15.54V112.51c0-7.271-.142-10.265-.57-15.682a142.915,142.915,0,0,0,17.821.713h28.8c9.124,0,13.543-.143,17.535-.713a150.512,150.512,0,0,0-.57,15.112v18.534C828.641,139.171,828.784,142.022,829.211,145.3Zm-15.4-34.359H780.738v20.387h33.076Zm-76.505,38.493v11.976h1.283a92.981,92.981,0,0,0,13.972-.713v15.683a100.412,100.412,0,0,0-13.972-.856h-1.283V209.6c0,10.693-4.562,13.544-21.1,13.544-2.423,0-7.7-.143-12.118-.428a42.284,42.284,0,0,0-3.707-15.682,122.643,122.643,0,0,0,16.681,1.568c4.562,0,5.417-.713,5.417-4.277v-28.8H685.13a81.466,81.466,0,0,0-13.972.856v-6.558c-3.992,1.853-6.558,2.994-10.265,4.562v33.931a141.748,141.748,0,0,0,.855,16.538H644.925a118.358,118.358,0,0,0,1-16.538V179.945c-3.421,1.283-6.558,2.424-9.552,3.422-7.556,2.708-9.267,3.421-10.835,4.134l-3.564-16.253c5.132-.57,10.835-2.138,23.951-6.415V135.464h-8.411a132.18,132.18,0,0,1-5.133,20.957,39.488,39.488,0,0,0-12.4-6.415c4.42-11.548,7.271-28.229,7.271-42.343,0-.855-.143-1.853-.285-3.564l13.971,1.711a34.634,34.634,0,0,0-.855,7.271l-.285,2.138-.428,5.845h6.558V104.241a61.545,61.545,0,0,0-1-11.69h16.823a71.276,71.276,0,0,0-.855,11.69v16.823h1.141a59.914,59.914,0,0,0,11.405-.855v14.97c4.42.285,7.984.427,13.116.427h16.253V121.777H690.832a142.277,142.277,0,0,0-14.684.713V106.95a101.553,101.553,0,0,0,14.684.856h11.976v-4.42a62.549,62.549,0,0,0-.855-10.693H718.49a58.459,58.459,0,0,0-.712,10.55v4.563h15.4a107.356,107.356,0,0,0,14.969-.856v15.54a144.047,144.047,0,0,0-14.969-.713h-15.4v13.829h19.246a146.094,146.094,0,0,0,16.11-.713v15.4a121.174,121.174,0,0,0-14.969-.856Zm-14.827,0H686.555c-7.556,0-11.833.143-16.11.856V135.606c-3.136-.142-4.99-.142-7.271-.142h-2.281V159.7c5.56-2.138,7.414-2.851,12.261-4.99l.142,6.273c3.279.286,7.414.428,13.687.428h35.5ZM707.8,198.051l-12.4,9.41a107.333,107.333,0,0,0-18.106-23.382l11.833-7.841A116.614,116.614,0,0,1,707.8,198.051Z" fill="#fff" fill-rule="evenodd"/>
    <path id="パス_703" data-name="パス 703" d="M1139.23,144.588c12.974,7.841,23.382,12.4,36.355,15.825a44.737,44.737,0,0,0-7.983,14.97l-6.273-2.566c-.143,1.71-.143,2.708-.143,5.987v31.365c0,6.7.143,10.835.713,14.257h-16.253V217.3h-36.07v7.271h-15.825a90.161,90.161,0,0,0,.713-14.115v-36.5l-4.562,2a38.087,38.087,0,0,0-5.7-9.267c-.427,1-.713,1.283-1.283,2.424-4.847-8.127-4.99-8.412-8.411-17.01.427,7.6.57,12.59.57,19.576v35.642a139.922,139.922,0,0,0,.855,17.536h-16.4a146.4,146.4,0,0,0,.855-17.536V178.234c.571-12.261.571-12.261,1-18.534-4.989,16.11-7.27,21.671-12.688,30.795-3.279-6.558-4.99-9.124-9.124-13.116a133.567,133.567,0,0,0,19.389-44.624h-5.418a73.3,73.3,0,0,0-10.55.57V118.5a60.953,60.953,0,0,0,10.693.713h6.558V107.235c0-7.413-.143-11.263-.713-14.827h16.253a103.237,103.237,0,0,0-.713,14.827v11.976h4.134a44.056,44.056,0,0,0,8.269-.57v10.407c11.263-11.12,19.675-25.234,22.1-37.21l15.825,2.709c-.712,1.425-1,2.281-2.423,5.7a36.248,36.248,0,0,1-1.426,3.564h19.96c6.415,0,9.694-.143,12.4-.713l8.7,9.267a42.8,42.8,0,0,0-3.85,6.273A128.65,128.65,0,0,1,1139.23,144.588Zm-29.654,58.453h36.07v-19.96h-36.07Zm40.775-33.5h2.994a163.632,163.632,0,0,1-25.377-14.969c-8.127,6.273-12.4,8.839-24.379,14.969Zm-45.764-37.923a89.05,89.05,0,0,1-10.978,11.834,43.375,43.375,0,0,0-8.982-10.55c-2.709-.143-3.422-.143-5.275-.143H1075.5c3.849,9.267,8.269,16.253,15.682,24.664-1.283,1.283-1.711,1.711-2.709,2.852a131.17,131.17,0,0,0,28.086-15.255A95.183,95.183,0,0,1,1104.587,131.614Zm9.552-13.829c-.571,1-.713,1.283-1.426,2.424,5.988,8.126,8.982,11.263,14.827,16.11,6.843-6.558,10.122-10.692,14.4-18.534Zm-112.717-2.994v19.247h14.542a105.225,105.225,0,0,0,12.831-.57,115.644,115.644,0,0,0-.571,13.4v59.166a167.85,167.85,0,0,0,.856,17.821h-16.253v-7.841H952.378v7.841H936.411a138.854,138.854,0,0,0,.855-15.683V147.154a100.455,100.455,0,0,0-.713-13.686,111.95,111.95,0,0,0,13.117.57h13.4V114.791h-6.986c-6.986,0-12.261.286-16.823.713V99.679a122.916,122.916,0,0,0,16.823.856h59.593a131.126,131.126,0,0,0,17.394-.856V115.5c-4.135-.427-9.837-.713-16.823-.713Zm0,87.4H1013.4V147.725h-11.975Zm-38.351-54.461h-11.4v54.461h11.4Zm24.664-32.934H976.757v19.247h10.978Zm0,32.934H976.757v54.461h10.978Zm-60.449-19.1v79.552A123.224,123.224,0,0,0,928,224.711H911.6a149.724,149.724,0,0,0,.855-16.68V165.546c0-5.846,0-8.412.428-15.54a92.186,92.186,0,0,1-9.552,14.684,88.415,88.415,0,0,0-6.13-16.965c8.981-9.838,15.682-21.528,21.385-37.068,3.136-8.412,4.419-13.4,5.275-19.674l15.4,6.273c-1.14,3.279-1.568,4.562-2.709,7.841C933.559,114.079,933.559,114.079,927.286,128.621Zm-40.192,75.846c0,14.4-3.992,17.25-24.807,17.25-3.136,0-5.132-.142-11.833-.427a63.178,63.178,0,0,0-4.847-15.968A177.408,177.408,0,0,0,865,206.748c5.417,0,6.843-.856,6.843-4.277v-89.1a169.53,169.53,0,0,0-1-19.389h17.251a149.056,149.056,0,0,0-1,19.389Zm-31.222-31.936c0,9.125.142,12.689.712,16.966H840.189c.57-4.134.713-7.128.713-16.68V118.641a131.335,131.335,0,0,0-.855-17.394h16.68c-.713,4.705-.855,8.982-.855,17.394ZM829.211,145.3c-4.7-.428-9.837-.57-17.963-.57h-14.97c-.142,7.7-.285,8.411-.57,13.829h19.674a90,90,0,0,0,13.544-.713c-.285,2.851-.285,4.277-.427,9.98,0,19.817-1.426,37.352-3.565,44.2-2.423,7.7-6.273,9.837-18.533,9.837-3.137,0-6.416-.143-12.689-.713a44.457,44.457,0,0,0-3.564-15.682,97.269,97.269,0,0,0,14.969,1.425c3.992,0,5.561-1,6.131-3.849,1.283-5.988,2-15.968,2.138-30.795H794.14c-2,12.974-4.135,20.673-8.127,29.084-4.419,8.982-8.7,14.827-16.538,22.383-3.706-6.843-5.417-8.982-10.692-13.971,11.548-9.98,16.538-19.675,19.674-37.5,1.568-8.981,2.139-15.825,2.424-27.515a142.849,142.849,0,0,0-15.825.57c.428-4.99.57-8.269.57-15.54V112.51c0-7.271-.142-10.265-.57-15.682a142.915,142.915,0,0,0,17.821.713h28.8c9.124,0,13.543-.143,17.535-.713a150.512,150.512,0,0,0-.57,15.112v18.534C828.641,139.171,828.784,142.022,829.211,145.3Zm-15.4-34.359H780.738v20.387h33.076Zm-76.505,38.493v11.976h1.283a92.981,92.981,0,0,0,13.972-.713v15.683a100.412,100.412,0,0,0-13.972-.856h-1.283V209.6c0,10.693-4.562,13.544-21.1,13.544-2.423,0-7.7-.143-12.118-.428a42.284,42.284,0,0,0-3.707-15.682,122.643,122.643,0,0,0,16.681,1.568c4.562,0,5.417-.713,5.417-4.277v-28.8H685.13a81.466,81.466,0,0,0-13.972.856v-6.558c-3.992,1.853-6.558,2.994-10.265,4.562v33.931a141.748,141.748,0,0,0,.855,16.538H644.925a118.358,118.358,0,0,0,1-16.538V179.945c-3.421,1.283-6.558,2.424-9.552,3.422-7.556,2.708-9.267,3.421-10.835,4.134l-3.564-16.253c5.132-.57,10.835-2.138,23.951-6.415V135.464h-8.411a132.18,132.18,0,0,1-5.133,20.957,39.488,39.488,0,0,0-12.4-6.415c4.42-11.548,7.271-28.229,7.271-42.343,0-.855-.143-1.853-.285-3.564l13.971,1.711a34.634,34.634,0,0,0-.855,7.271l-.285,2.138-.428,5.845h6.558V104.241a61.545,61.545,0,0,0-1-11.69h16.823a71.276,71.276,0,0,0-.855,11.69v16.823h1.141a59.914,59.914,0,0,0,11.405-.855v14.97c4.42.285,7.984.427,13.116.427h16.253V121.777H690.832a142.277,142.277,0,0,0-14.684.713V106.95a101.553,101.553,0,0,0,14.684.856h11.976v-4.42a62.549,62.549,0,0,0-.855-10.693H718.49a58.459,58.459,0,0,0-.712,10.55v4.563h15.4a107.356,107.356,0,0,0,14.969-.856v15.54a144.047,144.047,0,0,0-14.969-.713h-15.4v13.829h19.246a146.094,146.094,0,0,0,16.11-.713v15.4a121.174,121.174,0,0,0-14.969-.856Zm-14.827,0H686.555c-7.556,0-11.833.143-16.11.856V135.606c-3.136-.142-4.99-.142-7.271-.142h-2.281V159.7c5.56-2.138,7.414-2.851,12.261-4.99l.142,6.273c3.279.286,7.414.428,13.687.428h35.5ZM707.8,198.051l-12.4,9.41a107.333,107.333,0,0,0-18.106-23.382l11.833-7.841A116.614,116.614,0,0,1,707.8,198.051Z" fill="url(#linear-gradient)"/>
    <path id="パス_704" data-name="パス 704" d="M1249.077,272.3a24.7,24.7,0,0,1-5.1,7.886h-3.266c3.082-3.081,4.293-4.768,5.577-7.592a22.895,22.895,0,0,0,0-18.632c-1.284-2.824-2.495-4.511-5.577-7.592h3.266a24.7,24.7,0,0,1,5.1,7.886,23.992,23.992,0,0,1,0,18.044Zm-15.711,6.639c-2.091,0-2.861-.11-3.521-.55-.514-.33-.7-.771-.7-1.724V262h-3.266c-.183,4.658-.55,6.639-1.65,9.426a14.428,14.428,0,0,1-3.559,5.428,15.567,15.567,0,0,1-4.109,2.788,10.128,10.128,0,0,0-1.761-1.981,12.475,12.475,0,0,0,5.173-3.594c2.458-2.861,3.485-6.235,3.632-12.067h-1.431a23.766,23.766,0,0,0-2.935.147,25.755,25.755,0,0,0,.147-3.228v-7.372a25.633,25.633,0,0,0-.147-3.044,30.5,30.5,0,0,0,3.485.147h10.309a27.879,27.879,0,0,0,3.3-.147,23.506,23.506,0,0,0-.147,3.008v7.665a22.879,22.879,0,0,0,.147,2.971,24,24,0,0,0-2.972-.147h-1.944c0,14.121,0,14.121.037,14.267.073.367.55.514,1.651.514,1.871,0,2.714-.11,2.971-.4.477-.513.661-1.907.7-5.868a6.784,6.784,0,0,0,2.2,1.027c-.366,5.318-.55,6.272-1.577,6.859C1236.742,278.794,1235.6,278.941,1233.366,278.941Zm.551-19v-9.169h-12.253v9.169Zm-15.959,8.326a28.238,28.238,0,0,1-4.952-4.071v11.7a19.386,19.386,0,0,0,.256,3.814h-2.751a23.658,23.658,0,0,0,.22-3.814V264.82a34.161,34.161,0,0,1-5.356,4.622,10.3,10.3,0,0,0-1.247-2.018,30.49,30.49,0,0,0,6.6-5.464,26.232,26.232,0,0,0,4.623-6.969h-6.714a22.54,22.54,0,0,0-2.972.147V252.79a20.19,20.19,0,0,0,2.9.147h2.2v-3.521a19.488,19.488,0,0,0-.22-2.934h2.751a15.656,15.656,0,0,0-.22,2.934v3.521h1.724a17.05,17.05,0,0,0,2.275-.11l1.21,1.321c-.293.513-.293.513-1.5,2.9a28.275,28.275,0,0,1-3.338,4.841,20.622,20.622,0,0,0,5.686,4.328A7.823,7.823,0,0,0,1217.958,268.268Zm-25.355-1.981a3.007,3.007,0,1,1,3.008-3.007A3.021,3.021,0,0,1,1192.6,266.287Zm-16.334,10.05a2.787,2.787,0,0,1-1.027,2.567,5.3,5.3,0,0,1-2.935.477c-1.21,0-2.751-.037-4.4-.147a10.269,10.269,0,0,0-.587-2.494,36.724,36.724,0,0,0,5.246.367c1.064,0,1.357-.22,1.357-1.137v-8.105H1156.9a25.206,25.206,0,0,1-1.5,5.684,19.723,19.723,0,0,1-4.036,6.382,8.46,8.46,0,0,0-2.017-1.944,15.408,15.408,0,0,0,4.329-7.188c1.027-3.485,1.43-8,1.43-16.138,0-3.374-.036-4.841-.146-6.235a31.118,31.118,0,0,0,3.852.183H1172.6a29.46,29.46,0,0,0,3.815-.183,32.086,32.086,0,0,0-.147,3.778Zm-2.348-25.49H1157.6l-.037,5.208v.88h16.362Zm0,8.289h-16.362c-.036,2.017-.11,3.41-.4,6.528h16.765Zm-27.589,21.052h-3.265a24.681,24.681,0,0,1-5.1-7.886,24,24,0,0,1,0-18.044,24.681,24.681,0,0,1,5.1-7.886h3.265c-3.082,3.118-4.292,4.768-5.576,7.592a22.9,22.9,0,0,0,0,18.632C1142.04,275.42,1143.25,277.07,1146.332,280.188ZM1119,279.454h-2.679V277.07H1097.4v2.384h-2.678a28.14,28.14,0,0,0,.22-3.887V252.24a25.664,25.664,0,0,0-.183-3.594,29.892,29.892,0,0,0,3.925.183h16.509a26.589,26.589,0,0,0,3.779-.183,23.009,23.009,0,0,0-.184,3.374v23.51A27.971,27.971,0,0,0,1119,279.454Zm-2.679-28.387H1097.4v10.269h18.93Zm0,12.506H1097.4v11.26h18.93Zm-31.245.99a6.471,6.471,0,0,1,1.247,2.2,9.266,9.266,0,0,1,.44,3.007,9.865,9.865,0,0,1-.513,3.173,6.57,6.57,0,0,1-1.578,2.586,6.768,6.768,0,0,1-2.971,1.8,14.822,14.822,0,0,1-4.183.514,26.087,26.087,0,0,1-3.87-.294q-1.963-.294-3.174-.513V274.8q.7.111,1.578.257t1.816.275q.935.129,1.871.22t1.779.092a13.074,13.074,0,0,0,2.77-.275,5.464,5.464,0,0,0,2.11-.9,4.612,4.612,0,0,0,1.54-2.017,7.039,7.039,0,0,0,.477-2.6,6.446,6.446,0,0,0-.678-3.136,4.986,4.986,0,0,0-2-1.962,4.441,4.441,0,0,0-1.6-.514,17.486,17.486,0,0,0-2.146-.11h-4.733v-2.2h7.595l1.614-2.237a12.117,12.117,0,0,0,1.284-2.182,5.126,5.126,0,0,0,.44-2.073,5.641,5.641,0,0,0-.22-1.595,2.969,2.969,0,0,0-.844-1.339,4.574,4.574,0,0,0-1.834-1.009,10.58,10.58,0,0,0-3.008-.348,18.218,18.218,0,0,0-2.092.128q-1.1.129-2.128.33t-1.926.4q-.9.2-1.449.348v-2.237q.66-.183,1.578-.385t1.944-.367q1.028-.165,2.091-.293a16.54,16.54,0,0,1,1.982-.129,14.285,14.285,0,0,1,4.035.459,6.173,6.173,0,0,1,2.6,1.559,5.015,5.015,0,0,1,1.229,2.035,7.771,7.771,0,0,1,.385,2.4,6.777,6.777,0,0,1-.44,2.365,12.322,12.322,0,0,1-1.284,2.476q-.515.735-1.009,1.431t-.825,1.137q.476.294,1.027.715A6.6,6.6,0,0,1,1085.08,264.563Zm-36.841,10.307,3.081-3.485q1.688-1.906,3.265-3.723t2.844-3.319l1.853-2.2c.953-1.2.818-2.267,2.292-3.209a6.1,6.1,0,0,0,.863-3.246,7.13,7.13,0,0,0-.22-1.8,3.053,3.053,0,0,0-.881-1.467,4.6,4.6,0,0,0-1.761-.972,9.78,9.78,0,0,0-2.752-.312,14.077,14.077,0,0,0-1.907.147q-1.065.147-2.11.366t-1.944.459l-1.449.385v-2.237q.585-.183,1.485-.4t1.926-.422q1.028-.2,2.073-.348a14.065,14.065,0,0,1,1.926-.147,12.425,12.425,0,0,1,3.926.514,6.061,6.061,0,0,1,2.568,1.687,4.9,4.9,0,0,1,1.156,2.091,9.562,9.562,0,0,1,.312,2.457,8.37,8.37,0,0,1-.936,3.925,23.877,23.877,0,0,1-2.623,3.887q-1.395,1.725-2.9,3.467t-2.88,3.282q-1.377,1.541-2.513,2.788t-1.8,1.98h14.712v2.2h-17.61Zm-24.068-7.226a11.606,11.606,0,0,1-3.486-.586,18.33,18.33,0,0,1-5.1-2.971c-2.9-2.164-4.366-2.788-6.6-2.788a7.517,7.517,0,0,0-3.778.954,12.967,12.967,0,0,0-3.082,2.567l-1.834-1.613c3.265-3.191,5.539-4.328,8.841-4.328a9.918,9.918,0,0,1,4.586,1.063,22.6,22.6,0,0,1,3.449,2.2c3.081,2.2,4.952,3.007,7.043,3.007a7.143,7.143,0,0,0,2.935-.623,9.77,9.77,0,0,0,4.182-3.558l1.908,1.651a14.981,14.981,0,0,1-4.219,3.777A9.91,9.91,0,0,1,1024.171,267.644Zm-45.533,12.544h-3.265c3.082-3.081,4.293-4.768,5.577-7.592a22.9,22.9,0,0,0,0-18.632c-1.284-2.824-2.495-4.511-5.577-7.592h3.265a24.683,24.683,0,0,1,5.1,7.886,23.991,23.991,0,0,1,0,18.044A24.683,24.683,0,0,1,978.638,280.188Zm-16.407-6.639a24.406,24.406,0,0,1-5.76-11.846,21.872,21.872,0,0,1-2.311,7.152A22.43,22.43,0,0,1,946.2,277.4a29.662,29.662,0,0,1-4.4,2.384,8.22,8.22,0,0,0-1.8-2.31,21.031,21.031,0,0,0,14.491-16.908,52.828,52.828,0,0,0,.587-9.023,28.3,28.3,0,0,0-.183-4.217h2.934a39.44,39.44,0,0,0-.183,5.538c0,4.878.44,7.922,1.651,11.186a22.3,22.3,0,0,0,7.594,10.233,24.321,24.321,0,0,0,5.98,3.191,8.153,8.153,0,0,0-1.8,2.347A25.392,25.392,0,0,1,962.231,273.549Zm.036-10.709a30.49,30.49,0,0,0,5.907-9.756l2.421,1.174a45.034,45.034,0,0,1-6.273,9.866ZM943.888,265.3l-2.238-1.284a18.328,18.328,0,0,0,2.9-4.694,22.884,22.884,0,0,0,1.834-5.9l2.458.77a31.425,31.425,0,0,1-2.054,6.052A23.183,23.183,0,0,1,943.888,265.3Zm-6.429,14.891h-3.265a24.684,24.684,0,0,1-5.1-7.886,23.992,23.992,0,0,1,0-18.044,24.684,24.684,0,0,1,5.1-7.886h3.265c-3.082,3.118-4.292,4.768-5.576,7.592a22.885,22.885,0,0,0,0,18.632C933.167,275.42,934.377,277.07,937.459,280.188Zm-27.329-.734h-2.678V277.07h-18.93v2.384h-2.678a28.129,28.129,0,0,0,.22-3.887V252.24a25.813,25.813,0,0,0-.183-3.594,29.9,29.9,0,0,0,3.925.183h16.509a26.587,26.587,0,0,0,3.779-.183,23.026,23.026,0,0,0-.184,3.374v23.51A28.146,28.146,0,0,0,910.13,279.454Zm-2.678-28.387h-18.93v10.269h18.93Zm0,12.506h-18.93v11.26h18.93Zm-43.4,13.644,12.841-25.454H862.218v-2.2H879.5V251.8l-12.8,25.418Zm-9.307-25.308-6.714,2.164v-2.347l8.989-2.9v28.389h-2.275Zm-11.932,24.428a2.787,2.787,0,0,1-1.027,2.567,5.3,5.3,0,0,1-2.935.477c-1.211,0-2.752-.037-4.4-.147a10.221,10.221,0,0,0-.587-2.494,36.747,36.747,0,0,0,5.247.367c1.063,0,1.357-.22,1.357-1.137v-8.105H823.443a25.254,25.254,0,0,1-1.505,5.684,19.719,19.719,0,0,1-4.035,6.382,8.446,8.446,0,0,0-2.018-1.944,15.391,15.391,0,0,0,4.329-7.188c1.027-3.485,1.431-8,1.431-16.138,0-3.374-.037-4.841-.147-6.235a31.137,31.137,0,0,0,3.852.183h13.794a29.485,29.485,0,0,0,3.816-.183,32.07,32.07,0,0,0-.147,3.778Zm-2.348-25.49H824.14l-.037,5.208v.88h16.362Zm0,8.289H824.1c-.037,2.017-.11,3.41-.4,6.528h16.766Zm-28.549,7.793q-.055.825-.147,1.577a15.565,15.565,0,0,1-.275,1.559A11.867,11.867,0,0,1,810.5,273a8.074,8.074,0,0,1-4.586,4.2,11.5,11.5,0,0,1-4.072.642,21.2,21.2,0,0,1-3.21-.239q-1.56-.238-2.843-.495V274.87q1.284.256,2.9.513a20.093,20.093,0,0,0,3.155.257,9.876,9.876,0,0,0,2.605-.33,6.125,6.125,0,0,0,2.054-.954,6.061,6.061,0,0,0,1.67-1.944,9.214,9.214,0,0,0,.972-2.567,16.809,16.809,0,0,0,.4-2.439q.109-1.229.11-1.889-1.248.183-3.045.348t-3.449.165a12.985,12.985,0,0,1-4.348-.605,5.328,5.328,0,0,1-2.623-1.962,6.168,6.168,0,0,1-1.064-2.494,17.586,17.586,0,0,1-.22-2.935,18.392,18.392,0,0,1,.257-3.062,7.562,7.562,0,0,1,1.1-2.843,6.392,6.392,0,0,1,2.568-2.31,9.513,9.513,0,0,1,4.4-.881,9.361,9.361,0,0,1,4.146.844,6.359,6.359,0,0,1,2.678,2.384,11.871,11.871,0,0,1,1.523,4.511,42.9,42.9,0,0,1,.422,6.419q0,1.137-.019,2.072T811.916,266.929Zm-2.477-9.041a10.4,10.4,0,0,0-1.174-4.255,4.326,4.326,0,0,0-2.036-1.907,7.213,7.213,0,0,0-2.99-.587,7.94,7.94,0,0,0-2.88.477,4.2,4.2,0,0,0-1.926,1.43,5.814,5.814,0,0,0-.954,2.219,15.094,15.094,0,0,0-.22,2.769,14.5,14.5,0,0,0,.165,2.348,4.186,4.186,0,0,0,.752,1.8,3.409,3.409,0,0,0,2.11,1.339,13.155,13.155,0,0,0,2.917.312q1.577,0,3.412-.165t3.045-.349Q809.66,260.455,809.439,257.888Z" fill="#fff" fill-rule="evenodd"/>
    <path id="パス_705" data-name="パス 705" d="M1111.849,13.477l-1.03,25.021c-.147,4.268-.147,4.268-.147,5.3a26.325,26.325,0,0,0,.147,3.091h-8.61c.073-1.546.147-2.281.147-3.164,0-.81,0-.81-.221-5.225l-1.03-25.021c-.147-3.238-.368-6.918-.662-8.978h12.068C1112.291,6.486,1112,10.313,1111.849,13.477Zm-33.8,44.964c0,4.415-.883,6.328-3.532,7.432-1.546.662-3.753.883-8.316.883-1.03,0-1.325,0-5.078-.221a27.919,27.919,0,0,0-1.913-7.579c-2.134-.074-3.532-.074-4.121-.074h-15.6V63h-7.8a50.637,50.637,0,0,0,.515-7.359V37.688c0-2.576-.073-4.636-.22-6.623a59.943,59.943,0,0,0,6.843.294h16.411a59.14,59.14,0,0,0,6.844-.294c-.147,1.913-.221,3.753-.221,6.623V52.627c0,2.8.074,4.489.221,6.4,1.619.147,4.268.368,5.593.368,2.06,0,2.723-.515,2.723-1.987V26.65h-14.5c-2.575,0-4.93.073-6.77.22.147-2.134.221-3.532.221-6.7V8.914c0-2.5-.074-4.562-.221-6.844a62.882,62.882,0,0,0,7.506.3h14.13a65.914,65.914,0,0,0,7.579-.3c-.22,2.65-.294,4.489-.294,8.169Zm-23.549-20.9h-15.012v4.415h15.012Zm0,10.376h-15.012V52.7h15.012Zm15.9-39.591h-13.762v3.679H1070.4Zm0,8.9h-13.762v3.753H1070.4Zm-26.2,9.64c-1.914-.147-4.195-.22-6.771-.22h-13.32V58.441a63.876,63.876,0,0,0,.442,9.051h-8.61a65.86,65.86,0,0,0,.441-9.125V10.313a81.551,81.551,0,0,0-.294-8.243,66.763,66.763,0,0,0,7.58.3H1036.7a62.112,62.112,0,0,0,7.507-.3c-.148,2.355-.221,3.974-.221,6.844v11.26C1043.982,23.559,1044.055,25.251,1044.2,26.87ZM1036.77,8.326h-12.658v3.679h12.658Zm0,8.9h-12.658v3.753h12.658ZM985.063,66.462c-13.394,0-18.324-.368-22.372-1.546-3.827-1.251-6.329-3.017-9.346-6.77a78.74,78.74,0,0,1-9.935,8.242l-4.047-7.8a47.869,47.869,0,0,0,10.155-7.212V35.554h-3.973a27.167,27.167,0,0,0-5.005.368V27.974a32.861,32.861,0,0,0,5.888.368h5.519a31.833,31.833,0,0,0,5.593-.368A74.059,74.059,0,0,0,957.245,36v15.9a9.976,9.976,0,0,0,3.238,3.827,13.215,13.215,0,0,0,4.784,2.207,56.966,56.966,0,0,0,12.657,1.1,258.838,258.838,0,0,0,31.57-1.472,29.9,29.9,0,0,0-2.207,8.39C1000.075,66.241,991.1,66.462,985.063,66.462Zm-13.394-43.05a48.076,48.076,0,0,0,6.255.294h2.134V19.879h-1.251c-2.5,0-4.489.074-6.181.221V13.918a51.887,51.887,0,0,0,6.181.3h1.251v-.662a22.183,22.183,0,0,0-.294-3.312h7.506a20.692,20.692,0,0,0-.294,3.385v.589h1.913a49.825,49.825,0,0,0,6.108-.3V20.1c-1.692-.147-3.606-.221-6.108-.221h-1.913v3.827h2.8a46.839,46.839,0,0,0,6.182-.294v6.476a53.526,53.526,0,0,0-6.182-.3H977.924a57.435,57.435,0,0,0-6.255.3Zm1.1,8.757c1.693.147,2.944.221,4.563.221h12.289a43.129,43.129,0,0,0,4.563-.221c-.074,1.84-.147,2.87-.147,4.636v7.58c0,1.84.073,2.8.147,3.9-.957-.073-2.134-.147-3.385-.147H979.47v3.091h-6.7a48.7,48.7,0,0,0,.221-5.446V36.952C972.994,35.186,972.92,33.788,972.773,32.169Zm6.7,10.3h8.315V37.909H979.47Zm25.609,7.139c0,3.679-1.177,5.372-4.121,6.181a38.549,38.549,0,0,1-8.1.589c-1.03,0-1.693,0-3.311-.074a14.167,14.167,0,0,0-1.619-6.77c2.207.221,4.415.368,6.623.368,2.649,0,2.87-.147,2.87-1.84V8.841H970.344v2.281c0,11.186-.441,23.77-1.03,28.332-.809,6.7-1.766,9.861-5.078,16.411a24.536,24.536,0,0,0-6.328-5.372c4.562-8.022,5-11.848,5-40.033a66.058,66.058,0,0,0-.368-8.758,66.22,66.22,0,0,0,7.8.295H997.72a59.513,59.513,0,0,0,7.653-.295,62.568,62.568,0,0,0-.294,7.8ZM941.129,6.191,947.016.672a86.348,86.348,0,0,1,12.731,13.32l-6.108,5.961A74.255,74.255,0,0,0,941.129,6.191Zm-18.442,7.873L909,18.332V11.267l20.753-6.55V61.679h-7.065ZM907.634,39.013,902.483,47.7c-6.108-4.194-13.761-8.389-26.051-14.055a23.967,23.967,0,0,1-2.5-1.251,37.995,37.995,0,0,1,.295,5V56.822a80.84,80.84,0,0,0,.294,8.168H864.437a49.564,49.564,0,0,0,.442-8.242V9.577a47.344,47.344,0,0,0-.442-7.507h10.082a49.4,49.4,0,0,0-.294,7.727V23.485A216.29,216.29,0,0,1,907.634,39.013ZM849.8,56.454l-7.064,7.653A141.451,141.451,0,0,0,820.14,42.251,87.445,87.445,0,0,1,792.1,63.518a29.539,29.539,0,0,0-5.961-8.168,60.78,60.78,0,0,0,14.718-8.095c11.112-7.8,19.943-18.471,24.726-29.951l.81-1.914c-1.178.074-1.178.074-24.359.442a57.888,57.888,0,0,0-8.021.589L793.722,7a32.19,32.19,0,0,0,6.476.442h1.766l25.9-.368c4.121-.074,4.71-.148,6.55-.81l4.857,5a14.158,14.158,0,0,0-2.355,3.974,97.452,97.452,0,0,1-11.48,20.311,114.09,114.09,0,0,1,13.614,10.671C840.893,47.844,840.893,47.844,849.8,56.454Zm-84.138-.81c-5.225,4.048-10.008,6.55-19.281,10.008-1.619-3.679-2.5-4.93-5.74-8.536,8.978-2.281,14.792-5,20.459-9.714,5.445-4.563,8.61-9.052,11.848-17.22H737.106a74.729,74.729,0,0,0-9.419.368V21.572a52.277,52.277,0,0,0,9.566.515h35.029c4.563,0,6.035-.147,8.316-.662l4.2,4.709a33.146,33.146,0,0,0-2.061,4.637C778.905,41.588,773.312,49.757,765.659,55.644ZM742.405,12.52a56.632,56.632,0,0,0-8.463.368V3.837a41.912,41.912,0,0,0,8.61.515h25.683a41.918,41.918,0,0,0,8.61-.515v9.051a56.64,56.64,0,0,0-8.463-.368ZM1111.849,63h-10.67V52.921h10.67Z" fill="#fff" fill-rule="evenodd"/>
  </g>
</svg>
