<svg xmlns="http://www.w3.org/2000/svg" width="983.1" height="413.34" viewBox="0 0 983.1 413.34">
  <g id="txt" transform="translate(-65.23 -642.24)">
    <path id="パス_696" data-name="パス 696" d="M13.56-14.58H9.42a44.832,44.832,0,0,1-6.24-.36V-9.9a46.68,46.68,0,0,1,6.24-.36H30.66v9.18A30.039,30.039,0,0,1,30.3,4.8h5.46a29.627,29.627,0,0,1-.42-5.82v-9.24H50.1a46.68,46.68,0,0,1,6.24.36v-5.04a44.236,44.236,0,0,1-6.24.36H35.34V-25.74H45.96a45.386,45.386,0,0,1,5.46.24v-4.68a35.226,35.226,0,0,1-5.58.3H35.34v-9.24h13.2a35.69,35.69,0,0,1,5.58.3v-4.74a34.314,34.314,0,0,1-5.58.3H19.32c.3-.66.3-.66.78-1.74.96-2.1.96-2.1,1.32-2.82.36-.78.48-1.02.78-1.68l-5.04-1.26a25.35,25.35,0,0,1-1.5,4.38C12.9-39.9,9.72-35.64,3.72-30.54a10.694,10.694,0,0,1,3.3,3.6,48.186,48.186,0,0,0,9.96-12.18H30.66v9.24H17.64c-1.68,0-3-.06-4.26-.18a32.449,32.449,0,0,1,.18,3.54Zm4.62,0V-25.74H30.66v11.16ZM110.1-37.2V-2.76c0,1.44-.42,1.62-3.18,1.62a48.993,48.993,0,0,1-8.16-.72,16.433,16.433,0,0,1,1.2,4.92c2.7.18,4.62.24,6.72.24,6.84,0,8.16-.84,8.16-5.04V-36.3a46.679,46.679,0,0,1,.24-5.46,48.108,48.108,0,0,1-6.3.3H92.64c.06-1.14.06-1.38.12-4.74a24.168,24.168,0,0,1,.48-4.38H87.78a25.967,25.967,0,0,1,.36,5.22c0,1.14-.06,2.22-.12,3.9H72.48a48.824,48.824,0,0,1-6.24-.3,45.844,45.844,0,0,1,.24,5.52V-2.58a44.316,44.316,0,0,1-.42,6.84h5.46a45.256,45.256,0,0,1-.3-6.78V-37.2H87.66c-.84,7.02-2.64,11.58-6.12,15.66-2.58,2.94-4.92,4.74-9.72,7.44A16.133,16.133,0,0,1,75-10.32c6.06-3.78,9.3-6.72,12.12-11.1a26.58,26.58,0,0,0,3.3-6.96c2.94,6.6,8.28,12.42,15.9,17.34a17.011,17.011,0,0,1,3.12-4.2,38.494,38.494,0,0,1-11.52-9.12A35.017,35.017,0,0,1,91.86-34.5c.18-1.08.24-1.5.36-2.7Zm17.94,12.96c-1.26.06-1.56.06-1.98.06a16.6,16.6,0,0,1-2.52-.18l.6,4.56a29.226,29.226,0,0,1,4.5-.48c1.62-.06,2.76-.12,4.8-.3V-1.5a42.976,42.976,0,0,1-.36,6.12h4.86a35.621,35.621,0,0,1-.36-6.12V-20.94c2.88-.3,2.88-.3,4.98-.6.3.9.48,1.44.96,3.3l3.54-1.62a79.232,79.232,0,0,0-4.86-12.18l-3.18,1.68a42.429,42.429,0,0,1,2.28,5.16c-2.94.3-5.82.6-8.64.72,3.18-4.08,7.5-10.26,10.2-14.64.9-1.38,1.26-1.92,1.8-2.64l-4.08-2.22c-.72,2.16-2.82,5.82-6.24,11.04-.9-1.14-1.14-1.44-3.24-4.02a91.3,91.3,0,0,0,5.76-9.66,13.49,13.49,0,0,1,1.32-2.22l-4.32-1.74c-.54,2.4-2.52,6.3-5.34,10.56-.78-.84-1.08-1.2-2.1-2.22l-2.52,3.36a80.808,80.808,0,0,1,7.98,9.54c-1.08,1.56-1.62,2.22-2.16,2.94Zm36-15.3v-4.32a38.158,38.158,0,0,1,.36-5.64h-4.92a39.319,39.319,0,0,1,.36,5.64v4.32h-6.72a45.676,45.676,0,0,1-5.58-.24c.12,2.04.18,3.48.18,6.06V-2.28a51.03,51.03,0,0,1-.3,6.78h4.74a56.994,56.994,0,0,1-.24-6.54V-13.5a12.267,12.267,0,0,1,2.76,3.72,28.766,28.766,0,0,0,4.5-7.02,30.632,30.632,0,0,0,2.94-10.86,32.076,32.076,0,0,0,2.94,9.96,31.724,31.724,0,0,0,5.04,7.62,14.292,14.292,0,0,1,2.34-3.66V-2.22c0,1.14-.66,1.5-2.52,1.5a45.245,45.245,0,0,1-6.24-.54,14.1,14.1,0,0,1,1.08,4.68q2.43.18,5.4.18c5.28,0,6.54-.96,6.54-5.1V-33.6a60.185,60.185,0,0,1,.24-6.18,45.053,45.053,0,0,1-5.58.24ZM151.92-35.4h7.92a35.357,35.357,0,0,1-3.54,15.42,19.92,19.92,0,0,1-4.38,6.06Zm20.52,0v20.94a20.8,20.8,0,0,1-3.9-5.28,33.338,33.338,0,0,1-4.5-15.66Zm-45.9,18.24c-.3,7.56-.96,11.34-2.64,16.14L127.74.9c1.56-5.28,2.16-8.88,2.76-17.34Zm13.2.66A67.977,67.977,0,0,1,141.9-2.28l3.78-1.02a90.158,90.158,0,0,0-2.52-14.16Zm69.18-27.42H192.06a35.754,35.754,0,0,1-6.3-.42v4.8a45.726,45.726,0,0,1,6.18-.36h16.98v4.74h-11.4a42.912,42.912,0,0,1-6.66-.3,56.748,56.748,0,0,1,.24,6.36v9.72a55.016,55.016,0,0,1-.24,6.24,46.139,46.139,0,0,1,6.9-.3h11.16v4.86H191.58a33.17,33.17,0,0,1-6.3-.42v4.86a44.924,44.924,0,0,1,6.36-.36h17.28v2.52a41.18,41.18,0,0,1-.42,6.72h5.34a38.83,38.83,0,0,1-.42-6.72V-4.5h18.24a48.953,48.953,0,0,1,6.42.36V-9a32.251,32.251,0,0,1-6.36.42h-18.3v-4.86H225.6a45.7,45.7,0,0,1,6.84.3,52.363,52.363,0,0,1-.24-6.24v-9.84a53.015,53.015,0,0,1,.24-6.24,44.758,44.758,0,0,1-6.78.3H213.42V-39.9h17.76a49.611,49.611,0,0,1,6.3.36v-4.8a33.061,33.061,0,0,1-6.36.42h-17.7v-.66a31.087,31.087,0,0,1,.42-5.58H208.5a30.646,30.646,0,0,1,.42,5.58Zm0,12.6v5.1H195.6v-5.1Zm0,8.88v5.16H195.6v-5.16Zm4.5,5.16v-5.16H227.7v5.16Zm0-8.94v-5.1H227.7v5.1Zm49.68,4.14a13.835,13.835,0,0,1,2.46,3.72,26.813,26.813,0,0,0,3.66-4.5c-.06.36-.12,2.16-.18,5.46V-1.5a36.053,36.053,0,0,1-.42,6.36h4.5V1.98H292.8a45.44,45.44,0,0,1,5.7.36v-4.5a36.44,36.44,0,0,1-5.7.3h-6.96v-6.3h5.34a38.627,38.627,0,0,1,5.22.3v-4.26a31.543,31.543,0,0,1-5.34.3h-5.22V-17.7h5.34a38.077,38.077,0,0,1,5.22.3v-4.26a30.27,30.27,0,0,1-5.34.3h-5.22V-27.3h6.24c1.8,0,3.18.06,5.16.24v-4.26a31.19,31.19,0,0,1-5.28.3h-5.04a37,37,0,0,0,2.04-4.68c.12-.24.24-.6.42-1.08l-4.26-.96a30.108,30.108,0,0,1-2.46,6.72h-7.38a53.768,53.768,0,0,0,4.62-9.06h14.4v6.36h4.56a20.217,20.217,0,0,1-.24-3.48v-3.12a35.344,35.344,0,0,1,.18-4.08,40.621,40.621,0,0,1-5.82.3H281.34c.3-.84.9-2.76,1.86-5.76l-4.68-.72a50.39,50.39,0,0,1-1.56,6.48H270.3a28.789,28.789,0,0,1-4.98-.18c.06,1.38.12,2.4.12,3.06v4.02a21.544,21.544,0,0,1-.24,3.66h4.32v-6.54h6a44.958,44.958,0,0,1-5.58,10.2,35.74,35.74,0,0,1-6.84,7.68v-2.16c0-2.04.06-3.36.18-4.74a22,22,0,0,1-3.66.24H253.2a76.4,76.4,0,0,0,3.84-14.76h3.18a32.557,32.557,0,0,1,4.14.24V-48a28.069,28.069,0,0,1-5.28.36h-7.86A35.893,35.893,0,0,1,245.7-48v4.74a26.033,26.033,0,0,1,5.16-.36h1.86a59.8,59.8,0,0,1-2.16,10.14,41.037,41.037,0,0,1-7.2,13.98,16.21,16.21,0,0,1,2.28,4.38,31.879,31.879,0,0,0,3.84-6.84c-.18,1.92-.3,5.04-.3,5.94V-2.64a37.969,37.969,0,0,1-.36,5.82h4.5V-2.88h5.82V.42h4.14c-.12-1.38-.18-2.58-.18-4.92Zm10.02.72V-27.3h8.76v5.94Zm0,3.66h8.76v5.88h-8.76Zm0,9.54h8.76v6.3h-8.76ZM253.32-24.9h5.82v18h-5.82Zm52.92,5.28a32.392,32.392,0,0,1,3.72-.36c2.28-.18,2.28-.18,6.42-.54V-1.5a43.651,43.651,0,0,1-.36,6.24H321a44.5,44.5,0,0,1-.36-6.18v-19.5c2.46-.3,2.46-.3,3.78-.42.36-.06.84-.12,1.5-.18.36,1.14.6,1.74,1.14,3.66l3.66-1.56a73.662,73.662,0,0,0-5.16-11.52l-3.24,1.32a42.222,42.222,0,0,1,2.16,4.56c-3.18.36-4.2.48-8.82.78a147.576,147.576,0,0,0,10.8-14.76c.84-1.26,1.26-1.8,1.8-2.52l-4.08-2.4c-.84,2.1-2.58,4.98-6.78,11.1a53.235,53.235,0,0,0-3.6-3.96,89.736,89.736,0,0,0,5.82-9.36A9.657,9.657,0,0,1,321-48.42l-4.32-1.86c-.6,2.22-2.7,6.18-5.64,10.68l-2.34-2.34-2.58,3.36a61.805,61.805,0,0,1,8.82,9.12c-1.56,2.16-2.22,2.94-4.26,5.4-1.8.06-2.28.06-2.82.06a13.515,13.515,0,0,1-2.28-.18ZM353.7-36.06c-.06,12.78-.96,24.18-2.34,30.6-.84,3.84-1.5,4.56-4.32,4.56a46.71,46.71,0,0,1-7.92-.78,19.667,19.667,0,0,1,1.2,4.92c2.58.18,4.38.3,5.94.3,6.42,0,7.98-1.2,9.42-7.08,1.32-5.58,2.46-17.76,2.52-27.48.12-7.74.12-7.74.3-9.6a31.965,31.965,0,0,1-4.86.24H339.18c.72-1.8,1.14-2.82,1.74-4.62a29.274,29.274,0,0,1,1.38-3.66l-4.86-1.08a38.226,38.226,0,0,1-3,9.24,39.979,39.979,0,0,1-6.84,10.8,13.338,13.338,0,0,1,3.6,3,47.988,47.988,0,0,0,6-9.36ZM309.18-16.98c-.84,7.86-1.62,11.4-3.66,16.08l3.9,1.86c2.04-5.28,2.7-8.46,3.66-17.22Zm14.46.66a95.212,95.212,0,0,1,2.88,14.7l4.02-1.14a119.492,119.492,0,0,0-3.36-14.58Zm23.04,2.28a69.868,69.868,0,0,0-8.22-14.82l-3.72,2.16a58.525,58.525,0,0,1,7.86,14.94Zm49.14,2.52c-.12-1.32-.18-2.64-.18-3.36v-.9c.06-.6.06-1.32.12-2.28l.6-21.06c.06-2.46.18-4.5.42-6.78h-7.02c.24,2.22.36,4.2.42,6.78l.6,21.06V-15c0,1.38,0,1.98-.12,3.48ZM396.6.3V-6.06H390V.3Z" transform="translate(64 693)" fill="#fff"/>
    <path id="パス_695" data-name="パス 695" d="M4.77-20.49a20.642,20.642,0,0,1,2.76-.18H9.09V-3.54A20.955,20.955,0,0,1,8.85,0h3.33a21.185,21.185,0,0,1-.24-3.54V-18.3a48.316,48.316,0,0,1,.27-4.98,18.843,18.843,0,0,1-2.67.15H7.41a16.481,16.481,0,0,1-2.64-.15Zm20.46,0a20.642,20.642,0,0,1,2.76-.18h1.56V-3.54A20.955,20.955,0,0,1,29.31,0h3.33a21.185,21.185,0,0,1-.24-3.54V-18.3a48.316,48.316,0,0,1,.27-4.98,18.843,18.843,0,0,1-2.67.15H27.87a16.481,16.481,0,0,1-2.64-.15ZM63.09-7.56v6.21c0,.72-.21.87-1.23.87a26.821,26.821,0,0,1-4.2-.33,9.933,9.933,0,0,1,.6,2.43c1.5.09,2.43.12,3.3.12a5.721,5.721,0,0,0,2.97-.45c.63-.42.9-1.11.9-2.4V-20.67a27.362,27.362,0,0,1,.12-3.18,24.756,24.756,0,0,1-3.21.15H50.7a27.025,27.025,0,0,1-3.24-.15,47.609,47.609,0,0,1,.15,4.98c0,6.96-.33,10.56-1.17,13.41A12.034,12.034,0,0,1,42.96.24a7.918,7.918,0,0,1,1.95,1.92,15.831,15.831,0,0,0,3.36-5.4,21.588,21.588,0,0,0,1.14-4.32ZM49.68-9.75c.18-2.34.27-3.72.27-4.95H63.09v4.95Zm.3-7.14v-4.62H63.09v4.62ZM85.62,0a38.787,38.787,0,0,1,3.93.15V-2.76a27.7,27.7,0,0,1-3.87.21H76.41c.78-2.67,2.31-4.38,6.27-7.02,3.42-2.28,4.17-2.88,5.13-4.08a6.16,6.16,0,0,0,1.41-3.9c0-3.66-3.03-6.03-7.71-6.03-2.76,0-4.89.81-6.3,2.4a8.475,8.475,0,0,0-1.95,4.47l3.03.45a6.457,6.457,0,0,1,1.02-2.97,4.773,4.773,0,0,1,4.23-1.89c2.85,0,4.68,1.38,4.68,3.57,0,1.8-.99,3.09-3.84,5.01A42.705,42.705,0,0,0,77.7-9.15a13.719,13.719,0,0,0-3.96,5.37A13.23,13.23,0,0,0,72.9.12,30.785,30.785,0,0,1,76.38,0Zm20.46,0a38.787,38.787,0,0,1,3.93.15V-2.76a27.7,27.7,0,0,1-3.87.21H96.87c.78-2.67,2.31-4.38,6.27-7.02,3.42-2.28,4.17-2.88,5.13-4.08a6.16,6.16,0,0,0,1.41-3.9c0-3.66-3.03-6.03-7.71-6.03-2.76,0-4.89.81-6.3,2.4a8.475,8.475,0,0,0-1.95,4.47l3.03.45a6.457,6.457,0,0,1,1.02-2.97A4.773,4.773,0,0,1,102-21.12c2.85,0,4.68,1.38,4.68,3.57,0,1.8-.99,3.09-3.84,5.01a42.705,42.705,0,0,0-4.68,3.39A13.719,13.719,0,0,0,94.2-3.78a13.23,13.23,0,0,0-.84,3.9A30.785,30.785,0,0,1,96.84,0Zm11.1-1.41A25.818,25.818,0,0,1,117,1.92h2.61V0h15V1.92h2.61a25.361,25.361,0,0,1-.18-3.36V-20.67a20.447,20.447,0,0,1,.15-2.85,22.437,22.437,0,0,1-3.15.15H120.3a25.47,25.47,0,0,1-3.27-.15,29.606,29.606,0,0,1,.15,3.03Zm2.43-19.74h15v7.98h-15Zm0,10.2h15v8.73h-15ZM152.67,3.51a21.12,21.12,0,0,1-3.06-6.03,22.535,22.535,0,0,1-.99-6.75,22.337,22.337,0,0,1,.99-6.72,21.12,21.12,0,0,1,3.06-6.03l-2.25-1.5a24.523,24.523,0,0,0-3.18,6.12,23.987,23.987,0,0,0-1.38,8.13,23.862,23.862,0,0,0,1.38,8.13,24.025,24.025,0,0,0,3.18,6.12Zm14.61-17.94v3.75h-7.59a19.91,19.91,0,0,1-3.03-.18v2.43a22.076,22.076,0,0,1,3-.18h7.62v7.56h-8.04a29.279,29.279,0,0,1-3.51-.18V1.32a27.7,27.7,0,0,1,3.54-.21h18.9a23.339,23.339,0,0,1,3.39.21V-1.23a25.677,25.677,0,0,1-3.36.18h-8.61V-8.61h8.13a21.488,21.488,0,0,1,3.06.18v-2.43a19.112,19.112,0,0,1-3.03.18h-8.16v-3.75h3.27a17.8,17.8,0,0,1,2.82.15V-16.2a32.45,32.45,0,0,0,5.91,3.09,10.437,10.437,0,0,1,1.32-2.31,27.194,27.194,0,0,1-7.89-4.02,19.6,19.6,0,0,1-5.16-5.19h-2.7c-2.37,3.9-6.75,7.14-12.54,9.3A7.14,7.14,0,0,1,156-13.2a29.593,29.593,0,0,0,5.46-2.88v1.8a19.178,19.178,0,0,1,2.85-.15Zm-3.03-1.98c-.96,0-1.44-.03-2.16-.06a24.97,24.97,0,0,0,6.45-6.15,26.178,26.178,0,0,0,6.66,6.12,22.932,22.932,0,0,1-2.31.09Zm-4.74,9.45a21.337,21.337,0,0,1,2.55,5.25l2.1-.84a34.954,34.954,0,0,0-2.55-5.31Zm15.87-.84a20.245,20.245,0,0,1-2.82,5.52l2.01.78a39.657,39.657,0,0,0,3.06-5.4Zm11.7,12.78a24.025,24.025,0,0,0,3.18-6.12,23.739,23.739,0,0,0,1.38-8.13,23.987,23.987,0,0,0-1.38-8.13,24.522,24.522,0,0,0-3.18-6.12l-2.25,1.5a21.119,21.119,0,0,1,3.06,6.03,22.2,22.2,0,0,1,.99,6.72,22.393,22.393,0,0,1-.99,6.75,21.119,21.119,0,0,1-3.06,6.03ZM198.57-9.84c2.01-2.1,3.45-2.85,5.49-2.85,1.8,0,2.91.45,5.34,2.19a14.117,14.117,0,0,0,4.14,2.37,8.4,8.4,0,0,0,2.79.48,8.417,8.417,0,0,0,4.08-1.05,12.244,12.244,0,0,0,3.51-3.21l-1.77-1.65a8.306,8.306,0,0,1-3.33,2.88,5.5,5.5,0,0,1-2.34.51c-1.65,0-3.24-.66-5.67-2.37a15.5,15.5,0,0,0-2.79-1.77,8.226,8.226,0,0,0-3.78-.87,8.039,8.039,0,0,0-4.41,1.26,11.463,11.463,0,0,0-3,2.49Zm31.86-10.65a20.642,20.642,0,0,1,2.76-.18h1.56V-3.54A20.956,20.956,0,0,1,234.51,0h3.33a21.185,21.185,0,0,1-.24-3.54V-18.3a48.314,48.314,0,0,1,.27-4.98,18.843,18.843,0,0,1-2.67.15h-2.13a16.481,16.481,0,0,1-2.64-.15ZM260.55,0a38.787,38.787,0,0,1,3.93.15V-2.76a27.7,27.7,0,0,1-3.87.21h-9.27c.78-2.67,2.31-4.38,6.27-7.02,3.42-2.28,4.17-2.88,5.13-4.08a6.16,6.16,0,0,0,1.41-3.9c0-3.66-3.03-6.03-7.71-6.03-2.76,0-4.89.81-6.3,2.4a8.475,8.475,0,0,0-1.95,4.47l3.03.45a6.457,6.457,0,0,1,1.02-2.97,4.773,4.773,0,0,1,4.23-1.89c2.85,0,4.68,1.38,4.68,3.57,0,1.8-.99,3.09-3.84,5.01a42.706,42.706,0,0,0-4.68,3.39,13.719,13.719,0,0,0-3.96,5.37,13.23,13.23,0,0,0-.84,3.9A30.785,30.785,0,0,1,251.31,0Zm28.2-7.56v6.21c0,.72-.21.87-1.23.87a26.821,26.821,0,0,1-4.2-.33,9.932,9.932,0,0,1,.6,2.43c1.5.09,2.43.12,3.3.12a5.721,5.721,0,0,0,2.97-.45c.63-.42.9-1.11.9-2.4V-20.67a27.362,27.362,0,0,1,.12-3.18,24.756,24.756,0,0,1-3.21.15H276.36a27.025,27.025,0,0,1-3.24-.15,47.611,47.611,0,0,1,.15,4.98c0,6.96-.33,10.56-1.17,13.41a12.034,12.034,0,0,1-3.48,5.7,7.918,7.918,0,0,1,1.95,1.92,15.83,15.83,0,0,0,3.36-5.4,21.589,21.589,0,0,0,1.14-4.32ZM275.34-9.75c.18-2.34.27-3.72.27-4.95h13.14v4.95Zm.3-7.14v-4.62h13.11v4.62Zm25.98-3.6a20.643,20.643,0,0,1,2.76-.18h1.56V-3.54A20.956,20.956,0,0,1,305.7,0h3.33a21.185,21.185,0,0,1-.24-3.54V-18.3a48.318,48.318,0,0,1,.27-4.98,18.843,18.843,0,0,1-2.67.15h-2.13a16.481,16.481,0,0,1-2.64-.15ZM322.38-1.41a25.82,25.82,0,0,1-.18,3.33h2.61V0h15V1.92h2.61a25.361,25.361,0,0,1-.18-3.36V-20.67a20.447,20.447,0,0,1,.15-2.85,22.437,22.437,0,0,1-3.15.15H325.5a25.47,25.47,0,0,1-3.27-.15,29.608,29.608,0,0,1,.15,3.03Zm2.43-19.74h15v7.98h-15Zm0,10.2h15v8.73h-15ZM357.87,3.51a21.119,21.119,0,0,1-3.06-6.03,22.535,22.535,0,0,1-.99-6.75,22.337,22.337,0,0,1,.99-6.72,21.119,21.119,0,0,1,3.06-6.03l-2.25-1.5a24.522,24.522,0,0,0-3.18,6.12,23.987,23.987,0,0,0-1.38,8.13,23.863,23.863,0,0,0,1.38,8.13,24.024,24.024,0,0,0,3.18,6.12Zm6.15-4.92a25.82,25.82,0,0,1-.18,3.33h2.61V0h15V1.92h2.61a25.361,25.361,0,0,1-.18-3.36V-20.67a20.447,20.447,0,0,1,.15-2.85,22.437,22.437,0,0,1-3.15.15H367.14a25.47,25.47,0,0,1-3.27-.15,29.608,29.608,0,0,1,.15,3.03Zm2.43-19.74h15v7.98h-15Zm0,10.2h15v8.73h-15ZM392.28,4.98a24.025,24.025,0,0,0,3.18-6.12,23.738,23.738,0,0,0,1.38-8.13,23.987,23.987,0,0,0-1.38-8.13,24.523,24.523,0,0,0-3.18-6.12l-2.25,1.5a21.12,21.12,0,0,1,3.06,6.03,22.2,22.2,0,0,1,.99,6.72,22.393,22.393,0,0,1-.99,6.75,21.12,21.12,0,0,1-3.06,6.03Z" transform="translate(64 853)" fill="#fff"/>
    <path id="パス_694" data-name="パス 694" d="M13.56-24.63a19.036,19.036,0,0,1,.12,2.52c0,6.75-1.56,11.82-4.98,16.17A20.223,20.223,0,0,1,1.44-.06,6.609,6.609,0,0,1,3.24,2.1,26.5,26.5,0,0,0,8.55-2.01a20.9,20.9,0,0,0,4.38-6.06,23.377,23.377,0,0,0,2.13-6.51A25.278,25.278,0,0,0,18.99-5.4a28.205,28.205,0,0,0,7.86,7.5,7.487,7.487,0,0,1,1.8-2.28,23.558,23.558,0,0,1-3.27-2.16,26.825,26.825,0,0,1-4.29-4.38,25.772,25.772,0,0,1-4.14-8.4,36.631,36.631,0,0,1-.75-6.78,21.393,21.393,0,0,1,.18-2.73Zm40.05,4.17a20.07,20.07,0,0,1,3.75.21v-2.49a24.542,24.542,0,0,1-3.75.21H39.03c.33-.6.48-.93.78-1.53.27-.57.33-.66.51-1.02l-2.49-.48a6,6,0,0,1-.6,1.8,21.194,21.194,0,0,1-5.67,7.35,4,4,0,0,1,1.65,1.59,24.172,24.172,0,0,0,4.65-5.64Zm-3,19.74a69.573,69.573,0,0,0-5.76-4.77,29.969,29.969,0,0,0,2.43-2.94c.72-.99.72-.99,1.2-1.59l-2.31-1.23a13.532,13.532,0,0,1-3.09,4.44c-2.22-1.53-3.3-2.22-5.64-3.57L35.88-8.94a54.886,54.886,0,0,1,5.64,3.66A28.5,28.5,0,0,1,32.46-.03a6.205,6.205,0,0,1,1.68,2.01,33.049,33.049,0,0,0,9.15-5.94,45.35,45.35,0,0,1,5.67,5.1Zm1.17-11.13c.06,4.77.39,7.5,1.2,9.78.84,2.37,2.31,4.08,3.54,4.08,1.47,0,2.31-1.89,2.79-6.18a5.74,5.74,0,0,1-1.92-1.38c-.15,2.52-.63,4.83-.99,4.83-.33,0-.96-1.08-1.38-2.28A28.265,28.265,0,0,1,54-11.4a23.839,23.839,0,0,1,.12-2.61,29.877,29.877,0,0,1-3.42.12H36.09a20.763,20.763,0,0,1-2.73-.15v2.37a22.462,22.462,0,0,1,3.18-.18Zm-14.64-4.2a17.8,17.8,0,0,1,2.82-.15H51.9a19.425,19.425,0,0,1,3,.15v-2.31a21.849,21.849,0,0,1-3,.15H39.63a16.39,16.39,0,0,1-2.49-.12ZM74.85-1.98A5.884,5.884,0,0,1,76.14.45a19.836,19.836,0,0,0,5.01-1.56,11.07,11.07,0,0,0,6.57-10.38c0-6.33-4.53-10.53-11.34-10.53a12.819,12.819,0,0,0-9.87,4.05,12.487,12.487,0,0,0-3.21,8.4c0,4.38,2.22,7.59,5.25,7.59,2.25,0,4.05-1.8,5.76-5.73a43.6,43.6,0,0,0,3-12,7.918,7.918,0,0,1,3.36.81,7.747,7.747,0,0,1,4.44,7.29A8.811,8.811,0,0,1,80.37-3.6,16.4,16.4,0,0,1,74.85-1.98Zm-.12-17.67a40.964,40.964,0,0,1-2.67,10.8c-1.23,2.82-2.37,4.2-3.54,4.2-1.56,0-2.76-2.16-2.76-4.89a10.238,10.238,0,0,1,4.68-8.7A8.485,8.485,0,0,1,74.73-19.65ZM92.37-6.63a7.67,7.67,0,0,0,1.53,4.2C95.31-.6,97.89.39,101.28.39c5.28,0,8.34-2.52,8.34-6.87a5.335,5.335,0,0,0-2.1-4.56,11,11,0,0,0-4.83-1.92,22.785,22.785,0,0,1-4.29-1.08,3.333,3.333,0,0,1-2.43-3.21c0-2.28,2.04-3.84,5.01-3.84a5.4,5.4,0,0,1,4.26,1.65,4.547,4.547,0,0,1,.99,2.37l3.03-.39a7.192,7.192,0,0,0-1.35-3.24c-1.38-1.86-3.78-2.85-6.87-2.85-4.83,0-7.95,2.52-7.95,6.39a5.259,5.259,0,0,0,2.67,4.77,13.055,13.055,0,0,0,4.2,1.53c3.81.84,4.08.9,5.04,1.44a3.333,3.333,0,0,1,1.68,3.09c0,2.64-2.07,4.23-5.46,4.23a5.93,5.93,0,0,1-4.86-1.98,4.831,4.831,0,0,1-.9-2.88Zm37.32-16.5a20.085,20.085,0,0,1,.24,3.63V-8.64c0,4.26-2.31,6.6-6.54,6.6s-6.57-2.37-6.57-6.6V-19.5a19.058,19.058,0,0,1,.24-3.63h-3.3A19.874,19.874,0,0,1,114-19.5V-8.55c0,5.79,3.33,9,9.33,9a9.716,9.716,0,0,0,7.05-2.46,9.015,9.015,0,0,0,2.37-6.54V-19.56a19.574,19.574,0,0,1,.24-3.57Zm10.65,3.09a19.968,19.968,0,0,1-.84-3.09h-3.63a29.776,29.776,0,0,1,1.53,3.51l6.42,16.74A23.54,23.54,0,0,1,144.78,0h3.54a22.568,22.568,0,0,1,.93-2.88l6.42-16.74a22.577,22.577,0,0,1,1.53-3.51h-3.63a14.338,14.338,0,0,1-.87,3.09L147.27-4.83c-.24.63-.36.99-.72,2.16-.33-1.08-.57-1.8-.69-2.16Zm27.75-.42a37.756,37.756,0,0,1-6.45-.36l-.06,2.46a2.844,2.844,0,0,1,.63-.06,5.167,5.167,0,0,1,.6.03c.63.03,3.6.09,4.2.09.12,0,.45-.03.54-.03-.18.33-.18.33-.27.48a29.864,29.864,0,0,1-6.57,8.28l1.98,1.98a10.735,10.735,0,0,1,2.4-2.55c2.37-2.04,4.68-3.15,6.51-3.15,1.35,0,2.04.66,2.22,2.13a23.625,23.625,0,0,0-4.41,2.4c-2.13,1.53-3.18,3.15-3.18,4.86a4,4,0,0,0,2.04,3.6A12.422,12.422,0,0,0,174.42.87,50.575,50.575,0,0,0,181.89.3a7.137,7.137,0,0,1,1.23-.15l-.27-2.76a25.215,25.215,0,0,1-8.16,1.2c-4.23,0-5.94-.78-5.94-2.67,0-1.02.54-1.86,1.77-2.82a18.407,18.407,0,0,1,3.6-1.98v.93a37.742,37.742,0,0,1-.18,3.99l2.46-.03a8.244,8.244,0,0,1-.06-1.23V-6.45c.03-.6.03-1.23.03-1.56,0-.66,0-.75-.03-1.74a46.171,46.171,0,0,1,7.95-2.55l-1.08-2.46a8.43,8.43,0,0,1-2.1.87c-1.47.51-2.7.96-5.04,1.86a3.722,3.722,0,0,0-4.05-3.27,7.742,7.742,0,0,0-4.14,1.23,6.8,6.8,0,0,0-1.02.75,4.106,4.106,0,0,0-.42.3.371.371,0,0,1-.06-.09l.06-.06c0-.03.12-.12.3-.24a8.448,8.448,0,0,0,.96-1.11,22.558,22.558,0,0,0,2.43-3.81c2.94-.09,6.78-.36,8.85-.63,1.74-.24,1.74-.24,2.31-.3l-.18-2.4a39.675,39.675,0,0,1-8.1,1.05c-1.68.09-1.68.09-1.89.12a19.588,19.588,0,0,0,.9-2.01,6.469,6.469,0,0,1,.72-1.53l-2.82-.42a13.041,13.041,0,0,1-1.35,3.99Zm31.17,5.13a.227.227,0,0,1,.12-.03,1.378,1.378,0,0,1,.3.03,5.207,5.207,0,0,1,.54.03c.09,0,.42.03.9.06,1.08.09,2.19.12,3.39.12,1.11,0,1.86-.03,3.3-.09.15,4.86.21,6.75.3,7.41a8.438,8.438,0,0,0-3.12-.54c-3.42,0-5.85,1.86-5.85,4.47,0,2.73,2.22,4.44,5.79,4.44,2.58,0,4.53-.93,5.25-2.52a5.027,5.027,0,0,0,.36-2.07,4.645,4.645,0,0,0-.03-.63c.15.09.15.12.27.18a3.484,3.484,0,0,1,.33.21,17.952,17.952,0,0,1,3.12,2.13,8.349,8.349,0,0,1,.9.87l1.08-2.55a3.172,3.172,0,0,1-.78-.51,23.75,23.75,0,0,0-4.92-2.88c-.3-5.07-.3-5.43-.33-8.19a41.129,41.129,0,0,0,4.74-.78,4.275,4.275,0,0,1,.48-.09l-.12-2.4a22.1,22.1,0,0,1-5.1,1.08v-1.68a33.029,33.029,0,0,1,.18-4.38h-2.67c.03.3.06.75.06,1.29.03,2.07.03,2.07.03,4.95-.99.03-1.68.06-2.85.06a24.122,24.122,0,0,1-5.64-.45Zm8.91,9.75v.87a3.356,3.356,0,0,1-.51,2.1,3.929,3.929,0,0,1-2.85.99c-1.95,0-3.27-.9-3.27-2.25,0-1.41,1.41-2.31,3.57-2.31A7.706,7.706,0,0,1,208.17-5.58ZM194.34-3.96v-.72a4.69,4.69,0,0,0-.03-.75c-.03-1.38-.06-2.85-.06-3.54,0-4.92,1.05-11.43,2.34-14.34l-2.85-.39a9.019,9.019,0,0,1-.33,2.01,51.914,51.914,0,0,0-1.5,12.3,48,48,0,0,0,.84,9.12A5.312,5.312,0,0,1,192.9.84l2.61-.21a3.39,3.39,0,0,1-.06-.66c0-1.83,1.29-5.91,2.7-8.7l-1.89-.84c-.09.27-.12.36-.27.72a31.257,31.257,0,0,0-1.56,4.92Zm30.75-19.41a10.146,10.146,0,0,1,.09,1.65l-.03,2.01c-.21,9.42-.24,10.35-.24,12.18a15.411,15.411,0,0,0,.42,3.99,6.1,6.1,0,0,0,2.22,3.18A8.644,8.644,0,0,0,232.56.96a10.826,10.826,0,0,0,8.52-3.78c1.35-1.56,2.22-3.36,3.39-7.05a8.283,8.283,0,0,1-2.55-1.71,17.331,17.331,0,0,1-1.47,4.83,8.373,8.373,0,0,1-7.71,5.19c-2.07,0-3.6-.63-4.38-1.77-.63-.99-.84-2.13-.84-4.83,0-2.04.18-9.3.3-11.49a28.26,28.26,0,0,1,.33-3.69Zm9.51,1.65a20.939,20.939,0,0,1,3.12,4.74l1.77-.99a23.477,23.477,0,0,0-3.15-4.65Zm3.48-1.62a21.987,21.987,0,0,1,3.09,4.65l1.74-.99a22.386,22.386,0,0,0-3.15-4.56Zm28.41-.48a32.461,32.461,0,0,1-.9,4.77h-.84a14.987,14.987,0,0,0-6.36,1.38,35.525,35.525,0,0,1-.78-5.1l-2.61.51a6.941,6.941,0,0,1,.39,1.62c.27,1.5.66,3.42.87,4.2a11.116,11.116,0,0,0-3,3.06,10.768,10.768,0,0,0-1.77,5.82c0,3.66,1.83,6.12,4.53,6.12,1.83,0,3.69-1.2,5.67-3.6a35.684,35.684,0,0,0,5.7-11.58c3.84.84,5.91,3.15,5.91,6.6,0,3.39-1.92,5.91-5.64,7.41a14.5,14.5,0,0,1-4.59,1.11A5.576,5.576,0,0,1,264.45.93a22.689,22.689,0,0,0,4.59-1.35c4.38-1.86,6.81-5.22,6.81-9.45,0-4.59-2.88-7.83-7.86-8.88.12-.48.15-.63.39-1.53a13.918,13.918,0,0,1,.81-3Zm-9.6,9.81a37.751,37.751,0,0,0,2.7,7.74c-1.26,1.56-2.43,2.37-3.45,2.37-1.38,0-2.31-1.47-2.31-3.63A8.479,8.479,0,0,1,256.89-14.01Zm4.32,5.76a5.682,5.682,0,0,0-.18-.54,42.3,42.3,0,0,1-2.16-6.6,10.822,10.822,0,0,1,5.55-1.47h.57a35.186,35.186,0,0,1-3.48,8.04,3.831,3.831,0,0,0-.21.36.507.507,0,0,1-.06.15ZM280.2-4.53a29.717,29.717,0,0,1,6.09,6.63L288.33.15a32.569,32.569,0,0,0-6.24-6.42Zm42.42-20.55a20.165,20.165,0,0,1-4.14,4.77,29.915,29.915,0,0,1-8.52,5.37,8.32,8.32,0,0,1,1.41,2.1,34.455,34.455,0,0,0,6.9-4.23A29.932,29.932,0,0,0,324-22.98a25.691,25.691,0,0,0,5.7,5.85,40.486,40.486,0,0,0,7.26,4.41,7.391,7.391,0,0,1,1.38-2.31,28.146,28.146,0,0,1-6.99-3.84,22.29,22.29,0,0,1-6.06-6.21Zm-5.01,11.31a19.623,19.623,0,0,1,2.52-.12h7.86a22.894,22.894,0,0,1,2.67.12v-2.4a19.462,19.462,0,0,1-2.58.12h-8.04a16.758,16.758,0,0,1-2.43-.12Zm16.17,3.24a18.492,18.492,0,0,1-3.27.15H317.07a33.424,33.424,0,0,1-3.57-.18v2.55c1.29-.12,2.37-.18,3.54-.18h14.49l-5.61,6.81a16.767,16.767,0,0,1-2.4,2.43l2.55,1.44c.6-.9,1.17-1.65,1.98-2.67l5.91-7.32c.33-.42.96-1.11,1.26-1.41Zm22.11-9.75c-3.36.09-4.68.12-7.23.21-4.53.18-4.71.18-5.52.18-.45,0-.69,0-1.29-.03l.09,2.58c1.86-.3,8.85-.69,13.98-.78,0,1.65.03,3.21.06,3.48v.21a4.518,4.518,0,0,0-3.33-1.2c-3.21,0-5.55,2.16-5.55,5.1a4.851,4.851,0,0,0,5.1,4.89,4.883,4.883,0,0,0,3.78-1.56,4.774,4.774,0,0,0,.81-1.32,6.731,6.731,0,0,1-.87,3.03c-1.29,2.34-3.6,3.81-7.47,4.86a7.726,7.726,0,0,1,1.53,2.31,19.359,19.359,0,0,0,4.95-2.43,9.436,9.436,0,0,0,4.11-7.92,8.692,8.692,0,0,0-.75-3.72v-5.76c2.4-.03,2.91-.03,3.33-.03a52.062,52.062,0,0,1,5.52.15v-2.52c-.99.12-3.27.18-8.88.21a25.729,25.729,0,0,1,.15-3.93h-2.7a13.452,13.452,0,0,1,.15,1.74Zm-3.03,6.66a3.393,3.393,0,0,1,2.37.87,2.017,2.017,0,0,1,.6,1.59,3.174,3.174,0,0,1-3.33,3.3,2.765,2.765,0,0,1-2.94-2.85A3.055,3.055,0,0,1,352.86-13.62Zm33.93-10.8c-1.11,1.71-4.68,5.04-8.88,8.25a23.985,23.985,0,0,0-2.58,2.07,3.221,3.221,0,0,0-.9,2.13c0,1.14.51,1.83,2.25,3.21a98.29,98.29,0,0,1,7.65,6.3,28.158,28.158,0,0,1,3.87,4.11l2.25-2.22a7.932,7.932,0,0,1-.87-.75,87.314,87.314,0,0,0-9.57-8.1c-2.49-1.89-2.67-2.07-2.67-2.58,0-.39.24-.63,1.26-1.44,3.57-2.73,5.52-4.32,6.99-5.7,2.91-2.76,3.27-3.12,3.69-3.42Zm4.17,5.64a21.988,21.988,0,0,1,3.09,4.65l1.74-.99a22.385,22.385,0,0,0-3.15-4.56Zm-3.48,1.62a20.939,20.939,0,0,1,3.12,4.74l1.77-.99a23.477,23.477,0,0,0-3.15-4.65ZM405.57-3.93c0-.51-.03-.63-.03-1.29-.03-.81-.06-2.25-.06-2.85a55.591,55.591,0,0,1,.69-9.18,36.475,36.475,0,0,1,1.5-5.97l-2.85-.39a18.408,18.408,0,0,1-.42,2.55,51.492,51.492,0,0,0-1.32,11.88,45.308,45.308,0,0,0,.78,8.55c.09.6.12.78.18,1.26l2.61-.18a4.48,4.48,0,0,1-.03-.57c0-1.83,1.02-5.28,2.52-8.46l-1.8-.84a26.034,26.034,0,0,0-1.74,5.49Zm5.67-13.71c.24.03.3.03.48.06a3.7,3.7,0,0,0,.54.06,36.087,36.087,0,0,0,4.02.21,51.832,51.832,0,0,0,6.39-.39q1.935-.27,2.07-.27l-.15-2.55a33.225,33.225,0,0,1-8.22.81,20.728,20.728,0,0,1-5.07-.45Zm2.16,5.61c-1.86,2.16-2.67,3.9-2.67,5.67a4.838,4.838,0,0,0,.9,2.88c1.26,1.62,3.51,2.37,7.05,2.37a34.329,34.329,0,0,0,6.18-.57c.63-.12.69-.12,1.08-.18l-.27-2.73a20.8,20.8,0,0,1-6.99,1.05c-3.63,0-5.49-1.02-5.49-3.06,0-1.32.69-2.7,2.25-4.41Zm22.89-5.13v3.06h-2.16a22.553,22.553,0,0,1-3.09-.18v2.31a21.365,21.365,0,0,1,3.09-.18h2.16v3.42h-1.11a26.493,26.493,0,0,1-2.94-.15v2.16a24.313,24.313,0,0,1,3.12-.18h6.33a19.43,19.43,0,0,1-4.05,3.24,28.085,28.085,0,0,1-7.29,3.12,7.948,7.948,0,0,1,1.38,2.1c5.25-1.89,8.04-3.69,11.4-7.26-.06.78-.09,1.53-.12,2.19V-.69a18.633,18.633,0,0,1-.21,3.21h2.61a15.514,15.514,0,0,1-.21-3.21V-3.51c0-.57-.03-1.05-.12-2.22,3.12,3.39,6.42,5.43,11.91,7.29a11.161,11.161,0,0,1,1.32-2.31,25.11,25.11,0,0,1-6.87-2.52,22.026,22.026,0,0,1-4.95-3.63h6.96a23.026,23.026,0,0,1,3.12.18V-8.88a26.493,26.493,0,0,1-2.94.15h-1.44v-3.42h2.34a18.152,18.152,0,0,1,3.12.18v-2.31a22.719,22.719,0,0,1-3.12.18h-2.34v-3.06h1.41a28.659,28.659,0,0,1,2.94.15v-2.16a22.415,22.415,0,0,1-3.12.18H445.2v-2.88c3.21-.3,5.58-.66,8.46-1.2.57-.12.69-.15,1.14-.21l-1.53-2.07a18.6,18.6,0,0,1-4.35,1.02,99.485,99.485,0,0,1-14.67,1.08h-1.08a8.035,8.035,0,0,1,.87,2.04c3.03-.06,3.03-.06,8.97-.48v2.7h-7.68a22.718,22.718,0,0,1-3.12-.18v2.16a22.093,22.093,0,0,1,2.94-.15Zm2.16,0h4.56v3.06h-4.56Zm0,5.01h4.56v3.42h-4.56Zm11.58,3.42H445.2v-3.42h4.83Zm0-5.37H445.2v-3.06h4.83ZM462.81-3.48a7.814,7.814,0,0,1,.75-.96c.51-.57.9-1.02,1.23-1.35.84-.93.84-.93,1.35-1.56a4.959,4.959,0,0,0,.57-.75l.06.03a12.229,12.229,0,0,0-.12,1.83c0,6.33,0,6.39-.21,7.65h2.79c-.09-.93-.12-3.21-.12-8.4,0-.69,0-1.5.03-3.03,4.35-4.47,8.01-7.02,9.99-7.02a1.377,1.377,0,0,1,1.53,1.53,21.679,21.679,0,0,1-.69,4.17c-1.14,5.28-1.2,5.7-1.2,7.23A3.9,3.9,0,0,0,480.24-.6a3.938,3.938,0,0,0,2.28.66,5.391,5.391,0,0,0,4.17-2.16,14.545,14.545,0,0,0,1.92-2.97,11.8,11.8,0,0,1-1.59-2.46,13.043,13.043,0,0,1-1.71,3.42,3.391,3.391,0,0,1-2.37,1.62c-1.08,0-1.65-.69-1.65-1.92a21.339,21.339,0,0,1,.63-4.11c1.29-5.79,1.35-6.09,1.35-7.38a3.449,3.449,0,0,0-3.69-3.63c-1.8,0-3.93.99-6.66,3.15a20.475,20.475,0,0,0-3.78,3.42l-.06-.03a17.713,17.713,0,0,0,.09-1.83c0-.09.03-.33.03-.69,0-.15.03-.36.03-.66a9.081,9.081,0,0,1,1.56-1.86l-.87-1.05a1.821,1.821,0,0,1-.54.15,38.42,38.42,0,0,1,.36-5.19l-2.76-.06c.03.57.06.9.06,1.29,0,.66-.03,2.04-.09,4.17-2.1.15-3.39.21-3.84.21a6.541,6.541,0,0,1-1.02-.06l.12,2.46a37.829,37.829,0,0,1,4.68-.42c-.06,1.71-.06,1.71-.09,2.58-.03,1.41-.06,2.34-.06,2.79-.63.66-2.31,2.37-3.45,3.48a11.457,11.457,0,0,1-1.86,1.59Zm34.05-16.5a14.944,14.944,0,0,1,1.59-.15c4.38-.18,7.77-.36,8.88-.54a.661.661,0,0,0,.24-.03l.03.06-.33.33-.24.24c-4.5,4.44-11.31,10.08-13.95,11.55l1.53,2.28a19.054,19.054,0,0,1,12.6-5.1c3.93,0,6.3,1.65,6.3,4.41a4.587,4.587,0,0,1-2.04,3.84,7.222,7.222,0,0,1-2.46,1.14,8.412,8.412,0,0,0-1.35-2.85,6.154,6.154,0,0,0-5.01-2.46c-2.64,0-4.59,1.59-4.59,3.72a4.093,4.093,0,0,0,.9,2.52C500.07.27,502.11.93,505.05.93c6.63,0,11.04-3.18,11.04-7.92,0-3.9-3.24-6.42-8.28-6.42a14.679,14.679,0,0,0-7.05,1.74l-.06-.12a72.056,72.056,0,0,0,9.69-8.19,5.418,5.418,0,0,1,1.53-1.26l-1.44-1.95a3.037,3.037,0,0,1-1.56.36c-2.67.21-6.63.39-9.15.39a15.878,15.878,0,0,1-3.03-.18Zm9.81,18.63a10.45,10.45,0,0,1-1.98.18c-2.61,0-4.26-.9-4.26-2.31,0-1.05.87-1.71,2.22-1.71C504.69-5.19,506.04-3.87,506.67-1.35Zm19.2-21.78c-1.77,0-2.55-.03-3.42-.06a19.09,19.09,0,0,1,.24,3.33V-3.72a18.959,18.959,0,0,1-.27,3.78C523.53,0,524.37,0,525.87,0h6.93c4.71,0,7.38-2.31,7.38-6.39a5.829,5.829,0,0,0-1.83-4.53,5.248,5.248,0,0,0-2.94-1.29,5.491,5.491,0,0,0,2.34-1.23,5.179,5.179,0,0,0,1.62-4.05c0-3.63-2.49-5.64-6.9-5.64Zm-.39,9.78V-20.7h6.81c2.79,0,4.23,1.2,4.23,3.51,0,2.46-1.53,3.84-4.2,3.84Zm0,2.4h6.93c3.21,0,4.86,1.47,4.86,4.29,0,2.76-1.68,4.23-4.77,4.23h-7.02Zm40.11,7.17A25.756,25.756,0,0,1,565.35,0h3.15a20.857,20.857,0,0,1-.24-3.78V-19.32a23,23,0,0,1,.24-3.81h-4.05a14.041,14.041,0,0,1-1.02,3.15L556.41-3.93l-7.02-16.05a18.232,18.232,0,0,1-1.02-3.15h-4.05a23,23,0,0,1,.24,3.81V-3.78A21.936,21.936,0,0,1,544.32,0h3.15a21.275,21.275,0,0,1-.24-3.78V-14.34c0-.9-.09-3.36-.21-5.55A39.95,39.95,0,0,0,549-14.61l4.95,11.22A14.248,14.248,0,0,1,555.12,0h2.52a17.639,17.639,0,0,1,1.2-3.36l5.1-11.43a28.3,28.3,0,0,0,1.86-5.07c-.09,1.35-.21,4.23-.21,5.31Zm19.44-19.35a18.342,18.342,0,0,1-.66,2.97L580.5-7.29c-.15.45-.63,2.49-.84,3.6-.3-1.56-.63-3.12-.78-3.69l-3.33-12.6a16.027,16.027,0,0,1-.57-3.15h-3.54a22.051,22.051,0,0,1,1.2,3.45l4.77,16.65A28.162,28.162,0,0,1,578.22,0h2.79a23.159,23.159,0,0,1,.75-2.94l3.72-12.45c.24-.81.57-2.07.9-3.57a34.434,34.434,0,0,0,.87,3.57L591-2.94A23.547,23.547,0,0,1,591.75,0h2.82c.12-.63.12-.63.78-3.03l4.77-16.65a23.721,23.721,0,0,1,1.17-3.45h-3.51a16.1,16.1,0,0,1-.54,3.15L593.91-7.41c-.09.3-.36,1.53-.78,3.72-.51-2.25-.75-3.27-.9-3.78l-3.84-12.69a23.686,23.686,0,0,1-.69-2.97ZM616.26-1.98A5.884,5.884,0,0,1,617.55.45a19.836,19.836,0,0,0,5.01-1.56,11.07,11.07,0,0,0,6.57-10.38c0-6.33-4.53-10.53-11.34-10.53a12.819,12.819,0,0,0-9.87,4.05,12.487,12.487,0,0,0-3.21,8.4c0,4.38,2.22,7.59,5.25,7.59,2.25,0,4.05-1.8,5.76-5.73a43.606,43.606,0,0,0,3-12,7.918,7.918,0,0,1,3.36.81,7.747,7.747,0,0,1,4.44,7.29,8.811,8.811,0,0,1-4.74,8.01A16.405,16.405,0,0,1,616.26-1.98Zm-.12-17.67a40.967,40.967,0,0,1-2.67,10.8c-1.23,2.82-2.37,4.2-3.54,4.2-1.56,0-2.76-2.16-2.76-4.89a10.238,10.238,0,0,1,4.68-8.7A8.485,8.485,0,0,1,616.14-19.65Zm34.92,3.99v-4.8a37.132,37.132,0,0,0,8.49-2.16,11.266,11.266,0,0,1,1.08-.39l-1.83-2.04a9.086,9.086,0,0,1-2.7,1.26,27.914,27.914,0,0,1-7.23,1.38h-.24a31.374,31.374,0,0,1,.18,4.05c0,7.17-.3,11.13-.99,13.77A14.447,14.447,0,0,1,645.09.93a9.208,9.208,0,0,1,2.04,1.47c2.7-3.72,3.84-8.31,3.9-15.96h4.26V-.75a20.6,20.6,0,0,1-.18,3.15h2.64a16.357,16.357,0,0,1-.18-3.15V-13.56h.99a15.207,15.207,0,0,1,2.61.15v-2.43a15.678,15.678,0,0,1-2.76.18Zm-11.31,2.43c.03.33.06.48.06.72v2.28h-3.48a11.97,11.97,0,0,1-2.61-.18V-8.1a14.444,14.444,0,0,1,2.55-.15H639a13.384,13.384,0,0,1-2.04,2.91,17.715,17.715,0,0,1-3.78,3.18,7.718,7.718,0,0,1,1.23,2.07,17.325,17.325,0,0,0,5.52-6.36c-.09,1.02-.12,1.68-.12,2.37v3.9a15.5,15.5,0,0,1-.18,2.52h2.46a16.429,16.429,0,0,1-.15-2.55V-4.17c0-.75-.03-1.14-.12-2.55a14.025,14.025,0,0,0,3.51,3.87A9.886,9.886,0,0,1,646.5-4.8a12.568,12.568,0,0,1-3.9-3.45h2.34a14.276,14.276,0,0,1,2.52.15v-2.31a12.384,12.384,0,0,1-2.52.18h-3v-2.28a7.112,7.112,0,0,1,.03-.72h3.09a15.738,15.738,0,0,1,2.55.15v-2.34a14.445,14.445,0,0,1-2.55.15h-1.5a28.219,28.219,0,0,0,1.98-4.14l-2.13-.66a16.248,16.248,0,0,1-1.92,4.8h-5.25a14.239,14.239,0,0,1-2.55-.15v2.34a14.653,14.653,0,0,1,2.55-.15Zm2.31-9.09v-.72a9.864,9.864,0,0,1,.15-2.1h-2.58a10.89,10.89,0,0,1,.15,2.13v.69h-2.79a14.7,14.7,0,0,1-2.7-.15v2.34a15.813,15.813,0,0,1,2.64-.15h7.68a16.482,16.482,0,0,1,2.64.15v-2.34a14.786,14.786,0,0,1-2.61.15Zm-2.55,6.21a17.981,17.981,0,0,0-1.59-3.93l-1.92.66a15.994,15.994,0,0,1,1.59,3.93Zm36.63-5.85h-8.43a17.877,17.877,0,0,1-3.15-.21v2.4a22.863,22.863,0,0,1,3.09-.18h8.49v2.37h-5.7a21.456,21.456,0,0,1-3.33-.15,28.367,28.367,0,0,1,.12,3.18v4.86a27.5,27.5,0,0,1-.12,3.12,23.07,23.07,0,0,1,3.45-.15h5.58v2.43h-8.67a16.584,16.584,0,0,1-3.15-.21v2.43a22.461,22.461,0,0,1,3.18-.18h8.64V-.99a20.586,20.586,0,0,1-.21,3.36h2.67a19.42,19.42,0,0,1-.21-3.36V-2.25h9.12a24.475,24.475,0,0,1,3.21.18V-4.5a16.126,16.126,0,0,1-3.18.21h-9.15V-6.72h6.09a22.848,22.848,0,0,1,3.42.15,26.19,26.19,0,0,1-.12-3.12v-4.92a26.516,26.516,0,0,1,.12-3.12,22.379,22.379,0,0,1-3.39.15h-6.12v-2.37h8.88a24.805,24.805,0,0,1,3.15.18v-2.4a16.53,16.53,0,0,1-3.18.21h-8.85v-.33a15.547,15.547,0,0,1,.21-2.79h-2.67a15.32,15.32,0,0,1,.21,2.79Zm0,6.3v2.55h-6.66v-2.55Zm0,4.44v2.58h-6.66v-2.58Zm2.25,2.58v-2.58h7.14v2.58Zm0-4.47v-2.55h7.14v2.55Zm16.86-.96a56.8,56.8,0,0,1,5.82-1.05,46.791,46.791,0,0,1-3.18,9.24,30.613,30.613,0,0,1-3.12,5.49l2.46,1.41,1.95-3.78a56.447,56.447,0,0,0,4.41-12.57,18.241,18.241,0,0,1,2.04-.12c2.67,0,3.51.96,3.51,4.02a22.9,22.9,0,0,1-1.23,8.22,1.8,1.8,0,0,1-1.65,1.32,11.611,11.611,0,0,1-4.41-1.32A8.819,8.819,0,0,1,702-1.56c0,.36-.03.54-.06,1.05A11.964,11.964,0,0,0,706.47.57a3.317,3.317,0,0,0,3.06-1.38c1.29-1.71,2.1-5.73,2.1-10.5,0-2.55-.42-3.93-1.44-4.98-.96-.93-2.28-1.32-4.32-1.32-.66,0-1.11,0-1.83.06.15-.69.48-2.61.63-3.39a21.2,21.2,0,0,1,.54-2.79l-2.82-.33v.42a42.06,42.06,0,0,1-.84,6.3,61.743,61.743,0,0,1-6.6.72Zm17.49-4.2a25,25,0,0,1,6.03,11.1l2.34-1.29a27.407,27.407,0,0,0-6.24-10.92Zm5.13-6.84a21.986,21.986,0,0,1,3.09,4.65l1.74-.99a22.385,22.385,0,0,0-3.15-4.56Zm-3.48,1.62a20.94,20.94,0,0,1,3.12,4.74l1.77-.99a23.479,23.479,0,0,0-3.15-4.65ZM738.33-9.51a5.5,5.5,0,0,1,1.44,1.62,11.74,11.74,0,0,0,3.48-4.65,26.332,26.332,0,0,1,2.25,2.91l1.26-1.62a26.752,26.752,0,0,0-2.82-3.27,21.654,21.654,0,0,0,.69-4.95h2.31a29.244,29.244,0,0,0,.9,8.49c.6,2.01,1.47,3.12,2.49,3.12,1.17,0,1.77-1.29,2.31-4.98a4.817,4.817,0,0,1-1.59-1.05c-.18,2.52-.42,3.72-.69,3.72-.24,0-.57-.75-.84-2.07a39.84,39.84,0,0,1-.54-7.17,13.563,13.563,0,0,1,.12-2.04,15.583,15.583,0,0,1-2.37.12h-2.01c.03-1.05.03-1.05.06-2.01a8.06,8.06,0,0,1,.12-1.65h-2.34a15.307,15.307,0,0,1,.18,2.82c0,.24,0,.42-.03.84h-1.32a12.823,12.823,0,0,1-2.04-.12v2.07c.69-.06,1.26-.09,2.04-.09h1.26a23.039,23.039,0,0,1-.36,3.42c-.54-.48-.75-.69-1.68-1.47l-1.11,1.47c1.14.93,1.53,1.26,2.25,1.95a8.49,8.49,0,0,1-3.42,4.5v-1.44c-2.31.3-3.3.42-5.13.6v-1.8h1.95a17.972,17.972,0,0,1,1.86.09v-1.8a10.548,10.548,0,0,1-1.83.12H733.2v-.18a12.421,12.421,0,0,1,.12-2.01H731.1a11.628,11.628,0,0,1,.12,1.95v.24h-2.01a9.269,9.269,0,0,1-1.86-.12v1.83a11.383,11.383,0,0,1,1.86-.12h2.01v1.98c-1.77.12-3.9.24-4.98.24-.27,0-.48,0-.87-.03l.3,1.98c.57-.09,1.05-.15,1.47-.18,3.39-.21,7.26-.63,11.19-1.2Zm-7.17-13.47h-2.61a14.262,14.262,0,0,1-2.16-.12v1.83c.75-.06,1.29-.09,2.16-.09h2.61v1.71h-3.72a16.426,16.426,0,0,1-2.34-.12v1.89a20.927,20.927,0,0,1,2.31-.12h1.68a3.026,3.026,0,0,1-.99,1.38,8,8,0,0,1-3.39,1.44,4,4,0,0,1,.99,1.62,9.462,9.462,0,0,0,3.84-2.07A5.172,5.172,0,0,0,730.98-18h2.55v1.86c0,1.08.36,1.26,2.37,1.26,2.73,0,3.03-.18,3.21-1.98a5.049,5.049,0,0,1-1.56-.54c-.03,1.17-.06,1.2-1.26,1.2-.87,0-.99-.06-.99-.45V-18h1.41a15.757,15.757,0,0,1,2.22.09v-1.83a22.679,22.679,0,0,1-2.28.09H733.2v-1.71h2.46c.93,0,1.47.03,2.19.09V-23.1a14.88,14.88,0,0,1-2.22.12H733.2v-.21a9.613,9.613,0,0,1,.15-1.83h-2.34a13.255,13.255,0,0,1,.15,1.83ZM746.22-4.47a12.436,12.436,0,0,1-.66,3.9c-.21.45-.54.57-1.65.57a27.382,27.382,0,0,1-4.2-.36,4.984,4.984,0,0,1,.75,2.22c1.23.09,2.34.15,3.27.15,2.1,0,3-.24,3.54-.96.63-.84,1.02-2.67,1.26-6.03a13.1,13.1,0,0,1,.18-1.47,29.333,29.333,0,0,1-3.21.12h-7.2c.06-.36.09-.54.12-.81a7.563,7.563,0,0,1,.21-1.26l-2.49-.06a6.839,6.839,0,0,1,.06.81,7.408,7.408,0,0,1-.12,1.32h-6.03a24.968,24.968,0,0,1-3.06-.15v2.16a20.105,20.105,0,0,1,3.03-.15h5.34c-1.5,2.58-4.68,4.11-9.99,4.77a4.955,4.955,0,0,1,1.23,2.04A22.87,22.87,0,0,0,732.72.48a9.6,9.6,0,0,0,5.01-4.95Zm14.19-15.6a18.345,18.345,0,0,1,1.86-.12,72,72,0,0,0,9.09-.72c-.39.36-.48.45-1.11,1.02a58.084,58.084,0,0,1-9.33,7.23,37.2,37.2,0,0,1-5.25.6h-.33l.27,2.64a81.932,81.932,0,0,1,8.46-1.26c3.42-.42,4.29-.54,6.27-.87-3.9,1.65-5.94,4.02-5.94,6.84a4.693,4.693,0,0,0,1.95,3.84C767.82.3,770.61.96,773.91.99l2.22.03-.12-2.73a10.353,10.353,0,0,1-2.28.21,10.733,10.733,0,0,1-5.43-1.17,2.892,2.892,0,0,1-1.41-2.46,3.559,3.559,0,0,1,.93-2.37,9.818,9.818,0,0,1,3.63-2.73,20.019,20.019,0,0,1,8.31-1.62l.69.03-.21-2.52a6.219,6.219,0,0,1-.9.15c-.51.03-1.35.12-2.58.21l-4.92.45c-4.2.33-5.82.51-7.2.75a63.793,63.793,0,0,0,9.33-7.32,10.282,10.282,0,0,1,1.56-1.32l-1.47-1.86a5.989,5.989,0,0,1-1.8.39c-2.22.24-6.45.42-9.3.42a17.951,17.951,0,0,1-2.73-.15Zm14.73.24a21.527,21.527,0,0,1,2.91,4.5l1.68-.96a20.838,20.838,0,0,0-2.94-4.41Zm3.3-1.83a20.531,20.531,0,0,1,3.12,4.56l1.68-.96a22.447,22.447,0,0,0-3.15-4.5Zm11.1,1.86a16.011,16.011,0,0,1,2.25-.18,73.206,73.206,0,0,0,8.61-.57l.03.03c-.09.09-.39.39-.54.57-2.1,2.28-6.39,6.36-9.66,9.15a26.4,26.4,0,0,1-3.9,2.91l1.71,2.25a14.252,14.252,0,0,1,2.4-1.92,17.444,17.444,0,0,1,9.48-3.21c3.57,0,5.76,1.5,5.76,3.96,0,2.97-3.09,4.98-7.62,4.98a18,18,0,0,1-7.65-1.77,11.737,11.737,0,0,1,.27,2.25v.6A22.252,22.252,0,0,0,797.85.57a15.423,15.423,0,0,0,6.51-1.29,6.774,6.774,0,0,0,4.02-6.12c0-3.72-3.06-6.06-7.89-6.06a12.583,12.583,0,0,0-7.05,2.1l-.09-.09a40.422,40.422,0,0,0,5.34-4.53l3.36-3.33c.96-.93,1.47-1.41,1.5-1.47a5.009,5.009,0,0,1,.84-.66l-1.44-2.04a3.328,3.328,0,0,1-1.35.3c-1.95.21-5.85.39-8.4.39a18.553,18.553,0,0,1-3.78-.21Zm27.24-1.65c.06.57.06.69.09,1.8.15,7.5.57,11.19,1.59,14.19,1.02,3.03,2.7,4.83,4.53,4.83,2.28,0,3.69-2.07,5.22-7.53a10.346,10.346,0,0,1-2.1-2.01,21.84,21.84,0,0,1-1.56,5.22c-.42.96-.93,1.44-1.44,1.44-1.08,0-2.22-2.01-2.85-5.1a52.549,52.549,0,0,1-.72-9.03,24.977,24.977,0,0,1,.21-3.78Zm15.18,2.64a26.916,26.916,0,0,1,6.21,15.15l2.58-1.02c-.96-6.33-2.85-10.74-6.6-15.21ZM849.42-7.26a4.68,4.68,0,0,0-4.68,4.65,4.686,4.686,0,0,0,4.68,4.68,4.641,4.641,0,0,0,4.65-4.68A4.635,4.635,0,0,0,849.42-7.26Zm0,1.92a2.714,2.714,0,0,1,2.7,2.73,2.734,2.734,0,0,1-2.7,2.73,2.74,2.74,0,0,1-2.73-2.73A2.74,2.74,0,0,1,849.42-5.34ZM7.5,20.05H4.35a19.66,19.66,0,0,1-2.82-.18v2.37a16.836,16.836,0,0,1,2.7-.15h6.06A28.5,28.5,0,0,1,8.91,29.5C6.84,27.04,6,26.08,4.23,24.28l-1.62,1.5a54.8,54.8,0,0,1,5.34,5.97A21.8,21.8,0,0,1,1.23,39.7a6.2,6.2,0,0,1,1.71,1.83,25.331,25.331,0,0,0,6.45-7.86,48.407,48.407,0,0,1,3.63,5.67l1.77-1.77a67.981,67.981,0,0,0-4.32-6.12,29.457,29.457,0,0,0,2.13-9.36,19.678,19.678,0,0,1,2.61.12V19.87a18.647,18.647,0,0,1-2.79.18H9.75V18.13a21.005,21.005,0,0,1,.18-2.97H7.32a14.288,14.288,0,0,1,.18,2.97Zm15.36,3.84V38.95c0,.6-.24.72-1.56.72a28.017,28.017,0,0,1-3.84-.33,8.173,8.173,0,0,1,.72,2.37c1.2.09,2.07.12,3.15.12,3.18,0,3.81-.45,3.81-2.76V23.89h.63a16.307,16.307,0,0,1,2.61.15,1.243,1.243,0,0,1,.3.03V21.61a18.715,18.715,0,0,1-2.91.18h-.63V18.7a24.865,24.865,0,0,1,.18-3.33H22.65a18.149,18.149,0,0,1,.21,3.33v3.09H18.45a17.758,17.758,0,0,1-2.85-.15v2.43a18.246,18.246,0,0,1,2.82-.18Zm-8.19,3.39a26.731,26.731,0,0,1,4.29,6.99l2.01-1.32a34.358,34.358,0,0,0-4.38-6.78Zm38.91.33c1.26,0,2.37.03,3.12.09a18.467,18.467,0,0,1-.12-2.52V23.35a19.036,19.036,0,0,1,.12-2.52,29.451,29.451,0,0,1-3.3.12H48.15a26.8,26.8,0,0,0,2.07-2.04c.69-.78.69-.78,1.11-1.2l-1.23-1.2a17.776,17.776,0,0,1-2.79.15H41.94c.18-.21.33-.36.42-.45.18-.21.3-.36.36-.42a7.255,7.255,0,0,1,.66-.75l-2.52-.6a12.582,12.582,0,0,1-2.25,2.88,22.9,22.9,0,0,1-6.96,4.92,6.17,6.17,0,0,1,1.2,1.83,23.3,23.3,0,0,0,2.43-1.5v2.61a22.869,22.869,0,0,1-.09,2.52c.9-.06,1.86-.09,3.18-.09h4.68a31.461,31.461,0,0,1-10.53,3.15,6.761,6.761,0,0,1,1.14,1.89,32.576,32.576,0,0,0,9.12-2.94,7.512,7.512,0,0,1,1.08,1.38A33.168,33.168,0,0,1,32.7,35.02a5.684,5.684,0,0,1,1.14,1.89,37.7,37.7,0,0,0,10.89-4.29c.27.63.42,1.02.63,1.65a39.729,39.729,0,0,1-13.17,5.25,8.681,8.681,0,0,1,1.29,1.98,42.453,42.453,0,0,0,12.3-5.37,9.5,9.5,0,0,1,.09,1.23,3.7,3.7,0,0,1-.48,2.31c-.33.42-.75.54-1.92.54a16.593,16.593,0,0,1-2.76-.24,6.417,6.417,0,0,1,.69,2.31c.75.06,1.26.09,1.83.09a8.205,8.205,0,0,0,3.06-.42c1.17-.54,1.8-1.98,1.8-4.17a12.6,12.6,0,0,0-3.57-9,15.28,15.28,0,0,0,1.8-1.17h.66a23.268,23.268,0,0,0,5.46,9.72,17.91,17.91,0,0,0,5.37,3.87,7.939,7.939,0,0,1,1.53-2.22,13.444,13.444,0,0,1-4.68-2.88,23.047,23.047,0,0,1-2.58-2.73,26.95,26.95,0,0,0,3.27-2.25c1.14-.93,1.38-1.11,1.86-1.44l-1.95-1.53a14.842,14.842,0,0,1-4.32,3.54,17.358,17.358,0,0,1-1.74-4.08ZM37.53,20.95a28.643,28.643,0,0,0,2.76-2.49h7.65a19.194,19.194,0,0,1-2.46,2.49Zm-.03,4.83V22.81h7.08v2.97Zm9.24,0V22.81h7.62v2.97Zm25.95,2.91v6.39c0,3.9,1.32,4.83,6.78,4.83,1.92,0,3.54-.09,5.88-.27.57-.03.84-.06,1.11-.06h.42l-.06-2.76a12.117,12.117,0,0,1-2.64.48c-1.68.15-3.42.24-4.32.24a10.61,10.61,0,0,1-3.57-.42c-.81-.33-.99-.84-.99-2.85V28.69h8.79a30.225,30.225,0,0,1,3.66.15V26.17a20.237,20.237,0,0,1-3.72.21H75.3V20.41h6.87a28.989,28.989,0,0,1,3.69.15V17.89a19.858,19.858,0,0,1-3.72.21H68.7a19.657,19.657,0,0,1-3.75-.21v2.67a28.989,28.989,0,0,1,3.69-.15h4.05v5.97H66.93a21.187,21.187,0,0,1-3.75-.21v2.67a29.524,29.524,0,0,1,3.72-.15Zm41.7-1.41c1.59,0,2.76.06,3.69.15V24.76a23.6,23.6,0,0,1-3.72.21H97.08a24.886,24.886,0,0,1-3.72-.21v2.67a29.573,29.573,0,0,1,3.69-.15h7.77a16.448,16.448,0,0,1-1.23,6.03c-1.26,2.61-3.63,4.41-7.47,5.64a6.462,6.462,0,0,1,1.71,2.34,18.762,18.762,0,0,0,5.28-2.94,12.08,12.08,0,0,0,4.05-7.62,23.777,23.777,0,0,0,.42-3.45Zm-18-7.26a27.608,27.608,0,0,1,3.66-.15h8.55a29.869,29.869,0,0,1,3.69.15v-2.7a19.117,19.117,0,0,1-3.72.21h-8.49a18.947,18.947,0,0,1-3.69-.21Zm19.53-5.46a21.986,21.986,0,0,1,3.09,4.65l1.74-.99a22.386,22.386,0,0,0-3.15-4.56Zm-3.78,1.17a20.94,20.94,0,0,1,3.12,4.74l1.77-.99a23.478,23.478,0,0,0-3.15-4.65Zm15.24,1.26a14.981,14.981,0,0,1,.09,2.37c0,6.15-.39,9.99-1.32,12.63a14.421,14.421,0,0,1-4.95,6.87,7.267,7.267,0,0,1,2.16,2.01,18.657,18.657,0,0,0,5.16-7.56c1.11-3.03,1.35-5.22,1.59-13.53a15.585,15.585,0,0,1,.18-2.64Zm7.56-.24a12.756,12.756,0,0,1,.15,2.46v.66l-.18,16.98a7,7,0,0,1-.21,2.37l1.41,1.56a5.55,5.55,0,0,1,.72-.33c.3-.12.6-.24.96-.36a20.621,20.621,0,0,0,4.23-2.16,17.231,17.231,0,0,0,6.18-7.86A9.92,9.92,0,0,1,146.22,28a14.66,14.66,0,0,1-3.39,5.85,13.214,13.214,0,0,1-5.28,3.48l.15-17.43a17.306,17.306,0,0,1,.21-3.12Zm26.07,7.92a.227.227,0,0,1,.12-.03,1.378,1.378,0,0,1,.3.03,5.207,5.207,0,0,1,.54.03c.09,0,.42.03.9.06,1.08.09,2.19.12,3.39.12,1.11,0,1.86-.03,3.3-.09.15,4.86.21,6.75.3,7.41a8.438,8.438,0,0,0-3.12-.54c-3.42,0-5.85,1.86-5.85,4.47,0,2.73,2.22,4.44,5.79,4.44,2.58,0,4.53-.93,5.25-2.52a5.027,5.027,0,0,0,.36-2.07,4.645,4.645,0,0,0-.03-.63c.15.09.15.12.27.18a3.485,3.485,0,0,1,.33.21,17.952,17.952,0,0,1,3.12,2.13,8.349,8.349,0,0,1,.9.87l1.08-2.55a3.172,3.172,0,0,1-.78-.51,23.75,23.75,0,0,0-4.92-2.88c-.3-5.07-.3-5.43-.33-8.19a41.129,41.129,0,0,0,4.74-.78,4.275,4.275,0,0,1,.48-.09l-.12-2.4a22.1,22.1,0,0,1-5.1,1.08V20.74a33.029,33.029,0,0,1,.18-4.38h-2.67c.03.3.06.75.06,1.29.03,2.07.03,2.07.03,4.95-.99.03-1.68.06-2.85.06a24.122,24.122,0,0,1-5.64-.45Zm8.91,9.75v.87a3.356,3.356,0,0,1-.51,2.1,3.929,3.929,0,0,1-2.85.99c-1.95,0-3.27-.9-3.27-2.25,0-1.41,1.41-2.31,3.57-2.31A7.706,7.706,0,0,1,169.92,34.42Zm-13.83,1.62v-.72a4.69,4.69,0,0,0-.03-.75c-.03-1.38-.06-2.85-.06-3.54,0-4.92,1.05-11.43,2.34-14.34l-2.85-.39a9.019,9.019,0,0,1-.33,2.01,51.914,51.914,0,0,0-1.5,12.3,48,48,0,0,0,.84,9.12,5.312,5.312,0,0,1,.15,1.11l2.61-.21a3.39,3.39,0,0,1-.06-.66c0-1.83,1.29-5.91,2.7-8.7l-1.89-.84c-.09.27-.12.36-.27.72a31.257,31.257,0,0,0-1.56,4.92ZM204.6,18.46a6,6,0,0,1-2.28.24H188.04a20.816,20.816,0,0,1-3.72-.21v2.85a23.926,23.926,0,0,1,3.66-.18H202.8c-1.65,6.45-4.53,10.74-9.36,13.95a23.426,23.426,0,0,1-6.72,3.15,6.976,6.976,0,0,1,1.8,2.49A28.6,28.6,0,0,0,198,34.99c3.63-3.36,5.94-7.35,7.5-13.08a7.787,7.787,0,0,1,.66-1.98Zm21.87,9.3h4.38a21.261,21.261,0,0,1,2.82.12V25.39a14.741,14.741,0,0,1-2.85.21H219.93a18.4,18.4,0,0,1-2.85-.18v2.46a24.268,24.268,0,0,1,2.85-.12h4.08V37.9H218.1a15.1,15.1,0,0,1-2.85-.18v2.49a23.548,23.548,0,0,1,2.88-.12h14.52a18.177,18.177,0,0,1,2.88.15V37.75a17.5,17.5,0,0,1-2.88.15h-6.18Zm40.32-10.11a6.7,6.7,0,0,1-2.64.21H248.19a23.779,23.779,0,0,1-3.75-.21v2.73a30.168,30.168,0,0,1,3.69-.15h16.68a14.892,14.892,0,0,1-3.21,4.26,13.384,13.384,0,0,1-4.65,2.82,7.581,7.581,0,0,1,1.83,2.01,18.409,18.409,0,0,0,8.7-8.76,6.9,6.9,0,0,1,.75-1.26Zm-13.41,5.43a6.608,6.608,0,0,1,.12,1.65c0,5.82-1.11,8.73-4.26,11.28a14.218,14.218,0,0,1-5.4,2.67,7.266,7.266,0,0,1,1.65,2.43c3.66-1.44,5.88-2.97,7.71-5.25,2.04-2.61,2.85-5.52,2.97-10.59a11.424,11.424,0,0,1,.12-2.19Zm35.67,5.88a20.075,20.075,0,0,0,2.82,6.84,19.53,19.53,0,0,0,6.93,6.3,7.237,7.237,0,0,1,1.44-2.07,16.553,16.553,0,0,1-6.39-5.07c1.41-.96,2.58-1.83,3.66-2.67,1.14-.93,1.74-1.38,1.8-1.44l-1.74-1.62a22.471,22.471,0,0,1-4.83,4.02,16.228,16.228,0,0,1-1.59-4.29h3.9c1.05,0,1.86.03,2.76.09a24.861,24.861,0,0,1-.12-3.15V19.45c0-1.86.03-2.55.09-3.3a16.218,16.218,0,0,1-2.85.15h-8.01a23.169,23.169,0,0,1-2.91-.12c.09,1.02.12,1.92.12,3.12V39.16a29.353,29.353,0,0,1-3.84.63l.54,2.4a9.446,9.446,0,0,1,1.41-.42c4.47-1.05,6.3-1.53,9.54-2.52l-.09-2.13a55.669,55.669,0,0,1-5.37,1.53V28.96Zm-2.73-10.65h9.27v3.3h-9.27Zm0,5.25h9.27v3.48h-9.27ZM273.78,39.25a20.136,20.136,0,0,1-.18,2.97h2.55a23.13,23.13,0,0,1-.15-2.97V17.98h4.65a44.468,44.468,0,0,1-3.27,7.26,11.353,11.353,0,0,1,2.46,3.48,8.234,8.234,0,0,1,.66,3.15c0,1.17-.39,1.5-1.74,1.5a12.844,12.844,0,0,1-1.8-.15,6.212,6.212,0,0,1,.51,2.25h1.14a9.211,9.211,0,0,0,2.43-.27c1.11-.33,1.71-1.38,1.71-3a9.456,9.456,0,0,0-.27-2.34,10.6,10.6,0,0,0-2.7-4.83,57.722,57.722,0,0,0,2.61-5.46c.75-1.83.75-1.83.96-2.25l-1.23-1.5a7.185,7.185,0,0,1-1.98.15h-4.38a16.526,16.526,0,0,1-2.07-.09c.06.87.09,1.56.09,2.4Zm41.52-1.17a8.942,8.942,0,0,1-5.34-4.83c.33-1.14.75-2.64.81-3.06.27-1.17.27-1.17.39-1.62l-2.46-.48v.21a19.473,19.473,0,0,1-1.89,6.87,16.389,16.389,0,0,1-3.96,5.22,6.1,6.1,0,0,1,1.86,1.71,21.373,21.373,0,0,0,4.44-6.57c2.19,3.99,6.3,5.7,13.65,5.7,2.85,0,3.57,0,5.82-.09a9.027,9.027,0,0,1,.72-2.46c-2.64.21-4.71.3-6.96.3a32.373,32.373,0,0,1-4.86-.3V32.44h5.73a20.058,20.058,0,0,1,2.91.15V30.22a18.19,18.19,0,0,1-2.91.18h-5.73V25.78h4.86a19.743,19.743,0,0,1,3,.18v-2.4a20.018,20.018,0,0,1-3,.18H310.23a19.307,19.307,0,0,1-2.97-.18v2.4a19.579,19.579,0,0,1,2.97-.18h5.07Zm-.48-19.74h-8.07c-1.17,0-2.1-.03-3.09-.12a19.793,19.793,0,0,1,.12,2.07V22.3a12.1,12.1,0,0,1-.15,2.22H306V20.44h20.52v4.08h2.31a15.763,15.763,0,0,1-.12-2.19V20.29a14.524,14.524,0,0,1,.12-2.07c-1.02.09-1.92.12-3.09.12h-8.58V16.99a7.633,7.633,0,0,1,.18-1.89h-2.73a8.294,8.294,0,0,1,.21,1.89ZM358.8,38.23a75.743,75.743,0,0,0-9.96-8.82,38.809,38.809,0,0,0,4.83-8.34,5.2,5.2,0,0,1,.87-1.5l-1.47-1.5a5.642,5.642,0,0,1-2.13.27l-10.38.12h-.66a15.475,15.475,0,0,1-2.85-.18l.09,2.85a25.058,25.058,0,0,1,3.45-.24c9.84-.15,9.84-.15,10.2-.18a2.067,2.067,0,0,1-.09.24,2.426,2.426,0,0,0-.18.39,31.221,31.221,0,0,1-6.66,9.84,29.12,29.12,0,0,1-9.93,6.72,7.8,7.8,0,0,1,1.74,2.37,38.161,38.161,0,0,0,5.85-3.57,33.261,33.261,0,0,0,5.7-5.28,59.9,59.9,0,0,1,9.45,9.15Zm24.84-20.34a3.42,3.42,0,1,0,3.42,3.42A3.418,3.418,0,0,0,383.64,17.89Zm0,1.32a2.1,2.1,0,1,1-2.1,2.1A2.126,2.126,0,0,1,383.64,19.21ZM363.57,33.49l.9-1.14c1.83-2.13,3.96-4.77,5.4-6.63l1.11-1.44a1.184,1.184,0,0,1,.9-.48c.39,0,.72.18,1.2.72,6.63,7.05,8.19,8.61,11.43,11.43l2.79,2.46,1.38-3a18.156,18.156,0,0,1-2.61-1.92,100.692,100.692,0,0,1-10.11-9.75c-2.19-2.43-2.76-2.82-4.05-2.82-1.41,0-2.22.57-3.96,2.85-1.65,2.16-4.32,5.34-5.19,6.21a4.194,4.194,0,0,1-1.02.78Zm33.36-14.61a32.889,32.889,0,0,1,7.56,3.99l1.41-2.34a44.876,44.876,0,0,0-7.59-3.81Zm-2.37,7.2a34.549,34.549,0,0,1,7.8,4.2l1.35-2.4A46.7,46.7,0,0,0,396,23.92Zm1.2,14.4a6.952,6.952,0,0,1,1.2-.3c.6-.12,1.11-.24,1.62-.33a36.727,36.727,0,0,0,7.8-2.64c5.31-2.64,8.97-6.75,11.61-12.99a12.314,12.314,0,0,1-2.25-1.92,21.139,21.139,0,0,1-3.57,6.69,19.316,19.316,0,0,1-8.88,6.66,25.842,25.842,0,0,1-8.25,1.89Zm34.98-14.52-2.7.42a18.077,18.077,0,0,1-2.88.3l.48,2.49a15.594,15.594,0,0,1,2.79-.63l2.67-.45,2.01,10.86a15.514,15.514,0,0,1,.36,2.85l2.73-.48a12.8,12.8,0,0,1-.66-2.79L433.47,27.7l8.4-1.41a3.926,3.926,0,0,0,.87-.18,1.079,1.079,0,0,1-.15.27,12.323,12.323,0,0,1-5.28,5.58,6.39,6.39,0,0,1,1.95,1.53,15.734,15.734,0,0,0,5.85-7.23,6.378,6.378,0,0,1,.69-1.38l-1.47-1.32a7.623,7.623,0,0,1-1.77.42l-9.48,1.59-.45-2.37a14.483,14.483,0,0,1-.36-2.43l-2.58.42a9.732,9.732,0,0,1,.6,2.34Zm26.61-8.97a14.976,14.976,0,0,1,.09,2.37c0,6.15-.39,9.99-1.32,12.63a14.421,14.421,0,0,1-4.95,6.87,7.266,7.266,0,0,1,2.16,2.01,18.657,18.657,0,0,0,5.16-7.56c1.11-3.03,1.35-5.22,1.59-13.53a15.587,15.587,0,0,1,.18-2.64Zm7.56-.24a12.753,12.753,0,0,1,.15,2.46v.66l-.18,16.98a7,7,0,0,1-.21,2.37l1.41,1.56a5.55,5.55,0,0,1,.72-.33c.3-.12.6-.24.96-.36a20.62,20.62,0,0,0,4.23-2.16,17.231,17.231,0,0,0,6.18-7.86A9.919,9.919,0,0,1,476.19,28a14.66,14.66,0,0,1-3.39,5.85,13.214,13.214,0,0,1-5.28,3.48l.15-17.43a17.3,17.3,0,0,1,.21-3.12Zm20.07,2.07a21.012,21.012,0,0,1-3.72-.21v2.85a28.573,28.573,0,0,1,3.66-.18h14.82c-1.65,6.45-4.53,10.74-9.36,13.95a23.426,23.426,0,0,1-6.72,3.15,7.247,7.247,0,0,1,1.8,2.49,28.116,28.116,0,0,0,9.48-5.76c3.63-3.36,5.94-7.35,7.5-13.08l.18-.63a3.592,3.592,0,0,0,.99.15,3.42,3.42,0,1,0-3.42-3.42,4.924,4.924,0,0,0,.06.69Zm18.63-2.79a2.1,2.1,0,1,1-2.1,2.1A2.126,2.126,0,0,1,503.61,16.03Zm10.62,3.75a26.869,26.869,0,0,1,3.42-.15h9.81a25.741,25.741,0,0,1,3.42.15v-2.7a17.805,17.805,0,0,1-3.45.21h-9.75a16.751,16.751,0,0,1-3.45-.21Zm-2.58,7.02a29.148,29.148,0,0,1,3.78-.15h15.15c-1.38,3.63-2.67,5.7-4.89,7.65a19.5,19.5,0,0,1-8.7,4.38,7.609,7.609,0,0,1,1.59,2.46,27.038,27.038,0,0,0,7.35-3.63,20.308,20.308,0,0,0,7.23-10.05,7.33,7.33,0,0,1,.84-1.89l-1.29-1.5a6.552,6.552,0,0,1-2.37.24H515.46a21.939,21.939,0,0,1-3.81-.21Zm49.62-10.77a24.691,24.691,0,0,1-5.67,5.67,42.963,42.963,0,0,1-15.63,7.77,7.448,7.448,0,0,1,1.41,2.4,46.82,46.82,0,0,0,11.34-5.13v10.8a19.886,19.886,0,0,1-.18,3.51h3.06a24.773,24.773,0,0,1-.15-3.54V25.06a50.215,50.215,0,0,0,7.2-6.27,11.017,11.017,0,0,1,1.08-1.02Zm34.29,22.2a75.743,75.743,0,0,0-9.96-8.82,38.81,38.81,0,0,0,4.83-8.34,5.2,5.2,0,0,1,.87-1.5l-1.47-1.5a5.642,5.642,0,0,1-2.13.27l-10.38.12h-.66a15.475,15.475,0,0,1-2.85-.18l.09,2.85a25.058,25.058,0,0,1,3.45-.24c9.84-.15,9.84-.15,10.2-.18a2.067,2.067,0,0,1-.09.24,2.434,2.434,0,0,0-.18.39,31.22,31.22,0,0,1-6.66,9.84,29.121,29.121,0,0,1-9.93,6.72,7.8,7.8,0,0,1,1.74,2.37,38.164,38.164,0,0,0,5.85-3.57,33.259,33.259,0,0,0,5.7-5.28,59.9,59.9,0,0,1,9.45,9.15Zm5.64-15.6a84.266,84.266,0,0,1,9.87-.96,64.987,64.987,0,0,0,6.6-.66c-5.07,2.28-8.04,6.18-8.04,10.56a7.5,7.5,0,0,0,3.57,6.48,16.468,16.468,0,0,0,6.63,2.22,6.126,6.126,0,0,1,.96.18l.42-2.91a14.208,14.208,0,0,1-4.5-.78c-3-.99-4.53-2.79-4.53-5.43,0-2.82,1.71-5.58,4.77-7.65a14.454,14.454,0,0,1,7.65-2.55h.36l-.21-2.67a21.784,21.784,0,0,1-3.51.3c-4.95.21-13.17.69-17.37.99-.93.06-1.32.09-1.74.09l-1.08-.03Zm18.42,2.82a20.94,20.94,0,0,1,3.12,4.74l1.77-.99a23.476,23.476,0,0,0-3.15-4.65Zm3.48-1.62a21.986,21.986,0,0,1,3.09,4.65l1.74-.99a22.388,22.388,0,0,0-3.15-4.56Zm12.09-3.18c.39.03.48.03,1.02.09a53.523,53.523,0,0,0,6.33.39,29.079,29.079,0,0,0,4.47-.33l-.57.3c-.39.21-.45.24-.78.42-1.2.69-1.74,1.02-3.69,2.31l1.83,1.47a44.464,44.464,0,0,1,7.68-4.68l-.15-2.4a35.021,35.021,0,0,1-7.89.6,35.149,35.149,0,0,1-8.04-.72Zm17.88,15.27a29.281,29.281,0,0,1-9.06,1.17,21.212,21.212,0,0,1-5.43-.54c-1.62-.54-2.46-1.47-2.46-2.76,0-1.38.9-2.73,2.82-4.32l-1.83-1.38c-2.46,2.1-3.57,3.96-3.57,6,0,2.16,1.2,3.72,3.54,4.65a21.263,21.263,0,0,0,7.11.96,51.748,51.748,0,0,0,8.07-.69,9.172,9.172,0,0,1,1.08-.15Zm-.81-13.14a21.986,21.986,0,0,1,3.09,4.65l1.74-.99a22.385,22.385,0,0,0-3.15-4.56Zm-3.48,1.62a20.94,20.94,0,0,1,3.12,4.74l1.77-.99a23.481,23.481,0,0,0-3.15-4.65Zm34.89-.72a21.824,21.824,0,0,1,3.12.18V21.73a15.9,15.9,0,0,1-3,.18H672.36c.45-.6.45-.6,1.56-2.16l-2.31-.6a11.731,11.731,0,0,1-1.71,2.76h-5.7a18.011,18.011,0,0,1-2.97-.18v2.13a21.95,21.95,0,0,1,3.09-.18h4.14a24.726,24.726,0,0,1-2.82,2.73c3.57.48,4.53.63,6.6,1.05a34.407,34.407,0,0,1-10.92,1.56,5.633,5.633,0,0,1,.96,1.89c5.76-.36,9.57-1.17,12.93-2.73a62.766,62.766,0,0,1,9.06,3l1.41-1.74a72.56,72.56,0,0,0-8.28-2.52,11.893,11.893,0,0,0,3.24-3.24Zm-5.58,0a9.573,9.573,0,0,1-3.18,2.67c-2.13-.45-3.45-.72-5.49-1.02a21.569,21.569,0,0,0,1.53-1.65Zm-3.33,8.7v-.33a12.486,12.486,0,0,1,.12-1.98h-2.46a10.408,10.408,0,0,1,.15,1.98v.33h-8.46a25.142,25.142,0,0,1-3.27-.18v2.28a25.642,25.642,0,0,1,3.3-.18h6.63a16.645,16.645,0,0,1-3.75,2.7,30.366,30.366,0,0,1-7.08,2.88,7.067,7.067,0,0,1,1.44,2.07,38.623,38.623,0,0,0,5.37-2.43,24.522,24.522,0,0,0,5.88-4.35c-.06,1.71-.06,2.43-.06,2.97v1.29a16.464,16.464,0,0,1-.18,2.82h2.52a15.409,15.409,0,0,1-.15-2.82V38.11c0-.57-.06-1.65-.12-2.97a27.158,27.158,0,0,0,6.18,4.47,33.488,33.488,0,0,0,5.58,2.34,9.021,9.021,0,0,1,1.35-2.13,27,27,0,0,1-11.31-5.52h7.29a26.656,26.656,0,0,1,3.36.18V32.2a27.682,27.682,0,0,1-3.36.18ZM664.62,16.96c-1.29,0-2.1-.03-3.09-.12a11.969,11.969,0,0,1,.12,1.83v.72a9.7,9.7,0,0,1-.12,1.65h2.31V18.82h20.43v2.25h2.28a13.676,13.676,0,0,1-.09-1.71V18.7a10.927,10.927,0,0,1,.12-1.86,28.99,28.99,0,0,1-3.09.12h-8.61a12.091,12.091,0,0,1,.18-2.28h-2.67a10.325,10.325,0,0,1,.18,2.28Zm49.47,4.44V38.62c0,.72-.21.81-1.59.81a24.5,24.5,0,0,1-4.08-.36,8.217,8.217,0,0,1,.6,2.46c1.35.09,2.31.12,3.36.12,3.42,0,4.08-.42,4.08-2.52V21.85a23.334,23.334,0,0,1,.12-2.73,24.055,24.055,0,0,1-3.15.15h-8.07c.03-.57.03-.69.06-2.37a12.087,12.087,0,0,1,.24-2.19h-2.73a12.982,12.982,0,0,1,.18,2.61c0,.57-.03,1.11-.06,1.95h-7.77a24.412,24.412,0,0,1-3.12-.15,22.916,22.916,0,0,1,.12,2.76V38.71a22.163,22.163,0,0,1-.21,3.42h2.73a22.631,22.631,0,0,1-.15-3.39V21.4h8.22c-.42,3.51-1.32,5.79-3.06,7.83a16.2,16.2,0,0,1-4.86,3.72,8.066,8.066,0,0,1,1.59,1.89,17.222,17.222,0,0,0,6.06-5.55,13.289,13.289,0,0,0,1.65-3.48,20.477,20.477,0,0,0,7.95,8.67,8.506,8.506,0,0,1,1.56-2.1A19.247,19.247,0,0,1,708,27.82a17.509,17.509,0,0,1-3.03-5.07c.09-.54.12-.75.18-1.35Zm11.7,11.34a4.665,4.665,0,1,0,4.65,4.65A4.68,4.68,0,0,0,725.79,32.74Zm0,1.92a2.73,2.73,0,1,1-2.73,2.73A2.714,2.714,0,0,1,725.79,34.66ZM3.99,61.76a4.071,4.071,0,0,1,.54-.03,4.873,4.873,0,0,1,.54.03c2.43.09,3.81.12,4.14.12h.99c-.12,2.1-.12,2.1-.15,4.26-4.38,1.92-6.99,5.31-6.99,9.12C3.06,78.02,4.74,80,7.11,80c2.16,0,4.41-1.17,6.78-3.54a27.039,27.039,0,0,0,5.85-9c2.94.81,4.53,2.52,4.53,4.92,0,2.55-1.86,4.65-5.1,5.79a14.51,14.51,0,0,1-4.47.75,7.284,7.284,0,0,1,1.14,2.4,16.643,16.643,0,0,0,6.15-1.68c3.18-1.62,4.83-4.05,4.83-7.11,0-3.48-2.37-6.12-6.36-7.05.57-1.41.87-2.16.93-2.28l-2.46-.72a11.846,11.846,0,0,1-.69,2.58c-.75-.06-1.11-.09-1.68-.09a16.048,16.048,0,0,0-4.23.54c0-1.17.03-1.41.18-3.69a91.916,91.916,0,0,0,10.62-1.14,9.17,9.17,0,0,1,1.08-.15l-.15-2.49a48.088,48.088,0,0,1-11.4,1.65,19.333,19.333,0,0,1,.6-4.05l-2.73-.18c.03.24.06.39.06.48,0,.27-.06,1.35-.09,1.71-.12,1.47-.12,1.47-.18,2.13H9.6a23.061,23.061,0,0,1-5.58-.45Zm6.09,6.72a41.64,41.64,0,0,0,.57,7.74,4.966,4.966,0,0,1-3.21,1.44c-1.23,0-2.04-1.02-2.04-2.58a6.647,6.647,0,0,1,1.71-4.23A9.913,9.913,0,0,1,10.08,68.48Zm2.55,6.24v-.18c0-.12-.03-.39-.06-.69a55.074,55.074,0,0,1-.3-6.18,11.826,11.826,0,0,1,3.96-.69,8.865,8.865,0,0,1,1.29.06,24.805,24.805,0,0,1-4.11,6.75c-.51.63-.51.63-.72.93ZM39.99,55.49A32.8,32.8,0,0,1,39,61.01c-.48.03-1.26.03-2.07.03a19.667,19.667,0,0,1-3.63-.24v2.46h1.05c.9.03,1.14.03,1.86.03,1.26,0,1.38,0,2.16-.03a41.017,41.017,0,0,1-5.91,12.27l2.43,1.41c.15-.27.33-.6.6-1.05,1.14-2.01,1.41-2.52,2.13-3.96a56.262,56.262,0,0,0,3.3-8.76,46.991,46.991,0,0,0,4.89-.6,8.975,8.975,0,0,1,1.02-.15l-.09-2.49a25.353,25.353,0,0,1-5.19.93c.36-1.41.54-2.07.75-3.09a14.274,14.274,0,0,1,.45-1.92Zm18.09,8.16a40.432,40.432,0,0,0-8.07-3.99L48.72,61.7a33.311,33.311,0,0,1,8.13,4.11ZM58.11,77c-.18-.15-.18-.15-.45-.36a8.223,8.223,0,0,0-.84-.72,20.4,20.4,0,0,0-5.1-3,37.274,37.274,0,0,1-.33-4.41,8.707,8.707,0,0,1,.42-2.88l-2.46-.21a12.8,12.8,0,0,0-.3,2.79c0,.99.09,2.61.21,4.08a11.652,11.652,0,0,0-3.03-.39c-3.69,0-6.27,1.95-6.27,4.74a4.1,4.1,0,0,0,2.88,3.93,9.712,9.712,0,0,0,3.27.54,5.965,5.965,0,0,0,4.74-1.8,5.2,5.2,0,0,0,.99-3.09,4.139,4.139,0,0,0-.06-.78,17.333,17.333,0,0,1,5.07,3.96Zm-8.73-2.4a8.486,8.486,0,0,1,.09,1.2c0,2.07-1.14,3.06-3.51,3.06-2.25,0-3.6-.87-3.6-2.31,0-1.53,1.5-2.52,3.87-2.52A8.552,8.552,0,0,1,49.38,74.6ZM63.69,63.29h.75c.81.03,1.62.06,1.86.06.99,0,2.1-.03,2.49-.03a59.827,59.827,0,0,1-5.55,16.44l2.64,1.11a84.166,84.166,0,0,0,3.42-9.39,84.638,84.638,0,0,0,2.04-8.28,44.763,44.763,0,0,0,5.01-.69c.63-.12.63-.12.87-.15L77.1,59.9a25.425,25.425,0,0,1-5.34.99c.15-.78.21-1.11.39-2.13a28.365,28.365,0,0,1,.54-2.85l-2.82-.3V56a35.783,35.783,0,0,1-.66,5.04c-.81.03-1.17.03-1.65.03a21.569,21.569,0,0,1-3.84-.27Zm22.98,1.26c-2.19-.09-2.61-.09-3.18-.09a35.345,35.345,0,0,0-8.22.99l.24,2.4a27.781,27.781,0,0,1,7.59-.99,25.3,25.3,0,0,1,3.6.24ZM75.51,70.97c-1.59,2.13-2.07,3.18-2.07,4.56,0,3.06,2.64,4.65,7.65,4.65a32.009,32.009,0,0,0,5.4-.51c1.02-.18,1.02-.18,1.38-.24l-.24-2.67a21.658,21.658,0,0,1-6.66,1.08c-3.24,0-5.04-.93-5.04-2.58a4.126,4.126,0,0,1,.39-1.62,7.125,7.125,0,0,1,1.26-1.71Zm29.61,7.05a5.884,5.884,0,0,1,1.29,2.43,19.836,19.836,0,0,0,5.01-1.56,11.07,11.07,0,0,0,6.57-10.38c0-6.33-4.53-10.53-11.34-10.53a12.819,12.819,0,0,0-9.87,4.05,12.487,12.487,0,0,0-3.21,8.4c0,4.38,2.22,7.59,5.25,7.59,2.25,0,4.05-1.8,5.76-5.73a43.6,43.6,0,0,0,3-12,7.918,7.918,0,0,1,3.36.81,7.747,7.747,0,0,1,4.44,7.29,8.811,8.811,0,0,1-4.74,8.01A16.4,16.4,0,0,1,105.12,78.02ZM105,60.35a40.964,40.964,0,0,1-2.67,10.8c-1.23,2.82-2.37,4.2-3.54,4.2-1.56,0-2.76-2.16-2.76-4.89a10.238,10.238,0,0,1,4.68-8.7A8.485,8.485,0,0,1,105,60.35Zm34.53,18.81h-6a17.686,17.686,0,0,1-2.91-.15v2.34a21.971,21.971,0,0,1,3.12-.15h13.2a21.255,21.255,0,0,1,3.09.15V79.01a18.954,18.954,0,0,1-3,.15h-5.37V75.14h4.29a19.227,19.227,0,0,1,2.97.15V72.98a18.992,18.992,0,0,1-2.97.15h-4.29V69.98h3.42c1.71,0,2.43.03,3.51.12a38.682,38.682,0,0,1-.12-3.9V60.05c0-1.77.03-3,.12-3.87a26.594,26.594,0,0,1-3.84.15h-8.01a30.985,30.985,0,0,1-3.93-.15,30.474,30.474,0,0,1,.15,3.87v6.51a24.894,24.894,0,0,1-.12,3.54,34.989,34.989,0,0,1,3.69-.12h3v3.15h-3.81a17.023,17.023,0,0,1-2.91-.15v2.31a17.877,17.877,0,0,1,2.94-.15h3.78Zm0-20.85v3.9h-4.47v-3.9Zm2.13,0h4.68v3.9h-4.68Zm-2.13,5.85V68h-4.47V64.16Zm2.13,0h4.68V68h-4.68Zm-15.39-5.52v6.72h-1.38a10.616,10.616,0,0,1-2.07-.15v2.25a10.862,10.862,0,0,1,2.04-.15h1.41v8.01a25.988,25.988,0,0,1-4.02,1.26l.66,2.46a9.352,9.352,0,0,1,1.2-.51c4.08-1.62,5.13-2.07,7.83-3.39l-.12-2.25c-1.59.78-2.13,1.05-3.36,1.56V67.31h1.05a13.5,13.5,0,0,1,1.98.12V65.21a9.847,9.847,0,0,1-1.98.15h-1.05V58.64h1.32a17.751,17.751,0,0,1,2.28.12V56.42a11.876,11.876,0,0,1-2.52.18h-4.47a14.7,14.7,0,0,1-2.61-.18v2.37a13.463,13.463,0,0,1,2.37-.15Zm36.84,2.31a17.093,17.093,0,0,1,2.22.12V58.82a16.126,16.126,0,0,1-2.25.12H160.8V57.59a11.808,11.808,0,0,1,.15-2.49h-2.46a12.312,12.312,0,0,1,.18,2.43v1.41h-2.94a16.7,16.7,0,0,1-2.46-.12v2.25a17.294,17.294,0,0,1,2.43-.12h2.34a19.9,19.9,0,0,1-5.7,7.17,5.631,5.631,0,0,1,1.38,1.95,23.181,23.181,0,0,0,5.1-7.05c-.09,1.68-.15,2.73-.15,3.12v2.82a17.688,17.688,0,0,1-.18,3h2.46a15.16,15.16,0,0,1-.18-3V66.11a24.987,24.987,0,0,0-.21-3.21,16.08,16.08,0,0,0,4.11,4.74,7.4,7.4,0,0,1,1.17-2.01,13.525,13.525,0,0,1-4.71-4.68Zm6.18-4.8a28.965,28.965,0,0,1-3-.12,25.078,25.078,0,0,1,.12,2.91v9.72c0,1.11-.06,2.04-.15,2.97,1.11-.06,1.89-.09,3-.09h5.85c.81,0,2.28.06,3.06.12a22.209,22.209,0,0,1-.15-3V58.94a24.1,24.1,0,0,1,.12-2.91,28.846,28.846,0,0,1-3.03.12Zm-.75,1.95h7.32v2.52h-7.32Zm0,4.41h7.32v2.55h-7.32Zm0,4.44h7.32v2.64h-7.32Zm-13.65,14.1a20.414,20.414,0,0,0,3.51-7.26l-2.07-.87a15.2,15.2,0,0,1-3.39,6.72Zm7.83-5.55a16.492,16.492,0,0,1,.15-2.79h-2.58a19.223,19.223,0,0,1,.18,2.79v3.39c0,1.35.3,1.92,1.2,2.28s2.07.48,4.77.48c4.26,0,5.55-.18,6.39-.87.72-.63.96-1.38,1.26-4.26a7.549,7.549,0,0,1-2.28-.75c-.03,1.89-.24,2.91-.63,3.24-.48.42-1.56.54-4.68.54-3.36,0-3.78-.15-3.78-1.23Zm7.35.33a28.164,28.164,0,0,0-4.26-4.23l-1.62,1.17a22.787,22.787,0,0,1,4.17,4.53Zm9.9,3.54a39.159,39.159,0,0,0-4.44-6.6l-1.98,1.05a30.134,30.134,0,0,1,4.35,6.93Zm15.96-1.35a5.884,5.884,0,0,1,1.29,2.43,19.836,19.836,0,0,0,5.01-1.56,11.07,11.07,0,0,0,6.57-10.38c0-6.33-4.53-10.53-11.34-10.53a12.819,12.819,0,0,0-9.87,4.05,12.487,12.487,0,0,0-3.21,8.4c0,4.38,2.22,7.59,5.25,7.59,2.25,0,4.05-1.8,5.76-5.73a43.606,43.606,0,0,0,3-12,7.918,7.918,0,0,1,3.36.81,7.747,7.747,0,0,1,4.44,7.29,8.811,8.811,0,0,1-4.74,8.01A16.4,16.4,0,0,1,195.93,78.02Zm-.12-17.67a40.964,40.964,0,0,1-2.67,10.8c-1.23,2.82-2.37,4.2-3.54,4.2-1.56,0-2.76-2.16-2.76-4.89a10.238,10.238,0,0,1,4.68-8.7A8.485,8.485,0,0,1,195.81,60.35Zm44.37,6.36a28.666,28.666,0,0,1-4.11.21h-18.3a30.473,30.473,0,0,1-4.17-.21v2.97a31.955,31.955,0,0,1,4.17-.21h18.3a30.369,30.369,0,0,1,4.11.21Zm4.5.3c.87-.09.99-.09,1.5-.12,1.47-.06,2.52-.09,3.09-.09,2.4-.09,3.87-.15,6.57-.3,4.89-.3,6.12-.39,10.17-.84.81,1.02,1.2,1.53,2.34,3.06l2.04-1.5a71.1,71.1,0,0,0-8.67-9.15l-2.01,1.23a34.966,34.966,0,0,1,4.71,4.5c-4.44.42-5.28.48-13.08.72a59.2,59.2,0,0,0,4.38-6.81c.93-1.68.93-1.68,1.02-1.83l-2.64-.9c-.63,2.13-3,6.21-5.58,9.57-.18,0-1.74.03-1.86.03a18.455,18.455,0,0,1-2.43-.15Zm5.16,15.12V80.36h14.61v1.77H267a22.715,22.715,0,0,1-.18-3V72.11a16.028,16.028,0,0,1,.15-2.52,19.108,19.108,0,0,1-2.61.12H249.93a18.125,18.125,0,0,1-2.55-.12,21.9,21.9,0,0,1,.15,2.52v7.02a25.158,25.158,0,0,1-.18,3Zm.03-10.32h14.61v6.45H249.87Zm25.05-5.88a56.8,56.8,0,0,1,5.82-1.05,46.789,46.789,0,0,1-3.18,9.24,30.611,30.611,0,0,1-3.12,5.49l2.46,1.41,1.95-3.78a56.448,56.448,0,0,0,4.41-12.57,18.243,18.243,0,0,1,2.04-.12c2.67,0,3.51.96,3.51,4.02a22.9,22.9,0,0,1-1.23,8.22,1.8,1.8,0,0,1-1.65,1.32,11.611,11.611,0,0,1-4.41-1.32,8.82,8.82,0,0,1,.15,1.65c0,.36-.03.54-.06,1.05a11.964,11.964,0,0,0,4.53,1.08,3.317,3.317,0,0,0,3.06-1.38c1.29-1.71,2.1-5.73,2.1-10.5,0-2.55-.42-3.93-1.44-4.98-.96-.93-2.28-1.32-4.32-1.32-.66,0-1.11,0-1.83.06.15-.69.48-2.61.63-3.39a21.191,21.191,0,0,1,.54-2.79l-2.82-.33v.42a42.068,42.068,0,0,1-.84,6.3,61.746,61.746,0,0,1-6.6.72Zm17.49-4.2a25,25,0,0,1,6.03,11.1l2.34-1.29a27.408,27.408,0,0,0-6.24-10.92Zm5.13-6.84a21.987,21.987,0,0,1,3.09,4.65l1.74-.99a22.387,22.387,0,0,0-3.15-4.56Zm-3.48,1.62a20.94,20.94,0,0,1,3.12,4.74l1.77-.99a23.477,23.477,0,0,0-3.15-4.65Zm13.14,6.03a14.017,14.017,0,0,1,1.92-.06,68.66,68.66,0,0,0,8.1-.51c.87,1.89.87,1.89,1.53,3.12a63,63,0,0,1-9.18.69,18.068,18.068,0,0,1-2.58-.12l.06,2.43a13.934,13.934,0,0,1,2.19-.12,70.488,70.488,0,0,0,10.53-.87,25.555,25.555,0,0,0,2.94,4.26,18.254,18.254,0,0,0-5.79-.81,13.267,13.267,0,0,0-6.84,1.44,4.55,4.55,0,0,0-2.46,3.87,4.4,4.4,0,0,0,2.28,3.84c1.56.93,3.54,1.32,6.51,1.32a27.3,27.3,0,0,0,7.68-1.08c1.35-.39,1.35-.39,1.86-.51l-.48-2.7c-1.8,1.08-5.85,1.98-9,1.98-3.96,0-6.15-1.02-6.15-2.88,0-1.95,2.64-3.18,6.87-3.18,3.3,0,5.34.39,7.17,1.35l2.01-1.44a32.979,32.979,0,0,1-4.26-5.82c1.29-.27,1.83-.36,2.28-.48,3.27-.81,3.27-.81,3.93-.93l-.27-2.43c-1.2.57-2.97,1.02-6.9,1.83-.45-.78-1.05-1.98-1.56-3.09,1.53-.24,5.19-1.02,7.47-1.62l-.21-2.34a39.4,39.4,0,0,1-8.04,1.95,22.548,22.548,0,0,1-1.47-4.05l-2.67.42c.24.42,1.08,2.34,1.71,3.93a54.923,54.923,0,0,1-6.84.39c-1.11,0-1.68-.03-2.43-.09Zm31.11,7.44a14.813,14.813,0,0,1,3.3-.99,33.22,33.22,0,0,1,7.92-1.2c3.48,0,5.31,1.41,5.31,4.05,0,2.61-2.01,4.8-5.4,5.91a22.332,22.332,0,0,1-5.97.93h-.45a7.117,7.117,0,0,1,.93,2.46,26.839,26.839,0,0,0,6.27-1.17c4.41-1.44,7.08-4.44,7.08-7.98a6.782,6.782,0,0,0-.99-3.57c-1.17-1.92-3.39-2.88-6.54-2.88a39.788,39.788,0,0,0-9.21,1.32,16.741,16.741,0,0,1-2.85.54ZM372.48,56.3a10.863,10.863,0,0,1,.48,1.92,65.736,65.736,0,0,0,2.13,8.31,17.764,17.764,0,0,0-3.96,2.49,6.708,6.708,0,0,0-2.67,5.07,5.137,5.137,0,0,0,2.52,4.65c1.8,1.02,4.17,1.44,8.04,1.44a56.9,56.9,0,0,0,6.84-.42,15.6,15.6,0,0,1,2.28-.18l-.27-2.97a31,31,0,0,1-8.82,1.08,22.976,22.976,0,0,1-5.01-.45c-1.92-.51-2.88-1.53-2.88-3.09a4.393,4.393,0,0,1,1.56-3.21,19.327,19.327,0,0,1,5.55-3.09,71.8,71.8,0,0,1,9.3-2.94l-1.02-2.7a10.969,10.969,0,0,1-1.98.81c-5.28,1.8-5.28,1.8-7.11,2.55a49.854,49.854,0,0,1-2.19-9.78ZM404.1,73.52a6.561,6.561,0,0,1-2.88,4.74c-1.53,1.08-3.12,1.62-6.24,2.19a7.269,7.269,0,0,1,1.26,2.13c3.6-.81,5.82-1.83,7.62-3.57a8.725,8.725,0,0,0,2.7-5.49h3.39v6c0,1.95.84,2.31,5.37,2.31,5.76,0,6.12-.33,6.75-5.79a9.174,9.174,0,0,1-2.25-.96c-.3,4.62-.3,4.62-4.35,4.62-2.94,0-3.21-.09-3.21-.99V73.52h2.61c1.5,0,2.52.03,3.3.09a22.438,22.438,0,0,1-.15-3.15V60.08a38.977,38.977,0,0,1,.15-3.93,31.414,31.414,0,0,1-3.18.15H402.03a24.335,24.335,0,0,1-3.15-.15,36.861,36.861,0,0,1,.15,3.93V70.46a23.233,23.233,0,0,1-.15,3.15c.9-.06,1.71-.09,3.33-.09ZM401.25,58.4H415.8v2.91H401.25Zm0,4.92H415.8v3H401.25Zm0,5.01H415.8v3.18H401.25Zm25.62-2.91a14.375,14.375,0,0,1,2.25-.75,46.67,46.67,0,0,1,12.18-2.13c3.99,0,6.42,1.98,6.42,5.25,0,3.33-2.34,6-6.54,7.44a27.458,27.458,0,0,1-8.22,1.29,8.225,8.225,0,0,1,1.08,2.7c4.86-.45,7.35-1.02,10.11-2.37,4.08-1.98,6.36-5.22,6.36-9.06,0-4.8-3.57-7.77-9.3-7.77a39.752,39.752,0,0,0-8.61,1.08c-5.55,1.26-5.55,1.26-6.39,1.29Zm29.91.39a43.558,43.558,0,0,1,5.82-1.05,47.156,47.156,0,0,1-3.18,9.21,29.571,29.571,0,0,1-3.12,5.49l2.46,1.41c.9-1.68,1.53-2.94,1.95-3.78a56.191,56.191,0,0,0,4.41-12.54,18.241,18.241,0,0,1,2.04-.12c2.67,0,3.51.96,3.51,4.02a23.5,23.5,0,0,1-1.2,8.19,1.859,1.859,0,0,1-1.68,1.35,11.749,11.749,0,0,1-4.41-1.35,8.9,8.9,0,0,1,.15,1.68,6.736,6.736,0,0,1-.06,1.02A12.1,12.1,0,0,0,468,80.45a3.382,3.382,0,0,0,3.06-1.38c1.29-1.71,2.1-5.73,2.1-10.5,0-2.55-.39-3.93-1.44-4.98-.93-.93-2.28-1.35-4.32-1.35-.66,0-1.11.03-1.83.09.15-.72.48-2.61.63-3.42a21.2,21.2,0,0,1,.54-2.79l-2.82-.3v.39a42.064,42.064,0,0,1-.84,6.3c-2.52.39-5.52.72-6.6.75Zm17.64-4.29a24.87,24.87,0,0,1,6.03,11.1l2.37-1.26a27.769,27.769,0,0,0-6.24-10.92Zm16.86-1.5a14.945,14.945,0,0,1,1.59-.15c4.38-.18,7.77-.36,8.88-.54a.661.661,0,0,0,.24-.03l.03.06-.33.33-.24.24c-4.5,4.44-11.31,10.08-13.95,11.55l1.53,2.28a19.054,19.054,0,0,1,12.6-5.1c3.93,0,6.3,1.65,6.3,4.41a4.586,4.586,0,0,1-2.04,3.84,7.222,7.222,0,0,1-2.46,1.14,8.412,8.412,0,0,0-1.35-2.85,6.154,6.154,0,0,0-5.01-2.46c-2.64,0-4.59,1.59-4.59,3.72a4.093,4.093,0,0,0,.9,2.52c1.11,1.29,3.15,1.95,6.09,1.95,6.63,0,11.04-3.18,11.04-7.92,0-3.9-3.24-6.42-8.28-6.42a14.679,14.679,0,0,0-7.05,1.74l-.06-.12a72.056,72.056,0,0,0,9.69-8.19,5.418,5.418,0,0,1,1.53-1.26l-1.44-1.95a3.037,3.037,0,0,1-1.56.36c-2.67.21-6.63.39-9.15.39a15.878,15.878,0,0,1-3.03-.18Zm9.81,18.63a10.45,10.45,0,0,1-1.98.18c-2.61,0-4.26-.9-4.26-2.31,0-1.05.87-1.71,2.22-1.71C499.11,74.81,500.46,76.13,501.09,78.65Zm19.71-5.91a4.665,4.665,0,1,0,4.65,4.65A4.68,4.68,0,0,0,520.8,72.74Zm0,1.92a2.73,2.73,0,1,1-2.73,2.73A2.714,2.714,0,0,1,520.8,74.66Z" transform="translate(64 973)" fill="#fff"/>
    <path id="パス_693" data-name="パス 693" d="M8.1-67.86V0H36.09c8.73,0,14.13-1.62,18.09-4.77,4.05-3.24,6.12-8.28,6.12-14.67a17.738,17.738,0,0,0-3.06-10.62,21.912,21.912,0,0,0-5.67-5.13c1.08-1.71,2.52-3.87,3.69-5.94,2.07-3.69,3.51-6.84,3.51-11.07,0-5.67-2.52-10.35-6.75-12.87-3.78-2.25-8.37-2.79-15.3-2.79Zm8.64,37.35H38.16c3.87,0,6.66.45,8.91,1.98,3.15,2.16,4.41,5.04,4.41,9.09,0,3.78-1.08,6.66-3.6,8.55-2.43,1.8-5.85,2.61-11.7,2.61H16.74Zm0-29.07H36.18c4.59,0,7.92.27,10.08,1.44,2.61,1.35,3.69,3.42,3.69,6.66,0,2.88-1.08,5.13-2.7,7.92-.9,1.53-1.89,3.15-2.88,4.77H16.74ZM73.62,0h8.55V-56.07L100.98-13.5h8.37l18.81-42.57V0h8.55V-67.86H124.74l-19.53,44.1L85.68-67.86H73.62Zm73.35-67.86L161.01,0h11.97l12.96-46.26L198.99,0h11.97l13.95-67.86h-8.73L204.3-10.17,190.89-57.6h-9.81L167.76-10.17,155.79-67.86ZM265.32,0V-26.19h18.81L300.06,0h10.26L293.49-27.54c1.89-1.89,5.04-4.95,7.38-7.74,3.51-4.05,6.03-8.19,6.03-14.22,0-5.85-2.07-11.16-6.12-14.22-4.23-3.24-9.45-4.14-18.27-4.14H256.68V0Zm16.47-59.49c6.48,0,9.9.36,12.33,1.89,2.88,1.8,3.96,4.5,3.96,8.1,0,3.87-1.89,6.84-4.23,9.54-1.44,1.71-3.15,3.51-4.95,5.4H265.32V-59.49ZM318.51-6.3c3.33,5.04,8.1,7.83,18.72,7.83A95.611,95.611,0,0,0,353.7-.27V-8.1a91.018,91.018,0,0,1-15.93,1.89c-6.57,0-10.35-1.44-12.6-5.22a16.959,16.959,0,0,1-1.89-8.55h31.95a61.787,61.787,0,0,0,.9-9.54c0-3.24-.27-8.01-2.79-11.97-2.88-4.5-8.1-7.56-17.28-7.56-9.45,0-14.94,3.33-17.82,8.46s-3.33,11.25-3.33,17.1C314.91-15.39,315.72-10.53,318.51-6.3Zm6.75-30.15c2.07-3.69,5.4-5.13,10.8-5.13,4.86,0,8.46,1.44,10.35,4.59a12.458,12.458,0,0,1,1.44,6.48,30.169,30.169,0,0,1-.27,3.78h-24.3C323.28-29.34,323.82-33.84,325.26-36.45Zm40.68,12.96c0,7.11,1.08,13.77,3.24,17.73,2.43,4.41,6.12,7.29,12.78,7.29,4.5,0,7.74-1.8,11.61-4.68,2.07-1.53,3.69-2.88,5.13-4.14V0h8.46V-44.01c-7.65-2.79-13.95-5.04-20.43-5.04-8.28,0-13.41,2.16-17.01,7.83C366.93-36.81,365.94-30.33,365.94-23.49Zm8.55,0c0-5.31.63-9.45,2.34-12.6,1.98-3.6,5.22-4.95,10.26-4.95,4.05,0,8.1,1.44,11.61,2.7V-16.2c-1.89,1.62-4.32,3.69-6.66,5.49-2.88,2.25-6.03,4.14-8.91,4.14-3.6,0-5.67-1.35-7.02-4.5C374.94-13.77,374.49-18.72,374.49-23.49Zm44.55-.18c0,7.65.99,13.41,3.24,17.64,2.34,4.41,6.03,7.56,12.87,7.56a21.112,21.112,0,0,0,11.52-3.69c2.34-1.44,4.41-2.88,5.58-3.78V0h8.46V-67.86h-8.46v21.69c-3.51-1.08-9.54-2.88-14.67-2.88-7.02,0-11.97,2.16-15.12,7.65C419.85-36.81,419.04-30.87,419.04-23.67Zm8.55-.09c0-5.13.45-9.18,1.98-12.42,1.71-3.69,4.86-4.86,9.36-4.86,4.05,0,9,1.53,13.32,2.88v23.49a78.565,78.565,0,0,1-6.84,4.77c-2.52,1.53-5.67,3.24-8.82,3.24-4.05,0-6.03-1.35-7.29-4.59C428.04-14.4,427.59-18.18,427.59-23.76Zm40.14-23.76L486.81-.18l-7.02,17.46h9l26.19-64.8H505.8L491.4-11.25,477-47.52Zm74.88,28.53c0,6.84,0,9.81.99,12.6.9,2.52,2.61,4.14,5.94,5.22C552.96-.09,558.09.36,563.4.63V-7.38a39.287,39.287,0,0,1-8.82-1.08,4.155,4.155,0,0,1-3.24-3.69,51.533,51.533,0,0,1-.27-7.02V-38.88h14.58v-8.01H551.07V-59.76h-8.46Zm33.3,12.87c3.51,5.04,8.28,7.65,17.55,7.65,9.45,0,14.76-3.33,18-8.64,2.25-3.69,3.51-9.9,3.51-16.65,0-6.57-.9-13.32-4.32-18-3.6-4.95-8.91-7.29-17.19-7.29-10.26,0-15.39,3.69-18.54,9.63-2.07,3.87-2.97,9.99-2.97,15.93C571.95-16.56,573.39-9.81,575.91-6.12Zm6.66-29.34c2.07-4.05,5.49-5.58,10.89-5.58,5.04,0,8.28,1.26,10.53,4.95,1.98,3.24,2.43,7.2,2.43,12.06,0,5.4-.72,9.9-2.61,12.87-2.07,3.24-5.58,4.68-10.35,4.68-4.95,0-8.46-1.08-10.62-4.95-1.62-2.88-2.34-7.29-2.34-12.15C580.5-28.26,581.04-32.4,582.57-35.46ZM659.16,0V-26.19h18.81L693.9,0h10.26L687.33-27.54c1.89-1.89,5.04-4.95,7.38-7.74,3.51-4.05,6.03-8.19,6.03-14.22,0-5.85-2.07-11.16-6.12-14.22-4.23-3.24-9.45-4.14-18.27-4.14H650.52V0Zm16.47-59.49c6.48,0,9.9.36,12.33,1.89,2.88,1.8,3.96,4.5,3.96,8.1,0,3.87-1.89,6.84-4.23,9.54-1.44,1.71-3.15,3.51-4.95,5.4H659.16V-59.49ZM712.71-6.12c3.51,5.04,8.28,7.65,17.55,7.65,9.45,0,14.76-3.33,18-8.64,2.25-3.69,3.51-9.9,3.51-16.65,0-6.57-.9-13.32-4.32-18-3.6-4.95-8.91-7.29-17.19-7.29-10.26,0-15.39,3.69-18.54,9.63-2.07,3.87-2.97,9.99-2.97,15.93C708.75-16.56,710.19-9.81,712.71-6.12Zm6.66-29.34c2.07-4.05,5.49-5.58,10.89-5.58,5.04,0,8.28,1.26,10.53,4.95,1.98,3.24,2.43,7.2,2.43,12.06,0,5.4-.72,9.9-2.61,12.87-2.07,3.24-5.58,4.68-10.35,4.68-4.95,0-8.46-1.08-10.62-4.95-1.62-2.88-2.34-7.29-2.34-12.15C717.3-28.26,717.84-32.4,719.37-35.46ZM772.11,0V-67.86h-8.46V0Zm22.14,0V-67.86h-8.46V0ZM831.6-.09h8.64V-29.52h33.93v-8.37H840.24v-21.6h37.08v-8.37H831.6ZM882-23.49c0,7.11,1.08,13.77,3.24,17.73,2.43,4.41,6.12,7.29,12.78,7.29,4.5,0,7.74-1.8,11.61-4.68,2.07-1.53,3.69-2.88,5.13-4.14V0h8.46V-44.01c-7.65-2.79-13.95-5.04-20.43-5.04-8.28,0-13.41,2.16-17.01,7.83C882.99-36.81,882-30.33,882-23.49Zm8.55,0c0-5.31.63-9.45,2.34-12.6,1.98-3.6,5.22-4.95,10.26-4.95,4.05,0,8.1,1.44,11.61,2.7V-16.2c-1.89,1.62-4.32,3.69-6.66,5.49-2.88,2.25-6.03,4.14-8.91,4.14-3.6,0-5.67-1.35-7.02-4.5C891-13.77,890.55-18.72,890.55-23.49ZM945.36,0V-47.52H936.9V0Zm.09-55.17V-67.86h-8.64v12.69ZM959.04,0h8.46V-33.12a38.686,38.686,0,0,1,7.47-4.14,42.063,42.063,0,0,1,9.36-2.79V-48.6a37.449,37.449,0,0,0-10.62,2.97,39.891,39.891,0,0,0-6.21,3.87v-5.76h-8.46Z" transform="translate(64 797)" fill="#fff"/>
  </g>
</svg>
