<svg xmlns="http://www.w3.org/2000/svg" xmlns:xlink="http://www.w3.org/1999/xlink" width="347" height="278.994" viewBox="0 0 347 278.994">
  <defs>
    <linearGradient id="linear-gradient" x1="0.5" x2="0.5" y2="1" gradientUnits="objectBoundingBox">
      <stop offset="0" stop-color="#398eee"/>
      <stop offset="1" stop-color="#13b3f9"/>
    </linearGradient>
  </defs>
  <g id="mv-txt-sp" transform="translate(13 -89.947)">
    <path id="パス_702" data-name="パス 702" d="M7.684,1.043a10.787,10.787,0,0,1,.068,1.428A13.984,13.984,0,0,1,4.93,11.634,11.46,11.46,0,0,1,.816,14.966a3.745,3.745,0,0,1,1.02,1.224,15.018,15.018,0,0,0,3.009-2.329,11.843,11.843,0,0,0,2.482-3.434A13.247,13.247,0,0,0,8.534,6.738a14.324,14.324,0,0,0,2.227,5.2,15.983,15.983,0,0,0,4.454,4.25,4.243,4.243,0,0,1,1.02-1.292,13.35,13.35,0,0,1-1.853-1.224,15.2,15.2,0,0,1-2.431-2.482A14.6,14.6,0,0,1,9.6,6.432,20.758,20.758,0,0,1,9.18,2.59a12.123,12.123,0,0,1,.1-1.547ZM30.379,3.406a11.373,11.373,0,0,1,2.125.119V2.114a13.907,13.907,0,0,1-2.125.119H22.117c.187-.34.272-.527.442-.867.153-.323.187-.374.289-.578L21.437.516a3.4,3.4,0,0,1-.34,1.02A12.01,12.01,0,0,1,17.884,5.7a2.267,2.267,0,0,1,.935.9,13.7,13.7,0,0,0,2.635-3.2Zm-1.7,11.186a39.425,39.425,0,0,0-3.264-2.7,16.983,16.983,0,0,0,1.377-1.666c.408-.561.408-.561.68-.9l-1.309-.7a7.668,7.668,0,0,1-1.751,2.516c-1.258-.867-1.87-1.258-3.2-2.023l-.884.816a31.1,31.1,0,0,1,3.2,2.074,16.151,16.151,0,0,1-5.134,2.975,3.516,3.516,0,0,1,.952,1.139,18.728,18.728,0,0,0,5.185-3.366,25.7,25.7,0,0,1,3.213,2.89Zm.663-6.307a17.049,17.049,0,0,0,.68,5.542c.476,1.343,1.309,2.312,2.006,2.312.833,0,1.309-1.071,1.581-3.5a3.253,3.253,0,0,1-1.088-.782c-.085,1.428-.357,2.737-.561,2.737-.187,0-.544-.612-.782-1.292A16.017,16.017,0,0,1,30.6,8.54a13.51,13.51,0,0,1,.068-1.479,16.93,16.93,0,0,1-1.938.068H20.451A11.766,11.766,0,0,1,18.9,7.044V8.387a12.729,12.729,0,0,1,1.8-.1Zm-8.3-2.38a10.086,10.086,0,0,1,1.6-.085H29.41a11.008,11.008,0,0,1,1.7.085V4.6a12.381,12.381,0,0,1-1.7.085H22.457a9.288,9.288,0,0,1-1.411-.068Zm21.369,7.973a3.335,3.335,0,0,1,.731,1.377,11.24,11.24,0,0,0,2.839-.884,6.273,6.273,0,0,0,3.723-5.882c0-3.587-2.567-5.967-6.426-5.967a7.264,7.264,0,0,0-5.593,2.3,7.076,7.076,0,0,0-1.819,4.76c0,2.482,1.258,4.3,2.975,4.3,1.275,0,2.295-1.02,3.264-3.247a24.71,24.71,0,0,0,1.7-6.8,4.487,4.487,0,0,1,1.9.459,4.39,4.39,0,0,1,2.516,4.131,4.993,4.993,0,0,1-2.686,4.539A9.3,9.3,0,0,1,42.415,13.878ZM42.347,3.865a23.213,23.213,0,0,1-1.513,6.12c-.7,1.6-1.343,2.38-2.006,2.38-.884,0-1.564-1.224-1.564-2.771a5.8,5.8,0,0,1,2.652-4.93A4.808,4.808,0,0,1,42.347,3.865Zm10,7.378a4.346,4.346,0,0,0,.867,2.38,5.08,5.08,0,0,0,4.182,1.6c2.992,0,4.726-1.428,4.726-3.893a3.023,3.023,0,0,0-1.19-2.584,6.233,6.233,0,0,0-2.737-1.088,12.911,12.911,0,0,1-2.431-.612,1.889,1.889,0,0,1-1.377-1.819c0-1.292,1.156-2.176,2.839-2.176a3.062,3.062,0,0,1,2.414.935A2.577,2.577,0,0,1,60.2,5.327l1.717-.221a4.076,4.076,0,0,0-.765-1.836,4.625,4.625,0,0,0-3.893-1.615c-2.737,0-4.505,1.428-4.505,3.621a2.98,2.98,0,0,0,1.513,2.7,7.4,7.4,0,0,0,2.38.867c2.159.476,2.312.51,2.856.816a1.889,1.889,0,0,1,.952,1.751c0,1.5-1.173,2.4-3.094,2.4A3.36,3.36,0,0,1,54.6,12.688a2.738,2.738,0,0,1-.51-1.632Zm21.148-9.35a11.38,11.38,0,0,1,.136,2.057V10.1c0,2.414-1.309,3.74-3.706,3.74A3.374,3.374,0,0,1,66.2,10.1V3.95a10.8,10.8,0,0,1,.136-2.057h-1.87A11.262,11.262,0,0,1,64.6,3.95v6.2c0,3.281,1.887,5.1,5.287,5.1a5.506,5.506,0,0,0,4-1.394,5.109,5.109,0,0,0,1.343-3.706V3.916a11.092,11.092,0,0,1,.136-2.023Zm6.035,1.751a11.315,11.315,0,0,1-.476-1.751H76.993a16.872,16.872,0,0,1,.867,1.989L81.5,13.368A13.339,13.339,0,0,1,82.042,15h2.006a12.788,12.788,0,0,1,.527-1.632l3.638-9.486a12.793,12.793,0,0,1,.867-1.989H87.023a8.125,8.125,0,0,1-.493,1.751l-3.077,8.619c-.136.357-.2.561-.408,1.224-.187-.612-.323-1.02-.391-1.224Zm15.725-.238A21.4,21.4,0,0,1,91.6,3.2L91.562,4.6a1.611,1.611,0,0,1,.357-.034,2.928,2.928,0,0,1,.34.017c.357.017,2.04.051,2.38.051.068,0,.255-.017.306-.017-.1.187-.1.187-.153.272a16.923,16.923,0,0,1-3.723,4.692L92.191,10.7a6.083,6.083,0,0,1,1.36-1.445A6.222,6.222,0,0,1,97.24,7.469c.765,0,1.156.374,1.258,1.207a13.388,13.388,0,0,0-2.5,1.36,3.536,3.536,0,0,0-1.8,2.754,2.268,2.268,0,0,0,1.156,2.04,7.039,7.039,0,0,0,3.485.663,28.659,28.659,0,0,0,4.233-.323,4.044,4.044,0,0,1,.7-.085l-.153-1.564a14.289,14.289,0,0,1-4.624.68c-2.4,0-3.366-.442-3.366-1.513a2.032,2.032,0,0,1,1-1.6,10.43,10.43,0,0,1,2.04-1.122V10.5a21.385,21.385,0,0,1-.1,2.261l1.394-.017a4.671,4.671,0,0,1-.034-.7v-.7c.017-.34.017-.7.017-.884,0-.374,0-.425-.017-.986a26.164,26.164,0,0,1,4.505-1.445l-.612-1.394a4.777,4.777,0,0,1-1.19.493c-.833.289-1.53.544-2.856,1.054A2.109,2.109,0,0,0,97.478,6.33a4.387,4.387,0,0,0-2.346.7,3.851,3.851,0,0,0-.578.425,2.328,2.328,0,0,0-.238.17.21.21,0,0,1-.034-.051l.034-.034c0-.017.068-.068.17-.136a4.787,4.787,0,0,0,.544-.629,12.784,12.784,0,0,0,1.377-2.159c1.666-.051,3.842-.2,5.015-.357.986-.136.986-.136,1.309-.17l-.1-1.36a22.483,22.483,0,0,1-4.59.6c-.952.051-.952.051-1.071.068a11.1,11.1,0,0,0,.51-1.139,3.666,3.666,0,0,1,.408-.867l-1.6-.238a7.39,7.39,0,0,1-.765,2.261Zm17.663,2.907a.129.129,0,0,1,.068-.017.781.781,0,0,1,.17.017,2.951,2.951,0,0,1,.306.017c.051,0,.238.017.51.034.612.051,1.241.068,1.921.068.629,0,1.054-.017,1.87-.051.085,2.754.119,3.825.17,4.2a4.781,4.781,0,0,0-1.768-.306c-1.938,0-3.315,1.054-3.315,2.533,0,1.547,1.258,2.516,3.281,2.516A3.061,3.061,0,0,0,119.1,13.9a2.848,2.848,0,0,0,.2-1.173,2.631,2.631,0,0,0-.017-.357c.085.051.085.068.153.1a1.975,1.975,0,0,1,.187.119,10.172,10.172,0,0,1,1.768,1.207,4.731,4.731,0,0,1,.51.493l.612-1.445a1.8,1.8,0,0,1-.442-.289,13.458,13.458,0,0,0-2.788-1.632c-.17-2.873-.17-3.077-.187-4.641a23.306,23.306,0,0,0,2.686-.442,2.422,2.422,0,0,1,.272-.051l-.068-1.36a12.524,12.524,0,0,1-2.89.612V4.086a18.716,18.716,0,0,1,.1-2.482h-1.513c.017.17.034.425.034.731.017,1.173.017,1.173.017,2.805-.561.017-.952.034-1.615.034a13.669,13.669,0,0,1-3.2-.255Zm5.049,5.525v.493a1.9,1.9,0,0,1-.289,1.19,2.226,2.226,0,0,1-1.615.561c-1.105,0-1.853-.51-1.853-1.275,0-.8.8-1.309,2.023-1.309A4.367,4.367,0,0,1,117.963,11.838Zm-7.837.918v-.408a2.657,2.657,0,0,0-.017-.425c-.017-.782-.034-1.615-.034-2.006A24.934,24.934,0,0,1,111.4,1.791l-1.615-.221a5.111,5.111,0,0,1-.187,1.139,29.418,29.418,0,0,0-.85,6.97,27.2,27.2,0,0,0,.476,5.168,3.01,3.01,0,0,1,.085.629l1.479-.119a1.921,1.921,0,0,1-.034-.374,14.7,14.7,0,0,1,1.53-4.93l-1.071-.476c-.051.153-.068.2-.153.408a17.713,17.713,0,0,0-.884,2.788Zm17.425-11a5.749,5.749,0,0,1,.051.935l-.017,1.139c-.119,5.338-.136,5.865-.136,6.9a8.733,8.733,0,0,0,.238,2.261,3.459,3.459,0,0,0,1.258,1.8,4.9,4.9,0,0,0,2.839.748,6.135,6.135,0,0,0,4.828-2.142,10.441,10.441,0,0,0,1.921-4,4.694,4.694,0,0,1-1.445-.969,9.821,9.821,0,0,1-.833,2.737,4.745,4.745,0,0,1-4.369,2.941,2.864,2.864,0,0,1-2.482-1,4.789,4.789,0,0,1-.476-2.737c0-1.156.1-5.27.17-6.511a16.012,16.012,0,0,1,.187-2.091Zm5.389.935a11.866,11.866,0,0,1,1.768,2.686l1-.561a13.3,13.3,0,0,0-1.785-2.635Zm1.972-.918a12.459,12.459,0,0,1,1.751,2.635l.986-.561a12.686,12.686,0,0,0-1.785-2.584Zm16.1-.272a18.4,18.4,0,0,1-.51,2.7h-.476a8.493,8.493,0,0,0-3.6.782,20.133,20.133,0,0,1-.442-2.89l-1.479.289a3.933,3.933,0,0,1,.221.918c.153.85.374,1.938.493,2.38a6.3,6.3,0,0,0-1.7,1.734,6.1,6.1,0,0,0-1,3.3c0,2.074,1.037,3.468,2.567,3.468,1.037,0,2.091-.68,3.213-2.04a20.221,20.221,0,0,0,3.23-6.562c2.176.476,3.349,1.785,3.349,3.74,0,1.921-1.088,3.349-3.2,4.2a8.218,8.218,0,0,1-2.6.629,3.159,3.159,0,0,1,.782,1.377,12.857,12.857,0,0,0,2.6-.765,5.707,5.707,0,0,0,3.859-5.355c0-2.6-1.632-4.437-4.454-5.032.068-.272.085-.357.221-.867a7.886,7.886,0,0,1,.459-1.7Zm-5.44,5.559a21.393,21.393,0,0,0,1.53,4.386c-.714.884-1.377,1.343-1.955,1.343-.782,0-1.309-.833-1.309-2.057A4.8,4.8,0,0,1,145.571,7.061Zm2.448,3.264a3.216,3.216,0,0,0-.1-.306,23.971,23.971,0,0,1-1.224-3.74,6.133,6.133,0,0,1,3.145-.833h.323A19.939,19.939,0,0,1,148.189,10a2.171,2.171,0,0,0-.119.2.287.287,0,0,1-.034.085Zm10.761,2.108a16.84,16.84,0,0,1,3.451,3.757l1.156-1.105a18.456,18.456,0,0,0-3.536-3.638ZM182.818.788a11.427,11.427,0,0,1-2.346,2.7,16.952,16.952,0,0,1-4.828,3.043,4.715,4.715,0,0,1,.8,1.19,19.524,19.524,0,0,0,3.91-2.4A16.961,16.961,0,0,0,183.6,1.978a14.559,14.559,0,0,0,3.23,3.315,22.942,22.942,0,0,0,4.114,2.5,4.188,4.188,0,0,1,.782-1.309,15.949,15.949,0,0,1-3.961-2.176A12.631,12.631,0,0,1,184.331.788ZM179.979,7.2a11.12,11.12,0,0,1,1.428-.068h4.454a12.973,12.973,0,0,1,1.513.068V5.837a11.029,11.029,0,0,1-1.462.068h-4.556a9.5,9.5,0,0,1-1.377-.068Zm9.163,1.836a10.478,10.478,0,0,1-1.853.085h-7.616a18.94,18.94,0,0,1-2.023-.1v1.445c.731-.068,1.343-.1,2.006-.1h8.211l-3.179,3.859a9.5,9.5,0,0,1-1.36,1.377l1.445.816c.34-.51.663-.935,1.122-1.513l3.349-4.148c.187-.238.544-.629.714-.8Zm12.529-5.525c-1.9.051-2.652.068-4.1.119-2.567.1-2.669.1-3.128.1-.255,0-.391,0-.731-.017l.051,1.462c1.054-.17,5.015-.391,7.922-.442,0,.935.017,1.819.034,1.972v.119a2.56,2.56,0,0,0-1.887-.68,2.933,2.933,0,0,0-3.145,2.89,2.936,2.936,0,0,0,5.032,1.887,2.705,2.705,0,0,0,.459-.748,3.814,3.814,0,0,1-.493,1.717c-.731,1.326-2.04,2.159-4.233,2.754a4.378,4.378,0,0,1,.867,1.309,10.97,10.97,0,0,0,2.805-1.377,5.347,5.347,0,0,0,2.329-4.488,4.925,4.925,0,0,0-.425-2.108V4.715c1.36-.017,1.649-.017,1.887-.017a29.5,29.5,0,0,1,3.128.085V3.355c-.561.068-1.853.1-5.032.119a14.577,14.577,0,0,1,.085-2.227h-1.53a7.623,7.623,0,0,1,.085.986Zm-1.717,3.774a1.923,1.923,0,0,1,1.343.493,1.143,1.143,0,0,1,.34.9,1.8,1.8,0,0,1-1.887,1.87,1.567,1.567,0,0,1-1.666-1.615A1.731,1.731,0,0,1,199.954,7.282Zm19.227-6.12a26.607,26.607,0,0,1-5.032,4.675,13.6,13.6,0,0,0-1.462,1.173,1.825,1.825,0,0,0-.51,1.207c0,.646.289,1.037,1.275,1.819a55.7,55.7,0,0,1,4.335,3.57,15.955,15.955,0,0,1,2.193,2.329l1.275-1.258a4.5,4.5,0,0,1-.493-.425,49.477,49.477,0,0,0-5.423-4.59c-1.411-1.071-1.513-1.173-1.513-1.462,0-.221.136-.357.714-.816,2.023-1.547,3.128-2.448,3.961-3.23,1.649-1.564,1.853-1.768,2.091-1.938Zm2.363,3.2a12.459,12.459,0,0,1,1.751,2.635l.986-.561A12.686,12.686,0,0,0,222.5,3.848Zm-1.972.918a11.866,11.866,0,0,1,1.768,2.686l1-.561a13.3,13.3,0,0,0-1.785-2.635Zm10.251,7.5c0-.289-.017-.357-.017-.731-.017-.459-.034-1.275-.034-1.615a31.5,31.5,0,0,1,.391-5.2,20.668,20.668,0,0,1,.85-3.383L229.4,1.621a10.429,10.429,0,0,1-.238,1.445,29.178,29.178,0,0,0-.748,6.732,25.674,25.674,0,0,0,.442,4.845c.051.34.068.442.1.714l1.479-.1a2.539,2.539,0,0,1-.017-.323,13.806,13.806,0,0,1,1.428-4.794l-1.02-.476a14.752,14.752,0,0,0-.986,3.111ZM233.036,5c.136.017.17.017.272.034a2.1,2.1,0,0,0,.306.034,20.45,20.45,0,0,0,2.278.119,29.372,29.372,0,0,0,3.621-.221q1.1-.153,1.173-.153L240.6,3.372a18.827,18.827,0,0,1-4.658.459,11.746,11.746,0,0,1-2.873-.255Zm1.224,3.179a4.967,4.967,0,0,0-1.513,3.213,2.742,2.742,0,0,0,.51,1.632c.714.918,1.989,1.343,3.995,1.343a19.453,19.453,0,0,0,3.5-.323c.357-.068.391-.068.612-.1l-.153-1.547a11.784,11.784,0,0,1-3.961.595c-2.057,0-3.111-.578-3.111-1.734a3.856,3.856,0,0,1,1.275-2.5Zm12.971-2.907V7.01h-1.224a12.78,12.78,0,0,1-1.751-.1V8.217a12.107,12.107,0,0,1,1.751-.1h1.224v1.938H246.6a15.013,15.013,0,0,1-1.666-.085v1.224a13.777,13.777,0,0,1,1.768-.1h3.587A11.01,11.01,0,0,1,248,12.926a15.915,15.915,0,0,1-4.131,1.768,4.5,4.5,0,0,1,.782,1.19,14.424,14.424,0,0,0,6.46-4.114c-.034.442-.051.867-.068,1.241v1.6a10.557,10.557,0,0,1-.119,1.819H252.4a8.791,8.791,0,0,1-.119-1.819v-1.6c0-.323-.017-.595-.068-1.258a14.7,14.7,0,0,0,6.749,4.131,6.326,6.326,0,0,1,.748-1.309,14.229,14.229,0,0,1-3.893-1.428,12.482,12.482,0,0,1-2.8-2.057h3.944a13.048,13.048,0,0,1,1.768.1V9.968a15.013,15.013,0,0,1-1.666.085h-.816V8.115h1.326a10.286,10.286,0,0,1,1.768.1V6.908a12.874,12.874,0,0,1-1.768.1h-1.326V5.276h.8a16.24,16.24,0,0,1,1.666.085V4.137a12.7,12.7,0,0,1-1.768.1H252.28V2.607c1.819-.17,3.162-.374,4.794-.68.323-.068.391-.085.646-.119L256.853.635a10.539,10.539,0,0,1-2.465.578,56.375,56.375,0,0,1-8.313.612h-.612a4.553,4.553,0,0,1,.493,1.156c1.717-.034,1.717-.034,5.083-.272v1.53h-4.352a12.874,12.874,0,0,1-1.768-.1V5.361a12.519,12.519,0,0,1,1.666-.085Zm1.224,0h2.584V7.01h-2.584Zm0,2.839h2.584v1.938h-2.584Zm6.562,1.938H252.28V8.115h2.737Zm0-3.043H252.28V5.276h2.737Zm7.242,6.018a4.426,4.426,0,0,1,.425-.544c.289-.323.51-.578.7-.765.476-.527.476-.527.765-.884a2.809,2.809,0,0,0,.323-.425l.034.017a6.932,6.932,0,0,0-.068,1.037,23.957,23.957,0,0,1-.119,4.335H265.9c-.051-.527-.068-1.819-.068-4.76,0-.391,0-.85.017-1.717,2.465-2.533,4.539-3.978,5.661-3.978a.78.78,0,0,1,.867.867,12.285,12.285,0,0,1-.391,2.363,16.8,16.8,0,0,0-.68,4.1,2.208,2.208,0,0,0,.833,1.989,2.232,2.232,0,0,0,1.292.374,3.055,3.055,0,0,0,2.363-1.224,8.242,8.242,0,0,0,1.088-1.683,6.688,6.688,0,0,1-.9-1.394,7.391,7.391,0,0,1-.969,1.938,1.922,1.922,0,0,1-1.343.918c-.612,0-.935-.391-.935-1.088a12.093,12.093,0,0,1,.357-2.329c.731-3.281.765-3.451.765-4.182a1.954,1.954,0,0,0-2.091-2.057c-1.02,0-2.227.561-3.774,1.785a11.6,11.6,0,0,0-2.142,1.938l-.034-.017a10.038,10.038,0,0,0,.051-1.037c0-.051.017-.187.017-.391,0-.085.017-.2.017-.374a5.145,5.145,0,0,1,.884-1.054l-.493-.595a1.032,1.032,0,0,1-.306.085,21.77,21.77,0,0,1,.2-2.941L264.622,1.3c.017.323.034.51.034.731,0,.374-.017,1.156-.051,2.363-1.19.085-1.921.119-2.176.119a3.706,3.706,0,0,1-.578-.034l.068,1.394a21.435,21.435,0,0,1,2.652-.238c-.034.969-.034.969-.051,1.462-.017.8-.034,1.326-.034,1.581-.357.374-1.309,1.343-1.955,1.972a6.493,6.493,0,0,1-1.054.9Zm19.295-9.35a8.468,8.468,0,0,1,.9-.085c2.482-.1,4.4-.2,5.032-.306a.374.374,0,0,0,.136-.017l.017.034-.187.187-.136.136a55.3,55.3,0,0,1-7.9,6.545l.867,1.292a10.8,10.8,0,0,1,7.14-2.89c2.227,0,3.57.935,3.57,2.5a2.6,2.6,0,0,1-1.156,2.176,4.092,4.092,0,0,1-1.394.646,4.767,4.767,0,0,0-.765-1.615,3.487,3.487,0,0,0-2.839-1.394,2.329,2.329,0,0,0-2.6,2.108,2.319,2.319,0,0,0,.51,1.428c.629.731,1.785,1.105,3.451,1.105,3.757,0,6.256-1.8,6.256-4.488,0-2.21-1.836-3.638-4.692-3.638a8.318,8.318,0,0,0-3.995.986l-.034-.068a40.831,40.831,0,0,0,5.491-4.641,3.07,3.07,0,0,1,.867-.714l-.816-1.1a1.721,1.721,0,0,1-.884.2c-1.513.119-3.757.221-5.185.221a9,9,0,0,1-1.717-.1Zm5.559,10.557a5.921,5.921,0,0,1-1.122.1c-1.479,0-2.414-.51-2.414-1.309,0-.595.493-.969,1.258-.969C285.991,12.059,286.756,12.807,287.113,14.235Zm10.88-12.342c-1,0-1.445-.017-1.938-.034a10.815,10.815,0,0,1,.136,1.887v9.146a10.743,10.743,0,0,1-.153,2.142c.629-.034,1.105-.034,1.955-.034h3.927c2.669,0,4.182-1.309,4.182-3.621a3.3,3.3,0,0,0-1.037-2.567,2.974,2.974,0,0,0-1.666-.731,3.111,3.111,0,0,0,1.326-.7,2.935,2.935,0,0,0,.918-2.3c0-2.057-1.411-3.2-3.91-3.2Zm-.221,5.542V3.27h3.859c1.581,0,2.4.68,2.4,1.989,0,1.394-.867,2.176-2.38,2.176Zm0,1.36H301.7c1.819,0,2.754.833,2.754,2.431,0,1.564-.952,2.4-2.7,2.4h-3.978ZM320.5,12.858A14.589,14.589,0,0,1,320.365,15h1.785a11.82,11.82,0,0,1-.136-2.142V4.052a13.033,13.033,0,0,1,.136-2.159h-2.295a7.959,7.959,0,0,1-.578,1.785l-3.978,9.1-3.978-9.1a10.329,10.329,0,0,1-.578-1.785h-2.3a13.029,13.029,0,0,1,.136,2.159v8.806A12.428,12.428,0,0,1,308.448,15h1.785a12.061,12.061,0,0,1-.136-2.142V6.874c0-.51-.051-1.9-.119-3.145A22.638,22.638,0,0,0,311.1,6.721l2.8,6.358A8.075,8.075,0,0,1,314.568,15H316a10,10,0,0,1,.68-1.9l2.89-6.477a16.035,16.035,0,0,0,1.054-2.873c-.051.765-.119,2.4-.119,3.009ZM331.517,1.893a10.4,10.4,0,0,1-.374,1.683l-2.193,7.293c-.085.255-.357,1.411-.476,2.04-.17-.884-.357-1.768-.442-2.091l-1.887-7.14a9.084,9.084,0,0,1-.323-1.785h-2.006a12.494,12.494,0,0,1,.68,1.955l2.7,9.435A15.958,15.958,0,0,1,327.658,15h1.581a13.122,13.122,0,0,1,.425-1.666l2.108-7.055c.136-.459.323-1.173.51-2.023a19.514,19.514,0,0,0,.493,2.023l2.125,7.055A13.345,13.345,0,0,1,335.325,15h1.6c.068-.357.068-.357.442-1.717l2.7-9.435a13.447,13.447,0,0,1,.663-1.955h-1.989a9.126,9.126,0,0,1-.306,1.785L336.549,10.8c-.051.17-.2.867-.442,2.108-.289-1.275-.425-1.853-.51-2.142l-2.176-7.191a13.426,13.426,0,0,1-.391-1.683ZM8.109,39.878a3.335,3.335,0,0,1,.731,1.377,11.24,11.24,0,0,0,2.839-.884A6.273,6.273,0,0,0,15.4,34.489c0-3.587-2.567-5.967-6.426-5.967a7.264,7.264,0,0,0-5.593,2.3,7.076,7.076,0,0,0-1.819,4.76c0,2.482,1.258,4.3,2.975,4.3,1.275,0,2.3-1.02,3.264-3.247a24.71,24.71,0,0,0,1.7-6.8,4.487,4.487,0,0,1,1.9.459,4.39,4.39,0,0,1,2.516,4.131,4.993,4.993,0,0,1-2.686,4.539A9.3,9.3,0,0,1,8.109,39.878ZM8.041,29.865a23.213,23.213,0,0,1-1.513,6.12c-.7,1.6-1.343,2.38-2.006,2.38-.884,0-1.564-1.224-1.564-2.771a5.8,5.8,0,0,1,2.652-4.93A4.808,4.808,0,0,1,8.041,29.865Zm19.788,2.261v-2.72a21.041,21.041,0,0,0,4.811-1.224,6.386,6.386,0,0,1,.612-.221l-1.037-1.156a5.149,5.149,0,0,1-1.53.714,15.818,15.818,0,0,1-4.1.782h-.136a17.786,17.786,0,0,1,.1,2.3,33.563,33.563,0,0,1-.561,7.8,8.187,8.187,0,0,1-1.547,3.128,5.218,5.218,0,0,1,1.156.833c1.53-2.108,2.176-4.709,2.21-9.044h2.414v7.259a11.673,11.673,0,0,1-.1,1.785h1.5a9.271,9.271,0,0,1-.1-1.785V33.316h.561a8.617,8.617,0,0,1,1.479.085V32.024a8.884,8.884,0,0,1-1.564.1ZM21.42,33.5c.017.187.034.272.034.408V35.2H19.482A6.783,6.783,0,0,1,18,35.1V36.41a8.185,8.185,0,0,1,1.445-.085h1.547a7.583,7.583,0,0,1-1.156,1.649,10.038,10.038,0,0,1-2.142,1.8,4.373,4.373,0,0,1,.7,1.173,9.817,9.817,0,0,0,3.128-3.6c-.051.578-.068.952-.068,1.343V40.9a8.787,8.787,0,0,1-.1,1.428h1.394a9.309,9.309,0,0,1-.085-1.445V38.637c0-.425-.017-.646-.068-1.445a7.947,7.947,0,0,0,1.989,2.193,5.6,5.6,0,0,1,.663-1.1,7.122,7.122,0,0,1-2.21-1.955h1.326a8.09,8.09,0,0,1,1.428.085V35.1a7.017,7.017,0,0,1-1.428.1h-1.7V33.911a4.034,4.034,0,0,1,.017-.408h1.751a8.918,8.918,0,0,1,1.445.085V32.262a8.185,8.185,0,0,1-1.445.085h-.85A15.987,15.987,0,0,0,24.7,30l-1.207-.374a9.208,9.208,0,0,1-1.088,2.72H19.431a8.069,8.069,0,0,1-1.445-.085v1.326a8.3,8.3,0,0,1,1.445-.085Zm1.309-5.151v-.408a5.589,5.589,0,0,1,.085-1.19H21.352a6.173,6.173,0,0,1,.085,1.207v.391H19.856a8.327,8.327,0,0,1-1.53-.085v1.326a8.96,8.96,0,0,1,1.5-.085h4.352a9.339,9.339,0,0,1,1.5.085V28.267a8.379,8.379,0,0,1-1.479.085Zm-1.445,3.519a10.189,10.189,0,0,0-.9-2.227l-1.088.374a9.063,9.063,0,0,1,.9,2.227Zm20.757-3.315H37.264a10.13,10.13,0,0,1-1.785-.119V29.8a12.956,12.956,0,0,1,1.751-.1h4.811v1.343h-3.23a12.158,12.158,0,0,1-1.887-.085,16.078,16.078,0,0,1,.068,1.8v2.754a15.587,15.587,0,0,1-.068,1.768,13.073,13.073,0,0,1,1.955-.085h3.162v1.377H37.128a9.4,9.4,0,0,1-1.785-.119v1.377a12.728,12.728,0,0,1,1.8-.1h4.9v.714a11.667,11.667,0,0,1-.119,1.9h1.513a11,11,0,0,1-.119-1.9v-.714h5.168a13.87,13.87,0,0,1,1.819.1V38.45a9.138,9.138,0,0,1-1.8.119H43.316V37.192h3.451a12.947,12.947,0,0,1,1.938.085,14.836,14.836,0,0,1-.068-1.768V32.721a15.021,15.021,0,0,1,.068-1.768,12.682,12.682,0,0,1-1.921.085H43.316V29.695h5.032a14.057,14.057,0,0,1,1.785.1v-1.36a9.367,9.367,0,0,1-1.8.119H43.316v-.187a8.808,8.808,0,0,1,.119-1.581H41.922a8.683,8.683,0,0,1,.119,1.581Zm0,3.57v1.445H38.267V32.126Zm0,2.516V36.1H38.267V34.642ZM43.316,36.1V34.642h4.046V36.1Zm0-2.533V32.126h4.046v1.445Zm9.554-.544a32.186,32.186,0,0,1,3.3-.6,26.514,26.514,0,0,1-1.8,5.236A17.346,17.346,0,0,1,52.6,40.779l1.394.8,1.1-2.142a31.987,31.987,0,0,0,2.5-7.123,10.337,10.337,0,0,1,1.156-.068c1.513,0,1.989.544,1.989,2.278a12.978,12.978,0,0,1-.7,4.658,1.022,1.022,0,0,1-.935.748,6.579,6.579,0,0,1-2.5-.748,5,5,0,0,1,.085.935c0,.2-.017.306-.034.595a6.779,6.779,0,0,0,2.567.612,1.88,1.88,0,0,0,1.734-.782c.731-.969,1.19-3.247,1.19-5.95a3.689,3.689,0,0,0-.816-2.822,3.279,3.279,0,0,0-2.448-.748c-.374,0-.629,0-1.037.034.085-.391.272-1.479.357-1.921a12.012,12.012,0,0,1,.306-1.581l-1.6-.187V27.6a23.837,23.837,0,0,1-.476,3.57,34.989,34.989,0,0,1-3.74.408Zm9.911-2.38a14.168,14.168,0,0,1,3.417,6.29l1.326-.731a15.531,15.531,0,0,0-3.536-6.188Zm2.907-3.876a12.459,12.459,0,0,1,1.751,2.635l.986-.561a12.685,12.685,0,0,0-1.785-2.584Zm-1.972.918a11.866,11.866,0,0,1,1.768,2.686l1-.561A13.3,13.3,0,0,0,64.7,27.179Zm13.566,7.922a3.117,3.117,0,0,1,.816.918,6.653,6.653,0,0,0,1.972-2.635,14.927,14.927,0,0,1,1.275,1.649l.714-.918a15.161,15.161,0,0,0-1.6-1.853,12.272,12.272,0,0,0,.391-2.805h1.309a16.572,16.572,0,0,0,.51,4.811c.34,1.139.833,1.768,1.411,1.768.663,0,1-.731,1.309-2.822a2.73,2.73,0,0,1-.9-.595c-.1,1.428-.238,2.108-.391,2.108-.136,0-.323-.425-.476-1.173A22.576,22.576,0,0,1,83.317,30a7.687,7.687,0,0,1,.068-1.156,8.831,8.831,0,0,1-1.343.068H80.9c.017-.595.017-.595.034-1.139A4.567,4.567,0,0,1,81,26.839H79.679a8.674,8.674,0,0,1,.1,1.6c0,.136,0,.238-.017.476h-.748a7.267,7.267,0,0,1-1.156-.068v1.173c.391-.034.714-.051,1.156-.051h.714a13.055,13.055,0,0,1-.2,1.938c-.306-.272-.425-.391-.952-.833l-.629.833c.646.527.867.714,1.275,1.105a4.811,4.811,0,0,1-1.938,2.55v-.816c-1.309.17-1.87.238-2.907.34v-1.02h1.1a10.185,10.185,0,0,1,1.054.051V33.1a5.978,5.978,0,0,1-1.037.068H74.375v-.1a7.036,7.036,0,0,1,.068-1.139H73.185a6.587,6.587,0,0,1,.068,1.1v.136H72.114A5.253,5.253,0,0,1,71.06,33.1v1.037a6.451,6.451,0,0,1,1.054-.068h1.139v1.122c-1,.068-2.21.136-2.822.136-.153,0-.272,0-.493-.017l.17,1.122c.323-.051.6-.085.833-.1,1.921-.119,4.114-.357,6.341-.68Zm-4.063-7.633H71.74a8.081,8.081,0,0,1-1.224-.068v1.037c.425-.034.731-.051,1.224-.051h1.479v.969H71.111a9.309,9.309,0,0,1-1.326-.068v1.071a11.859,11.859,0,0,1,1.309-.068h.952a1.714,1.714,0,0,1-.561.782,4.535,4.535,0,0,1-1.921.816,2.266,2.266,0,0,1,.561.918A5.362,5.362,0,0,0,72.3,32.143a2.931,2.931,0,0,0,.816-1.343h1.445v1.054c0,.612.2.714,1.343.714,1.547,0,1.717-.1,1.819-1.122a2.861,2.861,0,0,1-.884-.306c-.017.663-.034.68-.714.68-.493,0-.561-.034-.561-.255V30.8h.8a8.929,8.929,0,0,1,1.258.051V29.814a12.851,12.851,0,0,1-1.292.051H74.375V28.9h1.394c.527,0,.833.017,1.241.051V27.91a8.432,8.432,0,0,1-1.258.068H74.375v-.119a5.447,5.447,0,0,1,.085-1.037H73.134a7.514,7.514,0,0,1,.085,1.037Zm8.534,10.489a7.046,7.046,0,0,1-.374,2.21c-.119.255-.306.323-.935.323a15.517,15.517,0,0,1-2.38-.2,2.824,2.824,0,0,1,.425,1.258c.7.051,1.326.085,1.853.085,1.19,0,1.7-.136,2.006-.544.357-.476.578-1.513.714-3.417a7.417,7.417,0,0,1,.1-.833,16.622,16.622,0,0,1-1.819.068h-4.08c.034-.2.051-.306.068-.459a4.284,4.284,0,0,1,.119-.714l-1.411-.034a3.879,3.879,0,0,1,.034.459,4.2,4.2,0,0,1-.068.748H72.59a14.148,14.148,0,0,1-1.734-.085v1.224a11.393,11.393,0,0,1,1.717-.085H75.6c-.85,1.462-2.652,2.329-5.661,2.7a2.808,2.808,0,0,1,.7,1.156A12.96,12.96,0,0,0,74.1,41.272a5.443,5.443,0,0,0,2.839-2.805Zm8.041-8.84a10.4,10.4,0,0,1,1.054-.068A40.8,40.8,0,0,0,96,29.151c-.221.2-.272.255-.629.578a32.913,32.913,0,0,1-5.287,4.1,21.077,21.077,0,0,1-2.975.34h-.187l.153,1.5a46.429,46.429,0,0,1,4.794-.714c1.938-.238,2.431-.306,3.553-.493-2.21.935-3.366,2.278-3.366,3.876a2.66,2.66,0,0,0,1.1,2.176,7.43,7.43,0,0,0,4.284,1.054l1.258.017-.068-1.547a5.866,5.866,0,0,1-1.292.119,6.082,6.082,0,0,1-3.077-.663,1.639,1.639,0,0,1-.8-1.394,2.017,2.017,0,0,1,.527-1.343A5.564,5.564,0,0,1,96.05,35.2a11.344,11.344,0,0,1,4.709-.918l.391.017-.119-1.428a3.524,3.524,0,0,1-.51.085c-.289.017-.765.068-1.462.119l-2.788.255c-2.38.187-3.3.289-4.08.425a36.15,36.15,0,0,0,5.287-4.148,5.826,5.826,0,0,1,.884-.748l-.833-1.054a3.394,3.394,0,0,1-1.02.221c-1.258.136-3.655.238-5.27.238a10.172,10.172,0,0,1-1.547-.085Zm8.347.136a12.2,12.2,0,0,1,1.649,2.55l.952-.544a11.808,11.808,0,0,0-1.666-2.5Zm1.87-1.037a11.634,11.634,0,0,1,1.768,2.584l.952-.544a12.719,12.719,0,0,0-1.785-2.55Zm6.29,1.054a9.073,9.073,0,0,1,1.275-.1,41.483,41.483,0,0,0,4.879-.323l.017.017c-.051.051-.221.221-.306.323-1.19,1.292-3.621,3.6-5.474,5.185a14.961,14.961,0,0,1-2.21,1.649l.969,1.275a8.076,8.076,0,0,1,1.36-1.088,9.885,9.885,0,0,1,5.372-1.819c2.023,0,3.264.85,3.264,2.244,0,1.683-1.751,2.822-4.318,2.822a10.2,10.2,0,0,1-4.335-1,6.652,6.652,0,0,1,.153,1.275v.34a12.61,12.61,0,0,0,4.063.748,8.739,8.739,0,0,0,3.689-.731,3.839,3.839,0,0,0,2.278-3.468c0-2.108-1.734-3.434-4.471-3.434a7.13,7.13,0,0,0-4,1.19l-.051-.051a22.9,22.9,0,0,0,3.026-2.567l1.9-1.887c.544-.527.833-.8.85-.833a2.838,2.838,0,0,1,.476-.374l-.816-1.156a1.886,1.886,0,0,1-.765.17c-1.1.119-3.315.221-4.76.221a10.513,10.513,0,0,1-2.142-.119Zm15.436-.935c.034.323.034.391.051,1.02.085,4.25.323,6.341.9,8.041.578,1.717,1.53,2.737,2.567,2.737,1.292,0,2.091-1.173,2.958-4.267a5.863,5.863,0,0,1-1.19-1.139,12.377,12.377,0,0,1-.884,2.958c-.238.544-.527.816-.816.816-.612,0-1.258-1.139-1.615-2.89A29.777,29.777,0,0,1,123.3,31a14.156,14.156,0,0,1,.119-2.142Zm8.6,1.5a15.252,15.252,0,0,1,3.519,8.585l1.462-.578a16.076,16.076,0,0,0-3.74-8.619Zm9.894,6.545a2.644,2.644,0,1,0,2.635,2.635A2.652,2.652,0,0,0,140.233,36.886Zm0,1.088a1.547,1.547,0,1,1-1.547,1.547A1.538,1.538,0,0,1,140.233,37.974ZM4.25,55.695H2.465a11.141,11.141,0,0,1-1.6-.1v1.343a9.541,9.541,0,0,1,1.53-.085H5.831a16.151,16.151,0,0,1-.782,4.2C3.876,59.656,3.4,59.112,2.4,58.092l-.918.85A31.054,31.054,0,0,1,4.5,62.325,12.353,12.353,0,0,1,.7,66.83a3.514,3.514,0,0,1,.969,1.037,14.354,14.354,0,0,0,3.655-4.454,27.431,27.431,0,0,1,2.057,3.213l1-1a38.523,38.523,0,0,0-2.448-3.468,16.692,16.692,0,0,0,1.207-5.3,11.151,11.151,0,0,1,1.479.068V55.593a10.567,10.567,0,0,1-1.581.1H5.525V54.607a11.9,11.9,0,0,1,.1-1.683H4.148a8.1,8.1,0,0,1,.1,1.683Zm8.7,2.176V66.4c0,.34-.136.408-.884.408a15.876,15.876,0,0,1-2.176-.187,4.631,4.631,0,0,1,.408,1.343c.68.051,1.173.068,1.785.068,1.8,0,2.159-.255,2.159-1.564v-8.6H14.6a9.24,9.24,0,0,1,1.479.085.7.7,0,0,1,.17.017V56.579a10.605,10.605,0,0,1-1.649.1h-.357V54.93a14.09,14.09,0,0,1,.1-1.887H12.835a10.285,10.285,0,0,1,.119,1.887v1.751h-2.5A10.063,10.063,0,0,1,8.84,56.6v1.377a10.339,10.339,0,0,1,1.6-.1ZM8.313,59.792a15.148,15.148,0,0,1,2.431,3.961l1.139-.748A19.469,19.469,0,0,0,9.4,59.163Zm22.049.187c.714,0,1.343.017,1.768.051a10.465,10.465,0,0,1-.068-1.428V57.565a10.788,10.788,0,0,1,.068-1.428,16.689,16.689,0,0,1-1.87.068H27.285a15.187,15.187,0,0,0,1.173-1.156c.391-.442.391-.442.629-.68l-.7-.68a10.073,10.073,0,0,1-1.581.085H23.766c.1-.119.187-.2.238-.255.1-.119.17-.2.2-.238a4.111,4.111,0,0,1,.374-.425l-1.428-.34a7.13,7.13,0,0,1-1.275,1.632,12.975,12.975,0,0,1-3.944,2.788,3.5,3.5,0,0,1,.68,1.037,13.2,13.2,0,0,0,1.377-.85V58.6a12.958,12.958,0,0,1-.051,1.428c.51-.034,1.054-.051,1.8-.051H24.4a17.828,17.828,0,0,1-5.967,1.785,3.831,3.831,0,0,1,.646,1.071,18.459,18.459,0,0,0,5.168-1.666,4.257,4.257,0,0,1,.612.782,18.8,18.8,0,0,1-6.324,2.227,3.221,3.221,0,0,1,.646,1.071,21.361,21.361,0,0,0,6.171-2.431c.153.357.238.578.357.935a22.513,22.513,0,0,1-7.463,2.975,4.919,4.919,0,0,1,.731,1.122,24.056,24.056,0,0,0,6.97-3.043,5.381,5.381,0,0,1,.051.7,2.1,2.1,0,0,1-.272,1.309c-.187.238-.425.306-1.088.306a9.4,9.4,0,0,1-1.564-.136,3.636,3.636,0,0,1,.391,1.309c.425.034.714.051,1.037.051a4.65,4.65,0,0,0,1.734-.238c.663-.306,1.02-1.122,1.02-2.363a7.14,7.14,0,0,0-2.023-5.1,8.659,8.659,0,0,0,1.02-.663h.374a13.185,13.185,0,0,0,3.094,5.508,10.149,10.149,0,0,0,3.043,2.193,4.5,4.5,0,0,1,.867-1.258,7.618,7.618,0,0,1-2.652-1.632,13.06,13.06,0,0,1-1.462-1.547,15.272,15.272,0,0,0,1.853-1.275c.646-.527.782-.629,1.054-.816l-1.1-.867a8.41,8.41,0,0,1-2.448,2.006,9.836,9.836,0,0,1-.986-2.312Zm-9.095-3.774a16.231,16.231,0,0,0,1.564-1.411h4.335a10.877,10.877,0,0,1-1.394,1.411Zm-.017,2.737V57.259h4.012v1.683Zm5.236,0V57.259H30.8v1.683Zm14.705,1.649v3.621c0,2.21.748,2.737,3.842,2.737,1.088,0,2.006-.051,3.332-.153.323-.017.476-.034.629-.034h.238L49.2,65.2a6.866,6.866,0,0,1-1.5.272c-.952.085-1.938.136-2.448.136a6.012,6.012,0,0,1-2.023-.238c-.459-.187-.561-.476-.561-1.615V60.591h4.981a17.128,17.128,0,0,1,2.074.085V59.163a11.468,11.468,0,0,1-2.108.119H42.67V55.9h3.893a16.427,16.427,0,0,1,2.091.085V54.471a11.253,11.253,0,0,1-2.108.119H38.93a11.139,11.139,0,0,1-2.125-.119v1.513A16.427,16.427,0,0,1,38.9,55.9h2.3v3.383H37.927a12.006,12.006,0,0,1-2.125-.119v1.513a16.731,16.731,0,0,1,2.108-.085Zm23.63-.8c.9,0,1.564.034,2.091.085V58.364a13.373,13.373,0,0,1-2.108.119H55.012a14.1,14.1,0,0,1-2.108-.119v1.513a16.758,16.758,0,0,1,2.091-.085h4.4a9.32,9.32,0,0,1-.7,3.417c-.714,1.479-2.057,2.5-4.233,3.2a3.662,3.662,0,0,1,.969,1.326,10.632,10.632,0,0,0,2.992-1.666,6.845,6.845,0,0,0,2.295-4.318,13.473,13.473,0,0,0,.238-1.955Zm-10.2-4.114a15.644,15.644,0,0,1,2.074-.085H61.54a16.926,16.926,0,0,1,2.091.085v-1.53a10.833,10.833,0,0,1-2.108.119H56.712a10.737,10.737,0,0,1-2.091-.119Zm11.067-3.094a12.459,12.459,0,0,1,1.751,2.635l.986-.561a12.686,12.686,0,0,0-1.785-2.584Zm-2.142.663a11.866,11.866,0,0,1,1.768,2.686l1-.561a13.3,13.3,0,0,0-1.785-2.635Zm8.636.714a8.488,8.488,0,0,1,.051,1.343,22.815,22.815,0,0,1-.748,7.157,8.172,8.172,0,0,1-2.805,3.893A4.118,4.118,0,0,1,69.9,67.493a10.572,10.572,0,0,0,2.924-4.284c.629-1.717.765-2.958.9-7.667a8.832,8.832,0,0,1,.1-1.5Zm4.284-.136a7.229,7.229,0,0,1,.085,1.394v.374l-.1,9.622a3.968,3.968,0,0,1-.119,1.343l.8.884a3.145,3.145,0,0,1,.408-.187c.17-.068.34-.136.544-.2a11.685,11.685,0,0,0,2.4-1.224,9.765,9.765,0,0,0,3.5-4.454A5.621,5.621,0,0,1,82.858,60.2a8.307,8.307,0,0,1-1.921,3.315,7.488,7.488,0,0,1-2.992,1.972l.085-9.877a9.806,9.806,0,0,1,.119-1.768Zm14.773,4.488a.129.129,0,0,1,.068-.017.781.781,0,0,1,.17.017,2.95,2.95,0,0,1,.306.017c.051,0,.238.017.51.034.612.051,1.241.068,1.921.068.629,0,1.054-.017,1.87-.051.085,2.754.119,3.825.17,4.2a4.781,4.781,0,0,0-1.768-.306c-1.938,0-3.315,1.054-3.315,2.533,0,1.547,1.258,2.516,3.281,2.516a3.061,3.061,0,0,0,2.975-1.428,2.848,2.848,0,0,0,.2-1.173,2.631,2.631,0,0,0-.017-.357c.085.051.085.068.153.1a1.977,1.977,0,0,1,.187.119,10.172,10.172,0,0,1,1.768,1.207,4.732,4.732,0,0,1,.51.493l.612-1.445a1.8,1.8,0,0,1-.442-.289,13.458,13.458,0,0,0-2.788-1.632c-.17-2.873-.17-3.077-.187-4.641a23.306,23.306,0,0,0,2.686-.442,2.423,2.423,0,0,1,.272-.051l-.068-1.36a12.524,12.524,0,0,1-2.89.612v-.952a18.716,18.716,0,0,1,.1-2.482H96.016c.017.17.034.425.034.731.017,1.173.017,1.173.017,2.805-.561.017-.952.034-1.615.034a13.669,13.669,0,0,1-3.2-.255Zm5.049,5.525v.493A1.9,1.9,0,0,1,96,65.521a2.226,2.226,0,0,1-1.615.561c-1.105,0-1.853-.51-1.853-1.275,0-.8.8-1.309,2.023-1.309A4.367,4.367,0,0,1,96.288,63.838Zm-7.837.918v-.408a2.657,2.657,0,0,0-.017-.425c-.017-.782-.034-1.615-.034-2.006a24.934,24.934,0,0,1,1.326-8.126l-1.615-.221a5.111,5.111,0,0,1-.187,1.139,29.418,29.418,0,0,0-.85,6.97,27.2,27.2,0,0,0,.476,5.168,3.01,3.01,0,0,1,.085.629l1.479-.119a1.921,1.921,0,0,1-.034-.374,14.7,14.7,0,0,1,1.53-4.93l-1.071-.476c-.051.153-.068.2-.153.408a17.713,17.713,0,0,0-.884,2.788Zm27.489-9.962a3.4,3.4,0,0,1-1.292.136h-8.092a11.8,11.8,0,0,1-2.108-.119v1.615a13.557,13.557,0,0,1,2.074-.1h8.4a12.444,12.444,0,0,1-5.3,7.9,13.275,13.275,0,0,1-3.808,1.785,3.953,3.953,0,0,1,1.02,1.411,16.208,16.208,0,0,0,5.372-3.264,14.716,14.716,0,0,0,4.25-7.412,4.413,4.413,0,0,1,.374-1.122Zm12.393,5.27h2.482a12.048,12.048,0,0,1,1.6.068V58.721a8.353,8.353,0,0,1-1.615.119h-6.171a10.426,10.426,0,0,1-1.615-.1v1.394a13.752,13.752,0,0,1,1.615-.068h2.312V65.81H123.59a8.555,8.555,0,0,1-1.615-.1v1.411a13.343,13.343,0,0,1,1.632-.068h8.228a10.3,10.3,0,0,1,1.632.085V65.725a9.914,9.914,0,0,1-1.632.085h-3.5Zm22.848-5.729a3.8,3.8,0,0,1-1.5.119h-9.044a13.475,13.475,0,0,1-2.125-.119v1.547a17.1,17.1,0,0,1,2.091-.085h9.452a8.439,8.439,0,0,1-1.819,2.414,7.584,7.584,0,0,1-2.635,1.6,4.3,4.3,0,0,1,1.037,1.139,10.431,10.431,0,0,0,4.93-4.964A3.911,3.911,0,0,1,152,55.27Zm-7.6,3.077a3.744,3.744,0,0,1,.068.935c0,3.3-.629,4.947-2.414,6.392a8.057,8.057,0,0,1-3.06,1.513,4.117,4.117,0,0,1,.935,1.377,9.65,9.65,0,0,0,4.369-2.975c1.156-1.479,1.615-3.128,1.683-6a6.474,6.474,0,0,1,.068-1.241Zm20.213,3.332a11.376,11.376,0,0,0,1.6,3.876,11.067,11.067,0,0,0,3.927,3.57,4.1,4.1,0,0,1,.816-1.173,9.38,9.38,0,0,1-3.621-2.873c.8-.544,1.462-1.037,2.074-1.513.646-.527.986-.782,1.02-.816l-.986-.918a12.733,12.733,0,0,1-2.737,2.278,9.2,9.2,0,0,1-.9-2.431h2.21c.6,0,1.054.017,1.564.051a14.089,14.089,0,0,1-.068-1.785V55.355c0-1.054.017-1.445.051-1.87a9.19,9.19,0,0,1-1.615.085h-4.539a13.129,13.129,0,0,1-1.649-.068c.051.578.068,1.088.068,1.768V66.524a16.632,16.632,0,0,1-2.176.357l.306,1.36a5.353,5.353,0,0,1,.8-.238c2.533-.6,3.57-.867,5.406-1.428l-.051-1.207a31.542,31.542,0,0,1-3.043.867V60.744Zm-1.547-6.035H167.5v1.87h-5.253Zm0,2.975H167.5v1.972h-5.253Zm-7.106,8.891a11.411,11.411,0,0,1-.1,1.683h1.445a13.108,13.108,0,0,1-.085-1.683V54.522h2.635a25.2,25.2,0,0,1-1.853,4.114,6.433,6.433,0,0,1,1.394,1.972,4.666,4.666,0,0,1,.374,1.785c0,.663-.221.85-.986.85a7.278,7.278,0,0,1-1.02-.085,3.52,3.52,0,0,1,.289,1.275h.646a5.22,5.22,0,0,0,1.377-.153c.629-.187.969-.782.969-1.7a5.359,5.359,0,0,0-.153-1.326,6.006,6.006,0,0,0-1.53-2.737,32.709,32.709,0,0,0,1.479-3.094c.425-1.037.425-1.037.544-1.275l-.7-.85a4.071,4.071,0,0,1-1.122.085h-2.482a9.365,9.365,0,0,1-1.173-.051c.034.493.051.884.051,1.36Zm23.528-.663a5.067,5.067,0,0,1-3.026-2.737c.187-.646.425-1.5.459-1.734.153-.663.153-.663.221-.918l-1.394-.272v.119a11.035,11.035,0,0,1-1.071,3.893,9.287,9.287,0,0,1-2.244,2.958,3.459,3.459,0,0,1,1.054.969,12.111,12.111,0,0,0,2.516-3.723c1.241,2.261,3.57,3.23,7.735,3.23,1.615,0,2.023,0,3.3-.051a5.116,5.116,0,0,1,.408-1.394c-1.5.119-2.669.17-3.944.17a18.344,18.344,0,0,1-2.754-.17V62.716h3.247a11.366,11.366,0,0,1,1.649.085V61.458a10.308,10.308,0,0,1-1.649.1h-3.247V58.942h2.754a11.188,11.188,0,0,1,1.7.1v-1.36a11.343,11.343,0,0,1-1.7.1H175.8a10.941,10.941,0,0,1-1.683-.1v1.36a11.094,11.094,0,0,1,1.683-.1h2.873ZM178.4,54.726h-4.573c-.663,0-1.19-.017-1.751-.068a11.216,11.216,0,0,1,.068,1.173V56.97a6.853,6.853,0,0,1-.085,1.258H173.4V55.916h11.628v2.312h1.309a8.933,8.933,0,0,1-.068-1.241V55.831a8.231,8.231,0,0,1,.068-1.173c-.578.051-1.088.068-1.751.068h-4.862v-.765a4.326,4.326,0,0,1,.1-1.071h-1.547a4.7,4.7,0,0,1,.119,1.071ZM203.32,66a42.922,42.922,0,0,0-5.644-5,21.993,21.993,0,0,0,2.737-4.726,2.946,2.946,0,0,1,.493-.85l-.833-.85a3.2,3.2,0,0,1-1.207.153l-5.882.068h-.374a8.769,8.769,0,0,1-1.615-.1l.051,1.615A14.2,14.2,0,0,1,193,56.171c5.576-.085,5.576-.085,5.78-.1a1.172,1.172,0,0,1-.051.136,1.375,1.375,0,0,0-.1.221A17.692,17.692,0,0,1,194.854,62a16.5,16.5,0,0,1-5.627,3.808,4.422,4.422,0,0,1,.986,1.343,21.625,21.625,0,0,0,3.315-2.023,18.848,18.848,0,0,0,3.23-2.992,33.945,33.945,0,0,1,5.355,5.185ZM217.4,54.471a1.938,1.938,0,1,0,1.938,1.938A1.937,1.937,0,0,0,217.4,54.471Zm0,.748a1.19,1.19,0,1,1-1.19,1.19A1.2,1.2,0,0,1,217.4,55.219Zm-11.373,8.092.51-.646c1.037-1.207,2.244-2.7,3.06-3.757l.629-.816a.671.671,0,0,1,.51-.272c.221,0,.408.1.68.408a77.973,77.973,0,0,0,6.477,6.477L219.47,66.1l.782-1.7a10.29,10.29,0,0,1-1.479-1.088,57.058,57.058,0,0,1-5.729-5.525c-1.241-1.377-1.564-1.6-2.295-1.6-.8,0-1.258.323-2.244,1.615-.935,1.224-2.448,3.026-2.941,3.519a2.377,2.377,0,0,1-.578.442Zm18.9-8.279a18.637,18.637,0,0,1,4.284,2.261l.8-1.326a25.43,25.43,0,0,0-4.3-2.159Zm-1.343,4.08a19.578,19.578,0,0,1,4.42,2.38l.765-1.36a26.464,26.464,0,0,0-4.369-2.244Zm.68,8.16a3.938,3.938,0,0,1,.68-.17c.34-.068.629-.136.918-.187a20.812,20.812,0,0,0,4.42-1.5,13.509,13.509,0,0,0,6.579-7.361,6.979,6.979,0,0,1-1.275-1.088,11.978,11.978,0,0,1-2.023,3.791,10.946,10.946,0,0,1-5.032,3.774,14.644,14.644,0,0,1-4.675,1.071Zm19.822-8.228-1.53.238a10.243,10.243,0,0,1-1.632.17l.272,1.411a8.836,8.836,0,0,1,1.581-.357l1.513-.255,1.139,6.154a8.792,8.792,0,0,1,.2,1.615l1.547-.272a7.254,7.254,0,0,1-.374-1.581l-1.173-6.137,4.76-.8a2.225,2.225,0,0,0,.493-.1.611.611,0,0,1-.085.153,6.983,6.983,0,0,1-2.992,3.162,3.621,3.621,0,0,1,1.1.867,8.916,8.916,0,0,0,3.315-4.1,3.613,3.613,0,0,1,.391-.782l-.833-.748a4.32,4.32,0,0,1-1,.238l-5.372.9-.255-1.343a8.207,8.207,0,0,1-.2-1.377l-1.462.238a5.513,5.513,0,0,1,.34,1.326Zm15.079-5.083a8.49,8.49,0,0,1,.051,1.343,22.815,22.815,0,0,1-.748,7.157,8.172,8.172,0,0,1-2.8,3.893,4.118,4.118,0,0,1,1.224,1.139,10.572,10.572,0,0,0,2.924-4.284c.629-1.717.765-2.958.9-7.667a8.833,8.833,0,0,1,.1-1.5Zm4.284-.136a7.229,7.229,0,0,1,.085,1.394v.374l-.1,9.622a3.967,3.967,0,0,1-.119,1.343l.8.884a3.145,3.145,0,0,1,.408-.187c.17-.068.34-.136.544-.2a11.686,11.686,0,0,0,2.4-1.224,9.764,9.764,0,0,0,3.5-4.454,5.621,5.621,0,0,1-1.122-1.173,8.307,8.307,0,0,1-1.921,3.315,7.488,7.488,0,0,1-2.992,1.972l.085-9.877a9.807,9.807,0,0,1,.119-1.768ZM274.822,55a11.907,11.907,0,0,1-2.108-.119v1.615a16.192,16.192,0,0,1,2.074-.1h8.4a12.444,12.444,0,0,1-5.3,7.9,13.275,13.275,0,0,1-3.808,1.785,4.107,4.107,0,0,1,1.02,1.411,15.932,15.932,0,0,0,5.372-3.264,14.716,14.716,0,0,0,4.25-7.412l.1-.357a2.036,2.036,0,0,0,.561.085,1.938,1.938,0,1,0-1.938-1.938,2.79,2.79,0,0,0,.034.391Zm10.557-1.581a1.19,1.19,0,1,1-1.19,1.19A1.2,1.2,0,0,1,285.379,53.417Zm6.018,2.125a15.225,15.225,0,0,1,1.938-.085h5.559a14.586,14.586,0,0,1,1.938.085v-1.53a10.09,10.09,0,0,1-1.955.119h-5.525a9.492,9.492,0,0,1-1.955-.119Zm-1.462,3.978a16.517,16.517,0,0,1,2.142-.085h8.585a9.768,9.768,0,0,1-2.771,4.335,11.053,11.053,0,0,1-4.93,2.482,4.312,4.312,0,0,1,.9,1.394,15.322,15.322,0,0,0,4.165-2.057,11.508,11.508,0,0,0,4.1-5.695,4.153,4.153,0,0,1,.476-1.071l-.731-.85a3.713,3.713,0,0,1-1.343.136h-8.432a12.433,12.433,0,0,1-2.159-.119Zm28.118-6.1a13.992,13.992,0,0,1-3.213,3.213,24.346,24.346,0,0,1-8.857,4.4,4.22,4.22,0,0,1,.8,1.36,26.531,26.531,0,0,0,6.426-2.907v6.12a11.267,11.267,0,0,1-.1,1.989h1.734a14.04,14.04,0,0,1-.085-2.006V58.534a28.453,28.453,0,0,0,4.08-3.553,6.245,6.245,0,0,1,.612-.578ZM337.484,66a42.921,42.921,0,0,0-5.644-5,21.991,21.991,0,0,0,2.737-4.726,2.946,2.946,0,0,1,.493-.85l-.833-.85a3.2,3.2,0,0,1-1.207.153l-5.882.068h-.374a8.77,8.77,0,0,1-1.615-.1l.051,1.615a14.2,14.2,0,0,1,1.955-.136c5.576-.085,5.576-.085,5.78-.1a1.172,1.172,0,0,1-.051.136,1.376,1.376,0,0,0-.1.221A17.692,17.692,0,0,1,329.018,62a16.5,16.5,0,0,1-5.627,3.808,4.422,4.422,0,0,1,.986,1.343,21.625,21.625,0,0,0,3.315-2.023,18.847,18.847,0,0,0,3.23-2.992,33.944,33.944,0,0,1,5.355,5.185ZM1.53,83.157a47.753,47.753,0,0,1,5.593-.544,36.826,36.826,0,0,0,3.74-.374c-2.873,1.292-4.556,3.5-4.556,5.984A4.249,4.249,0,0,0,8.33,91.895a9.332,9.332,0,0,0,3.757,1.258,3.472,3.472,0,0,1,.544.1l.238-1.649a8.051,8.051,0,0,1-2.55-.442c-1.7-.561-2.567-1.581-2.567-3.077a5.416,5.416,0,0,1,2.7-4.335,8.191,8.191,0,0,1,4.335-1.445h.2l-.119-1.513a12.344,12.344,0,0,1-1.989.17c-2.805.119-7.463.391-9.843.561-.527.034-.748.051-.986.051l-.612-.017Zm10.438,1.6a11.866,11.866,0,0,1,1.768,2.686l1-.561a13.3,13.3,0,0,0-1.785-2.635Zm1.972-.918a12.459,12.459,0,0,1,1.751,2.635l.986-.561a12.686,12.686,0,0,0-1.785-2.584Zm6.851-1.8c.221.017.272.017.578.051a30.329,30.329,0,0,0,3.587.221,16.479,16.479,0,0,0,2.533-.187l-.323.17c-.221.119-.255.136-.442.238-.68.391-.986.578-2.091,1.309l1.037.833a25.2,25.2,0,0,1,4.352-2.652l-.085-1.36a19.845,19.845,0,0,1-4.471.34,19.918,19.918,0,0,1-4.556-.408Zm10.132,8.653a16.592,16.592,0,0,1-5.134.663,12.02,12.02,0,0,1-3.077-.306c-.918-.306-1.394-.833-1.394-1.564,0-.782.51-1.547,1.6-2.448l-1.037-.782c-1.394,1.19-2.023,2.244-2.023,3.4a2.745,2.745,0,0,0,2.006,2.635,12.049,12.049,0,0,0,4.029.544,29.324,29.324,0,0,0,4.573-.391,5.2,5.2,0,0,1,.612-.085Zm-.459-7.446a12.459,12.459,0,0,1,1.751,2.635l.986-.561a12.685,12.685,0,0,0-1.785-2.584Zm-1.972.918a11.866,11.866,0,0,1,1.768,2.686l1-.561a13.3,13.3,0,0,0-1.785-2.635Zm19.771-.408a12.367,12.367,0,0,1,1.768.1V82.647a9.011,9.011,0,0,1-1.7.1H41.854c.255-.34.255-.34.884-1.224l-1.309-.34a6.648,6.648,0,0,1-.969,1.564H37.23a10.207,10.207,0,0,1-1.683-.1v1.207a12.438,12.438,0,0,1,1.751-.1h2.346a14.014,14.014,0,0,1-1.6,1.547c2.023.272,2.567.357,3.74.6a19.5,19.5,0,0,1-6.188.884,3.192,3.192,0,0,1,.544,1.071A19.656,19.656,0,0,0,43.469,86.3,35.569,35.569,0,0,1,48.6,88l.8-.986a41.118,41.118,0,0,0-4.692-1.428,6.74,6.74,0,0,0,1.836-1.836Zm-3.162,0a5.425,5.425,0,0,1-1.8,1.513c-1.207-.255-1.955-.408-3.111-.578a12.221,12.221,0,0,0,.867-.935Zm-1.887,4.93V88.5a7.078,7.078,0,0,1,.068-1.122H41.888a5.9,5.9,0,0,1,.085,1.122v.187H37.179a14.247,14.247,0,0,1-1.853-.1v1.292a14.53,14.53,0,0,1,1.87-.1h3.757a9.433,9.433,0,0,1-2.125,1.53,17.208,17.208,0,0,1-4.012,1.632,4,4,0,0,1,.816,1.173,21.886,21.886,0,0,0,3.043-1.377,13.9,13.9,0,0,0,3.332-2.465c-.034.969-.034,1.377-.034,1.683v.731a9.33,9.33,0,0,1-.1,1.6H43.3a8.732,8.732,0,0,1-.085-1.6v-.748c0-.323-.034-.935-.068-1.683a15.39,15.39,0,0,0,3.5,2.533,18.977,18.977,0,0,0,3.162,1.326,5.111,5.111,0,0,1,.765-1.207,15.3,15.3,0,0,1-6.409-3.128H48.3a15.1,15.1,0,0,1,1.9.1V88.58a15.686,15.686,0,0,1-1.9.1Zm-5.746-8.738c-.731,0-1.19-.017-1.751-.068a6.784,6.784,0,0,1,.068,1.037v.408a5.5,5.5,0,0,1-.068.935h1.309V81H48.6v1.275H49.9a7.75,7.75,0,0,1-.051-.969V80.93a6.19,6.19,0,0,1,.068-1.054,16.428,16.428,0,0,1-1.751.068H43.282a6.851,6.851,0,0,1,.1-1.292H41.871a5.852,5.852,0,0,1,.1,1.292ZM65.5,82.46v9.758c0,.408-.119.459-.9.459a13.881,13.881,0,0,1-2.312-.2,4.656,4.656,0,0,1,.34,1.394c.765.051,1.309.068,1.9.068,1.938,0,2.312-.238,2.312-1.428V82.715a13.225,13.225,0,0,1,.068-1.547,13.631,13.631,0,0,1-1.785.085H60.554c.017-.323.017-.391.034-1.343a6.848,6.848,0,0,1,.136-1.241H59.177a7.357,7.357,0,0,1,.1,1.479c0,.323-.017.629-.034,1.1h-4.4a13.833,13.833,0,0,1-1.768-.085,12.99,12.99,0,0,1,.068,1.564v9.537a12.556,12.556,0,0,1-.119,1.938H54.57a12.823,12.823,0,0,1-.085-1.921V82.46h4.658A7.708,7.708,0,0,1,57.409,86.9,9.182,9.182,0,0,1,54.655,89a4.571,4.571,0,0,1,.9,1.071,9.759,9.759,0,0,0,3.434-3.145,7.531,7.531,0,0,0,.935-1.972,11.6,11.6,0,0,0,4.505,4.913,4.82,4.82,0,0,1,.884-1.19A10.906,10.906,0,0,1,62.05,86.1a9.921,9.921,0,0,1-1.717-2.873c.051-.306.068-.425.1-.765Zm6.63,6.426a2.644,2.644,0,1,0,2.635,2.635A2.652,2.652,0,0,0,72.131,88.886Zm0,1.088a1.547,1.547,0,1,1-1.547,1.547A1.538,1.538,0,0,1,72.131,89.974Zm-68.289,24.9H2.669a12.7,12.7,0,0,1-1.768-.1v1.428a13.226,13.226,0,0,1,1.768-.1H8.687v2.6a8.511,8.511,0,0,1-.1,1.666h1.547a8.394,8.394,0,0,1-.119-1.649v-2.618h4.182a13.226,13.226,0,0,1,1.768.1v-1.428a12.533,12.533,0,0,1-1.768.1H10.013v-3.162h3.009a12.859,12.859,0,0,1,1.547.068v-1.326a9.981,9.981,0,0,1-1.581.085H10.013v-2.618h3.74a10.112,10.112,0,0,1,1.581.085v-1.343a9.722,9.722,0,0,1-1.581.085H5.474c.085-.187.085-.187.221-.493.272-.6.272-.6.374-.8.1-.221.136-.289.221-.476l-1.428-.357a7.183,7.183,0,0,1-.425,1.241,11.043,11.043,0,0,1-3.383,4.488,3.03,3.03,0,0,1,.935,1.02,13.653,13.653,0,0,0,2.822-3.451H8.687v2.618H5c-.476,0-.85-.017-1.207-.051a9.194,9.194,0,0,1,.051,1Zm1.309,0v-3.162H8.687v3.162Zm26.044-6.409v9.758c0,.408-.119.459-.9.459a13.881,13.881,0,0,1-2.312-.2,4.656,4.656,0,0,1,.34,1.394c.765.051,1.309.068,1.9.068,1.938,0,2.312-.238,2.312-1.428v-9.792a13.226,13.226,0,0,1,.068-1.547,13.63,13.63,0,0,1-1.785.085H26.248c.017-.323.017-.391.034-1.343a6.848,6.848,0,0,1,.136-1.241H24.871a7.357,7.357,0,0,1,.1,1.479c0,.323-.017.629-.034,1.1h-4.4a13.833,13.833,0,0,1-1.768-.085,12.989,12.989,0,0,1,.068,1.564v9.537a12.556,12.556,0,0,1-.119,1.938h1.547a12.823,12.823,0,0,1-.085-1.921V108.46h4.658A7.708,7.708,0,0,1,23.1,112.9,9.182,9.182,0,0,1,20.349,115a4.571,4.571,0,0,1,.9,1.071,9.759,9.759,0,0,0,3.434-3.145,7.531,7.531,0,0,0,.935-1.972,11.6,11.6,0,0,0,4.505,4.913,4.82,4.82,0,0,1,.884-1.19,10.906,10.906,0,0,1-3.264-2.584,9.921,9.921,0,0,1-1.717-2.873c.051-.306.068-.425.1-.765Zm5.746,3.876v5.627q-1.071.1-1.53.1a1.965,1.965,0,0,1-.289-.017l.289,1.309c.612-.136.8-.17,2.465-.408,1.309-.17,1.309-.17,3.519-.578v.357a9.152,9.152,0,0,1-.1,1.615H42.67a8.127,8.127,0,0,1-.1-1.632v-6.375h6.324a9.3,9.3,0,0,1,1.632.1V111.18a8.229,8.229,0,0,1-1.632.1H36.737a7.939,7.939,0,0,1-1.615-.1v1.258a8.9,8.9,0,0,1,1.6-.1Zm1.19,0H41.4v1.071H38.131Zm0,2.006H41.4v1.122H38.131Zm0,2.057H41.4v.969c-1.547.272-1.768.289-3.264.459Zm10.795-3.077a7.683,7.683,0,0,1-1.292.068H44.557a10.271,10.271,0,0,1-1.445-.068V114.5a9.576,9.576,0,0,1,1.207-.068h3.706a9.219,9.219,0,0,1-1.632,2.278,6.947,6.947,0,0,1-1.462-2.227l-1.02.459a8.648,8.648,0,0,0,1.649,2.5A9.165,9.165,0,0,1,42.789,119a3.24,3.24,0,0,1,.765,1.054,11.261,11.261,0,0,0,2.839-1.8,11.592,11.592,0,0,0,3.349,1.938,6.019,6.019,0,0,1,.714-1.156,9.935,9.935,0,0,1-3.213-1.564,12.691,12.691,0,0,0,2.057-2.924,2.517,2.517,0,0,1,.289-.493Zm-.357-6.6a9.8,9.8,0,0,1,.068-1.377c-.578.051-1.037.068-1.836.068H38.93c-.782,0-1.241-.017-1.836-.068a10.274,10.274,0,0,1,.068,1.377v2.329a10.718,10.718,0,0,1-.068,1.394c.629-.051,1.037-.068,1.8-.068H46.92c.646,0,1.19.017,1.717.068a10.552,10.552,0,0,1-.068-1.394ZM38.386,106.4h8.959v1.02H38.386Zm0,1.972h8.959v1.054H38.386ZM61.013,104.7a9.953,9.953,0,0,1-1.955,2.754c-.357-.289-.493-.391-1.054-.816l-.833.935a23.436,23.436,0,0,1,3.3,2.7c-.357.357-.357.357-.731.7-.085.085-.2.2-.374.357-1.53.051-1.53.051-1.819.051a10.349,10.349,0,0,1-1.173-.051l.2,1.326a4.211,4.211,0,0,1,.7-.068c.527-.034.527-.034,2.261-.136.051,0,.085,0,.408-.017a8.6,8.6,0,0,1-3.961,3.587,4.206,4.206,0,0,1,.867,1,11.307,11.307,0,0,0,2.244-1.717,11.078,11.078,0,0,0,1.819,1.921,14.258,14.258,0,0,1-5.032,1.819,3.513,3.513,0,0,1,.7,1.173A14.654,14.654,0,0,0,61.914,118a9.6,9.6,0,0,0,1.6.884,15.487,15.487,0,0,0,3.723,1.275c.034-.1.068-.17.085-.221.1-.221.17-.374.187-.425a6.013,6.013,0,0,1,.357-.646,14.927,14.927,0,0,1-4.879-1.649,14.092,14.092,0,0,0,2.5-2.55,4.02,4.02,0,0,1,.34-.476l-.782-.731a9.118,9.118,0,0,1-1.394.085H60.6c.289-.442.408-.646.714-1.207,1.7-.119,1.7-.119,4.556-.425.323.493.459.68.867,1.36l1.071-.731a33.463,33.463,0,0,0-2.839-3.587l-.986.646a13.731,13.731,0,0,1,1.19,1.36c-1.173.119-1.853.17-2.04.187-.306.034-1,.068-2.091.119a37.449,37.449,0,0,0,3.553-3.74,7.7,7.7,0,0,1,.663-.782L64,106.029a17.166,17.166,0,0,1-2.686,3.383c-.459-.442-.68-.646-1.394-1.258a19.922,19.922,0,0,0,1.87-2.261,5.9,5.9,0,0,1,.442-.595Zm2.941,9.86a9.009,9.009,0,0,1-2.023,1.989,9.2,9.2,0,0,1-1.989-1.989Zm-8.245-9.928a5.439,5.439,0,0,1-.867,1.343,10.332,10.332,0,0,1-2.618,2.21,3.1,3.1,0,0,1,.748,1.037,13.652,13.652,0,0,0,3.485-3.366c.221-.289.221-.289.357-.459ZM54.128,118.3a14.062,14.062,0,0,1-.1,1.938h1.445a15.587,15.587,0,0,1-.085-2.006v-6.987c.493-.646.918-1.224,1.1-1.53.2-.34.323-.527.476-.748l-1.122-.714a7.68,7.68,0,0,1-1,1.717,12.245,12.245,0,0,1-2.924,2.924,4.236,4.236,0,0,1,.68,1.173,9,9,0,0,0,1.564-1.547c-.017.952-.017.952-.017,1.071,0,.238-.017.629-.017,1.156Zm22.593-.425a3.334,3.334,0,0,1,.731,1.377,11.24,11.24,0,0,0,2.839-.884,6.273,6.273,0,0,0,3.723-5.882c0-3.587-2.567-5.967-6.426-5.967A7.264,7.264,0,0,0,72,108.817a7.076,7.076,0,0,0-1.819,4.76c0,2.482,1.258,4.3,2.975,4.3,1.275,0,2.295-1.02,3.264-3.247a24.71,24.71,0,0,0,1.7-6.8,4.487,4.487,0,0,1,1.9.459,4.39,4.39,0,0,1,2.516,4.131,4.993,4.993,0,0,1-2.686,4.539A9.3,9.3,0,0,1,76.721,117.878Zm-.068-10.013a23.213,23.213,0,0,1-1.513,6.12c-.7,1.6-1.343,2.38-2.006,2.38-.884,0-1.564-1.224-1.564-2.771a5.8,5.8,0,0,1,2.652-4.93A4.808,4.808,0,0,1,76.653,107.865Zm22.083-2.414a6.874,6.874,0,0,1-1.972.816,28.057,28.057,0,0,1-7.174,1.054c-.255,0-.51-.017-1.02-.034a4,4,0,0,1,.476,1.343,35.419,35.419,0,0,0,4.93-.442c0,1.326-.017,2.346-.051,2.992H89.4a10.041,10.041,0,0,1-2.057-.119v1.513a15.061,15.061,0,0,1,2.04-.085h4.437a6.038,6.038,0,0,1-2.448,4.658,8.355,8.355,0,0,1-2.516,1.36,3.545,3.545,0,0,1,1.088,1.258,14.548,14.548,0,0,0,1.53-.816,8.884,8.884,0,0,0,2.737-2.72,8.441,8.441,0,0,0,1.122-3.74h3.91a14.82,14.82,0,0,1,1.989.085v-1.513a9.569,9.569,0,0,1-2.006.119H95.421c.034-.544.034-.85.051-3.23a26.868,26.868,0,0,0,3.689-1.02,4.085,4.085,0,0,1,.578-.187Zm9.826,5.593-1.53.238a10.243,10.243,0,0,1-1.632.17l.272,1.411a8.837,8.837,0,0,1,1.581-.357l1.513-.255L109.9,118.4a8.793,8.793,0,0,1,.2,1.615l1.547-.272a7.255,7.255,0,0,1-.374-1.581l-1.173-6.137,4.76-.8a2.225,2.225,0,0,0,.493-.1.612.612,0,0,1-.085.153,6.983,6.983,0,0,1-2.992,3.162,3.621,3.621,0,0,1,1.105.867,8.916,8.916,0,0,0,3.315-4.1,3.613,3.613,0,0,1,.391-.782l-.833-.748a4.32,4.32,0,0,1-1,.238l-5.372.9-.255-1.343a8.207,8.207,0,0,1-.2-1.377l-1.462.238a5.514,5.514,0,0,1,.34,1.326Zm13.991-3.094a18.875,18.875,0,0,1,4.148,3.366l1.037-1.275a23.521,23.521,0,0,0-4.182-3.23Zm.255,11.1a9.186,9.186,0,0,1,1.054-.272,17.351,17.351,0,0,0,6.375-2.55,14.8,14.8,0,0,0,5.253-6.545,4.322,4.322,0,0,1-1.258-1.173,12.731,12.731,0,0,1-6.885,7.565,15.493,15.493,0,0,1-4.981,1.275ZM152.031,118a42.922,42.922,0,0,0-5.644-5,21.993,21.993,0,0,0,2.737-4.726,2.946,2.946,0,0,1,.493-.85l-.833-.85a3.2,3.2,0,0,1-1.207.153l-5.882.068h-.374a8.769,8.769,0,0,1-1.615-.1l.051,1.615a14.2,14.2,0,0,1,1.955-.136c5.576-.085,5.576-.085,5.78-.1a1.172,1.172,0,0,1-.051.136,1.377,1.377,0,0,0-.1.221A17.692,17.692,0,0,1,143.565,114a16.5,16.5,0,0,1-5.627,3.808,4.422,4.422,0,0,1,.986,1.343,21.625,21.625,0,0,0,3.315-2.023,18.848,18.848,0,0,0,3.23-2.992,33.944,33.944,0,0,1,5.355,5.185Zm7.48-10.591a21.4,21.4,0,0,1-3.655-.2l-.034,1.394a1.611,1.611,0,0,1,.357-.034,2.927,2.927,0,0,1,.34.017c.357.017,2.04.051,2.38.051.068,0,.255-.017.306-.017-.1.187-.1.187-.153.272a16.923,16.923,0,0,1-3.723,4.692l1.122,1.122a6.084,6.084,0,0,1,1.36-1.445,6.222,6.222,0,0,1,3.689-1.785c.765,0,1.156.374,1.258,1.207a13.387,13.387,0,0,0-2.5,1.36,3.536,3.536,0,0,0-1.8,2.754,2.268,2.268,0,0,0,1.156,2.04,7.039,7.039,0,0,0,3.485.663,28.659,28.659,0,0,0,4.233-.323,4.044,4.044,0,0,1,.7-.085l-.153-1.564a14.289,14.289,0,0,1-4.624.68c-2.4,0-3.366-.442-3.366-1.513a2.032,2.032,0,0,1,1-1.6,10.431,10.431,0,0,1,2.04-1.122v.527a21.383,21.383,0,0,1-.1,2.261l1.394-.017a4.672,4.672,0,0,1-.034-.7v-.7c.017-.34.017-.7.017-.884,0-.374,0-.425-.017-.986a26.164,26.164,0,0,1,4.505-1.445l-.612-1.394a4.777,4.777,0,0,1-1.19.493c-.833.289-1.53.544-2.856,1.054a2.109,2.109,0,0,0-2.295-1.853,4.387,4.387,0,0,0-2.346.7,3.85,3.85,0,0,0-.578.425,2.328,2.328,0,0,0-.238.17.21.21,0,0,1-.034-.051l.034-.034c0-.017.068-.068.17-.136a4.787,4.787,0,0,0,.544-.629,12.784,12.784,0,0,0,1.377-2.159c1.666-.051,3.842-.2,5.015-.357.986-.136.986-.136,1.309-.17l-.1-1.36a22.483,22.483,0,0,1-4.59.6c-.952.051-.952.051-1.071.068a11.1,11.1,0,0,0,.51-1.139,3.666,3.666,0,0,1,.408-.867l-1.6-.238a7.39,7.39,0,0,1-.765,2.261Zm21.42.289a16.174,16.174,0,0,1-3.4.7v-1.479a10.54,10.54,0,0,1,.085-1.649h-1.53a11.917,11.917,0,0,1,.1,1.717v1.513c-1.122.051-1.122.051-1.513.051a8.667,8.667,0,0,1-1.836-.136v1.36a2.539,2.539,0,0,1,.323-.017c.068,0,.2,0,.391.017.289,0,.765.017,1,.017a7.852,7.852,0,0,0,.952-.034c.544-.034.544-.034.68-.034v3.043a9.414,9.414,0,0,0-2.414,1.411A3.218,3.218,0,0,0,172.4,116.5a2.2,2.2,0,0,0,.833,1.7,4.7,4.7,0,0,0,2.907,1.122,1.233,1.233,0,0,0,1.309-.85,4.588,4.588,0,0,0,.085-1.224v-3.587a10.775,10.775,0,0,1,3.519-.646c2.108,0,3.451,1.02,3.451,2.635a2.134,2.134,0,0,1-2.125,2.278,1.429,1.429,0,0,1-1.428-.867,5.237,5.237,0,0,1-.2-1.581c0-.2.017-.34.034-.663a4.54,4.54,0,0,1-1.343.544,6.415,6.415,0,0,0,.238,1.989,2.561,2.561,0,0,0,2.669,1.921,3.532,3.532,0,0,0,3.587-3.621,3.625,3.625,0,0,0-1.751-3.111,5.884,5.884,0,0,0-3.043-.748,12.123,12.123,0,0,0-3.621.578v-2.737a24.786,24.786,0,0,0,2.482-.391c.612-.136.68-.136,1-.187Zm-4.743,9.435c0,.68-.068.816-.374.816a2.881,2.881,0,0,1-1.411-.459c-.459-.306-.68-.612-.68-.969,0-.748.884-1.615,2.465-2.414Zm10.438-7.191a14.4,14.4,0,0,0-3.417-3.3l-1.088.782a13.955,13.955,0,0,1,3.434,3.417ZM194,115.328a3.718,3.718,0,0,1-1.632,2.686,8.122,8.122,0,0,1-3.536,1.241,4.119,4.119,0,0,1,.714,1.207,8.4,8.4,0,0,0,4.318-2.023,4.945,4.945,0,0,0,1.53-3.111h1.921v3.4c0,1.105.476,1.309,3.043,1.309,3.264,0,3.468-.187,3.825-3.281a5.2,5.2,0,0,1-1.275-.544c-.17,2.618-.17,2.618-2.465,2.618-1.666,0-1.819-.051-1.819-.561v-2.941h1.479c.85,0,1.428.017,1.87.051a12.715,12.715,0,0,1-.085-1.785v-5.882a22.087,22.087,0,0,1,.085-2.227,17.8,17.8,0,0,1-1.8.085h-7.344a13.79,13.79,0,0,1-1.785-.085,20.888,20.888,0,0,1,.085,2.227v5.882a13.163,13.163,0,0,1-.085,1.785c.51-.034.969-.051,1.887-.051Zm-1.615-8.568h8.245v1.649h-8.245Zm0,2.788h8.245v1.7h-8.245Zm0,2.839h8.245v1.8h-8.245Zm18.258,1.445a3.16,3.16,0,0,1,.323-.187,21.08,21.08,0,0,0,2.448-1.462,5.683,5.683,0,0,1-2.856,4.42,3.572,3.572,0,0,1,.986.969,6.7,6.7,0,0,0,2.669-3.553,16.511,16.511,0,0,0,.6-5.032v-2.329a11.031,11.031,0,0,1,.085-1.8H213.5a12.287,12.287,0,0,1,.1,1.836v2.567c0,.119-.017.374-.034.765,0,.17-.017.442-.034.8a10.1,10.1,0,0,1-3.417,1.683Zm6.647-2.125a24.754,24.754,0,0,1,2.856,2.125l.68-1.054a27.191,27.191,0,0,0-3.536-2.38v-3.774a11.726,11.726,0,0,1,.1-1.768h-1.411a11.006,11.006,0,0,1,.085,1.7v9.486c0,.561.136.8.544.969a5.717,5.717,0,0,0,1.632.17c1.445,0,2.142-.136,2.482-.493a4,4,0,0,0,.578-2.074,3.413,3.413,0,0,1-1.156-.527,3.962,3.962,0,0,1-.238,1.513c-.153.34-.408.408-1.581.408a2.121,2.121,0,0,1-.884-.119c-.119-.068-.153-.119-.153-.289Zm-10.9-5.661a17.174,17.174,0,0,1,2.72,3.111l1.02-.935a21.59,21.59,0,0,0-2.788-3.026Zm-.34,6.8a6.69,6.69,0,0,1,1.224-.085h.935v3.961a9.085,9.085,0,0,1-2.533,1.887l.646,1.343c.306-.272.442-.391.867-.714a13.06,13.06,0,0,0,1.632-1.462,4.007,4.007,0,0,0,1.445,1.394c1.088.6,2.04.731,5.015.731,1.768,0,4.25-.051,6.069-.119a5.715,5.715,0,0,1,.425-1.479,72.665,72.665,0,0,1-7.752.357c-1.938,0-2.873-.221-3.74-.918a2.707,2.707,0,0,1-.816-1.037v-3.366a15.318,15.318,0,0,1,.068-1.8,9.4,9.4,0,0,1-1.292.068h-.867a6.976,6.976,0,0,1-1.326-.085Zm4.1-6.12a16.668,16.668,0,0,1,1.785,3.332l1-.731a20.557,20.557,0,0,0-1.768-3.281Zm8.517,3.264a18.9,18.9,0,0,0,2.193-3.366l-1.071-.714a13.212,13.212,0,0,1-2.006,3.332Zm7.463-4.352a8.931,8.931,0,0,1,.051.952c0,.255,0,.646-.017,1.139-.119,5.338-.136,5.865-.136,6.9a8.68,8.68,0,0,0,.238,2.244,3.573,3.573,0,0,0,1.258,1.819,5.033,5.033,0,0,0,2.839.731A6.12,6.12,0,0,0,235.2,117.3a10.575,10.575,0,0,0,1.921-4,5.386,5.386,0,0,1-1.445-.969,9.52,9.52,0,0,1-.833,2.72,4.735,4.735,0,0,1-4.369,2.958,2.864,2.864,0,0,1-2.482-1,4.82,4.82,0,0,1-.476-2.754c0-1.139.1-5.253.17-6.494a13.671,13.671,0,0,1,.187-2.108Zm18.836-.527a18.589,18.589,0,0,1-.561,3.128c-.272.017-.714.017-1.173.017a11.145,11.145,0,0,1-2.057-.136v1.394h.6c.51.017.646.017,1.054.017.714,0,.782,0,1.224-.017a23.243,23.243,0,0,1-3.349,6.953l1.377.8c.085-.153.187-.34.34-.6.646-1.139.8-1.428,1.207-2.244a31.883,31.883,0,0,0,1.87-4.964,26.63,26.63,0,0,0,2.771-.34,5.085,5.085,0,0,1,.578-.085l-.051-1.411a14.366,14.366,0,0,1-2.941.527c.2-.8.306-1.173.425-1.751a8.087,8.087,0,0,1,.255-1.088Zm10.251,4.624a22.911,22.911,0,0,0-4.573-2.261l-.731,1.156a18.876,18.876,0,0,1,4.607,2.329Zm.017,7.565c-.1-.085-.1-.085-.255-.2a4.658,4.658,0,0,0-.476-.408,11.559,11.559,0,0,0-2.89-1.7,21.121,21.121,0,0,1-.187-2.5,4.934,4.934,0,0,1,.238-1.632l-1.394-.119a7.255,7.255,0,0,0-.17,1.581c0,.561.051,1.479.119,2.312a6.6,6.6,0,0,0-1.717-.221c-2.091,0-3.553,1.1-3.553,2.686a2.325,2.325,0,0,0,1.632,2.227,5.5,5.5,0,0,0,1.853.306,3.38,3.38,0,0,0,2.686-1.02,2.949,2.949,0,0,0,.561-1.751,2.346,2.346,0,0,0-.034-.442,9.822,9.822,0,0,1,2.873,2.244Zm-4.947-1.36a4.806,4.806,0,0,1,.051.68c0,1.173-.646,1.734-1.989,1.734-1.275,0-2.04-.493-2.04-1.309,0-.867.85-1.428,2.193-1.428A4.846,4.846,0,0,1,250.291,115.94Zm16.83-10.761a27.116,27.116,0,0,1-5.032,4.692,9.693,9.693,0,0,0-1.462,1.173,1.752,1.752,0,0,0-.51,1.19c0,.646.289,1.037,1.275,1.819a54.765,54.765,0,0,1,4.335,3.587,14.375,14.375,0,0,1,2.193,2.329l1.275-1.258c-.2-.17-.238-.2-.493-.442a50.911,50.911,0,0,0-5.423-4.573c-1.411-1.088-1.513-1.19-1.513-1.479,0-.2.136-.357.714-.8a47.657,47.657,0,0,0,3.961-3.247,27.137,27.137,0,0,1,2.091-1.921Zm10.166,9.707a2.644,2.644,0,1,0,2.635,2.635A2.652,2.652,0,0,0,277.287,114.886Zm0,1.088a1.547,1.547,0,1,1-1.547,1.547A1.538,1.538,0,0,1,277.287,115.974Z" transform="translate(-13 248.479)" fill="#fff"/>
    <path id="パス_701" data-name="パス 701" d="M2.9-12.456a10.88,10.88,0,0,1,1.566-.108h.972V-2.142A11.355,11.355,0,0,1,5.292-.108H7a11.484,11.484,0,0,1-.144-2.034V-10.89a29.534,29.534,0,0,1,.162-2.988,10.249,10.249,0,0,1-1.494.09H4.392a8.717,8.717,0,0,1-1.494-.09ZM20.34-.108A20.242,20.242,0,0,1,22.554,0V-1.512a15.715,15.715,0,0,1-2.2.126H14.616a5.044,5.044,0,0,1,1.026-2.088,9.8,9.8,0,0,1,2.592-2.214,14.189,14.189,0,0,0,3.06-2.322,3.757,3.757,0,0,0,1.062-2.556c0-2.124-1.746-3.492-4.464-3.492a4.6,4.6,0,0,0-3.618,1.386A4.894,4.894,0,0,0,13.14-10.08l1.512.252a3.642,3.642,0,0,1,.63-1.818,2.977,2.977,0,0,1,2.61-1.17c1.836,0,2.988.882,2.988,2.25,0,1.1-.594,1.89-2.376,3.1A24.438,24.438,0,0,0,15.75-5.49a7.9,7.9,0,0,0-2.34,3.1,8.265,8.265,0,0,0-.522,2.376,12.891,12.891,0,0,1,1.98-.09ZM37.008-4.59V-.612c0,.45-.144.558-.666.558a18.037,18.037,0,0,1-2.574-.18A5.032,5.032,0,0,1,34.056.99c.81.054,1.566.072,2.16.072a2.6,2.6,0,0,0,1.44-.234,1.368,1.368,0,0,0,.5-1.26V-12.276a15.75,15.75,0,0,1,.072-1.854,14.476,14.476,0,0,1-1.872.09H29.592a15.3,15.3,0,0,1-1.89-.09c.054.684.072,1.4.072,3.06,0,4-.2,6.21-.7,7.92A7.557,7.557,0,0,1,24.948.378a4.141,4.141,0,0,1,.99.954A9.685,9.685,0,0,0,27.918-1.8a12.383,12.383,0,0,0,.738-2.79ZM28.782-5.67c.144-1.53.18-2.214.2-3.2h8.028v3.2Zm.2-4.284v-.432L29-12.942h8.01v2.988ZM50.166-.108A20.242,20.242,0,0,1,52.38,0V-1.512a15.715,15.715,0,0,1-2.2.126H44.442a5.044,5.044,0,0,1,1.026-2.088A9.8,9.8,0,0,1,48.06-5.688,14.189,14.189,0,0,0,51.12-8.01a3.757,3.757,0,0,0,1.062-2.556c0-2.124-1.746-3.492-4.464-3.492A4.6,4.6,0,0,0,44.1-12.672a4.894,4.894,0,0,0-1.134,2.592l1.512.252a3.642,3.642,0,0,1,.63-1.818,2.977,2.977,0,0,1,2.61-1.17c1.836,0,2.988.882,2.988,2.25,0,1.1-.594,1.89-2.376,3.1a24.438,24.438,0,0,0-2.754,1.98,7.9,7.9,0,0,0-2.34,3.1,8.265,8.265,0,0,0-.522,2.376,12.891,12.891,0,0,1,1.98-.09Zm6.462-.7A13.835,13.835,0,0,1,56.52,1.1h1.314V-.072h9.288V1.1h1.314a13.76,13.76,0,0,1-.108-1.926V-12.366a11.32,11.32,0,0,1,.09-1.656,13.058,13.058,0,0,1-1.854.09h-8.1a14.686,14.686,0,0,1-1.926-.09,12.612,12.612,0,0,1,.09,1.764Zm1.206-12.024h9.288v5.04H57.834Zm0,6.138h9.288V-1.17H57.834Zm30.96,8.154a11.382,11.382,0,0,1-2.736-3.726,10.915,10.915,0,0,1-.972-4.572,10.915,10.915,0,0,1,.972-4.572,11.382,11.382,0,0,1,2.736-3.726h-1.6a12.116,12.116,0,0,0-2.5,3.87,11.288,11.288,0,0,0-.864,4.428,11.288,11.288,0,0,0,.864,4.428,12.116,12.116,0,0,0,2.5,3.87Zm14.04-6.048V-.612c0,.45-.144.558-.666.558a18.037,18.037,0,0,1-2.574-.18A5.032,5.032,0,0,1,99.882.99c.81.054,1.566.072,2.16.072a2.6,2.6,0,0,0,1.44-.234,1.368,1.368,0,0,0,.5-1.26V-12.276a15.75,15.75,0,0,1,.072-1.854,14.476,14.476,0,0,1-1.872.09H95.418a15.3,15.3,0,0,1-1.89-.09c.054.684.072,1.4.072,3.06,0,4-.2,6.21-.7,7.92A7.556,7.556,0,0,1,90.774.378a4.141,4.141,0,0,1,.99.954A9.685,9.685,0,0,0,93.744-1.8a12.382,12.382,0,0,0,.738-2.79ZM94.608-5.67c.144-1.53.18-2.214.2-3.2h8.028v3.2Zm.2-4.284v-.432l.018-2.556h8.01v2.988ZM109.764,1.458a12.116,12.116,0,0,0,2.5-3.87,11.288,11.288,0,0,0,.864-4.428,11.288,11.288,0,0,0-.864-4.428,12.116,12.116,0,0,0-2.5-3.87h-1.6a11.2,11.2,0,0,1,2.736,3.726,10.915,10.915,0,0,1,.972,4.572,10.915,10.915,0,0,1-.972,4.572,11.2,11.2,0,0,1-2.736,3.726ZM127.3-6.084a6.346,6.346,0,0,1,1.512-1.26,3.688,3.688,0,0,1,1.854-.468c1.1,0,1.818.306,3.24,1.368a8.967,8.967,0,0,0,2.5,1.458,5.679,5.679,0,0,0,1.71.288,4.862,4.862,0,0,0,2.376-.612,7.361,7.361,0,0,0,2.07-1.854l-.936-.81a4.8,4.8,0,0,1-2.052,1.746,3.5,3.5,0,0,1-1.44.306c-1.026,0-1.944-.4-3.456-1.476a11.054,11.054,0,0,0-1.692-1.08A4.863,4.863,0,0,0,130.734-9c-1.62,0-2.736.558-4.338,2.124Zm25.074-6.372a10.881,10.881,0,0,1,1.566-.108h.972V-2.142a11.356,11.356,0,0,1-.144,2.034h1.71a11.484,11.484,0,0,1-.144-2.034V-10.89a29.533,29.533,0,0,1,.162-2.988,10.249,10.249,0,0,1-1.494.09h-1.134a8.717,8.717,0,0,1-1.494-.09Zm12.474-.09h4.23a12.488,12.488,0,0,1,2.106.144v-1.53a11.823,11.823,0,0,1-2.106.144h-3.708a12.242,12.242,0,0,1-1.908-.09,7.206,7.206,0,0,1,.036.774c0,.342-.018.558-.054,1.08l-.4,4.068a14.343,14.343,0,0,1-.27,1.854l1.35.126a2.309,2.309,0,0,1,.828-1.08,3.736,3.736,0,0,1,2.358-.756,3.02,3.02,0,0,1,3.15,3.276A3.213,3.213,0,0,1,167.094-1.1a3.348,3.348,0,0,1-2.556-1.062,2.731,2.731,0,0,1-.576-1.044l-1.476.432A5.6,5.6,0,0,0,163.62-1.08,4.868,4.868,0,0,0,167.058.144a4.49,4.49,0,0,0,4.86-4.752,4.178,4.178,0,0,0-1.206-3.168A4.516,4.516,0,0,0,167.472-9a4.375,4.375,0,0,0-3.15,1.242,5.181,5.181,0,0,0,.144-.81ZM176.274-.81a13.837,13.837,0,0,1-.108,1.908h1.314V-.072h9.288V1.1h1.314a13.761,13.761,0,0,1-.108-1.926V-12.366a11.319,11.319,0,0,1,.09-1.656,13.058,13.058,0,0,1-1.854.09h-8.1a14.686,14.686,0,0,1-1.926-.09,12.611,12.611,0,0,1,.09,1.764Zm1.206-12.024h9.288v5.04H177.48Zm0,6.138h9.288V-1.17H177.48Zm30.96,8.154A11.382,11.382,0,0,1,205.7-2.268a10.915,10.915,0,0,1-.972-4.572,10.915,10.915,0,0,1,.972-4.572,11.382,11.382,0,0,1,2.736-3.726h-1.6a12.115,12.115,0,0,0-2.5,3.87,11.288,11.288,0,0,0-.864,4.428,11.288,11.288,0,0,0,.864,4.428,12.115,12.115,0,0,0,2.5,3.87ZM212.274-.81a13.837,13.837,0,0,1-.108,1.908h1.314V-.072h9.288V1.1h1.314a13.761,13.761,0,0,1-.108-1.926V-12.366a11.319,11.319,0,0,1,.09-1.656,13.058,13.058,0,0,1-1.854.09h-8.1a14.686,14.686,0,0,1-1.926-.09,12.611,12.611,0,0,1,.09,1.764Zm1.206-12.024h9.288v5.04H213.48Zm0,6.138h9.288V-1.17H213.48Zm15.93,8.154a12.115,12.115,0,0,0,2.5-3.87,11.288,11.288,0,0,0,.864-4.428,11.288,11.288,0,0,0-.864-4.428,12.115,12.115,0,0,0-2.5-3.87h-1.6a11.2,11.2,0,0,1,2.736,3.726,10.915,10.915,0,0,1,.972,4.572,10.915,10.915,0,0,1-.972,4.572,11.2,11.2,0,0,1-2.736,3.726Z" transform="translate(-13 235.479)" fill="#fff"/>
    <g id="グループ_150" data-name="グループ 150" transform="translate(0 -5)">
      <path id="パス_700" data-name="パス 700" d="M0,0H214V21H0Z" transform="translate(-13 173.977)" fill="url(#linear-gradient)"/>
      <path id="パス_699" data-name="パス 699" d="M10.224,0V-27.864L.072-24.66V-21.2l6.7-2.088V0Zm4.644,0H32.832V-3.312H19.44c2.088-2.088,5.544-5.832,8.676-9.468,2.34-2.736,3.708-4.9,3.708-8.028A6.749,6.749,0,0,0,30.06-25.6c-1.512-1.548-3.6-2.16-6.768-2.16a35.456,35.456,0,0,0-7.524,1.188v3.42a36.012,36.012,0,0,1,7.308-1.3c2.016,0,3.348.252,4.212,1.08A3.505,3.505,0,0,1,28.3-20.592c0,1.944-1.008,3.312-2.52,5.184-1.908,2.34-7.6,8.5-10.908,12.06ZM38.412,0,48.564-27.144h-3.6L34.776,0ZM59.976,0V-27.864l-10.152,3.2V-21.2l6.7-2.088V0Zm6.48-.108a39.014,39.014,0,0,0,6.768.72c3.24,0,5.616-.72,7.272-2.556a9,9,0,0,0,2.052-6.192,7.977,7.977,0,0,0-2.772-6.408c-1.4-1.08-3.528-1.728-6.876-1.728H70.272v-7.56H81.756v-3.312h-14.9V-12.96h4.176c3.672,0,5.4.288,6.516,1.152A4.332,4.332,0,0,1,79.056-8.1a5.163,5.163,0,0,1-1.332,3.96C76.68-3.06,75.168-2.7,73.08-2.7a37.507,37.507,0,0,1-6.624-.792ZM104.344,1.78A15.371,15.371,0,0,1,101.8-2.2a13.529,13.529,0,0,1-1.06-5.48,13.123,13.123,0,0,1,1.04-5.3,15.586,15.586,0,0,1,2.54-3.98h-2.8a16.145,16.145,0,0,0-2.2,3.94A14.154,14.154,0,0,0,98.3-7.68a14.717,14.717,0,0,0,1.06,5.52,16.018,16.018,0,0,0,2.18,3.94Zm3.64-2.76a20.979,20.979,0,0,1-.12,2.42h2.38V.24h9.3v1.2h2.42a20.261,20.261,0,0,1-.12-2.42V-13.9a18.073,18.073,0,0,1,.1-2.04,16.093,16.093,0,0,1-2.16.1H110.1a17.656,17.656,0,0,1-2.22-.1c.06.66.1,1.36.1,2.14Zm2.26-12.74h9.3v4.64h-9.3Zm0,6.74h9.3v5.12h-9.3Zm18.08,8.76a16.708,16.708,0,0,0,2.18-3.94,15.02,15.02,0,0,0,1.04-5.52,14.154,14.154,0,0,0-1.02-5.34,15.963,15.963,0,0,0-2.18-3.94h-2.82a16.341,16.341,0,0,1,2.56,3.98,12.984,12.984,0,0,1,1.02,5.3,13.463,13.463,0,0,1-1.06,5.48,15.371,15.371,0,0,1-2.54,3.98Zm34.58-3.9c-.28-.16-.38-.24-.72-.46A17.889,17.889,0,0,0,156.7-5.4c-.02-.48-.02-.48-.08-2.42.78-.04,1.08-.06,1.36-.08,1.5-.14,2.4-.24,2.7-.28.46-.06.96-.12,1.3-.14l-.06-2.2a14.8,14.8,0,0,1-2.48.44c-1.84.2-1.84.2-2.84.26-.02-1.24-.02-1.48-.04-1.98,1.76-.1,2.54-.16,4.3-.4a12.51,12.51,0,0,1,1.58-.18l-.1-2.22a27.058,27.058,0,0,1-5.76.76,12.4,12.4,0,0,1,.14-2.44h-2.54a14.27,14.27,0,0,1,.1,2.52c-.5.02-1.18.04-1.5.04a26.3,26.3,0,0,1-5.38-.42l-.02,2.22h.32c.06,0,.22,0,.44.02,1.34.1,3.92.2,4.9.2.3,0,.62,0,1.26-.02.02,1.14.02,1.82.02,2-.56.02-1.24.04-1.64.04a25.789,25.789,0,0,1-4.66-.34l-.04,2.16c.3,0,.5,0,.76.02,1.66.12,2.4.14,3.62.14.42,0,1.04-.02,2-.04.02.8.02.8.04,1.08v.44a3.853,3.853,0,0,1,.02.48,10.449,10.449,0,0,0-1.34-.08c-3.36,0-5.34,1.28-5.34,3.46,0,1.98,1.68,3.12,4.6,3.12a5.325,5.325,0,0,0,3.3-.86,3.12,3.12,0,0,0,1.12-2.7v-.22a8.9,8.9,0,0,1,1.08.5,13.5,13.5,0,0,1,3.7,2.74Zm-8.44-1.54v.48a2.535,2.535,0,0,1-.24,1.28,2.077,2.077,0,0,1-1.74.64c-1.42,0-2.28-.46-2.28-1.2,0-.86.98-1.38,2.6-1.38A7.019,7.019,0,0,1,154.464-3.66Zm12.08-7.68a25.1,25.1,0,0,1,3.32-.4c3.88-.28,5.12-.4,6.74-.64a8.844,8.844,0,0,0-2.78,2.02,6.964,6.964,0,0,0-1.9,4.7,5.351,5.351,0,0,0,2.86,4.82,12.032,12.032,0,0,0,4.68,1.32c.38.06.42.06.68.12l.36-2.72c-.2.02-.38.02-.4.02a12.137,12.137,0,0,1-2.98-.52,3.358,3.358,0,0,1-2.66-3.26c0-2.02,1.5-4.02,4.04-5.34a8.944,8.944,0,0,1,3.96-1.08,3.1,3.1,0,0,1,.42.02l-.14-2.54a10.775,10.775,0,0,1-2.06.16c-5.34.26-8.76.44-10.22.52-2.94.2-2.94.2-3.3.2-.1,0-.32,0-.76-.02Zm12.24,1.92a13.5,13.5,0,0,1,2.1,2.98l1.4-.74a12.961,12.961,0,0,0-2.1-2.94Zm5.88.94a11.567,11.567,0,0,0-2.08-2.82l-1.34.7a14.735,14.735,0,0,1,2.04,2.9ZM196.1-4.02a7.141,7.141,0,0,1-.04-.84c0-.28,0-.28.04-1.44l.28-6.8c.04-.86.12-1.9.18-2.44h-3.28c.08.56.14,1.56.18,2.44l.28,6.8c.06,1.2.06,1.2.06,1.42,0,.24-.02.44-.04.86Zm.28,4.38V-2.38h-2.9V.36Z" transform="translate(-13 188.937)" fill="#fff"/>
    </g>
    <g id="グループ_149" data-name="グループ 149" transform="translate(0 104.046)">
      <path id="パス_704" data-name="パス 704" d="M0,0H347V29H0Z" transform="translate(-13 1.931)" fill="url(#linear-gradient)"/>
      <path id="パス_703" data-name="パス 703" d="M35.742-13.062a37.071,37.071,0,0,1,4.662.252v-5a25.365,25.365,0,0,1-3.528.252v-8.316a22.45,22.45,0,0,1,.168-3.36,29.036,29.036,0,0,1-3.906.168H26.712v-2.31a16.539,16.539,0,0,1,.294-3.906H21.882a19.34,19.34,0,0,1,.294,3.948v2.268H18.732c-1.764,0-3.15-.084-4.452-.21v4.746a41.538,41.538,0,0,1,4.452-.21h3.486c-.042,2.352-.126,4.788-.336,7.182h-4.7a36.6,36.6,0,0,1-4.662-.252v5a35.948,35.948,0,0,1,4.7-.252h4.032C19.866-7.1,16.422-3.36,9.786-.546a14.15,14.15,0,0,1,2.9,4.242C19.236.21,22.848-3.78,24.906-9.744,27.048-4.536,31.794.168,38.052,3.4A15.385,15.385,0,0,1,40.53-1.386C34.272-3.906,30.2-7.6,27.678-13.062Zm-9.408-4.494c.21-2.184.294-3.822.336-7.182h5.8v7.182ZM2.94-31.626a32.133,32.133,0,0,1,7.35,6.006l2.94-3.78a35.454,35.454,0,0,0-7.35-5.586ZM1.386-21.168a40.946,40.946,0,0,1,7.56,5.754l2.688-3.906a41.316,41.316,0,0,0-7.56-5.292Zm6.426,8.19C5.628-6.636,3.948-3.234,1.6-.378l3.99,3.486C5.712,2.856,6.594,1.3,6.888.756a64.375,64.375,0,0,0,4.62-11.088Zm45.57-16.044a18.794,18.794,0,0,1,1.722,3.57H52.71a31.537,31.537,0,0,1-3.36-.126c.042.966.084,1.764.084,3.024v9.66a33.467,33.467,0,0,1-.168,4.2c1.386-.084,2.184-.126,4.452-.126h1.764c0,.84,0,1.134-.042,1.806H48.93a34.9,34.9,0,0,1-4.746-.252v4.284a39.991,39.991,0,0,1,4.746-.252h5.544a6.4,6.4,0,0,1-3.738,2.52,24.094,24.094,0,0,1-5.04.84,17.055,17.055,0,0,1,2.646,3.822A19.817,19.817,0,0,0,54.978,1.68a9.271,9.271,0,0,0,4.074-4.914h8.442v2.94a22.879,22.879,0,0,1-.252,3.78h4.872a25.513,25.513,0,0,1-.252-3.78v-2.94h5.292a39.758,39.758,0,0,1,4.872.252V-7.266a34.453,34.453,0,0,1-4.872.252H71.862V-8.82h1.05c2.31,0,3.108.042,4.452.126a35.166,35.166,0,0,1-.168-4.452V-21c0-2.142.042-3.444.126-4.578-1.092.084-1.89.126-4.032.126l2.772-.924a27.55,27.55,0,0,0-1.6-2.646h3.276a30.545,30.545,0,0,1,4.284.21v-4.242a27.362,27.362,0,0,1-4.284.252h-7.98l1.05-2.1-4.368-1.134a17.638,17.638,0,0,1-3.78,6.636v-3.654a23.389,23.389,0,0,1-3.948.252h-5.25c.588-1.134.924-1.806,1.05-2.058l-4.41-1.05a12.148,12.148,0,0,1-2.016,3.99,21.329,21.329,0,0,1-4.452,4.788,18.843,18.843,0,0,1,2.982,3.444A28.98,28.98,0,0,0,51.2-29.022Zm5.754,0c1.218,0,2.268.042,3.108.084-.5.546-.714.714-1.344,1.3a11.348,11.348,0,0,1,2.856,2.184h-7.6l2.982-.882a22.708,22.708,0,0,0-1.554-2.688Zm5.628,3.57a27.16,27.16,0,0,0,2.814-3.57H70.14a20.661,20.661,0,0,1,1.974,3.57Zm-5,18.438A12.7,12.7,0,0,0,59.85-8.82h7.644v1.806Zm-6.048-15.33H72.87v1.47H53.718Zm0,4.368H72.87v1.554H53.718Zm0,4.452H72.87v1.554H53.718ZM101.01,0h6.3V-12.81h14.2v-5.922h-14.2v-7.014H123.1v-5.922H101.01Zm32.382,0V-31.668h-6.3V0Zm6.048,0h6.216V-21.168L158.3,0h6.8V-31.668h-6.216V-10.5L146.244-31.668h-6.8Zm28.728,0h6.72l2.058-5.754h13.566L192.612,0h6.846l-11.55-31.668h-8.232Zm15.5-25.326,4.83,13.65h-9.618ZM224.406,0V-6.09H208.824V-31.668h-6.3V0Zm14.91-16.506a13.988,13.988,0,0,0,4.83,2.31l5.418,1.722a15.624,15.624,0,0,1,3.99,1.6,2.7,2.7,0,0,1,.882,2.268,2.8,2.8,0,0,1-1.26,2.52c-.924.63-2.268.882-4.7.882a66.01,66.01,0,0,1-11.508-1.6V-.672a66.684,66.684,0,0,0,11,1.386c4.662,0,7.434-.756,9.66-2.52a8.542,8.542,0,0,0,3.192-7.14,8.493,8.493,0,0,0-2.646-6.552c-1.3-1.134-3.066-1.722-5.418-2.478L247.3-19.7a11.622,11.622,0,0,1-3.36-1.386,2.572,2.572,0,0,1-.882-2.31,2.534,2.534,0,0,1,1.008-2.268c.882-.672,2.142-.8,4.326-.8,2.814,0,8.568,1.26,11.424,1.89v-6.048c-2.814-.63-8.022-1.764-11.676-1.764-3.4,0-6.174.378-8.19,1.932-2.268,1.722-3.276,4.032-3.276,7.476A7.961,7.961,0,0,0,239.316-16.506ZM262.416,0h6.72l2.058-5.754H284.76L286.86,0h6.846l-11.55-31.668h-8.232Zm15.5-25.326,4.83,13.65h-9.618ZM318.654,0V-6.09H303.072V-31.668h-6.3V0Zm3.654,0H345.45V-5.922H328.608v-7.224h15.2v-5.922h-15.2v-6.678h16.128v-5.922H322.308Z" transform="translate(-13 21.937)" fill="#fff"/>
    </g>
  </g>
</svg>
