<svg xmlns="http://www.w3.org/2000/svg" xmlns:xlink="http://www.w3.org/1999/xlink" width="359.824" height="82.397" viewBox="0 0 359.824 82.397">
  <defs>
    <linearGradient id="linear-gradient" y1="1" x2="0" gradientUnits="objectBoundingBox">
      <stop offset="0" stop-color="#fff4dc"/>
      <stop offset="0.26" stop-color="#e4cea3"/>
      <stop offset="0.49" stop-color="#fff3dc"/>
      <stop offset="0.74" stop-color="#e4cea3"/>
      <stop offset="0.99" stop-color="#fff4dc"/>
    </linearGradient>
  </defs>
  <g id="mv-txt01-sp" transform="translate(-0.91 -0.672)">
    <path id="パス_700" data-name="パス 700" d="M170.576,151.83H168.2v-2.744H154.019v2.744h-2.437a9.723,9.723,0,0,0,.11-1.734v-1.69c0-.571-.044-1.12-.088-1.625.791.066,1.537.088,2.415.088h5.732v-.812a7.1,7.1,0,0,0-.132-1.405h2.7a6.684,6.684,0,0,0-.11,1.383v.834h5.929c.878,0,1.625-.022,2.438-.088a12.048,12.048,0,0,0-.088,1.625v1.712A14.139,14.139,0,0,0,170.576,151.83Zm-15.35,2.635,2.438.461c-.11.373-.11.4-.308,1.3-.11.439-.242.944-.571,1.976a6.363,6.363,0,0,0,3.338,3.052V153.1H156.9a15.631,15.631,0,0,0-2.218.11v-2.327a14.713,14.713,0,0,0,2.218.11h8.411a15.37,15.37,0,0,0,2.262-.11v2.327a15.74,15.74,0,0,0-2.262-.11h-2.877v2.81h4.15a11.247,11.247,0,0,0,2.152-.132v2.349a17.161,17.161,0,0,0-2.152-.11h-4.15V161.8a25.636,25.636,0,0,0,3.579.22c1.274,0,2.767-.066,5.007-.263a8.538,8.538,0,0,0-.615,2.5c-1.8.044-2.942.066-4.677.066-5.138,0-8.015-1.12-9.816-3.776a15.551,15.551,0,0,1-3.008,4.3,5.98,5.98,0,0,0-1.888-1.8,13,13,0,0,0,3.777-6.213A13.634,13.634,0,0,0,155.227,154.464Zm-7.066,10.406a14.194,14.194,0,0,1-4.59-4.259,14.591,14.591,0,0,1-2.174-5.379h-1.581v6.3a25.961,25.961,0,0,0,3.645-.944l.066,2.217c-2.284.681-3.755,1.032-7,1.756a10.226,10.226,0,0,0-1.12.307l-.439-2.481a19.686,19.686,0,0,0,2.591-.373V147.7c0-.988-.022-1.515-.088-2.349a11.267,11.267,0,0,0,2.108.11h6.281a11.94,11.94,0,0,0,2.042-.11c-.044.527-.066,1.032-.066,2.437v5.115a21.9,21.9,0,0,0,.088,2.393,4.194,4.194,0,0,0-.615-.044l1.779,1.515a4.047,4.047,0,0,0-.615.461c-.681.593-2.02,1.625-2.965,2.283a11.389,11.389,0,0,0,4.041,3.117A8.316,8.316,0,0,0,148.161,164.87Zm-2.569-17.3h-5.775v1.778h5.775Zm0,3.71h-5.775v1.954h5.775Zm1.625,3.974c-.286-.022-.769-.022-1.076-.022h-2.635a11.237,11.237,0,0,0,.856,2.481A15.157,15.157,0,0,0,147.216,155.255Zm-12.21-3.118a8.989,8.989,0,0,1,1.559,2.81,7.5,7.5,0,0,1,.351,2.173q0,1.943-1.186,2.5a5.692,5.692,0,0,1-2.789.4,5.445,5.445,0,0,0-.461-2.3,7.572,7.572,0,0,0,.966.088c.857,0,1.142-.242,1.142-.966a5.979,5.979,0,0,0-.483-2.261,8.316,8.316,0,0,0-1.537-2.239,26.026,26.026,0,0,0,2.042-4.939h-2.547v14.928c0,.922.044,1.734.11,2.525h-2.547a19.648,19.648,0,0,0,.132-2.525V147.242c0-.681-.022-1.054-.066-2.02a13.8,13.8,0,0,0,1.6.066h3.228a7.372,7.372,0,0,0,1.6-.11l1.252,1.537a14.287,14.287,0,0,0-.681,1.669A35.338,35.338,0,0,1,135.007,152.137Zm-9.486,9.726a5.051,5.051,0,0,1-1.888.911,11.643,11.643,0,0,1-2.9.3h-7.268V146.519H121.3a11.747,11.747,0,0,1,2.24.176,4.028,4.028,0,0,1,1.559.659,4.032,4.032,0,0,1,1.669,3.249,4.194,4.194,0,0,1-.2,1.35,6.289,6.289,0,0,1-.549,1.174q-.242.4-.472.757t-.428.669q.373.286.692.571a5.236,5.236,0,0,1,.626.68,3.56,3.56,0,0,1,.505,1.043,4.384,4.384,0,0,1,.2,1.328,5.387,5.387,0,0,1-.4,2.118A3.826,3.826,0,0,1,125.521,161.863Zm-2.207-11.59a1.067,1.067,0,0,0-.45-.483,1.987,1.987,0,0,0-.747-.2q-.461-.044-1.186-.044H116.76v3.666h5.731q.109-.176.263-.417t.264-.439a5.527,5.527,0,0,0,.307-.626,1.908,1.908,0,0,0,.132-.735A1.709,1.709,0,0,0,123.314,150.272Zm-.362,6.3a2.593,2.593,0,0,0-.889-.264,11.163,11.163,0,0,0-1.35-.066H116.76v3.8h4.04a9.523,9.523,0,0,0,1.592-.1,1.817,1.817,0,0,0,.889-.406,1.343,1.343,0,0,0,.417-.593,2.437,2.437,0,0,0,.11-.768A1.665,1.665,0,0,0,122.951,156.573ZM99.018,146.519h11.725v3.1h-8.432v3.49h7.948V156.2h-7.948v3.776h8.8v3.095h-12.1ZM89.542,163.07l-2.613-9.461-2.613,9.461H80.1l-3.338-16.551h3.382l2.415,12.227,2.723-9.724H88.62l2.679,9.724,2.459-12.227h3.315L93.714,163.07Zm-19.685-6.893v.242c.022.571.022.571.022.878v.878c-.022.373-.022.571-.022.725a9.007,9.007,0,0,0,.066,1.163l-2.547.066a17.369,17.369,0,0,0,.132-2.547v-.527A13.357,13.357,0,0,0,65.4,158.2a2.312,2.312,0,0,0-1.142,1.8c0,1.142,1.054,1.6,3.711,1.6a19.085,19.085,0,0,0,6.456-.922l.219,2.832a6.481,6.481,0,0,0-1.01.088,39.835,39.835,0,0,1-5.621.4,9.431,9.431,0,0,1-4.9-.922,3.182,3.182,0,0,1-1.6-2.832,3.5,3.5,0,0,1,.966-2.437c.988-1.229,2.24-2.064,4.721-3.1a1.205,1.205,0,0,0-1.339-1.185c-1.274,0-2.811.768-4.5,2.261a9.875,9.875,0,0,0-1.91,2l-2-1.976a13.454,13.454,0,0,0,1.976-1.954,29.035,29.035,0,0,0,2.635-3.754,1.071,1.071,0,0,1,.176-.285c-.088,0-.373.022-.373.022-.351,0-2.284-.044-2.767-.044-.417-.022-.417-.022-.615-.022a2.408,2.408,0,0,0-.351.022l.044-2.5a26.542,26.542,0,0,0,5.095.285,8.693,8.693,0,0,0,.878-2.722l2.877.308a16.72,16.72,0,0,0-.878,1.976c-.11.242-.154.307-.2.4.176-.022.176-.022,1.383-.088a29.674,29.674,0,0,0,5.753-.746l.154,2.5c-.615.044-.615.044-1.735.175-1.6.2-4.392.373-6.61.439a11.361,11.361,0,0,1-2.02,2.92l.022.044c.154-.11.154-.11.439-.329a5.309,5.309,0,0,1,3.1-.988c1.713,0,2.789.812,2.882,2.327,1.949-.615,3.069-1.01,3.618-1.185a6.865,6.865,0,0,0,1.625-.659l1.032,2.525a19.312,19.312,0,0,0-2.437.593Q72.689,155.189,69.857,156.177ZM48.3,163.07l-2.613-9.461-2.613,9.461H38.863l-3.337-16.551h3.381l2.415,12.227,2.723-9.724h3.338l2.679,9.724,2.459-12.227h3.315L52.476,163.07ZM30.363,151.5l-3.623,8.276H23.864L20.241,151.5V163.07H17.035V146.519h4.238l4.062,9.285,4.062-9.285h4.172V163.07H30.363Zm-17.4,10.361a5.051,5.051,0,0,1-1.888.911,11.643,11.643,0,0,1-2.9.3H.91V146.519H8.749a11.749,11.749,0,0,1,2.24.176,4.028,4.028,0,0,1,1.559.659,4.032,4.032,0,0,1,1.669,3.249,4.194,4.194,0,0,1-.2,1.35,6.273,6.273,0,0,1-.549,1.174q-.242.4-.472.757l-.428.669q.373.286.692.571a5.236,5.236,0,0,1,.626.68,3.559,3.559,0,0,1,.505,1.043,4.392,4.392,0,0,1,.2,1.328,5.387,5.387,0,0,1-.4,2.118A3.828,3.828,0,0,1,12.965,161.863Zm-2.207-11.59a1.067,1.067,0,0,0-.45-.483,1.989,1.989,0,0,0-.747-.2q-.461-.044-1.186-.044H4.2v3.666H9.935q.109-.176.263-.417t.264-.439a5.526,5.526,0,0,0,.307-.626A1.908,1.908,0,0,0,10.9,151,1.708,1.708,0,0,0,10.758,150.272Zm-.362,6.3a2.593,2.593,0,0,0-.889-.264,11.163,11.163,0,0,0-1.35-.066H4.2v3.8h4.04a9.525,9.525,0,0,0,1.592-.1,1.817,1.817,0,0,0,.889-.406,1.345,1.345,0,0,0,.417-.593,2.437,2.437,0,0,0,.11-.768A1.665,1.665,0,0,0,10.4,156.573Z" transform="translate(0 -102.631)" fill="#fff" fill-rule="evenodd"/>
    <path id="パス_701" data-name="パス 701" d="M1184.218,155.963a27.51,27.51,0,0,1,3.645-.439c4.26-.308,5.621-.439,7.4-.7a9.71,9.71,0,0,0-3.052,2.217,7.644,7.644,0,0,0-2.086,5.159,5.874,5.874,0,0,0,3.14,5.291,13.214,13.214,0,0,0,5.138,1.449c.417.066.462.066.747.132l.4-2.986c-.22.022-.417.022-.439.022a13.321,13.321,0,0,1-3.272-.571,3.686,3.686,0,0,1-2.921-3.579c0-2.217,1.647-4.412,4.436-5.862a9.823,9.823,0,0,1,4.348-1.185,3.373,3.373,0,0,1,.461.022l-.153-2.788a11.838,11.838,0,0,1-2.262.176c-5.863.285-9.618.483-11.221.571-3.228.22-3.228.22-3.624.22-.11,0-.351,0-.834-.022Zm13.439,2.107a14.818,14.818,0,0,1,2.306,3.271l1.537-.812a14.239,14.239,0,0,0-2.306-3.227Zm6.456,1.032a12.708,12.708,0,0,0-2.283-3.1l-1.471.768a16.16,16.16,0,0,1,2.24,3.183Z" transform="translate(-843.379 -107.972)" fill="#fff" fill-rule="evenodd"/>
    <path id="パス_702" data-name="パス 702" d="M769.094,106.377a37.314,37.314,0,0,0,10.44,4.545,12.843,12.843,0,0,0-2.292,4.3l-1.8-.737c-.041.491-.041.778-.041,1.719v9.007a25.877,25.877,0,0,0,.2,4.094h-4.667v-2.047H760.578v2.088h-4.545a25.89,25.89,0,0,0,.2-4.054V114.811l-1.31.573a10.941,10.941,0,0,0-1.638-2.661c-.123.287-.2.368-.368.7a23.257,23.257,0,0,1-2.416-4.885c.123,2.183.164,3.616.164,5.622v10.236a40.2,40.2,0,0,0,.245,5.036h-4.708a42.054,42.054,0,0,0,.245-5.036v-8.352c.164-3.521.164-3.521.287-5.323-1.433,4.626-2.088,6.223-3.644,8.844a11.328,11.328,0,0,0-2.62-3.767,38.357,38.357,0,0,0,5.568-12.815h-1.556a21.05,21.05,0,0,0-3.03.164V98.885a17.505,17.505,0,0,0,3.071.2h1.883V95.65a26.979,26.979,0,0,0-.2-4.258h4.667a29.63,29.63,0,0,0-.2,4.258v3.439h1.187a12.651,12.651,0,0,0,2.375-.164v2.989c3.234-3.193,5.65-7.247,6.346-10.686l4.544.778c-.2.409-.287.655-.7,1.638a10.39,10.39,0,0,1-.41,1.024h5.732a18.019,18.019,0,0,0,3.562-.2l2.5,2.661a12.3,12.3,0,0,0-1.106,1.8A36.945,36.945,0,0,1,769.094,106.377Zm-8.516,16.786h10.358v-5.732H760.578Zm11.71-9.622h.86a46.987,46.987,0,0,1-7.288-4.3,36.542,36.542,0,0,1-7,4.3Zm-13.142-10.891a25.57,25.57,0,0,1-3.153,3.4,12.459,12.459,0,0,0-2.579-3.03c-.778-.041-.983-.041-1.515-.041h-1.105a23.752,23.752,0,0,0,4.5,7.083c-.368.368-.491.491-.778.819a37.667,37.667,0,0,0,8.066-4.381A27.342,27.342,0,0,1,759.145,102.651Zm2.743-3.971c-.164.287-.2.368-.409.7A21.644,21.644,0,0,0,765.737,104a18.882,18.882,0,0,0,4.135-5.323Zm-32.37-.86v5.527h4.176a30.217,30.217,0,0,0,3.685-.164,33.2,33.2,0,0,0-.164,3.848v16.991a48.216,48.216,0,0,0,.246,5.118h-4.667v-2.252h-17.36v2.252h-4.585a39.846,39.846,0,0,0,.246-4.5V107.114a28.867,28.867,0,0,0-.2-3.93,32.144,32.144,0,0,0,3.767.164h3.849V97.82H716.5c-2.006,0-3.521.082-4.831.2V93.48a35.3,35.3,0,0,0,4.831.246h17.114a37.657,37.657,0,0,0,5-.246v4.545c-1.187-.123-2.825-.2-4.831-.2Zm0,25.1h3.439v-15.64h-3.439Zm-11.014-15.64H715.23v15.64h3.275Zm7.083-9.458h-3.153v5.527h3.153Zm0,9.458h-3.153v15.64h3.153Zm-17.36-5.486v22.846a35.4,35.4,0,0,0,.2,4.749h-4.708a43.011,43.011,0,0,0,.246-4.79V112.4c0-1.679,0-2.416.123-4.463a26.47,26.47,0,0,1-2.743,4.217,25.389,25.389,0,0,0-1.76-4.872,31.023,31.023,0,0,0,6.141-10.645,23.955,23.955,0,0,0,1.515-5.65l4.422,1.8c-.327.942-.45,1.31-.778,2.252A58.323,58.323,0,0,1,708.228,101.792Zm-11.542,21.781c0,4.135-1.146,4.954-7.124,4.954-.9,0-1.474-.041-3.4-.123a18.144,18.144,0,0,0-1.392-4.586,50.95,50.95,0,0,0,5.568.41c1.556,0,1.965-.246,1.965-1.228V97.411a48.71,48.71,0,0,0-.287-5.568h4.954a42.809,42.809,0,0,0-.287,5.568ZM687.72,114.4a34.152,34.152,0,0,0,.2,4.872h-4.708a31.422,31.422,0,0,0,.2-4.79V98.926a37.716,37.716,0,0,0-.246-5h4.79a31.7,31.7,0,0,0-.246,5Zm-7.656-7.82c-1.351-.123-2.825-.164-5.159-.164h-4.3c-.041,2.211-.082,2.415-.164,3.971h5.65a25.848,25.848,0,0,0,3.89-.2c-.082.819-.082,1.228-.123,2.866,0,5.691-.409,10.727-1.024,12.692-.7,2.211-1.8,2.825-5.322,2.825-.9,0-1.843-.041-3.644-.2a12.764,12.764,0,0,0-1.024-4.5,27.934,27.934,0,0,0,4.3.409c1.146,0,1.6-.287,1.761-1.105a49.877,49.877,0,0,0,.614-8.844h-5.527a27.627,27.627,0,0,1-2.334,8.352,20.777,20.777,0,0,1-4.749,6.428,12.614,12.614,0,0,0-3.071-4.012c3.316-2.866,4.749-5.65,5.65-10.768a48.012,48.012,0,0,0,.7-7.9,41.025,41.025,0,0,0-4.545.164c.123-1.433.164-2.375.164-4.463V97.165c0-2.088-.041-2.948-.164-4.5a41.046,41.046,0,0,0,5.118.2h8.271a36.137,36.137,0,0,0,5.036-.2A43.225,43.225,0,0,0,679.9,97v5.323A30.768,30.768,0,0,0,680.064,106.582Zm-4.422-9.867h-9.5v5.855h9.5Zm-21.97,11.054v3.439h.369a26.7,26.7,0,0,0,4.012-.2v4.5a28.831,28.831,0,0,0-4.012-.246h-.369v9.785c0,3.071-1.31,3.89-6.06,3.89-.7,0-2.211-.041-3.48-.123a12.146,12.146,0,0,0-1.065-4.5,35.218,35.218,0,0,0,4.79.45c1.31,0,1.556-.2,1.556-1.228v-8.27H638.687a23.393,23.393,0,0,0-4.012.246v-1.883c-1.146.532-1.883.86-2.948,1.31v9.744a40.705,40.705,0,0,0,.246,4.749h-4.831a34.005,34.005,0,0,0,.287-4.749v-8.148c-.982.368-1.883.7-2.743.983-2.17.778-2.661.982-3.112,1.187l-1.024-4.667a36.265,36.265,0,0,0,6.878-1.842v-8.434h-2.415a37.954,37.954,0,0,1-1.474,6.018,11.342,11.342,0,0,0-3.562-1.842,37.109,37.109,0,0,0,2.088-12.16c0-.246-.041-.532-.082-1.024l4.012.491a9.925,9.925,0,0,0-.246,2.088l-.082.614-.123,1.679h1.883V94.79a17.678,17.678,0,0,0-.287-3.357h4.831a20.469,20.469,0,0,0-.246,3.357v4.831h.328a17.2,17.2,0,0,0,3.275-.246v4.3c1.269.082,2.293.123,3.767.123h4.667V99.826h-3.439a40.854,40.854,0,0,0-4.217.2V95.568a29.165,29.165,0,0,0,4.217.246h3.439V94.545a17.962,17.962,0,0,0-.246-3.071h4.749a16.776,16.776,0,0,0-.2,3.03v1.31h4.422a30.836,30.836,0,0,0,4.3-.246v4.463a41.368,41.368,0,0,0-4.3-.2h-4.422V103.8h5.527a41.955,41.955,0,0,0,4.626-.2v4.422a34.8,34.8,0,0,0-4.3-.246Zm-4.258,0H639.1a27.536,27.536,0,0,0-4.626.246V103.8c-.9-.041-1.433-.041-2.088-.041h-.655v6.96c1.6-.614,2.129-.819,3.521-1.433l.041,1.8c.942.082,2.129.123,3.931.123h10.195ZM645.2,121.731l-3.562,2.7a30.82,30.82,0,0,0-5.2-6.715l3.4-2.252A33.487,33.487,0,0,1,645.2,121.731Z" transform="translate(-441.284 -64.376)" fill="#fff" fill-rule="evenodd"/>
    <path id="パス_703" data-name="パス 703" d="M769.094,106.377a37.314,37.314,0,0,0,10.44,4.545,12.843,12.843,0,0,0-2.292,4.3l-1.8-.737c-.041.491-.041.778-.041,1.719v9.007a25.877,25.877,0,0,0,.2,4.094h-4.667v-2.047H760.578v2.088h-4.545a25.89,25.89,0,0,0,.2-4.054V114.811l-1.31.573a10.941,10.941,0,0,0-1.638-2.661c-.123.287-.2.368-.368.7a23.257,23.257,0,0,1-2.416-4.885c.123,2.183.164,3.616.164,5.622v10.236a40.2,40.2,0,0,0,.245,5.036h-4.708a42.054,42.054,0,0,0,.245-5.036v-8.352c.164-3.521.164-3.521.287-5.323-1.433,4.626-2.088,6.223-3.644,8.844a11.328,11.328,0,0,0-2.62-3.767,38.357,38.357,0,0,0,5.568-12.815h-1.556a21.05,21.05,0,0,0-3.03.164V98.885a17.505,17.505,0,0,0,3.071.2h1.883V95.65a26.979,26.979,0,0,0-.2-4.258h4.667a29.63,29.63,0,0,0-.2,4.258v3.439h1.187a12.651,12.651,0,0,0,2.375-.164v2.989c3.234-3.193,5.65-7.247,6.346-10.686l4.544.778c-.2.409-.287.655-.7,1.638a10.39,10.39,0,0,1-.41,1.024h5.732a18.019,18.019,0,0,0,3.562-.2l2.5,2.661a12.3,12.3,0,0,0-1.106,1.8A36.945,36.945,0,0,1,769.094,106.377Zm-8.516,16.786h10.358v-5.732H760.578Zm11.71-9.622h.86a46.987,46.987,0,0,1-7.288-4.3,36.542,36.542,0,0,1-7,4.3Zm-13.142-10.891a25.57,25.57,0,0,1-3.153,3.4,12.459,12.459,0,0,0-2.579-3.03c-.778-.041-.983-.041-1.515-.041h-1.105a23.752,23.752,0,0,0,4.5,7.083c-.368.368-.491.491-.778.819a37.667,37.667,0,0,0,8.066-4.381A27.342,27.342,0,0,1,759.145,102.651Zm2.743-3.971c-.164.287-.2.368-.409.7A21.644,21.644,0,0,0,765.737,104a18.882,18.882,0,0,0,4.135-5.323Zm-32.37-.86v5.527h4.176a30.217,30.217,0,0,0,3.685-.164,33.2,33.2,0,0,0-.164,3.848v16.991a48.216,48.216,0,0,0,.246,5.118h-4.667v-2.252h-17.36v2.252h-4.585a39.846,39.846,0,0,0,.246-4.5V107.114a28.867,28.867,0,0,0-.2-3.93,32.144,32.144,0,0,0,3.767.164h3.849V97.82H716.5c-2.006,0-3.521.082-4.831.2V93.48a35.3,35.3,0,0,0,4.831.246h17.114a37.657,37.657,0,0,0,5-.246v4.545c-1.187-.123-2.825-.2-4.831-.2Zm0,25.1h3.439v-15.64h-3.439Zm-11.014-15.64H715.23v15.64h3.275Zm7.083-9.458h-3.153v5.527h3.153Zm0,9.458h-3.153v15.64h3.153Zm-17.36-5.486v22.846a35.4,35.4,0,0,0,.2,4.749h-4.708a43.011,43.011,0,0,0,.246-4.79V112.4c0-1.679,0-2.416.123-4.463a26.47,26.47,0,0,1-2.743,4.217,25.389,25.389,0,0,0-1.76-4.872,31.023,31.023,0,0,0,6.141-10.645,23.955,23.955,0,0,0,1.515-5.65l4.422,1.8c-.327.942-.45,1.31-.778,2.252A58.323,58.323,0,0,1,708.228,101.792Zm-11.542,21.781c0,4.135-1.146,4.954-7.124,4.954-.9,0-1.474-.041-3.4-.123a18.144,18.144,0,0,0-1.392-4.586,50.95,50.95,0,0,0,5.568.41c1.556,0,1.965-.246,1.965-1.228V97.411a48.71,48.71,0,0,0-.287-5.568h4.954a42.809,42.809,0,0,0-.287,5.568ZM687.72,114.4a34.152,34.152,0,0,0,.2,4.872h-4.708a31.422,31.422,0,0,0,.2-4.79V98.926a37.716,37.716,0,0,0-.246-5h4.79a31.7,31.7,0,0,0-.246,5Zm-7.656-7.82c-1.351-.123-2.825-.164-5.159-.164h-4.3c-.041,2.211-.082,2.415-.164,3.971h5.65a25.848,25.848,0,0,0,3.89-.2c-.082.819-.082,1.228-.123,2.866,0,5.691-.409,10.727-1.024,12.692-.7,2.211-1.8,2.825-5.322,2.825-.9,0-1.843-.041-3.644-.2a12.764,12.764,0,0,0-1.024-4.5,27.934,27.934,0,0,0,4.3.409c1.146,0,1.6-.287,1.761-1.105a49.877,49.877,0,0,0,.614-8.844h-5.527a27.627,27.627,0,0,1-2.334,8.352,20.777,20.777,0,0,1-4.749,6.428,12.614,12.614,0,0,0-3.071-4.012c3.316-2.866,4.749-5.65,5.65-10.768a48.012,48.012,0,0,0,.7-7.9,41.025,41.025,0,0,0-4.545.164c.123-1.433.164-2.375.164-4.463V97.165c0-2.088-.041-2.948-.164-4.5a41.046,41.046,0,0,0,5.118.2h8.271a36.137,36.137,0,0,0,5.036-.2A43.225,43.225,0,0,0,679.9,97v5.323A30.768,30.768,0,0,0,680.064,106.582Zm-4.422-9.867h-9.5v5.855h9.5Zm-21.97,11.054v3.439h.369a26.7,26.7,0,0,0,4.012-.2v4.5a28.831,28.831,0,0,0-4.012-.246h-.369v9.785c0,3.071-1.31,3.89-6.06,3.89-.7,0-2.211-.041-3.48-.123a12.146,12.146,0,0,0-1.065-4.5,35.218,35.218,0,0,0,4.79.45c1.31,0,1.556-.2,1.556-1.228v-8.27H638.687a23.393,23.393,0,0,0-4.012.246v-1.883c-1.146.532-1.883.86-2.948,1.31v9.744a40.705,40.705,0,0,0,.246,4.749h-4.831a34.005,34.005,0,0,0,.287-4.749v-8.148c-.982.368-1.883.7-2.743.983-2.17.778-2.661.982-3.112,1.187l-1.024-4.667a36.265,36.265,0,0,0,6.878-1.842v-8.434h-2.415a37.954,37.954,0,0,1-1.474,6.018,11.342,11.342,0,0,0-3.562-1.842,37.109,37.109,0,0,0,2.088-12.16c0-.246-.041-.532-.082-1.024l4.012.491a9.925,9.925,0,0,0-.246,2.088l-.082.614-.123,1.679h1.883V94.79a17.678,17.678,0,0,0-.287-3.357h4.831a20.469,20.469,0,0,0-.246,3.357v4.831h.328a17.2,17.2,0,0,0,3.275-.246v4.3c1.269.082,2.293.123,3.767.123h4.667V99.826h-3.439a40.854,40.854,0,0,0-4.217.2V95.568a29.165,29.165,0,0,0,4.217.246h3.439V94.545a17.962,17.962,0,0,0-.246-3.071h4.749a16.776,16.776,0,0,0-.2,3.03v1.31h4.422a30.836,30.836,0,0,0,4.3-.246v4.463a41.368,41.368,0,0,0-4.3-.2h-4.422V103.8h5.527a41.955,41.955,0,0,0,4.626-.2v4.422a34.8,34.8,0,0,0-4.3-.246Zm-4.258,0H639.1a27.536,27.536,0,0,0-4.626.246V103.8c-.9-.041-1.433-.041-2.088-.041h-.655v6.96c1.6-.614,2.129-.819,3.521-1.433l.041,1.8c.942.082,2.129.123,3.931.123h10.195ZM645.2,121.731l-3.562,2.7a30.82,30.82,0,0,0-5.2-6.715l3.4-2.252A33.487,33.487,0,0,1,645.2,121.731Z" transform="translate(-441.284 -64.376)" fill="url(#linear-gradient)"/>
    <path id="パス_704" data-name="パス 704" d="M953.891,255.449a8.647,8.647,0,0,1-1.785,2.76h-1.143a7.991,7.991,0,0,0,1.952-2.658,8.014,8.014,0,0,0,0-6.522,7.991,7.991,0,0,0-1.952-2.658h1.143a8.648,8.648,0,0,1,1.785,2.761,8.4,8.4,0,0,1,0,6.316Zm-5.5,2.324c-.732,0-1-.039-1.233-.193-.18-.115-.244-.27-.244-.6v-5.136h-1.143a8.649,8.649,0,0,1-.578,3.3,5.051,5.051,0,0,1-1.246,1.9,5.454,5.454,0,0,1-1.438.976,3.55,3.55,0,0,0-.617-.693,4.364,4.364,0,0,0,1.811-1.258,6.144,6.144,0,0,0,1.272-4.224h-.5a8.318,8.318,0,0,0-1.028.051,8.986,8.986,0,0,0,.052-1.13v-2.581a8.939,8.939,0,0,0-.052-1.066,10.677,10.677,0,0,0,1.22.051h3.609a9.756,9.756,0,0,0,1.156-.051,8.238,8.238,0,0,0-.051,1.053v2.683a8.019,8.019,0,0,0,.051,1.04,8.4,8.4,0,0,0-1.04-.051h-.68c0,4.943,0,4.943.013,4.994.026.128.193.18.578.18.655,0,.95-.039,1.04-.141.167-.18.231-.668.244-2.054a2.374,2.374,0,0,0,.77.359c-.128,1.862-.193,2.2-.552,2.4A2.963,2.963,0,0,1,948.391,257.773Zm.193-6.651v-3.21h-4.289v3.21ZM943,254.037a9.884,9.884,0,0,1-1.733-1.425v4.1a6.818,6.818,0,0,0,.089,1.335h-.963a8.276,8.276,0,0,0,.077-1.335V252.83a11.959,11.959,0,0,1-1.875,1.618,3.605,3.605,0,0,0-.437-.706,10.67,10.67,0,0,0,2.311-1.913,9.179,9.179,0,0,0,1.618-2.44h-2.35a7.9,7.9,0,0,0-1.04.051v-.822a7.077,7.077,0,0,0,1.015.051h.77v-1.233a6.816,6.816,0,0,0-.077-1.027h.963a5.476,5.476,0,0,0-.077,1.027v1.233h.6a5.96,5.96,0,0,0,.8-.039l.423.462c-.1.18-.1.18-.526,1.014a9.9,9.9,0,0,1-1.168,1.695,7.22,7.22,0,0,0,1.99,1.515A2.746,2.746,0,0,0,943,254.037Zm-8.875-.694a1.053,1.053,0,1,1,1.053-1.053A1.057,1.057,0,0,1,934.122,253.343Zm-5.718,3.518a.976.976,0,0,1-.36.9,1.853,1.853,0,0,1-1.027.167c-.424,0-.963-.013-1.541-.052a3.6,3.6,0,0,0-.205-.873,12.845,12.845,0,0,0,1.836.129c.372,0,.475-.077.475-.4V253.9h-5.958a8.851,8.851,0,0,1-.526,1.99,6.91,6.91,0,0,1-1.413,2.234,2.954,2.954,0,0,0-.706-.68,5.392,5.392,0,0,0,1.516-2.516,20.521,20.521,0,0,0,.5-5.649c0-1.181-.013-1.694-.051-2.182a10.9,10.9,0,0,0,1.348.064h4.829a10.315,10.315,0,0,0,1.335-.064,11.271,11.271,0,0,0-.051,1.322Zm-.822-8.923h-5.715l-.013,1.823v.308h5.727Zm0,2.9h-5.727c-.013.706-.039,1.194-.141,2.285h5.869Zm-9.657,7.369h-1.143a8.642,8.642,0,0,1-1.785-2.76,8.4,8.4,0,0,1,0-6.316,8.644,8.644,0,0,1,1.785-2.761h1.143a8.119,8.119,0,0,0-1.952,2.658,8.017,8.017,0,0,0,0,6.522A8.118,8.118,0,0,0,917.925,258.209Zm-9.566-.257h-.938v-.835h-6.626v.835h-.937a9.84,9.84,0,0,0,.077-1.361v-8.166a8.953,8.953,0,0,0-.064-1.258,10.466,10.466,0,0,0,1.374.064h5.779a9.3,9.3,0,0,0,1.323-.064,8.055,8.055,0,0,0-.064,1.181v8.23A9.762,9.762,0,0,0,908.359,257.952Zm-.938-9.937h-6.626v3.595h6.626Zm0,4.378h-6.626v3.942h6.626Zm-10.937.347a2.264,2.264,0,0,1,.436.77,3.243,3.243,0,0,1,.154,1.053,3.455,3.455,0,0,1-.18,1.111,2.3,2.3,0,0,1-.552.905,2.368,2.368,0,0,1-1.04.629,5.185,5.185,0,0,1-1.464.18,9.123,9.123,0,0,1-1.355-.1q-.687-.1-1.111-.18v-.783l.552.09q.308.051.635.1t.655.077q.327.033.623.032a4.575,4.575,0,0,0,.969-.1,1.914,1.914,0,0,0,.739-.315,1.614,1.614,0,0,0,.539-.706,2.461,2.461,0,0,0,.167-.912,2.26,2.26,0,0,0-.237-1.1,1.747,1.747,0,0,0-.7-.687,1.556,1.556,0,0,0-.559-.18,6.133,6.133,0,0,0-.751-.038h-1.657v-.77h2.659l.565-.783a4.236,4.236,0,0,0,.449-.764,1.8,1.8,0,0,0,.154-.726,1.967,1.967,0,0,0-.077-.558,1.038,1.038,0,0,0-.3-.469,1.6,1.6,0,0,0-.642-.353,3.7,3.7,0,0,0-1.053-.122,6.382,6.382,0,0,0-.733.045q-.385.045-.745.116t-.674.141q-.315.071-.507.122v-.783q.231-.064.552-.135t.681-.129q.36-.058.732-.1a5.793,5.793,0,0,1,.694-.045,5,5,0,0,1,1.412.161,2.159,2.159,0,0,1,.912.546,1.752,1.752,0,0,1,.43.712,2.716,2.716,0,0,1,.135.841,2.375,2.375,0,0,1-.154.828,4.3,4.3,0,0,1-.449.867q-.18.257-.353.5t-.289.4a4.36,4.36,0,0,1,.359.25A2.312,2.312,0,0,1,896.484,252.74Zm-12.9,3.608,1.078-1.22q.59-.667,1.143-1.3t1-1.162l.649-.771c.334-.419.286-.793.8-1.123a2.136,2.136,0,0,0,.3-1.136,2.494,2.494,0,0,0-.077-.629,1.066,1.066,0,0,0-.308-.513,1.61,1.61,0,0,0-.617-.34,3.423,3.423,0,0,0-.963-.109,4.939,4.939,0,0,0-.668.051q-.373.052-.738.128t-.681.161l-.507.135v-.783c.136-.043.31-.09.52-.141s.434-.1.674-.148.482-.087.726-.122a4.912,4.912,0,0,1,.674-.051,4.347,4.347,0,0,1,1.374.18,2.122,2.122,0,0,1,.9.591,1.715,1.715,0,0,1,.4.732,3.341,3.341,0,0,1,.109.86,2.93,2.93,0,0,1-.328,1.374,8.359,8.359,0,0,1-.918,1.361q-.488.6-1.014,1.214t-1.008,1.149q-.482.539-.88.976t-.629.693h5.15v.77h-6.164Zm-8.425-2.529a4.061,4.061,0,0,1-1.22-.205,6.418,6.418,0,0,1-1.785-1.04,3.491,3.491,0,0,0-2.312-.976,2.631,2.631,0,0,0-1.322.334,4.537,4.537,0,0,0-1.079.9l-.642-.565a4.074,4.074,0,0,1,3.095-1.515,3.47,3.47,0,0,1,1.605.372,7.891,7.891,0,0,1,1.208.77,4.171,4.171,0,0,0,2.465,1.053,2.5,2.5,0,0,0,1.027-.218,3.42,3.42,0,0,0,1.464-1.245l.668.578a5.241,5.241,0,0,1-1.477,1.322A3.468,3.468,0,0,1,875.163,253.818Zm-15.939,4.391h-1.143a7.991,7.991,0,0,0,1.952-2.658,8.017,8.017,0,0,0,0-6.522,7.992,7.992,0,0,0-1.952-2.658h1.143a8.633,8.633,0,0,1,1.785,2.761,8.4,8.4,0,0,1,0,6.316A8.632,8.632,0,0,1,859.224,258.209Zm-5.743-2.324a8.545,8.545,0,0,1-2.016-4.147,7.657,7.657,0,0,1-.809,2.5,7.85,7.85,0,0,1-2.787,2.991,10.372,10.372,0,0,1-1.541.835,2.877,2.877,0,0,0-.629-.809,7.362,7.362,0,0,0,5.072-5.919,18.512,18.512,0,0,0,.205-3.159,9.9,9.9,0,0,0-.064-1.476h1.027a13.806,13.806,0,0,0-.064,1.939,10.4,10.4,0,0,0,.578,3.916,7.8,7.8,0,0,0,2.658,3.582,8.509,8.509,0,0,0,2.093,1.117,2.855,2.855,0,0,0-.629.822A8.891,8.891,0,0,1,853.481,255.885Zm.013-3.749a10.667,10.667,0,0,0,2.068-3.415l.848.411a15.763,15.763,0,0,1-2.2,3.454Zm-6.434.86-.783-.449a6.411,6.411,0,0,0,1.014-1.643,8,8,0,0,0,.642-2.067l.861.27a11,11,0,0,1-.719,2.119A8.113,8.113,0,0,1,847.06,253Zm-2.25,5.213h-1.143a8.64,8.64,0,0,1-1.785-2.76,8.4,8.4,0,0,1,0-6.316,8.642,8.642,0,0,1,1.785-2.761h1.143a8.113,8.113,0,0,0-1.952,2.658,8.012,8.012,0,0,0,0,6.522A8.112,8.112,0,0,0,844.81,258.209Zm-9.567-.257h-.937v-.835h-6.627v.835h-.937a9.828,9.828,0,0,0,.077-1.361v-8.166a9.031,9.031,0,0,0-.064-1.258,10.461,10.461,0,0,0,1.374.064h5.779a9.308,9.308,0,0,0,1.323-.064,8.035,8.035,0,0,0-.064,1.181v8.23A9.847,9.847,0,0,0,835.243,257.952Zm-.937-9.937h-6.627v3.595h6.627Zm0,4.378h-6.627v3.942h6.627Zm-15.192,4.776,4.495-8.91h-5.137v-.77h6.049v.783l-4.482,8.9Zm-3.258-8.859-2.35.758v-.822l3.147-1.014v9.938h-.8Zm-4.177,8.551a.976.976,0,0,1-.359.9,1.855,1.855,0,0,1-1.028.167c-.424,0-.963-.013-1.541-.052a3.6,3.6,0,0,0-.206-.873,12.851,12.851,0,0,0,1.836.129c.372,0,.475-.077.475-.4V253.9H804.9a8.838,8.838,0,0,1-.527,1.99,6.905,6.905,0,0,1-1.412,2.234,2.957,2.957,0,0,0-.707-.68,5.385,5.385,0,0,0,1.515-2.516,20.5,20.5,0,0,0,.5-5.649c0-1.181-.013-1.694-.052-2.182a10.905,10.905,0,0,0,1.348.064h4.828a10.332,10.332,0,0,0,1.336-.064,11.184,11.184,0,0,0-.052,1.322Zm-.822-8.923h-5.715l-.013,1.823v.308h5.728Zm0,2.9H805.13c-.013.706-.038,1.194-.142,2.285h5.869Zm-9.994,2.728q-.02.289-.052.552a5.433,5.433,0,0,1-.1.546,4.15,4.15,0,0,1-.347,1.027,2.828,2.828,0,0,1-1.605,1.47,4.025,4.025,0,0,1-1.425.225,7.428,7.428,0,0,1-1.124-.084q-.546-.083-1-.173v-.783q.449.09,1.014.18a7.025,7.025,0,0,0,1.1.09,3.454,3.454,0,0,0,.912-.116,2.149,2.149,0,0,0,.719-.334,2.127,2.127,0,0,0,.584-.68,3.23,3.23,0,0,0,.34-.9,5.843,5.843,0,0,0,.141-.854q.038-.43.038-.661-.436.064-1.066.122t-1.207.058a4.545,4.545,0,0,1-1.522-.212,1.863,1.863,0,0,1-.918-.687,2.156,2.156,0,0,1-.373-.873,6.16,6.16,0,0,1-.077-1.027,6.437,6.437,0,0,1,.09-1.072,2.642,2.642,0,0,1,.385-1,2.236,2.236,0,0,1,.9-.809,3.33,3.33,0,0,1,1.541-.308,3.275,3.275,0,0,1,1.451.3,2.227,2.227,0,0,1,.938.835,4.153,4.153,0,0,1,.533,1.579,15,15,0,0,1,.148,2.247q0,.4-.007.725T800.864,253.568ZM800,250.4a3.634,3.634,0,0,0-.411-1.489,1.514,1.514,0,0,0-.713-.668,2.525,2.525,0,0,0-1.047-.205,2.781,2.781,0,0,0-1.008.167,1.471,1.471,0,0,0-.674.5,2.03,2.03,0,0,0-.334.777,5.281,5.281,0,0,0-.077.969,5.088,5.088,0,0,0,.058.822,1.466,1.466,0,0,0,.263.629,1.193,1.193,0,0,0,.739.469,4.608,4.608,0,0,0,1.021.109q.552,0,1.195-.058t1.066-.122Q800.073,251.3,800,250.4Z" transform="translate(-594.646 -175.14)" fill="#fff" fill-rule="evenodd"/>
    <path id="パス_705" data-name="パス 705" d="M838.01,4.349l-.3,7.185c-.042,1.226-.042,1.226-.042,1.521a7.544,7.544,0,0,0,.042.888h-2.473c.021-.444.042-.655.042-.909,0-.233,0-.233-.064-1.5l-.3-7.185c-.042-.93-.106-1.987-.19-2.578H838.2C838.136,2.342,838.052,3.441,838.01,4.349ZM828.3,17.262c0,1.268-.253,1.817-1.014,2.134a6.44,6.44,0,0,1-2.388.254c-.3,0-.381,0-1.458-.063a8.014,8.014,0,0,0-.549-2.177c-.613-.021-1.014-.021-1.183-.021h-4.48v1.183h-2.24a14.537,14.537,0,0,0,.148-2.113V11.3c0-.74-.021-1.331-.063-1.9a17.21,17.21,0,0,0,1.965.084h4.713a16.981,16.981,0,0,0,1.965-.084c-.042.549-.063,1.078-.063,1.9v4.29c0,.8.021,1.289.063,1.839.465.042,1.226.106,1.606.106.592,0,.782-.148.782-.571V8.132h-4.164c-.739,0-1.416.021-1.944.063.042-.613.064-1.014.064-1.923V3.039c0-.719-.021-1.31-.064-1.965a18.059,18.059,0,0,0,2.156.085h4.058a18.927,18.927,0,0,0,2.176-.085c-.063.761-.084,1.289-.084,2.346Zm-6.763-6h-4.311v1.268h4.311Zm0,2.98h-4.311v1.374h4.311Zm4.565-11.37h-3.952V3.927h3.952Zm0,2.557h-3.952V6.5h3.952ZM818.583,8.2c-.55-.042-1.2-.063-1.945-.063h-3.825v9.13a18.33,18.33,0,0,0,.127,2.6h-2.473a18.912,18.912,0,0,0,.127-2.62V3.441a23.412,23.412,0,0,0-.085-2.367,19.175,19.175,0,0,0,2.177.085h3.74a17.837,17.837,0,0,0,2.156-.085c-.043.676-.063,1.141-.063,1.965V6.273C818.52,7.245,818.541,7.731,818.583,8.2ZM816.448,2.87h-3.635V3.927h3.635Zm0,2.557h-3.635V6.5h3.635ZM801.6,19.565c-3.846,0-5.262-.106-6.425-.444a5.218,5.218,0,0,1-2.684-1.944,22.61,22.61,0,0,1-2.853,2.367l-1.162-2.24a13.752,13.752,0,0,0,2.916-2.071V10.689h-1.141a7.8,7.8,0,0,0-1.437.106V8.513a9.436,9.436,0,0,0,1.691.106h1.585a9.14,9.14,0,0,0,1.606-.106,21.269,21.269,0,0,0-.085,2.3v4.565a2.865,2.865,0,0,0,.93,1.1,3.794,3.794,0,0,0,1.374.634,16.362,16.362,0,0,0,3.635.317,74.333,74.333,0,0,0,9.066-.423,8.583,8.583,0,0,0-.634,2.409C805.911,19.5,803.332,19.565,801.6,19.565ZM797.753,7.2a13.8,13.8,0,0,0,1.8.084h.613v-1.1H799.8c-.718,0-1.289.021-1.775.063V4.476a14.9,14.9,0,0,0,1.775.085h.359v-.19a6.377,6.377,0,0,0-.084-.951h2.156a5.949,5.949,0,0,0-.084.972v.169h.549a14.308,14.308,0,0,0,1.754-.085V6.251c-.486-.042-1.036-.063-1.754-.063h-.549v1.1h.8a13.451,13.451,0,0,0,1.775-.084v1.86a15.372,15.372,0,0,0-1.775-.085h-3.4a16.493,16.493,0,0,0-1.8.085Zm.317,2.515c.486.042.846.063,1.31.063h3.529a12.391,12.391,0,0,0,1.31-.063c-.021.528-.042.824-.042,1.331v2.177c0,.528.021.8.042,1.12-.275-.021-.613-.042-.972-.042h-3.255v.888H798.07a13.942,13.942,0,0,0,.064-1.564V11.091C798.134,10.584,798.112,10.182,798.07,9.717Zm1.923,2.959h2.388v-1.31h-2.388Zm7.354,2.05c0,1.057-.338,1.543-1.183,1.775a11.07,11.07,0,0,1-2.325.169c-.3,0-.486,0-.951-.021a4.07,4.07,0,0,0-.465-1.944c.634.063,1.268.106,1.9.106.761,0,.824-.042.824-.528V3.018h-7.777v.655c0,3.212-.127,6.826-.3,8.136a11.727,11.727,0,0,1-1.458,4.713,7.048,7.048,0,0,0-1.817-1.543c1.31-2.3,1.437-3.4,1.437-11.5a18.973,18.973,0,0,0-.106-2.515,19.016,19.016,0,0,0,2.24.085h7.862a17.091,17.091,0,0,0,2.2-.085,17.969,17.969,0,0,0-.084,2.24ZM788.983,2.257,790.673.672A24.8,24.8,0,0,1,794.329,4.5l-1.754,1.712A21.319,21.319,0,0,0,788.983,2.257Zm-5.3,2.261-3.931,1.226V3.715l5.96-1.881V18.192h-2.029Zm-4.323,7.165-1.479,2.494A50.007,50.007,0,0,0,770.4,10.14a6.874,6.874,0,0,1-.719-.359,10.889,10.889,0,0,1,.085,1.437V16.8a23.214,23.214,0,0,0,.084,2.346h-2.9a14.225,14.225,0,0,0,.127-2.367V3.229a13.609,13.609,0,0,0-.127-2.156h2.9a14.189,14.189,0,0,0-.084,2.219V7.223A62.108,62.108,0,0,1,779.364,11.683Zm-16.61,5.009-2.029,2.2a40.62,40.62,0,0,0-6.488-6.277,25.113,25.113,0,0,1-8.052,6.107,8.485,8.485,0,0,0-1.712-2.346A17.454,17.454,0,0,0,748.7,14.05a20.369,20.369,0,0,0,7.1-8.6l.232-.55c-.338.021-.338.021-7,.127a16.626,16.626,0,0,0-2.3.169l-.084-2.705a9.245,9.245,0,0,0,1.86.127h.507l7.439-.106a4.583,4.583,0,0,0,1.881-.233l1.395,1.437a4.064,4.064,0,0,0-.676,1.141,27.981,27.981,0,0,1-3.3,5.833,32.762,32.762,0,0,1,3.91,3.064C760.2,14.219,760.2,14.219,762.754,16.691Zm-24.162-.233a18.794,18.794,0,0,1-5.537,2.874,7.365,7.365,0,0,0-1.648-2.451,13.725,13.725,0,0,0,5.875-2.79,11,11,0,0,0,3.4-4.945H730.392a21.46,21.46,0,0,0-2.7.106V6.674a15.013,15.013,0,0,0,2.747.148h10.06a9.248,9.248,0,0,0,2.388-.19l1.2,1.352a9.537,9.537,0,0,0-.592,1.332A14.944,14.944,0,0,1,738.592,16.459ZM731.914,4.074a16.264,16.264,0,0,0-2.43.106v-2.6a12.036,12.036,0,0,0,2.473.148h7.376a12.037,12.037,0,0,0,2.473-.148v2.6a16.264,16.264,0,0,0-2.43-.106Zm106.1,14.5h-3.064v-2.9h3.064Z" transform="translate(-518.063 0)" fill="#fff" fill-rule="evenodd"/>
  </g>
</svg>
