<svg xmlns="http://www.w3.org/2000/svg" width="646.045" height="30" viewBox="0 0 646.045 30">
  <g id="注釈" transform="translate(-471.955 -1344)">
    <rect id="強調マーカー" width="156" height="30" transform="translate(962 1344)" fill="#ffd900"/>
    <path id="パス_685" data-name="パス 685" d="M-60-6.225l-5.31-5.325-.5.495L-60.48-5.7-65.805-.375l.5.5L-60-5.16-54.675.12l.48-.5L-59.52-5.7l5.325-5.355-.48-.495Zm.015-4.965a1.152,1.152,0,0,0-1.155,1.14,1.165,1.165,0,0,0,1.155,1.155,1.143,1.143,0,0,0,1.14-1.155A1.139,1.139,0,0,0-59.985-11.19ZM-64.29-6.855a1.143,1.143,0,0,0-1.155,1.14A1.165,1.165,0,0,0-64.29-4.56a1.143,1.143,0,0,0,1.14-1.155A1.139,1.139,0,0,0-64.29-6.855Zm8.58.015A1.139,1.139,0,0,0-56.85-5.7a1.139,1.139,0,0,0,1.14,1.14A1.139,1.139,0,0,0-54.57-5.7,1.139,1.139,0,0,0-55.71-6.84ZM-60-2.49l-.03.03c-.015,0-.015,0-.03-.015A.055.055,0,0,0-60.1-2.49a1.209,1.209,0,0,0-1.05,1.155A1.207,1.207,0,0,0-60-.18a1.162,1.162,0,0,0,1.14-1.155A1.143,1.143,0,0,0-60-2.49Zm10.1-2.34a11.919,11.919,0,0,1-1.725-.09v1.56c.5-.045.99-.075,1.725-.075h1.6a11.487,11.487,0,0,1-1.485,1.47c1.515.36,1.77.42,3.51.885a14.49,14.49,0,0,1-5.04.735h-.33a5.374,5.374,0,0,1,.675,1.53A14.649,14.649,0,0,0-44.205-.45,31.122,31.122,0,0,1-40.635.96c.2.09.5.225.87.39l1.05-1.38a38.4,38.4,0,0,0-4.11-1.455,7.33,7.33,0,0,0,1.365-1.95h1.35c.735,0,1.245.03,1.74.075V-4.92a9.951,9.951,0,0,1-1.74.09H-45.4c.18-.3.225-.39.54-.945h3.795a14.8,14.8,0,0,1,1.695.06c-.03-.375-.045-.72-.045-1.47V-8.2a13.328,13.328,0,0,1,.06-1.53,12.373,12.373,0,0,1-1.68.075h-1.74v-.945H-40.1c.72,0,1.26.03,1.74.075v-1.59a13.559,13.559,0,0,1-1.86.09h-9.54a14.07,14.07,0,0,1-1.845-.09v1.59c.465-.045,1.02-.075,1.725-.075h2.49v.945H-49.02a13.1,13.1,0,0,1-1.665-.075,14.188,14.188,0,0,1,.06,1.53V-7.17a12.7,12.7,0,0,1-.06,1.455c.465-.045.96-.06,1.74-.06h2.28a8.235,8.235,0,0,1-.555.945Zm6.66,1.395A4.462,4.462,0,0,1-44.55-2c-.525-.15-.735-.21-.9-.24-1.17-.27-1.17-.27-1.695-.42a9.485,9.485,0,0,0,.72-.78Zm-2.655-7.17h1.635v.945H-45.9Zm-1.485,2.16V-7.02h-1.65V-8.445Zm1.485,0h1.635V-7.02H-45.9Zm3.12,0h1.755V-7.02H-42.78ZM-30.93-4.41h-4.335a10.29,10.29,0,0,1-1.62-.075V-3.06a10.743,10.743,0,0,1,1.65-.075h4.305v.645h-3.585a10.894,10.894,0,0,1-1.425-.06v1.395a10.224,10.224,0,0,1,1.485-.075h3.525v.72c0,.27-.12.345-.585.345A17.011,17.011,0,0,1-33.42-.3a4.269,4.269,0,0,1,.465,1.485c.48.03,1.08.06,1.44.06,1.83,0,2.2-.285,2.2-1.635v-.84h3.315v.585h1.68a11.278,11.278,0,0,1-.075-1.62v-.87a8.912,8.912,0,0,1,1.305.075V-4.485a8.475,8.475,0,0,1-1.305.075v-.525A10.151,10.151,0,0,1-24.345-6.3c-.42.03-.72.045-1.6.045h-3.36v-.57h3.45c.48,0,.87.015,1.2.045A9.478,9.478,0,0,1-24.7-7.785v-.99a10.211,10.211,0,0,1,.045-1.05c-.36.03-.69.045-1.26.045h-3.39v-.57h4.3a14.465,14.465,0,0,1,1.755.09v-1.485a14.07,14.07,0,0,1-1.845.09H-29.31a4.238,4.238,0,0,1,.1-1.02H-31.02a5.543,5.543,0,0,1,.09,1.02h-4.02a13.914,13.914,0,0,1-1.845-.09v1.485a14.465,14.465,0,0,1,1.755-.09h4.11v.57H-34.1c-.57,0-.885-.015-1.275-.045.03.36.045.63.045,1.05v.99c0,.375-.015.69-.045,1.005.345-.03.72-.045,1.26-.045h3.18v.57h-3.525a11.227,11.227,0,0,1-1.41-.06V-5.01a12.459,12.459,0,0,1,1.38-.06h3.555Zm1.62,0v-.66h3.315v.66Zm0,1.275h3.315v.645H-29.31ZM-30.93-8.61v.615h-2.805V-8.61Zm1.62,0H-26.3v.615H-29.31Zm9.225-2.085a10.087,10.087,0,0,1-1.605-.09v1.62a9.546,9.546,0,0,1,1.605-.09H-9.9a9.133,9.133,0,0,1,1.605.09v-1.62a10.89,10.89,0,0,1-1.605.09h-2.31a14.989,14.989,0,0,0,1.2-1.635L-12.7-12.8a7.867,7.867,0,0,1-1.32,2.1H-16.05a12.686,12.686,0,0,0-1.4-2.115l-1.62.465a9.383,9.383,0,0,1,1.215,1.65Zm.78,8.715h2.46V-.7c0,.27-.075.33-.435.33a8.891,8.891,0,0,1-1.05-.09A5.862,5.862,0,0,1-17.97,1c.54.015.72.015.945.015C-15.63,1.02-15.3.735-15.3-.42V-6.87c0-.795.015-1.14.045-1.5a8.7,8.7,0,0,1-1.335.06H-19.5a12.862,12.862,0,0,1-1.41-.06c.03.375.045.615.045,1.35V-.555a13.291,13.291,0,0,1-.075,1.71h1.725a9.032,9.032,0,0,1-.09-1.6Zm0-1.41V-4.44h2.46v1.05Zm0-2.46V-6.9h2.46v1.05ZM-13.95-8.1a9.016,9.016,0,0,1,.075,1.41v3.24a13.161,13.161,0,0,1-.06,1.605h1.7a12.82,12.82,0,0,1-.06-1.62v-3.21A8.542,8.542,0,0,1-12.225-8.1Zm3.165-.4A9.66,9.66,0,0,1-10.71-6.96V-.87c0,.42-.075.48-.69.48a12.8,12.8,0,0,1-1.83-.165,5.325,5.325,0,0,1,.465,1.59c.945.045,1.26.06,1.62.06.96,0,1.365-.105,1.68-.405A1.75,1.75,0,0,0-9.12-.6V-6.915A8.845,8.845,0,0,1-9.03-8.5ZM.84-8.79H3.36a15.259,15.259,0,0,1,1.92.075V-10.59a10.842,10.842,0,0,1-1.95.1H-3.345a10.842,10.842,0,0,1-1.95-.1v1.875a15.407,15.407,0,0,1,1.92-.075h2.3v6.165H-4.47A10.744,10.744,0,0,1-6.42-2.73V-.84A15.407,15.407,0,0,1-4.5-.915h9A15.407,15.407,0,0,1,6.42-.84V-2.73a10.744,10.744,0,0,1-1.95.105H.84Zm8.49-.84a15.749,15.749,0,0,1,3.825,3.045l1.29-1.635a21.244,21.244,0,0,0-3.87-2.9ZM9.855.27a5.31,5.31,0,0,1,.99-.255,16.2,16.2,0,0,0,5.715-2.25,13.165,13.165,0,0,0,4.755-5.88,6.468,6.468,0,0,1-1.59-1.47,12.525,12.525,0,0,1-1.53,3A10.022,10.022,0,0,1,13.74-2.91,14.293,14.293,0,0,1,9.3-1.8ZM28.53.675A16.49,16.49,0,0,1,28.47-.99V-4.95a7.755,7.755,0,0,0-.06-1.02,4.846,4.846,0,0,0,.51.255A35.489,35.489,0,0,1,34.23-2.85l1.05-1.77a44.069,44.069,0,0,0-6.81-3.165v-2.79a10.055,10.055,0,0,1,.06-1.575H26.475a9.642,9.642,0,0,1,.09,1.53V-1a10.105,10.105,0,0,1-.09,1.68Zm12.03-12.51a9.471,9.471,0,0,1,.06,1.35V-6.36a10.817,10.817,0,0,1-.075,1.35H42.6a7.241,7.241,0,0,1-.06-1.32v-4.14a7.625,7.625,0,0,1,.06-1.35Zm6.765.03A7.9,7.9,0,0,1,47.4-10.38V-8.5c0,1.2-.015,1.86-.075,2.5-.165,1.98-.66,2.895-2.07,3.825a8.091,8.091,0,0,1-3.24,1.2A5.124,5.124,0,0,1,43.065.81,12.688,12.688,0,0,0,45.99-.345a5.745,5.745,0,0,0,2.955-3.5,17.717,17.717,0,0,0,.39-4.545V-10.41a7.115,7.115,0,0,1,.075-1.4Zm6.24,7.1a16.467,16.467,0,0,1,2.445-.075h7.965a16.467,16.467,0,0,1,2.445.075V-6.8a14.731,14.731,0,0,1-2.43.105H55.995a14.731,14.731,0,0,1-2.43-.105Z" transform="translate(1040 1365)" fill="#17184d"/>
    <path id="パス_684" data-name="パス 684" d="M-225.345-3.48V-.675c0,.27-.105.33-.57.33a6.927,6.927,0,0,1-1.32-.15,6.441,6.441,0,0,1,.39,1.65c.735.045.765.045.945.045a3.994,3.994,0,0,0,1.485-.21c.42-.18.63-.645.63-1.38v-9.945a14.217,14.217,0,0,1,.06-1.65,14.454,14.454,0,0,1-1.62.06h-2.175a16.3,16.3,0,0,1-1.665-.06,15.362,15.362,0,0,1,.075,1.95,53.814,53.814,0,0,1-.3,7.365A5.083,5.083,0,0,1-230.7.12a9.723,9.723,0,0,1,1.275,1.215,7.9,7.9,0,0,0,1.65-4.815Zm0-3.54V-4.9h-2.325c.045-.675.06-1.23.075-2.115Zm0-1.44h-2.235v-1.98h2.235Zm-10.4-2.46a4.863,4.863,0,0,1-1.14-.075V-9.48a6.441,6.441,0,0,1,1.14-.06v5.79h-.2a6.709,6.709,0,0,1-1.11-.06V-2.3a6.874,6.874,0,0,1,1.155-.06h4.92a12.212,12.212,0,0,1,1.26.045v-1.5a5.842,5.842,0,0,1-.9.06V-9.54a5.415,5.415,0,0,1,1.02.06v-1.515a6.754,6.754,0,0,1-1.02.075v-.255a7.432,7.432,0,0,1,.075-1.275h-1.635a7.12,7.12,0,0,1,.075,1.275v.255h-2.16v-.255a7.648,7.648,0,0,1,.075-1.275h-1.635a7.648,7.648,0,0,1,.075,1.275Zm1.485,7.17V-4.89h2.16v1.14Zm0-2.46V-7.23h2.16v1.02Zm0-2.34v-.99h2.16v.99Zm-.6,6.33a6.887,6.887,0,0,1-2.19,2.325A5.611,5.611,0,0,1-235.89,1.29a9.536,9.536,0,0,0,2.31-2.73Zm1.935.81A8.5,8.5,0,0,0-231.465.525a5.646,5.646,0,0,1,1.125-1.11,5.669,5.669,0,0,1-1.395-1.605Zm20.79-3.48c0-.585.015-.96.045-1.35a12.063,12.063,0,0,1-1.4.06h-3.345a12.23,12.23,0,0,1-1.395-.06c.03.405.045.825.045,1.35v3.66a10.341,10.341,0,0,1-.1,1.5h1.59V-.57h3.18c.12,0,.4,0,.84.015A5.7,5.7,0,0,1-212.28.99c.765.045.825.045,1.035.045a4.569,4.569,0,0,0,1.7-.18c.54-.225.72-.615.72-1.515v-9.825c0-.75.015-1.125.06-1.665a13.456,13.456,0,0,1-1.545.06h-2.88a12.835,12.835,0,0,1-1.53-.06c.03.465.045.885.045,1.395v2.3c0,.645-.015.93-.045,1.365.375-.03.855-.045,1.38-.045h2.955V-.87c0,.3-.135.405-.555.405-.27,0-.81-.045-1.14-.075-.03-.39-.045-.735-.045-1.305Zm-1.065-5.985h2.805v.75H-213.2Zm0,1.815h2.805V-8.3H-213.2Zm-3.495,4.14h3.06v.9h-3.06Zm0,2.115h3.06v.975h-3.06Zm-3.135-4.335h2.715c.525,0,.99.015,1.38.045-.03-.33-.045-.675-.045-1.365v-2.3c0-.585.015-.915.045-1.395a12.674,12.674,0,0,1-1.53.06h-2.655a13.624,13.624,0,0,1-1.545-.06,16.63,16.63,0,0,1,.06,1.68v9.8a13.41,13.41,0,0,1-.09,1.86h1.755a13.011,13.011,0,0,1-.09-1.845Zm0-3.735h2.58v.75h-2.58Zm0,1.815h2.58V-8.3h-2.58Zm18.765-1.02h-3.945a11.558,11.558,0,0,1-1.35-.06,11.743,11.743,0,0,1,.06,1.305v4.59a11.242,11.242,0,0,1-.075,1.5h1.77v-.9h3.54V-.6a12.576,12.576,0,0,1-.105,1.86h1.92a11.8,11.8,0,0,1-.1-1.86V-3.645h3.72v.9h1.77a10.322,10.322,0,0,1-.075-1.5V-8.82a11.01,11.01,0,0,1,.06-1.32,10.727,10.727,0,0,1-1.365.06h-4.11v-.975a11,11,0,0,1,.09-1.575h-1.89a9.725,9.725,0,0,1,.09,1.635Zm0,1.59v3.255h-3.54V-8.49Zm1.71,3.255V-8.49h3.72v3.255Zm15.4-4.38a3.278,3.278,0,0,1,1.515.45,3.716,3.716,0,0,1,1.845,3.33,4.2,4.2,0,0,1-2.085,3.75,7.972,7.972,0,0,1-2.985.825A4.785,4.785,0,0,1-184.74.5a9.807,9.807,0,0,0,2.355-.63,5.779,5.779,0,0,0,3.645-5.6c0-3.375-2.34-5.565-5.94-5.565a6.733,6.733,0,0,0-5.16,2.1,6.443,6.443,0,0,0-1.65,4.365c0,2.415,1.23,4.155,2.94,4.155,1.23,0,2.19-.885,3.045-2.82A21.7,21.7,0,0,0-183.945-9.615Zm-1.83.015a19.769,19.769,0,0,1-1.245,5.07c-.54,1.29-1.05,1.92-1.545,1.92-.66,0-1.185-.975-1.185-2.205a5.022,5.022,0,0,1,2.04-4.05A3.818,3.818,0,0,1-185.775-9.6Zm11.145.09c.1,0,.18.015.21.015.06,0,.165.015.345.03a23.652,23.652,0,0,0,2.745.18,15.99,15.99,0,0,0,2.25-.12,2.714,2.714,0,0,1-.33.18c-.2.12-.24.15-.39.24-.375.21-.54.315-1.485.915l1.3,1.035a27.164,27.164,0,0,1,4.005-2.475l-.06-1.695a18.6,18.6,0,0,1-3.96.285,19.673,19.673,0,0,1-4.5-.375Zm1.11,3.39c-1.35,1.125-1.935,2.115-1.935,3.27a2.59,2.59,0,0,0,1.92,2.5,10.73,10.73,0,0,0,3.75.495,24.205,24.205,0,0,0,4.05-.345,6.3,6.3,0,0,1,.66-.06l-.165-2.055a15.448,15.448,0,0,1-4.71.645c-2.535,0-3.63-.42-3.63-1.395,0-.645.42-1.275,1.365-2.07Zm10.3-.615a8.674,8.674,0,0,0-1.56-2.115l-1,.525a11.053,11.053,0,0,1,1.53,2.175Zm-4.41-.7A10.125,10.125,0,0,1-166.05-5.2L-165-5.76a9.721,9.721,0,0,0-1.575-2.2Zm11.655,2.19a1.023,1.023,0,0,1,.03.285,5.113,5.113,0,0,1-.12.855h-3.675a15.3,15.3,0,0,1-1.95-.09v1.59c.465-.045,1.05-.075,1.95-.075h3.09a4.09,4.09,0,0,1-1.41,1.26,9.781,9.781,0,0,1-3.93,1.02,5.994,5.994,0,0,1,.765,1.56A11.166,11.166,0,0,0-157.5.06a5.9,5.9,0,0,0,2.4-2.22A6.542,6.542,0,0,0-152.415.12a10.957,10.957,0,0,0,3.585,1.05,5.833,5.833,0,0,1,.75-1.605,13.709,13.709,0,0,1-3.4-.765,4.392,4.392,0,0,1-2.22-1.485h3.39c.84,0,1.41.03,1.875.075V-4.2a14.289,14.289,0,0,1-1.92.09h-4.05c.045-.2.06-.27.1-.465a5.118,5.118,0,0,1,.135-.645h-.42a5.852,5.852,0,0,0,1.77-1.92,7.325,7.325,0,0,0,.885-3.4h1.755a19.99,19.99,0,0,1-.195,2.76c-.15.885-.285,1.065-.78,1.065a10,10,0,0,1-1.62-.195,3.737,3.737,0,0,1,.4,1.605c.57.045.945.06,1.425.06,1.275,0,1.725-.345,1.965-1.485a32.165,32.165,0,0,0,.39-4.41c.015-.4.03-.585.06-.885a12.784,12.784,0,0,1-1.485.06h-3.165a13.861,13.861,0,0,1-1.74-.09v1.575a8.584,8.584,0,0,1,1.185-.06h.255c-.06,2.04-.705,3.285-2.055,4.005v-.465c-.885.165-1.2.21-1.815.285l-.03-.99h.75a10.243,10.243,0,0,1,1.08.045V-9.06a9.067,9.067,0,0,1-1.05.045h-.81l-.03-.9h1.1a8.727,8.727,0,0,1,1.14.06V-11.34a9.433,9.433,0,0,1-1.155.06h-1.125v-.33a1.426,1.426,0,0,1-.015-.21,3.4,3.4,0,0,1,.06-.72l-1.7.03c.045.285.075.66.09.93v.3h-1.29a9.406,9.406,0,0,1-1.2-.06v1.485a9.558,9.558,0,0,1,1.2-.06H-159l.03.9h-.975a8.452,8.452,0,0,1-1.245-.06V-7.65a8.546,8.546,0,0,1,1.2-.06h1.05l.03,1.125c-1.125.105-2.025.165-2.4.165-.12,0-.27-.015-.45-.03l.2,1.545c2.115-.18,4.26-.465,6.03-.8v-.465a6.177,6.177,0,0,1,.765.93Zm9.24.54a8.937,8.937,0,0,1,.975-.09c.3-.03.765-.06,1.41-.105v4.59a11.029,11.029,0,0,1-.09,1.605h1.65a11.031,11.031,0,0,1-.09-1.605V-5.04c.27-.015.615-.06,1.065-.105.06.24.09.36.165.7l1.26-.525A22.532,22.532,0,0,0-141.57-7.89l-1.125.45a8.2,8.2,0,0,1,.435,1.02c-.765.09-.825.09-1.71.135a39.182,39.182,0,0,0,2.535-3.375,6.215,6.215,0,0,1,.5-.69l-1.38-.795a17.111,17.111,0,0,1-1.62,2.625c-.21-.27-.375-.45-.63-.75a20.175,20.175,0,0,0,1.4-2.3c.165-.3.225-.4.315-.54l-1.425-.585a10.974,10.974,0,0,1-1.245,2.43c-.15-.18-.24-.27-.45-.525l-.855,1.245a13.921,13.921,0,0,1,2.055,2.22c-.3.39-.36.465-.87,1.1-.345.015-.495.015-.6.015a3.943,3.943,0,0,1-.645-.045Zm11.61-4.14a41.571,41.571,0,0,1-.48,7.23c-.18.93-.345,1.11-1.02,1.11A11.661,11.661,0,0,1-138.585-.7a6.136,6.136,0,0,1,.42,1.68c.54.045,1.005.06,1.4.06a3.208,3.208,0,0,0,1.92-.39c.495-.39.765-1.215,1.005-2.94.165-1.23.33-3.84.345-5.55a19.117,19.117,0,0,1,.075-2.61,8.22,8.22,0,0,1-1.23.06h-3.27c.18-.465.24-.645.435-1.26a5.139,5.139,0,0,1,.2-.615l-1.68-.3a9.662,9.662,0,0,1-.54,1.89,9.71,9.71,0,0,1-1.77,2.985,4.374,4.374,0,0,1,1.2,1.215,10.458,10.458,0,0,0,1.5-2.37ZM-146.265-4.2a14.09,14.09,0,0,1-.705,4.035l1.335.615a16.672,16.672,0,0,0,.735-4.44Zm3.96.21a35.178,35.178,0,0,1,.57,3.855l1.365-.33a37.058,37.058,0,0,0-.72-3.825Zm5.85.645A17.185,17.185,0,0,0-138.3-7.11l-1.305.72a16.5,16.5,0,0,1,1.71,3.81Zm8.385-8.97v.285A23.082,23.082,0,0,1-128.46-9c-.825.12-2.64.3-3.195.3l.18,1.77a26.892,26.892,0,0,1,2.685-.48,25.445,25.445,0,0,1-1.455,4.245,16.388,16.388,0,0,1-1.56,2.82l1.74.96c.075-.15.075-.165.12-.255l.225-.45a32.171,32.171,0,0,0,1.8-4.215,31.73,31.73,0,0,0,.915-3.255c.345-.03.57-.045.87-.045,1.185,0,1.53.405,1.53,1.785A13.328,13.328,0,0,1-125-2.4c-.225.735-.465,1.02-.9,1.02a6.205,6.205,0,0,1-2.19-.585,5.634,5.634,0,0,1,.15,1.275c0,.15-.015.36-.03.66a7.277,7.277,0,0,0,2.31.435A1.9,1.9,0,0,0-123.99-.27c.72-.825,1.155-2.88,1.155-5.46a3.638,3.638,0,0,0-.705-2.655,2.906,2.906,0,0,0-2.22-.8c-.285,0-.5.015-.93.045.045-.195.045-.225.1-.555.21-1.125.21-1.125.255-1.44.045-.24.06-.315.09-.51a3.489,3.489,0,0,1,.12-.465Zm5.37,2.88a9.708,9.708,0,0,1,1.725,2.565,13.483,13.483,0,0,1,1.2,3.4l1.71-.87a14.56,14.56,0,0,0-3.09-5.85Zm6.525,2.385a5.472,5.472,0,0,1,1.2-.42,21.374,21.374,0,0,1,5.91-1.065,3.909,3.909,0,0,1,1.935.4,2.2,2.2,0,0,1,1.14,1.95,3.307,3.307,0,0,1-.165,1.065,4.155,4.155,0,0,1-2.265,2.22,12.879,12.879,0,0,1-4.935.885,6.5,6.5,0,0,1,.765,1.935,14.091,14.091,0,0,0,5.28-1.245,5.323,5.323,0,0,0,3.33-4.8c0-2.55-1.935-4.215-4.9-4.215a23.677,23.677,0,0,0-5.97.855,10.723,10.723,0,0,1-1.755.3ZM-101.7-2.175A4.248,4.248,0,0,0-100.47-.51a4.333,4.333,0,0,0,2.9.87A4.155,4.155,0,0,0-94.38-.78c.99-.96,1.59-2.94,1.59-5.2a9.61,9.61,0,0,0-.435-3.105,4.253,4.253,0,0,0-4.125-2.955,4.9,4.9,0,0,0-2.625.66,3.955,3.955,0,0,0-1.9,3.525A3.746,3.746,0,0,0-97.8-3.915a4.078,4.078,0,0,0,2.43-.69,2.929,2.929,0,0,0,.795-.855c-.075,1.77-.42,2.85-1.17,3.57a2.267,2.267,0,0,1-1.695.615,2.26,2.26,0,0,1-1.725-.615,2.491,2.491,0,0,1-.465-.825Zm4.2-3.36a2.24,2.24,0,0,1-2.385-2.4A2.351,2.351,0,0,1-97.44-10.4,2.368,2.368,0,0,1-94.92-7.98,2.46,2.46,0,0,1-97.5-5.535Zm16.395,2.07v2.6c0,.33-.105.405-.555.405a15.167,15.167,0,0,1-2.205-.18,5.427,5.427,0,0,1,.435,1.68c.765.045,1.26.06,1.74.06A2.974,2.974,0,0,0-79.95.8c.375-.24.54-.675.54-1.425v-9.72a11.315,11.315,0,0,1,.075-1.695,13.52,13.52,0,0,1-1.74.075H-87.33a15.134,15.134,0,0,1-1.755-.075A21.137,21.137,0,0,1-89.01-9.78c0,3.9-.15,5.655-.6,7.05a5.679,5.679,0,0,1-1.6,2.64A5.8,5.8,0,0,1-89.82,1.29a8.411,8.411,0,0,0,1.77-2.97,11.118,11.118,0,0,0,.435-1.785Zm-6.33-1.53c.09-1.215.12-1.545.12-2.01h6.21v2.01Zm.135-3.54V-10.41h6.195v1.875Zm23.04-2.175a8.369,8.369,0,0,1-1.485,1.77,10.19,10.19,0,0,1-.93-.75,16.354,16.354,0,0,0,1.545-1.725l-1.245-.825a8.238,8.238,0,0,1-1.26,1.62,3.745,3.745,0,0,1-1.005-1.695,8.381,8.381,0,0,1-1.29.06h-2.82A6.751,6.751,0,0,1-74-12.33v1.515a6.678,6.678,0,0,1,.915-.06h1.98A7.835,7.835,0,0,1-72.525-9.36a18.552,18.552,0,0,0-2.1-1.83l-1.11.99a12.563,12.563,0,0,1,2.01,1.755,12.734,12.734,0,0,1-2.82,1.485,4.686,4.686,0,0,1,.81,1.425A16.3,16.3,0,0,0-72-7.86v.975a5.653,5.653,0,0,1,.945-.06h3.315a5.754,5.754,0,0,1,1,.06V-7.77a14.485,14.485,0,0,0,3.63,2.175,4.894,4.894,0,0,1,.78-1.5,15.665,15.665,0,0,1-2.28-1.065,16.253,16.253,0,0,0,1.32-1.395,2.059,2.059,0,0,1,.27-.315Zm-6.705,2.43h-.525a12.017,12.017,0,0,0,2.07-2.355A12.97,12.97,0,0,0-67.35-8.28h-3.615ZM-74.7-.6a9.419,9.419,0,0,1-1.455-.075V.945A11.114,11.114,0,0,1-74.6.87h10.38a10.985,10.985,0,0,1,1.56.075V-.675a9.635,9.635,0,0,1-1.47.075H-66.69c.1-.15.45-.8.69-1.245l-1.245-.45h1.455a9.857,9.857,0,0,1,1.08.045,7.348,7.348,0,0,1-.06-1.1v-1.9a6.574,6.574,0,0,1,.06-1.005,8.486,8.486,0,0,1-1.17.06h-7.08a9.309,9.309,0,0,1-1.185-.06,7.319,7.319,0,0,1,.06,1.02v1.89a8.613,8.613,0,0,1-.06,1.1,9.67,9.67,0,0,1,1.08-.045h1.6l-1.32.48A5.775,5.775,0,0,1-72.165-.6Zm4.155,0a12.143,12.143,0,0,0-.75-1.7h3.75A8.952,8.952,0,0,1-68.31-.6Zm-2-4.26h6.18v1.215h-6.18Zm16.32,2.9a13.632,13.632,0,0,0,.72-2.4l-1.14-.375a11.422,11.422,0,0,1-.6,2.445Zm.855-3.48a10.1,10.1,0,0,1,1.32,2.385l1.155-.765A9.767,9.767,0,0,0-54.2-6.06ZM-58.86-7.59v1h-.765A12.744,12.744,0,0,1-61.11-6.66v1.53A12.27,12.27,0,0,1-59.64-5.2h.78V-1A11.1,11.1,0,0,1-61.2-.69l.225,1.65A9.053,9.053,0,0,1-59.79.69,33.608,33.608,0,0,0-55.77-.375v-.6L-55.29.09c.255-.18.255-.18.495-.345,1.02-.705,1.02-.705,1.275-.885a12.776,12.776,0,0,0,1.065-.84V-.555c0,.33-.1.39-.66.39a5.885,5.885,0,0,1-1.17-.15A4.336,4.336,0,0,1-53.94,1.2c.585.045.99.06,1.32.06,1.215,0,1.65-.36,1.65-1.365v-1.92q-.045-1.215-.09-1.665a8.382,8.382,0,0,0,1.14,2.325A9.152,9.152,0,0,0-48.09.57a6.329,6.329,0,0,1,.9-1.47A7.284,7.284,0,0,1-49.5-3.06a16.765,16.765,0,0,0,2-2.13l-1.23-.87a7.244,7.244,0,0,1-1.455,1.8,7.074,7.074,0,0,1-.72-2.22h2.01a12.783,12.783,0,0,1,1.425.075V-7.89a9.278,9.278,0,0,1-1.44.09h-.09c.06-.78.135-2.1.18-2.88a12.7,12.7,0,0,1,.09-1.455,11.147,11.147,0,0,1-1.38.06H-53.64a10.2,10.2,0,0,1-1.5-.075v1.44a11.812,11.812,0,0,1,1.425-.06h3.36c-.015.4-.015.45-.045.825h-3.03A7.745,7.745,0,0,1-54.8-10.02V-8.6a10.43,10.43,0,0,1,1.365-.06h2.97c-.015.255-.03.405-.06.855h-3.8a9.69,9.69,0,0,1-1.44-.09v1.245a6.916,6.916,0,0,1-1.065.06h-.6v-1h.435a5.267,5.267,0,0,1,.885.045V-8.67l.12.105A5.412,5.412,0,0,1-55.065-9.9a5.99,5.99,0,0,1-2.19-2.52h-1.65A6.929,6.929,0,0,1-61.5-9.18a4.494,4.494,0,0,1,.69,1.425c.315-.255.4-.33.69-.585v.8a8.742,8.742,0,0,1,.885-.045Zm6.4,1.11v2.85a16.039,16.039,0,0,1-3.33,2.175V-1.77c-.8.24-1.065.33-1.635.465V-5.2h.6a6.156,6.156,0,0,1,1.17.075V-6.42a10.654,10.654,0,0,1,1.335-.06Zm-7.05-2.46a8.939,8.939,0,0,0,1.5-2.13,8.878,8.878,0,0,0,1.59,2.115c-.195.015-.285.015-.555.015h-2.535Zm.3,7.185a16.147,16.147,0,0,0-.66-2.91l-1.17.36a15.1,15.1,0,0,1,.63,2.925Zm18.8-9.42h-3.87a16.215,16.215,0,0,1-1.635-.06,8.157,8.157,0,0,1,.06,1.14V-8.88a8.343,8.343,0,0,1-.075,1.17H-44.3V-9.7h9.765V-7.71h1.62a8.39,8.39,0,0,1-.06-1.155v-1.23a7.756,7.756,0,0,1,.06-1.14c-.51.045-.9.06-1.665.06H-38.73v-.36a5.591,5.591,0,0,1,.075-1.1H-40.5a5.757,5.757,0,0,1,.09,1.1Zm-1.8,6.72c-.045.42-.06.57-.1.81a3.416,3.416,0,0,1-1.77,2.5,10.052,10.052,0,0,1-2.28.87,7.352,7.352,0,0,1,.915,1.545c2.415-.93,3.375-1.59,4.11-2.88a5.924,5.924,0,0,0,.765-2.85h1.65V-.39C-38.925.69-38.49.9-36.24.9c1.92,0,2.55-.09,2.97-.45.45-.375.63-1.035.69-2.535a5.191,5.191,0,0,1-1.545-.465V-2.3A4.945,4.945,0,0,1-34.26-1.02c-.1.315-.45.405-1.56.405-1.245,0-1.44-.06-1.44-.42v-3.42h2.76a11.231,11.231,0,0,1,1.59.09V-6a8.845,8.845,0,0,1-1.59.09h-9.825A8.833,8.833,0,0,1-45.93-6v1.635a10.89,10.89,0,0,1,1.6-.09ZM-43.785-7.02a9.11,9.11,0,0,1,1.425-.075h5.88a9.442,9.442,0,0,1,1.44.075V-8.625a9.323,9.323,0,0,1-1.44.075h-5.88a8.994,8.994,0,0,1-1.425-.075Zm22.83-3.315a13,13,0,0,1-3.03,2.2H-25.32a13.633,13.633,0,0,1,.075,1.5v5.61c0,.285-.15.36-.675.36a13.766,13.766,0,0,1-2.355-.225A7.275,7.275,0,0,1-27.84.885c1.35.075,1.545.09,2.115.09,1.665,0,2.22-.375,2.22-1.47v-6.09a22.572,22.572,0,0,0,4.77-3.69c.27-.24.315-.285.6-.57L-19.155-12a13.058,13.058,0,0,1-1.635.075h-7.665a18.785,18.785,0,0,1-2.04-.09v1.785a16.9,16.9,0,0,1,2.055-.105ZM-15.72-8.5a18.826,18.826,0,0,1,2.49-.3c2.91-.21,3.84-.3,5.055-.48A6.633,6.633,0,0,0-10.26-7.77a5.223,5.223,0,0,0-1.425,3.525A4.013,4.013,0,0,0-9.54-.63,9.024,9.024,0,0,0-6.03.36c.285.045.315.045.51.09l.27-2.04c-.15.015-.285.015-.3.015a9.1,9.1,0,0,1-2.235-.39,2.519,2.519,0,0,1-2-2.445c0-1.515,1.125-3.015,3.03-4.005a6.708,6.708,0,0,1,2.97-.81,2.323,2.323,0,0,1,.315.015l-.105-1.9a8.082,8.082,0,0,1-1.545.12c-4,.195-6.57.33-7.665.39-2.205.15-2.205.15-2.475.15-.075,0-.24,0-.57-.015Zm9.18,1.44A10.124,10.124,0,0,1-4.965-4.83l1.05-.555A9.721,9.721,0,0,0-5.49-7.59Zm4.41.7A8.675,8.675,0,0,0-3.69-8.475L-4.7-7.95a11.052,11.052,0,0,1,1.53,2.175Zm.27,4.11A16.144,16.144,0,0,1,1.395,1.17L2.79-.135a17.533,17.533,0,0,0-3.375-3.3ZM20.895-4.575A10.418,10.418,0,0,0,22.02-2.19,8.535,8.535,0,0,0,26.1,1.035a5.064,5.064,0,0,1,.87-1.41A8.535,8.535,0,0,1,24.1-1.92a9.43,9.43,0,0,0,1.635-1.5l-1.365-.84a5.444,5.444,0,0,1-1.23,1.29,5.294,5.294,0,0,1-.84-1.605H23.4A9.091,9.091,0,0,1,24.4-4.53V-5.58a6.367,6.367,0,0,1-.99.06H16.77A6.437,6.437,0,0,1,15.7-5.58v1.05a10.125,10.125,0,0,1,1.065-.045h1.425A15.435,15.435,0,0,1,13.89-3.6a3.046,3.046,0,0,1,.585,1.035,16.1,16.1,0,0,0,4.2-1.23A3.17,3.17,0,0,1,19-3.4,12.847,12.847,0,0,1,16.365-2.4a21,21,0,0,1-2.805.585,3.47,3.47,0,0,1,.615,1.05A21.552,21.552,0,0,0,19.5-2.595c.075.18.1.255.18.465A19.673,19.673,0,0,1,13.395-.015a3.934,3.934,0,0,1,.75,1.14c.36-.1.435-.135.735-.225A11.1,11.1,0,0,0,15.96.57C16.53.375,17.025.2,17.55,0a3.356,3.356,0,0,1,.375,1.17c.48.03.93.045,1.23.045,1.62,0,2.22-.54,2.22-2A5.229,5.229,0,0,0,19.83-4.35a3.857,3.857,0,0,0,.435-.225ZM17.625-.03A12.264,12.264,0,0,0,19.89-1.14a.621.621,0,0,1,.015.15c0,.885-.165,1.08-.885,1.08A11.145,11.145,0,0,1,17.625-.03ZM15.09-11.85a9.479,9.479,0,0,1-1.68-.09v1.44a11.024,11.024,0,0,1,1.62-.075H25.11a10.865,10.865,0,0,1,1.65.075v-1.44a8.813,8.813,0,0,1-1.635.09h-4.35a4.769,4.769,0,0,1,.045-.7,1.121,1.121,0,0,0,.03-.165H19.02a3.5,3.5,0,0,1,.09.87Zm8.355,4.215c.555,0,.765,0,1.335.045a7.043,7.043,0,0,1-.03-.8V-9.36a6.159,6.159,0,0,1,.045-.795c-.48.03-.78.045-1.365.045H16.695c-.57,0-.84-.015-1.38-.045a4.952,4.952,0,0,1,.045.765v1.02a6.248,6.248,0,0,1-.045.78c.57-.045.81-.045,1.35-.045ZM16.9-9.195H23.19v.645H16.9ZM15.06-4.56V-6H25.125v1.455h1.62a4.909,4.909,0,0,1-.06-.885v-.915a5.73,5.73,0,0,1,.045-.87c-.465.045-.93.06-1.635.06H15.12a15.429,15.429,0,0,1-1.65-.06,6.4,6.4,0,0,1,.045.885v.855a5.274,5.274,0,0,1-.06.915Zm23.16-6.975v-.225a3.754,3.754,0,0,1,.075-.825H36.54a3.927,3.927,0,0,1,.075.825v.225h-3.15v-.225a3.839,3.839,0,0,1,.075-.825H31.785a3.754,3.754,0,0,1,.075.825v.225H30.18a13.469,13.469,0,0,1-1.755-.09v1.56c.465-.045,1.035-.075,1.755-.075h1.68v1.005H30.405A9.467,9.467,0,0,1,28.98-9.21v1.395a13.89,13.89,0,0,1,1.425-.06h.285V-6.84h-.915a12.238,12.238,0,0,1-1.6-.09v1.515a12.4,12.4,0,0,1,1.6-.09h.915V-4.35h-.285a9.11,9.11,0,0,1-1.425-.075v1.41a9.589,9.589,0,0,1,1.425-.075h3.81v.99H30.24a12.3,12.3,0,0,1-1.74-.09v1.5a14.819,14.819,0,0,1,1.725-.09h3.99v.57a9.064,9.064,0,0,1-.1,1.53h1.8a8.647,8.647,0,0,1-.1-1.515V-.78H40.1a14.281,14.281,0,0,1,1.725.09v-1.5a13.845,13.845,0,0,1-1.71.09h-4.3v-.99H39.84a10.719,10.719,0,0,1,1.44.075v-1.41a9.808,9.808,0,0,1-1.44.075h-.3V-5.505h.93a12.079,12.079,0,0,1,1.6.09V-6.93a11.319,11.319,0,0,1-1.6.09h-.93V-7.875h.3a14.2,14.2,0,0,1,1.44.06V-9.21a9.684,9.684,0,0,1-1.44.075H38.22V-10.14h1.905c.72,0,1.29.03,1.755.075v-1.56a13.1,13.1,0,0,1-1.77.09ZM33.465-10.14h3.15v1.005h-3.15ZM32.25-7.875h1.965V-6.84H32.25Zm3.555,0H38V-6.84h-2.19ZM32.25-5.505h1.965V-4.35H32.25Zm3.555,0H38V-4.35h-2.19ZM49.2-11.055H47.685a9.061,9.061,0,0,0-1.005-1.44L45.21-12a5.158,5.158,0,0,1,.81.945h-.915a14.189,14.189,0,0,1-1.53-.06,11.54,11.54,0,0,1,.06,1.275v.825a8.066,8.066,0,0,1-.06,1.02H45.12v-1.83h9.945v1.83H56.61a6.673,6.673,0,0,1-.06-.975v-.78a12.523,12.523,0,0,1,.06-1.365,12.053,12.053,0,0,1-1.455.06H54.12a10.551,10.551,0,0,0,.735-.975l-1.485-.555a7.539,7.539,0,0,1-.96,1.53H50.82v-.54A5.734,5.734,0,0,1,50.9-12.66h-1.77A5.832,5.832,0,0,1,49.2-11.6ZM47.1-.825a13.424,13.424,0,0,1-4.035.7A5.2,5.2,0,0,1,43.95,1.3,14.8,14.8,0,0,0,48.8-.075l-.87-.75h4.08l-.78.75a11.684,11.684,0,0,0,2.385.99,13.15,13.15,0,0,0,2.6.54A6.683,6.683,0,0,1,56.97.09a11.89,11.89,0,0,1-4.035-.915h.825c.57,0,1.005.015,1.47.045a11.279,11.279,0,0,1-.06-1.545v-2.37a13.635,13.635,0,0,1,.06-1.485c-.435.03-.81.045-1.665.045H46.59c-.93,0-1.215-.015-1.665-.045a13.993,13.993,0,0,1,.06,1.485v2.37a13.456,13.456,0,0,1-.06,1.545c.525-.03.945-.045,1.6-.045Zm-.555-4.32H53.61v.48H46.545Zm0,1.38H53.61v.495H46.545Zm0,1.395H53.61v.525H46.545ZM54.2-8.43a9.38,9.38,0,0,1,.045-.96c-.435.03-.87.045-1.455.045H47.4c-.6,0-.99-.015-1.455-.045a7.432,7.432,0,0,1,.045.945v.93a8.971,8.971,0,0,1-.045.96c.495-.045.87-.06,1.365-.06h5.55a11.433,11.433,0,0,1,1.365.045c-.015-.375-.03-.615-.03-.975Zm-1.5.1v.69h-5.22v-.69Zm7.965.24A12.459,12.459,0,0,1,60.6-6.7a13.753,13.753,0,0,1,1.56-.06H68.1a13.753,13.753,0,0,1,1.56.06,11.9,11.9,0,0,1-.06-1.4v-2.775a10.7,10.7,0,0,1,.06-1.32,11.805,11.805,0,0,1-1.71.075H62.3A12.35,12.35,0,0,1,60.6-12.2a11.447,11.447,0,0,1,.06,1.335Zm1.605-2.535H67.98v2.4H62.265ZM58.665-.39a11.278,11.278,0,0,1-.075,1.62h1.665V.45h2.61V.99h1.62a10.316,10.316,0,0,1-.06-1.35V-4.365a8.786,8.786,0,0,1,.045-1.3c-.36.03-.69.045-1.125.045H60.06a13.57,13.57,0,0,1-1.455-.06,14,14,0,0,1,.06,1.44ZM60.24-4.17h2.625V-1H60.24Zm6.4-1.455c-.45,0-.765-.015-1.11-.045.03.315.03.555.03,1.23V-.105c0,.615-.015.915-.045,1.335h1.605V.45h2.85v.78h1.68A10.546,10.546,0,0,1,71.58-.375v-3.87a12.922,12.922,0,0,1,.06-1.44,10.5,10.5,0,0,1-1.335.06Zm.48,1.455H69.99V-1H67.125Zm7.14-4.905a1.657,1.657,0,0,1,.24-.015c.135,0,.135,0,.42.015.33,0,1.65.03,1.89.03,0,0,.195-.015.255-.015a.734.734,0,0,0-.12.195A19.867,19.867,0,0,1,75.15-6.3,9.189,9.189,0,0,1,73.8-4.965l1.365,1.35A6.744,6.744,0,0,1,76.47-4.98a5.071,5.071,0,0,1,3.075-1.545.823.823,0,0,1,.915.81A7.338,7.338,0,0,0,77.235-3.6a2.39,2.39,0,0,0-.66,1.665A2.175,2.175,0,0,0,77.67,0a6.442,6.442,0,0,0,3.345.63,27.206,27.206,0,0,0,3.84-.27,4.42,4.42,0,0,1,.69-.06L85.4-1.635a13.032,13.032,0,0,1-4.41.63C79.17-1,78.45-1.32,78.45-2.1a1.579,1.579,0,0,1,.78-1.23,9.116,9.116,0,0,1,1.44-.78v.36a11.874,11.874,0,0,1-.09,1.74l1.74-.045a6.159,6.159,0,0,1-.045-.8c0-.105,0-.24.015-.5v-.6c0-.21,0-.21-.015-.6V-4.71q1.935-.675,2.25-.765a13.241,13.241,0,0,1,1.665-.4l-.7-1.725a4.687,4.687,0,0,1-1.11.45q-.562.18-2.3.81a1.973,1.973,0,0,0-2.145-1.59,3.626,3.626,0,0,0-2.115.675c-.195.15-.195.15-.3.225l-.015-.03a7.762,7.762,0,0,0,1.38-1.995c1.515-.045,3.42-.165,4.515-.3.765-.09.765-.09,1.185-.12l-.105-1.71a20.264,20.264,0,0,1-3.93.51c-.825.045-.825.045-.945.06.03-.06.06-.1.135-.27a11.462,11.462,0,0,1,.6-1.35l-1.965-.21a5.941,5.941,0,0,1-.6,1.86,18.126,18.126,0,0,1-3.48-.2ZM93.81-4.59a9.6,9.6,0,0,1,2.88-.495c1.605,0,2.655.84,2.655,2.13A1.541,1.541,0,0,1,97.83-1.29a1.037,1.037,0,0,1-.945-.51,2.89,2.89,0,0,1-.21-1.32,5.2,5.2,0,0,1,.03-.66,6.328,6.328,0,0,1-1.665.66A5.011,5.011,0,0,0,95.3-1.2,2.422,2.422,0,0,0,97.755.465a3.332,3.332,0,0,0,3.4-3.42c0-2.13-1.785-3.66-4.29-3.66a10.4,10.4,0,0,0-3.06.42v-1.95c.57-.06.87-.105,1.365-.2,1.035-.18,1.32-.225,1.59-.27l-.06-1.68a16.729,16.729,0,0,1-2.895.57v-.96a9.209,9.209,0,0,1,.09-1.635H92.025a10.278,10.278,0,0,1,.09,1.725v.99c-.165,0-.24,0-.6.015-.21.015-.375.015-.525.015A9.2,9.2,0,0,1,89.175-9.7l.015,1.68a2.812,2.812,0,0,1,.315-.015c.045,0,.18,0,.375.015s.6.015.825.015c.375,0,.585,0,.81-.015.495-.03.495-.03.615-.03l.015,2.31a8.025,8.025,0,0,0-2.19,1.275,3.2,3.2,0,0,0-1.29,2.22A2.2,2.2,0,0,0,89.49-.555,4.672,4.672,0,0,0,92.325.51a1.318,1.318,0,0,0,1.38-.87,4.466,4.466,0,0,0,.12-1.275ZM92.13-1.86c0,.5-.075.63-.33.63a1.8,1.8,0,0,1-.96-.33c-.345-.21-.495-.435-.495-.69,0-.54.66-1.2,1.785-1.8Zm9.69-6.33a12.722,12.722,0,0,0-2.97-3.075l-1.41.945a12.809,12.809,0,0,1,3,3.24Zm2.31-1.335a2.8,2.8,0,0,1,.45-.045,15.284,15.284,0,0,0,2.43-.3c.24-.045.24-.045.42-.075a2.2,2.2,0,0,0-.165.15c-.195.18-.195.18-.255.24A9.55,9.55,0,0,0,105.5-7.62a7.392,7.392,0,0,0-1.035,3.6A4.525,4.525,0,0,0,106.32-.2,4.845,4.845,0,0,0,108.9.51c2.835,0,4.875-2.3,4.875-5.5a9.548,9.548,0,0,0-.315-2.64c.45.72.69,1.11.75,1.2a11.05,11.05,0,0,0,1.65,1.89,4.314,4.314,0,0,1,.345.315l.93-1.77a9.7,9.7,0,0,1-2.715-2.835,11.048,11.048,0,0,1-1.29-2.715l-1.8.54a12.346,12.346,0,0,1,.81,4.56,7.976,7.976,0,0,1-.555,3.255,2.92,2.92,0,0,1-2.745,1.86,2.506,2.506,0,0,1-2.565-2.715,7.028,7.028,0,0,1,1.935-4.44,7.388,7.388,0,0,1,1.845-1.62l-.945-1.62a15.055,15.055,0,0,1-4.26.48,5.6,5.6,0,0,1-.75-.045Zm17.955-2.49a6.376,6.376,0,0,1,.24.975,38.22,38.22,0,0,0,1,4.065,9.258,9.258,0,0,0-2.04,1.29A3.523,3.523,0,0,0,119.955-3,2.839,2.839,0,0,0,121.26-.5a8.4,8.4,0,0,0,4.35.825,31.7,31.7,0,0,0,3.51-.225A9.351,9.351,0,0,1,130.335,0l-.165-2.055a16.422,16.422,0,0,1-4.845.615c-2.415,0-3.435-.465-3.435-1.56s1.1-2.04,3.285-2.85a36.651,36.651,0,0,1,4.95-1.44l-.645-1.89a4.105,4.105,0,0,1-.57.225c-2.91.96-2.91.96-3.885,1.32a25.193,25.193,0,0,1-.99-4.695Zm11.97,4.965a5.472,5.472,0,0,1,1.2-.42,21.374,21.374,0,0,1,5.91-1.065,3.909,3.909,0,0,1,1.935.4,2.2,2.2,0,0,1,1.14,1.95,3.308,3.308,0,0,1-.165,1.065,4.155,4.155,0,0,1-2.265,2.22,12.879,12.879,0,0,1-4.935.885,6.5,6.5,0,0,1,.765,1.935,14.091,14.091,0,0,0,5.28-1.245,5.323,5.323,0,0,0,3.33-4.8c0-2.55-1.935-4.215-4.9-4.215a23.678,23.678,0,0,0-5.97.855,10.722,10.722,0,0,1-1.755.3ZM151.17-10.9a10.278,10.278,0,0,1-1.92-.105v1.95a10.807,10.807,0,0,1,1.89-.09h7.14a10.878,10.878,0,0,1-7.83,8.07A5.52,5.52,0,0,1,151.77.7a13.453,13.453,0,0,0,8.61-9.945,2.05,2.05,0,0,0,.285.03,1.741,1.741,0,0,0,1.74-1.74,1.738,1.738,0,0,0-1.74-1.725,1.729,1.729,0,0,0-1.725,1.74c-.255.015-.435.03-.885.03Zm9.5-1.02a.976.976,0,0,1,.99.975.989.989,0,0,1-.99.99.986.986,0,0,1-.975-.99A.973.973,0,0,1,160.665-11.925Zm4.95.12a7.3,7.3,0,0,1,.075,1.545l-.06,8.1A5.29,5.29,0,0,1,165.5-.615l.96,1.155a4.3,4.3,0,0,1,.9-.255,13.674,13.674,0,0,0,5.46-2.055,11.183,11.183,0,0,0,3.345-3.5,7.046,7.046,0,0,1-1.425-1.53,8.864,8.864,0,0,1-3.06,3.435,10.789,10.789,0,0,1-4.1,1.65l.075-8.565a11.61,11.61,0,0,1,.09-1.515ZM190.2-9.48a2.96,2.96,0,0,1-1.155.255l-5.46.66v-1.89a7.917,7.917,0,0,1,.09-1.4h-2.07a7.455,7.455,0,0,1,.09,1.425v2.07l-1.59.195c-.4.045-1.05.09-1.32.09h-.36l.2,1.845c.315-.075.48-.12.69-.15l.975-.135,1.41-.18v3.435a5.808,5.808,0,0,0,.15,1.9,1.989,1.989,0,0,0,1.29,1.38,10.349,10.349,0,0,0,2.67.255,33.416,33.416,0,0,0,3.72-.255,6.25,6.25,0,0,1,.915-.06l-.09-2.025a16.61,16.61,0,0,1-4.6.585,3.3,3.3,0,0,1-1.86-.3c-.27-.225-.315-.48-.315-1.755V-6.9c2.505-.345,3.27-.45,4.62-.6.225-.03.345-.045.57-.09a7.649,7.649,0,0,1-3.045,3.015,4.859,4.859,0,0,1,1.5,1.2,11.017,11.017,0,0,0,3.675-4.38,4.207,4.207,0,0,1,.42-.735Zm-2.115-2.67a9.962,9.962,0,0,1,1.4,2.355l1.11-.42a9.251,9.251,0,0,0-1.38-2.325Zm4.47,1.26a8.553,8.553,0,0,0-1.38-2.25l-1.065.4a10.308,10.308,0,0,1,1.335,2.3Zm1.89,1.26a15.748,15.748,0,0,1,3.825,3.045l1.29-1.635a21.245,21.245,0,0,0-3.87-2.9Zm.525,9.9a5.31,5.31,0,0,1,.99-.255,16.2,16.2,0,0,0,5.715-2.25,13.165,13.165,0,0,0,4.755-5.88,6.468,6.468,0,0,1-1.59-1.47,12.526,12.526,0,0,1-1.53,3,10.022,10.022,0,0,1-4.455,3.675,14.293,14.293,0,0,1-4.44,1.11Zm18.675.405a16.491,16.491,0,0,1-.06-1.665V-4.95a7.755,7.755,0,0,0-.06-1.02,4.845,4.845,0,0,0,.51.255,35.488,35.488,0,0,1,5.31,2.865l1.05-1.77a44.069,44.069,0,0,0-6.81-3.165v-2.79a10.056,10.056,0,0,1,.06-1.575H211.59a9.642,9.642,0,0,1,.09,1.53V-1a10.105,10.105,0,0,1-.09,1.68ZM231-3.015a5.357,5.357,0,0,1-.03-.63c0-.21,0-.21.03-1.08l.21-5.1c.03-.645.09-1.425.135-1.83h-2.46c.06.42.1,1.17.135,1.83l.21,5.1c.045.9.045.9.045,1.065,0,.18-.015.33-.03.645ZM231.21.27V-1.785h-2.175V.27Z" transform="translate(709 1365)" fill="#fff"/>
  </g>
</svg>
