<svg xmlns="http://www.w3.org/2000/svg" width="1000.008" height="37.614" viewBox="0 0 1000.008 37.614">
  <g id="選べる豪華ご成約プレゼントが必ずもらえる_" data-name="選べる豪華ご成約プレゼントが必ずもらえる！" transform="translate(-163.348 -1267.363)">
    <path id="パス_652" data-name="パス 652" d="M19.572,38.608a6.05,6.05,0,0,0,4.644,3.125,17.208,17.208,0,0,0-2.637-3.2A25.3,25.3,0,0,0,27.8,36.91H23.625a22.617,22.617,0,0,0-3.306.154V32.976a22.368,22.368,0,0,0,3.266.154h2.007V30.854h-.55a27.262,27.262,0,0,0-3.7.154V27a22.012,22.012,0,0,0,3.7.154h.55V25.144a11.741,11.741,0,0,1-3.66-.27c-.945-.348-1.338-1-1.338-2.238V19.4a20.375,20.375,0,0,0-.08-2.353,26.97,26.97,0,0,0,2.834.077h4.172V15.77H23.35c-1.653,0-2.283.038-3.227.116V12.028a28.016,28.016,0,0,0,3.306.154h5.2a33.244,33.244,0,0,0,3.463-.116,8.334,8.334,0,0,0-.078,1.5v4.436c0,1.081.039,1.7.078,2.16-.865-.038-1.653-.077-2.558-.077H24.846v1c0,.733.2.81,1.81.81,1.968,0,2.125-.116,2.125-1.659a12.981,12.981,0,0,0,3.9,1.2c-.275,2.43-.709,3.124-2.322,3.472V27.15h4.762V24.836a2.075,2.075,0,0,1-1.456-2.276V19.512c0-.347-.039-1.157-.079-2.468a26.962,26.962,0,0,0,2.834.077h4.172V15.77H36.731c-1.692,0-2.322.038-3.266.116V12.028a28.03,28.03,0,0,0,3.306.154h5.076a33.669,33.669,0,0,0,3.5-.116,8.913,8.913,0,0,0-.118,2.16v3.78a14.3,14.3,0,0,0,.118,2.16c-.906-.038-1.692-.077-2.6-.077h-4.6v1.041c0,.694.2.772,1.81.772,2.2,0,2.243,0,2.322-1.736A16.6,16.6,0,0,0,46.413,21.4c-.276,2.083-.551,2.777-1.417,3.2-.748.386-1.889.5-5.117.54V27.15h1.889A21.48,21.48,0,0,0,45.429,27v4.012a27.648,27.648,0,0,0-3.7-.154H39.88v2.276H42.6a27.356,27.356,0,0,0,3.739-.154v4.089A28.075,28.075,0,0,0,42.6,36.91H38.856A28.035,28.035,0,0,0,45.7,38.454a14.233,14.233,0,0,0-2.087,3.086c1.181-.116,1.811-.193,3.739-.425a21.034,21.034,0,0,0-1.3,5.209c-3.346.116-8.817.193-14.208.193-5.825,0-8.3-.193-10.154-.772a9.55,9.55,0,0,1-4.526-3.24,37.555,37.555,0,0,1-3.857,3.2c-.669.5-.984.7-1.575,1.157L9.5,41.617a19.556,19.556,0,0,0,5.117-3.356V30.43h-1.85a15.125,15.125,0,0,0-2.558.193V25.646a19.788,19.788,0,0,0,3.228.193h3.306a28.8,28.8,0,0,0,2.952-.116,36.086,36.086,0,0,0-.118,4.244Zm-5.55-27.043a47.691,47.691,0,0,1,6.454,6.481l-3.9,3.78a35.044,35.044,0,0,0-6.336-6.751Zm18.3,27.351a22.846,22.846,0,0,1-6.494,2.971c1.339.077,3.188.116,5.432.116,2.6,0,6.494-.078,9.17-.232a22.679,22.679,0,0,1-6.3-2.855l2.6-2.006H29.687Zm-1.968-5.787h4.762V30.854H30.355Z" transform="translate(153.852 1257.418)" fill="#ffd900"/>
    <path id="パス_653" data-name="パス 653" d="M74.321,32.538c1.771-1.235,3.424-3.087,8.895-9.838,1.968-2.469,3.739-3.549,5.785-3.549a5.863,5.863,0,0,1,3.621,1.35,21.679,21.679,0,0,1,2.558,2.624,127.308,127.308,0,0,0,11.413,11.766,25.479,25.479,0,0,0,4.88,3.858l-2.912,6.442a13.6,13.6,0,0,0-1.3-1.234C104,41.1,99.628,36.742,95.81,32.614c-.866-.965-.866-.965-3.543-4.012-.433-.5-.433-.5-1.653-1.89-.709-.772-1.1-1-1.654-1-.669,0-.669,0-3.857,4.2-1.85,2.392-4.014,4.977-6.061,7.214a12.829,12.829,0,0,0-.984,1.157Zm27.471-13.426a25.019,25.019,0,0,1,3.621,5.44l-3.424,1.659a23.443,23.443,0,0,0-3.621-5.555Zm4.487-2.083a23.137,23.137,0,0,1,3.66,5.247l-3.345,1.658a27.817,27.817,0,0,0-3.543-5.4Z" transform="translate(140.071 1256.236)" fill="#ffd900"/>
    <path id="パス_654" data-name="パス 654" d="M144.207,14.081a35.842,35.842,0,0,0,5.117.27c3.384,0,8.265-.193,11.924-.463a6.8,6.8,0,0,0,2.677-.5l2.794,4.012c-.826.463-.865.463-3.936,3.125a75.008,75.008,0,0,1-8.54,6.789,22.023,22.023,0,0,1,6.494-.926,12.619,12.619,0,0,1,8.225,2.624,7.816,7.816,0,0,1,2.873,6.4,9.709,9.709,0,0,1-5.392,8.758,20.148,20.148,0,0,1-9.878,2.315c-3.424,0-6.337-.7-7.99-1.929a5.738,5.738,0,0,1-2.4-4.706c0-3.318,3.07-5.825,7.242-5.825a8.8,8.8,0,0,1,6.927,3.125,9.778,9.778,0,0,1,1.81,3.317c2.795-1.118,3.935-2.584,3.935-5.015,0-2.816-2.912-4.629-7.438-4.629-5.786,0-11.177,2.2-16.058,6.481l-3.149-4.976c3.7-1.736,11.925-8.14,17.474-13.579-3.227.27-3.9.309-9.681.578-1.26.078-1.614.078-2.794.231Zm9.17,24.3c-1.18,0-1.968.617-1.968,1.543,0,1.35,1.5,2.122,4.054,2.122a5.824,5.824,0,0,0,1.653-.194c-.591-2.276-1.889-3.471-3.739-3.471" transform="translate(126.226 1257.024)" fill="#ffd900"/>
    <path id="パス_655" data-name="パス 655" d="M218.856,32.275a12.822,12.822,0,0,1,2.795,3.511,14.194,14.194,0,0,1,1.574,5.632,7.24,7.24,0,0,1-.9,3.666c-.827,1.35-2.559,1.89-6.18,1.89-.63,0-1.18,0-2.6-.038a13.626,13.626,0,0,0-1.062-3.163,81.115,81.115,0,0,1-9.328,3.047,11.964,11.964,0,0,0-2.283-3.242,57.781,57.781,0,0,0,16.962-5.516,6.552,6.552,0,0,0-.432-1.042,60.4,60.4,0,0,1-14.444,4.822,8.654,8.654,0,0,0-1.85-2.893,61.082,61.082,0,0,0,8.619-1.736,40.545,40.545,0,0,0,6.258-2.315c-.315-.347-.433-.5-.787-.888a51.645,51.645,0,0,1-11.57,3.241,9.182,9.182,0,0,0-1.693-2.855,46.439,46.439,0,0,0,11.3-2.2H210a15.9,15.9,0,0,0-2.519.116V29.42a20.808,20.808,0,0,0,2.558.116h17.435a22.35,22.35,0,0,0,2.361-.116v2.894a14.844,14.844,0,0,0-2.44-.116h-1.5a11.7,11.7,0,0,0,1.338,2.855,11.917,11.917,0,0,0,2.361-2.546l4.369,2.468a34.739,34.739,0,0,1-3.818,3.434,18.752,18.752,0,0,0,6.927,3.742,20.865,20.865,0,0,0-2.243,4.359,29.83,29.83,0,0,1-6.258-3.665A20.393,20.393,0,0,1,221.651,32.2h-2.637Zm-3.07-19.4a12.066,12.066,0,0,0-.236-2.045h5.668a8.8,8.8,0,0,0-.236,2.045H232.2a30.187,30.187,0,0,0,4.329-.193v4.127a37.024,37.024,0,0,0-4.369-.154H205.2a36.376,36.376,0,0,0-4.25.154V12.678a31.755,31.755,0,0,0,4.447.193Zm15.586,15.585H206.025v3.627h-5.038a10.43,10.43,0,0,0,.2-2.392V27.414a17.5,17.5,0,0,0-.119-2.392,42.1,42.1,0,0,0,4.369.154h26.526c1.928,0,3.149-.038,4.447-.154a11.21,11.21,0,0,0-.117,2.315v2.43a13.311,13.311,0,0,0,.157,2.315h-5.077Zm-22.08-4.4c-1.339,0-2.361.038-3.661.077a14.555,14.555,0,0,0,.119-1.967V19.583a13.279,13.279,0,0,0-.119-2.006c1.654.116,2.165.116,3.739.116h18.695c1.535,0,2.283-.038,3.661-.116a11.017,11.017,0,0,0-.118,2.045V22.13a16.911,16.911,0,0,0,.078,2.005c-1.574-.077-2.2-.077-3.581-.077Zm1.339-2.468h16.058V20.163H210.631ZM218.5,40.8a30.422,30.422,0,0,1-5.194,2.624c.9.077,1.968.154,2.439.154,1.378,0,2.086-.193,2.4-.617A2.986,2.986,0,0,0,218.5,41.3Z" transform="translate(113.167 1257.578)" fill="#ffd900"/>
    <path id="パス_656" data-name="パス 656" d="M296.78,13.535a37.114,37.114,0,0,0,4.762-.231v4.745c-1.378-.116-2.834-.193-4.723-.193h-4.447v2.006h3.857a25.341,25.341,0,0,0,3.739-.193v4.282a36.109,36.109,0,0,0-3.739-.155h-.63v2.238h2.086a32.192,32.192,0,0,0,4.33-.232v4.514a33.033,33.033,0,0,0-4.33-.231H295.6v2.237h.63a33.769,33.769,0,0,0,3.739-.154v4.244a36.118,36.118,0,0,0-3.739-.154H285.956V38.07H296.7c1.85,0,3.346-.077,4.723-.193v4.437a41.619,41.619,0,0,0-4.762-.231H285.956v1.2a26.812,26.812,0,0,0,.237,3.974h-5.55a27.868,27.868,0,0,0,.236-4.012V42.083H270.8a43.092,43.092,0,0,0-4.762.231V37.877a46.144,46.144,0,0,0,4.8.193H280.88V36.258h-9.761a35.468,35.468,0,0,0-3.779.154V32.168a33.193,33.193,0,0,0,3.779.154h.591V30.085h-2.086a35.2,35.2,0,0,0-4.33.231V25.8a34.3,34.3,0,0,0,4.33.232h2.086V23.8h-.591a36.9,36.9,0,0,0-3.779.155V19.669a25.267,25.267,0,0,0,3.779.193H274.5V17.856h-3.857c-1.928,0-3.385.077-4.762.193V13.3a38.405,38.405,0,0,0,4.762.231H274.5v-.386a10.346,10.346,0,0,0-.157-1.928H279.7a10.073,10.073,0,0,0-.158,1.928v.386h7.793v-.386a10.912,10.912,0,0,0-.158-1.928h5.353a10.352,10.352,0,0,0-.157,1.928v.386Zm-20.191,12.5h4.369V23.8h-4.369Zm0,6.288h4.369V30.084h-4.369Zm2.952-12.46h7.792V17.856h-7.792Zm6.336,6.173h4.92V23.8h-4.92Zm0,6.288h4.92V30.084h-4.92Z" transform="translate(99.472 1257.493)" fill="#ffd900"/>
    <path id="パス_657" data-name="パス 657" d="M341.993,31.54c-2.4,1.891-3.543,3.511-3.543,5.015,0,2.237,2.716,3.24,8.855,3.24,4.841,0,10.154-.694,12.792-1.7l.433,6.327a34.327,34.327,0,0,0-3.543.347,63.094,63.094,0,0,1-8.895.617c-4.723,0-8.147-.425-10.351-1.273-3.542-1.312-5.273-3.55-5.273-6.713s1.613-5.864,5.352-8.8Zm-6.966-16.627c2.4.617,6.966.965,12.712.965a53.848,53.848,0,0,0,10.312-.694l.2,5.092a74.134,74.134,0,0,0-10.745,6.6l-4.014-2.932c1.378-.887,4.054-2.508,5.2-3.163a35.725,35.725,0,0,1-4.487.231,75.531,75.531,0,0,1-8.147-.462,6.94,6.94,0,0,0-1.377-.116Zm20.544,8.526a19.367,19.367,0,0,1,3.5,4.861l-3.228,1.852a21.194,21.194,0,0,0-3.5-4.938Zm4.329-2.315a22.415,22.415,0,0,1,3.5,4.668l-3.148,1.813a24.96,24.96,0,0,0-3.424-4.784Z" transform="translate(85.191 1256.694)" fill="#ffd900"/>
    <path id="パス_658" data-name="パス 658" d="M424.9,24.806c-.236.579-.433,1-.827,1.968-.433,1.081-1.535,3.434-2.322,4.938a37.258,37.258,0,0,1-2.912,4.783,12.323,12.323,0,0,0,2.676,3.549c.276.232.433.386.433.386a.5.5,0,0,0,.276.154c.394,0,.709-1.389,1.22-5.13a16.727,16.727,0,0,0,4.015,3.009,18.358,18.358,0,0,1-1.653,5.594c-.787,1.543-1.693,2.237-2.952,2.237-2.2,0-4.88-2.122-7.4-5.787a37.95,37.95,0,0,1-8.343,6.057,18.726,18.726,0,0,0-3.464-4.051,28.036,28.036,0,0,0,9.564-6.289c-1.732-4.243-2.48-8.255-2.952-15.392H398.811c0,2.2,0,2.97-.039,4.629h7.045a24.064,24.064,0,0,0,2.716-.115c-.118.849-.118.849-.433,7.445-.236,4.514-.708,6.481-1.81,7.561a4.3,4.3,0,0,1-2.913,1.041,19.131,19.131,0,0,1-2.6.154c-.276,0-.9,0-1.85-.038a17.574,17.574,0,0,0-1.142-4.552,23.458,23.458,0,0,1-3.778,10.069A19.7,19.7,0,0,0,390,43.015a15.766,15.766,0,0,0,2.558-5.786c.827-3.279,1.259-8.68,1.259-15.354a43.83,43.83,0,0,0-.236-5.787c1.457.116,3.109.194,5.2.194h11.3c-.118-4.166-.118-4.166-.276-5.015h5.51a24.264,24.264,0,0,0-.236,3.163c0,.077,0,1.08.039,1.852h4.369a15.578,15.578,0,0,0-3.188-2.971l3.661-2.238a26.784,26.784,0,0,1,3.857,3.743l-2.243,1.466h1.024a27.527,27.527,0,0,0,4.132-.194v4.977a45.9,45.9,0,0,0-4.959-.231h-6.494a54.545,54.545,0,0,0,1.5,10.532,25.778,25.778,0,0,0,3.188-8.371ZM398.575,29.9a65.551,65.551,0,0,1-.747,6.789,24.628,24.628,0,0,0,3.305.309c1.1,0,1.457-.193,1.692-1,.354-1.119.394-1.581.512-6.095Z" transform="translate(72.961 1257.525)" fill="#ffd900"/>
    <path id="パス_659" data-name="パス 659" d="M461.3,33.422c-.315,6.018-.551,7.754-1.693,11.651L455.669,43.3a37.774,37.774,0,0,0,1.653-10.377Zm-5.313-6.289a9.148,9.148,0,0,0,1.968.155h1.339c.747-.888,1.062-1.273,1.81-2.316a36.319,36.319,0,0,0-5.156-5.709l2.48-3.973c.551.656.748.887,1.141,1.312a27.115,27.115,0,0,0,2.913-5.825l4.368,1.659a11.313,11.313,0,0,0-.787,1.389,57.134,57.134,0,0,1-3.582,5.864c.512.617.709.81,1.3,1.543a43.249,43.249,0,0,0,3.976-6.52l4.211,2.276c-.315.425-.63.81-1.338,1.89-1.811,2.624-4.683,6.365-6.3,8.217,2.008-.077,2.362-.116,3.936-.231a26.656,26.656,0,0,0-1.024-2.585l3.267-1.234a65.46,65.46,0,0,1,3.03,7.947l-3.7,1.465c-.118-.771-.2-1-.354-1.7-1.732.193-1.732.193-2.283.232v11.92a24.244,24.244,0,0,0,.236,4.2H462.32a23.718,23.718,0,0,0,.236-4.2V31.378c-1.81.115-1.81.115-4.526.27-.669.077-1.062.115-1.613.193Zm15.9,5.633a77.013,77.013,0,0,1,1.692,10.146l-4.172.771a90.67,90.67,0,0,0-1.18-10.107Zm6.258-11.612a27.187,27.187,0,0,1-3.818,5.786,13.948,13.948,0,0,0-3.661-3.664,25.435,25.435,0,0,0,4.291-6.983,27.719,27.719,0,0,0,1.574-5.286l5.2.849a13.646,13.646,0,0,0-.551,1.66c-.2.617-.63,1.928-.983,2.854h8.3a21.681,21.681,0,0,0,3.187-.154c-.157,1.312-.157,1.312-.2,7.06-.039,4.629-.433,11.38-.827,14.5-.591,4.552-1.377,6.674-2.794,7.755-.983.694-2.716,1.041-5.471,1.041-1.1,0-2.125-.038-3.463-.115a16.778,16.778,0,0,0-1.3-5.093,40.521,40.521,0,0,0,5.077.463c1.771,0,2.2-.463,2.676-2.816a115.5,115.5,0,0,0,1.024-17.861Zm.826,16.164a43.276,43.276,0,0,0-4.132-9.953l4.329-2.006a45.6,45.6,0,0,1,4.487,9.8Z" transform="translate(58.999 1257.589)" fill="#ffd900"/>
    <path id="パス_660" data-name="パス 660" d="M545.548,15.419a14.674,14.674,0,0,0,1.692-.077,4.352,4.352,0,1,1,4.369,4.59h-.158l-.158.541A36.577,36.577,0,0,1,543.5,36.1c-3.621,4.167-8.069,7.176-14.838,10.146a17.543,17.543,0,0,0-4.172-5.517,32.283,32.283,0,0,0,8.461-3.819A25.725,25.725,0,0,0,544.682,20.82H527.444a47.116,47.116,0,0,0-6.1.231v-5.9a41.105,41.105,0,0,0,6.179.27Zm4.093.232a1.929,1.929,0,1,0,1.928-1.89,1.913,1.913,0,0,0-1.928,1.89" transform="translate(45.037 1257.46)" fill="#fff"/>
    <path id="パス_661" data-name="パス 661" d="M593.912,13.563a32.4,32.4,0,0,0-.275,4.783L593.4,39.1a26.443,26.443,0,0,0,10.509-4.359,23.559,23.559,0,0,0,7.635-8.719,19.252,19.252,0,0,0,4.487,4.706c-5.588,8.449-12.358,12.615-23.811,14.66a9.289,9.289,0,0,0-2.361.656l-2.991-3.472a9.086,9.086,0,0,0,.394-3.549l.157-20.639a2.491,2.491,0,0,0,.039-.541,31.02,31.02,0,0,0-.236-4.359Z" transform="translate(31.108 1257.003)" fill="#fff"/>
    <path id="パス_662" data-name="パス 662" d="M650.819,17.127a23.114,23.114,0,0,0-.276-4.475H657a24.127,24.127,0,0,0-.276,4.359v3.742l14.05-1.581a7.228,7.228,0,0,0,2.913-.656l3.385,3.047a6.832,6.832,0,0,0-1.182,1.968,32.823,32.823,0,0,1-4.21,6.673,30.208,30.208,0,0,1-5.55,5.054,16.394,16.394,0,0,0-4.723-3.78,20.979,20.979,0,0,0,4.487-3.24,14.19,14.19,0,0,0,3.07-3.9l-12.28,1.544v8.448a15.009,15.009,0,0,0,.157,3.125c.158.925.669,1.389,1.771,1.581a21.809,21.809,0,0,0,3.464.232,63.951,63.951,0,0,0,6.966-.463,30.942,30.942,0,0,0,5.273-1.119l.236,6.134a36.991,36.991,0,0,0-4.368.348c-3.228.308-6.021.462-8.186.462a27,27,0,0,1-7.242-.7,5.434,5.434,0,0,1-3.543-3.587c-.354-1.234-.393-1.852-.393-5.208V26.5l-2.677.348a34.444,34.444,0,0,0-5.156.809l-.59-5.67c.511.038.944.038,1.18.038.787,0,2.125-.116,3.975-.309l3.268-.347ZM671.127,12a19.26,19.26,0,0,1,3.267,4.938l-3.385,1.544a20.377,20.377,0,0,0-3.227-5.054Zm4.487-2.006a21.358,21.358,0,0,1,3.305,4.938l-3.266,1.621a24.062,24.062,0,0,0-3.227-5.131Z" transform="translate(19.303 1257.759)" fill="#fff"/>
    <path id="パス_663" data-name="パス 663" d="M711.478,15.5a55.118,55.118,0,0,1,10.469,7.484l-3.975,5.054a41.477,41.477,0,0,0-10.351-7.985Zm-3.7,23.918a38.263,38.263,0,0,0,11.728-2.816,24.342,24.342,0,0,0,11.572-9.451,33.149,33.149,0,0,0,3.974-7.677,21.255,21.255,0,0,0,5,4.475c-3.9,8.255-8.541,13.347-15.389,16.9a50.663,50.663,0,0,1-11.453,4.012c-.984.193-.984.193-1.732.347a14.576,14.576,0,0,0-1.968.54Z" transform="translate(5.436 1256.566)" fill="#fff"/>
    <path id="パス_664" data-name="パス 664" d="M773.8,46.1a39.093,39.093,0,0,0,.236-5.44V17.818a33.024,33.024,0,0,0-.236-5.17h6.415a33.3,33.3,0,0,0-.236,5.17v5.864a95.754,95.754,0,0,1,17.907,8.1l-3.228,5.555a86.969,86.969,0,0,0-13.184-7.021,13.687,13.687,0,0,1-1.5-.694v11.11a46.816,46.816,0,0,0,.236,5.363Z" transform="translate(-8.632 1257.184)" fill="#fff"/>
    <path id="パス_665" data-name="パス 665" d="M824.775,21.331h.237c1.18,0,5.9-.424,7.91-.733a50.791,50.791,0,0,0,.983-7.793,3.823,3.823,0,0,0-.039-.578l6.1.578a9.51,9.51,0,0,0-.275,1.119c-.039.154-.353,1.813-.9,4.977-.158.809-.158.849-.276,1.312.944-.039,1.5-.078,2.086-.078,2.794,0,4.841.733,6.14,2.238,1.338,1.581,1.849,3.471,1.849,7.1,0,6.905-1.18,12.268-3.187,14.389-1.18,1.273-2.44,1.737-4.6,1.737a21.045,21.045,0,0,1-6.022-1.081,14.934,14.934,0,0,0,.079-1.736,17.192,17.192,0,0,0-.511-4.128,17.242,17.242,0,0,0,5.589,1.466c.983,0,1.574-.617,2.046-2.16a36.42,36.42,0,0,0,1.063-8.8c0-1.852-.276-2.855-.983-3.472-.512-.5-1.142-.656-2.559-.656a19.575,19.575,0,0,0-1.968.116,84.135,84.135,0,0,1-7.2,19.636c-.354.733-.394.811-.629,1.312l-5.471-2.893c2.676-3.434,6.022-11.188,7.675-17.631-2.795.386-5.471.849-6.613,1.157Zm26.291-7.87a21.861,21.861,0,0,1,3.621,5.092l-3.424,1.7a24.686,24.686,0,0,0-3.66-5.208Zm3.858,6.289a38.489,38.489,0,0,1,6.258,13.309l-5.432,2.584a36.641,36.641,0,0,0-2.912-8.719,25.114,25.114,0,0,0-2.755-4.938Zm.865-8.333a22.766,22.766,0,0,1,3.621,4.9l-3.384,1.736A27.862,27.862,0,0,0,852.444,13Z" transform="translate(-19.353 1257.45)" fill="#fff"/>
    <path id="パス_666" data-name="パス 666" d="M903.613,40.714c0,.888.866,1.119,4.054,1.119,3.267,0,4.447-.231,4.921-1,.55-.925.865-3.279.9-7.252a18.947,18.947,0,0,0,4.96,1.7c-.551,6.867-1.22,9.066-3.187,10.146-1.181.657-3.74,1-7.6,1-4.526,0-6.494-.27-7.792-1.042-.945-.578-1.3-1.466-1.378-3.318a77.158,77.158,0,0,1-6.533,4.128,17.643,17.643,0,0,0-3.464-4.4,48.471,48.471,0,0,0,10-5.671V23.509a29.067,29.067,0,0,0-.236-4.051h5.588a30.529,30.529,0,0,0-.236,3.9V31.8a51.1,51.1,0,0,0,9.21-12.152,27.852,27.852,0,0,0,2.755-6.6l5.313,2.084c-.512.965-.512.965-1.614,3.2a66.739,66.739,0,0,1-7.831,12.229,47.26,47.26,0,0,1-7.832,7.716Zm-6.848-17.09c-.906,6.751-1.693,10.03-3.5,14.621l-4.723-2.237a42.809,42.809,0,0,0,3.424-13.386Zm4.447-12.846a60.9,60.9,0,0,1,11.375,5.246l-3.032,4.437A49.225,49.225,0,0,0,898.1,14.674Zm18.97,12.46a81.8,81.8,0,0,1,5.824,14.775l-4.919,2.546a61.91,61.91,0,0,0-5.51-15.2Z" transform="translate(-33.017 1257.588)" fill="#ff0d0d"/>
    <path id="パス_667" data-name="パス 667" d="M953.474,16.789c.945.077,1.339.115,2.047.115.865,0,4.8-.115,15.9-.424a27.807,27.807,0,0,0-.276-4.4h5.943a28.7,28.7,0,0,0-.236,4.282c6.651-.038,9.682-.116,11.256-.27l.039,5.323a64.262,64.262,0,0,0-6.848-.193c-2.086,0-2.4,0-4.408.038l.04.926v1.273l-.04,3.125v.925a11.321,11.321,0,0,1,1.456,5.787c0,4.475-2.085,8.063-6.218,10.648a26.846,26.846,0,0,1-7.478,3.163,14.924,14.924,0,0,0-3.266-5.209c4.171-.656,6.927-1.7,8.894-3.356a5.532,5.532,0,0,0,2.125-3.2,6.78,6.78,0,0,1-5.55,2.2A7.848,7.848,0,0,1,962.133,36a6.289,6.289,0,0,1-2.638-5.285c0-4.206,3.464-7.214,8.344-7.214a7.249,7.249,0,0,1,3.7.849,5.563,5.563,0,0,0-.039-.617V21.379a176.693,176.693,0,0,0-17.868,1Zm11.61,13.618a2.709,2.709,0,0,0,2.991,2.546,3.154,3.154,0,0,0,3.424-2.893c0-1.389-1.22-2.353-3.07-2.353-1.928,0-3.345,1.157-3.345,2.7m17.829-20.369a21.643,21.643,0,0,1,2.558,4.9l-3.5,1a22.761,22.761,0,0,0-2.4-5.015Zm5.077-.54a18.114,18.114,0,0,1,2.519,4.9l-3.384,1a20,20,0,0,0-2.4-5.054Z" transform="translate(-46.83 1257.866)" fill="#ff0d0d"/>
    <path id="パス_668" data-name="パス 668" d="M1019.331,26.974a27.322,27.322,0,0,0,6.889,1.427c.275-2.276.275-2.276.668-4.706a42.272,42.272,0,0,1-5.549-.925c-.591-.116-.787-.154-1.378-.232l.433-5.092a27.81,27.81,0,0,0,7.124,1.35,41.058,41.058,0,0,0,.669-5.979v-.463l6.219.54c-.433,1.235-.552,1.774-1.221,6.095a38.365,38.365,0,0,0,8.777-.887l-.2,5.4c-.59.039-.59.039-2.873.232a57.077,57.077,0,0,1-5.944.231h-.59c-.275,1.852-.394,2.624-.668,4.745.63.039,1.1.039,1.377.039a30.291,30.291,0,0,0,7.833-.849l-.119,5.285a10.783,10.783,0,0,0-1.259.115,49.857,49.857,0,0,1-6.061.386c-.432,0-.747,0-2.124-.038a22.884,22.884,0,0,0-.119,2.315,4.49,4.49,0,0,0,1.338,3.626,6.945,6.945,0,0,0,4.6,1.35c4.684,0,7.361-2.006,7.361-5.517,0-2.122-1.181-4.359-3.425-6.481a17.544,17.544,0,0,0,5.826-1.119c2.439,2.971,3.423,5.4,3.423,8.448a9.234,9.234,0,0,1-3.9,7.33,16.984,16.984,0,0,1-16.609.926c-2.872-1.736-4.209-4.321-4.209-8.218,0-.964,0-1.349.116-3.009-1.888-.231-3.267-.424-5.312-.848-.434-.078-.828-.154-1.535-.232Z" transform="translate(-60.739 1257.248)" fill="#fff"/>
    <path id="パス_669" data-name="パス 669" d="M1089.2,20.032c-.433,1.5-1.338,6.52-1.81,10.03a18.6,18.6,0,0,1,11.492-3.356c7.006,0,11.492,3.356,11.492,8.564a9.428,9.428,0,0,1-4.25,7.792c-2.795,1.89-6.179,2.74-10.745,2.74a41.529,41.529,0,0,1-10-1.235,22.367,22.367,0,0,0-.709-5.864,34.277,34.277,0,0,0,10.351,1.852c5.509,0,9.209-2.044,9.209-5.092,0-2.353-2.244-3.742-6.022-3.742a17.8,17.8,0,0,0-9.327,2.584,7.5,7.5,0,0,0-2.008,1.736l-5.707-.193c.078-.5.078-.54.157-1.041.355-2.855,1.023-7.716,1.81-12.808.118-.925.158-1.427.235-2.314Zm-.04-8.024c2.834,1.5,10.706,3.742,15.271,4.359l-1.89,5.324a77.322,77.322,0,0,1-16.136-4.938Z" transform="translate(-73.978 1257.323)" fill="#fff"/>
    <path id="パス_670" data-name="パス 670" d="M1142,22.39c1.1.077,1.613.115,2.322.115a143.19,143.19,0,0,0,14.4-.849A11.99,11.99,0,0,0,1162.11,21l3.069,3.9a21.249,21.249,0,0,0-3.266,2.74c-2.362,2.121-2.479,2.2-4.409,3.858-.235.193-.512.424-.905.771-.59.463-.747.617-1.22.965a5.169,5.169,0,0,1,2.047-.386,3.668,3.668,0,0,1,3.542,1.968c.394.771.433,1,.669,3.433.2,2.584.709,3.086,2.991,3.086a21.645,21.645,0,0,0,7.753-1.5l.591,5.709a23.944,23.944,0,0,0-3.542.425,36.877,36.877,0,0,1-5.825.462c-3.384,0-5.273-.733-6.336-2.43-.59-.888-.748-1.621-.867-4.013a7.357,7.357,0,0,0-.393-2.353,1.793,1.793,0,0,0-1.575-.771c-1.731,0-3.463,1.08-6.65,4.127a74.5,74.5,0,0,0-5.314,5.633l-4.368-4.861c2.519-1.659,7.28-5.749,14.6-12.538,1.339-1.273,1.85-1.736,2.991-2.739a85.813,85.813,0,0,1-8.776.965c-2.007.154-3.385.308-4.565.5Zm5-10.185a62.486,62.486,0,0,0,16.372,2.006l-.826,5.169c-8.383-.424-11.768-.849-17.16-2.121Z" transform="translate(-86.081 1257.28)" fill="#fff"/>
    <path id="パス_671" data-name="パス 671" d="M1203.789,14.081a35.842,35.842,0,0,0,5.117.27c3.384,0,8.265-.193,11.925-.463a6.8,6.8,0,0,0,2.676-.5L1226.3,17.4c-.826.463-.866.463-3.936,3.125a74.947,74.947,0,0,1-8.54,6.789,22.033,22.033,0,0,1,6.495-.926,12.619,12.619,0,0,1,8.225,2.624,7.819,7.819,0,0,1,2.873,6.4c0,3.743-1.849,6.752-5.392,8.758a20.148,20.148,0,0,1-9.879,2.315c-3.423,0-6.335-.7-7.989-1.929a5.739,5.739,0,0,1-2.4-4.706c0-3.318,3.07-5.825,7.242-5.825a8.8,8.8,0,0,1,6.927,3.125,9.777,9.777,0,0,1,1.81,3.317c2.795-1.118,3.936-2.584,3.936-5.015,0-2.816-2.912-4.629-7.439-4.629-5.786,0-11.178,2.2-16.058,6.481l-3.148-4.976c3.7-1.736,11.925-8.14,17.474-13.579-3.227.27-3.9.309-9.682.578-1.259.078-1.613.078-2.794.231Zm9.17,24.3c-1.18,0-1.968.617-1.968,1.543,0,1.35,1.5,2.122,4.054,2.122a5.825,5.825,0,0,0,1.653-.194c-.591-2.276-1.889-3.471-3.739-3.471" transform="translate(-99.033 1257.024)" fill="#fff"/>
    <path id="パス_672" data-name="パス 672" d="M1270.853,36.2c.039-.965.078-1.389.078-1.813,0-.5,0-.5-.118-2.778l-.668-12.691c-.079-1.736-.236-3.627-.394-4.938h7.674c-.157,1.119-.314,2.932-.394,4.938l-.668,12.691c-.118,2.354-.118,2.354-.118,2.816,0,.425.039.81.079,1.775Zm-.631,2.932h6.73v6.249h-6.73Z" transform="translate(-114.068 1256.896)" fill="#fff"/>
  </g>
</svg>
