<svg xmlns="http://www.w3.org/2000/svg" width="322.906" height="44.536" viewBox="0 0 322.906 44.536">
  <g id="価格" transform="translate(-631.484 -4386.969)">
    <path id="パス_698" data-name="パス 698" d="M8.954-3.124V0H12.21V-9.13H8.954v2.9H4.466l7.612-10.362H8.1L.484-6.248v3.124Zm9.416,7.26a10.259,10.259,0,0,0,1.364-4.73V-3.916H16.39v3.85a19.9,19.9,0,0,1-.484,4.2ZM26.73,0l7.15-13.53v-3.058H22.088v3.124H30.1L22.946,0ZM37.95-.77A7.26,7.26,0,0,0,42.438.4,6.9,6.9,0,0,0,47.19-1.012a4.53,4.53,0,0,0,1.474-3.564,4.575,4.575,0,0,0-.968-2.9,4.809,4.809,0,0,0-1.232-1.056c.352-.374.7-.77,1.034-1.188a4.014,4.014,0,0,0,.9-2.508,4.44,4.44,0,0,0-1.474-3.432,6.638,6.638,0,0,0-4.466-1.3A6.76,6.76,0,0,0,37.928-15.6a4.334,4.334,0,0,0-1.342,3.366A4.206,4.206,0,0,0,37.422-9.5a3.753,3.753,0,0,0,1.1.968,8.108,8.108,0,0,0-1.21,1.144,4.264,4.264,0,0,0-.99,2.816A4.577,4.577,0,0,0,37.95-.77ZM39.6-4.708a2.7,2.7,0,0,1,.506-1.672,4.081,4.081,0,0,1,.858-.88,11.954,11.954,0,0,1,3.5.836,1.78,1.78,0,0,1,.946,1.76,1.829,1.829,0,0,1-.7,1.606,3.672,3.672,0,0,1-2.2.55,3.835,3.835,0,0,1-2.31-.55A1.894,1.894,0,0,1,39.6-4.708Zm.748-8.8a3.268,3.268,0,0,1,2.112-.55,3.322,3.322,0,0,1,2.134.572,1.714,1.714,0,0,1,.55,1.43,2.679,2.679,0,0,1-.484,1.606,5.584,5.584,0,0,1-.638.792A11.183,11.183,0,0,1,40.5-10.6a1.509,1.509,0,0,1-.66-1.452A1.644,1.644,0,0,1,40.348-13.508ZM53.812-1.232a5.484,5.484,0,0,0,4.4,1.606,5.478,5.478,0,0,0,4.444-1.76c1.386-1.694,1.518-3.674,1.518-6.886,0-3.168-.11-5.676-1.716-7.216a6.067,6.067,0,0,0-4.246-1.474,5.523,5.523,0,0,0-4.73,2c-1.1,1.474-1.166,3.85-1.166,6.688C52.316-5.1,52.382-2.86,53.812-1.232Zm2.2-11.374a2.084,2.084,0,0,1,2.2-1.3,2.262,2.262,0,0,1,2.024.9c.616.946.638,2.376.638,4.664,0,2.486-.044,3.872-.748,4.818a2.3,2.3,0,0,1-1.914.836,2.258,2.258,0,0,1-1.936-.836c-.638-.924-.66-2.376-.66-4.686A13.279,13.279,0,0,1,56.012-12.606ZM70.2,4.136a10.259,10.259,0,0,0,1.364-4.73V-3.916H68.222v3.85a19.9,19.9,0,0,1-.484,4.2Zm6.6-5.368A5.484,5.484,0,0,0,81.2.374a5.478,5.478,0,0,0,4.444-1.76c1.386-1.694,1.518-3.674,1.518-6.886,0-3.168-.11-5.676-1.716-7.216A6.067,6.067,0,0,0,81.2-16.962a5.523,5.523,0,0,0-4.73,2c-1.1,1.474-1.166,3.85-1.166,6.688C75.306-5.1,75.372-2.86,76.8-1.232ZM79-12.606a2.084,2.084,0,0,1,2.2-1.3,2.262,2.262,0,0,1,2.024.9c.616.946.638,2.376.638,4.664,0,2.486-.044,3.872-.748,4.818a2.3,2.3,0,0,1-1.914.836,2.258,2.258,0,0,1-1.936-.836c-.638-.924-.66-2.376-.66-4.686A13.279,13.279,0,0,1,79-12.606ZM92.312-1.232a5.484,5.484,0,0,0,4.4,1.606,5.478,5.478,0,0,0,4.444-1.76c1.386-1.694,1.518-3.674,1.518-6.886,0-3.168-.11-5.676-1.716-7.216a6.067,6.067,0,0,0-4.246-1.474,5.523,5.523,0,0,0-4.73,2c-1.1,1.474-1.166,3.85-1.166,6.688C90.816-5.1,90.882-2.86,92.312-1.232Zm2.2-11.374a2.084,2.084,0,0,1,2.2-1.3,2.262,2.262,0,0,1,2.024.9c.616.946.638,2.376.638,4.664,0,2.486-.044,3.872-.748,4.818a2.3,2.3,0,0,1-1.914.836,2.258,2.258,0,0,1-1.936-.836c-.638-.924-.66-2.376-.66-4.686A13.279,13.279,0,0,1,94.512-12.606Zm13.31,11.374a5.484,5.484,0,0,0,4.4,1.606,5.478,5.478,0,0,0,4.444-1.76c1.386-1.694,1.518-3.674,1.518-6.886,0-3.168-.11-5.676-1.716-7.216a6.067,6.067,0,0,0-4.246-1.474,5.523,5.523,0,0,0-4.73,2c-1.1,1.474-1.166,3.85-1.166,6.688C106.326-5.1,106.392-2.86,107.822-1.232Zm2.2-11.374a2.084,2.084,0,0,1,2.2-1.3,2.262,2.262,0,0,1,2.024.9c.616.946.638,2.376.638,4.664,0,2.486-.044,3.872-.748,4.818a2.3,2.3,0,0,1-1.914.836,2.258,2.258,0,0,1-1.936-.836c-.638-.924-.66-2.376-.66-4.686A13.279,13.279,0,0,1,110.022-12.606ZM124.916-6.82h13.09v5.368c0,.528-.132.594-.99.594-.792,0-1.892-.088-3.344-.242a8.466,8.466,0,0,1,.682,2.376c.858.044,2.068.088,2.926.088a5.411,5.411,0,0,0,2.31-.308c.638-.33.9-.946.9-2.068v-14.1a21.649,21.649,0,0,1,.088-2.4,20.168,20.168,0,0,1-2.4.088H124.806a23.634,23.634,0,0,1-2.442-.088,18.954,18.954,0,0,1,.088,2.112V-1.012a20.9,20.9,0,0,1-.132,2.64h2.706a16.171,16.171,0,0,1-.11-2.552Zm5.214-2.31h-5.214v-5.962h5.214Zm2.376,0v-5.962h5.5V-9.13ZM152.13-6.688c1.386-1.5,2.4-2.024,3.828-2.024,1.166,0,1.848.264,3.784,1.5a11.243,11.243,0,0,0,3.014,1.628,6.259,6.259,0,0,0,1.936.308A6.178,6.178,0,0,0,168.5-6.534a9.607,9.607,0,0,0,2.09-2.134l-1.76-1.76a5.9,5.9,0,0,1-2.288,2,4.348,4.348,0,0,1-1.628.418,7.46,7.46,0,0,1-3.894-1.54,15.791,15.791,0,0,0-2-1.21,6.173,6.173,0,0,0-2.838-.66,6.269,6.269,0,0,0-3.608,1.144,7.565,7.565,0,0,0-2.178,1.958Zm29.282,5.566c1.078,1.122,2.53,1.5,4.51,1.5a5.627,5.627,0,0,0,4.466-1.65,5.458,5.458,0,0,0,1.32-3.784,5.312,5.312,0,0,0-1.342-3.828c-.858-.9-2.09-1.386-4.378-1.386-.748,0-1.584.022-2.354.066a3.526,3.526,0,0,1,2.134-2.376,15.866,15.866,0,0,1,4.884-1.232v-3.058c-3.542.4-6.226,1.166-8.074,2.684-1.826,1.5-2.728,3.608-2.728,8.14A6.79,6.79,0,0,0,181.412-1.122Zm1.738-4.532c0-.748,0-1.166.044-1.628.44-.022,1.518-.066,2.4-.066,1.21,0,1.826.11,2.266.55a2.251,2.251,0,0,1,.55,1.738,2.382,2.382,0,0,1-.616,1.826,2.41,2.41,0,0,1-1.87.638,2.563,2.563,0,0,1-2.112-.7A3.278,3.278,0,0,1,183.15-5.654Zm14.41,9.79a10.259,10.259,0,0,0,1.364-4.73V-3.916H195.58v3.85a19.9,19.9,0,0,1-.484,4.2Zm4.928-15.356a5.606,5.606,0,0,0,1.3,3.916,4.907,4.907,0,0,0,3.74,1.386,25.164,25.164,0,0,0,3.52-.242,4.782,4.782,0,0,1-.242,1.54,2.408,2.408,0,0,1-1.166,1.5,5.113,5.113,0,0,1-2.442.44,22.151,22.151,0,0,1-4.114-.506V-.132a23.164,23.164,0,0,0,4.246.506c2.354,0,3.982-.572,5.038-1.628a6.314,6.314,0,0,0,1.672-3.3,22.092,22.092,0,0,0,.308-4.312c0-3.146-.55-5.082-1.584-6.314a5.524,5.524,0,0,0-4.576-1.782c-2.046,0-3.454.484-4.444,1.65A5.747,5.747,0,0,0,202.488-11.22Zm3.872-2.024a2.276,2.276,0,0,1,1.914-.748,2.35,2.35,0,0,1,1.98.836c.594.77.792,1.936.792,4.07a24.042,24.042,0,0,1-2.772.22,2.71,2.71,0,0,1-1.958-.506,2.259,2.259,0,0,1-.528-1.848A2.947,2.947,0,0,1,206.36-13.244ZM219.56-.77A7.26,7.26,0,0,0,224.048.4,6.9,6.9,0,0,0,228.8-1.012a4.53,4.53,0,0,0,1.474-3.564,4.575,4.575,0,0,0-.968-2.9,4.809,4.809,0,0,0-1.232-1.056c.352-.374.7-.77,1.034-1.188a4.014,4.014,0,0,0,.9-2.508,4.44,4.44,0,0,0-1.474-3.432,6.638,6.638,0,0,0-4.466-1.3,6.76,6.76,0,0,0-4.532,1.364,4.334,4.334,0,0,0-1.342,3.366,4.206,4.206,0,0,0,.836,2.728,3.752,3.752,0,0,0,1.1.968,8.107,8.107,0,0,0-1.21,1.144,4.264,4.264,0,0,0-.99,2.816A4.577,4.577,0,0,0,219.56-.77Zm1.65-3.938a2.7,2.7,0,0,1,.506-1.672,4.081,4.081,0,0,1,.858-.88,11.954,11.954,0,0,1,3.5.836,1.78,1.78,0,0,1,.946,1.76,1.829,1.829,0,0,1-.7,1.606,3.672,3.672,0,0,1-2.2.55,3.835,3.835,0,0,1-2.31-.55A1.894,1.894,0,0,1,221.21-4.708Zm.748-8.8a3.268,3.268,0,0,1,2.112-.55,3.322,3.322,0,0,1,2.134.572,1.714,1.714,0,0,1,.55,1.43,2.679,2.679,0,0,1-.484,1.606,5.584,5.584,0,0,1-.638.792,11.183,11.183,0,0,1-3.52-.946,1.509,1.509,0,0,1-.66-1.452A1.644,1.644,0,0,1,221.958-13.508ZM235.422-1.232a5.484,5.484,0,0,0,4.4,1.606,5.478,5.478,0,0,0,4.444-1.76c1.386-1.694,1.518-3.674,1.518-6.886,0-3.168-.11-5.676-1.716-7.216a6.067,6.067,0,0,0-4.246-1.474,5.523,5.523,0,0,0-4.73,2c-1.1,1.474-1.166,3.85-1.166,6.688C233.926-5.1,233.992-2.86,235.422-1.232Zm2.2-11.374a2.084,2.084,0,0,1,2.2-1.3,2.262,2.262,0,0,1,2.024.9c.616.946.638,2.376.638,4.664,0,2.486-.044,3.872-.748,4.818a2.3,2.3,0,0,1-1.914.836,2.258,2.258,0,0,1-1.936-.836c-.638-.924-.66-2.376-.66-4.686A13.279,13.279,0,0,1,237.622-12.606Zm14.19,16.742a10.259,10.259,0,0,0,1.364-4.73V-3.916h-3.344v3.85a19.9,19.9,0,0,1-.484,4.2Zm6.6-5.368a5.484,5.484,0,0,0,4.4,1.606,5.478,5.478,0,0,0,4.444-1.76c1.386-1.694,1.518-3.674,1.518-6.886,0-3.168-.11-5.676-1.716-7.216a6.067,6.067,0,0,0-4.246-1.474,5.523,5.523,0,0,0-4.73,2c-1.1,1.474-1.166,3.85-1.166,6.688C256.916-5.1,256.982-2.86,258.412-1.232Zm2.2-11.374a2.084,2.084,0,0,1,2.2-1.3,2.262,2.262,0,0,1,2.024.9c.616.946.638,2.376.638,4.664,0,2.486-.044,3.872-.748,4.818a2.3,2.3,0,0,1-1.914.836,2.258,2.258,0,0,1-1.936-.836c-.638-.924-.66-2.376-.66-4.686A13.279,13.279,0,0,1,260.612-12.606Zm13.31,11.374a5.484,5.484,0,0,0,4.4,1.606,5.478,5.478,0,0,0,4.444-1.76c1.386-1.694,1.518-3.674,1.518-6.886,0-3.168-.11-5.676-1.716-7.216a6.067,6.067,0,0,0-4.246-1.474,5.523,5.523,0,0,0-4.73,2c-1.1,1.474-1.166,3.85-1.166,6.688C272.426-5.1,272.492-2.86,273.922-1.232Zm2.2-11.374a2.084,2.084,0,0,1,2.2-1.3,2.262,2.262,0,0,1,2.024.9c.616.946.638,2.376.638,4.664,0,2.486-.044,3.872-.748,4.818a2.3,2.3,0,0,1-1.914.836,2.258,2.258,0,0,1-1.936-.836c-.638-.924-.66-2.376-.66-4.686A13.279,13.279,0,0,1,276.122-12.606Zm13.31,11.374a5.484,5.484,0,0,0,4.4,1.606,5.478,5.478,0,0,0,4.444-1.76c1.386-1.694,1.518-3.674,1.518-6.886,0-3.168-.11-5.676-1.716-7.216a6.067,6.067,0,0,0-4.246-1.474,5.523,5.523,0,0,0-4.73,2c-1.1,1.474-1.166,3.85-1.166,6.688C287.936-5.1,288-2.86,289.432-1.232Zm2.2-11.374a2.084,2.084,0,0,1,2.2-1.3,2.262,2.262,0,0,1,2.024.9c.616.946.638,2.376.638,4.664,0,2.486-.044,3.872-.748,4.818a2.3,2.3,0,0,1-1.914.836A2.258,2.258,0,0,1,291.9-3.52c-.638-.924-.66-2.376-.66-4.686A13.279,13.279,0,0,1,291.632-12.606ZM306.526-6.82h13.09v5.368c0,.528-.132.594-.99.594-.792,0-1.892-.088-3.344-.242a8.464,8.464,0,0,1,.682,2.376c.858.044,2.068.088,2.926.088a5.411,5.411,0,0,0,2.31-.308c.638-.33.9-.946.9-2.068v-14.1a21.648,21.648,0,0,1,.088-2.4,20.168,20.168,0,0,1-2.4.088H306.416a23.634,23.634,0,0,1-2.442-.088,18.952,18.952,0,0,1,.088,2.112V-1.012a20.894,20.894,0,0,1-.132,2.64h2.706a16.175,16.175,0,0,1-.11-2.552Zm5.214-2.31h-5.214v-5.962h5.214Zm2.376,0v-5.962h5.5V-9.13Z" transform="translate(631 4427.369)" fill="#1c69d4"/>
    <path id="パス_697" data-name="パス 697" d="M1.08-11.31V0H6.045a5.015,5.015,0,0,0,3.27-.825,3.034,3.034,0,0,0,1.11-2.52,2.769,2.769,0,0,0-.48-1.62,4.394,4.394,0,0,0-.9-.855c.18-.27.4-.615.615-.975a3.155,3.155,0,0,0,.51-1.725,2.75,2.75,0,0,0-1.14-2.22,4.248,4.248,0,0,0-2.595-.57ZM3.33-4.665h2.7a3.225,3.225,0,0,1,1.53.225,1.139,1.139,0,0,1,.585,1.1,1.121,1.121,0,0,1-.36.93c-.315.27-.75.345-1.7.345H3.33Zm0-2.07v-2.5H6.18a3.089,3.089,0,0,1,1.32.165.857.857,0,0,1,.405.825,1.757,1.757,0,0,1-.3.93c-.105.18-.255.42-.36.585ZM12.735,0h2.19V-7.905L17.4-2.25h1.965L21.84-7.905V0h2.19V-11.31H21.18L18.4-4.965,15.63-11.31H12.735ZM25.89-11.31,28.17,0h2.88l1.785-6.465L34.62,0h2.85l2.295-11.31H37.5L35.82-2.955,33.99-9.6H31.71L29.85-2.955,28.2-11.31ZM45.675,0h2.19V-7.905L50.34-2.25h1.965L54.78-7.905V0h2.19V-11.31H54.12L51.345-4.965,48.57-11.31H45.675Zm18.1,0V-11.625L58.665-10.05v2.22L61.53-8.7V0Zm2.355-2.19v2.1A16.909,16.909,0,0,0,69.42.255,4.651,4.651,0,0,0,73-.945a3.418,3.418,0,0,0,.84-2.34,2.929,2.929,0,0,0-.69-2.04,3.333,3.333,0,0,0-.705-.63c.12-.165.375-.54.585-.87A3.081,3.081,0,0,0,73.68-8.6a2.786,2.786,0,0,0-.87-2.085,4.411,4.411,0,0,0-3.18-.885,22.566,22.566,0,0,0-3.4.45V-9.03a20.281,20.281,0,0,1,3.36-.45,2.436,2.436,0,0,1,1.605.33.872.872,0,0,1,.27.735,2.385,2.385,0,0,1-.6,1.275l-.36.5H67.275V-4.62H69.3a3.691,3.691,0,0,1,1.545.2,1.154,1.154,0,0,1,.75,1.14A1.232,1.232,0,0,1,71.13-2.22a2.948,2.948,0,0,1-1.755.39A18.093,18.093,0,0,1,66.135-2.19ZM76.35-.045a17.446,17.446,0,0,0,3.06.3,4.194,4.194,0,0,0,3.27-1.1,3.635,3.635,0,0,0,.93-2.625,3.525,3.525,0,0,0-.915-2.565,4.1,4.1,0,0,0-3.06-.975H78.72v-2.22h4.62V-11.31H76.5v6.39h2.205a3.655,3.655,0,0,1,2.19.375,1.2,1.2,0,0,1,.465,1.08,1.415,1.415,0,0,1-.45,1.2,2.341,2.341,0,0,1-1.65.435,16.785,16.785,0,0,1-2.91-.315ZM91.845,0,93.72-2.64,95.55,0h2.6l-2.94-4.125,2.835-3.8H95.49L93.72-5.505,91.995-7.92H89.4l2.835,3.885L89.295,0Zm7.98-11.31V0h3.96a4.89,4.89,0,0,0,3.555-1.08c1.05-.945,1.575-2.31,1.575-4.62,0-2.25-.4-3.4-1.23-4.335-.87-.99-2.07-1.275-3.78-1.275Zm4.1,2.115a2.435,2.435,0,0,1,2.07.675,4.28,4.28,0,0,1,.645,2.82,4.662,4.662,0,0,1-.54,2.61,2.355,2.355,0,0,1-2.25.975h-1.77v-7.08ZM111.345,0h2.19V-4.9A6.037,6.037,0,0,1,114.6-5.46a7.818,7.818,0,0,1,1.725-.45v-2.2a6.825,6.825,0,0,0-1.8.48,6.49,6.49,0,0,0-.99.615v-.9h-2.19Zm8.775,0V-7.92h-2.19V0Zm-2.19-11.31V-9h2.19v-2.31Zm3.705,3.39L124.365,0h2.955l2.76-7.92h-2.325l-1.86,5.76-1.86-5.76Zm10.11,6.87c.63.87,1.485,1.3,3.27,1.3a19.461,19.461,0,0,0,3.045-.3v-1.86a18.754,18.754,0,0,1-2.82.27c-.87,0-1.47-.15-1.785-.615a1.3,1.3,0,0,1-.24-.81H138.3a11.008,11.008,0,0,0,.15-1.62,3.864,3.864,0,0,0-.615-2.37,3.514,3.514,0,0,0-3.015-1.125,3.376,3.376,0,0,0-3.15,1.4,5.819,5.819,0,0,0-.6,2.895A4.543,4.543,0,0,0,131.745-1.05Zm1.74-4.74A1.386,1.386,0,0,1,134.82-6.4a1.491,1.491,0,0,1,1.32.525,1.468,1.468,0,0,1,.225.855,2.48,2.48,0,0,1-.03.405h-3.12A2.361,2.361,0,0,1,133.485-5.79ZM147.39,0V-2.67H144.9V0ZM144.9-7.92v2.67h2.49V-7.92Z" transform="translate(807 4399.369)" fill="#1c69d4"/>
    <path id="パス_696" data-name="パス 696" d="M1.152-12.064V0h5.3A5.349,5.349,0,0,0,9.936-.88,3.236,3.236,0,0,0,11.12-3.568,2.953,2.953,0,0,0,10.608-5.3a4.687,4.687,0,0,0-.96-.912c.192-.288.432-.656.656-1.04a3.365,3.365,0,0,0,.544-1.84,2.933,2.933,0,0,0-1.216-2.368,4.531,4.531,0,0,0-2.768-.608Zm2.4,7.088h2.88a3.44,3.44,0,0,1,1.632.24,1.215,1.215,0,0,1,.624,1.168,1.2,1.2,0,0,1-.384.992c-.336.288-.8.368-1.808.368H3.552Zm0-2.208V-9.856h3.04A3.3,3.3,0,0,1,8-9.68a.914.914,0,0,1,.432.88,1.874,1.874,0,0,1-.32.992c-.112.192-.272.448-.384.624ZM13.584,0H15.92V-8.432L18.56-2.4h2.1L23.3-8.432V0h2.336V-12.064h-3.04L19.632-5.3l-2.96-6.768H13.584ZM27.616-12.064,30.048,0H33.12l1.9-6.9,1.9,6.9h3.04l2.448-12.064H40L38.208-3.152,36.256-10.24H33.824L31.84-3.152l-1.76-8.912ZM53.04,0V-12.4l-5.456,1.68v2.368L50.64-9.28V0Zm2.544,0h8.464V-2.24H58.816c1.136-1.056,2.048-1.92,3.008-2.944a5.114,5.114,0,0,0,1.808-3.824,3.212,3.212,0,0,0-.976-2.384,4.526,4.526,0,0,0-3.328-.944,21.34,21.34,0,0,0-3.52.448v2.24a20.044,20.044,0,0,1,3.28-.448,2.7,2.7,0,0,1,1.744.368,1.13,1.13,0,0,1,.384.944,2.345,2.345,0,0,1-.7,1.5c-1.12,1.376-3.68,3.856-4.928,5.04ZM67.472-.9a3.988,3.988,0,0,0,3.2,1.168A3.984,3.984,0,0,0,73.9-1.008c1.008-1.232,1.1-2.672,1.1-5.008,0-2.3-.08-4.128-1.248-5.248a4.413,4.413,0,0,0-3.088-1.072,4.017,4.017,0,0,0-3.44,1.456c-.8,1.072-.848,2.8-.848,4.864C66.384-3.712,66.432-2.08,67.472-.9Zm1.6-8.272a1.516,1.516,0,0,1,1.6-.944,1.645,1.645,0,0,1,1.472.656c.448.688.464,1.728.464,3.392,0,1.808-.032,2.816-.544,3.5a1.675,1.675,0,0,1-1.392.608,1.643,1.643,0,0,1-1.408-.608c-.464-.672-.48-1.728-.48-3.408A9.657,9.657,0,0,1,69.072-9.168ZM84.864,0V-2.848H82.208V0ZM82.208-8.448V-5.6h2.656V-8.448Z" transform="translate(631 4399.369)" fill="#1c69d4"/>
  </g>
</svg>
