<svg xmlns="http://www.w3.org/2000/svg" width="340.656" height="100.185" viewBox="0 0 340.656 100.185">
  <g id="txt01-07" transform="translate(-222 -2213.119)">
    <g id="Price" transform="translate(0 -8.384)">
      <path id="パス_704" data-name="パス 704" d="M1.134-7.224H13.1L7.287-13.062l.609-.567,6.8,6.8L7.875,0,7.266-.567l5.817-5.817H1.134ZM25.725.252a6.487,6.487,0,0,1-2.4-.42A3.8,3.8,0,0,1,21.756-1.2V-3.675H22.89a4.175,4.175,0,0,0,.945,2.509,2.633,2.633,0,0,0,1.932.725,2.763,2.763,0,0,0,2.006-.683,2.442,2.442,0,0,0,.7-1.837,2.347,2.347,0,0,0-1.155-2.1L23.583-7.476A4.487,4.487,0,0,1,22.25-8.715a2.987,2.987,0,0,1-.472-1.722,3.1,3.1,0,0,1,1.1-2.488,4.547,4.547,0,0,1,3.035-.935,6.116,6.116,0,0,1,2.153.357A4.032,4.032,0,0,1,29.631-12.5v2.541H28.5a4.485,4.485,0,0,0-.8-2.53,2.272,2.272,0,0,0-1.785-.7,2.453,2.453,0,0,0-1.922.672,2.347,2.347,0,0,0-.6,1.617,2,2,0,0,0,.966,1.806l3.675,2.352a5.305,5.305,0,0,1,1.649,1.5,3.168,3.168,0,0,1,.493,1.754,3.583,3.583,0,0,1-.525,1.921A3.555,3.555,0,0,1,28.13-.231,5.475,5.475,0,0,1,25.725.252Zm12.1-13.86a4.3,4.3,0,0,1,3.087.987,3.391,3.391,0,0,1,1.029,2.562,3.661,3.661,0,0,1-.493,1.89,3.512,3.512,0,0,1-1.428,1.333,4.635,4.635,0,0,1-2.194.494H35.175V-.756h1.68V0H31.71V-.756h1.68v-12.1H31.71v-.756ZM37.569-7.14a2.148,2.148,0,0,0,1.712-.809,3.1,3.1,0,0,0,.682-2.069,3.091,3.091,0,0,0-.651-2.069,2.171,2.171,0,0,0-1.743-.766H35.175V-7.14ZM53.55-3.7V0h-10.4V-.756h1.68v-12.1h-1.68v-.756H53.382v3.654h-.8l-1.113-2.9H46.62v5.271h3.3V-9.2h.966v4.032h-.966V-6.783h-3.3V-.756h5.019L52.752-3.7ZM61.257.252A5.539,5.539,0,0,1,57.823-.756,5.657,5.657,0,0,1,55.9-3.329a9.264,9.264,0,0,1-.588-3.286,9.948,9.948,0,0,1,.609-3.476A6.049,6.049,0,0,1,57.876-12.8a5.323,5.323,0,0,1,3.4-1.061,6.4,6.4,0,0,1,2.362.389,7.044,7.044,0,0,1,1.753,1v2.52H64.2a3.736,3.736,0,0,0-1.008-2.457,2.919,2.919,0,0,0-2.058-.777,3.3,3.3,0,0,0-2.971,1.5,6.989,6.989,0,0,0-.977,3.875,12.836,12.836,0,0,0,.451,3.465,6.284,6.284,0,0,0,1.4,2.636A3.077,3.077,0,0,0,61.383-.693a3.678,3.678,0,0,0,2.268-.777,3.654,3.654,0,0,0,1.344-2.247h.8a4.776,4.776,0,0,1-.84,2.037A4.688,4.688,0,0,1,63.336-.263,4.356,4.356,0,0,1,61.257.252ZM72.87-.756V0h-5.9V-.756h2.058v-12.1H67.053v-.756h5.733v.756H70.812v12.1Zm14.175,0V0H82.173V-.756h1.533L82.194-5.019H77.679L76.167-.756H77.7V0H73.773V-.756h1.491l4.641-12.852h.987L85.554-.756ZM81.9-5.817l-1.932-5.439h-.084L77.952-5.817ZM87.969-.756h1.68v-12.1h-1.68v-.756h5.208v.756H91.434v12.1h4.914L97.461-3.7h.8V0H87.969Zm22.659-12.852a4.3,4.3,0,0,1,3.087.987,3.391,3.391,0,0,1,1.029,2.562,3.661,3.661,0,0,1-.493,1.89,3.512,3.512,0,0,1-1.428,1.333,4.635,4.635,0,0,1-2.194.494h-2.646V-.756h1.68V0h-5.145V-.756h1.68v-12.1h-1.68v-.756Zm-.252,6.468a2.148,2.148,0,0,0,1.711-.809,3.1,3.1,0,0,0,.683-2.069,3.091,3.091,0,0,0-.651-2.069,2.171,2.171,0,0,0-1.743-.766h-2.394V-7.14ZM128.583-.756V0H125.37l-3.99-6.279h-1.953V-.756h1.659V0h-5.124V-.756h1.68v-12.1h-1.68v-.756h6.111a4.219,4.219,0,0,1,3.087,1.018A3.494,3.494,0,0,1,126.189-10a3.591,3.591,0,0,1-.777,2.342,3.636,3.636,0,0,1-2.121,1.249l3.78,5.649Zm-9.156-6.321h2.415a2.148,2.148,0,0,0,1.712-.808,3.1,3.1,0,0,0,.683-2.069,3.184,3.184,0,0,0-.662-2.1,2.142,2.142,0,0,0-1.732-.8h-2.415ZM135.282-.756V0h-5.9V-.756h2.058v-12.1h-1.974v-.756H135.2v.756h-1.974v12.1ZM142.716.252a5.539,5.539,0,0,1-3.434-1.008,5.657,5.657,0,0,1-1.921-2.573,9.264,9.264,0,0,1-.588-3.286,9.949,9.949,0,0,1,.609-3.476,6.049,6.049,0,0,1,1.953-2.709,5.323,5.323,0,0,1,3.4-1.061,6.4,6.4,0,0,1,2.363.389,7.044,7.044,0,0,1,1.754,1v2.52h-1.2a3.736,3.736,0,0,0-1.008-2.457,2.919,2.919,0,0,0-2.058-.777,3.3,3.3,0,0,0-2.972,1.5,6.989,6.989,0,0,0-.976,3.875,12.836,12.836,0,0,0,.451,3.465,6.285,6.285,0,0,0,1.4,2.636,3.077,3.077,0,0,0,2.352,1.019,3.678,3.678,0,0,0,2.268-.777,3.654,3.654,0,0,0,1.344-2.247h.8a4.776,4.776,0,0,1-.84,2.037A4.688,4.688,0,0,1,144.8-.263,4.356,4.356,0,0,1,142.716.252ZM158.823-3.7V0h-10.4V-.756h1.68v-12.1h-1.68v-.756h10.227v3.654h-.8l-1.113-2.9h-4.851v5.271h3.3V-9.2h.966v4.032h-.966V-6.783h-3.3V-.756h5.019l1.113-2.94Z" transform="translate(403.131 2319)" fill="#e80000"/>
      <path id="パス_705" data-name="パス 705" d="M10.731-12.852,8.4-8.379h2.31v.8H8L7.266-6.174v.21H10.71v.8H7.266v4.41H9.114V0H3.633V-.756H5.481v-4.41H2.037v-.8H5.313l-.8-1.617H2.037v-.8H4.116L1.89-12.852H.21v-.756H5.544v.756H3.864l2.9,5.9,3.024-5.9H8.106v-.756h4.305v.756Zm7.434,4.011a4.4,4.4,0,0,1,2.047.493,3.89,3.89,0,0,1,1.554,1.481,4.45,4.45,0,0,1,.6,2.352,4.692,4.692,0,0,1-.693,2.6A4.476,4.476,0,0,1,19.919-.3a4.812,4.812,0,0,1-2.194.535A4.827,4.827,0,0,1,15.267-.4a4.467,4.467,0,0,1-1.7-1.722l.672-.42a3.621,3.621,0,0,0,1.386,1.407,3.838,3.838,0,0,0,1.911.483,2.723,2.723,0,0,0,1.481-.431,3.085,3.085,0,0,0,1.1-1.27,4.414,4.414,0,0,0,.42-2,4.217,4.217,0,0,0-.42-1.964,2.828,2.828,0,0,0-1.1-1.2A2.942,2.942,0,0,0,17.535-7.9a2.4,2.4,0,0,0-1.26.315,3.925,3.925,0,0,0-.945.8h-.819l.5-6.825h6.678v1.68H15.666l-.294,4.074a3.7,3.7,0,0,1,1.208-.714A4.462,4.462,0,0,1,18.165-8.841Zm7.665,6.7a1.215,1.215,0,0,1,.934.43A1.739,1.739,0,0,1,27.153-.5a3.157,3.157,0,0,1-.588,1.89,4.1,4.1,0,0,1-1.6,1.3l-.315-.5A3.062,3.062,0,0,0,25.61,1.4,1.637,1.637,0,0,0,26.061.357.637.637,0,0,0,26.04.168a1.3,1.3,0,0,1-.252.021,1.108,1.108,0,0,1-.851-.325,1.166,1.166,0,0,1-.3-.83,1.122,1.122,0,0,1,.347-.84A1.175,1.175,0,0,1,25.83-2.142ZM33.642.231a3.9,3.9,0,0,1-2.52-.882,5.637,5.637,0,0,1-1.691-2.488,10.516,10.516,0,0,1-.6-3.685,10.429,10.429,0,0,1,.6-3.675,5.6,5.6,0,0,1,1.7-2.478,3.937,3.937,0,0,1,2.53-.882,3.967,3.967,0,0,1,2.531.872,5.525,5.525,0,0,1,1.7,2.467,10.429,10.429,0,0,1,.6,3.675,10.352,10.352,0,0,1-.609,3.686,5.746,5.746,0,0,1-1.711,2.5A3.908,3.908,0,0,1,33.642.231Zm.021-.672a2.377,2.377,0,0,0,2.184-1.638A11.71,11.71,0,0,0,36.6-6.825a11.643,11.643,0,0,0-.756-4.725,2.377,2.377,0,0,0-2.184-1.638,2.377,2.377,0,0,0-2.184,1.638,11.643,11.643,0,0,0-.756,4.725,11.71,11.71,0,0,0,.756,4.746A2.377,2.377,0,0,0,33.663-.441Zm15.225-1.2V0H40.635V-.735q2.667-2.9,3.9-4.378a13.31,13.31,0,0,0,1.764-2.594,5.312,5.312,0,0,0,.535-2.331,3.452,3.452,0,0,0-.683-2.321,2.215,2.215,0,0,0-1.753-.787,2.074,2.074,0,0,0-1.827.924,4.44,4.44,0,0,0-.714,2.268H40.719v-2.52a3.927,3.927,0,0,1,1.575-1.008,5.991,5.991,0,0,1,2.121-.378,5.566,5.566,0,0,1,2.027.378,3.631,3.631,0,0,1,1.617,1.228,3.514,3.514,0,0,1,.64,2.174,3.882,3.882,0,0,1-.5,1.9A12.089,12.089,0,0,1,46.526-6q-1.166,1.27-4.21,4.357Zm7.287-7.014a4.4,4.4,0,0,1,2.048.494A3.791,3.791,0,0,1,59.756-6.7a4.378,4.378,0,0,1,.577,2.289,4.806,4.806,0,0,1-.6,2.4A4.283,4.283,0,0,1,58.107-.357a4.491,4.491,0,0,1-2.268.588,4.032,4.032,0,0,1-2.5-.808,5.1,5.1,0,0,1-1.649-2.3,9.624,9.624,0,0,1-.577-3.486,10.216,10.216,0,0,1,.714-3.958,6.342,6.342,0,0,1,1.9-2.635,4.1,4.1,0,0,1,2.572-.924,3.876,3.876,0,0,1,1.964.525,4.727,4.727,0,0,1,1.564,1.491l-.63.525a4.436,4.436,0,0,0-1.271-1.26,2.822,2.822,0,0,0-1.543-.462,2.685,2.685,0,0,0-2.446,1.648,10.2,10.2,0,0,0-.977,4.358A4.244,4.244,0,0,1,54.274-8.19,3.766,3.766,0,0,1,56.175-8.652ZM56.2-.441a1.9,1.9,0,0,0,1.753-.977,4.972,4.972,0,0,0,.578-2.551,4.557,4.557,0,0,0-.8-2.93,2.455,2.455,0,0,0-1.974-.977,2.431,2.431,0,0,0-1.774.714A3.593,3.593,0,0,0,53-5.46a7.566,7.566,0,0,0,1.008,3.727A2.553,2.553,0,0,0,56.2-.441Zm7.182-1.7a1.215,1.215,0,0,1,.935.43A1.739,1.739,0,0,1,64.7-.5a3.157,3.157,0,0,1-.588,1.89,4.1,4.1,0,0,1-1.6,1.3l-.315-.5a3.062,3.062,0,0,0,.956-.788A1.637,1.637,0,0,0,63.609.357a.637.637,0,0,0-.021-.189,1.3,1.3,0,0,1-.252.021,1.108,1.108,0,0,1-.85-.325,1.166,1.166,0,0,1-.3-.83,1.122,1.122,0,0,1,.347-.84A1.175,1.175,0,0,1,63.378-2.142ZM71.19.231a3.9,3.9,0,0,1-2.52-.882,5.637,5.637,0,0,1-1.69-2.488,10.516,10.516,0,0,1-.6-3.685,10.428,10.428,0,0,1,.6-3.675,5.6,5.6,0,0,1,1.7-2.478,3.937,3.937,0,0,1,2.531-.882,3.967,3.967,0,0,1,2.531.872,5.525,5.525,0,0,1,1.7,2.467,10.428,10.428,0,0,1,.6,3.675,10.353,10.353,0,0,1-.609,3.686,5.746,5.746,0,0,1-1.712,2.5A3.908,3.908,0,0,1,71.19.231Zm.021-.672a2.377,2.377,0,0,0,2.184-1.638,11.71,11.71,0,0,0,.756-4.746,11.643,11.643,0,0,0-.756-4.725,2.377,2.377,0,0,0-2.184-1.638,2.377,2.377,0,0,0-2.184,1.638,11.643,11.643,0,0,0-.756,4.725,11.71,11.71,0,0,0,.756,4.746A2.377,2.377,0,0,0,71.211-.441ZM82.194.231a3.9,3.9,0,0,1-2.52-.882,5.637,5.637,0,0,1-1.69-2.488,10.516,10.516,0,0,1-.6-3.685,10.428,10.428,0,0,1,.6-3.675,5.6,5.6,0,0,1,1.7-2.478,3.937,3.937,0,0,1,2.531-.882,3.967,3.967,0,0,1,2.531.872,5.525,5.525,0,0,1,1.7,2.467,10.428,10.428,0,0,1,.6,3.675,10.353,10.353,0,0,1-.609,3.686,5.746,5.746,0,0,1-1.712,2.5A3.908,3.908,0,0,1,82.194.231Zm.021-.672A2.377,2.377,0,0,0,84.4-2.079a11.71,11.71,0,0,0,.756-4.746A11.643,11.643,0,0,0,84.4-11.55a2.377,2.377,0,0,0-2.184-1.638,2.377,2.377,0,0,0-2.184,1.638,11.643,11.643,0,0,0-.756,4.725,11.71,11.71,0,0,0,.756,4.746A2.377,2.377,0,0,0,82.215-.441ZM93.2.231a3.9,3.9,0,0,1-2.52-.882,5.637,5.637,0,0,1-1.69-2.488,10.516,10.516,0,0,1-.6-3.685,10.428,10.428,0,0,1,.6-3.675,5.6,5.6,0,0,1,1.7-2.478,3.937,3.937,0,0,1,2.531-.882,3.967,3.967,0,0,1,2.531.872,5.525,5.525,0,0,1,1.7,2.467,10.428,10.428,0,0,1,.6,3.675,10.353,10.353,0,0,1-.609,3.686,5.746,5.746,0,0,1-1.712,2.5A3.908,3.908,0,0,1,93.2.231Zm.021-.672A2.377,2.377,0,0,0,95.4-2.079a11.71,11.71,0,0,0,.756-4.746A11.643,11.643,0,0,0,95.4-11.55a2.377,2.377,0,0,0-2.184-1.638,2.377,2.377,0,0,0-2.184,1.638,11.643,11.643,0,0,0-.756,4.725,11.71,11.71,0,0,0,.756,4.746A2.377,2.377,0,0,0,93.219-.441Z" transform="translate(301.216 2319)" fill="#262626"/>
      <path id="パス_703" data-name="パス 703" d="M4.367-6.71a9.206,9.206,0,0,1-.55.979h-2.8L.583-5.819V-5.2l.429-.088h2.5A10.13,10.13,0,0,1,.44-2.75l.143.3a8.846,8.846,0,0,0,3.96-2.838H6.369A6.83,6.83,0,0,0,10.021-2.2a4.111,4.111,0,0,1,.539-.957A7.045,7.045,0,0,1,6.809-5.291H9.977l.44.088v-.616l-.44.088H4.84a7.959,7.959,0,0,0,.572-1.056c.407-.033.781-.066.9-.077.462-.033.77-.066.9-.077.088-.011.286-.033.583-.066.077-.011.319-.044.583-.077a7.743,7.743,0,0,1,.946.957l.858-.693A10.888,10.888,0,0,0,6.864-8.613l-.242.253c.715.484,1.034.7,1.353.946-.913.033-2.035.055-3.784.066l-.473.011A7,7,0,0,0,4.884-8.558c.275-.055.385-.121.385-.242,0-.1-.088-.176-.242-.209L4.059-9.24a9.8,9.8,0,0,1-.913,1.9c-.594.011-.726.011-.957.011-.308,0-.737-.011-1.309-.022l.286.8c.066.165.132.242.231.242s.187-.077.286-.264c.462-.022.869-.033,1.012-.044.286-.022.561-.033.836-.055ZM.968.88C4.73.7,6.919.165,9.317-1.155a2.366,2.366,0,0,0,.253.022c.143,0,.253-.077.253-.176,0-.055-.033-.1-.11-.154L8.9-2.024A16.509,16.509,0,0,1,.924.517Zm.22-2.343a11.243,11.243,0,0,0,4.7-2.266h.143c.165,0,.275-.066.275-.154q0-.066-.1-.132l-.726-.517A11.648,11.648,0,0,1,1.111-1.771ZM1.573-.319a13.677,13.677,0,0,0,5.8-2.09,1.4,1.4,0,0,0,.209.011c.143,0,.264-.066.264-.165a.192.192,0,0,0-.1-.143l-.737-.539A13.357,13.357,0,0,1,1.474-.671Zm14.388-5.72V-7.5h2.057l.44.088V-8.03l-.44.088H15.961v-.924c.143-.11.176-.154.176-.22,0-.11-.077-.154-.231-.154h-.858v1.3H12.716l-.429-.088v.616l.429-.088h2.332v1.463h-3.1l-.44-.088v.616l.44-.088h4.521l-.033.022a19.479,19.479,0,0,1-1.672,1.155L14.74-4.4,14.1-4.5l-.11.55A28.224,28.224,0,0,1,11.44-2.64l.121.286a17.607,17.607,0,0,0,2.3-.924c-.154.726-.319,1.4-.55,2.233h.99c.055-.209.121-.528.209-.946h4.95C19.206.176,19.107.352,18.26.363H17.039V.825H18.7c1.309-.011,1.419-.231,1.749-3.256H14.6l.022-.143.033-.132c.011-.044.033-.187.077-.385.011-.1.033-.22.066-.385l.693-.033A29.919,29.919,0,0,0,19.9-3.927a1.379,1.379,0,0,0,.341.044c.11,0,.2-.066.2-.143,0-.044-.022-.088-.143-.2l-.6-.55a22.106,22.106,0,0,1-4.246.847l-.22.033-.231.022A22.371,22.371,0,0,0,17.611-5.6h3.443l.44.088v-.616l-.44.088H18.161A18.456,18.456,0,0,0,20.3-8.107c.352-.033.473-.1.473-.22,0-.077-.055-.143-.2-.209l-.715-.4a16.9,16.9,0,0,1-2.827,2.893Zm11.649-.1H25.729v6.9h.814v-.7H31.2V.682h.847v-6.82H30.118V-8.283h2l.44.088v-.616l-.44.088H25.938l-.429-.088v.616l.429-.088H27.61Zm.759-2.145h.99v2.145h-.99Zm0,2.585h.99V-.385h-.99ZM27.61-.385H26.543V-5.7H27.61ZM30.118-5.7H31.2V-.385H30.118ZM24.574-6.787c.231-.649.33-.957.583-1.771.176-.033.264-.11.264-.22,0-.088-.077-.154-.187-.187L24.31-9.24a26.072,26.072,0,0,1-1.87,5.973l.231.176a11.922,11.922,0,0,0,1.045-1.694v5.6h.858ZM36.685-2.541a10.587,10.587,0,0,0,3.564-2.09A10.625,10.625,0,0,0,43.142-2.8a3.644,3.644,0,0,1,.418-.858,11.384,11.384,0,0,1-2.794-1.485A11.368,11.368,0,0,0,42.8-8.063H39.226l.011-.033c.121-.231.132-.253.275-.561.209-.077.3-.143.3-.22a.206.206,0,0,0-.11-.154l-.935-.209a10.231,10.231,0,0,1-.792,2.013,10.169,10.169,0,0,1-1.045,1.683l.22.209A7.473,7.473,0,0,0,38.72-7.172a4.992,4.992,0,0,0,1.012,2,12.072,12.072,0,0,1-3.157,2.354Zm2.31-5.082h2.64a13.333,13.333,0,0,1-1.463,1.991,4.141,4.141,0,0,1-1.221-1.925ZM35.1.814h.847V-5.027a7.417,7.417,0,0,1,.781,1.672l.682-.594a3.89,3.89,0,0,0-1.463-1.4V-6.49h.8l.44.088v-.616l-.44.088h-.8V-8.811c.132-.1.176-.143.176-.22,0-.1-.077-.143-.231-.143H35.1V-6.93H33.946l-.44-.088V-6.4l.44-.088H35A18.4,18.4,0,0,1,33.44-1.859l.242.165A10.825,10.825,0,0,0,35.1-4.29ZM42.515.748v-3.7H37.906V.814h.869V.286h2.86V.748Zm-3.74-.9V-2.508h2.86V-.154ZM49.247-8.393A9.6,9.6,0,0,0,47.674-3.2a9.6,9.6,0,0,0,1.573,5.192h.6A12.494,12.494,0,0,1,49.071.2a10.785,10.785,0,0,1-.539-3.4,10.785,10.785,0,0,1,.539-3.4,12.494,12.494,0,0,1,.781-1.793ZM52.415.814h.814v-5.1a12.619,12.619,0,0,1,.825,1.9l.737-.649a6.87,6.87,0,0,0-1.562-1.606v-1.21h.913l.429.088V-6.38l-.429.088h-.913V-8.239c.286-.066.33-.077.748-.2a1.412,1.412,0,0,0,.275.044c.143,0,.242-.066.242-.165,0-.066-.022-.1-.11-.176l-.572-.506a13.145,13.145,0,0,1-3.036,1l.033.3a13.166,13.166,0,0,0,1.606-.143v1.793h-1.2l-.44-.088v.616l.44-.088h1.089a18.955,18.955,0,0,1-1.6,4.532l.22.187A9.318,9.318,0,0,0,52.415-3.74ZM54.989-6.82V-3.3h1.144v.033C56.045-1.155,55.4-.033,53.878.583l.143.3C56.034.418,56.969-.88,57.013-3.3h.858V-.1c.033.407.352.638.88.638h1.133c.55,0,.781-.209.825-.77l.121-1.342-.462-.055L60.291-.616c-.033.264-.121.341-.363.352h-.869c-.253-.011-.308-.066-.319-.3V-3.3h1.441V-6.82H58.5a7.537,7.537,0,0,0,1.166-1.749c.22-.022.341-.1.341-.209a.22.22,0,0,0-.176-.2L58.817-9.24a18.659,18.659,0,0,1-.726,2.42Zm.869,3.08V-6.38H59.3v2.64Zm-.682-5.247a8.362,8.362,0,0,1,.979,2.013l.9-.484a4.92,4.92,0,0,0-1.606-1.716ZM63.844-.7A3.007,3.007,0,0,0,66.55.506c.572.033,1.958.066,3.036.066.462,0,1.1-.011,1.969-.022a7.073,7.073,0,0,1,.264-.869c-.715.044-2.53.088-3.894.088A9.317,9.317,0,0,1,64.9-.484a1.944,1.944,0,0,1-.748-.506V-5.06H62.216l-.44-.088v.616l.44-.088h1.056V-.946a12.041,12.041,0,0,1-1.562.594l.352.957a.19.19,0,0,0,.154.121c.11,0,.2-.121.253-.363A10.966,10.966,0,0,0,63.811-.682Zm2.574-8.118-.44-.088v.638l.44-.088h1.793c.011.3.011.429.022.572a9.912,9.912,0,0,1-3.542,6.38l.143.264a7.159,7.159,0,0,0,3.674-4.5,7.153,7.153,0,0,0,2.717,4.389c.275-.473.319-.539.594-.979a6.389,6.389,0,0,1-2.53-3.036,9.384,9.384,0,0,1-.572-3.553Zm-1.859.759a5.049,5.049,0,0,0-2.2-.814l-.132.275a7.705,7.705,0,0,1,1.727,1.529Zm8.129-.33A13.05,13.05,0,0,1,73.469-6.6a10.835,10.835,0,0,1,.539,3.4A10.784,10.784,0,0,1,73.469.2a12.494,12.494,0,0,1-.781,1.793h.605A9.628,9.628,0,0,0,74.866-3.2a9.628,9.628,0,0,0-1.573-5.192Z" transform="translate(221.56 2318)" fill="#262626"/>
    </g>
    <path id="パス_702" data-name="パス 702" d="M10.98-9.648a46.277,46.277,0,0,0,3.834-3.384c.486-.054.684-.18.684-.432a.558.558,0,0,0-.288-.414L13.824-14.8l-.648.972A35.018,35.018,0,0,1,1.368-5.634l.2.54a23.741,23.741,0,0,0,7.74-3.348v9.4H10.98Zm23.544-1.62a17.867,17.867,0,0,1-4.59,5.832,16.931,16.931,0,0,1-8.262,3.654l-.954.018.648,1.6c.108.252.27.4.45.4.2,0,.342-.126.468-.414,4.068-.918,6.624-2.142,8.838-4.23a15.172,15.172,0,0,0,3.906-6.624ZM20.556-13.23a16.922,16.922,0,0,1,4.482,3.852l1.476-1.494A11.108,11.108,0,0,0,20.772-13.7Zm31.05,5.778.792.162V-8.442l-.792.162H37.746l-.792-.162V-7.29l.792-.162h6.282a8.846,8.846,0,0,1-.864,4.32,8.537,8.537,0,0,1-5.2,3.708l.144.612a11.044,11.044,0,0,0,6.03-2.952c1.134-1.242,1.656-3.024,1.656-5.688ZM48.42-13.32H39.942l-.792-.162v1.152l.792-.162H48.42l.792.162v-1.152Zm5.04-.108A3.555,3.555,0,0,0,51.336-15.3l-.288.252a7.235,7.235,0,0,1,1.206,2.268Zm-4.392-1.35a8.06,8.06,0,0,1,1.1,2.466l1.188-.576a3.435,3.435,0,0,0-1.962-2.124Zm13.9,15.93h1.512V-6.84c.882-.774,1.566-1.422,2.52-2.412.342-.036.486-.108.486-.306,0-.108-.072-.2-.234-.306l-1.242-.846-.5.738a23.779,23.779,0,0,1-8.5,6.606l.162.486a17.072,17.072,0,0,0,5.8-2.754Zm26.5-14.616A3.606,3.606,0,0,0,87.372-15.3l-.306.234a7.029,7.029,0,0,1,1.17,2.232ZM75.15-10.908H85.32V-1.44H75.1l-.81-.162V-.45l.81-.162h11.97V-11.736H75.15l-.792-.162v1.152Zm9.792-4.086a7.761,7.761,0,0,1,1.044,2.412l1.206-.54A3.458,3.458,0,0,0,85.3-15.21Zm14.076,6.21a1.955,1.955,0,0,0-1.98,1.944A1.955,1.955,0,0,0,99-4.878a1.963,1.963,0,0,0,1.944-1.962A1.968,1.968,0,0,0,99.018-8.784Zm20.664-1.4h-5.526V-13.23c.27-.2.36-.324.36-.468a.351.351,0,0,0-.342-.324l-1.746-.126.162,1.08v2.88H109.8l-.72-.144v1.116l.72-.144h2.79v4.878h1.566V-9.36h5.526v1.008c-.036,3.294-.54,5.076-1.728,6.21A9.566,9.566,0,0,1,113.85.18l.18.612a11.412,11.412,0,0,0,4.824-1.98c1.836-1.386,2.43-3.132,2.466-7.164V-9.36h2.88l.72.144v-1.116l-.72.144h-2.88V-13.32c.27-.18.36-.306.36-.45a.339.339,0,0,0-.342-.324l-1.818-.126.162,1.08Zm22.842-1.08a17.867,17.867,0,0,1-4.59,5.832,16.931,16.931,0,0,1-8.262,3.654l-.954.018.648,1.6c.108.252.27.4.45.4.2,0,.342-.126.468-.414,4.068-.918,6.624-2.142,8.838-4.23a15.172,15.172,0,0,0,3.906-6.624ZM128.556-13.23a16.922,16.922,0,0,1,4.482,3.852l1.476-1.494a11.108,11.108,0,0,0-5.742-2.826Zm22.788,3.15v-3.474c.27-.18.36-.306.36-.468a.337.337,0,0,0-.342-.306l-1.818-.126.162,1.1v3.42l-3.888.324-.846-.09.09,1.17.828-.234,3.816-.342v6.966c0,1.224.288,1.746,1.08,1.944a26.689,26.689,0,0,0,4.194.2,35.547,35.547,0,0,0,4.644-.2V-1.836a26.007,26.007,0,0,1-5.076.324c-2.916,0-3.2-.09-3.2-1.044v-6.7l7.146-.612a13.6,13.6,0,0,1-4.428,5.346l.288.468a11.041,11.041,0,0,0,6.408-6.858ZM168.192,1.062a9.547,9.547,0,0,0,5.688-3.168,13.983,13.983,0,0,0,2.7-6.336c.288-.072.4-.18.4-.342,0-.108-.09-.216-.27-.27l-1.692-.54-.036.954a17.342,17.342,0,0,1-1.89,5.184,9.5,9.5,0,0,1-5.076,4Zm.4-6.426a6.741,6.741,0,0,0-2.97-4l-.306.234a12.09,12.09,0,0,1,1.854,4.3Zm3.564-.45a7.123,7.123,0,0,0-2.844-4l-.324.252a12.169,12.169,0,0,1,1.728,4.3Zm15.336-7.9c.234-.126.36-.27.36-.432s-.144-.288-.36-.306l-1.8-.126.126,1.08V.864h1.674v-9.54A17.881,17.881,0,0,1,194.2-4.032l1.224-1.638a19.21,19.21,0,0,0-7.938-3.672Zm19.53,4.932a1.955,1.955,0,0,0-1.98,1.944A1.955,1.955,0,0,0,207-4.878a1.963,1.963,0,0,0,1.944-1.962A1.968,1.968,0,0,0,207.018-8.784Zm26.442-4.68a3.554,3.554,0,0,0-2.088-1.836l-.306.252a7.008,7.008,0,0,1,1.188,2.232ZM219.942.486c3.78-.81,6.084-2,8.028-4.158a15.25,15.25,0,0,0,3.492-8.622H219.1l-.792-.162V-11.3l.792-.162h10.4a13.278,13.278,0,0,1-9.756,11.34Zm9.018-15.444a7,7,0,0,1,1.008,2.3l1.242-.558a3.585,3.585,0,0,0-1.89-1.98ZM243.5.576a8.918,8.918,0,0,0,5.346-3.258A12.6,12.6,0,0,0,251.46-8.6l-.558-.18c-1.188,3.384-3.438,6.138-5.8,7.092V-13.32c.27-.18.36-.306.36-.468a.337.337,0,0,0-.342-.306l-1.782-.126.162,1.08ZM234.99.63a9.875,9.875,0,0,0,4.032-4.284c.738-1.6,1.062-3.708,1.062-7.02v-2.034c.27-.18.36-.306.36-.468a.324.324,0,0,0-.342-.306l-1.836-.126.162,1.08v2.016c0,5.472-.864,7.938-3.762,10.674Zm33.642-7.9L253.6-7.83v1.89l15.03-.54Z" transform="translate(222 2280.547)" fill="#262626"/>
    <path id="パス_701" data-name="パス 701" d="M3.48-.864H5.592V-14.688H2.616L1.368-11.376H.48v-4.176H12.7v4.176h-.888l-1.2-3.312H7.632V-.864H9.744V0H3.48ZM27.048-14.688V-.864h1.92V0H23.136V-.864h1.872V-7.752h-7.08V-.864H19.8V0H13.968V-.864h1.92V-14.688h-1.92v-.864H19.8v.864H17.928v6.024h7.08v-6.024H23.136v-.864h5.832v.864ZM42.432-4.224V0H30.552V-.864h1.92V-14.688h-1.92v-.864H42.24v4.176h-.912l-1.272-3.312H34.512v6.024H38.28v-1.848h1.1V-5.9h-1.1V-7.752H34.512V-.864h5.736l1.272-3.36Zm7.536,3.36h1.92V-14.688h-1.92v-.864H53.88L61.1-3.888v-10.8h-1.92v-.864h4.872v.864h-1.92V0h-1.1L52.92-13.224V-.864h1.92V0H49.968ZM77.28-4.224V0H65.4V-.864h1.92V-14.688H65.4v-.864H77.088v4.176h-.912L74.9-14.688H69.36v6.024h3.768v-1.848h1.1V-5.9h-1.1V-7.752H69.36V-.864H75.1l1.272-3.36Zm23.88-10.464H99.384L95.232,0h-1.1l-4.3-12.144L85.92,0h-1.1L80.424-14.688h-1.9v-.864h6v.864h-1.92L85.9-3.24l3.912-12.216h1.008L95.208-3.312l3.144-11.376h-1.9v-.864h4.7ZM108.216-.864h1.92V-14.688h-1.92v-.864h4.1L117.6-3.528l5.088-12.024H126.7v.864h-1.92V-.864h1.92V0h-5.88V-.864h1.92v-12.12L117.6-.888h-1.1L111.168-13.08V-.864h1.848V0h-4.8Zm26.808,0V0H128.28V-.864h2.352V-14.688h-2.256v-.864h6.552v.864h-2.256V-.864Zm1.584,0h1.92V-14.688h-1.92v-.864h3.912l7.224,11.664v-10.8h-1.92v-.864H150.7v.864h-1.92V0h-1.1L139.56-13.224V-.864h1.92V0h-4.872Zm22.176,0V0H152.04V-.864h2.352V-14.688h-2.256v-.864h6.552v.864h-2.256V-.864ZM173.16.288a6.33,6.33,0,0,1-3.924-1.152,6.466,6.466,0,0,1-2.2-2.94,10.588,10.588,0,0,1-.672-3.756,11.369,11.369,0,0,1,.7-3.972,6.913,6.913,0,0,1,2.232-3.1,6.084,6.084,0,0,1,3.888-1.212,7.31,7.31,0,0,1,2.7.444,8.05,8.05,0,0,1,2,1.14v2.88H176.52a4.27,4.27,0,0,0-1.152-2.808,3.336,3.336,0,0,0-2.352-.888,3.773,3.773,0,0,0-3.4,1.716A7.988,7.988,0,0,0,168.5-8.928a14.67,14.67,0,0,0,.516,3.96,7.182,7.182,0,0,0,1.6,3.012A3.517,3.517,0,0,0,173.3-.792,4.2,4.2,0,0,0,175.9-1.68a4.176,4.176,0,0,0,1.536-2.568h.912a5.458,5.458,0,0,1-.96,2.328A5.358,5.358,0,0,1,175.536-.3,4.978,4.978,0,0,1,173.16.288Zm13.464,0a6.1,6.1,0,0,1-3.756-1.1,6.307,6.307,0,0,1-2.148-2.868,10.528,10.528,0,0,1-.672-3.78,11.612,11.612,0,0,1,.684-3.948,7.054,7.054,0,0,1,2.244-3.168,6.139,6.139,0,0,1,3.984-1.26,6.207,6.207,0,0,1,3.78,1.1,6.487,6.487,0,0,1,2.208,2.868,9.989,9.989,0,0,1,.708,3.756,11.124,11.124,0,0,1-.72,3.936,7.349,7.349,0,0,1-2.292,3.192A6.187,6.187,0,0,1,186.624.288ZM187.2-.5a3.531,3.531,0,0,0,3.216-1.764,8.968,8.968,0,0,0,1.08-4.716,14.262,14.262,0,0,0-.516-3.876,6.994,6.994,0,0,0-1.644-3.012,3.846,3.846,0,0,0-2.9-1.176,3.447,3.447,0,0,0-3.2,1.74,8.658,8.658,0,0,0-1.02,4.428,13.365,13.365,0,0,0,1.2,5.928A3.973,3.973,0,0,0,187.2-.5Zm14.976.792a5.315,5.315,0,0,1-3.816-1.344,5.075,5.075,0,0,1-1.416-3.864v-9.768h-1.92v-.864h5.88v.864h-1.92V-4.68a3.882,3.882,0,0,0,1,2.952,3.681,3.681,0,0,0,2.628.936,3.828,3.828,0,0,0,2.676-.948,3.749,3.749,0,0,0,1.044-2.916V-14.688h-1.9v-.864h4.824v.864h-1.9V-4.56a4.593,4.593,0,0,1-1.416,3.528A5.3,5.3,0,0,1,202.176.288Zm8.376-1.152h1.92V-14.688h-1.92v-.864h3.912l7.224,11.664v-10.8h-1.92v-.864h4.872v.864h-1.92V0h-1.1L213.5-13.224V-.864h1.92V0h-4.872Zm18.12,0h2.112V-14.688h-2.976l-1.248,3.312h-.888v-4.176h12.216v4.176H237l-1.2-3.312h-2.976V-.864h2.112V0h-6.264Zm24.912,0V0h-3.672l-4.56-7.176H243.12V-.864h1.9V0H239.16V-.864h1.92V-14.688h-1.92v-.864h6.984a4.822,4.822,0,0,1,3.528,1.164,3.993,3.993,0,0,1,1.176,2.964,4.1,4.1,0,0,1-.888,2.676,4.156,4.156,0,0,1-2.424,1.428l4.32,6.456ZM243.12-8.088h2.76a2.455,2.455,0,0,0,1.956-.924,3.539,3.539,0,0,0,.78-2.364,3.639,3.639,0,0,0-.756-2.4,2.448,2.448,0,0,0-1.98-.912h-2.76Zm17.208,1.032V-.864h2.112V0h-6.264V-.864h2.112V-6.432l-4.1-8.256h-1.92v-.864h6.1v.864h-1.92l3.312,6.744,3.456-6.744h-1.92v-.864h4.92v.864h-1.92ZM267-.864h1.92V-14.688H267v-.864h4.1l5.28,12.024,5.088-12.024h4.008v.864h-1.92V-.864h1.92V0H279.6V-.864h1.92v-12.12l-5.136,12.1h-1.1L269.952-13.08V-.864H271.8V0H267Zm34.68,0V0h-5.568V-.864h1.752l-1.728-4.872h-5.16L289.248-.864H291V0h-4.488V-.864h1.7l5.3-14.688h1.128L299.976-.864ZM295.8-6.648l-2.208-6.216h-.1l-2.208,6.216Zm6.936,5.784h1.92V-14.688h-1.92v-.864h3.912l7.224,11.664v-10.8h-1.92v-.864h4.872v.864H314.9V0h-1.1l-8.112-13.224V-.864h1.92V0h-4.872ZM330.96.288a6.33,6.33,0,0,1-3.924-1.152,6.466,6.466,0,0,1-2.2-2.94,10.587,10.587,0,0,1-.672-3.756,11.369,11.369,0,0,1,.7-3.972,6.913,6.913,0,0,1,2.232-3.1,6.084,6.084,0,0,1,3.888-1.212,7.31,7.31,0,0,1,2.7.444,8.051,8.051,0,0,1,2,1.14v2.88H334.32a4.27,4.27,0,0,0-1.152-2.808,3.336,3.336,0,0,0-2.352-.888,3.773,3.773,0,0,0-3.4,1.716A7.988,7.988,0,0,0,326.3-8.928a14.67,14.67,0,0,0,.516,3.96,7.182,7.182,0,0,0,1.6,3.012A3.517,3.517,0,0,0,331.1-.792,4.2,4.2,0,0,0,333.7-1.68a4.176,4.176,0,0,0,1.536-2.568h.912a5.458,5.458,0,0,1-.96,2.328A5.358,5.358,0,0,1,333.336-.3,4.978,4.978,0,0,1,330.96.288Zm8.256-.024a1.389,1.389,0,0,1-1.02-.42,1.389,1.389,0,0,1-.42-1.02,1.389,1.389,0,0,1,.42-1.02,1.389,1.389,0,0,1,1.02-.42,1.389,1.389,0,0,1,1.02.42,1.389,1.389,0,0,1,.42,1.02,1.389,1.389,0,0,1-.42,1.02A1.389,1.389,0,0,1,339.216.264ZM7.7,26.288A6.33,6.33,0,0,1,3.78,25.136a6.466,6.466,0,0,1-2.2-2.94A10.587,10.587,0,0,1,.912,18.44a11.37,11.37,0,0,1,.7-3.972,6.913,6.913,0,0,1,2.232-3.1A6.084,6.084,0,0,1,7.728,10.16a7.31,7.31,0,0,1,2.7.444,8.05,8.05,0,0,1,2,1.14v2.88H11.064a4.27,4.27,0,0,0-1.152-2.808,3.336,3.336,0,0,0-2.352-.888,3.773,3.773,0,0,0-3.4,1.716,7.988,7.988,0,0,0-1.116,4.428,14.67,14.67,0,0,0,.516,3.96,7.182,7.182,0,0,0,1.6,3.012,3.517,3.517,0,0,0,2.688,1.164,4.17,4.17,0,0,0,4.128-3.456h.912a5.458,5.458,0,0,1-.96,2.328A5.358,5.358,0,0,1,10.08,25.7,4.978,4.978,0,0,1,7.7,26.288Zm6.528-1.152h1.92V11.312h-1.92v-.864h5.952v.864H18.192V25.136h5.616l1.272-3.36h.912V26H14.232Zm27.888,0V26H36.552v-.864H38.3l-1.728-4.872h-5.16l-1.728,4.872H31.44V26H26.952v-.864h1.7l5.3-14.688h1.128l5.328,14.688Zm-5.88-5.784-2.208-6.216h-.1l-2.208,6.216ZM47.9,26.288a7.414,7.414,0,0,1-2.748-.48,4.348,4.348,0,0,1-1.788-1.176V21.8h1.3a4.771,4.771,0,0,0,1.08,2.868,3.009,3.009,0,0,0,2.208.828,3.158,3.158,0,0,0,2.292-.78,2.791,2.791,0,0,0,.8-2.1,2.683,2.683,0,0,0-1.32-2.4l-4.272-2.76a5.128,5.128,0,0,1-1.524-1.416,3.414,3.414,0,0,1-.54-1.968,3.541,3.541,0,0,1,1.26-2.844A5.2,5.2,0,0,1,48.12,10.16a6.989,6.989,0,0,1,2.46.408,4.609,4.609,0,0,1,1.788,1.152v2.9h-1.3a5.126,5.126,0,0,0-.912-2.892,2.6,2.6,0,0,0-2.04-.8,2.8,2.8,0,0,0-2.2.768,2.683,2.683,0,0,0-.684,1.848,2.284,2.284,0,0,0,1.1,2.064l4.2,2.688a6.063,6.063,0,0,1,1.884,1.716,3.621,3.621,0,0,1,.564,2,3.981,3.981,0,0,1-2.34,3.72A6.258,6.258,0,0,1,47.9,26.288Zm11.592,0a7.414,7.414,0,0,1-2.748-.48,4.348,4.348,0,0,1-1.788-1.176V21.8h1.3a4.771,4.771,0,0,0,1.08,2.868,3.009,3.009,0,0,0,2.208.828,3.158,3.158,0,0,0,2.292-.78,2.791,2.791,0,0,0,.8-2.1,2.683,2.683,0,0,0-1.32-2.4l-4.272-2.76a5.128,5.128,0,0,1-1.524-1.416,3.414,3.414,0,0,1-.54-1.968,3.541,3.541,0,0,1,1.26-2.844,5.2,5.2,0,0,1,3.468-1.068,6.989,6.989,0,0,1,2.46.408A4.609,4.609,0,0,1,63.96,11.72v2.9h-1.3a5.126,5.126,0,0,0-.912-2.892,2.6,2.6,0,0,0-2.04-.8,2.8,2.8,0,0,0-2.2.768,2.683,2.683,0,0,0-.684,1.848,2.284,2.284,0,0,0,1.1,2.064l4.2,2.688a6.063,6.063,0,0,1,1.884,1.716,3.621,3.621,0,0,1,.564,2,3.981,3.981,0,0,1-2.34,3.72A6.258,6.258,0,0,1,59.5,26.288ZM73.08,25.136V26H66.336v-.864h2.352V11.312H66.432v-.864h6.552v.864H70.728V25.136Zm8.5,1.152a6.33,6.33,0,0,1-3.924-1.152,6.466,6.466,0,0,1-2.2-2.94,10.587,10.587,0,0,1-.672-3.756,11.37,11.37,0,0,1,.7-3.972,6.913,6.913,0,0,1,2.232-3.1A6.084,6.084,0,0,1,81.6,10.16a7.31,7.31,0,0,1,2.7.444,8.05,8.05,0,0,1,2,1.14v2.88H84.936a4.27,4.27,0,0,0-1.152-2.808,3.336,3.336,0,0,0-2.352-.888,3.773,3.773,0,0,0-3.4,1.716,7.988,7.988,0,0,0-1.116,4.428,14.67,14.67,0,0,0,.516,3.96,7.182,7.182,0,0,0,1.6,3.012,3.517,3.517,0,0,0,2.688,1.164,4.17,4.17,0,0,0,4.128-3.456h.912a5.458,5.458,0,0,1-.96,2.328,5.358,5.358,0,0,1-1.848,1.62A4.978,4.978,0,0,1,81.576,26.288Zm15.1-1.152h2.112V11.312H95.808L94.56,14.624h-.888V10.448h12.216v4.176H105l-1.2-3.312h-2.976V25.136h2.112V26H96.672Zm24.912,0V26h-3.672l-4.56-7.176H111.12v6.312h1.9V26H107.16v-.864h1.92V11.312h-1.92v-.864h6.984a4.822,4.822,0,0,1,3.528,1.164,3.993,3.993,0,0,1,1.176,2.964,4.1,4.1,0,0,1-.888,2.676,4.156,4.156,0,0,1-2.424,1.428l4.32,6.456ZM111.12,17.912h2.76a2.455,2.455,0,0,0,1.956-.924,3.539,3.539,0,0,0,.78-2.364,3.639,3.639,0,0,0-.756-2.4,2.448,2.448,0,0,0-1.98-.912h-2.76Zm18.12,7.224V26H122.5v-.864h2.352V11.312h-2.256v-.864h6.552v.864h-2.256V25.136Zm1.584,0h1.92V11.312h-1.92v-.864h4.1l5.28,12.024L145.3,10.448H149.3v.864h-1.92V25.136h1.92V26h-5.88v-.864h1.92V13.016l-5.136,12.1h-1.1L133.776,12.92V25.136h1.848V26h-4.8Z" transform="translate(222 2228.959)" fill="#262626"/>
  </g>
</svg>
