<svg xmlns="http://www.w3.org/2000/svg" width="340.656" height="102.119" viewBox="0 0 340.656 102.119">
  <g id="txt01-07" transform="translate(-222 -2213.11)">
    <g id="Price" transform="translate(0 -8.474)">
      <path id="パス_712" data-name="パス 712" d="M10.731-12.852,8.4-8.379h2.31v.8H8l-.734,1.4v.21H10.71v.8H7.266v4.41H9.114V0H3.633V-.756H5.481v-4.41H2.037v-.8H5.313l-.8-1.617H2.037v-.8H4.116L1.89-12.852H.21v-.756H5.544v.756H3.864l2.9,5.9,3.024-5.9H8.106v-.756h4.3v.756Zm7.434,4.011a4.4,4.4,0,0,1,2.047.493,3.89,3.89,0,0,1,1.554,1.481,4.45,4.45,0,0,1,.6,2.352,4.692,4.692,0,0,1-.693,2.6A4.476,4.476,0,0,1,19.919-.3a4.812,4.812,0,0,1-2.194.535A4.827,4.827,0,0,1,15.267-.4a4.467,4.467,0,0,1-1.7-1.722l.672-.42a3.621,3.621,0,0,0,1.386,1.407,3.838,3.838,0,0,0,1.911.483,2.723,2.723,0,0,0,1.481-.431,3.085,3.085,0,0,0,1.1-1.27,4.414,4.414,0,0,0,.42-2,4.217,4.217,0,0,0-.42-1.964,2.828,2.828,0,0,0-1.1-1.2A2.942,2.942,0,0,0,17.535-7.9a2.4,2.4,0,0,0-1.26.315,3.925,3.925,0,0,0-.945.8h-.819l.5-6.825h6.678v1.68H15.666l-.294,4.074A3.7,3.7,0,0,1,16.58-8.57,4.462,4.462,0,0,1,18.165-8.841Zm7.665,6.7a1.215,1.215,0,0,1,.934.43A1.739,1.739,0,0,1,27.153-.5a3.157,3.157,0,0,1-.588,1.89,4.1,4.1,0,0,1-1.6,1.3l-.315-.5a3.062,3.062,0,0,0,.96-.79A1.637,1.637,0,0,0,26.061.357.637.637,0,0,0,26.04.168a1.3,1.3,0,0,1-.252.021,1.108,1.108,0,0,1-.851-.325,1.166,1.166,0,0,1-.3-.83,1.122,1.122,0,0,1,.347-.84,1.175,1.175,0,0,1,.846-.336ZM33.642.231a3.9,3.9,0,0,1-2.52-.882,5.637,5.637,0,0,1-1.691-2.488,10.516,10.516,0,0,1-.6-3.685,10.429,10.429,0,0,1,.6-3.675,5.6,5.6,0,0,1,1.7-2.478,3.937,3.937,0,0,1,2.53-.882,3.967,3.967,0,0,1,2.531.872,5.525,5.525,0,0,1,1.7,2.467,10.429,10.429,0,0,1,.6,3.675,10.352,10.352,0,0,1-.609,3.686,5.746,5.746,0,0,1-1.711,2.5,3.908,3.908,0,0,1-2.53.89Zm.021-.672a2.377,2.377,0,0,0,2.184-1.638A11.71,11.71,0,0,0,36.6-6.825a11.643,11.643,0,0,0-.756-4.725,2.377,2.377,0,0,0-2.184-1.638,2.377,2.377,0,0,0-2.184,1.638,11.643,11.643,0,0,0-.756,4.725,11.71,11.71,0,0,0,.756,4.746A2.377,2.377,0,0,0,33.663-.441Zm15.225-1.2V0H40.635V-.735q2.667-2.9,3.9-4.378A13.31,13.31,0,0,0,46.3-7.707a5.312,5.312,0,0,0,.535-2.331,3.452,3.452,0,0,0-.683-2.321,2.215,2.215,0,0,0-1.753-.787,2.074,2.074,0,0,0-1.827.924,4.44,4.44,0,0,0-.714,2.268H40.719v-2.52a3.927,3.927,0,0,1,1.575-1.008,5.991,5.991,0,0,1,2.121-.378,5.566,5.566,0,0,1,2.027.378,3.631,3.631,0,0,1,1.617,1.228,3.514,3.514,0,0,1,.64,2.174,3.882,3.882,0,0,1-.5,1.9A12.089,12.089,0,0,1,46.526-6q-1.166,1.27-4.21,4.357Zm7.287-7.014a4.4,4.4,0,0,1,2.048.494A3.791,3.791,0,0,1,59.756-6.7a4.378,4.378,0,0,1,.577,2.289,4.806,4.806,0,0,1-.6,2.4A4.283,4.283,0,0,1,58.107-.357a4.491,4.491,0,0,1-2.268.588,4.032,4.032,0,0,1-2.5-.808,5.1,5.1,0,0,1-1.649-2.3,9.624,9.624,0,0,1-.577-3.486,10.216,10.216,0,0,1,.714-3.958,6.342,6.342,0,0,1,1.9-2.635A4.1,4.1,0,0,1,56.3-13.88a3.876,3.876,0,0,1,1.964.525,4.727,4.727,0,0,1,1.564,1.491l-.63.525a4.436,4.436,0,0,0-1.271-1.26,2.822,2.822,0,0,0-1.543-.462,2.685,2.685,0,0,0-2.446,1.648,10.2,10.2,0,0,0-.977,4.358A4.244,4.244,0,0,1,54.274-8.19a3.766,3.766,0,0,1,1.9-.462ZM56.2-.441a1.9,1.9,0,0,0,1.753-.977,4.972,4.972,0,0,0,.578-2.551,4.557,4.557,0,0,0-.8-2.93,2.455,2.455,0,0,0-1.974-.977,2.431,2.431,0,0,0-1.774.714A3.593,3.593,0,0,0,53-5.46a7.566,7.566,0,0,0,1.008,3.727A2.553,2.553,0,0,0,56.2-.441Zm7.182-1.7a1.215,1.215,0,0,1,.935.43A1.739,1.739,0,0,1,64.7-.5a3.157,3.157,0,0,1-.588,1.89,4.1,4.1,0,0,1-1.6,1.3l-.315-.5a3.062,3.062,0,0,0,.956-.788A1.637,1.637,0,0,0,63.609.357a.637.637,0,0,0-.021-.189,1.3,1.3,0,0,1-.252.021,1.108,1.108,0,0,1-.85-.325,1.166,1.166,0,0,1-.3-.83,1.122,1.122,0,0,1,.347-.84,1.175,1.175,0,0,1,.845-.336ZM71.19.231a3.9,3.9,0,0,1-2.52-.882,5.637,5.637,0,0,1-1.69-2.488,10.516,10.516,0,0,1-.6-3.685,10.428,10.428,0,0,1,.6-3.675,5.6,5.6,0,0,1,1.7-2.478,3.937,3.937,0,0,1,2.531-.882,3.967,3.967,0,0,1,2.531.872,5.525,5.525,0,0,1,1.7,2.467,10.428,10.428,0,0,1,.6,3.675,10.353,10.353,0,0,1-.609,3.686,5.746,5.746,0,0,1-1.712,2.5,3.908,3.908,0,0,1-2.531.89Zm.021-.672A2.377,2.377,0,0,0,73.4-2.079a11.71,11.71,0,0,0,.756-4.746A11.643,11.643,0,0,0,73.4-11.55a2.377,2.377,0,0,0-2.184-1.638,2.377,2.377,0,0,0-2.184,1.638,11.643,11.643,0,0,0-.756,4.725,11.71,11.71,0,0,0,.756,4.746A2.377,2.377,0,0,0,71.211-.441ZM82.194.231a3.9,3.9,0,0,1-2.52-.882,5.637,5.637,0,0,1-1.69-2.488,10.516,10.516,0,0,1-.6-3.685,10.428,10.428,0,0,1,.6-3.675,5.6,5.6,0,0,1,1.7-2.478,3.937,3.937,0,0,1,2.531-.882,3.967,3.967,0,0,1,2.531.872,5.525,5.525,0,0,1,1.7,2.467,10.428,10.428,0,0,1,.6,3.675,10.353,10.353,0,0,1-.609,3.686,5.746,5.746,0,0,1-1.712,2.5,3.908,3.908,0,0,1-2.531.89Zm.021-.672A2.377,2.377,0,0,0,84.4-2.079a11.71,11.71,0,0,0,.756-4.746A11.643,11.643,0,0,0,84.4-11.55a2.377,2.377,0,0,0-2.184-1.638,2.377,2.377,0,0,0-2.184,1.638,11.643,11.643,0,0,0-.756,4.725,11.71,11.71,0,0,0,.756,4.746A2.377,2.377,0,0,0,82.215-.441ZM93.2.231a3.9,3.9,0,0,1-2.52-.882,5.637,5.637,0,0,1-1.69-2.488,10.516,10.516,0,0,1-.6-3.685,10.428,10.428,0,0,1,.6-3.675,5.6,5.6,0,0,1,1.7-2.478,3.937,3.937,0,0,1,2.531-.882,3.967,3.967,0,0,1,2.531.872,5.525,5.525,0,0,1,1.7,2.467,10.428,10.428,0,0,1,.6,3.675,10.353,10.353,0,0,1-.609,3.686,5.746,5.746,0,0,1-1.712,2.5A3.908,3.908,0,0,1,93.2.231Zm.021-.672A2.377,2.377,0,0,0,95.4-2.079a11.71,11.71,0,0,0,.756-4.746A11.643,11.643,0,0,0,95.4-11.55a2.377,2.377,0,0,0-2.184-1.638,2.377,2.377,0,0,0-2.184,1.638,11.643,11.643,0,0,0-.756,4.725,11.71,11.71,0,0,0,.756,4.746A2.377,2.377,0,0,0,93.219-.441Z" transform="translate(301.216 2319)" fill="#363636"/>
      <path id="パス_711" data-name="パス 711" d="M4.367-6.71a9.206,9.206,0,0,1-.55.979h-2.8L.583-5.819V-5.2l.429-.088h2.5A10.13,10.13,0,0,1,.44-2.75l.143.3a8.846,8.846,0,0,0,3.96-2.838H6.369A6.83,6.83,0,0,0,10.021-2.2a4.111,4.111,0,0,1,.539-.957A7.045,7.045,0,0,1,6.809-5.291H9.977l.44.088v-.616l-.44.088H4.84a7.959,7.959,0,0,0,.572-1.056c.407-.033.781-.066.9-.077.462-.033.77-.066.9-.077.088-.011.286-.033.583-.066.077-.011.319-.044.583-.077a7.743,7.743,0,0,1,.946.957l.858-.693A10.888,10.888,0,0,0,6.864-8.613l-.242.253c.715.484,1.034.7,1.353.946-.913.033-2.035.055-3.784.066l-.473.011A7,7,0,0,0,4.884-8.558c.275-.055.385-.121.385-.242,0-.1-.088-.176-.242-.209L4.059-9.24a9.8,9.8,0,0,1-.913,1.9c-.594.011-.726.011-.957.011-.308,0-.737-.011-1.309-.022l.286.8c.066.165.132.242.231.242s.187-.077.286-.264c.462-.022.869-.033,1.012-.044.286-.022.561-.033.836-.055ZM.968.88C4.73.7,6.919.165,9.317-1.155a2.366,2.366,0,0,0,.253.022c.143,0,.253-.077.253-.176,0-.055-.033-.1-.11-.154L8.9-2.024A16.509,16.509,0,0,1,.924.517Zm.22-2.343a11.243,11.243,0,0,0,4.7-2.266h.143c.165,0,.275-.066.275-.154q0-.066-.1-.132L5.48-4.532A11.648,11.648,0,0,1,1.111-1.771ZM1.573-.319a13.677,13.677,0,0,0,5.8-2.09,1.4,1.4,0,0,0,.209.011c.143,0,.264-.066.264-.165a.192.192,0,0,0-.1-.143l-.737-.539A13.357,13.357,0,0,1,1.474-.671Zm14.388-5.72V-7.5h2.057l.44.088V-8.03l-.44.088H15.961v-.924c.143-.11.176-.154.176-.22,0-.11-.077-.154-.231-.154h-.858v1.3H12.716l-.429-.088v.616l.429-.088h2.332v1.463h-3.1l-.44-.088v.616l.44-.088h4.521l-.033.022A19.48,19.48,0,0,1,14.764-4.42l-.024.02-.64-.1-.11.55a28.223,28.223,0,0,1-2.55,1.31l.121.286a17.607,17.607,0,0,0,2.3-.924c-.154.726-.319,1.4-.55,2.233h.99c.055-.209.121-.528.209-.946h4.95C19.206.176,19.107.352,18.26.363H17.039V.825H18.7c1.309-.011,1.419-.231,1.749-3.256H14.6l.022-.143.033-.132c.011-.044.033-.187.077-.385.011-.1.033-.22.066-.385l.693-.033A29.919,29.919,0,0,0,19.9-3.927a1.379,1.379,0,0,0,.341.044c.11,0,.2-.066.2-.143,0-.044-.022-.088-.143-.2l-.6-.55a22.106,22.106,0,0,1-4.246.847l-.22.033L15-3.874A22.371,22.371,0,0,0,17.611-5.6h3.443l.44.088v-.616l-.44.088H18.161A18.456,18.456,0,0,0,20.3-8.107c.352-.033.473-.1.473-.22,0-.077-.055-.143-.2-.209l-.715-.4a16.9,16.9,0,0,1-2.827,2.893Zm11.649-.1H25.729v6.9h.814v-.7H31.2V.682h.847v-6.82H30.118V-8.283h2l.44.088v-.616l-.44.088h-6.18l-.429-.088v.616l.429-.088H27.61Zm.759-2.145h.99v2.145h-.99Zm0,2.585h.99V-.385h-.99ZM27.61-.385H26.543V-5.7H27.61ZM30.118-5.7H31.2V-.385H30.118ZM24.574-6.787c.231-.649.33-.957.583-1.771.176-.033.264-.11.264-.22,0-.088-.077-.154-.187-.187L24.31-9.24a26.072,26.072,0,0,1-1.87,5.973l.231.176a11.922,11.922,0,0,0,1.045-1.694v5.6h.858ZM36.685-2.541a10.587,10.587,0,0,0,3.564-2.09A10.625,10.625,0,0,0,43.142-2.8a3.644,3.644,0,0,1,.418-.858,11.384,11.384,0,0,1-2.794-1.485A11.368,11.368,0,0,0,42.8-8.063H39.226l.011-.033c.121-.231.132-.253.275-.561.209-.077.3-.143.3-.22a.206.206,0,0,0-.11-.154l-.935-.209a10.231,10.231,0,0,1-.792,2.013A10.169,10.169,0,0,1,36.93-5.544l.22.209a7.473,7.473,0,0,0,1.57-1.837,4.992,4.992,0,0,0,1.012,2,12.072,12.072,0,0,1-3.157,2.354ZM39-7.623h2.64a13.333,13.333,0,0,1-1.463,1.991,4.141,4.141,0,0,1-1.221-1.925ZM35.1.814h.847V-5.027a7.417,7.417,0,0,1,.781,1.672l.682-.594a3.89,3.89,0,0,0-1.463-1.4V-6.49h.8l.44.088v-.616l-.44.088h-.8V-8.811c.132-.1.176-.143.176-.22,0-.1-.077-.143-.231-.143H35.1V-6.93H33.946l-.44-.088V-6.4l.44-.088H35a18.4,18.4,0,0,1-1.56,4.629l.242.165A10.825,10.825,0,0,0,35.1-4.29ZM42.515.748v-3.7H37.906V.814h.869V.286h2.86V.748Zm-3.74-.9V-2.508h2.86V-.154ZM49.247-8.393A9.6,9.6,0,0,0,47.674-3.2a9.6,9.6,0,0,0,1.573,5.192h.6A12.494,12.494,0,0,1,49.071.2a10.785,10.785,0,0,1-.539-3.4,10.785,10.785,0,0,1,.539-3.4,12.494,12.494,0,0,1,.781-1.793ZM52.415.814h.814v-5.1a12.619,12.619,0,0,1,.825,1.9l.737-.649a6.87,6.87,0,0,0-1.562-1.606v-1.21h.913l.429.088V-6.38l-.429.088h-.913V-8.239c.286-.066.33-.077.748-.2a1.412,1.412,0,0,0,.275.044c.143,0,.242-.066.242-.165,0-.066-.022-.1-.11-.176l-.572-.506a13.145,13.145,0,0,1-3.036,1l.033.3a13.165,13.165,0,0,0,1.606-.143v1.793h-1.2l-.44-.088v.616l.44-.088H52.3A18.955,18.955,0,0,1,50.7-1.32l.22.187A9.318,9.318,0,0,0,52.415-3.74ZM54.989-6.82V-3.3h1.144v.033C56.045-1.155,55.4-.033,53.878.583l.143.3C56.034.418,56.969-.88,57.013-3.3h.858V-.1c.033.407.352.638.88.638h1.133c.55,0,.781-.209.825-.77l.121-1.342-.462-.055L60.291-.616c-.033.264-.121.341-.363.352h-.869c-.253-.011-.308-.066-.319-.3V-3.3h1.441V-6.82H58.5a7.537,7.537,0,0,0,1.166-1.749c.22-.022.341-.1.341-.209a.22.22,0,0,0-.176-.2L58.817-9.24a18.659,18.659,0,0,1-.726,2.42Zm.869,3.08V-6.38H59.3v2.64Zm-.682-5.247a8.362,8.362,0,0,1,.979,2.013l.9-.484a4.92,4.92,0,0,0-1.606-1.716ZM63.844-.7A3.007,3.007,0,0,0,66.55.506c.572.033,1.958.066,3.036.066.462,0,1.1-.011,1.969-.022a7.072,7.072,0,0,1,.264-.869c-.715.044-2.53.088-3.894.088A9.317,9.317,0,0,1,64.9-.484a1.944,1.944,0,0,1-.748-.506V-5.06H62.216l-.44-.088v.616l.44-.088h1.056V-.946a12.041,12.041,0,0,1-1.562.594l.352.957a.19.19,0,0,0,.154.121c.11,0,.2-.121.253-.363A10.966,10.966,0,0,0,63.811-.682Zm2.574-8.118-.44-.088v.638l.44-.088h1.793c.011.3.011.429.022.572A9.912,9.912,0,0,1,64.691-1.4l.143.264a7.159,7.159,0,0,0,3.674-4.5,7.153,7.153,0,0,0,2.717,4.389c.275-.473.319-.539.594-.979a6.389,6.389,0,0,1-2.53-3.036,9.384,9.384,0,0,1-.572-3.553Zm-1.859.759a5.049,5.049,0,0,0-2.2-.814l-.132.275a7.705,7.705,0,0,1,1.727,1.529Zm8.129-.33A13.05,13.05,0,0,1,73.469-6.6a10.835,10.835,0,0,1,.539,3.4A10.784,10.784,0,0,1,73.469.2a12.493,12.493,0,0,1-.781,1.793h.605A9.628,9.628,0,0,0,74.866-3.2a9.628,9.628,0,0,0-1.573-5.192Z" transform="translate(221.56 2318)" fill="#262626"/>
    </g>
    <path id="パス_710" data-name="パス 710" d="M10.566-5.994a22.666,22.666,0,0,0,3.708-7.29H3.618l-.792-.162v1.152l.792-.162h8.514A20.743,20.743,0,0,1,1.26-.324l.252.558a18.1,18.1,0,0,0,8.676-5.742A30.725,30.725,0,0,1,15.336.36l1.6-1.3A21.987,21.987,0,0,0,10.8-5.868Zm13.95-1.242v4.662c0,1.53.252,2.052,1.152,2.358A19.33,19.33,0,0,0,30.4.126c1.206,0,2.106-.036,3.33-.108V-1.62a35.157,35.157,0,0,1-4.212.252,9.306,9.306,0,0,1-2.844-.27c-.36-.162-.45-.378-.45-1.1v-4.5h7.74l.81.162v-1.15l-.81.162h-7.74v-4.428h5.958l.792.162v-1.152l-.792.162H21.114l-.792-.162v1.152l.792-.162h3.4v4.428H20l-.81-.162v1.152L20-7.236Zm28.116-.036L37.6-7.83v1.89l15.03-.54ZM63.468-11l-.234-2.88c.216-.18.306-.288.306-.432,0-.2-.162-.324-.414-.324H61.362l.216,1.008.216,2.736-4.95.324-.72-.108L56.2-9.558l.7-.18,4.968-.324.378,4.572-6.48.414-.72-.09.072,1.116.7-.2,6.5-.414L62.8,1.1,64.476.99,63.99-4.77l6.138-.378.81.09-.09-1.134-.774.2-6.156.4L63.54-10.17l5.256-.324.81.108-.072-1.152-.792.216ZM88.632-7.272,73.6-7.83v1.89l15.03-.54ZM99.018-8.784a1.955,1.955,0,0,0-1.395.56,1.955,1.955,0,0,0-.585,1.384,1.955,1.955,0,0,0,.573,1.389A1.955,1.955,0,0,0,99-4.878a1.963,1.963,0,0,0,1.944-1.962,1.968,1.968,0,0,0-1.926-1.944Zm17.3-3.33a12.632,12.632,0,0,0,.648-1.494c.342-.162.468-.27.468-.468,0-.162-.126-.27-.4-.324l-1.692-.36-.18,1.026A15.258,15.258,0,0,1,110.32-6.57l.288.432a12.175,12.175,0,0,0,5.292-5.148h5.634a16.24,16.24,0,0,1-3.96,7.65,16.806,16.806,0,0,1-7.2,3.942l.108.54c4.032-.774,5.994-1.62,8.172-3.492a16.212,16.212,0,0,0,4.842-9.468Zm9.144-1.35a3.546,3.546,0,0,0-2.088-1.836l-.306.252a7.21,7.21,0,0,1,1.188,2.232Zm-4.536-1.494a7.657,7.657,0,0,1,1.062,2.43l1.206-.54a3.477,3.477,0,0,0-1.926-2.124ZM132.354,1.1a11.305,11.305,0,0,0,4.932-1.962c2.322-1.764,2.916-3.438,2.9-8.1v-4.68c.27-.18.36-.306.36-.468a.324.324,0,0,0-.107-.224.324.324,0,0,0-.235-.082l-1.854-.126.162,1.08v4.608c-.018,3.924-.414,5.31-2.034,6.948a10.434,10.434,0,0,1-4.25,2.464Zm-2.538-14.292v8.748h1.674v-8.91c.27-.2.36-.324.36-.468a.324.324,0,0,0-.107-.224.324.324,0,0,0-.234-.082l-1.854-.144ZM160.632-7.27,145.6-7.83v1.89l15.03-.54Zm17.892-4a17.867,17.867,0,0,1-4.59,5.832,16.931,16.931,0,0,1-8.262,3.654l-.954.018.648,1.6c.108.252.27.4.45.4.2,0,.342-.126.468-.414,4.068-.918,6.624-2.142,8.838-4.23a15.172,15.172,0,0,0,3.906-6.624Zm-13.968-1.96a16.922,16.922,0,0,1,4.482,3.852l1.476-1.494a11.108,11.108,0,0,0-5.742-2.826Z" transform="translate(222 2280.547)" fill="#262626"/>
    <path id="パス_709" data-name="パス 709" d="M3.48-.864H5.592V-14.688H2.616L1.368-11.376H.48v-4.176H12.7v4.176h-.888l-1.2-3.312H7.632V-.864H9.744V0H3.48ZM27.048-14.688V-.864h1.92V0H23.136V-.864h1.872V-7.752h-7.08V-.864H19.8V0H13.968V-.864h1.92V-14.688h-1.92v-.864H19.8v.864H17.928v6.024h7.08v-6.024H23.136v-.864h5.832v.864ZM42.432-4.224V0H30.552V-.864h1.92V-14.688h-1.92v-.864H42.24v4.176h-.912l-1.272-3.312H34.512v6.024H38.28v-1.848h1.1V-5.9h-1.1V-7.752H34.512V-.864h5.736l1.272-3.36Zm7.536,3.36h1.92V-14.688h-1.92v-.864H53.88L61.1-3.888v-10.8H59.18v-.864h4.872v.864h-1.92V0h-1.1L52.92-13.224V-.864h1.92V0H49.968ZM77.28-4.224V0H65.4V-.864h1.92V-14.688H65.4v-.864H77.088v4.176h-.912L74.9-14.688H69.36v6.024h3.768v-1.848h1.1V-5.9h-1.1V-7.752H69.36V-.864H75.1l1.272-3.36Zm23.88-10.464H99.384L95.232,0h-1.1l-4.3-12.144L85.92,0h-1.1l-4.4-14.688h-1.9v-.864h6v.864H82.6L85.9-3.24l3.912-12.216H90.82L95.208-3.312l3.144-11.376h-1.9v-.864h4.7ZM108.216-.864h1.92V-14.688h-1.92v-.864h4.1L117.6-3.528l5.088-12.024H126.7v.864h-1.92V-.864h1.92V0h-5.88V-.864h1.92v-12.12L117.6-.888h-1.1L111.168-13.08V-.864h1.848V0h-4.8Zm26.808,0V0H128.28V-.864h2.352V-14.688h-2.256v-.864h6.552v.864h-2.256V-.864Zm1.584,0h1.92V-14.688h-1.92v-.864h3.912l7.224,11.664v-10.8h-1.92v-.864H150.7v.864h-1.92V0h-1.1l-8.12-13.224V-.864h1.92V0h-4.872Zm22.176,0V0H152.04V-.864h2.352V-14.688h-2.256v-.864h6.552v.864h-2.256V-.864ZM173.16.288a6.33,6.33,0,0,1-3.924-1.152,6.466,6.466,0,0,1-2.2-2.94,10.588,10.588,0,0,1-.672-3.756,11.369,11.369,0,0,1,.7-3.972,6.913,6.913,0,0,1,2.232-3.1,6.084,6.084,0,0,1,3.888-1.212,7.31,7.31,0,0,1,2.7.444,8.05,8.05,0,0,1,2,1.14v2.88H176.52a4.27,4.27,0,0,0-1.152-2.808,3.336,3.336,0,0,0-2.352-.888,3.773,3.773,0,0,0-3.4,1.716A7.988,7.988,0,0,0,168.5-8.928a14.67,14.67,0,0,0,.516,3.96,7.182,7.182,0,0,0,1.6,3.012A3.517,3.517,0,0,0,173.3-.792a4.2,4.2,0,0,0,2.6-.888,4.176,4.176,0,0,0,1.536-2.568h.912a5.458,5.458,0,0,1-.96,2.328A5.358,5.358,0,0,1,175.536-.3a4.978,4.978,0,0,1-2.376.588Zm13.464,0a6.1,6.1,0,0,1-3.756-1.1A6.307,6.307,0,0,1,180.72-3.68a10.528,10.528,0,0,1-.672-3.78,11.612,11.612,0,0,1,.684-3.948,7.054,7.054,0,0,1,2.244-3.168,6.139,6.139,0,0,1,3.984-1.26,6.207,6.207,0,0,1,3.78,1.1,6.487,6.487,0,0,1,2.208,2.868,9.989,9.989,0,0,1,.708,3.756,11.123,11.123,0,0,1-.72,3.935,7.349,7.349,0,0,1-2.292,3.193,6.187,6.187,0,0,1-4.02,1.272ZM187.2-.5a3.531,3.531,0,0,0,3.216-1.764A8.968,8.968,0,0,0,191.5-6.98a14.261,14.261,0,0,0-.516-3.876,6.994,6.994,0,0,0-1.644-3.012,3.846,3.846,0,0,0-2.9-1.176,3.447,3.447,0,0,0-3.2,1.74,8.658,8.658,0,0,0-1.02,4.428,13.365,13.365,0,0,0,1.2,5.928A3.973,3.973,0,0,0,187.2-.5Zm14.976.792a5.315,5.315,0,0,1-3.816-1.344,5.075,5.075,0,0,1-1.416-3.864v-9.768h-1.92v-.864h5.88v.864h-1.92v10a3.882,3.882,0,0,0,1,2.952,3.681,3.681,0,0,0,2.628.936,3.828,3.828,0,0,0,2.676-.948,3.749,3.749,0,0,0,1.044-2.916V-14.688h-1.9v-.864h4.824v.864h-1.9V-4.56a4.593,4.593,0,0,1-1.416,3.528,5.3,5.3,0,0,1-3.764,1.32ZM210.552-.86h1.92V-14.688h-1.92v-.864h3.912l7.224,11.664v-10.8h-1.92v-.864h4.872v.864h-1.92V0h-1.1L213.5-13.224V-.864h1.92V0h-4.872Zm18.12,0h2.112V-14.688h-2.976l-1.248,3.312h-.888v-4.176h12.216v4.176H237l-1.2-3.312h-2.976V-.864h2.112V0h-6.264Zm24.912,0V0h-3.672l-4.56-7.176H243.12V-.864h1.9V0h-5.86V-.864h1.92V-14.688h-1.92v-.864h6.984a4.822,4.822,0,0,1,3.528,1.164,3.993,3.993,0,0,1,1.176,2.964,4.1,4.1,0,0,1-.888,2.676,4.156,4.156,0,0,1-2.424,1.428l4.32,6.456ZM243.12-8.088h2.76a2.455,2.455,0,0,0,1.956-.924,3.539,3.539,0,0,0,.78-2.364,3.639,3.639,0,0,0-.756-2.4,2.448,2.448,0,0,0-1.98-.912h-2.76Zm17.208,1.032V-.864h2.112V0h-6.264V-.864h2.112V-6.432l-4.1-8.256h-1.92v-.864h6.1v.864h-1.92l3.312,6.744,3.456-6.744H261.3v-.864h4.92v.864H264.3ZM267-.864h1.92V-14.688H267v-.864h4.1l5.28,12.024,5.088-12.024h4.008v.864h-1.92V-.864h1.92V0H279.6V-.864h1.92v-12.12l-5.136,12.1h-1.1l-5.332-12.2V-.864H271.8V0H267Zm34.68,0V0h-5.568V-.864h1.752l-1.728-4.872h-5.16L289.248-.864H291V0h-4.488V-.864h1.7l5.3-14.688h1.128L299.976-.864ZM295.8-6.648l-2.208-6.216h-.1l-2.208,6.216Zm6.936,5.784h1.92V-14.688h-1.92v-.864h3.912l7.224,11.664v-10.8h-1.92v-.864h4.872v.864H314.9V0h-1.1l-8.112-13.224V-.864h1.92V0h-4.872ZM330.96.288a6.33,6.33,0,0,1-3.924-1.152,6.466,6.466,0,0,1-2.2-2.94,10.587,10.587,0,0,1-.672-3.756,11.37,11.37,0,0,1,.7-3.972,6.913,6.913,0,0,1,2.232-3.1,6.084,6.084,0,0,1,3.888-1.212,7.31,7.31,0,0,1,2.7.444,8.051,8.051,0,0,1,2,1.14v2.88H334.32a4.27,4.27,0,0,0-1.152-2.808,3.336,3.336,0,0,0-2.352-.888,3.773,3.773,0,0,0-3.4,1.716A7.988,7.988,0,0,0,326.3-8.928a14.669,14.669,0,0,0,.516,3.96,7.182,7.182,0,0,0,1.6,3.012A3.517,3.517,0,0,0,331.1-.792a4.2,4.2,0,0,0,2.6-.888,4.176,4.176,0,0,0,1.536-2.568h.912a5.458,5.458,0,0,1-.96,2.328A5.358,5.358,0,0,1,333.336-.3a4.978,4.978,0,0,1-2.376.588Zm8.256-.024a1.389,1.389,0,0,1-1.02-.42,1.389,1.389,0,0,1-.42-1.02,1.389,1.389,0,0,1,.42-1.02,1.389,1.389,0,0,1,1.02-.42,1.389,1.389,0,0,1,1.02.42,1.389,1.389,0,0,1,.42,1.02,1.389,1.389,0,0,1-.42,1.02,1.389,1.389,0,0,1-1.02.42ZM7.7,26.288a6.33,6.33,0,0,1-3.92-1.152,6.466,6.466,0,0,1-2.2-2.94A10.587,10.587,0,0,1,.912,18.44a11.37,11.37,0,0,1,.7-3.972,6.913,6.913,0,0,1,2.232-3.1A6.084,6.084,0,0,1,7.728,10.16a7.31,7.31,0,0,1,2.7.444,8.05,8.05,0,0,1,2,1.14v2.88H11.064a4.27,4.27,0,0,0-1.152-2.808,3.336,3.336,0,0,0-2.352-.888,3.773,3.773,0,0,0-3.4,1.716,7.988,7.988,0,0,0-1.116,4.428,14.67,14.67,0,0,0,.516,3.96,7.182,7.182,0,0,0,1.6,3.012,3.517,3.517,0,0,0,2.688,1.164,4.17,4.17,0,0,0,4.128-3.456h.912a5.458,5.458,0,0,1-.96,2.328A5.358,5.358,0,0,1,10.08,25.7a4.978,4.978,0,0,1-2.38.588Zm6.528-1.152h1.92V11.312h-1.92v-.864H20.18v.864H18.192V25.136h5.616l1.272-3.36h.912V26H14.232Zm27.888,0V26H36.552v-.864H38.3l-1.728-4.872h-5.16l-1.728,4.872H31.44V26H26.952v-.864h1.7l5.3-14.688H35.08l5.328,14.688Zm-5.88-5.784-2.208-6.216h-.1L31.72,19.352ZM47.9,26.288a7.414,7.414,0,0,1-2.748-.48,4.348,4.348,0,0,1-1.788-1.176V21.8h1.3a4.771,4.771,0,0,0,1.08,2.868,3.009,3.009,0,0,0,2.208.828,3.158,3.158,0,0,0,2.292-.78,2.791,2.791,0,0,0,.8-2.1,2.683,2.683,0,0,0-1.32-2.4l-4.272-2.76a5.128,5.128,0,0,1-1.524-1.416,3.414,3.414,0,0,1-.54-1.968,3.541,3.541,0,0,1,1.26-2.844A5.2,5.2,0,0,1,48.12,10.16a6.989,6.989,0,0,1,2.46.408,4.609,4.609,0,0,1,1.788,1.152v2.9h-1.3a5.126,5.126,0,0,0-.912-2.892,2.6,2.6,0,0,0-2.04-.8,2.8,2.8,0,0,0-2.2.768,2.683,2.683,0,0,0-.684,1.848,2.284,2.284,0,0,0,1.1,2.064l4.2,2.688a6.063,6.063,0,0,1,1.884,1.716,3.621,3.621,0,0,1,.564,2,3.981,3.981,0,0,1-2.34,3.72,6.258,6.258,0,0,1-2.74.556Zm11.592,0a7.414,7.414,0,0,1-2.748-.48,4.348,4.348,0,0,1-1.788-1.176V21.8h1.3a4.771,4.771,0,0,0,1.08,2.868,3.009,3.009,0,0,0,2.208.828,3.158,3.158,0,0,0,2.292-.78,2.791,2.791,0,0,0,.8-2.1,2.683,2.683,0,0,0-1.32-2.4l-4.272-2.76A5.128,5.128,0,0,1,55.52,16.04a3.414,3.414,0,0,1-.54-1.968,3.541,3.541,0,0,1,1.26-2.844,5.2,5.2,0,0,1,3.468-1.068,6.989,6.989,0,0,1,2.46.408A4.609,4.609,0,0,1,63.96,11.72v2.9h-1.3a5.126,5.126,0,0,0-.912-2.892,2.6,2.6,0,0,0-2.04-.8,2.8,2.8,0,0,0-2.2.768,2.683,2.683,0,0,0-.684,1.848,2.284,2.284,0,0,0,1.1,2.064l4.2,2.688a6.063,6.063,0,0,1,1.884,1.716,3.621,3.621,0,0,1,.564,2,3.981,3.981,0,0,1-2.34,3.72,6.258,6.258,0,0,1-2.732.556ZM73.08,25.136V26H66.336v-.864h2.352V11.312H66.432v-.864h6.552v.864H70.728V25.136Zm8.5,1.152a6.33,6.33,0,0,1-3.924-1.152,6.466,6.466,0,0,1-2.2-2.94,10.587,10.587,0,0,1-.672-3.756,11.37,11.37,0,0,1,.7-3.972,6.913,6.913,0,0,1,2.232-3.1A6.084,6.084,0,0,1,81.6,10.16a7.31,7.31,0,0,1,2.7.444,8.05,8.05,0,0,1,2,1.14v2.88H84.936a4.27,4.27,0,0,0-1.152-2.808,3.336,3.336,0,0,0-2.352-.888,3.773,3.773,0,0,0-3.4,1.716,7.988,7.988,0,0,0-1.116,4.428,14.67,14.67,0,0,0,.516,3.96,7.182,7.182,0,0,0,1.6,3.012,3.517,3.517,0,0,0,2.688,1.164,4.17,4.17,0,0,0,4.128-3.456h.912a5.458,5.458,0,0,1-.96,2.328,5.358,5.358,0,0,1-1.848,1.62,4.978,4.978,0,0,1-2.376.588Zm15.1-1.152h2.112V11.312H95.808L94.56,14.624h-.888V10.448h12.216v4.176H105l-1.2-3.312h-2.976V25.136h2.112V26H96.672Zm24.912,0V26H117.92l-4.56-7.176h-2.24v6.312h1.9V26h-5.86v-.864h1.92V11.312h-1.92v-.864h6.984a4.822,4.822,0,0,1,3.528,1.164,3.993,3.993,0,0,1,1.176,2.964,4.1,4.1,0,0,1-.888,2.676,4.156,4.156,0,0,1-2.424,1.428l4.32,6.456ZM111.12,17.912h2.76a2.455,2.455,0,0,0,1.956-.924,3.539,3.539,0,0,0,.78-2.364,3.639,3.639,0,0,0-.756-2.4,2.448,2.448,0,0,0-1.98-.912h-2.76Zm18.12,7.224V26H122.5v-.864h2.352V11.312H122.6v-.864h6.552v.864h-2.256V25.136Zm1.584,0h1.92V11.312h-1.92v-.864h4.1l5.28,12.024,5.1-12.024h4v.864h-1.92V25.136h1.92V26h-5.88v-.864h1.92V13.016l-5.136,12.1h-1.1l-5.328-12.2V25.136h1.848V26h-4.8Z" transform="translate(222 2228.959)" fill="#262626"/>
    <path id="パス_707" data-name="パス 707" d="M0,0H340.656V102H0Z" transform="translate(222 2213.229)" fill="#fff" opacity="0.501"/>
  </g>
</svg>
