<svg xmlns="http://www.w3.org/2000/svg" width="596.708" height="186.886" viewBox="0 0 596.708 186.886">
  <g id="obi02" transform="translate(-502.808 -2336)">
    <path id="パス_65" data-name="パス 65" d="M-297.192-11.27V-4h1.96V-10.78c.112-.056.28-.126.28-.266s-.112-.126-.28-.14Zm6.468-.266v5.054c0,1.54-.1,4.466-4.676,5.964a3.46,3.46,0,0,1,1.232,1.526c2.7-1.134,5.432-2.828,5.432-7.5v-4.536c.1-.042.28-.1.28-.28,0-.07-.07-.112-.28-.126Zm6.818.952v1.806h9.646a13.116,13.116,0,0,1-3.024,3.234,6.233,6.233,0,0,1,1.372,1.316,25.591,25.591,0,0,0,3.948-4.564,5.923,5.923,0,0,1,.5-.7l-1.316-1.218a2.142,2.142,0,0,1-.784.126Zm4.676,2.45c.266,4.8-1.834,6.384-3.92,7.56A10.221,10.221,0,0,1-281.5.672a8.517,8.517,0,0,0,3.584-4.144,13.66,13.66,0,0,0,.714-4.116c.056-.028.224-.126.224-.28,0-.112-.126-.14-.224-.14Zm12.432-2.632v4.1c0,1.932-.378,3.514-3.038,5.208a6,6,0,0,1,1.582,1.3c1.9-1.484,3.486-3.08,3.486-6.636v-3.43c.112-.042.252-.112.252-.266s-.182-.168-.322-.182Zm3.486-.126v8.918c0,.378-.028.728-.056,1.106l1.288.84c.364-.308.49-.406,1.652-1.246a20.914,20.914,0,0,0,4-3.934,5.253,5.253,0,0,1-.938-1.736,14.619,14.619,0,0,1-4,3.906v-7.336c.126-.07.266-.126.266-.266s-.112-.14-.266-.154Zm17.612,3c-.392-2.562-1.862-3.444-4.452-3.444-3.514,0-4.228,2.058-4.228,3.248,0,2.1,1.68,2.716,4.256,3.5,1.792.546,2.534.812,2.534,1.68a1.337,1.337,0,0,1-.56,1.036,3.406,3.406,0,0,1-1.75.406c-1.75,0-2.562-.658-2.618-1.89H-254.7c.154,2.912,2.73,3.668,4.858,3.668,3.584,0,4.4-2.254,4.4-3.444,0-1.96-1.6-2.492-3.262-3.052-2.856-.952-3.514-1.176-3.514-2.142,0-1.232,1.736-1.232,2.226-1.232.994,0,1.5.238,1.764.63a2.047,2.047,0,0,1,.378,1.036Zm2.758-3.136v6.706c0,3.276,2.072,4.634,5.166,4.634,2.912,0,5.054-1.358,5.054-4.536v-6.8h-2.086V-4.06c0,1.806-1.344,2.59-3.066,2.59-1.834,0-2.968-.966-2.968-2.576v-6.986Zm12.362,0L-226.254,0h2.114l4.326-11.032H-222L-225.2-2.366l-3.192-8.666Zm23.464,1.792c-2.492.938-3.164,1.19-5.1,2.086a6.337,6.337,0,0,1-.672-3.15c0-.434.028-.756.084-1.428l-2.366.5a5.3,5.3,0,0,1,.322,1.372c.224,1.806.336,2.73,1.078,3.5C-215.53-5.334-216.8-4.13-216.8-2.45A2.657,2.657,0,0,0-215.32-.1a8.055,8.055,0,0,0,4.074.728,27.446,27.446,0,0,0,4.662-.42A6.358,6.358,0,0,1-206.4-1.9a14.38,14.38,0,0,1-4.7.742c-2.534,0-3.64-.392-3.64-1.414,0-1.694,2.674-2.828,3.36-3.122a14.819,14.819,0,0,1,5.012-1.456Zm6.44-2.3c.014.28.028.378.028.952,0,.8-.154,4.69-.154,5.572,0,2.8.1,5.824,3.276,5.824,1.652,0,4.382-.812,6.664-4.48a9.337,9.337,0,0,1-1.414-1.568c-.574,1.232-2.688,4.074-5.068,4.074-1.3,0-1.526-.938-1.526-3.346a42.849,42.849,0,0,1,.406-6.286c.112-.028.308-.1.308-.238s-.1-.168-.322-.2Zm24.528.1a54.9,54.9,0,0,1-10.92,1.33,8.285,8.285,0,0,1-.91-.042l.266,2.254a60.559,60.559,0,0,1,6.384-.882c-1.876,1.442-2.94,3.052-2.94,4.928,0,3.178,2.982,4.4,5.11,4.872a10.306,10.306,0,0,1,.882-2.114c-2.968-.224-4.116-1.288-4.116-2.926,0-2.562,3.108-5.432,6.608-5.418Zm10.388,12a7.634,7.634,0,0,0,3.15-1.988,6.174,6.174,0,0,0,1.652-4.242,5.359,5.359,0,0,0-5.656-5.362,6.73,6.73,0,0,0-6.692,6.412c0,2.506,1.89,4.27,2.968,4.27,1.442,0,3.458-3.752,3.934-8.974a3.565,3.565,0,0,1,3.57,3.654,4.667,4.667,0,0,1-4.158,4.564A9,9,0,0,1-165.76.56Zm-2.632-9.548a13.264,13.264,0,0,1-1.05,4.858c-.224.56-.616,1.512-1.022,1.512-.434,0-1.064-.938-1.064-2.128A4.869,4.869,0,0,1-168.392-8.988Zm18.312,2.744V-8.75c.168-.028.336-.084.336-.238,0-.182-.21-.2-.294-.2l-1.778-.084v3.024h-3.234V-4.69h3.234V-.868h-4.214V.672h10.01V-.868h-4.06V-4.69h3.36V-6.244Zm-7.672-5.012V-7.42c0,3.6,0,5.306-1.386,7.784a3.932,3.932,0,0,1,1.75.686c1.4-2.618,1.4-5.432,1.4-8.708V-9.674h9.94v-1.582Zm20.118,2.52c.224.378.252.434.532.924-.224.042-.588.112-1.4.21.364-.784.42-.924.8-1.834.2-.056.378-.112.378-.252a.121.121,0,0,0-.042-.084h1.708v-1.442h-4.382a.233.233,0,0,0-.182-.2l-1.68-.462A13.948,13.948,0,0,1-144.4-6.384a5.237,5.237,0,0,1,1.022,1.372,5.516,5.516,0,0,0,.546-.77V1.092h1.666V-8.134c.126-.056.322-.14.322-.294,0-.056-.056-.112-.2-.168l-.294-.112a19.29,19.29,0,0,0,.868-2.282,1.062,1.062,0,0,0,.224-.014v1.232h1.05a20.322,20.322,0,0,1-.882,2.338c-.112.014-.658.056-.784.07l.378,1.526c.028.126.084.238.182.238.224,0,.266-.2.308-.35,1.764-.238,2.59-.364,3.458-.532.126.336.168.476.252.728.448-.2,1.064-.42,1.162-.462v3.5h1.512V-9.534c.238-.1.322-.168.322-.266,0-.168-.182-.224-.294-.224l-1.54-.084V-6.86a10.72,10.72,0,0,0-1.246-2.408Zm-1.218,7.364c-.28.042-1.61.252-1.918.294l.336,1.554c.028.14.112.224.2.224.182,0,.21-.112.308-.392.322-.07,1.932-.378,2.3-.448.812-.168.952-.2,2.226-.5a6.285,6.285,0,0,1,.14-1.47,19.9,19.9,0,0,1-1.946.434v-1.6h1.554V-4.69h-1.554v-.7c.1-.014.35-.084.35-.322,0-.1-.112-.154-.28-.168l-1.708-.126V-4.69h-1.582v1.414h1.582Zm5.964-10.458V-1.162c0,.56,0,.714-.532.714a6.038,6.038,0,0,1-1.106-.126,4.548,4.548,0,0,1,.518,1.75c2.618.028,2.618-1.008,2.618-1.708V-11.284c.084-.028.336-.1.336-.294,0-.112-.1-.154-.21-.154Zm12.4,2.52a11.354,11.354,0,0,0,.406-1.568c.126-.028.35-.084.35-.238,0-.084-.14-.2-.28-.224l-1.624-.378a13.324,13.324,0,0,1-1.764,4.97v-2.6h-2.086c.294-.756.322-.84.588-1.568.224-.1.35-.168.35-.28,0-.154-.2-.182-.336-.21l-1.638-.294a14.59,14.59,0,0,1-.616,2.352h-1.6V.714h1.764V-.1h1.862v.5h1.708V-6.286a3.549,3.549,0,0,1,1.358.56,12.115,12.115,0,0,0,1.022-2.044h2.926a40.385,40.385,0,0,1-.266,5.8c-.224,1.344-.784,1.344-1.5,1.344a5.6,5.6,0,0,1-1.2-.112,5.435,5.435,0,0,1,.63,1.792,3.765,3.765,0,0,0,.434.028c2.422,0,2.814-1.3,3.038-2.03.5-1.694.56-6.328.532-8.358Zm-6.482,1.5h1.862V-5.5h-1.862Zm1.862,6.16h-1.862v-2.38h1.862Zm3.444-4.088A15.164,15.164,0,0,1-120.652-2.7a9.747,9.747,0,0,1,1.512-.658A14.463,14.463,0,0,0-120.176-6.4Zm15.666-.9a2.764,2.764,0,0,0-.98,2.058,9.617,9.617,0,0,0,.1,1.218,7.281,7.281,0,0,0-1.19-.112c-2.058,0-2.688,1.218-2.688,2.114,0,1.33,1.176,2.212,3.136,2.212.7,0,2.506-.028,2.716-1.834A12.1,12.1,0,0,1-103.026.35a13.479,13.479,0,0,1,1.092-1.428,15.172,15.172,0,0,0-3.024-1.792,8.623,8.623,0,0,1-.154-1.484,1.957,1.957,0,0,1,.574-1.414Zm-.63,4.914c-.028.5-.112,1.092-1.176,1.092-.364,0-1.232-.084-1.232-.714,0-.5.63-.714,1.078-.714A2.982,2.982,0,0,1-106.624-1.722Zm-6.636-5.852c.714-.028,1.806-.042,2.3-.084A21.826,21.826,0,0,1-113.89-1.9a10.4,10.4,0,0,1,1.764.728,31.72,31.72,0,0,0,3.178-6.734,18.717,18.717,0,0,0,2.352-.5,12.868,12.868,0,0,1-.042-1.792,13.447,13.447,0,0,1-1.75.5c.042-.168.28-.98.336-1.162.084,0,.28-.014.28-.168,0-.1-.07-.154-.252-.21l-1.876-.588c-.112.588-.224,1.288-.532,2.436-.8.07-1.176.084-1.54.084a9.692,9.692,0,0,1-1.512-.112Zm7.028-.168a9.958,9.958,0,0,1,3.556,1.806c.35-.574.784-1.162,1.064-1.54a10.3,10.3,0,0,0-3.654-1.806ZM-89.67-4.424v-.462a23.33,23.33,0,0,0,2.45-2.1l-.728-.742h-6.174v1.5h3.766a3.441,3.441,0,0,1-.63.574l-.378-.042v1.274h-3.458v1.512h3.458v1.764c0,.5-.28.5-.518.5a6.751,6.751,0,0,1-1.106-.112A4.324,4.324,0,0,1-92.4,1.022c1.848-.028,2.73-.168,2.73-1.4V-2.912h3.024V-4.424Zm-3.738-5.656c.168-.532.224-.728.294-.994.35-.126.42-.154.42-.294s-.168-.182-.266-.2l-1.806-.252a10.843,10.843,0,0,1-.42,1.736h-4.032v1.526h3.388a6.466,6.466,0,0,1-.8,1.218l-.6-.1v.77a11.193,11.193,0,0,1-2.576,1.9,5.005,5.005,0,0,1,1.26,1.218A11.323,11.323,0,0,0-97.23-4.48V1.05h1.68V-6.16a11.644,11.644,0,0,0,1.54-2.394h7.364V-10.08Zm15.078.238c.168-.476.266-.8.392-1.218.252-.084.392-.14.392-.252,0-.14-.14-.168-.21-.182l-1.792-.364a11.336,11.336,0,0,1-.5,2.016H-84.42V-8.33h3.738a10.825,10.825,0,0,1-1.3,1.988l-.854-.084v.98a9.379,9.379,0,0,1-2.2,1.526,3.869,3.869,0,0,1,1.12,1.288c.308-.21.658-.434,1.078-.77V1.106h1.764V-5.11a16.133,16.133,0,0,0,2.1-3.22h7.238V-9.842Zm3.052,4.074V-7.336c.168-.056.308-.126.308-.266,0-.1-.084-.154-.238-.168l-1.806-.14v2.142h-2.9v1.456h2.9v3.29h-3.528V.5h8.834V-1.022h-3.57v-3.29h2.94V-5.768Zm8.358-1.106v3.332h1.372v-.546H-63V-6.874Zm2.688.994V-5.1h-1.316V-5.88Zm4.3,3.766A10.592,10.592,0,0,1-58.2.658c.126-.084.182-.126.756-.518a7,7,0,0,1,.714-.392A11.528,11.528,0,0,0-58.6-2.912a1.651,1.651,0,0,0,.308.028,1.048,1.048,0,0,0,.826-.364,3.777,3.777,0,0,0,.7-1.778,3.081,3.081,0,0,1-1.288-.9c-.07.462-.266,1.218-.6,1.218-.252,0-.7-.5-.826-.644A14.22,14.22,0,0,0-58.156-7.7c.322-.014.42-.1.42-.238a.238.238,0,0,0-.14-.182l-1.652-.672a6.815,6.815,0,0,1-.854,2,8.1,8.1,0,0,1-.658-2.184h4.13V-10.4h-1.624c.168-.112.238-.154.42-.266a10.429,10.429,0,0,0-1.358-1.414l-1.106.77a8.366,8.366,0,0,1,.868.91h-1.512c-.014-.2-.014-.336-.028-.84.252-.112.364-.168.364-.308s-.126-.154-.238-.168l-1.722-.126c.014.448.014.812.07,1.442h-5.992V-8.75A9.327,9.327,0,0,1-69.9-3.6a4.827,4.827,0,0,1,1.456.714,12.12,12.12,0,0,0,1.232-6.09h4.606A9.371,9.371,0,0,0-61.39-5.432,9.588,9.588,0,0,1-63.182-3.85a5.7,5.7,0,0,1,1.316,1.064,8.791,8.791,0,0,0,1.428-1.358,3.5,3.5,0,0,0,1.806,1.218ZM-66.864-8.5v1.12h3.99V-8.5Zm-1.288,5.446A9.3,9.3,0,0,1-69.832.084a4.113,4.113,0,0,1,1.344.9,12.282,12.282,0,0,0,1.61-2.9c.28.014.49.014.49-.182,0-.14-.14-.21-.224-.252Zm1.89.1V-.588c0,.742.07,1.428,1.54,1.428H-61.4c1.3,0,1.568-.42,2-2.03a2.905,2.905,0,0,1-1.428-.84c-.238,1.4-.574,1.568-1.19,1.568h-1.82c-.714,0-.8-.1-.8-.616v-1.33c.084-.028.308-.056.308-.224,0-.14-.126-.154-.308-.168Zm2.072.028A8.648,8.648,0,0,1-62.93-.994c.294-.21.84-.532,1.232-.77a10.336,10.336,0,0,0-1.456-1.862Zm14.714-8.988a14.269,14.269,0,0,1-.8,1.9,8.44,8.44,0,0,1-.854.028c-1.092,0-1.932-.084-2.254-.112v1.75c1.134.014,1.554,0,2.24-.028a27.452,27.452,0,0,1-3.08,4.116l1.666.98c1.33-2.184,2.366-3.01,3.458-3.01a1.107,1.107,0,0,1,1.148.756c-.854.448-3.738,1.96-3.738,3.906C-51.688.77-48.02.77-47.236.77A19.156,19.156,0,0,0-43.344.392a7.84,7.84,0,0,1,.224-1.918,15.941,15.941,0,0,1-4.4.63c-1.652,0-2.366-.224-2.366-.854,0-.6.574-1.218,2.1-2.044a14.6,14.6,0,0,1-.07,1.932c.644-.042,1.778,0,1.876,0,.014-.35.042-.77.042-1.386,0-.364-.014-.854-.056-1.4,1.008-.42,2.072-.77,3.3-1.148l-.7-1.9c-.588.308-1.974.938-2.968,1.386A2.325,2.325,0,0,0-48.468-7.6a2.848,2.848,0,0,0-1.33.322c.238-.42.56-.938.728-1.246,1.358-.126,2.758-.364,4.088-.6L-45-10.92a13.991,13.991,0,0,1-3.164.7c.168-.336.266-.532.42-.868.182-.014.336-.1.336-.224,0-.168-.182-.2-.28-.224Zm22.3,2.786v-1.344h-3.29c.084-.392.112-.518.14-.7.154-.042.42-.1.42-.294,0-.126-.182-.14-.308-.154l-1.694-.126a7.887,7.887,0,0,1-.21,1.274H-34.3v1.344h1.666A5.08,5.08,0,0,1-35.07-6.874a4.219,4.219,0,0,1,1.12,1.19,5.8,5.8,0,0,0,1.3-.994v.77h3.206v-.84a4.961,4.961,0,0,0,1.484,1.064A4.273,4.273,0,0,1-26.936-6.9a5.668,5.668,0,0,1-2.548-2.226Zm-4.942,1.89A7.879,7.879,0,0,0-31.01-8.932a8.294,8.294,0,0,0,1.12,1.694Zm-7.812-2.17v1.2h5.348v-1.2Zm.686,1.806v1.26h4.116V-7.6ZM-36.414.42V.882h1.526V-3.85h-4.606V1.008h1.54V.42Zm-1.54-1.358V-2.492h1.54V-.938Zm6.412-2.268c.112-.252.21-.49.294-.7h4.088V-5.25h-7.448v1.344h1.666a10.56,10.56,0,0,1-1.344,2.52,5.367,5.367,0,0,1,1.456.56c.224-.35.406-.672.616-1.036h2.338c-.238,1.414-.742,1.414-.98,1.414A6.2,6.2,0,0,1-32.2-.616a4.166,4.166,0,0,1,.6,1.708c1.246-.028,1.89-.056,2.464-.616a7.252,7.252,0,0,0,1.26-3.682Zm-7.7-2.534v1.246h4.116V-5.74Zm0-5.53v1.176h4.1V-11.27Zm23-.238a23.268,23.268,0,0,1-7.056.854l.308,1.876a39.343,39.343,0,0,0,4.242-.532,48.2,48.2,0,0,1-6.1,5.852l1.428,1.4c1.974-2.044,3.388-3.514,5.838-3.514a2.226,2.226,0,0,1,2.52,2.226A2.017,2.017,0,0,1-16.31-1.4a2.917,2.917,0,0,0-2.982-2.212,2.3,2.3,0,0,0-2.548,2.1c0,1.33,1.246,2.352,3.4,2.352,2.282,0,5.25-1.288,5.25-4.34,0-2.408-1.89-3.626-3.962-3.626a5.683,5.683,0,0,0-1.834.308c.532-.574,2.856-2.758,3.71-3.4ZM-17.864-.7a3.459,3.459,0,0,1-.84.112c-.686,0-1.456-.308-1.456-.868,0-.322.252-.63.77-.63A1.49,1.49,0,0,1-17.864-.7ZM-1.47-10.206A15,15,0,0,1,.1-8.792c.252-.252.658-.658.91-.9A14.343,14.343,0,0,0-.574-11.032Zm-6.51-.07A14.916,14.916,0,0,1-4.466-8.47c.224-.336.854-1.246,1.134-1.554a19.742,19.742,0,0,0-3.612-1.708ZM-.126-11.34A12.622,12.622,0,0,1,1.4-9.968a5.073,5.073,0,0,1,.854-.784A11.866,11.866,0,0,0,.742-12.1Zm-9.31,4.312a12.7,12.7,0,0,1,3.3,1.918,10.6,10.6,0,0,1,1.176-1.6,17.322,17.322,0,0,0-3.4-1.9ZM-7.616.756c.07.126.112.2.21.2.168,0,.21-.2.238-.336a22.468,22.468,0,0,0,9.786-7.6,6.281,6.281,0,0,1-1.232-1.6A20.01,20.01,0,0,1-8.624-.994ZM4.914-6.3v1.988H17V-6.3ZM31.4-12.222a1.3,1.3,0,0,0-1.3,1.3,1.3,1.3,0,0,0,1.3,1.288,1.3,1.3,0,0,0,1.3-1.288A1.309,1.309,0,0,0,31.4-12.222Zm0,.644a.654.654,0,0,1,.644.658.642.642,0,0,1-.644.644.642.642,0,0,1-.644-.644A.654.654,0,0,1,31.4-11.578ZM19.922-9.954V-8.2h8.806A11.911,11.911,0,0,1,21.616-.672,7.506,7.506,0,0,1,23.072.784c4.494-2.352,5.838-4.452,7.406-8.036A7.806,7.806,0,0,1,31.29-8.89l-1.4-1.162a4.436,4.436,0,0,1-.966.1ZM42,.56a7.634,7.634,0,0,0,3.15-1.988A6.174,6.174,0,0,0,46.8-5.67a5.359,5.359,0,0,0-5.656-5.362A6.73,6.73,0,0,0,34.454-4.62c0,2.506,1.89,4.27,2.968,4.27,1.442,0,3.458-3.752,3.934-8.974a3.565,3.565,0,0,1,3.57,3.654,4.667,4.667,0,0,1-4.158,4.564A9,9,0,0,1,42,.56ZM39.368-8.988a13.264,13.264,0,0,1-1.05,4.858c-.224.56-.616,1.512-1.022,1.512-.434,0-1.064-.938-1.064-2.128A4.869,4.869,0,0,1,39.368-8.988ZM53.452-5.46a26.142,26.142,0,0,1,2.52,1.666,12.123,12.123,0,0,1-5.264,3.15A8.157,8.157,0,0,1,52,.966,13.973,13.973,0,0,0,57.372-2.59,11.849,11.849,0,0,1,58.73-1.036c.182-.28.77-1.106,1.176-1.582a8.1,8.1,0,0,0-1.4-1.456,19.979,19.979,0,0,0,2-4.144,5.738,5.738,0,0,1,.294-.588l-.868-.756a2.5,2.5,0,0,1-.938.14H55.664c.322-.546.532-.924.756-1.344.084-.014.336-.014.336-.2,0-.084-.084-.112-.252-.168l-1.876-.6a12.713,12.713,0,0,1-4.62,5.992,9.353,9.353,0,0,1,1.484,1.274,16.1,16.1,0,0,0,3.094-3.3H58.24a11.354,11.354,0,0,1-1.2,2.562,26.894,26.894,0,0,0-2.45-1.54Zm11.522-5.376v1.764h8.792C72.072-4.172,70-2.436,66.36-.784A7.237,7.237,0,0,1,67.83.672,15.025,15.025,0,0,0,73.178-3.57c1.064-1.414,1.344-2.058,2.7-5.446a2.79,2.79,0,0,1,.434-.77l-1.386-1.148a4.436,4.436,0,0,1-.966.1Zm21.952,4.2a2.764,2.764,0,0,0-.98,2.058,9.617,9.617,0,0,0,.1,1.218,7.281,7.281,0,0,0-1.19-.112c-2.058,0-2.688,1.218-2.688,2.114,0,1.33,1.176,2.212,3.136,2.212.7,0,2.506-.028,2.716-1.834A12.1,12.1,0,0,1,89.894.35a13.479,13.479,0,0,1,1.092-1.428A15.172,15.172,0,0,0,87.962-2.87a8.623,8.623,0,0,1-.154-1.484,1.957,1.957,0,0,1,.574-1.414ZM86.3-1.722c-.028.5-.112,1.092-1.176,1.092-.364,0-1.232-.084-1.232-.714,0-.5.63-.714,1.078-.714A2.982,2.982,0,0,1,86.3-1.722ZM79.66-7.574c.714-.028,1.806-.042,2.3-.084A21.826,21.826,0,0,1,79.03-1.9a10.4,10.4,0,0,1,1.764.728A31.72,31.72,0,0,0,83.972-7.91a18.717,18.717,0,0,0,2.352-.5,12.868,12.868,0,0,1-.042-1.792,13.447,13.447,0,0,1-1.75.5c.042-.168.28-.98.336-1.162.084,0,.28-.014.28-.168,0-.1-.07-.154-.252-.21L83.02-11.83c-.112.588-.224,1.288-.532,2.436-.8.07-1.176.084-1.54.084a9.692,9.692,0,0,1-1.512-.112Zm7.028-.168a9.958,9.958,0,0,1,3.556,1.806c.35-.574.784-1.162,1.064-1.54a10.3,10.3,0,0,0-3.654-1.806ZM105.826.868a5.82,5.82,0,0,1,.518-1.89c-1.05.112-2.184.154-3,.154a9.074,9.074,0,0,1-2.464-.252V-3.136h4.522v-1.68h-4.522v-1.33H106.3V-7.77h-5.418V-8.918H105.1v-1.568h-4.214v-.77c.252-.1.434-.168.434-.322s-.2-.154-.308-.154l-1.89-.084v1.33H94.878v1.568H99.12V-7.77H93.66v1.624h5.46V-1.82a4.894,4.894,0,0,1-1.792-1.848c.112-.42.182-.714.294-1.19.1-.028.364-.084.364-.252,0-.112-.126-.14-.224-.168l-1.848-.406A8.467,8.467,0,0,1,93.24.042,4.405,4.405,0,0,1,94.7,1.05,8.729,8.729,0,0,0,96.67-1.778,6.781,6.781,0,0,0,99.96.392a14.61,14.61,0,0,0,3.472.476Zm5-12.432a3.247,3.247,0,0,1-.1.546,15.467,15.467,0,0,0-.448,3.514,13.917,13.917,0,0,0,.952,5.012l1.68-.2a9.29,9.29,0,0,1,1.47-3.668,7.067,7.067,0,0,1-1.218-1.008,17.073,17.073,0,0,0-.91,1.834,6.918,6.918,0,0,1-.154-1.512,11.612,11.612,0,0,1,.6-3.626c.14-.028.322-.07.322-.238s-.154-.182-.378-.238Zm6.146-.126a26.888,26.888,0,0,1,.5,5.026c0,3.15-1.134,5.166-3.85,6.412a4.937,4.937,0,0,1,1.526,1.4,8.018,8.018,0,0,0,4.3-7.742c0-.7-.028-1.33-.056-1.722-.028-.42-.168-2.436-.182-2.9.1-.028.238-.056.238-.21s-.126-.182-.336-.2Zm11.634-.224a14.269,14.269,0,0,1-.8,1.9,8.44,8.44,0,0,1-.854.028c-1.092,0-1.932-.084-2.254-.112v1.75c1.134.014,1.554,0,2.24-.028a27.452,27.452,0,0,1-3.08,4.116l1.666.98c1.33-2.184,2.366-3.01,3.458-3.01a1.107,1.107,0,0,1,1.148.756c-.854.448-3.738,1.96-3.738,3.906C126.392.77,130.06.77,130.844.77a19.156,19.156,0,0,0,3.892-.378,7.84,7.84,0,0,1,.224-1.918,15.941,15.941,0,0,1-4.4.63c-1.652,0-2.366-.224-2.366-.854,0-.6.574-1.218,2.1-2.044a14.594,14.594,0,0,1-.07,1.932c.644-.042,1.778,0,1.876,0,.014-.35.042-.77.042-1.386,0-.364-.014-.854-.056-1.4,1.008-.42,2.072-.77,3.3-1.148l-.7-1.9c-.588.308-1.974.938-2.968,1.386A2.325,2.325,0,0,0,129.612-7.6a2.848,2.848,0,0,0-1.33.322c.238-.42.56-.938.728-1.246,1.358-.126,2.758-.364,4.088-.6l-.014-1.792a13.991,13.991,0,0,1-3.164.7c.168-.336.266-.532.42-.868.182-.014.336-.1.336-.224,0-.168-.182-.2-.28-.224ZM145.1-7.42a17.505,17.505,0,0,1-3.808,4.83V-7.8c.28-.112.336-.126.336-.266,0-.1-.1-.154-.364-.266.2-.378.364-.714.5-1.064.49-1.162.546-1.3.616-1.428.07.014.392.014.392-.2a.3.3,0,0,0-.224-.252l-1.68-.56a15.649,15.649,0,0,1-3.3,5.936,3.91,3.91,0,0,1,1.218,1.232,8.7,8.7,0,0,0,.8-.98V1.05h1.708V-2.282a4.588,4.588,0,0,1,1.092.938,16.381,16.381,0,0,0,3.15-4.382v3.01h-1.6v1.582h1.6v2.2h1.68v-2.2h1.624V-2.716H147.21V-5.894a16.377,16.377,0,0,0,3.052,4.62,6.663,6.663,0,0,1,1.19-1.316,18.606,18.606,0,0,1-3.71-4.83h3.178V-8.988h-3.71v-2.226c.2-.126.28-.2.28-.28,0-.168-.182-.2-.28-.2l-1.68-.1v2.8h-3.584V-7.42Zm10.584.546v3.332h1.372v-.546H159.6V-6.874Zm2.688.994V-5.1h-1.316V-5.88Zm4.3,3.766A10.591,10.591,0,0,1,164.4.658c.126-.084.182-.126.756-.518a7,7,0,0,1,.714-.392A11.527,11.527,0,0,0,164-2.912a1.651,1.651,0,0,0,.308.028,1.048,1.048,0,0,0,.826-.364,3.777,3.777,0,0,0,.7-1.778,3.081,3.081,0,0,1-1.288-.9c-.07.462-.266,1.218-.6,1.218-.252,0-.7-.5-.826-.644a14.22,14.22,0,0,0,1.33-2.352c.322-.014.42-.1.42-.238a.238.238,0,0,0-.14-.182l-1.652-.672a6.815,6.815,0,0,1-.854,2,8.1,8.1,0,0,1-.658-2.184h4.13V-10.4h-1.624c.168-.112.238-.154.42-.266a10.429,10.429,0,0,0-1.358-1.414l-1.106.77a8.365,8.365,0,0,1,.868.91h-1.512c-.014-.2-.014-.336-.028-.84.252-.112.364-.168.364-.308s-.126-.154-.238-.168l-1.722-.126c.014.448.014.812.07,1.442h-5.992V-8.75A9.327,9.327,0,0,1,152.7-3.6a4.827,4.827,0,0,1,1.456.714,12.12,12.12,0,0,0,1.232-6.09h4.606a9.371,9.371,0,0,0,1.218,3.542,9.588,9.588,0,0,1-1.792,1.582,5.7,5.7,0,0,1,1.316,1.064,8.79,8.79,0,0,0,1.428-1.358,3.5,3.5,0,0,0,1.806,1.218ZM155.736-8.5v1.12h3.99V-8.5Zm-1.288,5.446a9.3,9.3,0,0,1-1.68,3.136,4.113,4.113,0,0,1,1.344.9,12.281,12.281,0,0,0,1.61-2.9c.28.014.49.014.49-.182,0-.14-.14-.21-.224-.252Zm1.89.1V-.588c0,.742.07,1.428,1.54,1.428H161.2c1.3,0,1.568-.42,2-2.03a2.905,2.905,0,0,1-1.428-.84c-.238,1.4-.574,1.568-1.19,1.568h-1.82c-.714,0-.8-.1-.8-.616v-1.33c.084-.028.308-.056.308-.224,0-.14-.126-.154-.308-.168Zm2.072.028a8.648,8.648,0,0,1,1.26,1.932c.294-.21.84-.532,1.232-.77a10.336,10.336,0,0,0-1.456-1.862Zm18.718-3.486a12.49,12.49,0,0,1,1.19,1.554,10.523,10.523,0,0,1,.938-.812c-.322-.476-1.022-1.288-1.218-1.512Zm1.386-1.106a11.161,11.161,0,0,1,1.232,1.582,7.01,7.01,0,0,1,.91-.8,9.789,9.789,0,0,0-1.274-1.484Zm1.5-3.92a54.9,54.9,0,0,1-10.92,1.33,8.285,8.285,0,0,1-.91-.042l.266,2.254a60.559,60.559,0,0,1,6.384-.882c-1.876,1.442-2.94,3.052-2.94,4.928,0,3.178,2.982,4.4,5.11,4.872a10.306,10.306,0,0,1,.882-2.114c-2.968-.224-4.116-1.288-4.116-2.926,0-2.562,3.108-5.432,6.608-5.418Zm7.322.07c.154.476.28.9.588,1.722a16.669,16.669,0,0,1-3.43.266l.392,1.68a26.413,26.413,0,0,0,3.64-.378c.056.126.336.77.406.924a18.271,18.271,0,0,1-3.682.378c-.644,0-1.162-.028-1.47-.056l.21,1.764a8.642,8.642,0,0,0,.9.042,27.241,27.241,0,0,0,4.788-.532,7.537,7.537,0,0,0,.742,1.2,10.852,10.852,0,0,0-2.31-.266c-1.946,0-3.57.966-3.57,2.618,0,1.26,1.05,2.982,4.62,2.982a13.18,13.18,0,0,0,3.5-.434,4,4,0,0,1-.042-.49,6.44,6.44,0,0,1,.14-1.316,10.8,10.8,0,0,1-3.57.56c-2.058,0-2.772-.644-2.772-1.344,0-.98,1.428-1.19,2.058-1.19A7.673,7.673,0,0,1,192.64-1.96l1.12-1.176a13.5,13.5,0,0,1-2.282-2.926,13.1,13.1,0,0,0,3.234-1.554c-.126-.21-.8-1.274-.938-1.526a12.142,12.142,0,0,1-3.108,1.526c-.084-.168-.168-.364-.392-.9A11.244,11.244,0,0,0,193-9.674c-.266-.56-.35-.756-.658-1.484a10.466,10.466,0,0,1-2.59,1.092,12,12,0,0,1-.308-1.652Zm19.026-.14a23.268,23.268,0,0,1-7.056.854l.308,1.876a39.343,39.343,0,0,0,4.242-.532,48.2,48.2,0,0,1-6.1,5.852l1.428,1.4c1.974-2.044,3.388-3.514,5.838-3.514a2.226,2.226,0,0,1,2.52,2.226A2.017,2.017,0,0,1,206.29-1.4a2.917,2.917,0,0,0-2.982-2.212,2.3,2.3,0,0,0-2.548,2.1c0,1.33,1.246,2.352,3.4,2.352,2.282,0,5.25-1.288,5.25-4.34,0-2.408-1.89-3.626-3.962-3.626a5.683,5.683,0,0,0-1.834.308c.532-.574,2.856-2.758,3.71-3.4ZM204.736-.7a3.459,3.459,0,0,1-.84.112c-.686,0-1.456-.308-1.456-.868,0-.322.252-.63.77-.63A1.49,1.49,0,0,1,204.736-.7ZM215.474.308V.882h1.414v-4.7h-4.27V1.05h1.47V.308Zm-1.386-1.386V-2.422h1.386v1.344ZM217.448.6c.042.154.154.308.252.308.154,0,.238-.2.252-.462,1.176-.364,2.352-.728,3.276-1.022a2.355,2.355,0,0,1-.042-.532,4.749,4.749,0,0,1,.084-.966c-.364.14-.742.266-1.442.476v-2.94h.868V-5.978h-3.262v1.442h.854V-1.2c-.6.14-.9.2-1.232.266ZM222.39-9c0-.7,0-1.288.042-2.142.182-.084.406-.21.406-.336s-.168-.154-.294-.168l-1.75-.1c-.014.364-.028.672-.028,1.148,0,.686.014,1.372.028,1.6h-3.5v1.428h3.57c.392,6.524,2.212,8.6,2.968,8.6,1.176,0,1.47-2.31,1.554-2.9A4.034,4.034,0,0,1,224.1-2.912c-.014.056-.2,1.316-.392,1.316-.294,0-1.148-2.534-1.288-5.978h2.646V-9Zm-9.534-2.324v1.26h3.766v-1.26Zm-.6,1.876V-8.2h4.7V-9.45Zm.6,1.89v1.218h3.766V-7.56Zm0,1.876v1.26h3.766v-1.26Zm9.758-5.138a10.646,10.646,0,0,1,1.162,1.764,9.007,9.007,0,0,1,1.2-.728,10.008,10.008,0,0,0-1.2-1.736Zm11.718,8.848a16.733,16.733,0,0,0,4.48,3.052,5.314,5.314,0,0,1,1.176-1.246,14.212,14.212,0,0,1-4.326-2.548h3.528V-4.144h-1.876V-5.222h2.6V-6.58h-2.6V-7.644h1.932v-1.4h-4.914v-.812a26.961,26.961,0,0,0,3.234-.686,1.032,1.032,0,0,0,.392.126c.1,0,.154-.042.154-.126a.409.409,0,0,0-.07-.2l-.98-1.246a21.353,21.353,0,0,1-6.972.938c-.7,0-1.12-.028-1.47-.042a3.948,3.948,0,0,1,.546,1.428c1.82,0,2.338-.014,3.514-.084v.7h-4.886v1.4h1.862V-6.58h-2.548v1.358h2.548v1.078H227.78v1.428h3.542a14.205,14.205,0,0,1-4.27,2.646,5.018,5.018,0,0,1,1.26,1.246,18.634,18.634,0,0,0,4.368-3.052v2.94h1.652Zm1.344-4.606h-1.344V-7.644h1.344Zm-3,0h-1.344V-7.644h1.344Zm3,2.436h-1.344V-5.222h1.344Zm-3,0h-1.344V-5.222h1.344Zm16.548-6.566v-.574c.2-.07.336-.126.336-.266,0-.112-.14-.2-.308-.21l-1.764-.1v1.148h-4.984V-9.3h4.984v.714h-3.948V-3.4h3.948v.784h-5.53v1.442h5.53v2.3h1.736v-2.3h5.586V-2.618h-5.586V-3.4h3.934v-5.18h-3.934V-9.3h4.928V-10.71Zm0,4.13v-.686h2.2v.686Zm2.2,1.12v.7h-2.2v-.7Zm-3.934,0v.7h-2.184v-.7Zm-2.184-1.12v-.686h2.184v.686Zm16.856-5.334a14.269,14.269,0,0,1-.8,1.9,8.441,8.441,0,0,1-.854.028c-1.092,0-1.932-.084-2.254-.112v1.75c1.134.014,1.554,0,2.24-.028a27.452,27.452,0,0,1-3.08,4.116l1.666.98c1.33-2.184,2.366-3.01,3.458-3.01a1.107,1.107,0,0,1,1.148.756c-.854.448-3.738,1.96-3.738,3.906C259.952.77,263.62.77,264.4.77A19.156,19.156,0,0,0,268.3.392a7.841,7.841,0,0,1,.224-1.918,15.941,15.941,0,0,1-4.4.63c-1.652,0-2.366-.224-2.366-.854,0-.6.574-1.218,2.1-2.044a14.594,14.594,0,0,1-.07,1.932c.644-.042,1.778,0,1.876,0,.014-.35.042-.77.042-1.386,0-.364-.014-.854-.056-1.4,1.008-.42,2.072-.77,3.3-1.148l-.7-1.9c-.588.308-1.974.938-2.968,1.386A2.325,2.325,0,0,0,263.172-7.6a2.848,2.848,0,0,0-1.33.322c.238-.42.56-.938.728-1.246,1.358-.126,2.758-.364,4.088-.6l-.014-1.792a13.991,13.991,0,0,1-3.164.7c.168-.336.266-.532.42-.868.182-.014.336-.1.336-.224,0-.168-.182-.2-.28-.224Zm17.542,4.76a21.132,21.132,0,0,0,3.542-3.164l-.574-.6h-4.438c.084-.1.168-.224.238-.308.224-.07.42-.14.42-.28,0-.1-.154-.154-.252-.168l-1.764-.28A9.417,9.417,0,0,1,272.2-8.288,3.976,3.976,0,0,1,273.49-7.1a15.769,15.769,0,0,0,1.9-1.2,8.292,8.292,0,0,1,1.358,1.274,13.456,13.456,0,0,1-4.62,1.554,2.913,2.913,0,0,1,.952,1.428,16.334,16.334,0,0,0,5.894-2.6,13.323,13.323,0,0,1-5.964,3.878,4.609,4.609,0,0,1,1.218,1.232A12.569,12.569,0,0,0,276.7-2.772a7.563,7.563,0,0,1,1.26,1.232A14.9,14.9,0,0,1,271.95-.252a3.91,3.91,0,0,1,.826,1.484A18.274,18.274,0,0,0,279.3-.532a13.365,13.365,0,0,0,5.124-4.452l-.6-.616H280.2c.252-.252.406-.434.672-.728.238-.028.42-.056.42-.238,0-.112-.126-.168-.252-.21Zm1.876,3.038A8.034,8.034,0,0,1,279.5-2.38a17.607,17.607,0,0,0-1.442-1.33c.266-.21.378-.308.5-.406Zm-1.33-5.46a10.184,10.184,0,0,1-2.058,1.694,9.768,9.768,0,0,0-1.6-1.4c.084-.07.126-.112.336-.294Zm14.2-2.142a18.262,18.262,0,0,1-.616,3.458,7.835,7.835,0,0,1-1.414,2.842,3.367,3.367,0,0,1,1.3.8,3.856,3.856,0,0,0,.588-.854,9.375,9.375,0,0,0,1.036,3.066A7.965,7.965,0,0,1,292.488-.07a3.839,3.839,0,0,1,1.218,1.2,9.133,9.133,0,0,0,2.562-2.128A10.338,10.338,0,0,0,298.4,1.134a13.387,13.387,0,0,1,1.12-1.288,8.524,8.524,0,0,1-2.3-2.24,13.4,13.4,0,0,0,1.484-5.39h.658V-9.352h-3.668a17.058,17.058,0,0,0,.266-1.694c.322-.112.35-.182.35-.28s-.056-.168-.21-.182ZM290-5.754h.672V-7a7.592,7.592,0,0,0,1.218,1.316,12.024,12.024,0,0,1,1.036-1.022,8.455,8.455,0,0,1-1.582-1.386h1.932v-1.33h-1.036a12.478,12.478,0,0,0,.854-1.372c.1-.014.392-.042.392-.238a.2.2,0,0,0-.14-.168l-1.358-.518a9.077,9.077,0,0,1-.952,1.764,4.4,4.4,0,0,1,1.064.532h-1.428v-1.862c.28-.112.336-.168.336-.252,0-.126-.14-.168-.21-.168l-1.568-.126v2.408H287.56c.14-.084.98-.476,1.26-.574a7.506,7.506,0,0,0-1.078-1.764l-1.232.672a14.937,14.937,0,0,1,.952,1.666h-1.008v1.33h1.918a9.414,9.414,0,0,1-2.2,1.876,4.24,4.24,0,0,1,1.148.952,9.626,9.626,0,0,0,1.862-1.82v1.33h.042a8.943,8.943,0,0,1-.518.938h-2.254V-3.43h1.386c-.56.84-.812,1.162-1.064,1.5a3.236,3.236,0,0,1,1.288.63l.308-.42c.28.168.6.35.868.546A6.041,6.041,0,0,1,286.874-.07a3.97,3.97,0,0,1,.9,1.19,6.966,6.966,0,0,0,2.646-1.442A10.9,10.9,0,0,1,291.592.784a9.769,9.769,0,0,1,.952-1.218,5.068,5.068,0,0,0-1.064-.98,5.789,5.789,0,0,0,1.036-1.75c.126,0,.35-.028.35-.168a.151.151,0,0,0-.028-.1h.518V-4.816h-2.968c.07-.126.112-.21.168-.322.112.014.378.056.378-.112,0-.07-.1-.14-.224-.2Zm7.126-2.03a12.231,12.231,0,0,1-.812,3.766,11.249,11.249,0,0,1-.938-3.766ZM291.088-3.43a4.64,4.64,0,0,1-.756,1.232c-.14-.1-.784-.476-1.134-.672.182-.266.266-.392.378-.56Zm-481.082,16.5a18.933,18.933,0,0,1-4.046.322,24.484,24.484,0,0,1-3.318-.168l.112,1.988a38.091,38.091,0,0,0,4.97-.21c-.574.42-1.176.882-1.666,1.274.532.546.6.616,1.148,1.26a13.539,13.539,0,0,1,3.738-2.688Zm1.96-.434c.308.308.9,1.008,1.246,1.442a4.272,4.272,0,0,1,.826-.84,15.788,15.788,0,0,0-1.344-1.4Zm-8.12,5.936c-1.89,1.61-2.1,2.59-2.1,3.22,0,2.072,2.1,2.66,5.25,2.66a28.788,28.788,0,0,0,5.754-.56,12.4,12.4,0,0,1-.392-1.974,17.787,17.787,0,0,1-5.334.7,8.408,8.408,0,0,1-2.982-.406.683.683,0,0,1-.35-.63c0-.7,1.246-1.778,1.456-1.96Zm6.986-4.8a12.673,12.673,0,0,1,1.344,1.526,6.593,6.593,0,0,1,.756-.868,11.2,11.2,0,0,0-1.288-1.456Zm12.208,6.622h2.786v2.17c0,.546-.084.756-.686.756a6.122,6.122,0,0,1-1.106-.112,5.3,5.3,0,0,1,.644,1.82c1.652.084,2.912-.042,2.912-1.792V12.73H-183.3v5.544c0,2.156-.294,4.606-1.512,6.146a4.456,4.456,0,0,1,1.876.7,10.618,10.618,0,0,0,1.386-4.732h2.856v4.046h1.736Zm0-3.108h2.786v1.526h-2.786Zm-1.736,1.526h-2.758c.014-.238.028-.546.028-.8V17.28h2.73Zm1.736-4.564h2.786v1.526h-2.786Zm-1.736,1.526h-2.73V14.242h2.73Zm14.8,6.02a8.256,8.256,0,0,1,1.134,1.526c.42-.266.826-.5,1.218-.742a9.9,9.9,0,0,0-.924-1.162h3.542V16.916h-8.68V21.41h4.34Zm-2.016-3.122V17.98h5.348v.686Zm5.348.952v.728h-5.348v-.728Zm-1.82-6.538v-.448c.126-.056.252-.126.252-.238,0-.14-.182-.154-.28-.154l-1.778-.1v.938h-4.7V14.4h2.618l-.518.14a5.792,5.792,0,0,1,.448.56h-3.318v1.288h12.838V15.1h-3.388a3.959,3.959,0,0,0,.252-.434c.266-.028.406-.07.406-.168a.2.2,0,0,0-.028-.1h1.946V13.08Zm.672,1.316a6.317,6.317,0,0,1-.35.7h-2.814l.378-.112a3.831,3.831,0,0,0-.448-.588Zm-6.216,7.294a9.459,9.459,0,0,1-1.764,2.492,3.826,3.826,0,0,1,1.372.854,15.236,15.236,0,0,0,1.6-2.226c.224,0,.434-.042.434-.2,0-.112-.14-.182-.308-.266Zm1.862-.014v2.03c0,.882.266,1.274,1.47,1.274h2.982c1.6,0,1.834-.756,2.1-1.792a3.794,3.794,0,0,1-1.414-.728c-.168.742-.322,1.218-1.008,1.218h-1.932c-.42,0-.672-.014-.672-.532v-.924a.286.286,0,0,0,.2-.238c0-.112-.126-.154-.266-.168Zm6.2.644a14.039,14.039,0,0,1,1.778,2.422,7.679,7.679,0,0,1,1.288-.91,12.559,12.559,0,0,0-1.764-2.24Zm7.6-9.856c.014.28.028.378.028.952,0,.8-.154,4.69-.154,5.572,0,2.8.1,5.824,3.276,5.824,1.652,0,4.382-.812,6.664-4.48a9.337,9.337,0,0,1-1.414-1.568c-.574,1.232-2.688,4.074-5.068,4.074-1.3,0-1.526-.938-1.526-3.346a42.849,42.849,0,0,1,.406-6.286c.112-.028.308-.1.308-.238s-.1-.168-.322-.2Zm24.528.1a54.9,54.9,0,0,1-10.92,1.33,8.285,8.285,0,0,1-.91-.042l.266,2.254a60.559,60.559,0,0,1,6.384-.882c-1.876,1.442-2.94,3.052-2.94,4.928,0,3.178,2.982,4.4,5.11,4.872a10.306,10.306,0,0,1,.882-2.114c-2.968-.224-4.116-1.288-4.116-2.926,0-2.562,3.108-5.432,6.608-5.418Zm2.814,9.674a11.632,11.632,0,0,1,2.842,2.52l1.358-1.358a17.389,17.389,0,0,0-3.052-2.408Zm18.256-10.024c.014.7.042,2.044.042,2.688-.21.014-1.05.07-1.666.07a6.37,6.37,0,0,1-1.078-.07l.014,1.89c.756,0,1.848-.014,2.73-.084,0,.686,0,1.372.014,2.058-.574.336-3.122,2.268-3.766,2.618l.84,2.03c.28-.322.434-.49.728-.784a18.833,18.833,0,0,1,2.6,2.156l1.6-.728c-.112-1.162-.126-1.484-.182-4.4a6.072,6.072,0,0,1,2.394-.616,1.947,1.947,0,0,1,2.086,2c0,.826-.434,1.5-1.134,1.5-.854,0-.84-.77-.84-1.148-.336.126-1.246.42-1.512.5a2.154,2.154,0,0,0,2.184,2.422,3.107,3.107,0,0,0,3.15-3.346,3.549,3.549,0,0,0-3.822-3.6,6.916,6.916,0,0,0-2.506.5c.014-.21.028-1.176.028-1.4a14.682,14.682,0,0,0,2.478-.644,13.583,13.583,0,0,1-.014-1.918,9.652,9.652,0,0,1-2.394.728c.014-.28.028-.714.112-1.68.1-.028.252-.07.252-.21s-.112-.168-.294-.2Zm.07,8.5v1.246c0,.14-.014.308-.112.308a5.58,5.58,0,0,1-1.022-.672A10.381,10.381,0,0,1-106.6,20.71Zm5.208-4.984a8.294,8.294,0,0,1,2.968,2.212A9.016,9.016,0,0,1-97.244,16.5a11.986,11.986,0,0,0-3.052-2.254Zm16.6,5.516c.658.182,1.106.294,1.554.392a4.66,4.66,0,0,1,.854-1.568,17.011,17.011,0,0,1-5.18-1.442,9.841,9.841,0,0,0,2.464-2.576l-.672-.6h-4.088a4.548,4.548,0,0,0,.336-.532,1.058,1.058,0,0,0,.434-.14h4.466v1.554h1.694V13.3h-5.25V12.59c.2-.07.364-.126.364-.266s-.154-.168-.28-.168l-1.848-.042V13.3h-5.25v3.08h1.666v-1.61h2.142a9.256,9.256,0,0,1-4,3.43,3.847,3.847,0,0,1,1.232,1.134,12.7,12.7,0,0,0,2.366-1.722,9.487,9.487,0,0,0,1.33,1.106,15.4,15.4,0,0,1-5.1,1.6,4.265,4.265,0,0,1,.9,1.414c.588-.126.938-.21,1.316-.308v3.612h1.694V24.63h5.208v.406h1.652Zm-6.86,2.072v-1.26h5.208v1.26Zm.448-2.576a13.977,13.977,0,0,0,2.184-1.106,14.278,14.278,0,0,0,2.534,1.106Zm3.3-3.962a6.321,6.321,0,0,1-1.246,1.106,7.99,7.99,0,0,1-1.512-1.106ZM-75.95,23.72c.056.1.14.266.28.266s.168-.154.21-.336a27.055,27.055,0,0,0,2.576-1.54v.91c0,.476-.2.532-.714.532-.392,0-.7-.028-.826-.028a3.735,3.735,0,0,1,.756,1.624c1.764-.112,2.422-.238,2.422-1.974V21.662a9.185,9.185,0,0,0,2.9,2.59,3.684,3.684,0,0,1,.994-1.316,8.33,8.33,0,0,1-2.268-1.5,8.673,8.673,0,0,0,1.428-1.652c.168.014.364.014.364-.168,0-.126-.07-.168-.14-.224l-.952-.658h1.176V17.448h-3.5v-.686h2.394V15.586h-2.394v-.6h3.234V13.752h-1.932c.182-.294.406-.686.518-.882.21-.056.294-.084.294-.168a.243.243,0,0,0-.154-.21l-1.5-.462a10.906,10.906,0,0,1-.84,1.722h-1.568l.462-.2A16.883,16.883,0,0,0-73.71,12l-1.386.63a7.633,7.633,0,0,1,.77,1.12h-1.708v1.232h3.15v.6h-2.408v1.176h2.408v.686H-76.16v1.288h1.512l-1.148.77a17.144,17.144,0,0,1,1.3,1.61c.14-.126.9-.714,1.064-.854a10.639,10.639,0,0,0-1.148-1.526h1.694v1.876a16.334,16.334,0,0,1-3.668,1.862Zm4.7-4.984H-69.2a11.516,11.516,0,0,1-1.3,1.792,7.616,7.616,0,0,1-.742-.98Zm-6.174.49a9.38,9.38,0,0,0,.854,1.4,3.1,3.1,0,0,1,.77-1.26,9.012,9.012,0,0,1-1.624-2.73V16.2h1.19V14.774h-1.19V12.716c.238-.112.28-.14.28-.238,0-.154-.252-.2-.28-.2l-1.624-.1v2.59H-80.7V16.2h1.708a12.94,12.94,0,0,1-2.086,4.676,4.506,4.506,0,0,1,1.162,1.092,11.709,11.709,0,0,0,.938-2.03v5.124h1.554Zm19.432,5.334a7.634,7.634,0,0,0,3.15-1.988,6.174,6.174,0,0,0,1.652-4.242,5.359,5.359,0,0,0-5.656-5.362,6.73,6.73,0,0,0-6.692,6.412c0,2.506,1.89,4.27,2.968,4.27,1.442,0,3.458-3.752,3.934-8.974a3.565,3.565,0,0,1,3.57,3.654,4.667,4.667,0,0,1-4.158,4.564A9,9,0,0,1-57.988,24.56Zm-2.632-9.548a13.264,13.264,0,0,1-1.05,4.858c-.224.56-.616,1.512-1.022,1.512-.434,0-1.064-.938-1.064-2.128A4.869,4.869,0,0,1-60.62,15.012Zm19.026-1.946a18.933,18.933,0,0,1-4.046.322,24.484,24.484,0,0,1-3.318-.168l.112,1.988a38.091,38.091,0,0,0,4.97-.21c-.574.42-1.176.882-1.666,1.274.532.546.6.616,1.148,1.26a13.539,13.539,0,0,1,3.738-2.688Zm1.96-.434c.308.308.9,1.008,1.246,1.442a4.272,4.272,0,0,1,.826-.84,15.789,15.789,0,0,0-1.344-1.4Zm-8.12,5.936c-1.89,1.61-2.1,2.59-2.1,3.22,0,2.072,2.1,2.66,5.25,2.66a28.788,28.788,0,0,0,5.754-.56,12.4,12.4,0,0,1-.392-1.974,17.787,17.787,0,0,1-5.334.7,8.408,8.408,0,0,1-2.982-.406.683.683,0,0,1-.35-.63c0-.7,1.246-1.778,1.456-1.96Zm6.986-4.8a12.673,12.673,0,0,1,1.344,1.526,6.592,6.592,0,0,1,.756-.868,11.2,11.2,0,0,0-1.288-1.456Zm11.928,7.056a12,12,0,0,0,4.508,3.892,4.42,4.42,0,0,1,1.3-1.344,13.2,13.2,0,0,1-4.788-3.6h4.536V18.246H-26.25a13.972,13.972,0,0,0,.994-2.044c.182-.042.308-.056.308-.21a.21.21,0,0,0-.154-.182l-1.064-.462h2.254V13.822H-28.84V12.87a.738.738,0,0,0,.21-.154.169.169,0,0,0,.084-.126c0-.14-.126-.168-.238-.182L-30.52,12.3v1.526h-4.942v1.526h2.226l-1.12.6a13.951,13.951,0,0,1,1.246,2.3h-3v1.526h4.592a13.42,13.42,0,0,1-4.97,3.878A4.255,4.255,0,0,1-35,24.84a15.421,15.421,0,0,0,4.48-3.934V25.05h1.68Zm2.072-5.474a14.979,14.979,0,0,1-1.12,2.436c.322.14.672.35.882.462H-28.84v-2.9Zm-5.558,2.9a8.227,8.227,0,0,1,.938-.476A10.362,10.362,0,0,0-32.7,15.348h2.184v2.9Zm18.858-1.652V15.586c.238-.056.308-.126.308-.21s-.112-.154-.406-.182h5.054V13.71h-5.4v-.952c.07-.042.14-.1.224-.154a.154.154,0,0,0,.084-.14.221.221,0,0,0-.238-.21l-1.89-.1V13.71h-4.55v4.242c0,.924,0,4.1-1.372,6.314a4.967,4.967,0,0,1,1.61.742,9.427,9.427,0,0,0,1.176-3.136,24.687,24.687,0,0,0,.364-3.794V15.194H-15.3v4.452h-2.632v5.39h1.652v-.5h5.026v.49H-9.52V19.646h-3.948v-1.6h4.76V16.594Zm-2.814,4.55h5.026V23.09h-5.026Zm15.218-9.058a14.269,14.269,0,0,1-.8,1.9,8.44,8.44,0,0,1-.854.028c-1.092,0-1.932-.084-2.254-.112v1.75c1.134.014,1.554,0,2.24-.028a27.452,27.452,0,0,1-3.08,4.116l1.666.98c1.33-2.184,2.366-3.01,3.458-3.01a1.107,1.107,0,0,1,1.148.756c-.854.448-3.738,1.96-3.738,3.906,0,2.394,3.668,2.394,4.452,2.394a19.156,19.156,0,0,0,3.892-.378,7.84,7.84,0,0,1,.224-1.918,15.941,15.941,0,0,1-4.4.63c-1.652,0-2.366-.224-2.366-.854,0-.6.574-1.218,2.1-2.044a14.6,14.6,0,0,1-.07,1.932c.644-.042,1.778,0,1.876,0,.014-.35.042-.77.042-1.386,0-.364-.014-.854-.056-1.4,1.008-.42,2.072-.77,3.3-1.148l-.7-1.9c-.588.308-1.974.938-2.968,1.386A2.325,2.325,0,0,0-.056,16.4a2.848,2.848,0,0,0-1.33.322c.238-.42.56-.938.728-1.246,1.358-.126,2.758-.364,4.088-.6L3.416,13.08a13.991,13.991,0,0,1-3.164.7c.168-.336.266-.532.42-.868.182-.014.336-.1.336-.224,0-.168-.182-.2-.28-.224Zm13.622,3.738v7.294c0,1.26.826,1.694,1.834,1.694h2.45c.84,0,2.156,0,2.7-2.618a3.761,3.761,0,0,1-1.568-.826c-.294,1.834-.784,1.834-1.358,1.834H15.134c-.7,0-.756-.252-.756-.672V16.4c.1-.014.322-.056.322-.224,0-.21-.224-.224-.322-.224Zm-2.436,1.064a12.066,12.066,0,0,1-2.072,4.8,4.73,4.73,0,0,1,1.834.658A14.962,14.962,0,0,0,11.8,17.8c.21-.056.378-.1.378-.238,0-.112-.126-.168-.266-.21Zm2.66-3.346a16.48,16.48,0,0,1,3.794,2.086,11.655,11.655,0,0,1,1.008-1.5,19.318,19.318,0,0,0-3.934-2.072Zm4.4,3.374a16.17,16.17,0,0,1,2.7,4.41c.42-.252,1.232-.63,1.694-.854a16.142,16.142,0,0,0-2.982-4.438ZM28.5,12.282a12.426,12.426,0,0,1,.21,2.24c.014,3,.014,3.178.126,5.152a4.351,4.351,0,0,0-.6-.042c-1.708,0-4.06.7-4.06,2.506,0,1.4,1.442,2.506,3.682,2.506,1.89,0,3.192-.84,3.094-2.744a12.151,12.151,0,0,1,3.654,2.17,12.719,12.719,0,0,1,1.26-1.666A15.624,15.624,0,0,0,30.8,20a16.9,16.9,0,0,1-.21-3,22.031,22.031,0,0,0,4.452-.546,14.182,14.182,0,0,1,.112-2.044,15.248,15.248,0,0,1-4.536.7c.042-1.064.1-1.652.14-2.016.154-.042.294-.07.294-.238,0-.14-.112-.168-.28-.2Zm.49,9.1c.014.63.028.868-.1,1.092a1.42,1.42,0,0,1-1.26.56c-.112,0-1.512,0-1.512-.84,0-.77,1.33-.938,1.89-.938A3.691,3.691,0,0,1,28.994,21.382Zm11.522-8.946a3.247,3.247,0,0,1-.1.546A15.467,15.467,0,0,0,39.97,16.5a13.917,13.917,0,0,0,.952,5.012l1.68-.2a9.29,9.29,0,0,1,1.47-3.668,7.067,7.067,0,0,1-1.218-1.008,17.073,17.073,0,0,0-.91,1.834,6.918,6.918,0,0,1-.154-1.512,11.612,11.612,0,0,1,.6-3.626c.14-.028.322-.07.322-.238s-.154-.182-.378-.238Zm6.146-.126a26.888,26.888,0,0,1,.5,5.026c0,3.15-1.134,5.166-3.85,6.412a4.937,4.937,0,0,1,1.526,1.4,8.018,8.018,0,0,0,4.3-7.742c0-.7-.028-1.33-.056-1.722-.028-.42-.168-2.436-.182-2.9.1-.028.238-.056.238-.21s-.126-.182-.336-.2Zm9.912-.1c.014.7.042,2.044.042,2.688-.21.014-1.05.07-1.666.07a6.37,6.37,0,0,1-1.078-.07l.014,1.89c.756,0,1.848-.014,2.73-.084,0,.686,0,1.372.014,2.058-.574.336-3.122,2.268-3.766,2.618l.84,2.03c.28-.322.434-.49.728-.784a18.833,18.833,0,0,1,2.6,2.156l1.6-.728c-.112-1.162-.126-1.484-.182-4.4a6.072,6.072,0,0,1,2.394-.616,1.947,1.947,0,0,1,2.086,2c0,.826-.434,1.5-1.134,1.5-.854,0-.84-.77-.84-1.148-.336.126-1.246.42-1.512.5a2.154,2.154,0,0,0,2.184,2.422,3.107,3.107,0,0,0,3.15-3.346,3.549,3.549,0,0,0-3.822-3.6,6.916,6.916,0,0,0-2.506.5c.014-.21.028-1.176.028-1.4a14.682,14.682,0,0,0,2.478-.644,13.583,13.583,0,0,1-.014-1.918,9.652,9.652,0,0,1-2.394.728c.014-.28.028-.714.112-1.68.1-.028.252-.07.252-.21s-.112-.168-.294-.2Zm.07,8.5v1.246c0,.14-.014.308-.112.308a5.58,5.58,0,0,1-1.022-.672A10.38,10.38,0,0,1,56.644,20.71Zm5.208-4.984a8.294,8.294,0,0,1,2.968,2.212A9.016,9.016,0,0,1,66,16.5a11.986,11.986,0,0,0-3.052-2.254ZM71.9,16.37l.042-.084c.224-.014.448-.028.448-.224,0-.1-.07-.154-.238-.238l-1.316-.616a12.609,12.609,0,0,1-3.6,4.116,4.42,4.42,0,0,1,1.26,1.12,7.709,7.709,0,0,0,.9-.826v5.5h1.694V18.3c.056-.042.182-.112.182-.224s-.182-.2-.336-.252a14.962,14.962,0,0,0,.91-1.344V17.84h5.166v1.274h-4.9V20.57h1.862l-1.176.714a10.509,10.509,0,0,1,1.456,2.282c.546-.378.826-.574,1.428-.924A14.8,14.8,0,0,0,74.2,20.57h2.814v2.324c0,.6-.364.616-.714.616a5.621,5.621,0,0,1-1.176-.14,4.323,4.323,0,0,1,.672,1.736c.364.014.56.028.854.028.9,0,2.114-.1,2.114-1.694V20.57h1.652V19.114H78.764v-.966c.126-.042.252-.084.252-.224a.2.2,0,0,0-.028-.084H80.57V16.37H76.916v-1.2H80.08V13.7H76.916v-.952c.252-.168.308-.21.308-.322s-.07-.14-.308-.154l-1.694-.07v1.5h-2.9v1.47h2.9v1.2Zm-1.33-4.284a10.62,10.62,0,0,1-3,3.052,2.844,2.844,0,0,1,1.274,1.022,17.277,17.277,0,0,0,2.9-2.856c.154.014.35.028.35-.14,0-.1-.112-.21-.21-.266Zm16.7.056a17.418,17.418,0,0,1-.546,2.534,16.93,16.93,0,0,1-3.458-.266l.014,1.946a25.355,25.355,0,0,0,2.912.07A17.914,17.914,0,0,1,84.21,20.71l1.68.854a7.415,7.415,0,0,1,5.082-2.45c1.106,0,1.946.462,1.946,1.61,0,2.1-3.276,2.422-5.082,2.422a20.7,20.7,0,0,1-2.114-.126A7.527,7.527,0,0,1,86.17,24.8a12.113,12.113,0,0,0,1.47.07c1.708,0,7.252-.21,7.252-4.088,0-.644-.224-3.22-3.808-3.22a8.1,8.1,0,0,0-3.92,1.106c.6-1.47.854-2.156.924-2.352a24.406,24.406,0,0,0,5.768-1.2,5.153,5.153,0,0,1-.364-1.764A22.826,22.826,0,0,1,88.7,14.48c.07-.2.392-1.2.462-1.428.154-.014.322-.056.322-.2,0-.112-.1-.168-.28-.21Zm12.74.322c.014.28.028.378.028.952,0,.8-.154,4.69-.154,5.572,0,2.8.1,5.824,3.276,5.824,1.652,0,4.382-.812,6.664-4.48a9.336,9.336,0,0,1-1.414-1.568c-.574,1.232-2.688,4.074-5.068,4.074-1.3,0-1.526-.938-1.526-3.346a42.851,42.851,0,0,1,.406-6.286c.112-.028.308-.1.308-.238s-.1-.168-.322-.2Zm24.528.1a54.9,54.9,0,0,1-10.92,1.33,8.285,8.285,0,0,1-.91-.042l.266,2.254a60.559,60.559,0,0,1,6.384-.882c-1.876,1.442-2.94,3.052-2.94,4.928,0,3.178,2.982,4.4,5.11,4.872a10.306,10.306,0,0,1,.882-2.114c-2.968-.224-4.116-1.288-4.116-2.926,0-2.562,3.108-5.432,6.608-5.418Zm6.23-.35c.014.7.042,2.044.042,2.688-.21.014-1.05.07-1.666.07a6.37,6.37,0,0,1-1.078-.07l.014,1.89c.756,0,1.848-.014,2.73-.084,0,.686,0,1.372.014,2.058-.574.336-3.122,2.268-3.766,2.618l.84,2.03c.28-.322.434-.49.728-.784a18.832,18.832,0,0,1,2.6,2.156l1.6-.728c-.112-1.162-.126-1.484-.182-4.4a6.072,6.072,0,0,1,2.394-.616,1.947,1.947,0,0,1,2.086,2c0,.826-.434,1.5-1.134,1.5-.854,0-.84-.77-.84-1.148-.336.126-1.246.42-1.512.5a2.154,2.154,0,0,0,2.184,2.422,3.107,3.107,0,0,0,3.15-3.346,3.549,3.549,0,0,0-3.822-3.6,6.916,6.916,0,0,0-2.506.5c.014-.21.028-1.176.028-1.4a14.681,14.681,0,0,0,2.478-.644,13.585,13.585,0,0,1-.014-1.918,9.652,9.652,0,0,1-2.394.728c.014-.28.028-.714.112-1.68.1-.028.252-.07.252-.21s-.112-.168-.294-.2Zm.07,8.5v1.246c0,.14-.014.308-.112.308a5.581,5.581,0,0,1-1.022-.672A10.382,10.382,0,0,1,130.844,20.71Zm5.208-4.984a8.294,8.294,0,0,1,2.968,2.212A9.016,9.016,0,0,1,140.2,16.5a11.986,11.986,0,0,0-3.052-2.254Zm8.344-3.29a3.247,3.247,0,0,1-.1.546,15.467,15.467,0,0,0-.448,3.514,13.917,13.917,0,0,0,.952,5.012l1.68-.2a9.291,9.291,0,0,1,1.47-3.668,7.067,7.067,0,0,1-1.218-1.008,17.075,17.075,0,0,0-.91,1.834,6.919,6.919,0,0,1-.154-1.512,11.613,11.613,0,0,1,.6-3.626c.14-.028.322-.07.322-.238s-.154-.182-.378-.238Zm6.146-.126a26.888,26.888,0,0,1,.5,5.026c0,3.15-1.134,5.166-3.85,6.412a4.938,4.938,0,0,1,1.526,1.4,8.018,8.018,0,0,0,4.3-7.742c0-.7-.028-1.33-.056-1.722-.028-.42-.168-2.436-.182-2.9.1-.028.238-.056.238-.21s-.126-.182-.336-.2Zm11.83-.014c.042.364.042.5.07,1.792-.644.042-3.808.168-4.522.238V16.2c1.148-.14,2.562-.322,4.536-.392,0,.266,0,1.568.014,1.862-.28.014-.49.014-.812.014-.7,0-1.218-.014-1.218-.378,0-.1.238-.364.392-.532l-1.344-.35c-.742.742-.994,1.162-.994,1.638,0,1.3,2.38,1.246,4.018,1.218,0,.126.014,1.05.014,1.12-.182,0-.63-.028-.784-.028-1.134,0-3.584.406-3.584,2.156,0,1.022,1.05,2.212,3.486,2.212,2.954,0,2.926-1.638,2.87-2.506a9.952,9.952,0,0,1,3.262,1.848,17.465,17.465,0,0,1,1.3-1.512,13.2,13.2,0,0,0-4.662-1.9c0-.21-.028-1.26-.042-1.5a28.538,28.538,0,0,0,3.668-.448V16.916a19.215,19.215,0,0,1-3.71.644V15.74a33.688,33.688,0,0,1,4.074.1V14.06c-.812-.07-1.3-.084-2.1-.084-.938,0-1.554.014-1.918.028.028-.392.042-.63.07-.952.1-.028.252-.07.252-.238,0-.14-.14-.168-.28-.2Zm.168,9.548c.1.966-.336,1.3-1.19,1.3-.21,0-1.274-.042-1.274-.63,0-.672,1.218-.756,1.666-.756A3.256,3.256,0,0,1,162.54,21.844Zm14.868-9.632a15.485,15.485,0,0,1,.2,1.848c-4.83.28-5.362.308-5.824.308l.14,2a42.751,42.751,0,0,1,5.74-.672c0,.308,0,.5-.014,1.092a1.805,1.805,0,0,0-.588-.084c-1.484,0-2.45,1.134-2.45,2.856,0,.938.308,2.66,2.016,2.66a1.968,1.968,0,0,0,1.344-.49c-.168.434-.6,1.512-2.8,2.394a7.983,7.983,0,0,1,1.694,1.246A6.292,6.292,0,0,0,180.222,20a4.679,4.679,0,0,0-.714-2.548c-.042-.658-.014-1.582-.014-1.82.63-.028,2.058-.056,4.718.056a9.176,9.176,0,0,1-.056-1.232,3.993,3.993,0,0,1,.042-.686c-.168.014-.63.042-4.732.21a7.645,7.645,0,0,1,.07-1.12c.14-.07.224-.112.224-.238,0-.1-.1-.126-.322-.154Zm-.308,6.006c.784,0,.868.8.868,1.092,0,.812-.364,1.484-.924,1.484-.238,0-.868-.14-.868-1.3C176.176,18.638,176.624,18.218,177.1,18.218Zm11.662,2.716a1.911,1.911,0,1,0,1.9,1.918A1.909,1.909,0,0,0,188.762,20.934Zm0,.8a1.12,1.12,0,1,1-1.12,1.12A1.12,1.12,0,0,1,188.762,21.732ZM-192.9,36.534V41.21h9.3V36.534Zm1.764,1.82v-.672h5.768v.672Zm5.768,1.022v.686h-5.768v-.686Zm2.758,9.436a7.178,7.178,0,0,1,.658-1.75,35,35,0,0,1-3.682.2c-.294,0-1.092,0-1.722-.056V45.634h3.78V44.262h-3.78v-1.2h5.488V41.714h-12.8v1.344h5.572v3.78a4.226,4.226,0,0,1-1.932-1.652c.084-.224.14-.378.336-.98.294-.084.336-.112.336-.224,0-.084-.014-.154-.238-.224l-1.484-.5a11.4,11.4,0,0,1-2.786,5,4.33,4.33,0,0,1,1.54.854,10.624,10.624,0,0,0,1.666-2.464c1.526,2.044,3.878,2.17,5.712,2.17Zm3.024-2.436c.028.126.084.252.21.252.084,0,.112-.028.154-.112.028-.042.07-.14.1-.2.714-.084.9-.112,2.562-.322a4.566,4.566,0,0,1-2.842,1.946,4.6,4.6,0,0,1,1.176,1.386,5.451,5.451,0,0,0,3.584-3.64c.714-.112.994-.168,1.218-.224a7.561,7.561,0,0,1,.154-1.526c-.252.07-.322.084-1.022.238a11.774,11.774,0,0,0,.084-1.442V36.842c.182-.07.336-.126.336-.266,0-.084-.084-.168-.238-.182l-1.834-.1v1.988h-3.794v1.484h3.794v1.6h-3.234v1.512h3.234a9.515,9.515,0,0,1-.112,1.568,38.726,38.726,0,0,1-3.934.378Zm8.68-8.092V36.856c.2-.042.364-.1.364-.238s-.154-.182-.252-.182l-1.862-.112V49.078h1.75V46.264h3.976V44.682h-3.976V42.876h3.178V41.364h-3.178v-1.6h3.836V38.284Zm14.756-.49a15,15,0,0,1,1.568,1.414c.252-.252.658-.658.91-.9a14.341,14.341,0,0,0-1.582-1.344Zm-6.51-.07a14.915,14.915,0,0,1,3.514,1.806c.224-.336.854-1.246,1.134-1.554a19.743,19.743,0,0,0-3.612-1.708Zm7.854-1.064a12.623,12.623,0,0,1,1.526,1.372,5.073,5.073,0,0,1,.854-.784,11.865,11.865,0,0,0-1.512-1.344Zm-9.31,4.312a12.7,12.7,0,0,1,3.3,1.918,10.6,10.6,0,0,1,1.176-1.6,17.322,17.322,0,0,0-3.4-1.9Zm1.82,7.784c.07.126.112.2.21.2.168,0,.21-.2.238-.336a22.468,22.468,0,0,0,9.786-7.6,6.282,6.282,0,0,1-1.232-1.6,20.01,20.01,0,0,1-10.01,7.588Zm12.53-7.056v1.988h12.082V41.7Zm26.488-5.922a1.3,1.3,0,0,0-1.3,1.3,1.3,1.3,0,0,0,1.3,1.288,1.3,1.3,0,0,0,1.3-1.288A1.309,1.309,0,0,0-123.277,35.778Zm0,.644a.654.654,0,0,1,.644.658.642.642,0,0,1-.644.644.642.642,0,0,1-.644-.644A.654.654,0,0,1-123.277,36.422Zm-11.48,1.624V39.8h8.806a11.911,11.911,0,0,1-7.112,7.532,7.506,7.506,0,0,1,1.456,1.456c4.494-2.352,5.838-4.452,7.406-8.036a7.806,7.806,0,0,1,.812-1.638l-1.4-1.162a4.436,4.436,0,0,1-.966.1Zm22.078,10.514a7.634,7.634,0,0,0,3.15-1.988,6.174,6.174,0,0,0,1.652-4.242,5.359,5.359,0,0,0-5.656-5.362,6.73,6.73,0,0,0-6.692,6.412c0,2.506,1.89,4.27,2.968,4.27,1.442,0,3.458-3.752,3.934-8.974a3.565,3.565,0,0,1,3.57,3.654,4.667,4.667,0,0,1-4.158,4.564A9,9,0,0,1-112.679,48.56Zm-2.632-9.548a13.264,13.264,0,0,1-1.05,4.858c-.224.56-.616,1.512-1.022,1.512-.434,0-1.064-.938-1.064-2.128A4.869,4.869,0,0,1-115.311,39.012ZM-93.3,44.5l-.532.182a4.314,4.314,0,0,1,.28.672c-.154.042-.252.056-.714.168.084-.224.448-1.3.532-1.54.21-.112.322-.154.322-.294,0-.112-.112-.154-.182-.168l-1.064-.224a17.143,17.143,0,0,1-.616,2.45l-.056.014V43.226h1.582V37.668h-2.562c.056-.14.322-.84.378-.994.21-.028.336-.084.336-.21,0-.1-.112-.168-.238-.182l-1.624-.182a10.086,10.086,0,0,1-.56,1.568h-1.722v5.558h2.968V47.3c0,1.176.742,1.6,1.708,1.6h5.39c1.274,0,2.17-.084,2.646-2.254a2.975,2.975,0,0,1-1.442-.8c-.154,1.456-.574,1.554-1.176,1.554h-4.9c-.756,0-.784-.224-.784-.588v-.35l.126.364c.056.14.14.224.21.224s.168-.042.2-.308c.266-.084,1.092-.336,1.4-.434a4.067,4.067,0,0,1,.126.462,7.992,7.992,0,0,1,.952-.35,13.983,13.983,0,0,0-.518-1.568c.168.154.448.434.532.518a7.434,7.434,0,0,0,.98-1.428v3.052h1.442v-3.4A7.413,7.413,0,0,0-88,45.508a4.936,4.936,0,0,1,1.092-1.064,8,8,0,0,1-2.6-2.52h2.086V40.58h-2.464V39.53h1.946V38.2h-1.946V36.674c.112-.07.294-.154.294-.28s-.112-.168-.294-.182l-1.442-.07V38.2h-1.9v1.33h1.9v1.05h-2.142v1.344h1.792a9.736,9.736,0,0,1-1.75,2.492Zm-4.032-4.648H-98.4v-.924h1.064Zm1.12-.924h1.092v.924h-1.092Zm0,2.016h1.092v1.05h-1.092Zm-1.12,1.05H-98.4v-1.05h1.064Zm-1.358,1.288a7.628,7.628,0,0,1-1.75,4.914,4.208,4.208,0,0,1,1.316.924,9.592,9.592,0,0,0,1.834-4.942c.2-.056.322-.1.322-.266,0-.07-.07-.14-.238-.2Zm18.368-7.014c.014.588.014.8,0,2.632h-4.438v1.694h4.41A7.727,7.727,0,0,1-81.739,45.1a7.681,7.681,0,0,1-3.542,2.66,8.019,8.019,0,0,1,1.33,1.344,8.325,8.325,0,0,0,3.192-2.394,9.978,9.978,0,0,0,2.184-6.118h3.654a25.188,25.188,0,0,1-.364,5.25c-.224,1.05-.462,1.288-1.218,1.288a8.154,8.154,0,0,1-1.694-.2,6.536,6.536,0,0,1,.826,2.044c1.974.07,3.108-.35,3.57-1.484.364-.9.756-3.388.756-8.6h-5.446c.014-.6.042-1.428.042-2.016.2-.084.364-.182.364-.308,0-.182-.238-.2-.322-.2Zm15.232-.182a14.269,14.269,0,0,1-.8,1.9,8.442,8.442,0,0,1-.854.028c-1.092,0-1.932-.084-2.254-.112v1.75c1.134.014,1.554,0,2.24-.028a27.452,27.452,0,0,1-3.08,4.116l1.666.98c1.33-2.184,2.366-3.01,3.458-3.01a1.107,1.107,0,0,1,1.148.756c-.854.448-3.738,1.96-3.738,3.906,0,2.394,3.668,2.394,4.452,2.394a19.156,19.156,0,0,0,3.892-.378,7.84,7.84,0,0,1,.224-1.918,15.941,15.941,0,0,1-4.4.63c-1.652,0-2.366-.224-2.366-.854,0-.6.574-1.218,2.1-2.044a14.6,14.6,0,0,1-.07,1.932c.644-.042,1.778,0,1.876,0,.014-.35.042-.77.042-1.386,0-.364-.014-.854-.056-1.4,1.008-.42,2.072-.77,3.3-1.148l-.7-1.9c-.588.308-1.974.938-2.968,1.386A2.325,2.325,0,0,0-64.085,40.4a2.848,2.848,0,0,0-1.33.322c.238-.42.56-.938.728-1.246,1.358-.126,2.758-.364,4.088-.6l-.014-1.792a13.991,13.991,0,0,1-3.164.7c.168-.336.266-.532.42-.868.182-.014.336-.1.336-.224,0-.168-.182-.2-.28-.224Zm16.856,5.264V36.7c.182-.042.336-.112.336-.238,0-.1-.1-.168-.322-.182l-1.862-.112v5.18h-5v1.456h9.716v1.33h-8.848v1.428h8.848v1.4h-9.758V48.49h9.758v.588h1.862V41.35ZM-54.8,37.5a14.521,14.521,0,0,1,2.016,3.626c.154-.1.294-.182.532-.308.154-.084.924-.476,1.106-.574a14.3,14.3,0,0,0-2.044-3.556Zm9.464-.658a13.309,13.309,0,0,1-1.946,3.612,15.1,15.1,0,0,1,1.61.714,24.178,24.178,0,0,0,1.848-3.248c.1-.028.224-.056.266-.07a.193.193,0,0,0,.154-.182.228.228,0,0,0-.154-.21Zm6.9.882a14.916,14.916,0,0,1,3.514,1.806c.224-.336.854-1.246,1.134-1.554A19.743,19.743,0,0,0-37.4,36.268Zm-1.456,3.248a12.705,12.705,0,0,1,3.3,1.918,10.6,10.6,0,0,1,1.176-1.6,17.322,17.322,0,0,0-3.4-1.9Zm1.82,7.784c.07.126.112.2.21.2.168,0,.21-.2.238-.336a22.468,22.468,0,0,0,9.786-7.6,6.281,6.281,0,0,1-1.232-1.6,20.01,20.01,0,0,1-10.01,7.588Zm20.678-.84v.434h1.666V39.81H-23.6v1.554h6.2v1.694h-6.02v1.554h6.02v1.764h-6.384v1.54ZM-10.7,41.7v1.988H1.379V41.7ZM6.6,37.234v4.1c0,1.932-.378,3.514-3.038,5.208a6,6,0,0,1,1.582,1.3c1.9-1.484,3.486-3.08,3.486-6.636V37.78c.112-.042.252-.112.252-.266s-.182-.168-.322-.182Zm3.486-.126v8.918c0,.378-.028.728-.056,1.106l1.288.84c.364-.308.49-.406,1.652-1.246a20.915,20.915,0,0,0,4-3.934,5.253,5.253,0,0,1-.938-1.736,14.619,14.619,0,0,1-4,3.906V37.626c.126-.07.266-.126.266-.266s-.112-.14-.266-.154Zm8.89,4.592v1.988H31.059V41.7Zm21.938.462a17.55,17.55,0,0,1,2.016,2.66c-1.778.322-4.424.672-5.712.8.658-1.358,1.26-2.758,1.806-4.172.21-.532,1.162-3.234,1.386-3.85.182-.028.336-.1.336-.266,0-.1-.1-.154-.252-.2l-2.03-.532a42.275,42.275,0,0,1-3.318,9.2c-.224.028-1.274.112-1.512.126l.448,1.82c.028.112.1.252.2.252s.168-.056.224-.252c3.6-.434,3.724-.448,9.3-1.414.14.294.406.84.728,1.694.392-.35,1.512-1.19,1.6-1.246A22.584,22.584,0,0,0,42.567,41.2Zm8.96-5.614a28.228,28.228,0,0,0-.882,6.58,14.391,14.391,0,0,0,.938,5.432l1.68-.476a8.515,8.515,0,0,1,.952-3.514,3.381,3.381,0,0,1-.952-.994c-.224.392-.644,1.344-.686,1.456a7.782,7.782,0,0,1-.126-1.54,17.766,17.766,0,0,1,.924-5.81c.21-.028.35-.056.35-.2s-.112-.154-.322-.238Zm4.032,3.276c.42.028.924.056,1.694.056a22.053,22.053,0,0,0,4.4-.406,14.933,14.933,0,0,1-.182-1.82,16.974,16.974,0,0,1-4.242.448c-.784,0-1.274-.042-1.666-.07Zm-.042,3.668a4.935,4.935,0,0,0-.5,2.086c0,1.386,1.176,2.016,3.976,2.016a27.713,27.713,0,0,0,3.248-.2,7.694,7.694,0,0,1,.168-1.946,14.446,14.446,0,0,1-3.528.378c-1.512,0-2.156-.14-2.156-.84a3.36,3.36,0,0,1,.35-1.2Zm21.49-6.93a54.9,54.9,0,0,1-10.92,1.33,8.286,8.286,0,0,1-.91-.042l.266,2.254a60.558,60.558,0,0,1,6.384-.882c-1.876,1.442-2.94,3.052-2.94,4.928,0,3.178,2.982,4.4,5.11,4.872a10.306,10.306,0,0,1,.882-2.114c-2.968-.224-4.116-1.288-4.116-2.926,0-2.562,3.108-5.432,6.608-5.418Zm6.23-.35c.014.7.042,2.044.042,2.688-.21.014-1.05.07-1.666.07a6.37,6.37,0,0,1-1.078-.07l.014,1.89c.756,0,1.848-.014,2.73-.084,0,.686,0,1.372.014,2.058-.574.336-3.122,2.268-3.766,2.618l.84,2.03c.28-.322.434-.49.728-.784a18.833,18.833,0,0,1,2.6,2.156l1.6-.728c-.112-1.162-.126-1.484-.182-4.4a6.072,6.072,0,0,1,2.394-.616,1.947,1.947,0,0,1,2.086,2c0,.826-.434,1.5-1.134,1.5-.854,0-.84-.77-.84-1.148-.336.126-1.246.42-1.512.5a2.154,2.154,0,0,0,2.184,2.422,3.107,3.107,0,0,0,3.15-3.346,3.549,3.549,0,0,0-3.822-3.6,6.916,6.916,0,0,0-2.506.5c.014-.21.028-1.176.028-1.4a14.681,14.681,0,0,0,2.478-.644,13.583,13.583,0,0,1-.014-1.918,9.652,9.652,0,0,1-2.394.728c.014-.28.028-.714.112-1.68.1-.028.252-.07.252-.21s-.112-.168-.294-.2Zm.07,8.5v1.246c0,.14-.014.308-.112.308a5.58,5.58,0,0,1-1.022-.672A10.381,10.381,0,0,1,81.655,44.71Zm5.208-4.984a8.294,8.294,0,0,1,2.968,2.212A9.016,9.016,0,0,1,91.007,40.5a11.986,11.986,0,0,0-3.052-2.254Zm16.506,3.318v-.728h1.96V41.028h-1.9c.14-.28.28-.56.476-1.05a1.167,1.167,0,0,0,.168-.056v.07h1.414V37.36h-3.234c.154-.5.168-.56.21-.714.084-.042.224-.1.224-.21s-.168-.182-.308-.2l-1.5-.2a9.66,9.66,0,0,1-.2,1.316H98.063v2.632h1.47V38.676h.784a8.543,8.543,0,0,1-2.464,3.836v-1.3H95.585a17.1,17.1,0,0,0,.686-2.744h1.47v-1.5H92.855v1.5h1.792a9.574,9.574,0,0,1-2.366,5.362,3.618,3.618,0,0,1,1.12,1.288,4.324,4.324,0,0,0,.5-.546v4.312h1.61V47.16h.854v.686h1.484v-4.8a8.9,8.9,0,0,1,.616,1.008,8.6,8.6,0,0,0,.63-.6v5.628h1.5v-.5h5.026V47.216h-2.254V46.4h1.666V45.088h-1.666v-.756h1.666V43.044Zm-2.772,0v-.728h1.274v.728Zm1.274,1.288v.756H100.6v-.756Zm.658-5.1a9.229,9.229,0,0,1-.714,1.792h-.966a12.157,12.157,0,0,0,1.022-2.352h2.2v.98a1.176,1.176,0,0,0-.168-.056Zm-.658,7.98H100.6V46.4h1.274Zm-5.5-4.536v2.968h-.854V42.68Zm15.806-6.4a20.592,20.592,0,0,1-.448,3.108c-.518.084-3.066.63-3.64.742l.658,1.918a16.712,16.712,0,0,1,2.506-.77,16.669,16.669,0,0,1-3.472,6.272,8.65,8.65,0,0,1,1.764.938,21.923,21.923,0,0,0,3.64-7.546c.168-.014.434-.042.6-.042.56,0,1.358.14,1.358,1.694a6.678,6.678,0,0,1-.924,3.7,1.158,1.158,0,0,1-1.008.42,2.643,2.643,0,0,1-1.3-.308,9.615,9.615,0,0,1,.182,1.61,3.558,3.558,0,0,1-.028.434,7.4,7.4,0,0,0,1.428.168,2.393,2.393,0,0,0,2.086-.98,9.427,9.427,0,0,0,1.372-5.04c0-3.556-2.3-3.458-3.3-3.416.07-.28.182-.714.42-1.82.294-.028.378-.14.378-.238,0-.126-.14-.168-.28-.21Zm4.41,2.408c1.862,2.072,2.044,3.584,2.044,3.738,0,.532-.644.672-1.162.77a9.121,9.121,0,0,1,.714,1.6,5.052,5.052,0,0,0,1.4-.434,1.425,1.425,0,0,0,.994-1.47,9.643,9.643,0,0,0-2.534-5.124Zm7.238-.924a30.063,30.063,0,0,0,.868,3.108,6.536,6.536,0,0,0-2.016,4.508c0,1.456.812,2.338,2,2.338a3.885,3.885,0,0,0,2.632-1.33c.224.364.266.42.462.714a10.637,10.637,0,0,1,1.526-1.372c-.2-.238-.364-.434-.686-.854a13.624,13.624,0,0,0,1.946-4.452,2.8,2.8,0,0,1,2.618,2.94c0,1.834-1.078,3.178-4.564,3.78a6.05,6.05,0,0,1,1.022,1.582c1.82-.308,5.39-1.512,5.39-5.362a4.459,4.459,0,0,0-4.088-4.606l.336-1.61c.07,0,.294.014.294-.182,0-.126-.154-.182-.266-.21l-2.03-.476a14.609,14.609,0,0,1-.238,2.464,7,7,0,0,0-2.856.952,14.263,14.263,0,0,1-.42-2.52Zm4.872,2.688a9.665,9.665,0,0,1-1.12,2.786,17.04,17.04,0,0,1-.882-1.918A5.131,5.131,0,0,1,128.695,40.454Zm-2.3,4.4c-.2.21-.91,1.022-1.5,1.022-.546,0-.546-.588-.546-.742a4.487,4.487,0,0,1,.98-2.548A21.8,21.8,0,0,0,126.4,44.85Zm17.738-6.342h6.048V36.8H137.361v1.708h4.9v10.5h1.876v-7.14a13.815,13.815,0,0,1,3.416,3.066,11.289,11.289,0,0,1,1.386-1.5,23.767,23.767,0,0,0-4.8-3.724Zm12.614-1.764c.28.686.686,1.694,1.036,2.45a20.094,20.094,0,0,1-4.9.672l.6,1.848a25.238,25.238,0,0,0,5.054-.91,16.85,16.85,0,0,0,1.288,2.1,7.1,7.1,0,0,0-1.862-.238c-2.618,0-4.158,1.47-4.158,3.024,0,1.75,1.862,3.15,5.306,3.15a12.92,12.92,0,0,0,3.654-.49,6.873,6.873,0,0,1-.392-1.89,8.04,8.04,0,0,1-3.346.686c-1.722,0-3.248-.322-3.248-1.5,0-1.47,2.212-1.47,2.576-1.47a7.561,7.561,0,0,1,3.934,1.092l1.218-1.078a15.684,15.684,0,0,1-3.234-3.99,19.5,19.5,0,0,0,3.668-1.834c-.28-.322-.686-.77-1.2-1.428a11.548,11.548,0,0,1-3.22,1.68,9.16,9.16,0,0,1-.714-2.31Zm11.34.35a24.3,24.3,0,0,0-.658,5.068c0,4.214,1.946,6.034,2.87,6.034.756,0,1.9-1.05,2.94-3.6a5.526,5.526,0,0,1-1.26-1.246c-.336.784-.98,2.338-1.5,2.338s-1.2-1.414-1.2-3.388a12.369,12.369,0,0,1,.742-4.214c.1-.014.294-.042.294-.21,0-.126-.07-.154-.294-.224Zm7.336,1.722a12.472,12.472,0,0,1,2.408,6.986,16.432,16.432,0,0,1,1.946-.868,13.853,13.853,0,0,0-2.8-7.1Zm8.666,6.118a1.911,1.911,0,1,0,1.9,1.918A1.909,1.909,0,0,0,184.093,44.934Zm0,.8a1.12,1.12,0,1,1-1.12,1.12A1.12,1.12,0,0,1,184.093,45.732Z" transform="translate(800 2473.556)" fill="#184837"/>
    <g id="title" transform="translate(-51.013 -19.174)">
      <path id="パス_64" data-name="パス 64" d="M-184.626-22.68v5.67H-170.1v-5.67Zm29.916,5.994v-6.588h-12.744v6.588h2.97V-5.238c-2.322.486-3.078.648-4.32.918l1.944,6.966c.108.432.432,1.188,1.08,1.188.594,0,.7-.7.918-1.89C-161.406.756-155.844-.864-152.388-2a19.809,19.809,0,0,1-.27-3.456,16.12,16.12,0,0,1,.27-3.348c-1.728.648-3.024,1.134-5.076,1.728v-9.612ZM-175.23,1.35V3.4h6.372V-15.336h-16.794V4.374h6.7V1.35Zm-3.726-6.318v-4h3.726v4Zm-7.992-31.914v5.616h18.09v-5.616Zm2.322-7.128v5.67H-170.1v-5.67Zm0,14.31v5.454H-170.1V-29.7Zm37.152-5.616c0-1.134,0-3.024.27-7.614,1.242-.756,1.512-.864,1.512-1.3,0-.594-.594-.594-1.188-.648l-7.83-.486c-.108,1.674-.162,3.186-.162,5.508,0,2.214.054,3.726.108,4.536h-12.852v6.48h13.23c2.052,25.65,9.072,32.508,12.042,32.508,4.7,0,5.832-8.8,6.21-11.5a18.936,18.936,0,0,1-5.886-4.644c-.108.594-.594,3.672-1.08,3.672-.378,0-1.35-3.078-1.566-3.726a64.418,64.418,0,0,1-2.646-16.308h9.612v-6.48h-4.752c1.458-1.026,3.78-2.376,4.752-2.916a34.019,34.019,0,0,0-4.32-6.372l-5.238,3.186a41.265,41.265,0,0,1,4.05,6.1ZM-104.22-6.372A58.941,58.941,0,0,0-88.074,4.7,15.012,15.012,0,0,1-82.782-.81c-2.7-1.08-9.882-4.158-15.5-9.126h12.1v-6.588h-6.75V-19.6h9.612v-6.21h-9.612v-3.024h7.074v-6.426h-18.36v-2.16a95.612,95.612,0,0,0,11.826-2.43,5.5,5.5,0,0,0,1.512.432c.378,0,.7-.162.7-.594a1.14,1.14,0,0,0-.216-.54l-4.536-5.832c-1.242.486-9.828,3.456-25.65,3.456-2.916,0-5.13-.054-6.534-.108a15.086,15.086,0,0,1,2.43,6.372c5.724.054,9.99-.054,12.852-.216v1.62h-18.252v6.426h6.534v3.024h-9.072v6.21h9.072v3.078h-6.534v6.588h11.826A49.307,49.307,0,0,1-133.056-.7a14.252,14.252,0,0,1,5.724,5.67,75.284,75.284,0,0,0,15.5-10.962V4.212h7.614Zm3.78-19.44h-3.78v-3.024h3.78Zm-11.394,0h-3.888v-3.024h3.888Zm11.394,9.288h-3.78V-19.6h3.78Zm-11.394,0h-3.888V-19.6h3.888Zm61.776-25.218V-43.47c.648-.324,1.134-.756,1.134-1.08a.882.882,0,0,0-.972-.864l-8.262-.378v4.05H-76.626v6.426h18.468v2.106H-73.116v20.9h14.958v2.376H-78.732v6.642h20.574V4.212h8.1V-3.294h20.844V-9.936H-50.058v-2.376H-35.1v-20.9H-50.058v-2.106h18.2v-6.426Zm0,16.632v-2.376H-43.2v2.376Zm6.858,4.7v2.376h-6.858v-2.376Zm-14.958,0v2.376h-6.8v-2.376Zm-6.8-4.7v-2.376h6.8v2.376ZM6.318,2.43c4.59-2,8.424-4,11.718-7.83a25.151,25.151,0,0,0,6.372-16.686c0-12.906-10.314-20.952-22.14-20.952-15.876,0-26.46,13.554-26.46,25.164,0,9.99,7.83,17.118,12.042,17.118C-6.426-.756,1.728-15.5,3.4-35.262c10.152.81,12.474,8.856,12.474,13.23C15.876-16.416,12.42-7.344.7-5.184A35.015,35.015,0,0,1,6.318,2.43ZM-5.67-33.642A47.228,47.228,0,0,1-9.828-15.066c-.594,1.4-1.62,3.834-2.916,3.834-1.134,0-3.456-3.132-3.456-7.29C-16.2-23.382-11.934-31.32-5.67-33.642Zm70.9-8.8A105.011,105.011,0,0,1,50.166-41.2a108.729,108.729,0,0,1-13.446-.7l.432,9.018c4.59.108,13.662-.378,17.01-.648-1.566,1.3-2.052,1.674-4.05,3.51,1.674,1.242,3.726,2.97,5.67,4.644,2.97-3.456,8.586-6.8,13.608-8.8Zm-24.57,20.9c-2.214,2-7.83,7.02-7.83,12.636,0,5.454,5.13,7.992,6.858,8.694,2.646,1.08,5.994,2,14.418,2A82.1,82.1,0,0,0,75.222-.7a40.925,40.925,0,0,1-1.4-9.18,75.4,75.4,0,0,1-21.654,3.24c-2.268,0-9.666,0-9.666-3.888,0-1.782,2.7-4.59,4.212-5.886ZM72.846-43.524a45.449,45.449,0,0,1,4.7,5.292A21.564,21.564,0,0,1,81-41.9,57.8,57.8,0,0,0,75.924-47.2ZM68.31-39.042a59.7,59.7,0,0,1,5.184,5.994,21.874,21.874,0,0,1,3.186-3.888,38.618,38.618,0,0,0-4.914-5.67ZM132.894-7.668v-5.724h-8.316a26.9,26.9,0,0,1,4.266-5.94,60.44,60.44,0,0,0-10.368-3.942,31.776,31.776,0,0,0,2.862-2.7c.378-.054,1.458-.216,1.458-.756a.506.506,0,0,0-.324-.432h10.422v-5.562H107.568c.756-1.08,1.026-1.35,2.052-2.7,1.08-.108,2-.216,1.728-1.134H123.66v2.214h7.83v-7.83H112.374v-1.458c.378-.162,1.134-.54,1.134-1.134,0-.648-.7-.648-1.134-.648l-8.694-.27v3.51H84.618v8.1h7.344v-2.484h9.5a39.119,39.119,0,0,1-2.646,3.834H83.484v5.562H93.852c-1.188,1.134-1.944,1.782-3.132,2.754a18.579,18.579,0,0,1,6.156,3.24c.648-.54.864-.7,1.188-.972.864.108,1.62.216,3.564.594a37.98,37.98,0,0,1-9.936,1.188c-2.376,0-4-.108-5.346-.216A14.873,14.873,0,0,1,89.1-14.31a61.312,61.312,0,0,0,15.066-1.944v2.862H83.484v5.724H97.146a40.049,40.049,0,0,1-14.094,6.48C84.024-.594,85.32.27,87.912,4.7a51.01,51.01,0,0,0,16.254-9.774v9.45h7.668V-4.7a54.2,54.2,0,0,0,15.822,9.4c2.592-4.428,3.888-5.292,4.86-5.886a42.152,42.152,0,0,1-14.094-6.48ZM112.806-27.162a19.689,19.689,0,0,1-3.51,2.484,71.554,71.554,0,0,0-7.668-.972l1.4-1.512Zm11.718,13.77h-12.69v-.54c.756-.432,1.35-.972,1.35-1.35,0-.54-.54-.648-1.026-.648l-7.884-.324a40.644,40.644,0,0,0,7.776-2.754A48.9,48.9,0,0,1,124.524-13.392ZM166.1-37.314v-6.1c.756-.216,1.458-.54,1.458-1.08,0-.432-.378-.756-1.026-.756l-8.748-.324v8.262H138.726V4.158h8.208V-10.584a15.111,15.111,0,0,1,3.51,5.076,37.074,37.074,0,0,0,11.664-12.15c3.132,6.264,7.506,9.612,10.8,11.124a22.619,22.619,0,0,1,4.05-5.076v5.67c0,1.674-.7,2-1.4,2a36.12,36.12,0,0,1-4.968-.7A20.256,20.256,0,0,1,173.448,4c1.3.054,3.132.216,4.482.216,7.236,0,7.236-3.456,7.236-6.048V-37.314Zm10.854,7.668v15.822a24.207,24.207,0,0,1-7.884-6.966,15.962,15.962,0,0,1-2.97-8.856Zm-30.024,0h10.638c-.378,3.078-1.3,10.8-10.638,16.47Z" transform="translate(851.013 2459.762)" fill="#184837"/>
      <g id="badge" transform="translate(87.013 212.174)">
        <g id="bg" transform="translate(640 2143)" fill="#184837">
          <path d="M 244.9080047607422 40.66000747680664 L 0.500002384185791 40.66000747680664 L 0.500002384185791 0.5000056624412537 L 244.9080047607422 0.5000056624412537 L 244.9080047607422 40.66000747680664 Z" stroke="none"/>
          <path d="M 1 1.000003814697266 L 1 40.16000747680664 L 244.4080047607422 40.16000747680664 L 244.4080047607422 1.000003814697266 L 1 1.000003814697266 M 0 3.814697265625e-06 L 245.4080047607422 3.814697265625e-06 L 245.4080047607422 41.16000747680664 L 0 41.16000747680664 L 0 3.814697265625e-06 Z" stroke="none" fill="#184837"/>
        </g>
        <path id="パス_63" data-name="パス 63" d="M-50.256-13.086a20.088,20.088,0,0,1,4.374,2.268,20.122,20.122,0,0,1,1.674-2.376,20.793,20.793,0,0,0-4.5-2.088Zm8.244.054A21.774,21.774,0,0,1-39.978-11.2c.45-.432,1.17-1.152,1.368-1.314-.432-.414-1.512-1.314-2.07-1.728Zm-10.08,4.1a19.008,19.008,0,0,1,4.1,2.448c1.026-1.458,1.224-1.746,1.746-2.394a26.118,26.118,0,0,0-4.212-2.466Zm11.88-5.526a15.694,15.694,0,0,1,1.962,1.746,9.177,9.177,0,0,1,1.224-1.116,15.278,15.278,0,0,0-1.926-1.746ZM-49.464.99c.072.108.18.252.288.252.2,0,.252-.234.288-.432a32.132,32.132,0,0,0,7.344-4.446,25.315,25.315,0,0,0,4.878-5.22,5.4,5.4,0,0,1-1.854-2.358A25.334,25.334,0,0,1-51.012-1.62Zm14.652-9.342v3.06H-19.17v-3.06Zm18.378-4.5v2.592h10.44a13.843,13.843,0,0,1-2.9,5.472,15.653,15.653,0,0,1-5.688,3.6,7.878,7.878,0,0,1,2.052,2.376,20.51,20.51,0,0,0,4.9-3.168c2.016-1.764,3.1-3.816,4.5-7.434A10.255,10.255,0,0,1-1.98-11.808l-1.836-1.3a1.079,1.079,0,0,1-.864.252ZM-1.8-15.768a1.679,1.679,0,0,0-1.692,1.692A1.69,1.69,0,0,0-1.8-12.384,1.69,1.69,0,0,0-.108-14.076,1.69,1.69,0,0,0-1.8-15.768Zm0,.9a.787.787,0,0,1,.792.792.8.8,0,0,1-.792.792.787.787,0,0,1-.792-.792A.787.787,0,0,1-1.8-14.868Zm6.822.378C5.112-8.334,5.184-4.572.18-.612A6.871,6.871,0,0,1,2.808,1.152,14.358,14.358,0,0,0,6.174-3.4C7.65-6.462,7.83-9.27,7.884-13.662c.216-.036.468-.072.468-.306,0-.144-.126-.216-.306-.234Zm4.05-.558v2.862H10.3a18.96,18.96,0,0,0,1.1,7.236,17.2,17.2,0,0,0,4.05,6.084,8.4,8.4,0,0,1,2.43-2.016A14.083,14.083,0,0,1,13.806-6.57c-.756-2.106-.756-3.312-.756-8.478ZM28.44-12.24h5.724v-2.412H19.836v2.412h5.742v3.8H20.826V-5.9h4.752v4.392H18.846V.954H35.19V-1.512H28.44V-5.9h4.734V-8.442H28.44Zm18.072,3.8v-.252A19.661,19.661,0,0,0,51.57-13.32l-1.3-1.332H38.484v2.394H46.62a6.932,6.932,0,0,1-1.476,1.3l-1.386-.144v2.664H36.684v2.448h7.074v3.546c0,1.026,0,1.17-1.224,1.17-.342,0-.684-.036-1.26-.072a5.562,5.562,0,0,1,.864,2.736c4.266.108,4.374-1.26,4.374-2.412V-5.994h6.8V-8.442Z" transform="translate(762.092 2171)" fill="#f8f2e9"/>
      </g>
    </g>
  </g>
</svg>
