<svg xmlns="http://www.w3.org/2000/svg" width="667.512" height="280.28" viewBox="0 0 667.512 280.28">
  <g id="obi02-sp" transform="translate(-460 -2330)">
    <path id="パス_72" data-name="パス 72" d="M-242.352-19.32V-6.864h3.36V-18.48c.192-.1.48-.216.48-.456,0-.216-.192-.216-.48-.24Zm11.088-.456v8.664c0,2.64-.168,7.656-8.016,10.224a5.932,5.932,0,0,1,2.112,2.616c4.632-1.944,9.312-4.848,9.312-12.864v-7.776c.168-.072.48-.168.48-.48,0-.12-.12-.192-.48-.216Zm11.688,1.632v3.1h16.536A22.485,22.485,0,0,1-208.224-9.5a10.684,10.684,0,0,1,2.352,2.256,43.87,43.87,0,0,0,6.768-7.824,10.152,10.152,0,0,1,.864-1.2L-200.5-18.36a3.672,3.672,0,0,1-1.344.216Zm8.016,4.2C-211.1-5.712-214.7-3-218.28-.984a17.521,17.521,0,0,1,2.832,2.136,14.6,14.6,0,0,0,6.144-7.1,23.419,23.419,0,0,0,1.224-7.056c.1-.048.384-.216.384-.48,0-.192-.216-.24-.384-.24Zm21.312-4.512v7.032c0,3.312-.648,6.024-5.208,8.928a10.286,10.286,0,0,1,2.712,2.232c3.264-2.544,5.976-5.28,5.976-11.376v-5.88c.192-.072.432-.192.432-.456,0-.288-.312-.288-.552-.312Zm5.976-.216V-3.384c0,.648-.048,1.248-.1,1.9l2.208,1.44c.624-.528.84-.7,2.832-2.136a35.855,35.855,0,0,0,6.864-6.744,9,9,0,0,1-1.608-2.976,25.061,25.061,0,0,1-6.864,6.7V-17.784c.216-.12.456-.216.456-.456s-.192-.24-.456-.264Zm30.192,5.136c-.672-4.392-3.192-5.9-7.632-5.9-6.024,0-7.248,3.528-7.248,5.568,0,3.6,2.88,4.656,7.3,6,3.072.936,4.344,1.392,4.344,2.88a2.293,2.293,0,0,1-.96,1.776,5.838,5.838,0,0,1-3,.7c-3,0-4.392-1.128-4.488-3.24h-3.744c.264,4.992,4.68,6.288,8.328,6.288,6.144,0,7.536-3.864,7.536-5.9,0-3.36-2.736-4.272-5.592-5.232-4.9-1.632-6.024-2.016-6.024-3.672,0-2.112,2.976-2.112,3.816-2.112,1.7,0,2.568.408,3.024,1.08a3.509,3.509,0,0,1,.648,1.776Zm4.728-5.376v11.5c0,5.616,3.552,7.944,8.856,7.944,4.992,0,8.664-2.328,8.664-7.776V-18.912h-3.576V-6.96c0,3.1-2.3,4.44-5.256,4.44-3.144,0-5.088-1.656-5.088-4.416V-18.912Zm21.192,0L-120.744,0h3.624l7.416-18.912h-3.744l-5.5,14.856-5.472-14.856Zm40.224,3.072c-4.272,1.608-5.424,2.04-8.736,3.576a10.864,10.864,0,0,1-1.152-5.4c0-.744.048-1.3.144-2.448l-4.056.864a9.087,9.087,0,0,1,.552,2.352c.384,3.1.576,4.68,1.848,6-3.024,1.752-5.208,3.816-5.208,6.7A4.554,4.554,0,0,0-102-.168c1.1.576,2.76,1.248,6.984,1.248A47.05,47.05,0,0,0-87.024.36a10.9,10.9,0,0,1,.312-3.624,24.651,24.651,0,0,1-8.064,1.272c-4.344,0-6.24-.672-6.24-2.424,0-2.9,4.584-4.848,5.76-5.352,4.944-2.088,6.7-2.3,8.592-2.5Zm11.04-3.936c.024.48.048.648.048,1.632,0,1.368-.264,8.04-.264,9.552,0,4.8.168,9.984,5.616,9.984,2.832,0,7.512-1.392,11.424-7.68A16,16,0,0,1-62.5-8.976c-.984,2.112-4.608,6.984-8.688,6.984-2.232,0-2.616-1.608-2.616-5.736A73.459,73.459,0,0,1-73.1-18.5c.192-.048.528-.168.528-.408,0-.264-.168-.288-.552-.336Zm42.048.168c-7.08,1.872-17.088,2.28-18.72,2.28a14.2,14.2,0,0,1-1.56-.072l.456,3.864a103.815,103.815,0,0,1,10.944-1.512c-3.216,2.472-5.04,5.232-5.04,8.448,0,5.448,5.112,7.536,8.76,8.352A17.667,17.667,0,0,1-38.5-1.872c-5.088-.384-7.056-2.208-7.056-5.016,0-4.392,5.328-9.312,11.328-9.288ZM-17.04.96a13.086,13.086,0,0,0,5.4-3.408A10.585,10.585,0,0,0-8.808-9.72c0-5.736-4.584-9.192-9.7-9.192A11.537,11.537,0,0,0-29.976-7.92c0,4.3,3.24,7.32,5.088,7.32,2.472,0,5.928-6.432,6.744-15.384a6.112,6.112,0,0,1,6.12,6.264c0,2.52-1.464,6.744-7.128,7.824A15.425,15.425,0,0,1-17.04.96Zm-4.512-16.368a22.738,22.738,0,0,1-1.8,8.328c-.384.96-1.056,2.592-1.752,2.592-.744,0-1.824-1.608-1.824-3.648A8.347,8.347,0,0,1-21.552-15.408ZM9.84-10.7V-15c.288-.048.576-.144.576-.408,0-.312-.36-.336-.5-.336l-3.048-.144V-10.7H1.32V-8.04H6.864v6.552H-.36v2.64H16.8v-2.64H9.84V-8.04H15.6V-10.7ZM-3.312-19.3v6.576c0,6.168,0,9.1-2.376,13.344a6.74,6.74,0,0,1,3,1.176c2.4-4.488,2.4-9.312,2.4-14.928v-3.456h17.04V-19.3Zm34.488,4.32c.384.648.432.744.912,1.584-.384.072-1.008.192-2.4.36.624-1.344.72-1.584,1.368-3.144.336-.1.648-.192.648-.432a.207.207,0,0,0-.072-.144H34.56v-2.472H27.048a.4.4,0,0,0-.312-.336l-2.88-.792c-.384,1.68-1.584,6.192-4.272,9.408a8.978,8.978,0,0,1,1.752,2.352,9.457,9.457,0,0,0,.936-1.32V1.872h2.856V-13.944c.216-.1.552-.24.552-.5,0-.1-.1-.192-.336-.288l-.5-.192a33.069,33.069,0,0,0,1.488-3.912,1.821,1.821,0,0,0,.384-.024v2.112h1.8A34.831,34.831,0,0,1,27-12.744c-.192.024-1.128.1-1.344.12l.648,2.616c.048.216.144.408.312.408.384,0,.456-.336.528-.6,3.024-.408,4.44-.624,5.928-.912.216.576.288.816.432,1.248.768-.336,1.824-.72,1.992-.792v6h2.592V-16.344c.408-.168.552-.288.552-.456,0-.288-.312-.384-.5-.384l-2.64-.144v5.568a18.378,18.378,0,0,0-2.136-4.128ZM29.088-2.352c-.48.072-2.76.432-3.288.5L26.376.816c.048.24.192.384.336.384.312,0,.36-.192.528-.672.552-.12,3.312-.648,3.936-.768,1.392-.288,1.632-.336,3.816-.864a10.775,10.775,0,0,1,.24-2.52A34.113,34.113,0,0,1,31.9-2.88V-5.616H34.56V-8.04H31.9v-1.2c.168-.024.6-.144.6-.552,0-.168-.192-.264-.48-.288L29.088-10.3V-8.04H26.376v2.424h2.712ZM39.312-20.28V-1.992c0,.96,0,1.224-.912,1.224a10.35,10.35,0,0,1-1.9-.216,7.8,7.8,0,0,1,.888,3C41.88,2.064,41.88.288,41.88-.912V-19.344c.144-.048.576-.168.576-.5,0-.192-.168-.264-.36-.264Zm21.264,4.32a19.465,19.465,0,0,0,.7-2.688c.216-.048.6-.144.6-.408,0-.144-.24-.336-.48-.384l-2.784-.648a22.841,22.841,0,0,1-3.024,8.52v-4.464H52.008c.5-1.3.552-1.44,1.008-2.688.384-.168.6-.288.6-.48,0-.264-.336-.312-.576-.36l-2.808-.5a25.013,25.013,0,0,1-1.056,4.032H46.44V1.224h3.024V-.168h3.192V.7h2.928V-10.776a6.083,6.083,0,0,1,2.328.96,20.77,20.77,0,0,0,1.752-3.5H64.68a69.234,69.234,0,0,1-.456,9.936c-.384,2.3-1.344,2.3-2.568,2.3a9.6,9.6,0,0,1-2.064-.192A9.317,9.317,0,0,1,60.672,1.8a6.455,6.455,0,0,0,.744.048c4.152,0,4.824-2.232,5.208-3.48.864-2.9.96-10.848.912-14.328ZM49.464-13.392h3.192v3.96H49.464Zm3.192,10.56H49.464v-4.08h3.192Zm5.9-7.008a26,26,0,0,1,1.728,5.208A16.709,16.709,0,0,1,62.88-5.76,24.793,24.793,0,0,0,61.1-10.968Zm26.856-1.536a4.737,4.737,0,0,0-1.68,3.528A16.486,16.486,0,0,0,83.9-5.76a12.482,12.482,0,0,0-2.04-.192c-3.528,0-4.608,2.088-4.608,3.624,0,2.28,2.016,3.792,5.376,3.792,1.2,0,4.3-.048,4.656-3.144A20.736,20.736,0,0,1,90.5.6a23.108,23.108,0,0,1,1.872-2.448A26.01,26.01,0,0,0,87.192-4.92a14.78,14.78,0,0,1-.264-2.544,3.355,3.355,0,0,1,.984-2.424Zm-1.08,8.424c-.048.864-.192,1.872-2.016,1.872-.624,0-2.112-.144-2.112-1.224,0-.864,1.08-1.224,1.848-1.224A5.112,5.112,0,0,1,84.336-2.952ZM72.96-12.984c1.224-.048,3.1-.072,3.936-.144A37.416,37.416,0,0,1,71.88-3.264,17.821,17.821,0,0,1,74.9-2.016c2.5-3.5,4.8-9.648,5.448-11.544a32.086,32.086,0,0,0,4.032-.864,22.058,22.058,0,0,1-.072-3.072,23.05,23.05,0,0,1-3,.864c.072-.288.48-1.68.576-1.992.144,0,.48-.024.48-.288,0-.168-.12-.264-.432-.36L78.72-20.28c-.192,1.008-.384,2.208-.912,4.176-1.368.12-2.016.144-2.64.144a16.614,16.614,0,0,1-2.592-.192Zm12.048-.288a17.07,17.07,0,0,1,6.1,3.1c.6-.984,1.344-1.992,1.824-2.64a17.662,17.662,0,0,0-6.264-3.1ZM113.4-7.584v-.792a39.993,39.993,0,0,0,4.2-3.6l-1.248-1.272H105.768v2.568h6.456a5.9,5.9,0,0,1-1.08.984l-.648-.072v2.184h-5.928v2.592H110.5v3.024c0,.864-.48.864-.888.864a11.573,11.573,0,0,1-1.9-.192,7.412,7.412,0,0,1,1.008,3.048c3.168-.048,4.68-.288,4.68-2.4V-4.992h5.184V-7.584Zm-6.408-9.7c.288-.912.384-1.248.5-1.7.6-.216.72-.264.72-.5,0-.264-.288-.312-.456-.336l-3.1-.432a18.589,18.589,0,0,1-.72,2.976H97.032v2.616h5.808a11.084,11.084,0,0,1-1.368,2.088l-1.032-.168v1.32A19.188,19.188,0,0,1,96.024-8.16a8.581,8.581,0,0,1,2.16,2.088A19.411,19.411,0,0,0,100.44-7.68V1.8h2.88V-10.56a19.962,19.962,0,0,0,2.64-4.1h12.624V-17.28Zm25.848.408c.288-.816.456-1.368.672-2.088.432-.144.672-.24.672-.432,0-.24-.24-.288-.36-.312l-3.072-.624a19.433,19.433,0,0,1-.864,3.456H122.4v2.592h6.408a18.556,18.556,0,0,1-2.232,3.408l-1.464-.144v1.68a16.079,16.079,0,0,1-3.768,2.616,6.632,6.632,0,0,1,1.92,2.208c.528-.36,1.128-.744,1.848-1.32V1.9h3.024V-8.76a27.657,27.657,0,0,0,3.6-5.52h12.408v-2.592Zm5.232,6.984v-2.688c.288-.1.528-.216.528-.456,0-.168-.144-.264-.408-.288l-3.1-.24v3.672h-4.968v2.5H135.1v5.64h-6.048V.864h15.144V-1.752h-6.12v-5.64h5.04v-2.5Zm14.328-1.9v5.712h2.352v-.936h4.368v-4.776Zm4.608,1.7v1.344h-2.256V-10.08Zm7.368,6.456a18.157,18.157,0,0,1,2.976,4.752c.216-.144.312-.216,1.3-.888a11.993,11.993,0,0,1,1.224-.672,19.762,19.762,0,0,0-3.216-4.56,2.831,2.831,0,0,0,.528.048,1.8,1.8,0,0,0,1.416-.624,6.475,6.475,0,0,0,1.2-3.048,5.281,5.281,0,0,1-2.208-1.536c-.12.792-.456,2.088-1.032,2.088-.432,0-1.2-.864-1.416-1.1a24.376,24.376,0,0,0,2.28-4.032c.552-.024.72-.168.72-.408a.409.409,0,0,0-.24-.312l-2.832-1.152a11.682,11.682,0,0,1-1.464,3.432,13.888,13.888,0,0,1-1.128-3.744h7.08v-2.448h-2.784c.288-.192.408-.264.72-.456a17.878,17.878,0,0,0-2.328-2.424l-1.9,1.32a14.344,14.344,0,0,1,1.488,1.56h-2.592c-.024-.336-.024-.576-.048-1.44.432-.192.624-.288.624-.528s-.216-.264-.408-.288l-2.952-.216c.024.768.024,1.392.12,2.472H149.232V-15a15.99,15.99,0,0,1-1.944,8.832,8.275,8.275,0,0,1,2.5,1.224c1.416-2.592,2.184-5.976,2.112-10.44h7.9a16.065,16.065,0,0,0,2.088,6.072A16.436,16.436,0,0,1,158.808-6.6a9.77,9.77,0,0,1,2.256,1.824A15.07,15.07,0,0,0,163.512-7.1a6,6,0,0,0,3.1,2.088ZM152.5-14.568v1.92h6.84v-1.92Zm-2.208,9.336a15.951,15.951,0,0,1-2.88,5.376,7.051,7.051,0,0,1,2.3,1.536,21.054,21.054,0,0,0,2.76-4.968c.48.024.84.024.84-.312,0-.24-.24-.36-.384-.432Zm3.24.168v4.056c0,1.272.12,2.448,2.64,2.448h5.688c2.232,0,2.688-.72,3.432-3.48a4.981,4.981,0,0,1-2.448-1.44c-.408,2.4-.984,2.688-2.04,2.688h-3.12c-1.224,0-1.368-.168-1.368-1.056v-2.28c.144-.048.528-.1.528-.384,0-.24-.216-.264-.528-.288Zm3.552.048A14.825,14.825,0,0,1,159.24-1.7c.5-.36,1.44-.912,2.112-1.32a17.718,17.718,0,0,0-2.5-3.192ZM182.3-20.424a24.46,24.46,0,0,1-1.368,3.264,14.468,14.468,0,0,1-1.464.048c-1.872,0-3.312-.144-3.864-.192v3c1.944.024,2.664,0,3.84-.048a47.06,47.06,0,0,1-5.28,7.056l2.856,1.68c2.28-3.744,4.056-5.16,5.928-5.16a1.9,1.9,0,0,1,1.968,1.3c-1.464.768-6.408,3.36-6.408,6.7,0,4.1,6.288,4.1,7.632,4.1a32.84,32.84,0,0,0,6.672-.648,13.439,13.439,0,0,1,.384-3.288,27.327,27.327,0,0,1-7.536,1.08c-2.832,0-4.056-.384-4.056-1.464,0-1.032.984-2.088,3.6-3.5a25.023,25.023,0,0,1-.12,3.312c1.1-.072,3.048,0,3.216,0,.024-.6.072-1.32.072-2.376,0-.624-.024-1.464-.1-2.4,1.728-.72,3.552-1.32,5.664-1.968l-1.2-3.264c-1.008.528-3.384,1.608-5.088,2.376a3.985,3.985,0,0,0-3.624-2.208,4.883,4.883,0,0,0-2.28.552c.408-.72.96-1.608,1.248-2.136,2.328-.216,4.728-.624,7.008-1.032l-.024-3.072a23.985,23.985,0,0,1-5.424,1.2c.288-.576.456-.912.72-1.488.312-.024.576-.168.576-.384,0-.288-.312-.336-.48-.384Zm38.232,4.776v-2.3H214.9c.144-.672.192-.888.24-1.2.264-.072.72-.168.72-.5,0-.216-.312-.24-.528-.264l-2.9-.216a13.522,13.522,0,0,1-.36,2.184H208.32v2.3h2.856A8.709,8.709,0,0,1,207-11.784a7.232,7.232,0,0,1,1.92,2.04,9.942,9.942,0,0,0,2.232-1.7v1.32h5.5v-1.44a8.5,8.5,0,0,0,2.544,1.824,7.324,7.324,0,0,1,1.752-2.088,9.717,9.717,0,0,1-4.368-3.816Zm-8.472,3.24a13.506,13.506,0,0,0,1.9-2.9,14.218,14.218,0,0,0,1.92,2.9Zm-13.392-3.72v2.064h9.168v-2.064Zm1.176,3.1v2.16H206.9v-2.16ZM204.7.72v.792h2.616V-6.6h-7.9V1.728h2.64V.72Zm-2.64-2.328V-4.272h2.64v2.664ZM213.048-5.5c.192-.432.36-.84.5-1.2h7.008V-9H207.792v2.3h2.856a18.1,18.1,0,0,1-2.3,4.32,9.2,9.2,0,0,1,2.5.96c.384-.6.7-1.152,1.056-1.776H215.9c-.408,2.424-1.272,2.424-1.68,2.424a10.623,10.623,0,0,1-2.3-.288,7.142,7.142,0,0,1,1.032,2.928c2.136-.048,3.24-.1,4.224-1.056.888-.864,1.848-3.5,2.16-6.312Zm-13.2-4.344V-7.7H206.9V-9.84Zm0-9.48V-17.3h7.032V-19.32Zm39.432-.408c-3.672,1.392-10.3,1.536-12.1,1.464l.528,3.216a67.445,67.445,0,0,0,7.272-.912A82.621,82.621,0,0,1,224.52-5.928l2.448,2.4c3.384-3.5,5.808-6.024,10.008-6.024,3.5,0,4.32,2.424,4.32,3.816A3.457,3.457,0,0,1,239.16-2.4c-.552-2.832-3.288-3.792-5.112-3.792-2.5,0-4.368,1.536-4.368,3.6,0,2.28,2.136,4.032,5.832,4.032,3.912,0,9-2.208,9-7.44,0-4.128-3.24-6.216-6.792-6.216a9.742,9.742,0,0,0-3.144.528c.912-.984,4.9-4.728,6.36-5.832ZM236.5-1.2a5.93,5.93,0,0,1-1.44.192c-1.176,0-2.5-.528-2.5-1.488,0-.552.432-1.08,1.32-1.08A2.554,2.554,0,0,1,236.5-1.2ZM-326.568,19.5a25.707,25.707,0,0,1,2.688,2.424c.432-.432,1.128-1.128,1.56-1.536a24.584,24.584,0,0,0-2.712-2.3Zm-11.16-.12a25.57,25.57,0,0,1,6.024,3.1c.384-.576,1.464-2.136,1.944-2.664a33.844,33.844,0,0,0-6.192-2.928Zm13.464-1.824a21.636,21.636,0,0,1,2.616,2.352,8.7,8.7,0,0,1,1.464-1.344,20.342,20.342,0,0,0-2.592-2.3Zm-15.96,7.392a21.78,21.78,0,0,1,5.664,3.288,18.17,18.17,0,0,1,2.016-2.736,29.7,29.7,0,0,0-5.832-3.264ZM-337.1,38.3c.12.216.192.336.36.336.288,0,.36-.336.408-.576,5.976-2.208,13.152-7.608,16.776-13.032a10.769,10.769,0,0,1-2.112-2.736A34.3,34.3,0,0,1-338.832,35.3Zm21.48-12.1v3.408h20.712V26.2Zm45.408-10.152a2.228,2.228,0,0,0-2.232,2.232,2.223,2.223,0,0,0,2.232,2.208,2.223,2.223,0,0,0,2.232-2.208A2.243,2.243,0,0,0-270.216,16.048Zm0,1.1a1.122,1.122,0,0,1,1.1,1.128,1.1,1.1,0,0,1-1.1,1.1,1.1,1.1,0,0,1-1.1-1.1A1.122,1.122,0,0,1-270.216,17.152Zm-19.68,2.784v3h15.1c-2.976,8.712-8.88,11.4-12.192,12.912a12.868,12.868,0,0,1,2.5,2.5c7.7-4.032,10.008-7.632,12.7-13.776a13.381,13.381,0,0,1,1.392-2.808l-2.4-1.992a7.6,7.6,0,0,1-1.656.168Zm37.848,18.024a13.086,13.086,0,0,0,5.4-3.408,10.585,10.585,0,0,0,2.832-7.272c0-5.736-4.584-9.192-9.7-9.192A11.537,11.537,0,0,0-264.984,29.08c0,4.3,3.24,7.32,5.088,7.32,2.472,0,5.928-6.432,6.744-15.384a6.112,6.112,0,0,1,6.12,6.264c0,2.52-1.464,6.744-7.128,7.824A15.426,15.426,0,0,1-252.048,37.96Zm-4.512-16.368a22.738,22.738,0,0,1-1.8,8.328c-.384.96-1.056,2.592-1.752,2.592-.744,0-1.824-1.608-1.824-3.648A8.347,8.347,0,0,1-256.56,21.592Zm24.144,6.048A44.816,44.816,0,0,1-228.1,30.5a20.783,20.783,0,0,1-9.024,5.4,13.983,13.983,0,0,1,2.208,2.76,23.953,23.953,0,0,0,9.216-6.1,20.313,20.313,0,0,1,2.328,2.664c.312-.48,1.32-1.9,2.016-2.712a13.89,13.89,0,0,0-2.4-2.5c1.344-2.04,1.68-2.88,3.432-7.1a9.837,9.837,0,0,1,.5-1.008l-1.488-1.3a4.279,4.279,0,0,1-1.608.24h-5.712c.552-.936.912-1.584,1.3-2.3.144-.024.576-.024.576-.336,0-.144-.144-.192-.432-.288l-3.216-1.032a21.794,21.794,0,0,1-7.92,10.272,16.033,16.033,0,0,1,2.544,2.184,27.6,27.6,0,0,0,5.3-5.664h6.264a19.464,19.464,0,0,1-2.064,4.392,46.106,46.106,0,0,0-4.2-2.64Zm19.752-9.216v3.024h15.072c-2.9,8.4-6.456,11.376-12.7,14.208a12.406,12.406,0,0,1,2.52,2.5A25.757,25.757,0,0,0-198.6,30.88c1.824-2.424,2.3-3.528,4.632-9.336a4.783,4.783,0,0,1,.744-1.32l-2.376-1.968a7.6,7.6,0,0,1-1.656.168Zm37.632,7.2a4.737,4.737,0,0,0-1.68,3.528,16.487,16.487,0,0,0,.168,2.088,12.482,12.482,0,0,0-2.04-.192c-3.528,0-4.608,2.088-4.608,3.624,0,2.28,2.016,3.792,5.376,3.792,1.2,0,4.3-.048,4.656-3.144a20.737,20.737,0,0,1,3.216,2.28,23.108,23.108,0,0,1,1.872-2.448,26.01,26.01,0,0,0-5.184-3.072,14.78,14.78,0,0,1-.264-2.544,3.355,3.355,0,0,1,.984-2.424Zm-1.08,8.424c-.048.864-.192,1.872-2.016,1.872-.624,0-2.112-.144-2.112-1.224,0-.864,1.08-1.224,1.848-1.224A5.112,5.112,0,0,1-176.112,34.048Zm-11.376-10.032c1.224-.048,3.1-.072,3.936-.144a37.416,37.416,0,0,1-5.016,9.864,17.819,17.819,0,0,1,3.024,1.248c2.5-3.5,4.8-9.648,5.448-11.544a32.087,32.087,0,0,0,4.032-.864,22.057,22.057,0,0,1-.072-3.072,23.051,23.051,0,0,1-3,.864c.072-.288.48-1.68.576-1.992.144,0,.48-.024.48-.288,0-.168-.12-.264-.432-.36l-3.216-1.008c-.192,1.008-.384,2.208-.912,4.176-1.368.12-2.016.144-2.64.144a16.615,16.615,0,0,1-2.592-.192Zm12.048-.288a17.07,17.07,0,0,1,6.1,3.1c.6-.984,1.344-1.992,1.824-2.64a17.662,17.662,0,0,0-6.264-3.1Zm32.808,14.76a9.977,9.977,0,0,1,.888-3.24c-1.8.192-3.744.264-5.136.264a15.555,15.555,0,0,1-4.224-.432V31.624h7.752v-2.88H-151.1v-2.28h9.288V23.68H-151.1V21.712h7.224V19.024H-151.1V17.7c.432-.168.744-.288.744-.552,0-.24-.336-.264-.528-.264l-3.24-.144v2.28H-161.4v2.688h7.272V23.68h-9.36v2.784h9.36V33.88a8.389,8.389,0,0,1-3.072-3.168c.192-.72.312-1.224.5-2.04.168-.048.624-.144.624-.432,0-.192-.216-.24-.384-.288l-3.168-.7a14.516,14.516,0,0,1-4.584,9.816,7.552,7.552,0,0,1,2.5,1.728,14.963,14.963,0,0,0,3.384-4.848,11.624,11.624,0,0,0,5.64,3.72,25.047,25.047,0,0,0,5.952.816Zm8.568-21.312a5.567,5.567,0,0,1-.168.936A26.515,26.515,0,0,0-135,24.136a23.858,23.858,0,0,0,1.632,8.592l2.88-.336a15.926,15.926,0,0,1,2.52-6.288,12.115,12.115,0,0,1-2.088-1.728,29.268,29.268,0,0,0-1.56,3.144,11.86,11.86,0,0,1-.264-2.592,19.907,19.907,0,0,1,1.032-6.216c.24-.048.552-.12.552-.408,0-.264-.264-.312-.648-.408Zm10.536-.216a46.094,46.094,0,0,1,.864,8.616c0,5.4-1.944,8.856-6.6,10.992a8.464,8.464,0,0,1,2.616,2.4c7.2-3.96,7.368-10.248,7.368-13.272,0-1.2-.048-2.28-.1-2.952-.048-.72-.288-4.176-.312-4.968.168-.048.408-.1.408-.36,0-.288-.216-.312-.576-.336Zm19.944-.384a24.461,24.461,0,0,1-1.368,3.264,14.468,14.468,0,0,1-1.464.048c-1.872,0-3.312-.144-3.864-.192v3c1.944.024,2.664,0,3.84-.048a47.061,47.061,0,0,1-5.28,7.056l2.856,1.68c2.28-3.744,4.056-5.16,5.928-5.16a1.9,1.9,0,0,1,1.968,1.3c-1.464.768-6.408,3.36-6.408,6.7,0,4.1,6.288,4.1,7.632,4.1a32.84,32.84,0,0,0,6.672-.648,13.44,13.44,0,0,1,.384-3.288,27.327,27.327,0,0,1-7.536,1.08c-2.832,0-4.056-.384-4.056-1.464,0-1.032.984-2.088,3.6-3.5a25.021,25.021,0,0,1-.12,3.312c1.1-.072,3.048,0,3.216,0,.024-.6.072-1.32.072-2.376,0-.624-.024-1.464-.1-2.4,1.728-.72,3.552-1.32,5.664-1.968l-1.2-3.264c-1.008.528-3.384,1.608-5.088,2.376a3.985,3.985,0,0,0-3.624-2.208,4.883,4.883,0,0,0-2.28.552c.408-.72.96-1.608,1.248-2.136,2.328-.216,4.728-.624,7.008-1.032L-95.9,18.28a23.985,23.985,0,0,1-5.424,1.2c.288-.576.456-.912.72-1.488.312-.024.576-.168.576-.384,0-.288-.312-.336-.48-.384Zm28.272,7.7a30.009,30.009,0,0,1-6.528,8.28V23.632c.48-.192.576-.216.576-.456,0-.168-.168-.264-.624-.456.336-.648.624-1.224.864-1.824.84-1.992.936-2.232,1.056-2.448.12.024.672.024.672-.336a.516.516,0,0,0-.384-.432l-2.88-.96A26.826,26.826,0,0,1-88.224,26.9a6.7,6.7,0,0,1,2.088,2.112,14.916,14.916,0,0,0,1.368-1.68V38.8h2.928V33.088A7.866,7.866,0,0,1-79.968,34.7a28.082,28.082,0,0,0,5.4-7.512v5.16H-77.3v2.712h2.736v3.768h2.88V35.056H-68.9V32.344h-2.784V26.9a28.074,28.074,0,0,0,5.232,7.92,11.422,11.422,0,0,1,2.04-2.256,31.9,31.9,0,0,1-6.36-8.28h5.448V21.592h-6.36V17.776c.336-.216.48-.336.48-.48,0-.288-.312-.336-.48-.336l-2.88-.168v4.8h-6.144V24.28Zm18.144.936v5.712h2.352v-.936h4.368V25.216Zm4.608,1.7v1.344h-2.256V26.92Zm7.368,6.456a18.157,18.157,0,0,1,2.976,4.752c.216-.144.312-.216,1.3-.888a11.994,11.994,0,0,1,1.224-.672,19.762,19.762,0,0,0-3.216-4.56,2.831,2.831,0,0,0,.528.048,1.8,1.8,0,0,0,1.416-.624,6.475,6.475,0,0,0,1.2-3.048,5.281,5.281,0,0,1-2.208-1.536c-.12.792-.456,2.088-1.032,2.088-.432,0-1.2-.864-1.416-1.1a24.377,24.377,0,0,0,2.28-4.032c.552-.024.72-.168.72-.408a.409.409,0,0,0-.24-.312L-44.5,21.928A11.682,11.682,0,0,1-45.96,25.36a13.888,13.888,0,0,1-1.128-3.744h7.08V19.168h-2.784c.288-.192.408-.264.72-.456A17.879,17.879,0,0,0-44.4,16.288l-1.9,1.32a14.342,14.342,0,0,1,1.488,1.56H-47.4c-.024-.336-.024-.576-.048-1.44.432-.192.624-.288.624-.528s-.216-.264-.408-.288l-2.952-.216c.024.768.024,1.392.12,2.472H-60.336V22a15.99,15.99,0,0,1-1.944,8.832,8.275,8.275,0,0,1,2.5,1.224c1.416-2.592,2.184-5.976,2.112-10.44h7.9a16.065,16.065,0,0,0,2.088,6.072A16.436,16.436,0,0,1-50.76,30.4,9.77,9.77,0,0,1-48.5,32.224,15.069,15.069,0,0,0-46.056,29.9a6,6,0,0,0,3.1,2.088Zm-11.88-10.944v1.92h6.84v-1.92Zm-2.208,9.336a15.95,15.95,0,0,1-2.88,5.376,7.051,7.051,0,0,1,2.3,1.536,21.054,21.054,0,0,0,2.76-4.968c.48.024.84.024.84-.312,0-.24-.24-.36-.384-.432Zm3.24.168v4.056c0,1.272.12,2.448,2.64,2.448h5.688c2.232,0,2.688-.72,3.432-3.48a4.981,4.981,0,0,1-2.448-1.44c-.408,2.4-.984,2.688-2.04,2.688h-3.12c-1.224,0-1.368-.168-1.368-1.056v-2.28c.144-.048.528-.1.528-.384,0-.24-.216-.264-.528-.288Zm3.552.048a14.825,14.825,0,0,1,2.16,3.312c.5-.36,1.44-.912,2.112-1.32a17.718,17.718,0,0,0-2.5-3.192ZM-20.4,26.008a21.41,21.41,0,0,1,2.04,2.664,18.038,18.038,0,0,1,1.608-1.392c-.552-.816-1.752-2.208-2.088-2.592Zm2.376-1.9a19.132,19.132,0,0,1,2.112,2.712,12.016,12.016,0,0,1,1.56-1.368,16.781,16.781,0,0,0-2.184-2.544Zm2.568-6.72c-7.08,1.872-17.088,2.28-18.72,2.28a14.2,14.2,0,0,1-1.56-.072l.456,3.864a103.816,103.816,0,0,1,10.944-1.512c-3.216,2.472-5.04,5.232-5.04,8.448,0,5.448,5.112,7.536,8.76,8.352A17.667,17.667,0,0,1-19.1,35.128c-5.088-.384-7.056-2.208-7.056-5.016,0-4.392,5.328-9.312,11.328-9.288Zm12.552.12c.264.816.48,1.536,1.008,2.952a28.576,28.576,0,0,1-5.88.456L-7.1,23.8a45.279,45.279,0,0,0,6.24-.648c.1.216.576,1.32.7,1.584a31.322,31.322,0,0,1-6.312.648c-1.1,0-1.992-.048-2.52-.1l.36,3.024a14.816,14.816,0,0,0,1.536.072A46.7,46.7,0,0,0,1.1,27.472a12.922,12.922,0,0,0,1.272,2.064,18.6,18.6,0,0,0-3.96-.456c-3.336,0-6.12,1.656-6.12,4.488,0,2.16,1.8,5.112,7.92,5.112a22.594,22.594,0,0,0,6-.744,6.867,6.867,0,0,1-.072-.84,11.04,11.04,0,0,1,.24-2.256,18.51,18.51,0,0,1-6.12.96c-3.528,0-4.752-1.1-4.752-2.3,0-1.68,2.448-2.04,3.528-2.04A13.154,13.154,0,0,1,6.192,33.64l1.92-2.016A23.141,23.141,0,0,1,4.2,26.608a22.459,22.459,0,0,0,5.544-2.664c-.216-.36-1.368-2.184-1.608-2.616a20.814,20.814,0,0,1-5.328,2.616c-.144-.288-.288-.624-.672-1.536a19.275,19.275,0,0,0,4.68-1.992c-.456-.96-.6-1.3-1.128-2.544a17.942,17.942,0,0,1-4.44,1.872A20.561,20.561,0,0,1,.72,16.912Zm32.616-.24c-3.672,1.392-10.3,1.536-12.1,1.464l.528,3.216a67.446,67.446,0,0,0,7.272-.912A82.622,82.622,0,0,1,14.952,31.072l2.448,2.4c3.384-3.5,5.808-6.024,10.008-6.024,3.5,0,4.32,2.424,4.32,3.816A3.457,3.457,0,0,1,29.592,34.6c-.552-2.832-3.288-3.792-5.112-3.792-2.5,0-4.368,1.536-4.368,3.6,0,2.28,2.136,4.032,5.832,4.032,3.912,0,9-2.208,9-7.44,0-4.128-3.24-6.216-6.792-6.216a9.742,9.742,0,0,0-3.144.528c.912-.984,4.9-4.728,6.36-5.832ZM26.928,35.8a5.93,5.93,0,0,1-1.44.192c-1.176,0-2.5-.528-2.5-1.488,0-.552.432-1.08,1.32-1.08A2.554,2.554,0,0,1,26.928,35.8Zm18.408,1.728v.984H47.76V30.448H40.44V38.8h2.52V37.528ZM42.96,35.152v-2.3h2.376v2.3Zm5.76,2.88c.072.264.264.528.432.528.264,0,.408-.336.432-.792,2.016-.624,4.032-1.248,5.616-1.752a4.038,4.038,0,0,1-.072-.912,8.141,8.141,0,0,1,.144-1.656c-.624.24-1.272.456-2.472.816v-5.04h1.488V26.752H48.7v2.472H50.16v5.712c-1.032.24-1.536.336-2.112.456Zm8.472-16.464c0-1.2,0-2.208.072-3.672.312-.144.7-.36.7-.576,0-.24-.288-.264-.5-.288l-3-.168c-.024.624-.048,1.152-.048,1.968,0,1.176.024,2.352.048,2.736h-6v2.448h6.12c.672,11.184,3.792,14.736,5.088,14.736,2.016,0,2.52-3.96,2.664-4.968a6.916,6.916,0,0,1-2.208-1.776c-.024.1-.336,2.256-.672,2.256-.5,0-1.968-4.344-2.208-10.248h4.536V21.568ZM40.848,17.584v2.16H47.3v-2.16ZM39.816,20.8v2.136H47.88V20.8Zm1.032,3.24v2.088H47.3V24.04Zm0,3.216v2.16H47.3v-2.16Zm16.728-8.808a18.251,18.251,0,0,1,1.992,3.024,15.439,15.439,0,0,1,2.064-1.248,17.157,17.157,0,0,0-2.064-2.976ZM77.664,33.616a28.685,28.685,0,0,0,7.68,5.232,9.111,9.111,0,0,1,2.016-2.136,24.364,24.364,0,0,1-7.416-4.368h6.048V29.9H82.776V28.048H87.24V25.72H82.776V23.9h3.312V21.5H77.664V20.1a46.218,46.218,0,0,0,5.544-1.176,1.77,1.77,0,0,0,.672.216c.168,0,.264-.072.264-.216a.7.7,0,0,0-.12-.336l-1.68-2.136c-1.272.456-5.184,1.608-11.952,1.608-1.2,0-1.92-.048-2.52-.072a6.768,6.768,0,0,1,.936,2.448c3.12,0,4.008-.024,6.024-.144v1.2H66.456v2.4h3.192V25.72H65.28v2.328h4.368V29.9H66.432v2.448H72.5a24.352,24.352,0,0,1-7.32,4.536,8.6,8.6,0,0,1,2.16,2.136,31.944,31.944,0,0,0,7.488-5.232v5.04h2.832Zm2.3-7.9h-2.3V23.9h2.3Zm-5.136,0h-2.3V23.9h2.3ZM79.968,29.9h-2.3V28.048h2.3Zm-5.136,0h-2.3V28.048h2.3ZM103.2,18.64v-.984c.336-.12.576-.216.576-.456,0-.192-.24-.336-.528-.36l-3.024-.168V18.64H91.68v2.424h8.544v1.224H93.456v8.88h6.768v1.344h-9.48v2.472h9.48V38.92H103.2V34.984h9.576V32.512H103.2V31.168h6.744v-8.88H103.2V21.064h8.448V18.64Zm0,7.08V24.544h3.768V25.72Zm3.768,1.92v1.2H103.2v-1.2Zm-6.744,0v1.2H96.48v-1.2ZM96.48,25.72V24.544h3.744V25.72Zm28.9-9.144a24.461,24.461,0,0,1-1.368,3.264,14.468,14.468,0,0,1-1.464.048c-1.872,0-3.312-.144-3.864-.192v3c1.944.024,2.664,0,3.84-.048a47.061,47.061,0,0,1-5.28,7.056l2.856,1.68c2.28-3.744,4.056-5.16,5.928-5.16a1.9,1.9,0,0,1,1.968,1.3c-1.464.768-6.408,3.36-6.408,6.7,0,4.1,6.288,4.1,7.632,4.1a32.84,32.84,0,0,0,6.672-.648,13.439,13.439,0,0,1,.384-3.288,27.327,27.327,0,0,1-7.536,1.08c-2.832,0-4.056-.384-4.056-1.464,0-1.032.984-2.088,3.6-3.5a25.023,25.023,0,0,1-.12,3.312c1.1-.072,3.048,0,3.216,0,.024-.6.072-1.32.072-2.376,0-.624-.024-1.464-.1-2.4,1.728-.72,3.552-1.32,5.664-1.968l-1.2-3.264c-1.008.528-3.384,1.608-5.088,2.376a3.985,3.985,0,0,0-3.624-2.208,4.883,4.883,0,0,0-2.28.552c.408-.72.96-1.608,1.248-2.136,2.328-.216,4.728-.624,7.008-1.032l-.024-3.072a23.985,23.985,0,0,1-5.424,1.2c.288-.576.456-.912.72-1.488.312-.024.576-.168.576-.384,0-.288-.312-.336-.48-.384Zm30.072,8.16a36.227,36.227,0,0,0,6.072-5.424l-.984-1.032h-7.608c.144-.168.288-.384.408-.528.384-.12.72-.24.72-.48,0-.168-.264-.264-.432-.288L150.6,16.5a16.144,16.144,0,0,1-8.016,6.288,6.816,6.816,0,0,1,2.208,2.04,27.036,27.036,0,0,0,3.264-2.064,14.216,14.216,0,0,1,2.328,2.184,23.068,23.068,0,0,1-7.92,2.664,5,5,0,0,1,1.632,2.448A28,28,0,0,0,154.2,25.6a22.84,22.84,0,0,1-10.224,6.648,7.9,7.9,0,0,1,2.088,2.112,21.547,21.547,0,0,0,4.224-2.112,12.965,12.965,0,0,1,2.16,2.112,25.551,25.551,0,0,1-10.3,2.208,6.7,6.7,0,0,1,1.416,2.544,31.327,31.327,0,0,0,11.184-3.024,22.912,22.912,0,0,0,8.784-7.632L162.5,27.4h-6.216c.432-.432.7-.744,1.152-1.248.408-.048.72-.1.72-.408,0-.192-.216-.288-.432-.36Zm3.216,5.208c-.768,1.248-3.336,2.832-3.576,2.976a30.182,30.182,0,0,0-2.472-2.28c.456-.36.648-.528.864-.7Zm-2.28-9.36a17.459,17.459,0,0,1-3.528,2.9,16.744,16.744,0,0,0-2.736-2.4c.144-.12.216-.192.576-.5Zm24.336-3.672a31.3,31.3,0,0,1-1.056,5.928,13.43,13.43,0,0,1-2.424,4.872,5.771,5.771,0,0,1,2.232,1.368,6.609,6.609,0,0,0,1.008-1.464,16.071,16.071,0,0,0,1.776,5.256,13.654,13.654,0,0,1-4.9,4.008,6.582,6.582,0,0,1,2.088,2.064A15.655,15.655,0,0,0,183.84,35.3a17.723,17.723,0,0,0,3.648,3.648,22.954,22.954,0,0,1,1.92-2.208,14.613,14.613,0,0,1-3.936-3.84,22.97,22.97,0,0,0,2.544-9.24h1.128V20.968h-6.288a29.24,29.24,0,0,0,.456-2.9c.552-.192.6-.312.6-.48s-.1-.288-.36-.312Zm-7.632,10.224h1.152V25a13.016,13.016,0,0,0,2.088,2.256A20.615,20.615,0,0,1,178.1,25.5a14.5,14.5,0,0,1-2.712-2.376H178.7v-2.28h-1.776a21.388,21.388,0,0,0,1.464-2.352c.168-.024.672-.072.672-.408a.343.343,0,0,0-.24-.288l-2.328-.888a15.564,15.564,0,0,1-1.632,3.024,7.545,7.545,0,0,1,1.824.912H174.24V17.656c.48-.192.576-.288.576-.432,0-.216-.24-.288-.36-.288l-2.688-.216v4.128h-2.856c.24-.144,1.68-.816,2.16-.984a12.868,12.868,0,0,0-1.848-3.024l-2.112,1.152a25.608,25.608,0,0,1,1.632,2.856h-1.728v2.28H170.3a16.138,16.138,0,0,1-3.768,3.216,7.268,7.268,0,0,1,1.968,1.632,16.5,16.5,0,0,0,3.192-3.12v2.28h.072a15.338,15.338,0,0,1-.888,1.608h-3.864V31.12h2.376c-.96,1.44-1.392,1.992-1.824,2.568a5.547,5.547,0,0,1,2.208,1.08l.528-.72c.48.288,1.032.6,1.488.936a10.356,10.356,0,0,1-4.056,1.9,6.807,6.807,0,0,1,1.536,2.04,11.941,11.941,0,0,0,4.536-2.472,18.694,18.694,0,0,1,2.016,1.9,16.742,16.742,0,0,1,1.632-2.088,8.689,8.689,0,0,0-1.824-1.68,9.925,9.925,0,0,0,1.776-3c.216,0,.6-.048.6-.288a.259.259,0,0,0-.048-.168h.888V28.744H173.76c.12-.216.192-.36.288-.552.192.024.648.1.648-.192,0-.12-.168-.24-.384-.336Zm12.216-3.48a20.969,20.969,0,0,1-1.392,6.456,19.285,19.285,0,0,1-1.608-6.456ZM174.96,31.12a7.955,7.955,0,0,1-1.3,2.112c-.24-.168-1.344-.816-1.944-1.152.312-.456.456-.672.648-.96Zm33.576-12.864a32.457,32.457,0,0,1-6.936.552,41.973,41.973,0,0,1-5.688-.288l.192,3.408a65.3,65.3,0,0,0,8.52-.36c-.984.72-2.016,1.512-2.856,2.184.912.936,1.032,1.056,1.968,2.16a23.21,23.21,0,0,1,6.408-4.608Zm3.36-.744c.528.528,1.536,1.728,2.136,2.472a7.323,7.323,0,0,1,1.416-1.44,27.064,27.064,0,0,0-2.3-2.4Zm-13.92,10.176c-3.24,2.76-3.6,4.44-3.6,5.52,0,3.552,3.6,4.56,9,4.56a49.35,49.35,0,0,0,9.864-.96,21.253,21.253,0,0,1-.672-3.384,30.492,30.492,0,0,1-9.144,1.2c-1.368,0-3.936-.1-5.112-.7a1.171,1.171,0,0,1-.6-1.08c0-1.2,2.136-3.048,2.5-3.36Zm11.976-8.232a21.725,21.725,0,0,1,2.3,2.616,11.3,11.3,0,0,1,1.3-1.488,19.2,19.2,0,0,0-2.208-2.5ZM230.88,30.808h4.776v3.72c0,.936-.144,1.3-1.176,1.3a10.5,10.5,0,0,1-1.9-.192,9.086,9.086,0,0,1,1.1,3.12c2.832.144,4.992-.072,4.992-3.072v-18H220.008v9.5c0,3.7-.5,7.9-2.592,10.536a7.639,7.639,0,0,1,3.216,1.2,18.2,18.2,0,0,0,2.376-8.112h4.9v6.936h2.976Zm0-5.328h4.776V28.1H230.88ZM227.9,28.1h-4.728c.024-.408.048-.936.048-1.368V25.48h4.68Zm2.976-7.824h4.776v2.616H230.88ZM227.9,22.888h-4.68V20.272h4.68Zm25.368,10.32a14.153,14.153,0,0,1,1.944,2.616c.72-.456,1.416-.864,2.088-1.272a16.965,16.965,0,0,0-1.584-1.992h6.072v-7.7h-14.88v7.7h7.44Zm-3.456-5.352V26.68h9.168v1.176Zm9.168,1.632v1.248h-9.168V29.488Zm-3.12-11.208v-.768c.216-.1.432-.216.432-.408,0-.24-.312-.264-.48-.264l-3.048-.168V18.28H244.7v2.256h4.488l-.888.24a9.933,9.933,0,0,1,.768.96h-5.688v2.208h22.008V21.736h-5.808a6.784,6.784,0,0,0,.432-.744c.456-.048.7-.12.7-.288a.347.347,0,0,0-.048-.168H264V18.28Zm1.152,2.256a10.83,10.83,0,0,1-.6,1.2h-4.824l.648-.192a6.568,6.568,0,0,0-.768-1.008ZM246.36,33.04a16.215,16.215,0,0,1-3.024,4.272,6.56,6.56,0,0,1,2.352,1.464,26.119,26.119,0,0,0,2.736-3.816c.384,0,.744-.072.744-.336,0-.192-.24-.312-.528-.456Zm3.192-.024V36.5c0,1.512.456,2.184,2.52,2.184h5.112c2.736,0,3.144-1.3,3.6-3.072a6.5,6.5,0,0,1-2.424-1.248c-.288,1.272-.552,2.088-1.728,2.088H253.32c-.72,0-1.152-.024-1.152-.912V33.952a.491.491,0,0,0,.336-.408c0-.192-.216-.264-.456-.288Zm10.632,1.1a24.069,24.069,0,0,1,3.048,4.152,13.161,13.161,0,0,1,2.208-1.56,21.533,21.533,0,0,0-3.024-3.84Zm13.032-16.9c.024.48.048.648.048,1.632,0,1.368-.264,8.04-.264,9.552,0,4.8.168,9.984,5.616,9.984,2.832,0,7.512-1.392,11.424-7.68a16,16,0,0,1-2.424-2.688c-.984,2.112-4.608,6.984-8.688,6.984-2.232,0-2.616-1.608-2.616-5.736a73.459,73.459,0,0,1,.7-10.776c.192-.048.528-.168.528-.408,0-.264-.168-.288-.552-.336Zm42.048.168c-7.08,1.872-17.088,2.28-18.72,2.28a14.2,14.2,0,0,1-1.56-.072l.456,3.864a103.815,103.815,0,0,1,10.944-1.512c-3.216,2.472-5.04,5.232-5.04,8.448,0,5.448,5.112,7.536,8.76,8.352a17.667,17.667,0,0,1,1.512-3.624c-5.088-.384-7.056-2.208-7.056-5.016,0-4.392,5.328-9.312,11.328-9.288Zm4.824,16.584a19.941,19.941,0,0,1,4.872,4.32l2.328-2.328a29.81,29.81,0,0,0-5.232-4.128ZM-259.176,53.792c.024,1.2.072,3.5.072,4.608-.36.024-1.8.12-2.856.12a10.92,10.92,0,0,1-1.848-.12l.024,3.24c1.3,0,3.168-.024,4.68-.144,0,1.176,0,2.352.024,3.528-.984.576-5.352,3.888-6.456,4.488l1.44,3.48c.48-.552.744-.84,1.248-1.344a32.284,32.284,0,0,1,4.464,3.7l2.736-1.248c-.192-1.992-.216-2.544-.312-7.536a10.41,10.41,0,0,1,4.1-1.056,3.338,3.338,0,0,1,3.576,3.432c0,1.416-.744,2.568-1.944,2.568-1.464,0-1.44-1.32-1.44-1.968-.576.216-2.136.72-2.592.864.024.864.12,4.152,3.744,4.152a5.327,5.327,0,0,0,5.4-5.736c0-4.2-3.288-6.168-6.552-6.168a11.855,11.855,0,0,0-4.3.864c.024-.36.048-2.016.048-2.4a25.168,25.168,0,0,0,4.248-1.1,23.287,23.287,0,0,1-.024-3.288,16.547,16.547,0,0,1-4.1,1.248c.024-.48.048-1.224.192-2.88.168-.048.432-.12.432-.36,0-.264-.192-.288-.5-.336Zm.12,14.568V70.5c0,.24-.024.528-.192.528A9.566,9.566,0,0,1-261,69.872,17.8,17.8,0,0,1-259.056,68.36Zm8.928-8.544a14.218,14.218,0,0,1,5.088,3.792,15.456,15.456,0,0,1,2.016-2.472,20.547,20.547,0,0,0-5.232-3.864Zm28.464,9.456c1.128.312,1.9.5,2.664.672a7.989,7.989,0,0,1,1.464-2.688,29.161,29.161,0,0,1-8.88-2.472,16.871,16.871,0,0,0,4.224-4.416l-1.152-1.032h-7.008a7.8,7.8,0,0,0,.576-.912,1.814,1.814,0,0,0,.744-.24h7.656v2.664h2.9V55.664h-9V54.44c.336-.12.624-.216.624-.456,0-.264-.264-.288-.48-.288l-3.168-.072v2.04h-9v5.28h2.856v-2.76h3.672a15.867,15.867,0,0,1-6.864,5.88,6.594,6.594,0,0,1,2.112,1.944,21.764,21.764,0,0,0,4.056-2.952,16.261,16.261,0,0,0,2.28,1.9,26.394,26.394,0,0,1-8.736,2.736,7.311,7.311,0,0,1,1.536,2.424c1.008-.216,1.608-.36,2.256-.528v6.192h2.9v-.7h8.928v.7h2.832Zm-11.76,3.552v-2.16h8.928v2.16Zm.768-4.416a23.961,23.961,0,0,0,3.744-1.9,24.476,24.476,0,0,0,4.344,1.9Zm5.664-6.792a10.835,10.835,0,0,1-2.136,1.9,13.7,13.7,0,0,1-2.592-1.9Zm20.472,11.9c.1.168.24.456.48.456s.288-.264.36-.576a46.381,46.381,0,0,0,4.416-2.64v1.56c0,.816-.336.912-1.224.912-.672,0-1.2-.048-1.416-.048a6.4,6.4,0,0,1,1.3,2.784c3.024-.192,4.152-.408,4.152-3.384V69.992a15.746,15.746,0,0,0,4.968,4.44,6.316,6.316,0,0,1,1.7-2.256,14.28,14.28,0,0,1-3.888-2.568,14.868,14.868,0,0,0,2.448-2.832c.288.024.624.024.624-.288,0-.216-.12-.288-.24-.384l-1.632-1.128h2.016V62.768h-6V61.592h4.1V59.576h-4.1V58.544h5.544V56.432h-3.312c.312-.5.7-1.176.888-1.512.36-.1.5-.144.5-.288a.417.417,0,0,0-.264-.36l-2.568-.792a18.7,18.7,0,0,1-1.44,2.952h-2.688L-201,56.1a28.946,28.946,0,0,0-1.68-2.664l-2.376,1.08a13.085,13.085,0,0,1,1.32,1.92h-2.928v2.112h5.4v1.032h-4.128v2.016h4.128v1.176h-5.616v2.208h2.592l-1.968,1.32a29.392,29.392,0,0,1,2.232,2.76c.24-.216,1.536-1.224,1.824-1.464a18.24,18.24,0,0,0-1.968-2.616h2.9v3.216a28,28,0,0,1-6.288,3.192Zm8.064-8.544h3.5a19.743,19.743,0,0,1-2.232,3.072,13.056,13.056,0,0,1-1.272-1.68Zm-10.584.84a16.082,16.082,0,0,0,1.464,2.4,5.308,5.308,0,0,1,1.32-2.16,15.449,15.449,0,0,1-2.784-4.68v-.744H-207V58.184h-2.04V54.656c.408-.192.48-.24.48-.408,0-.264-.432-.336-.48-.336l-2.784-.168v4.44h-2.832v2.448h2.928a22.184,22.184,0,0,1-3.576,8.016,7.723,7.723,0,0,1,1.992,1.872,20.072,20.072,0,0,0,1.608-3.48v8.784h2.664Zm33.312,9.144a13.086,13.086,0,0,0,5.4-3.408A10.585,10.585,0,0,0-167.5,64.28c0-5.736-4.584-9.192-9.7-9.192A11.537,11.537,0,0,0-188.664,66.08c0,4.3,3.24,7.32,5.088,7.32,2.472,0,5.928-6.432,6.744-15.384a6.112,6.112,0,0,1,6.12,6.264c0,2.52-1.464,6.744-7.128,7.824A15.426,15.426,0,0,1-175.728,74.96Zm-4.512-16.368a22.738,22.738,0,0,1-1.8,8.328c-.384.96-1.056,2.592-1.752,2.592-.744,0-1.824-1.608-1.824-3.648A8.347,8.347,0,0,1-180.24,58.592Zm32.616-3.336a32.457,32.457,0,0,1-6.936.552,41.973,41.973,0,0,1-5.688-.288l.192,3.408a65.3,65.3,0,0,0,8.52-.36c-.984.72-2.016,1.512-2.856,2.184.912.936,1.032,1.056,1.968,2.16a23.21,23.21,0,0,1,6.408-4.608Zm3.36-.744c.528.528,1.536,1.728,2.136,2.472a7.324,7.324,0,0,1,1.416-1.44,27.064,27.064,0,0,0-2.3-2.4Zm-13.92,10.176c-3.24,2.76-3.6,4.44-3.6,5.52,0,3.552,3.6,4.56,9,4.56a49.35,49.35,0,0,0,9.864-.96,21.253,21.253,0,0,1-.672-3.384,30.492,30.492,0,0,1-9.144,1.2c-1.368,0-3.936-.1-5.112-.7a1.171,1.171,0,0,1-.6-1.08c0-1.2,2.136-3.048,2.5-3.36Zm11.976-8.232a21.725,21.725,0,0,1,2.3,2.616,11.3,11.3,0,0,1,1.3-1.488,19.2,19.2,0,0,0-2.208-2.5Zm20.448,12.1a20.57,20.57,0,0,0,7.728,6.672,7.577,7.577,0,0,1,2.232-2.3,22.619,22.619,0,0,1-8.208-6.168h7.776V64.136h-5.088a23.953,23.953,0,0,0,1.7-3.5c.312-.072.528-.1.528-.36a.361.361,0,0,0-.264-.312l-1.824-.792h3.864V56.552h-8.448V54.92a1.265,1.265,0,0,0,.36-.264.29.29,0,0,0,.144-.216c0-.24-.216-.288-.408-.312l-2.976-.192v2.616h-8.472v2.616h3.816l-1.92,1.032a23.915,23.915,0,0,1,2.136,3.936h-5.136v2.616h7.872a23.006,23.006,0,0,1-8.52,6.648,7.294,7.294,0,0,1,2.544,2.04,26.436,26.436,0,0,0,7.68-6.744v7.1h2.88Zm3.552-9.384a25.679,25.679,0,0,1-1.92,4.176c.552.24,1.152.6,1.512.792h-3.144V59.168Zm-9.528,4.968a14.1,14.1,0,0,1,1.608-.816,17.763,17.763,0,0,0-2.256-4.152h3.744v4.968ZM-99.408,61.3V59.576c.408-.1.528-.216.528-.36,0-.168-.192-.264-.7-.312h8.664V56.36h-9.264V54.728c.12-.072.24-.168.384-.264a.264.264,0,0,0,.144-.24.379.379,0,0,0-.408-.36l-3.24-.168V56.36h-7.8v7.272c0,1.584,0,7.032-2.352,10.824a8.515,8.515,0,0,1,2.76,1.272,16.16,16.16,0,0,0,2.016-5.376,42.321,42.321,0,0,0,.624-6.5V58.9h5.5v7.632h-4.512v9.24h2.832v-.864h8.616v.84h2.976V66.536h-6.768V63.8h8.16V61.3Zm-4.824,7.8h8.616V72.44h-8.616Zm26.088-15.528a24.461,24.461,0,0,1-1.368,3.264,14.469,14.469,0,0,1-1.464.048c-1.872,0-3.312-.144-3.864-.192v3c1.944.024,2.664,0,3.84-.048A47.061,47.061,0,0,1-86.28,66.7l2.856,1.68c2.28-3.744,4.056-5.16,5.928-5.16a1.9,1.9,0,0,1,1.968,1.3c-1.464.768-6.408,3.36-6.408,6.7,0,4.1,6.288,4.1,7.632,4.1a32.84,32.84,0,0,0,6.672-.648,13.44,13.44,0,0,1,.384-3.288,27.327,27.327,0,0,1-7.536,1.08c-2.832,0-4.056-.384-4.056-1.464,0-1.032.984-2.088,3.6-3.5a25.021,25.021,0,0,1-.12,3.312c1.1-.072,3.048,0,3.216,0,.024-.6.072-1.32.072-2.376,0-.624-.024-1.464-.1-2.4,1.728-.72,3.552-1.32,5.664-1.968L-67.7,60.8c-1.008.528-3.384,1.608-5.088,2.376a3.985,3.985,0,0,0-3.624-2.208,4.883,4.883,0,0,0-2.28.552c.408-.72.96-1.608,1.248-2.136,2.328-.216,4.728-.624,7.008-1.032l-.024-3.072a23.985,23.985,0,0,1-5.424,1.2c.288-.576.456-.912.72-1.488.312-.024.576-.168.576-.384,0-.288-.312-.336-.48-.384Zm23.352,6.408v12.5c0,2.16,1.416,2.9,3.144,2.9h4.2c1.44,0,3.7,0,4.632-4.488A6.447,6.447,0,0,1-45.5,69.488c-.5,3.144-1.344,3.144-2.328,3.144h-2.544c-1.2,0-1.3-.432-1.3-1.152V60.968c.168-.024.552-.1.552-.384,0-.36-.384-.384-.552-.384Zm-4.176,1.824A20.684,20.684,0,0,1-62.52,70.04a8.108,8.108,0,0,1,3.144,1.128c1.656-2.16,2.688-5.736,3.288-7.8.36-.1.648-.168.648-.408,0-.192-.216-.288-.456-.36Zm4.56-5.736a28.252,28.252,0,0,1,6.5,3.576,19.98,19.98,0,0,1,1.728-2.568,33.117,33.117,0,0,0-6.744-3.552Zm7.536,5.784a27.72,27.72,0,0,1,4.632,7.56c.72-.432,2.112-1.08,2.9-1.464a27.672,27.672,0,0,0-5.112-7.608Zm19.416-7.944a21.3,21.3,0,0,1,.36,3.84c.024,5.136.024,5.448.216,8.832a7.46,7.46,0,0,0-1.032-.072c-2.928,0-6.96,1.2-6.96,4.3,0,2.4,2.472,4.3,6.312,4.3,3.24,0,5.472-1.44,5.3-4.7a20.831,20.831,0,0,1,6.264,3.72,21.8,21.8,0,0,1,2.16-2.856c-1.872-1.44-6.384-3.768-8.688-4.128A28.968,28.968,0,0,1-23.88,62a37.768,37.768,0,0,0,7.632-.936,24.312,24.312,0,0,1,.192-3.5,26.139,26.139,0,0,1-7.776,1.2c.072-1.824.168-2.832.24-3.456.264-.072.5-.12.5-.408,0-.24-.192-.288-.48-.336Zm.84,15.6c.024,1.08.048,1.488-.168,1.872a2.435,2.435,0,0,1-2.16.96c-.192,0-2.592,0-2.592-1.44,0-1.32,2.28-1.608,3.24-1.608A6.328,6.328,0,0,1-26.616,69.512ZM-6.864,54.176a5.567,5.567,0,0,1-.168.936A26.515,26.515,0,0,0-7.8,61.136a23.858,23.858,0,0,0,1.632,8.592l2.88-.336A15.927,15.927,0,0,1-.768,63.1a12.115,12.115,0,0,1-2.088-1.728,29.269,29.269,0,0,0-1.56,3.144,11.86,11.86,0,0,1-.264-2.592,19.907,19.907,0,0,1,1.032-6.216c.24-.048.552-.12.552-.408,0-.264-.264-.312-.648-.408ZM3.672,53.96a46.094,46.094,0,0,1,.864,8.616c0,5.4-1.944,8.856-6.6,10.992a8.464,8.464,0,0,1,2.616,2.4C7.752,72.008,7.92,65.72,7.92,62.7c0-1.2-.048-2.28-.1-2.952-.048-.72-.288-4.176-.312-4.968.168-.048.408-.1.408-.36,0-.288-.216-.312-.576-.336Zm16.992-.168c.024,1.2.072,3.5.072,4.608-.36.024-1.8.12-2.856.12a10.92,10.92,0,0,1-1.848-.12l.024,3.24c1.3,0,3.168-.024,4.68-.144,0,1.176,0,2.352.024,3.528-.984.576-5.352,3.888-6.456,4.488l1.44,3.48c.48-.552.744-.84,1.248-1.344a32.285,32.285,0,0,1,4.464,3.7L24.192,74.1C24,72.1,23.976,71.552,23.88,66.56a10.41,10.41,0,0,1,4.1-1.056,3.338,3.338,0,0,1,3.576,3.432c0,1.416-.744,2.568-1.944,2.568-1.464,0-1.44-1.32-1.44-1.968-.576.216-2.136.72-2.592.864.024.864.12,4.152,3.744,4.152a5.327,5.327,0,0,0,5.4-5.736c0-4.2-3.288-6.168-6.552-6.168a11.855,11.855,0,0,0-4.3.864c.024-.36.048-2.016.048-2.4a25.168,25.168,0,0,0,4.248-1.1,23.285,23.285,0,0,1-.024-3.288,16.547,16.547,0,0,1-4.1,1.248c.024-.48.048-1.224.192-2.88.168-.048.432-.12.432-.36,0-.264-.192-.288-.5-.336Zm.12,14.568V70.5c0,.24-.024.528-.192.528a9.566,9.566,0,0,1-1.752-1.152A17.8,17.8,0,0,1,20.784,68.36Zm8.928-8.544A14.218,14.218,0,0,1,34.8,63.608a15.456,15.456,0,0,1,2.016-2.472,20.547,20.547,0,0,0-5.232-3.864Zm17.232,1.1.072-.144c.384-.024.768-.048.768-.384,0-.168-.12-.264-.408-.408L45.12,58.928a21.616,21.616,0,0,1-6.168,7.056,7.578,7.578,0,0,1,2.16,1.92,13.216,13.216,0,0,0,1.536-1.416V75.92h2.9V64.232c.1-.072.312-.192.312-.384s-.312-.336-.576-.432a25.649,25.649,0,0,0,1.56-2.3V63.44H55.7v2.184H47.3v2.5H50.5L48.48,69.344a18.016,18.016,0,0,1,2.5,3.912c.936-.648,1.416-.984,2.448-1.584A25.373,25.373,0,0,0,50.88,68.12H55.7V72.1c0,1.032-.624,1.056-1.224,1.056a9.635,9.635,0,0,1-2.016-.24A7.41,7.41,0,0,1,53.616,75.9c.624.024.96.048,1.464.048,1.536,0,3.624-.168,3.624-2.9V68.12h2.832v-2.5H58.7V63.968c.216-.072.432-.144.432-.384a.341.341,0,0,0-.048-.144H61.8V60.92H55.536V58.856H60.96v-2.52H55.536V54.7c.432-.288.528-.36.528-.552,0-.168-.12-.24-.528-.264l-2.9-.12v2.568H47.664v2.52h4.968V60.92Zm-2.28-7.344a18.2,18.2,0,0,1-5.136,5.232,4.875,4.875,0,0,1,2.184,1.752,29.618,29.618,0,0,0,4.968-4.9c.264.024.6.048.6-.24,0-.168-.192-.36-.36-.456Zm28.632.1a29.859,29.859,0,0,1-.936,4.344,29.023,29.023,0,0,1-5.928-.456l.024,3.336a43.467,43.467,0,0,0,4.992.12A30.709,30.709,0,0,1,68.04,68.36l2.88,1.464a12.711,12.711,0,0,1,8.712-4.2c1.9,0,3.336.792,3.336,2.76,0,3.6-5.616,4.152-8.712,4.152a35.485,35.485,0,0,1-3.624-.216,12.9,12.9,0,0,1,.768,3.048,20.763,20.763,0,0,0,2.52.12c2.928,0,12.432-.36,12.432-7.008,0-1.1-.384-5.52-6.528-5.52a13.885,13.885,0,0,0-6.72,1.9c1.032-2.52,1.464-3.7,1.584-4.032a41.839,41.839,0,0,0,9.888-2.064,8.834,8.834,0,0,1-.624-3.024,39.13,39.13,0,0,1-8.208,1.944c.12-.336.672-2.064.792-2.448.264-.024.552-.1.552-.336,0-.192-.168-.288-.48-.36Zm21.84.552c.024.48.048.648.048,1.632,0,1.368-.264,8.04-.264,9.552,0,4.8.168,9.984,5.616,9.984,2.832,0,7.512-1.392,11.424-7.68a16,16,0,0,1-2.424-2.688c-.984,2.112-4.608,6.984-8.688,6.984-2.232,0-2.616-1.608-2.616-5.736a73.459,73.459,0,0,1,.7-10.776c.192-.048.528-.168.528-.408,0-.264-.168-.288-.552-.336Zm42.048.168c-7.08,1.872-17.088,2.28-18.72,2.28a14.2,14.2,0,0,1-1.56-.072l.456,3.864A103.815,103.815,0,0,1,128.3,58.952c-3.216,2.472-5.04,5.232-5.04,8.448,0,5.448,5.112,7.536,8.76,8.352a17.666,17.666,0,0,1,1.512-3.624c-5.088-.384-7.056-2.208-7.056-5.016,0-4.392,5.328-9.312,11.328-9.288Zm10.68-.6c.024,1.2.072,3.5.072,4.608-.36.024-1.8.12-2.856.12a10.92,10.92,0,0,1-1.848-.12l.024,3.24c1.3,0,3.168-.024,4.68-.144,0,1.176,0,2.352.024,3.528-.984.576-5.352,3.888-6.456,4.488l1.44,3.48c.48-.552.744-.84,1.248-1.344a32.285,32.285,0,0,1,4.464,3.7l2.736-1.248c-.192-1.992-.216-2.544-.312-7.536a10.41,10.41,0,0,1,4.1-1.056,3.338,3.338,0,0,1,3.576,3.432c0,1.416-.744,2.568-1.944,2.568-1.464,0-1.44-1.32-1.44-1.968-.576.216-2.136.72-2.592.864.024.864.12,4.152,3.744,4.152a5.327,5.327,0,0,0,5.4-5.736c0-4.2-3.288-6.168-6.552-6.168a11.855,11.855,0,0,0-4.3.864c.024-.36.048-2.016.048-2.4a25.168,25.168,0,0,0,4.248-1.1,23.287,23.287,0,0,1-.024-3.288,16.547,16.547,0,0,1-4.1,1.248c.024-.48.048-1.224.192-2.88.168-.048.432-.12.432-.36,0-.264-.192-.288-.5-.336Zm.12,14.568V70.5c0,.24-.024.528-.192.528a9.566,9.566,0,0,1-1.752-1.152A17.8,17.8,0,0,1,147.984,68.36Zm8.928-8.544A14.218,14.218,0,0,1,162,63.608a15.456,15.456,0,0,1,2.016-2.472,20.547,20.547,0,0,0-5.232-3.864Zm14.3-5.64a5.567,5.567,0,0,1-.168.936,26.515,26.515,0,0,0-.768,6.024,23.858,23.858,0,0,0,1.632,8.592l2.88-.336a15.927,15.927,0,0,1,2.52-6.288,12.115,12.115,0,0,1-2.088-1.728,29.268,29.268,0,0,0-1.56,3.144,11.86,11.86,0,0,1-.264-2.592,19.907,19.907,0,0,1,1.032-6.216c.24-.048.552-.12.552-.408,0-.264-.264-.312-.648-.408Zm10.536-.216a46.094,46.094,0,0,1,.864,8.616c0,5.4-1.944,8.856-6.6,10.992a8.464,8.464,0,0,1,2.616,2.4C185.832,72.008,186,65.72,186,62.7c0-1.2-.048-2.28-.1-2.952-.048-.72-.288-4.176-.312-4.968.168-.048.408-.1.408-.36,0-.288-.216-.312-.576-.336Zm20.28-.024c.072.624.072.864.12,3.072-1.1.072-6.528.288-7.752.408v3.216c1.968-.24,4.392-.552,7.776-.672,0,.456,0,2.688.024,3.192-.48.024-.84.024-1.392.024-1.2,0-2.088-.024-2.088-.648,0-.168.408-.624.672-.912l-2.3-.6c-1.272,1.272-1.7,1.992-1.7,2.808,0,2.232,4.08,2.136,6.888,2.088,0,.216.024,1.8.024,1.92-.312,0-1.08-.048-1.344-.048-1.944,0-6.144.7-6.144,3.7,0,1.752,1.8,3.792,5.976,3.792,5.064,0,5.016-2.808,4.92-4.3a17.061,17.061,0,0,1,5.592,3.168,29.939,29.939,0,0,1,2.232-2.592,22.623,22.623,0,0,0-7.992-3.264c0-.36-.048-2.16-.072-2.568a48.92,48.92,0,0,0,6.288-.768v-3.1a32.939,32.939,0,0,1-6.36,1.1V59.84a57.752,57.752,0,0,1,6.984.168V56.96c-1.392-.12-2.232-.144-3.6-.144-1.608,0-2.664.024-3.288.048.048-.672.072-1.08.12-1.632.168-.048.432-.12.432-.408,0-.24-.24-.288-.48-.336ZM202.32,70.3c.168,1.656-.576,2.232-2.04,2.232-.36,0-2.184-.072-2.184-1.08,0-1.152,2.088-1.3,2.856-1.3A5.582,5.582,0,0,1,202.32,70.3Zm25.488-16.512a26.542,26.542,0,0,1,.336,3.168c-8.28.48-9.192.528-9.984.528l.24,3.432a73.287,73.287,0,0,1,9.84-1.152c0,.528,0,.864-.024,1.872a3.1,3.1,0,0,0-1.008-.144c-2.544,0-4.2,1.944-4.2,4.9,0,1.608.528,4.56,3.456,4.56a3.374,3.374,0,0,0,2.3-.84c-.288.744-1.032,2.592-4.8,4.1a13.684,13.684,0,0,1,2.9,2.136,10.786,10.786,0,0,0,5.76-9.216,8.02,8.02,0,0,0-1.224-4.368c-.072-1.128-.024-2.712-.024-3.12,1.08-.048,3.528-.1,8.088.1a15.732,15.732,0,0,1-.1-2.112,6.844,6.844,0,0,1,.072-1.176c-.288.024-1.08.072-8.112.36a13.1,13.1,0,0,1,.12-1.92c.24-.12.384-.192.384-.408,0-.168-.168-.216-.552-.264Zm-.528,10.3c1.344,0,1.488,1.368,1.488,1.872,0,1.392-.624,2.544-1.584,2.544-.408,0-1.488-.24-1.488-2.232C225.7,64.808,226.464,64.088,227.28,64.088Zm19.992,4.656a3.276,3.276,0,1,0,3.264,3.288A3.273,3.273,0,0,0,247.272,68.744Zm0,1.368a1.92,1.92,0,1,1-1.92,1.92A1.921,1.921,0,0,1,247.272,70.112ZM-330.684,91.344V99.36h15.936V91.344Zm3.024,3.12V93.312h9.888v1.152Zm9.888,1.752v1.176h-9.888V96.216Zm4.728,16.176a12.306,12.306,0,0,1,1.128-3,60,60,0,0,1-6.312.336c-.5,0-1.872,0-2.952-.1v-2.688h6.48v-2.352h-6.48v-2.064h9.408v-2.3h-21.936v2.3h9.552v6.48a7.245,7.245,0,0,1-3.312-2.832c.144-.384.24-.648.576-1.68.5-.144.576-.192.576-.384,0-.144-.024-.264-.408-.384l-2.544-.864c-.528,1.68-1.848,5.928-4.776,8.568a7.423,7.423,0,0,1,2.64,1.464,18.212,18.212,0,0,0,2.856-4.224c2.616,3.5,6.648,3.72,9.792,3.72Zm5.184-4.176c.048.216.144.432.36.432.144,0,.192-.048.264-.192.048-.072.12-.24.168-.336,1.224-.144,1.536-.192,4.392-.552a7.827,7.827,0,0,1-4.872,3.336,7.888,7.888,0,0,1,2.016,2.376,9.344,9.344,0,0,0,6.144-6.24c1.224-.192,1.7-.288,2.088-.384a12.961,12.961,0,0,1,.264-2.616c-.432.12-.552.144-1.752.408a20.186,20.186,0,0,0,.144-2.472v-10.1c.312-.12.576-.216.576-.456,0-.144-.144-.288-.408-.312l-3.144-.168v3.408h-6.5v2.544h6.5v2.736h-5.544v2.592h5.544a16.306,16.306,0,0,1-.192,2.688,66.385,66.385,0,0,1-6.744.648Zm14.88-13.872V91.9c.336-.072.624-.168.624-.408s-.264-.312-.432-.312l-3.192-.192v21.864h3v-4.824h6.816v-2.712h-6.816v-3.1h5.448V99.624h-5.448V96.888h6.576V94.344Zm25.3-.84A25.707,25.707,0,0,1-265,95.928c.432-.432,1.128-1.128,1.56-1.536a24.584,24.584,0,0,0-2.712-2.3Zm-11.16-.12a25.57,25.57,0,0,1,6.024,3.1c.384-.576,1.464-2.136,1.944-2.664a33.844,33.844,0,0,0-6.192-2.928Zm13.464-1.824a21.636,21.636,0,0,1,2.616,2.352,8.7,8.7,0,0,1,1.464-1.344,20.342,20.342,0,0,0-2.592-2.3Zm-15.96,7.392a21.78,21.78,0,0,1,5.664,3.288A18.171,18.171,0,0,1-273.66,99.5a29.7,29.7,0,0,0-5.832-3.264Zm3.12,13.344c.12.216.192.336.36.336.288,0,.36-.336.408-.576,5.976-2.208,13.152-7.608,16.776-13.032a10.769,10.769,0,0,1-2.112-2.736,34.3,34.3,0,0,1-17.16,13.008Zm21.48-12.1v3.408h20.712V100.2Zm45.408-10.152a2.228,2.228,0,0,0-2.232,2.232,2.223,2.223,0,0,0,2.232,2.208A2.223,2.223,0,0,0-209.1,92.28,2.243,2.243,0,0,0-211.332,90.048Zm0,1.1a1.122,1.122,0,0,1,1.1,1.128,1.1,1.1,0,0,1-1.1,1.1,1.1,1.1,0,0,1-1.1-1.1A1.122,1.122,0,0,1-211.332,91.152Zm-19.68,2.784v3h15.1c-2.976,8.712-8.88,11.4-12.192,12.912a12.868,12.868,0,0,1,2.5,2.5c7.7-4.032,10.008-7.632,12.7-13.776a13.381,13.381,0,0,1,1.392-2.808l-2.4-1.992a7.6,7.6,0,0,1-1.656.168Zm37.848,18.024a13.086,13.086,0,0,0,5.4-3.408,10.585,10.585,0,0,0,2.832-7.272c0-5.736-4.584-9.192-9.7-9.192A11.537,11.537,0,0,0-206.1,103.08c0,4.3,3.24,7.32,5.088,7.32,2.472,0,5.928-6.432,6.744-15.384a6.112,6.112,0,0,1,6.12,6.264c0,2.52-1.464,6.744-7.128,7.824A15.426,15.426,0,0,1-193.164,111.96Zm-4.512-16.368a22.738,22.738,0,0,1-1.8,8.328c-.384.96-1.056,2.592-1.752,2.592-.744,0-1.824-1.608-1.824-3.648A8.347,8.347,0,0,1-197.676,95.592ZM-159.948,105l-.912.312a7.4,7.4,0,0,1,.48,1.152c-.264.072-.432.1-1.224.288.144-.384.768-2.232.912-2.64.36-.192.552-.264.552-.5,0-.192-.192-.264-.312-.288l-1.824-.384a29.387,29.387,0,0,1-1.056,4.2l-.1.024v-4.344h2.712V93.288h-4.392c.1-.24.552-1.44.648-1.7.36-.048.576-.144.576-.36,0-.168-.192-.288-.408-.312l-2.784-.312a17.29,17.29,0,0,1-.96,2.688h-2.952v9.528h5.088V109.8c0,2.016,1.272,2.736,2.928,2.736h9.24c2.184,0,3.72-.144,4.536-3.864a5.1,5.1,0,0,1-2.472-1.368c-.264,2.5-.984,2.664-2.016,2.664h-8.4c-1.3,0-1.344-.384-1.344-1.008v-.6l.216.624c.1.24.24.384.36.384s.288-.072.336-.528c.456-.144,1.872-.576,2.4-.744a6.972,6.972,0,0,1,.216.792,13.7,13.7,0,0,1,1.632-.6,23.97,23.97,0,0,0-.888-2.688c.288.264.768.744.912.888a12.743,12.743,0,0,0,1.68-2.448v5.232h2.472V103.44a12.708,12.708,0,0,0,3.24,3.288,8.461,8.461,0,0,1,1.872-1.824,13.718,13.718,0,0,1-4.464-4.32h3.576v-2.3h-4.224v-1.8h3.336V94.2h-3.336V91.584c.192-.12.5-.264.5-.48s-.192-.288-.5-.312l-2.472-.12V94.2h-3.264v2.28h3.264v1.8h-3.672v2.3h3.072a16.691,16.691,0,0,1-3,4.272Zm-6.912-7.968h-1.824V95.448h1.824Zm1.92-1.584h1.872v1.584h-1.872Zm0,3.456h1.872v1.8h-1.872Zm-1.92,1.8h-1.824V98.9h1.824Zm-2.328,2.208a13.076,13.076,0,0,1-3,8.424,7.214,7.214,0,0,1,2.256,1.584c.84-1.032,2.472-3.48,3.144-8.472.336-.1.552-.168.552-.456,0-.12-.12-.24-.408-.336ZM-137.7,90.888c.024,1.008.024,1.368,0,4.512h-7.608v2.9h7.56c-.192,3-.576,5.232-2.376,7.728a13.168,13.168,0,0,1-6.072,4.56,13.746,13.746,0,0,1,2.28,2.3,14.271,14.271,0,0,0,5.472-4.1c3.1-3.672,3.5-7.512,3.744-10.488h6.264a43.18,43.18,0,0,1-.624,9c-.384,1.8-.792,2.208-2.088,2.208a13.979,13.979,0,0,1-2.9-.336,11.2,11.2,0,0,1,1.416,3.5c3.384.12,5.328-.6,6.12-2.544.624-1.536,1.3-5.808,1.3-14.736h-9.336c.024-1.032.072-2.448.072-3.456.336-.144.624-.312.624-.528,0-.312-.408-.336-.552-.336Zm26.112-.312a24.46,24.46,0,0,1-1.368,3.264,14.467,14.467,0,0,1-1.464.048c-1.872,0-3.312-.144-3.864-.192v3c1.944.024,2.664,0,3.84-.048a47.061,47.061,0,0,1-5.28,7.056l2.856,1.68c2.28-3.744,4.056-5.16,5.928-5.16a1.9,1.9,0,0,1,1.968,1.3c-1.464.768-6.408,3.36-6.408,6.7,0,4.1,6.288,4.1,7.632,4.1a32.84,32.84,0,0,0,6.672-.648,13.44,13.44,0,0,1,.384-3.288,27.327,27.327,0,0,1-7.536,1.08c-2.832,0-4.056-.384-4.056-1.464,0-1.032.984-2.088,3.6-3.5a25.021,25.021,0,0,1-.12,3.312c1.1-.072,3.048,0,3.216,0,.024-.6.072-1.32.072-2.376,0-.624-.024-1.464-.1-2.4,1.728-.72,3.552-1.32,5.664-1.968l-1.2-3.264c-1.008.528-3.384,1.608-5.088,2.376a3.985,3.985,0,0,0-3.624-2.208,4.883,4.883,0,0,0-2.28.552c.408-.72.96-1.608,1.248-2.136,2.328-.216,4.728-.624,7.008-1.032l-.024-3.072a23.985,23.985,0,0,1-5.424,1.2c.288-.576.456-.912.72-1.488.312-.024.576-.168.576-.384,0-.288-.312-.336-.48-.384Zm28.9,9.024V91.632c.312-.072.576-.192.576-.408,0-.168-.168-.288-.552-.312l-3.192-.192V99.6h-8.568v2.5h16.656v2.28H-92.94v2.448h15.168v2.4H-94.5v2.616h16.728v1.008h3.192V99.6ZM-93.948,93a24.893,24.893,0,0,1,3.456,6.216c.264-.168.5-.312.912-.528.264-.144,1.584-.816,1.9-.984a24.516,24.516,0,0,0-3.5-6.1Zm16.224-1.128a22.815,22.815,0,0,1-3.336,6.192,25.893,25.893,0,0,1,2.76,1.224,41.449,41.449,0,0,0,3.168-5.568c.168-.048.384-.1.456-.12a.33.33,0,0,0,.264-.312.39.39,0,0,0-.264-.36Zm11.832,1.512a25.57,25.57,0,0,1,6.024,3.1c.384-.576,1.464-2.136,1.944-2.664a33.844,33.844,0,0,0-6.192-2.928Zm-2.5,5.568a21.78,21.78,0,0,1,5.664,3.288A18.17,18.17,0,0,1-60.708,99.5,29.7,29.7,0,0,0-66.54,96.24Zm3.12,13.344c.12.216.192.336.36.336.288,0,.36-.336.408-.576,5.976-2.208,13.152-7.608,16.776-13.032a10.768,10.768,0,0,1-2.112-2.736A34.3,34.3,0,0,1-67,109.3Zm35.448-1.44v.744h2.856V96.96H-40.452v2.664H-29.82v2.9H-40.14v2.664h10.32v3.024H-40.764v2.64ZM-18.348,100.2v3.408H2.364V100.2Zm29.664-7.656v7.032c0,3.312-.648,6.024-5.208,8.928a10.286,10.286,0,0,1,2.712,2.232c3.264-2.544,5.976-5.28,5.976-11.376V93.48c.192-.072.432-.192.432-.456,0-.288-.312-.288-.552-.312Zm5.976-.216v15.288c0,.648-.048,1.248-.1,1.9l2.208,1.44c.624-.528.84-.7,2.832-2.136a35.854,35.854,0,0,0,6.864-6.744A9.005,9.005,0,0,1,27.492,99.1a25.061,25.061,0,0,1-6.864,6.7V93.216c.216-.12.456-.216.456-.456s-.192-.24-.456-.264Zm15.24,7.872v3.408H53.244V100.2Zm37.608.792a30.085,30.085,0,0,1,3.456,4.56c-3.048.552-7.584,1.152-9.792,1.368,1.128-2.328,2.16-4.728,3.1-7.152.36-.912,1.992-5.544,2.376-6.6.312-.048.576-.168.576-.456,0-.168-.168-.264-.432-.336l-3.48-.912a72.472,72.472,0,0,1-5.688,15.768c-.384.048-2.184.192-2.592.216l.768,3.12c.048.192.168.432.336.432.192,0,.288-.1.384-.432,6.168-.744,6.384-.768,15.936-2.424.24.5.7,1.44,1.248,2.9.672-.6,2.592-2.04,2.736-2.136a38.716,38.716,0,0,0-6.1-9.576ZM85.5,91.368a48.392,48.392,0,0,0-1.512,11.28A24.67,24.67,0,0,0,85.6,111.96l2.88-.816c-.12-2.352,1.32-5.4,1.632-6.024a5.8,5.8,0,0,1-1.632-1.7c-.384.672-1.1,2.3-1.176,2.5a13.34,13.34,0,0,1-.216-2.64,30.455,30.455,0,0,1,1.584-9.96c.36-.048.6-.1.6-.336,0-.216-.192-.264-.552-.408Zm6.912,5.616c.72.048,1.584.1,2.9.1a37.805,37.805,0,0,0,7.536-.7,25.6,25.6,0,0,1-.312-3.12,29.1,29.1,0,0,1-7.272.768c-1.344,0-2.184-.072-2.856-.12Zm-.072,6.288a8.461,8.461,0,0,0-.864,3.576c0,2.376,2.016,3.456,6.816,3.456a47.51,47.51,0,0,0,5.568-.336,13.189,13.189,0,0,1,.288-3.336,24.764,24.764,0,0,1-6.048.648c-2.592,0-3.7-.24-3.7-1.44a5.76,5.76,0,0,1,.6-2.064Zm36.84-11.88c-7.08,1.872-17.088,2.28-18.72,2.28a14.2,14.2,0,0,1-1.56-.072l.456,3.864A103.814,103.814,0,0,1,120.3,95.952c-3.216,2.472-5.04,5.232-5.04,8.448,0,5.448,5.112,7.536,8.76,8.352a17.667,17.667,0,0,1,1.512-3.624c-5.088-.384-7.056-2.208-7.056-5.016,0-4.392,5.328-9.312,11.328-9.288Zm10.68-.6c.024,1.2.072,3.5.072,4.608-.36.024-1.8.12-2.856.12a10.92,10.92,0,0,1-1.848-.12l.024,3.24c1.3,0,3.168-.024,4.68-.144,0,1.176,0,2.352.024,3.528-.984.576-5.352,3.888-6.456,4.488l1.44,3.48c.48-.552.744-.84,1.248-1.344a32.285,32.285,0,0,1,4.464,3.7l2.736-1.248c-.192-1.992-.216-2.544-.312-7.536a10.41,10.41,0,0,1,4.1-1.056,3.338,3.338,0,0,1,3.576,3.432c0,1.416-.744,2.568-1.944,2.568-1.464,0-1.44-1.32-1.44-1.968-.576.216-2.136.72-2.592.864.024.864.12,4.152,3.744,4.152a5.327,5.327,0,0,0,5.4-5.736c0-4.2-3.288-6.168-6.552-6.168a11.855,11.855,0,0,0-4.3.864c.024-.36.048-2.016.048-2.4a25.168,25.168,0,0,0,4.248-1.1,23.287,23.287,0,0,1-.024-3.288,16.547,16.547,0,0,1-4.1,1.248c.024-.48.048-1.224.192-2.88.168-.048.432-.12.432-.36,0-.264-.192-.288-.5-.336Zm.12,14.568V107.5c0,.24-.024.528-.192.528a9.566,9.566,0,0,1-1.752-1.152A17.8,17.8,0,0,1,139.98,105.36Zm8.928-8.544A14.218,14.218,0,0,1,154,100.608a15.456,15.456,0,0,1,2.016-2.472,20.547,20.547,0,0,0-5.232-3.864Zm28.3,5.688v-1.248h3.36V99.048H177.3c.24-.48.48-.96.816-1.8a2,2,0,0,0,.288-.1v.12h2.424V92.76h-5.544c.264-.864.288-.96.36-1.224.144-.072.384-.168.384-.36,0-.216-.288-.312-.528-.336l-2.568-.336a16.563,16.563,0,0,1-.336,2.256h-4.488v4.512h2.52V95.016h1.344a14.644,14.644,0,0,1-4.224,6.576V99.36H163.86a29.319,29.319,0,0,0,1.176-4.7h2.52V92.088H159.18v2.568h3.072c-.36,2.3-1.128,6.192-4.056,9.192a6.2,6.2,0,0,1,1.92,2.208,7.413,7.413,0,0,0,.864-.936v7.392h2.76V109.56H165.2v1.176h2.544V102.5a15.251,15.251,0,0,1,1.056,1.728,14.732,14.732,0,0,0,1.08-1.032v9.648h2.568v-.864h8.616v-2.328H177.2v-1.392h2.856v-2.256H177.2v-1.3h2.856V102.5Zm-4.752,0v-1.248h2.184V102.5Zm2.184,2.208v1.3h-2.184v-1.3Zm1.128-8.736a15.822,15.822,0,0,1-1.224,3.072h-1.656a20.839,20.839,0,0,0,1.752-4.032H178.4V96.7a2.016,2.016,0,0,0-.288-.1Zm-1.128,13.68h-2.184v-1.392h2.184ZM165.2,101.88v5.088H163.74V101.88Zm27.1-10.968a35.3,35.3,0,0,1-.768,5.328c-.888.144-5.256,1.08-6.24,1.272l1.128,3.288a28.648,28.648,0,0,1,4.3-1.32,28.576,28.576,0,0,1-5.952,10.752,14.829,14.829,0,0,1,3.024,1.608,37.583,37.583,0,0,0,6.24-12.936c.288-.024.744-.072,1.032-.072.96,0,2.328.24,2.328,2.9,0,2.928-.864,5.52-1.584,6.336a1.985,1.985,0,0,1-1.728.72,4.53,4.53,0,0,1-2.232-.528,16.482,16.482,0,0,1,.312,2.76,6.1,6.1,0,0,1-.048.744,12.677,12.677,0,0,0,2.448.288,4.1,4.1,0,0,0,3.576-1.68,16.161,16.161,0,0,0,2.352-8.64c0-6.1-3.936-5.928-5.664-5.856.12-.48.312-1.224.72-3.12.5-.048.648-.24.648-.408,0-.216-.24-.288-.48-.36Zm7.56,4.128c3.192,3.552,3.5,6.144,3.5,6.408,0,.912-1.1,1.152-1.992,1.32A15.636,15.636,0,0,1,202.6,105.5a8.661,8.661,0,0,0,2.4-.744,2.443,2.443,0,0,0,1.7-2.52c0-1.9-1.68-5.856-4.344-8.784Zm12.408-1.584a51.54,51.54,0,0,0,1.488,5.328,11.2,11.2,0,0,0-3.456,7.728c0,2.5,1.392,4.008,3.432,4.008,1.632,0,2.9-.816,4.512-2.28.384.624.456.72.792,1.224a18.236,18.236,0,0,1,2.616-2.352c-.336-.408-.624-.744-1.176-1.464a23.355,23.355,0,0,0,3.336-7.632c1.056.192,4.488.792,4.488,5.04,0,3.144-1.848,5.448-7.824,6.48a10.372,10.372,0,0,1,1.752,2.712c3.12-.528,9.24-2.592,9.24-9.192a7.644,7.644,0,0,0-7.008-7.9l.576-2.76c.12,0,.5.024.5-.312,0-.216-.264-.312-.456-.36l-3.48-.816a25.045,25.045,0,0,1-.408,4.224,12,12,0,0,0-4.9,1.632,24.452,24.452,0,0,1-.72-4.32Zm8.352,4.608a16.569,16.569,0,0,1-1.92,4.776,29.209,29.209,0,0,1-1.512-3.288A8.8,8.8,0,0,1,220.62,98.064Zm-3.936,7.536c-.336.36-1.56,1.752-2.568,1.752-.936,0-.936-1.008-.936-1.272a7.693,7.693,0,0,1,1.68-4.368A37.378,37.378,0,0,0,216.684,105.6Zm30.408-10.872H257.46V91.8H235.476v2.928h8.4v18h3.216v-12.24a23.682,23.682,0,0,1,5.856,5.256,19.354,19.354,0,0,1,2.376-2.568,40.742,40.742,0,0,0-8.232-6.384ZM268.716,91.7c.48,1.176,1.176,2.9,1.776,4.2a34.447,34.447,0,0,1-8.4,1.152l1.032,3.168a43.264,43.264,0,0,0,8.664-1.56,28.886,28.886,0,0,0,2.208,3.6,12.179,12.179,0,0,0-3.192-.408c-4.488,0-7.128,2.52-7.128,5.184,0,3,3.192,5.4,9.1,5.4a22.148,22.148,0,0,0,6.264-.84,11.78,11.78,0,0,1-.672-3.24,13.783,13.783,0,0,1-5.736,1.176c-2.952,0-5.568-.552-5.568-2.568,0-2.52,3.792-2.52,4.416-2.52a12.962,12.962,0,0,1,6.744,1.872l2.088-1.848a26.888,26.888,0,0,1-5.544-6.84,33.428,33.428,0,0,0,6.288-3.144c-.48-.552-1.176-1.32-2.064-2.448a19.8,19.8,0,0,1-5.52,2.88,15.7,15.7,0,0,1-1.224-3.96Zm19.44.6a41.665,41.665,0,0,0-1.128,8.688c0,7.224,3.336,10.344,4.92,10.344,1.3,0,3.264-1.8,5.04-6.168a9.474,9.474,0,0,1-2.16-2.136c-.576,1.344-1.68,4.008-2.568,4.008-.864,0-2.064-2.424-2.064-5.808a21.2,21.2,0,0,1,1.272-7.224c.168-.024.5-.072.5-.36,0-.216-.12-.264-.5-.384Zm12.576,2.952a21.38,21.38,0,0,1,4.128,11.976,28.167,28.167,0,0,1,3.336-1.488,23.748,23.748,0,0,0-4.8-12.168Zm14.856,10.488a3.276,3.276,0,1,0,3.264,3.288A3.273,3.273,0,0,0,315.588,105.744Zm0,1.368a1.92,1.92,0,1,1-1.92,1.92A1.921,1.921,0,0,1,315.588,107.112Z" transform="translate(800.224 2497)" fill="#184837"/>
    <g id="title" transform="translate(-60.141 -19.174)">
      <path id="パス_71" data-name="パス 71" d="M-191.464-23.52v5.88H-176.4v-5.88ZM-160.44-17.3v-6.832h-13.216V-17.3h3.08V-5.432c-2.408.5-3.192.672-4.48.952l2.016,7.224c.112.448.448,1.232,1.12,1.232.616,0,.728-.728.952-1.96,3.584-1.232,9.352-2.912,12.936-4.088a20.543,20.543,0,0,1-.28-3.584,16.717,16.717,0,0,1,.28-3.472c-1.792.672-3.136,1.176-5.264,1.792V-17.3ZM-181.72,1.4V3.528h6.608V-15.9h-17.416V4.536h6.944V1.4Zm-3.864-6.552V-9.3h3.864v4.144Zm-8.288-33.1v5.824h18.76v-5.824Zm2.408-7.392v5.88H-176.4v-5.88Zm0,14.84v5.656H-176.4V-30.8Zm38.528-5.824c0-1.176,0-3.136.28-7.9,1.288-.784,1.568-.9,1.568-1.344,0-.616-.616-.616-1.232-.672l-8.12-.5c-.112,1.736-.168,3.3-.168,5.712,0,2.3.056,3.864.112,4.7h-13.328v6.72h13.72c2.128,26.6,9.408,33.712,12.488,33.712,4.872,0,6.048-9.128,6.44-11.928a19.637,19.637,0,0,1-6.1-4.816c-.112.616-.616,3.808-1.12,3.808-.392,0-1.4-3.192-1.624-3.864-1.344-4.2-2.3-9.24-2.744-16.912h9.968v-6.72h-4.928c1.512-1.064,3.92-2.464,4.928-3.024a35.279,35.279,0,0,0-4.48-6.608l-5.432,3.3a42.794,42.794,0,0,1,4.2,6.328ZM-108.08-6.608A61.124,61.124,0,0,0-91.336,4.872,15.568,15.568,0,0,1-85.848-.84C-88.648-1.96-96.1-5.152-101.92-10.3h12.544v-6.832h-7v-3.192h9.968v-6.44h-9.968V-29.9h7.336v-6.664h-19.04v-2.24a99.153,99.153,0,0,0,12.264-2.52,5.7,5.7,0,0,0,1.568.448c.392,0,.728-.168.728-.616a1.183,1.183,0,0,0-.224-.56l-4.7-6.048c-1.288.5-10.192,3.584-26.6,3.584-3.024,0-5.32-.056-6.776-.112a15.644,15.644,0,0,1,2.52,6.608c5.936.056,10.36-.056,13.328-.224v1.68H-134.9V-29.9h6.776v3.136h-9.408v6.44h9.408v3.192H-134.9V-10.3h12.264A51.133,51.133,0,0,1-137.984-.728a14.78,14.78,0,0,1,5.936,5.88A78.073,78.073,0,0,0-115.976-6.216V4.368h7.9Zm3.92-20.16h-3.92V-29.9h3.92Zm-11.816,0h-4.032V-29.9h4.032Zm11.816,9.632h-3.92v-3.192h3.92Zm-11.816,0h-4.032v-3.192h4.032Zm64.064-26.152V-45.08c.672-.336,1.176-.784,1.176-1.12a.915.915,0,0,0-1.008-.9l-8.568-.392v4.2H-79.464v6.664h19.152v2.184H-75.824v21.672h15.512V-10.3H-81.648v6.888h21.336V4.368h8.4V-3.416H-30.3V-10.3H-51.912v-2.464H-36.4V-34.44H-51.912v-2.184H-33.04v-6.664Zm0,17.248V-28.5H-44.8v2.464Zm7.112,4.872V-18.7h-7.112v-2.464Zm-15.512,0V-18.7h-7.056v-2.464Zm-7.056-4.872V-28.5h7.056v2.464ZM6.552,2.52C11.312.448,15.288-1.624,18.7-5.6c6.384-7.56,6.608-14.728,6.608-17.3,0-13.384-10.7-21.728-22.96-21.728-16.464,0-27.44,14.056-27.44,26.1,0,10.36,8.12,17.752,12.488,17.752,5.936,0,14.392-15.288,16.128-35.784,10.528.84,12.936,9.184,12.936,13.72,0,5.824-3.584,15.232-15.736,17.472A36.312,36.312,0,0,1,6.552,2.52ZM-5.88-34.888a48.977,48.977,0,0,1-4.312,19.264c-.616,1.456-1.68,3.976-3.024,3.976-1.176,0-3.584-3.248-3.584-7.56C-16.8-24.248-12.376-32.48-5.88-34.888Zm73.528-9.128a108.9,108.9,0,0,1-15.624,1.288,112.756,112.756,0,0,1-13.944-.728l.448,9.352c4.76.112,14.168-.392,17.64-.672-1.624,1.344-2.128,1.736-4.2,3.64,1.736,1.288,3.864,3.08,5.88,4.816,3.08-3.584,8.9-7.056,14.112-9.128ZM42.168-22.344c-2.3,2.072-8.12,7.28-8.12,13.1,0,5.656,5.32,8.288,7.112,9.016C43.9.9,47.376,1.848,56.112,1.848a85.136,85.136,0,0,0,21.9-2.576,42.441,42.441,0,0,1-1.456-9.52A78.188,78.188,0,0,1,54.1-6.888c-2.352,0-10.024,0-10.024-4.032,0-1.848,2.8-4.76,4.368-6.1ZM75.544-45.136a47.132,47.132,0,0,1,4.872,5.488A22.362,22.362,0,0,1,84-43.456a59.944,59.944,0,0,0-5.264-5.488Zm-4.7,4.648a61.908,61.908,0,0,1,5.376,6.216,22.684,22.684,0,0,1,3.3-4.032,40.048,40.048,0,0,0-5.1-5.88ZM137.816-7.952v-5.936h-8.624a27.9,27.9,0,0,1,4.424-6.16,62.679,62.679,0,0,0-10.752-4.088,32.953,32.953,0,0,0,2.968-2.8c.392-.056,1.512-.224,1.512-.784a.525.525,0,0,0-.336-.448h10.808v-5.768H111.552c.784-1.12,1.064-1.4,2.128-2.8,1.12-.112,2.072-.224,1.792-1.176H128.24v2.3h8.12v-8.12H116.536v-1.512c.392-.168,1.176-.56,1.176-1.176,0-.672-.728-.672-1.176-.672l-9.016-.28v3.64H87.752v8.4h7.616v-2.576h9.856a40.567,40.567,0,0,1-2.744,3.976h-15.9v5.768H97.328c-1.232,1.176-2.016,1.848-3.248,2.856a19.268,19.268,0,0,1,6.384,3.36c.672-.56.9-.728,1.232-1.008.9.112,1.68.224,3.7.616a39.387,39.387,0,0,1-10.3,1.232c-2.464,0-4.144-.112-5.544-.224a15.424,15.424,0,0,1,2.856,6.5,63.583,63.583,0,0,0,15.624-2.016v2.968H86.576v5.936h14.168a41.532,41.532,0,0,1-14.616,6.72c1.008.616,2.352,1.512,5.04,6.1A52.9,52.9,0,0,0,108.024-5.264v9.8h7.952V-4.872a56.207,56.207,0,0,0,16.408,9.744c2.688-4.592,4.032-5.488,5.04-6.1a43.713,43.713,0,0,1-14.616-6.72ZM116.984-28.168a20.418,20.418,0,0,1-3.64,2.576,74.2,74.2,0,0,0-7.952-1.008l1.456-1.568Zm12.152,14.28h-13.16v-.56c.784-.448,1.4-1.008,1.4-1.4,0-.56-.56-.672-1.064-.672l-8.176-.336a42.149,42.149,0,0,0,8.064-2.856A50.715,50.715,0,0,1,129.136-13.888ZM172.256-38.7v-6.328c.784-.224,1.512-.56,1.512-1.12,0-.448-.392-.784-1.064-.784l-9.072-.336V-38.7H143.864V4.312h8.512V-10.976a15.671,15.671,0,0,1,3.64,5.264,38.447,38.447,0,0,0,12.1-12.6c3.248,6.5,7.784,9.968,11.2,11.536a23.457,23.457,0,0,1,4.2-5.264v5.88c0,1.736-.728,2.072-1.456,2.072a37.458,37.458,0,0,1-5.152-.728,21.006,21.006,0,0,1,2.968,8.96c1.344.056,3.248.224,4.648.224,7.5,0,7.5-3.584,7.5-6.272V-38.7Zm11.256,7.952v16.408a25.1,25.1,0,0,1-8.176-7.224,16.553,16.553,0,0,1-3.08-9.184Zm-31.136,0h11.032c-.392,3.192-1.344,11.2-11.032,17.08Z" transform="translate(855.013 2463.03)" fill="#184837"/>
      <g id="badge" transform="translate(87.013 211.174)">
        <g id="bg" transform="translate(622 2138)" fill="#184837" stroke="#184837" stroke-width="1">
          <rect width="280.544" height="46.88" stroke="none"/>
          <rect x="0.5" y="0.5" width="279.544" height="45.88" fill="none"/>
        </g>
        <path id="パス_70" data-name="パス 70" d="M-67.008-17.448a26.784,26.784,0,0,1,5.832,3.024,26.829,26.829,0,0,1,2.232-3.168,27.724,27.724,0,0,0-6-2.784Zm10.992.072A29.032,29.032,0,0,1-53.3-14.928c.6-.576,1.56-1.536,1.824-1.752-.576-.552-2.016-1.752-2.76-2.3ZM-69.456-11.9A25.343,25.343,0,0,1-63.984-8.64c1.368-1.944,1.632-2.328,2.328-3.192a34.824,34.824,0,0,0-5.616-3.288Zm15.84-7.368A20.926,20.926,0,0,1-51-16.944a12.235,12.235,0,0,1,1.632-1.488,20.371,20.371,0,0,0-2.568-2.328ZM-65.952,1.32c.1.144.24.336.384.336.264,0,.336-.312.384-.576a42.843,42.843,0,0,0,9.792-5.928,33.753,33.753,0,0,0,6.5-6.96,7.2,7.2,0,0,1-2.472-3.144A33.779,33.779,0,0,1-68.016-2.16Zm19.536-12.456v4.08H-25.56v-4.08Zm24.5-6v3.456h13.92a18.457,18.457,0,0,1-3.864,7.3,20.87,20.87,0,0,1-7.584,4.8A10.5,10.5,0,0,1-16.7,1.584,27.347,27.347,0,0,0-10.176-2.64c2.688-2.352,4.128-5.088,6-9.912A13.674,13.674,0,0,1-2.64-15.744l-2.448-1.728a1.438,1.438,0,0,1-1.152.336ZM-2.4-21.024a2.238,2.238,0,0,0-2.256,2.256A2.253,2.253,0,0,0-2.4-16.512,2.253,2.253,0,0,0-.144-18.768,2.253,2.253,0,0,0-2.4-21.024Zm0,1.2a1.05,1.05,0,0,1,1.056,1.056A1.065,1.065,0,0,1-2.4-17.712a1.05,1.05,0,0,1-1.056-1.056A1.05,1.05,0,0,1-2.4-19.824Zm9.1.5C6.816-11.112,6.912-6.1.24-.816a9.161,9.161,0,0,1,3.5,2.352A19.144,19.144,0,0,0,8.232-4.536c1.968-4.08,2.208-7.824,2.28-13.68.288-.048.624-.1.624-.408,0-.192-.168-.288-.408-.312Zm5.4-.744v3.816h1.632A25.28,25.28,0,0,0,15.192-6.6c.552,1.392,2.544,5.712,5.4,8.112a11.2,11.2,0,0,1,3.24-2.688A18.777,18.777,0,0,1,18.408-8.76C17.4-11.568,17.4-13.176,17.4-20.064ZM37.92-16.32h7.632v-3.216h-19.1v3.216H34.1v5.064H27.768v3.384H34.1v5.856H25.128V1.272H46.92V-2.016h-9V-7.872h6.312v-3.384H37.92Zm24.1,5.064v-.336A26.214,26.214,0,0,0,68.76-17.76l-1.728-1.776H51.312v3.192H62.16a9.243,9.243,0,0,1-1.968,1.728l-1.848-.192v3.552H48.912v3.264h9.432v4.728c0,1.368,0,1.56-1.632,1.56-.456,0-.912-.048-1.68-.1a7.416,7.416,0,0,1,1.152,3.648c5.688.144,5.832-1.68,5.832-3.216V-7.992h9.072v-3.264Z" transform="translate(761.456 2171)" fill="#f8f2e9"/>
      </g>
    </g>
  </g>
</svg>
