<svg xmlns="http://www.w3.org/2000/svg" width="558" height="52" viewBox="0 0 558 52">
  <g id="intro" transform="translate(-521 -1160)">
    <path id="bg" d="M3,0H558V49a3,3,0,0,1-3,3H3a3,3,0,0,1-3-3V3A3,3,0,0,1,3,0Z" transform="translate(521 1160)" fill="#f2f2f2"/>
    <g id="text" transform="translate(-162.318 -117.082)">
      <g id="日程" transform="translate(300.356 -536.628)">
        <g id="グループ_360" data-name="グループ 360" transform="translate(4.143)">
          <path id="パス_30925" data-name="パス 30925" d="M4.275-5.3V-.513c0,.627-.266.893-.874.893H.7v.8H4.218c1.216,0,1.748-.494,1.729-1.615v-14.82H-5.51v2.242c0,5.852-.114,7.6-.551,9.443A9.517,9.517,0,0,1-8.74,1.064l.361.456A8.28,8.28,0,0,0-4.1-5.3Zm0-.76h-8.3c.114-1.368.133-1.995.152-3.268v-.684H4.275Zm0-4.712H-3.857l.019-2.242V-14.5H4.275Z" transform="translate(831.406 1848.777)" fill="#363636"/>
          <g id="パス_30924" data-name="パス 30924" transform="translate(817.406 1827.777)" fill="none">
            <path d="M14,0A14,14,0,1,1,0,14,14,14,0,0,1,14,0Z" stroke="none"/>
            <path d="M 14 1 C 10.5275707244873 1 7.262990951538086 2.352239608764648 4.807609558105469 4.807609558105469 C 2.352239608764648 7.262990951538086 1 10.5275707244873 1 14 C 1 17.47241973876953 2.352239608764648 20.73701095581055 4.807609558105469 23.19239044189453 C 7.262990951538086 25.64776039123535 10.5275707244873 27 14 27 C 17.47241973876953 27 20.73701095581055 25.64776039123535 23.19239044189453 23.19239044189453 C 25.64776039123535 20.73701095581055 27 17.47241973876953 27 14 C 27 10.5275707244873 25.64776039123535 7.262990951538086 23.19239044189453 4.807609558105469 C 20.73701095581055 2.352239608764648 17.47241973876953 1 14 1 M 14 0 C 21.73197937011719 0 28 6.268009185791016 28 14 C 28 21.73197937011719 21.73197937011719 28 14 28 C 6.268009185791016 28 0 21.73197937011719 0 14 C 0 6.268009185791016 6.268009185791016 0 14 0 Z" stroke="none" fill="#363636"/>
          </g>
        </g>
        <path id="パス_30923" data-name="パス 30923" d="M-30.55-19.364a9.843,9.843,0,0,1,4.582,1.1,8.484,8.484,0,0,1,3.431,3.267A9.8,9.8,0,0,1-21.244-9.87a10.757,10.757,0,0,1-1.339,5.381A9.586,9.586,0,0,1-26.226-.8,10.051,10.051,0,0,1-31.3.517,9.025,9.025,0,0,1-36.9-1.293a11.415,11.415,0,0,1-3.689-5.146,21.54,21.54,0,0,1-1.292-7.8,22.865,22.865,0,0,1,1.6-8.859A14.2,14.2,0,0,1-36.026-29a9.181,9.181,0,0,1,5.757-2.068,8.674,8.674,0,0,1,4.395,1.175,10.579,10.579,0,0,1,3.5,3.337l-1.41,1.175a9.929,9.929,0,0,0-2.844-2.82,6.315,6.315,0,0,0-3.455-1.034q-3.525,0-5.476,3.689a22.839,22.839,0,0,0-2.186,9.753A9.5,9.5,0,0,1-34.8-18.33,8.428,8.428,0,0,1-30.55-19.364ZM-30.5-.987a4.259,4.259,0,0,0,3.924-2.186,11.127,11.127,0,0,0,1.292-5.71q0-4.371-1.786-6.557a5.494,5.494,0,0,0-4.418-2.186,5.442,5.442,0,0,0-3.972,1.6,8.042,8.042,0,0,0-2.185,3.807q.329,5.452,2.256,8.342A5.714,5.714,0,0,0-30.5-.987Zm17.484,1.5a2.72,2.72,0,0,1-2-.823,2.72,2.72,0,0,1-.823-2,2.72,2.72,0,0,1,.823-2,2.72,2.72,0,0,1,2-.822,2.72,2.72,0,0,1,2,.822,2.72,2.72,0,0,1,.823,2,2.72,2.72,0,0,1-.823,2A2.72,2.72,0,0,1-13.019.517ZM8.319-16.45q6.58,2.115,6.58,7.8a8.075,8.075,0,0,1-1.528,4.935A9.764,9.764,0,0,1,9.424-.564,12.258,12.258,0,0,1,4.371.517,10.165,10.165,0,0,1-1.057-.94,10.733,10.733,0,0,1-4.794-4.747l1.5-.94a7.549,7.549,0,0,0,3.2,3.149A8.894,8.894,0,0,0,3.995-1.5a7.3,7.3,0,0,0,3.267-.752,6.054,6.054,0,0,0,2.491-2.3,6.989,6.989,0,0,0,.963-3.76,6.671,6.671,0,0,0-1.9-5.005,6.5,6.5,0,0,0-4.723-1.857H2.914v-1.457a7.965,7.965,0,0,0,3.243-.7,6.126,6.126,0,0,0,2.632-2.233,6.684,6.684,0,0,0,1.034-3.83,6.984,6.984,0,0,0-1.316-4.3A4.46,4.46,0,0,0,4.7-29.469,4.484,4.484,0,0,0,.681-27.425a10.31,10.31,0,0,0-1.527,5.1H-3.384v-5.64A9.3,9.3,0,0,1,.094-30.221,12.526,12.526,0,0,1,4.7-31.067a11.38,11.38,0,0,1,4.559.893,7.914,7.914,0,0,1,3.314,2.585,6.554,6.554,0,0,1,1.245,4Q13.818-18.847,8.319-16.45ZM31.631.517a8.719,8.719,0,0,1-5.64-1.974,12.616,12.616,0,0,1-3.784-5.569,23.537,23.537,0,0,1-1.34-8.248,23.34,23.34,0,0,1,1.34-8.225,12.534,12.534,0,0,1,3.807-5.546,8.812,8.812,0,0,1,5.663-1.974,8.879,8.879,0,0,1,5.664,1.951,12.366,12.366,0,0,1,3.807,5.523,23.34,23.34,0,0,1,1.34,8.225,23.17,23.17,0,0,1-1.363,8.249A12.86,12.86,0,0,1,37.294-1.48,8.747,8.747,0,0,1,31.631.517Zm.047-1.5q3.2,0,4.888-3.666t1.692-10.622q0-6.909-1.692-10.575t-4.888-3.666q-3.2,0-4.888,3.666T25.1-15.275q0,6.956,1.692,10.622T31.678-.987Z" transform="translate(773.061 1854.777)" fill="#363636"/>
        <path id="パス_30922" data-name="パス 30922" d="M-7.562-5.51A3.857,3.857,0,0,1-4.218-7.828,5.989,5.989,0,0,1-1.8-7.106l3.61,1.6a5.769,5.769,0,0,0,2.242.494c1.634,0,3.154-1.273,4.161-3.5l-.646-.38c-1.007,1.539-1.957,2.223-3.1,2.223A4.308,4.308,0,0,1,2.7-7.144l-4.18-1.8a5.865,5.865,0,0,0-2.242-.475A4.09,4.09,0,0,0-6.973-7.809,9.342,9.342,0,0,0-8.208-5.89Z" transform="translate(714.976 1849.777)" fill="#363636"/>
        <g id="グループ_359" data-name="グループ 359" transform="translate(-3.638)">
          <path id="パス_30921" data-name="パス 30921" d="M4.275-5.3V-.513c0,.627-.266.893-.874.893H.7v.8H4.218c1.216,0,1.748-.494,1.729-1.615v-14.82H-5.51v2.242c0,5.852-.114,7.6-.551,9.443A9.517,9.517,0,0,1-8.74,1.064l.361.456A8.28,8.28,0,0,0-4.1-5.3Zm0-.76h-8.3c.114-1.368.133-1.995.152-3.268v-.684H4.275Zm0-4.712H-3.857l.019-2.242V-14.5H4.275Z" transform="translate(688.406 1848.777)" fill="#363636"/>
          <g id="パス_30920" data-name="パス 30920" transform="translate(674.406 1827.777)" fill="none">
            <path d="M14,0A14,14,0,1,1,0,14,14,14,0,0,1,14,0Z" stroke="none"/>
            <path d="M 14 1 C 10.5275707244873 1 7.262990951538086 2.352239608764648 4.807609558105469 4.807609558105469 C 2.352239608764648 7.262990951538086 1 10.5275707244873 1 14 C 1 17.47241973876953 2.352239608764648 20.73701095581055 4.807609558105469 23.19239044189453 C 7.262990951538086 25.64776039123535 10.5275707244873 27 14 27 C 17.47241973876953 27 20.73701095581055 25.64776039123535 23.19239044189453 23.19239044189453 C 25.64776039123535 20.73701095581055 27 17.47241973876953 27 14 C 27 10.5275707244873 25.64776039123535 7.262990951538086 23.19239044189453 4.807609558105469 C 20.73701095581055 2.352239608764648 17.47241973876953 1 14 1 M 14 0 C 21.73197937011719 0 28 6.268009185791016 28 14 C 28 21.73197937011719 21.73197937011719 28 14 28 C 6.268009185791016 28 0 21.73197937011719 0 14 C 0 6.268009185791016 6.268009185791016 0 14 0 Z" stroke="none" fill="#363636"/>
          </g>
        </g>
        <path id="パス_30919" data-name="パス 30919" d="M-28.98-18.952a9.633,9.633,0,0,1,4.485,1.081,8.3,8.3,0,0,1,3.358,3.2A9.59,9.59,0,0,1-19.872-9.66a10.528,10.528,0,0,1-1.311,5.267A9.382,9.382,0,0,1-24.748-.782,9.837,9.837,0,0,1-29.716.506,8.833,8.833,0,0,1-35.19-1.265,11.172,11.172,0,0,1-38.8-6.3a21.082,21.082,0,0,1-1.265-7.636A22.378,22.378,0,0,1-38.5-22.609a13.893,13.893,0,0,1,4.163-5.773A8.985,8.985,0,0,1-28.7-30.406a8.489,8.489,0,0,1,4.3,1.15,10.354,10.354,0,0,1,3.427,3.266l-1.38,1.15a9.718,9.718,0,0,0-2.783-2.76,6.181,6.181,0,0,0-3.381-1.012q-3.45,0-5.359,3.611a22.353,22.353,0,0,0-2.139,9.545,9.3,9.3,0,0,1,2.875-2.484A8.248,8.248,0,0,1-28.98-18.952Zm.046,17.986a4.168,4.168,0,0,0,3.841-2.139,10.89,10.89,0,0,0,1.265-5.589q0-4.278-1.748-6.417A5.377,5.377,0,0,0-29.9-17.25a5.326,5.326,0,0,0-3.887,1.564,7.87,7.87,0,0,0-2.139,3.726Q-35.6-6.624-33.718-3.8A5.592,5.592,0,0,0-28.934-.966ZM-11.822.506a2.662,2.662,0,0,1-1.955-.8,2.662,2.662,0,0,1-.805-1.955,2.662,2.662,0,0,1,.805-1.955,2.662,2.662,0,0,1,1.955-.8,2.662,2.662,0,0,1,1.955.8,2.662,2.662,0,0,1,.805,1.955A2.662,2.662,0,0,1-9.867-.3,2.662,2.662,0,0,1-11.822.506ZM11.454-1.656V0H-1.426V-1.656H3.312V-26.174L-1.242-23.23-2.208-24.7l7.59-5.106H6.946V-1.656Zm19.734-17.3a9.633,9.633,0,0,1,4.485,1.081,8.3,8.3,0,0,1,3.358,3.2A9.59,9.59,0,0,1,40.3-9.66a10.528,10.528,0,0,1-1.311,5.267A9.382,9.382,0,0,1,35.42-.782,9.837,9.837,0,0,1,30.452.506a8.833,8.833,0,0,1-5.474-1.771A11.172,11.172,0,0,1,21.367-6.3,21.082,21.082,0,0,1,20.1-13.938a22.378,22.378,0,0,1,1.564-8.671,13.893,13.893,0,0,1,4.163-5.773,8.985,8.985,0,0,1,5.635-2.024,8.489,8.489,0,0,1,4.3,1.15,10.354,10.354,0,0,1,3.427,3.266l-1.38,1.15a9.718,9.718,0,0,0-2.783-2.76,6.181,6.181,0,0,0-3.381-1.012q-3.45,0-5.359,3.611a22.353,22.353,0,0,0-2.139,9.545,9.3,9.3,0,0,1,2.875-2.484A8.248,8.248,0,0,1,31.188-18.952ZM31.234-.966a4.168,4.168,0,0,0,3.841-2.139A10.89,10.89,0,0,0,36.34-8.694q0-4.278-1.748-6.417a5.377,5.377,0,0,0-4.324-2.139,5.326,5.326,0,0,0-3.887,1.564,7.87,7.87,0,0,0-2.139,3.726Q24.564-6.624,26.45-3.8A5.592,5.592,0,0,0,31.234-.966Z" transform="translate(624.472 1854.777)" fill="#363636"/>
      </g>
      <path id="パス_30918" data-name="パス 30918" d="M-49.806.162c3.294-.738,5.112-1.566,7-3.2,2.5-2.232,4.032-5.544,4.518-9.792H-50.652L-51.444-13v1.152l.792-.162h10.4C-41.184-6.084-44.37-2.3-50-.45ZM-27.864-.72H-32.22l-.792-.162V.27l.792-.162h10.44l.792.162V-.882l-.792.162h-4.446V-7.884h3.2l.792.162V-8.874l-.792.162h-7.956l-.792-.162v1.152l.792-.162h3.114Zm19.512-8.8c.252-.2.342-.324.342-.468a.336.336,0,0,0-.342-.288l-1.818-.144.144,1.044v.99c-.054,3.06-.558,4.662-1.908,5.976A11.6,11.6,0,0,1-15.84.018l.162.486A10.86,10.86,0,0,0-11-1.566,6.365,6.365,0,0,0-8.532-5.994,9.471,9.471,0,0,0-1.26-13.356H-15.372l-.792-.162v1.152l.792-.162H-3.348a9.259,9.259,0,0,1-5.094,5.85c.054-.612.09-1.188.09-1.782Zm23.6,4.716v4.59c0,.558-.234.792-.774.792H13v.756h2.088c1.1,0,1.566-.432,1.548-1.458V-14.418h-5.8v3.024c0,5.31-.2,8.172-.648,9.414A6.7,6.7,0,0,1,8.1,1.062l.324.378c2.286-1.206,3.348-3.1,3.564-6.246Zm0-.72h-3.2V-5.58l.072-1.314c0-.108,0-.576.018-1.242,0-.144,0-.738.018-1.224h3.1Zm0-4.554H12.168l.018-1.314v-2.3h3.06ZM4-12.582v-1.836c.234-.162.288-.234.288-.36,0-.162-.126-.234-.378-.234H2.646v2.43H1.872l-.72-.144v1.008l.72-.144h.774V-4.14H1.53L.81-4.284v1.008l.72-.144H9.36l.72.144V-4.284l-.72.144H8.586v-7.722h.792l.72.144v-1.008l-.72.144H8.586v-1.836c.234-.162.288-.234.288-.342,0-.18-.126-.252-.378-.252H7.236v2.43Zm0,.72h3.24V-9.9H4ZM4-4.14V-6.426h3.24V-4.14Zm3.24-5.04v2.034H4V-9.18ZM.972.792A11.3,11.3,0,0,0,4.1-1.656c.378,0,.612-.108.612-.288a.339.339,0,0,0-.18-.27L3.33-3.024A16.641,16.641,0,0,1,.72.4Zm5.292-3.2A19.964,19.964,0,0,1,8.208.126l1.1-1.1A11.575,11.575,0,0,0,6.624-2.826ZM30.654-.7V-7.074h-7.56V.36H24.48V-.7ZM24.48-4.3V-6.354h4.788V-4.3Zm0,.72h4.788v2.16H24.48Zm1.494-10.89h-6.5v15.8H20.9v-9.99h5.076Zm-5.076.72h3.726v1.782H20.9Zm3.726,2.5v1.872H20.9V-11.25Zm3.168-3.222v5.814H33.1V-.342c0,.576-.252.828-.828.828H30.762v.756h2.484c.9,0,1.278-.378,1.278-1.3V-14.472Zm1.35,3.222H33.1v1.872h-3.96Zm0-.72v-1.782H33.1v1.782ZM45.018-3.906A1.226,1.226,0,0,0,43.776-2.7a1.21,1.21,0,0,0,1.206,1.224A1.214,1.214,0,0,0,46.206-2.7,1.214,1.214,0,0,0,45.018-3.906Zm0-8.28a1.226,1.226,0,0,0-1.242,1.206A1.225,1.225,0,0,0,45-9.756a1.21,1.21,0,0,0,1.206-1.224A1.214,1.214,0,0,0,45.018-12.186Z" transform="translate(825.762 1314.149)" fill="#363636"/>
    </g>
  </g>
</svg>
