<svg xmlns="http://www.w3.org/2000/svg" width="360" height="52" viewBox="0 0 360 52">
  <g id="intro-sp" transform="translate(-620 -1160)">
    <path id="bg" d="M3,0H360a0,0,0,0,1,0,0V49a3,3,0,0,1-3,3H3a3,3,0,0,1-3-3V3A3,3,0,0,1,3,0Z" transform="translate(620 1160)" fill="#f2f2f2"/>
    <g id="text" transform="translate(-166.034 -119.709)">
      <g id="日程" transform="translate(300.356 -536.628)">
        <g id="グループ_360" data-name="グループ 360" transform="translate(-11.632 4)">
          <path id="パス_30933" data-name="パス 30933" d="M3.6-4.464V-.432C3.6.1,3.376.32,2.864.32H.592V.992h2.96c1.024,0,1.472-.416,1.456-1.36v-12.48H-4.64v1.888c0,4.928-.1,6.4-.464,7.952A8.014,8.014,0,0,1-7.36.9l.3.384a6.973,6.973,0,0,0,3.6-5.744Zm0-.64H-3.392c.1-1.152.112-1.68.128-2.752v-.576H3.6Zm0-3.968H-3.248l.016-1.888v-1.248H3.6Z" transform="translate(829.406 1846.177)" fill="#363636"/>
          <g id="パス_30932" data-name="パス 30932" transform="translate(817.406 1827.777)" fill="none">
            <path d="M12,0A12,12,0,1,1,0,12,12,12,0,0,1,12,0Z" stroke="none"/>
            <path d="M 12 1 C 9.061790466308594 1 6.299449920654297 2.144199371337891 4.221820831298828 4.221820831298828 C 2.144199371337891 6.299449920654297 1 9.061790466308594 1 12 C 1 14.93820953369141 2.144199371337891 17.7005500793457 4.221820831298828 19.77817916870117 C 6.299449920654297 21.85580062866211 9.061790466308594 23 12 23 C 14.93820953369141 23 17.7005500793457 21.85580062866211 19.77817916870117 19.77817916870117 C 21.85580062866211 17.7005500793457 23 14.93820953369141 23 12 C 23 9.061790466308594 21.85580062866211 6.299449920654297 19.77817916870117 4.221820831298828 C 17.7005500793457 2.144199371337891 14.93820953369141 1 12 1 M 12 0 C 18.62742042541504 0 24 5.372579574584961 24 12 C 24 18.62742042541504 18.62742042541504 24 12 24 C 5.372579574584961 24 0 18.62742042541504 0 12 C 0 5.372579574584961 5.372579574584961 0 12 0 Z" stroke="none" fill="#363636"/>
          </g>
        </g>
        <path id="パス_30931" data-name="パス 30931" d="M-26-16.48a8.377,8.377,0,0,1,3.9.94,7.22,7.22,0,0,1,2.92,2.78,8.339,8.339,0,0,1,1.1,4.36,9.155,9.155,0,0,1-1.14,4.58,8.158,8.158,0,0,1-3.1,3.14A8.554,8.554,0,0,1-26.64.44,7.681,7.681,0,0,1-31.4-1.1a9.715,9.715,0,0,1-3.14-4.38,18.332,18.332,0,0,1-1.1-6.64,19.46,19.46,0,0,1,1.36-7.54,12.081,12.081,0,0,1,3.62-5.02,7.813,7.813,0,0,1,4.9-1.76,7.382,7.382,0,0,1,3.74,1,9,9,0,0,1,2.98,2.84l-1.2,1A8.45,8.45,0,0,0-22.66-24a5.374,5.374,0,0,0-2.94-.88q-3,0-4.66,3.14a19.437,19.437,0,0,0-1.86,8.3,8.084,8.084,0,0,1,2.5-2.16A7.172,7.172,0,0,1-26-16.48Zm.04,15.64A3.625,3.625,0,0,0-22.62-2.7a9.47,9.47,0,0,0,1.1-4.86,8.679,8.679,0,0,0-1.52-5.58A4.676,4.676,0,0,0-26.8-15a4.631,4.631,0,0,0-3.38,1.36,6.844,6.844,0,0,0-1.86,3.24,14.411,14.411,0,0,0,1.92,7.1A4.863,4.863,0,0,0-25.96-.84ZM-11.08.44a2.314,2.314,0,0,1-1.7-.7,2.314,2.314,0,0,1-.7-1.7,2.314,2.314,0,0,1,.7-1.7,2.314,2.314,0,0,1,1.7-.7,2.314,2.314,0,0,1,1.7.7,2.314,2.314,0,0,1,.7,1.7,2.314,2.314,0,0,1-.7,1.7A2.314,2.314,0,0,1-11.08.44ZM7.08-14q5.6,1.8,5.6,6.64a6.873,6.873,0,0,1-1.3,4.2A8.31,8.31,0,0,1,8.02-.48a10.432,10.432,0,0,1-4.3.92A8.651,8.651,0,0,1-.9-.8,9.134,9.134,0,0,1-4.08-4.04l1.28-.8A6.424,6.424,0,0,0-.08-2.16a7.569,7.569,0,0,0,3.48.88,6.21,6.21,0,0,0,2.78-.64A5.153,5.153,0,0,0,8.3-3.88a5.948,5.948,0,0,0,.82-3.2A5.677,5.677,0,0,0,7.5-11.34a5.531,5.531,0,0,0-4.02-1.58h-1v-1.24a6.779,6.779,0,0,0,2.76-.6,5.214,5.214,0,0,0,2.24-1.9,5.689,5.689,0,0,0,.88-3.26,5.944,5.944,0,0,0-1.12-3.66A3.8,3.8,0,0,0,4-25.08,3.816,3.816,0,0,0,.58-23.34,8.775,8.775,0,0,0-.72-19H-2.88v-4.8A7.915,7.915,0,0,1,.08-25.72,10.661,10.661,0,0,1,4-26.44a9.685,9.685,0,0,1,3.88.76,6.735,6.735,0,0,1,2.82,2.2,5.578,5.578,0,0,1,1.06,3.4Q11.76-16.04,7.08-14ZM26.92.44a7.42,7.42,0,0,1-4.8-1.68A10.737,10.737,0,0,1,18.9-5.98,20.031,20.031,0,0,1,17.76-13a19.864,19.864,0,0,1,1.14-7,10.667,10.667,0,0,1,3.24-4.72,7.5,7.5,0,0,1,4.82-1.68,7.557,7.557,0,0,1,4.82,1.66,10.524,10.524,0,0,1,3.24,4.7,19.864,19.864,0,0,1,1.14,7A19.719,19.719,0,0,1,35-6.02a10.944,10.944,0,0,1-3.26,4.76A7.445,7.445,0,0,1,26.92.44Zm.04-1.28q2.72,0,4.16-3.12T32.56-13q0-5.88-1.44-9t-4.16-3.12q-2.72,0-4.16,3.12t-1.44,9q0,5.92,1.44,9.04T26.96-.84Z" transform="translate(763.614 1854.777)" fill="#363636"/>
        <path id="パス_30930" data-name="パス 30930" d="M-6.766-4.93A3.451,3.451,0,0,1-3.774-7a5.359,5.359,0,0,1,2.159.646L1.615-4.93a5.161,5.161,0,0,0,2.006.442c1.462,0,2.822-1.139,3.723-3.128l-.578-.34c-.9,1.377-1.751,1.989-2.771,1.989a3.854,3.854,0,0,1-1.581-.425l-3.74-1.615a5.248,5.248,0,0,0-2.006-.425A3.659,3.659,0,0,0-6.239-6.987a8.359,8.359,0,0,0-1.1,1.717Z" transform="translate(712.63 1849.777)" fill="#363636"/>
        <g id="グループ_359" data-name="グループ 359" transform="translate(-1.12 4)">
          <path id="パス_30929" data-name="パス 30929" d="M3.6-4.464V-.432C3.6.1,3.376.32,2.864.32H.592V.992h2.96c1.024,0,1.472-.416,1.456-1.36v-12.48H-4.64v1.888c0,4.928-.1,6.4-.464,7.952A8.014,8.014,0,0,1-7.36.9l.3.384a6.973,6.973,0,0,0,3.6-5.744Zm0-.64H-3.392c.1-1.152.112-1.68.128-2.752v-.576H3.6Zm0-3.968H-3.248l.016-1.888v-1.248H3.6Z" transform="translate(686.406 1846.177)" fill="#363636"/>
          <g id="パス_30928" data-name="パス 30928" transform="translate(674.406 1827.777)" fill="none">
            <path d="M12,0A12,12,0,1,1,0,12,12,12,0,0,1,12,0Z" stroke="none"/>
            <path d="M 12 1 C 9.061790466308594 1 6.299449920654297 2.144199371337891 4.221820831298828 4.221820831298828 C 2.144199371337891 6.299449920654297 1 9.061790466308594 1 12 C 1 14.93820953369141 2.144199371337891 17.7005500793457 4.221820831298828 19.77817916870117 C 6.299449920654297 21.85580062866211 9.061790466308594 23 12 23 C 14.93820953369141 23 17.7005500793457 21.85580062866211 19.77817916870117 19.77817916870117 C 21.85580062866211 17.7005500793457 23 14.93820953369141 23 12 C 23 9.061790466308594 21.85580062866211 6.299449920654297 19.77817916870117 4.221820831298828 C 17.7005500793457 2.144199371337891 14.93820953369141 1 12 1 M 12 0 C 18.62742042541504 0 24 5.372579574584961 24 12 C 24 18.62742042541504 18.62742042541504 24 12 24 C 5.372579574584961 24 0 18.62742042541504 0 12 C 0 5.372579574584961 5.372579574584961 0 12 0 Z" stroke="none" fill="#363636"/>
          </g>
        </g>
        <path id="パス_30927" data-name="パス 30927" d="M-25.2-16.48a8.377,8.377,0,0,1,3.9.94,7.22,7.22,0,0,1,2.92,2.78,8.339,8.339,0,0,1,1.1,4.36,9.155,9.155,0,0,1-1.14,4.58,8.158,8.158,0,0,1-3.1,3.14A8.554,8.554,0,0,1-25.84.44,7.681,7.681,0,0,1-30.6-1.1a9.715,9.715,0,0,1-3.14-4.38,18.332,18.332,0,0,1-1.1-6.64,19.46,19.46,0,0,1,1.36-7.54,12.081,12.081,0,0,1,3.62-5.02,7.813,7.813,0,0,1,4.9-1.76,7.382,7.382,0,0,1,3.74,1,9,9,0,0,1,2.98,2.84l-1.2,1A8.45,8.45,0,0,0-21.86-24a5.374,5.374,0,0,0-2.94-.88q-3,0-4.66,3.14a19.437,19.437,0,0,0-1.86,8.3,8.084,8.084,0,0,1,2.5-2.16A7.172,7.172,0,0,1-25.2-16.48Zm.04,15.64A3.625,3.625,0,0,0-21.82-2.7a9.47,9.47,0,0,0,1.1-4.86,8.679,8.679,0,0,0-1.52-5.58A4.676,4.676,0,0,0-26-15a4.631,4.631,0,0,0-3.38,1.36,6.844,6.844,0,0,0-1.86,3.24,14.411,14.411,0,0,0,1.92,7.1A4.863,4.863,0,0,0-25.16-.84ZM-10.28.44a2.314,2.314,0,0,1-1.7-.7,2.314,2.314,0,0,1-.7-1.7,2.314,2.314,0,0,1,.7-1.7,2.314,2.314,0,0,1,1.7-.7,2.314,2.314,0,0,1,1.7.7,2.314,2.314,0,0,1,.7,1.7,2.314,2.314,0,0,1-.7,1.7A2.314,2.314,0,0,1-10.28.44ZM9.96-1.44V0H-1.24V-1.44H2.88V-22.76L-1.08-20.2l-.84-1.28,6.6-4.44H6.04V-1.44ZM27.12-16.48a8.377,8.377,0,0,1,3.9.94,7.22,7.22,0,0,1,2.92,2.78,8.339,8.339,0,0,1,1.1,4.36A9.155,9.155,0,0,1,33.9-3.82,8.158,8.158,0,0,1,30.8-.68,8.554,8.554,0,0,1,26.48.44,7.681,7.681,0,0,1,21.72-1.1a9.715,9.715,0,0,1-3.14-4.38,18.332,18.332,0,0,1-1.1-6.64,19.46,19.46,0,0,1,1.36-7.54,12.081,12.081,0,0,1,3.62-5.02,7.813,7.813,0,0,1,4.9-1.76,7.382,7.382,0,0,1,3.74,1,9,9,0,0,1,2.98,2.84l-1.2,1A8.45,8.45,0,0,0,30.46-24a5.374,5.374,0,0,0-2.94-.88q-3,0-4.66,3.14A19.437,19.437,0,0,0,21-13.44a8.084,8.084,0,0,1,2.5-2.16A7.172,7.172,0,0,1,27.12-16.48ZM27.16-.84A3.625,3.625,0,0,0,30.5-2.7a9.47,9.47,0,0,0,1.1-4.86,8.679,8.679,0,0,0-1.52-5.58A4.676,4.676,0,0,0,26.32-15a4.631,4.631,0,0,0-3.38,1.36,6.844,6.844,0,0,0-1.86,3.24A14.411,14.411,0,0,0,23-3.3,4.863,4.863,0,0,0,27.16-.84Z" transform="translate(632.246 1854.777)" fill="#363636"/>
      </g>
      <path id="パス_30926" data-name="パス 30926" d="M-44.272.144A12.666,12.666,0,0,0-38.048-2.7c2.224-1.984,3.584-4.928,4.016-8.7H-45.024l-.7-.144v1.024l.7-.144h9.248C-36.608-5.408-39.44-2.048-44.448-.4Zm19.5-.784H-28.64l-.7-.144V.24l.7-.144h9.28l.7.144V-.784l-.7.144h-3.952V-7.008h2.848l.7.144V-7.888l-.7.144h-7.072l-.7-.144v1.024l.7-.144h2.768ZM-7.424-8.464c.224-.176.3-.288.3-.416a.3.3,0,0,0-.3-.256L-9.04-9.264l.128.928v.88c-.048,2.72-.5,4.144-1.7,5.312A10.31,10.31,0,0,1-14.08.016l.144.432a9.653,9.653,0,0,0,4.16-1.84A5.657,5.657,0,0,0-7.584-5.328,8.419,8.419,0,0,0-1.12-11.872H-13.664l-.7-.144v1.024l.7-.144H-2.976A8.23,8.23,0,0,1-7.5-5.936c.048-.544.08-1.056.08-1.584ZM13.552-4.272v4.08c0,.5-.208.7-.688.7H11.552v.672h1.856c.976,0,1.392-.384,1.376-1.3v-12.7H9.632v2.688c0,4.72-.176,7.264-.576,8.368A5.953,5.953,0,0,1,7.2.944l.288.336C9.52.208,10.464-1.472,10.656-4.272Zm0-.64H10.7V-4.96l.064-1.168c0-.1,0-.512.016-1.1,0-.128,0-.656.016-1.088h2.752Zm0-4.048H10.816l.016-1.168v-2.048h2.72Zm-10-2.224v-1.632c.208-.144.256-.208.256-.32,0-.144-.112-.208-.336-.208H2.352v2.16H1.664l-.64-.128v.9l.64-.128h.688V-3.68H1.36L.72-3.808v.9l.64-.128H8.32l.64.128v-.9l-.64.128H7.632v-6.864h.7l.64.128v-.9l-.64.128h-.7v-1.632c.208-.144.256-.208.256-.3,0-.16-.112-.224-.336-.224H6.432v2.16Zm0,.64h2.88V-8.8H3.552Zm0,6.864V-5.712h2.88V-3.68Zm2.88-4.48v1.808H3.552V-8.16ZM.864.7A10.047,10.047,0,0,0,3.648-1.472c.336,0,.544-.1.544-.256a.3.3,0,0,0-.16-.24L2.96-2.688A14.792,14.792,0,0,1,.64.352Zm4.7-2.848A17.745,17.745,0,0,1,7.3.112l.976-.976A10.289,10.289,0,0,0,5.888-2.512Zm21.68,1.52V-6.288h-6.72V.32H21.76V-.624Zm-5.488-3.2V-5.648h4.256v1.824Zm0,.64h4.256v1.92H21.76Zm1.328-9.68H17.312V1.184h1.264V-7.7h4.512Zm-4.512.64h3.312v1.584H18.576ZM21.888-10v1.664H18.576V-10ZM24.7-12.864V-7.7h4.72V-.3c0,.512-.224.736-.736.736H27.344V1.1h2.208c.8,0,1.136-.336,1.136-1.152V-12.864ZM25.9-10h3.52v1.664H25.9Zm0-.64v-1.584h3.52v1.584ZM40.016-3.472a1.089,1.089,0,0,0-1.1,1.072,1.076,1.076,0,0,0,1.072,1.088A1.079,1.079,0,0,0,41.072-2.4,1.079,1.079,0,0,0,40.016-3.472Zm0-7.36a1.089,1.089,0,0,0-1.1,1.072A1.089,1.089,0,0,0,40-8.672,1.076,1.076,0,0,0,41.072-9.76,1.079,1.079,0,0,0,40.016-10.832Z" transform="translate(846.762 1314.149)" fill="#363636"/>
    </g>
  </g>
</svg>
