<svg xmlns="http://www.w3.org/2000/svg" width="291.656" height="23.92" viewBox="0 0 291.656 23.92">
  <path id="mv03-sp" d="M17.29-14.56l.182,8.294a14.17,14.17,0,0,0-3.666-.52c-2.886,0-4.836,1.508-4.836,3.744A3.424,3.424,0,0,0,9.88-.728,6.841,6.841,0,0,0,14.664.936c2.054,0,3.77-.728,4.446-1.9a4.593,4.593,0,0,0,.572-2.392V-3.51A15.808,15.808,0,0,1,23.5-.7l1.43-1.924a18.024,18.024,0,0,0-5.278-3.068l-.182-8.944c1.456-.078,3.484-.286,4.862-.494l.1-1.9-1.69.78a30.243,30.243,0,0,1-3.3.39l-.078-3.874c.338-.234.468-.442.468-.676a.48.48,0,0,0-.468-.442l-2.392-.156.208,1.326.078,3.952c-1.378.052-2.47.078-3.38.078-.78,0-1.95-.026-3.484-.078l-1.56-.494.182,1.69c1.716.052,2.5.078,3.692.078.91,0,.91,0,4.5-.1Zm.26,10.842v.156a3.687,3.687,0,0,1-.416,1.586A3.367,3.367,0,0,1,14.222-.832a5.689,5.689,0,0,1-3.276-.962,1.649,1.649,0,0,1-.676-1.352c0-1.326,1.248-2.158,3.2-2.158a9.6,9.6,0,0,1,4.056.91ZM6.188.52a61.073,61.073,0,0,1-.7-9.074,86.582,86.582,0,0,1,.806-10.738c.39-.26.52-.442.52-.65,0-.286-.234-.494-.624-.546L4-20.852V-19.5A97.591,97.591,0,0,0,3.25-7.982,64.455,64.455,0,0,0,3.822.936ZM40.82-21.086A11.639,11.639,0,0,1,42.406-17.5l1.716-.832a5.078,5.078,0,0,0-2.834-3.094Zm6.6,2.158A5.133,5.133,0,0,0,44.3-21.84l-.442.39a11.13,11.13,0,0,1,1.872,3.432Zm-17.836-2.21.156,1.43-.234,8.19c-.026.832-.026,1.612-.026,2.366,0,4.784.416,6.838,1.69,8.19a8.056,8.056,0,0,0,5.642,2.08,9.241,9.241,0,0,0,8.19-4.6A13.354,13.354,0,0,0,46.462-7.8l-.806-.26a13.418,13.418,0,0,1-1.638,3.354A8.517,8.517,0,0,1,37-.936a5.572,5.572,0,0,1-3.588-1.2,4.353,4.353,0,0,1-1.326-2.834,47.7,47.7,0,0,1-.208-5.044c0-.572,0-.988.026-1.378l.234-8.4c.312-.286.442-.468.442-.7,0-.286-.286-.494-.676-.52ZM59.852,1.326c3.874-.312,6.994-1.508,8.84-3.354a8.508,8.508,0,0,0,2.34-6.058,7.887,7.887,0,0,0-3.146-6.63A8.943,8.943,0,0,0,64.35-16.2c.468-1.586.546-1.82.936-3.276.416-.234.6-.442.6-.676,0-.182-.182-.338-.494-.416l-2.21-.572L63-19.63c-.286,1.43-.364,1.664-.78,3.25a9.706,9.706,0,0,0-1.118-.078,13.8,13.8,0,0,0-5.538,1.144,30.045,30.045,0,0,1-.39-3.64c.26-.234.364-.364.364-.52,0-.208-.208-.364-.546-.39l-2.184-.13.286,1.586c.234,1.638.442,2.834.676,4.03A9.385,9.385,0,0,0,49.322-6.5a6.952,6.952,0,0,0,1.456,4.368A3.5,3.5,0,0,0,53.56-.806a3.783,3.783,0,0,0,2.262-.78,15.5,15.5,0,0,0,3.224-3.432A36.089,36.089,0,0,0,63.96-14.95a5.6,5.6,0,0,1,2.652,1.482,7.381,7.381,0,0,1,1.95,5.3,7.425,7.425,0,0,1-3.64,6.656A14.839,14.839,0,0,1,59.7.572Zm-4.03-15.158a11.42,11.42,0,0,1,6.006-1.352,39.913,39.913,0,0,1-3.8,8.242A33.219,33.219,0,0,1,55.822-13.832Zm-1.664,1.17a29.911,29.911,0,0,0,2.756,7.41c-1.456,2.054-2.5,2.964-3.484,2.964a1.564,1.564,0,0,1-1.066-.442A5.645,5.645,0,0,1,51.246-6.4,7.829,7.829,0,0,1,54.158-12.662Zm18.486-6.5.182,1.794,15.782-.624a.5.5,0,0,1-.208.078,13.825,13.825,0,0,0-4.108,2.158,8.832,8.832,0,0,0-3.718,7.28,8.253,8.253,0,0,0,3.172,6.76C85.384-.416,86.762.13,89.726.676l.988-2.7c-2.678-.286-3.9-.7-5.356-1.768A6.135,6.135,0,0,1,82.81-9.074c0-3.562,2.054-6.318,5.928-7.93A15.234,15.234,0,0,1,94.3-18.148l.13-1.82-1.716.624-18.564.65ZM107.51.468a15,15,0,0,0,7.15-2.6A9.2,9.2,0,0,0,118.4-9.75c0-5.72-4.238-9.49-10.712-9.49a11.941,11.941,0,0,0-7.8,2.574A10.646,10.646,0,0,0,96.07-8.372c0,3.9,1.794,6.734,4.238,6.734a4.528,4.528,0,0,0,3.276-1.794A15.942,15.942,0,0,0,106.47-8.45a42.316,42.316,0,0,0,2.21-9.438,7.008,7.008,0,0,1,4,1.326,7.961,7.961,0,0,1,3.2,6.63,9.07,9.07,0,0,1-4.446,7.878A15.2,15.2,0,0,1,107.3-.338ZM106.392-17.94a48.918,48.918,0,0,1-1.2,6.344c-1.3,4.94-3.328,8.606-4.784,8.606C99.19-2.99,98.2-5.3,98.2-8.268a10.215,10.215,0,0,1,2.522-6.812A8.226,8.226,0,0,1,106.392-17.94ZM136.064-5.28V0h-14.85V-1.08h2.4V-18.36h-2.4v-1.08h14.61v5.22h-1.14l-1.59-4.14h-6.93v7.53h4.71v-2.31h1.38v5.76h-1.38V-9.69h-4.71v8.61h7.17l1.59-4.2Zm20.43-13.08h-2.25L147.794,0h-1.38l-6.57-18.36h-2.4v-1.08h7.47v1.08h-2.4l5.25,14.73,5.25-14.73h-2.4v-1.08h5.88Zm30.98,9.91v-3.77h2.392l1.04.208v-1.456l-1.04.208h-5.98v-3.978h4.42l1.04.208v-1.456l-1.04.208h-4.42V-20.67c.338-.26.416-.338.416-.52,0-.234-.182-.338-.546-.338h-2.028v3.25h-4.082l-1.014-.208v1.456l1.014-.208h4.082v3.978h-4.966l-1.04-.208v1.456l1.04-.208h8.554v3.77h-8.06l-1.04-.208V-7.2l1.04-.208h8.06V-.156C185.29.676,185,.962,184.172.988h-2.548V2.08h3.666c1.534,0,2.184-.624,2.184-2.08V-7.41h1.9l1.04.208V-8.658l-1.04.208ZM171.51,1.924h2.028V-7.488a19.337,19.337,0,0,0,2.912-1.638l-.156-.624c-1.482.52-2.106.728-2.756.936v-5.954h1.638l1.04.208v-1.456l-1.04.208h-1.638v-5.018c.338-.234.416-.338.416-.52,0-.234-.182-.338-.572-.338H171.51v5.876h-2l.026-.078c.052-.312.1-.624.156-.91,0-.052.1-.806.208-1.482.364-.234.52-.416.52-.572,0-.182-.182-.338-.39-.39l-1.9-.286a56.219,56.219,0,0,1-1.144,9.334l.806.234a21.679,21.679,0,0,0,1.534-4.81h2.184v6.552c-1.352.39-2.548.7-4.524,1.118l.7,1.872a.7.7,0,0,0,.494.416c.234,0,.39-.182.52-.6,1.274-.494,2-.806,2.808-1.144Zm6.162-7.332a19.288,19.288,0,0,1,2.912,4.186l1.95-1.9a17.473,17.473,0,0,0-4.264-2.938Zm21.632-7.1h5.928v-8.06h-10.66v8.06h2.574v.13c-.052,6.474-1.3,10.322-4.16,12.87l.468.624c3.328-1.872,4.966-4.6,5.564-9.256h4.212c-.156,2.782-.26,4.082-.52,5.98S202.268,0,201.02.052H198.6V1.144h3.38c1.664.026,2.418-.494,2.678-1.872a69.072,69.072,0,0,0,.728-8.45h-6.24c.1-1.066.156-2.132.156-3.224Zm-2.652-1.04v-5.98H203.1v5.98ZM207.988-3.38h2.08V-18.46c.338-.234.416-.338.416-.52,0-.234-.182-.338-.546-.338h-1.95Zm1.9,5.174h3.406c1.586,0,2.262-.65,2.236-2.132V-20.384c.312-.234.416-.338.416-.52,0-.234-.182-.338-.546-.338h-2.054v20.8C213.344.364,213.006.7,212.2.7h-2.314Zm20.462-4.056c-.988.182-1.482.234-2.964.416l.52,1.9c.1.39.234.546.442.546.234,0,.364-.156.546-.6a37.167,37.167,0,0,0,7.332-2.912l-.26-.676c-1.69.494-2.288.624-3.666.936V-9.724h1.534l1.04.208v-1.456l-1.04.208h-5.1l-1.04-.208v1.456l1.04-.208h1.612Zm-1.716-14.066-1.04-.208v1.456l1.04-.208h6.916c.338,5.824.806,9.074,1.716,11.934.936,2.86,2.626,5.148,3.822,5.148.6,0,1.092-.676,1.3-1.768a32.092,32.092,0,0,0,.494-4.914L241.866-5.1c-.234,3.51-.39,4.472-.728,4.472s-1.222-1.534-1.768-3.12c-.962-2.678-1.456-5.928-1.794-11.544h3.978l1.04.208v-1.456l-1.04.208h-4.03c-.078-1.04-.1-2.158-.1-3.51v-.988c.338-.234.416-.338.416-.52,0-.234-.182-.338-.546-.338h-1.9v1.846c0,.6.026,1.976.1,3.51ZM221.872.182h2.808v.962h1.768V-6.318H220.1v7.8h1.768Zm0-.962V-5.356h2.808V-.78Zm16.562-19.63a27.021,27.021,0,0,1,1.82,3.25l1.768-1.4a12.846,12.846,0,0,0-3.016-2.288Zm-13.052-.26h-4.238l-1.04-.208v1.508l1.04-.208h4.238l1.04.208v-1.508Zm.65,3.588h-6.006l-1.04-.208v1.508l1.04-.208h6.006l1.014.208V-17.29Zm-.65,3.588h-4.238L220.1-13.7v1.508l1.04-.208h4.238l1.04.208V-13.7Zm0,3.588h-4.238l-1.04-.208v1.508l1.04-.208h4.238l1.04.208v-1.508Zm29.64,3.614A27.913,27.913,0,0,1,244.986.364l.182.728c4.394-1.144,8.268-3.068,10.582-5.278v6.24h2v-7.67A18.171,18.171,0,0,0,267.944.936a10.355,10.355,0,0,1,.962-2.132c-4.134-.754-8.814-2.99-10.738-5.1H266.7l1.04.208V-7.54l-1.04.208H263.94V-11h3.8l1.04.208v-1.456l-1.04.208h-3.8V-15.5H266.7l1.04.208v-1.456l-1.04.208h-8.944V-18.98l1.118-.078a37.032,37.032,0,0,0,3.978-.39c.7-.078,1.4-.156,2.132-.26a2.274,2.274,0,0,0,.78.208.529.529,0,0,0,.572-.468c0-.13-.078-.234-.234-.364L264.3-21.71c-2.912.832-10.348,1.768-17.55,2.236l.026.858c1.742.026,1.95.026,2.47.026,1.924,0,3.406-.052,4.836-.13l.832-.052c.078-.026.39-.026.832-.052v2.288h-8.58l-1.014-.208v1.456l1.014-.208h2.522v3.458h-3.536l-1.04-.208v1.456l1.04-.208h3.536v3.666H247.17l-1.014-.208v1.456l1.014-.208Zm6.89-1.04h-4.16V-11h4.16Zm0-4.706h-4.16V-15.5h4.16ZM251.72-15.5h4.03v3.458h-4.03Zm0,4.5h4.03v3.666h-4.03Zm26.416,9.932.26-.286a34.183,34.183,0,0,0,3.64-4.992l.234-.39h10.92l1.04.208V-7.982l-1.04.208H272.7l-1.04-.208v1.456l1.04-.208h6.708l-.1.286a53.541,53.541,0,0,1-2.418,5.382l-.416.026h-1.378c-.832,0-1.17,0-2.34-.026l.65,2.158c.1.39.26.572.494.572.26,0,.442-.182.65-.624a121.3,121.3,0,0,0,15-1.768l.1-.026a26.21,26.21,0,0,1,1.82,2.73l2.5-1.56a29.957,29.957,0,0,0-7.384-5.746l-.624.546a29,29,0,0,1,3.016,3.172l-.442.052c-2.236.208-7.956.494-9.594.494Zm5.538-19.552c.442-.156.624-.338.624-.572,0-.208-.182-.364-.52-.39l-2.21-.26c-1.846,3.588-6.37,8.242-10.582,10.92l.338.7A27.65,27.65,0,0,0,283.1-19.812l.1.182a22.6,22.6,0,0,0,10.556,8.892,15.108,15.108,0,0,1,1.144-2.366,26.015,26.015,0,0,1-11.284-7.436Zm4.264,7.722H277.8l-1.04-.208v1.456l1.04-.208h10.14l1.04.208V-13.1Z" transform="translate(-3.25 21.84)" fill="#fff"/>
</svg>
