<svg xmlns="http://www.w3.org/2000/svg" width="298.34" height="15.576" viewBox="0 0 298.34 15.576">
  <path id="mv04-sp" d="M.66-.72h1.6V-12.24H.66v-.72H4.08L8.48-2.94l4.24-10.02h3.34v.72h-1.6V-.72h1.6V0h-4.9V-.72h1.6v-10.1L8.48-.74H7.56L3.12-10.9V-.72H4.66V0h-4Zm22.94,0V0H17.98V-.72h1.96V-12.24H18.06v-.72h5.46v.72H21.64V-.72Zm1.92,0h1.6V-12.24h-1.6v-.72h3.26L34.8-3.24v-9H33.2v-.72h4.06v.72h-1.6V0h-.92L27.98-11.02V-.72h1.6V0H25.52Zm19.08,0V0H38.98V-.72h1.96V-12.24H39.06v-.72h5.46v.72H42.64V-.72Zm8.556-11.312H55.54a25.51,25.51,0,0,0,1.12,7.168A13.339,13.339,0,0,0,60.068.864,11.59,11.59,0,0,1,61.22-.752a10.921,10.921,0,0,1-1.872-2.08,15.715,15.715,0,0,1-2.192-4.736,20.128,20.128,0,0,1-.688-4.672c0-.112,0-.3.016-.544H53.156l-.64-.128V-11.9Zm-6.3,13.04C49.2-.784,50.98-4.416,51.7-8.928c.352-.112.5-.256.5-.448s-.128-.3-.448-.384l-1.536-.384a26.938,26.938,0,0,1-1.1,5.408A14.548,14.548,0,0,1,46.5.624ZM70.964-11.664h5.28l.624.128v-.928l-.624.128H64.436l-.64-.128v.928l.64-.128h5.072V-6.72H65.252l-.64-.128v.928l.64-.128h4.256v5.68H63.716L63.076-.5V.432L63.716.3H76.948l.64.128V-.5l-.64.128H70.964v-5.68h4.448l.64.128v-.928l-.64.128H70.964ZM87.7-8.9a21.814,21.814,0,0,0,5.488-3.936h-11.5l-.64-.128v.928l.64-.128h8.8a18.408,18.408,0,0,1-2.928,2.736l-1.312-.3v3.184H80.1l-.64-.128v.928l.64-.128h6.144V-.4c0,.528-.224.752-.736.752H83.684V1.1h2.544C87.252,1.1,87.716.672,87.7-.32V-5.872h5.84l.64.128v-.928l-.64.128H87.7Zm14.56-4.824h.84L96.6.52h-.84Zm8.06,13h1.6V-12.24h-1.6v-.72h3.42l4.4,10.02,4.24-10.02h3.34v.72h-1.6V-.72h1.6V0h-4.9V-.72h1.6v-10.1L118.14-.74h-.92L112.78-10.9V-.72h1.54V0h-4Zm22.94,0V0h-5.62V-.72h1.96V-12.24h-1.88v-.72h5.46v.72H131.3V-.72Zm1.92,0h1.6V-12.24h-1.6v-.72h3.26l6.02,9.72v-9h-1.6v-.72h4.06v.72h-1.6V0h-.92l-6.76-11.02V-.72h1.6V0h-4.06Zm19.08,0V0h-5.62V-.72h1.96V-12.24h-1.88v-.72h5.46v.72H152.3V-.72Zm14.163-6.624V-.391c-.017.578-.2.765-.765.782h-1.6v.714h2.261c1.054,0,1.5-.408,1.5-1.394V-7.344h1.343l.68.136V-8.16l-.68.136h-1.343V-10.54c.2-.153.272-.221.272-.34,0-.153-.119-.221-.374-.221h-1.292v3.077h-4.607l-.663-.136v.952l.663-.136Zm-4.658-5.151h-6.256V-9.6c0,6.324-.238,8.177-1.309,10.557l.391.238a8.83,8.83,0,0,0,1.938-3.859,36.74,36.74,0,0,0,.408-6.936v-2.21h12l.68.136v-.952l-.68.136h-5.627v-1.224c.2-.153.272-.221.272-.34,0-.153-.119-.221-.357-.221h-1.462ZM161.13,1.173h1.326V-8.4c.255-.51.408-.867.748-1.6.442-.136.561-.221.561-.408,0-.153-.1-.255-.289-.306l-1.428-.493a27.3,27.3,0,0,1-3.06,6.987l.357.34a11.3,11.3,0,0,0,1.785-2.176Zm2.686-6.613a11.12,11.12,0,0,1,1.819,3.332L166.944-3.2a7.206,7.206,0,0,0-2.788-2.55Zm18.394-5.542v-2.635c.221-.153.272-.221.272-.34,0-.153-.119-.221-.357-.221h-1.394v3.2h-6.188V-2.89h1.479v-1.1h4.709V1.258h1.479V-3.995h4.845v.969h1.479v-7.956Zm0,.68h4.845v5.627H182.21Zm-1.479,5.627h-4.709V-10.3h4.709ZM197.5-13.72h.84L191.84.52H191Zm8.06,13h1.6V-12.24h-1.6v-.72h3.42l4.4,10.02,4.24-10.02h3.34v.72h-1.6V-.72h1.6V0h-4.9V-.72h1.6v-10.1L213.38-.74h-.92L208.02-10.9V-.72h1.54V0h-4Zm22.94,0V0h-5.62V-.72h1.96V-12.24h-1.88v-.72h5.46v.72h-1.88V-.72Zm1.92,0h1.6V-12.24h-1.6v-.72h3.26l6.02,9.72v-9h-1.6v-.72h4.06v.72h-1.6V0h-.92l-6.76-11.02V-.72h1.6V0h-4.06Zm19.08,0V0h-5.62V-.72h1.96V-12.24h-1.88v-.72h5.46v.72h-1.88V-.72Zm4.6,1.9h1.264V-6.944a14.011,14.011,0,0,1,1.2,2.928l1.1-.944a7.6,7.6,0,0,0-2.3-2.48v-2h1.5l.64.128v-.9l-.64.128h-1.5v-2.736c.208-.144.256-.208.256-.32,0-.144-.112-.208-.336-.208H254.1v3.264h-1.968l-.64-.128v.9l.64-.128h1.792A24,24,0,0,1,251.4-2.624l.352.288A14.838,14.838,0,0,0,254.1-6.064ZM265.288.9V-12.272h-7.04V.992h1.28V-.192h4.432V.9ZM263.96-8.672h-4.432v-2.96h4.432Zm0,.64V-4.9h-4.432V-8.032Zm0,3.776V-.832h-4.432V-4.256Zm17.808,1.744.64.128v-.9l-.64.128h-4.016c.112-.656.128-.816.192-1.376h3.5V-9.28h-7.7v4.752h2.992a6.742,6.742,0,0,1-.176,1.376H273.24l-.624-.128v.9l.624-.128h3.152c-.5,1.392-1.952,2.528-4.336,3.36l.128.448c2.9-.576,4.752-1.808,5.328-3.536a6.537,6.537,0,0,0,4.464,3.456A5.242,5.242,0,0,1,282.6-.016a7.713,7.713,0,0,1-4.816-2.5Zm-6.784-2.656V-6.64H280.2v1.472Zm0-2.112V-8.64H280.2v1.36Zm-4.736,8.464h1.2v-8.4a11.247,11.247,0,0,1,1.12,2.48l.912-.9A5.042,5.042,0,0,0,271.448-7.6V-9.392h1.12l.624.128v-.9l-.624.128h-1.12v-2.784c.208-.144.256-.208.256-.32,0-.144-.112-.208-.336-.208h-1.12v3.312h-1.632l-.64-.128v.9l.64-.128h1.5a26.87,26.87,0,0,1-2.24,6.768l.32.272a13.653,13.653,0,0,0,2.048-3.728Zm4.9-12.272v1.3h1.2v-1.3h2.208v1.3h1.2v-1.3h1.92l.64.128v-.9l-.64.128h-1.92V-12.8c.208-.16.256-.224.256-.32,0-.16-.1-.224-.336-.224h-1.12v1.616h-2.208V-12.8c.208-.16.256-.224.256-.32,0-.16-.1-.224-.336-.224h-1.12v1.616H273.32l-.64-.128v.9l.64-.128Zm18.64,6.848h3.92v-5.872h-5.168a14.134,14.134,0,0,0,1.328-1.936h4.368l.64.128v-.9l-.64.128H285.7v2.128a66.954,66.954,0,0,1-.224,6.976A14.1,14.1,0,0,1,284.36.688L284.7.96a9.586,9.586,0,0,0,1.872-3.712c.336-1.328.448-3.072.48-7.808v-1.488h5.216a16.623,16.623,0,0,1-.464,1.936h-3.3V-4.24h3.952V-.128c0,.512-.224.736-.72.736h-1.2V1.28h1.9c.944,0,1.36-.384,1.344-1.264Zm-4.016-5.232h6.624v1.9h-6.624Zm6.624,4.592h-6.624V-6.928h6.624ZM286.808.72a9.6,9.6,0,0,0,3.632-2.944c.336-.048.528-.192.528-.352a.386.386,0,0,0-.224-.288l-1.2-.64A12.528,12.528,0,0,1,286.552.368Zm8.144-3.712A16.554,16.554,0,0,1,297.864.544L299-.7a12.625,12.625,0,0,0-3.744-2.672Z" transform="translate(-0.66 14.28)" fill="#fff"/>
</svg>
