<svg xmlns="http://www.w3.org/2000/svg" width="330" height="957.624" viewBox="0 0 330 957.624">
  <g id="sec02-waku-sp" transform="translate(-14 -889.74)">
    <g id="枠線" transform="translate(-518.811 -321.307)">
      <g id="枠線-2" data-name="枠線" transform="translate(532.811 1218.149)" fill="none">
        <path d="M0,0H330V950.522H0Z" stroke="none"/>
        <path d="M 13 12.99993896484375 L 13 937.5219116210938 L 317 937.5219116210938 L 317 12.99993896484375 L 13 12.99993896484375 M 0 -6.103515625e-05 L 330 -6.103515625e-05 L 330 950.5219116210938 L 0 950.5219116210938 L 0 -6.103515625e-05 Z" stroke="none" fill="#57c4e5"/>
      </g>
      <path id="パス_30915" data-name="パス 30915" d="M0,0H268.753V52.539H0Z" transform="translate(563.811 1211.307)" fill="#fff"/>
    </g>
    <g id="waku-sp" transform="translate(-519.762 -312.149)">
      <path id="パス_30916" data-name="パス 30916" d="M24.829,11.5h1.12V3.432h-1.12v-.5h2.394L30.3,9.942l2.968-7.014h2.338v.5h-1.12V11.5h1.12V12h-3.43v-.5H33.3V4.426l-3,7.056h-.644L26.551,4.37V11.5h1.078V12h-2.8Zm15.638,0V12H36.533v-.5H37.9V3.432H36.589v-.5h3.822v.5H39.1V11.5Zm.924,0h1.12V3.432h-1.12v-.5h2.282l4.214,6.8v-6.3h-1.12v-.5h2.842v.5h-1.12V12h-.644L43.113,4.286V11.5h1.12V12H41.391Zm12.936,0V12H50.393v-.5h1.372V3.432H50.449v-.5h3.822v.5H52.955V11.5ZM61.173,1.472h2.086a22.321,22.321,0,0,0,.98,6.272,11.671,11.671,0,0,0,2.982,5.012,10.141,10.141,0,0,1,1.008-1.414,9.556,9.556,0,0,1-1.638-1.82,13.75,13.75,0,0,1-1.918-4.144,17.612,17.612,0,0,1-.6-4.088c0-.1,0-.266.014-.476H61.173L60.613.7v.882Zm-5.516,11.41c2.058-1.568,3.612-4.746,4.242-8.694.308-.1.434-.224.434-.392s-.112-.266-.392-.336L58.6,3.124a23.571,23.571,0,0,1-.966,4.732,12.729,12.729,0,0,1-2.282,4.69ZM76.335,1.794h4.62l.546.112V1.094l-.546.112H70.623l-.56-.112v.812l.56-.112h4.438V6.12H71.337l-.56-.112V6.82l.56-.112h3.724v4.97H69.993l-.56-.112v.812l.56-.112H81.571l.56.112v-.812l-.56.112H76.335V6.708h3.892l.56.112V6.008l-.56.112H76.335ZM90.559,4.216a19.087,19.087,0,0,0,4.8-3.444H85.295L84.735.66v.812l.56-.112H93a16.107,16.107,0,0,1-2.562,2.394l-1.148-.266V6.274H83.909l-.56-.112v.812l.56-.112h5.376V11.65c0,.462-.2.658-.644.658h-1.6v.658h2.226c.9,0,1.3-.378,1.288-1.246V6.862h5.11l.56.112V6.162l-.56.112h-5.11Zm13.244.952a1.519,1.519,0,1,0,1.5,1.512A1.521,1.521,0,0,0,103.8,5.168Zm7.448,6.328h1.12V3.432h-1.12v-.5h2.394l3.08,7.014,2.968-7.014h2.338v.5h-1.12V11.5h1.12V12H118.6v-.5h1.12V4.426l-3,7.056h-.644L112.973,4.37V11.5h1.078V12h-2.8Zm15.638,0V12h-3.934v-.5h1.372V3.432h-1.316v-.5h3.822v.5h-1.316V11.5Zm.924,0h1.12V3.432h-1.12v-.5H130.1l4.214,6.8v-6.3h-1.12v-.5h2.842v.5h-1.12V12h-.644l-4.732-7.714V11.5h1.12V12h-2.842Zm12.936,0V12h-3.934v-.5h1.372V3.432h-1.316v-.5h3.822v.5h-1.316V11.5Zm11.088-5.544v5.726c-.014.476-.168.63-.63.644h-1.316v.588h1.862c.868,0,1.232-.336,1.232-1.148V5.952h1.106l.56.112V5.28l-.56.112h-1.106V3.32c.168-.126.224-.182.224-.28,0-.126-.1-.182-.308-.182h-1.064V5.392h-3.794L147.5,5.28v.784l.546-.112ZM148,1.71h-5.152V4.09c0,5.208-.2,6.734-1.078,8.694l.322.2a7.272,7.272,0,0,0,1.6-3.178,30.256,30.256,0,0,0,.336-5.712V2.27h9.884l.56.112V1.6l-.56.112h-4.634V.7c.168-.126.224-.182.224-.28,0-.126-.1-.182-.294-.182H148Zm-2.17,11.256h1.092V5.084c.21-.42.336-.714.616-1.316.364-.112.462-.182.462-.336,0-.126-.084-.21-.238-.252l-1.176-.406a22.485,22.485,0,0,1-2.52,5.754l.294.28a9.3,9.3,0,0,0,1.47-1.792Zm2.212-5.446a9.157,9.157,0,0,1,1.5,2.744l1.078-.9a5.934,5.934,0,0,0-2.3-2.1Zm14.728-4.564V.786c.182-.126.224-.182.224-.28,0-.126-.1-.182-.294-.182h-1.148V2.956h-5.1V9.62h1.218V8.71h3.878v4.326h1.218V8.71h3.99v.8h1.218V2.956Zm0,.56h3.99V8.15h-3.99ZM161.553,8.15h-3.878V3.516h3.878Zm14.672-2.982a1.519,1.519,0,1,0,1.5,1.512A1.521,1.521,0,0,0,176.225,5.168Zm7.448,6.328h1.12V3.432h-1.12v-.5h2.394l3.08,7.014,2.968-7.014h2.338v.5h-1.12V11.5h1.12V12h-3.43v-.5h1.12V4.426l-3,7.056H188.5L185.4,4.37V11.5h1.078V12h-2.8Zm15.638,0V12h-3.934v-.5h1.372V3.432h-1.316v-.5h3.822v.5h-1.316V11.5Zm.924,0h1.12V3.432h-1.12v-.5h2.282l4.214,6.8v-6.3h-1.12v-.5h2.842v.5h-1.12V12h-.644l-4.732-7.714V11.5h1.12V12h-2.842Zm12.936,0V12h-3.934v-.5h1.372V3.432h-1.316v-.5h3.822v.5H211.8V11.5Zm3.388,1.54h1.106V5.924a12.259,12.259,0,0,1,1.05,2.562l.966-.826a6.647,6.647,0,0,0-2.016-2.17V3.74h1.316l.56.112V3.068l-.56.112h-1.316V.786c.182-.126.224-.182.224-.28,0-.126-.1-.182-.294-.182h-1.036V3.18h-1.722l-.56-.112v.784l.56-.112H216.4A21,21,0,0,1,214.193,9.7l.308.252a12.983,12.983,0,0,0,2.058-3.262Zm9.786-.252V1.262h-6.16V12.868h1.12V11.832h3.878v.952Zm-1.162-8.372H221.3V1.822h3.878Zm0,.56V7.716H221.3V4.972Zm0,3.3v3H221.3v-3ZM240.345,9.8l.56.112V9.13l-.56.112h-3.514c.1-.574.112-.714.168-1.2h3.066V3.88h-6.734V8.038h2.618a5.9,5.9,0,0,1-.154,1.2h-2.912l-.546-.112v.784l.546-.112h2.758c-.434,1.218-1.708,2.212-3.794,2.94l.112.392c2.534-.5,4.158-1.582,4.662-3.094a5.72,5.72,0,0,0,3.906,3.024,4.586,4.586,0,0,1,.546-1.078A6.749,6.749,0,0,1,236.859,9.8Zm-5.936-2.324V6.19h4.564V7.478Zm0-1.848V4.44h4.564V5.63Zm-4.144,7.406h1.05V5.686a9.842,9.842,0,0,1,.98,2.17l.8-.784a4.412,4.412,0,0,0-1.778-1.722V3.782h.98l.546.112V3.11l-.546.112h-.98V.786c.182-.126.224-.182.224-.28,0-.126-.1-.182-.294-.182h-.98v2.9h-1.428l-.56-.112v.784l.56-.112h1.316a23.511,23.511,0,0,1-1.96,5.922l.28.238a11.946,11.946,0,0,0,1.792-3.262ZM234.549,2.3V3.432h1.05V2.3h1.932V3.432h1.05V2.3h1.68l.56.112V1.626l-.56.112h-1.68V.8c.182-.14.224-.2.224-.28,0-.14-.084-.2-.294-.2h-.98V1.738H235.6V.8c.182-.14.224-.2.224-.28,0-.14-.084-.2-.294-.2h-.98V1.738h-1.6l-.56-.112V2.41l.56-.112Zm15.89,5.992h3.43V3.152h-4.522a12.367,12.367,0,0,0,1.162-1.694h3.822l.56.112V.786l-.56.112H243.369V2.76a58.57,58.57,0,0,1-.2,6.1,12.334,12.334,0,0,1-.98,3.738l.294.238a8.388,8.388,0,0,0,1.638-3.248c.294-1.162.392-2.688.42-6.832v-1.3h4.564a14.551,14.551,0,0,1-.406,1.694h-2.884V8.29h3.458v3.6c0,.448-.2.644-.63.644H247.6v.588h1.666c.826,0,1.19-.336,1.176-1.106Zm-3.514-4.578h5.8V5.378h-5.8Zm5.8,4.018h-5.8V5.938h5.8Zm-8.386,4.9a8.4,8.4,0,0,0,3.178-2.576c.294-.042.462-.168.462-.308a.338.338,0,0,0-.2-.252l-1.05-.56a10.961,10.961,0,0,1-2.618,3.388Zm7.126-3.248a14.485,14.485,0,0,1,2.548,3.094L255,11.384a11.046,11.046,0,0,0-3.276-2.338ZM16.331,43.407H23.66a9.75,9.75,0,0,1-2.961-3,11.221,11.221,0,0,1-1.68-6.384,11.221,11.221,0,0,1,1.68-6.384,9.519,9.519,0,0,1,2.961-3H16.331ZM35.546,29.169l-.273-3.36c.252-.21.357-.336.357-.5,0-.231-.189-.378-.483-.378H33.089l.252,1.176.252,3.192-5.775.378-.84-.126.084,1.3.819-.21,5.8-.378.441,5.334-7.56.483-.84-.1.084,1.3.819-.231,7.581-.483.567,6.72,1.953-.126-.567-6.72,7.161-.441.945.1-.105-1.323-.9.231-7.182.462-.441-5.334,6.132-.378.945.126-.084-1.344-.924.252ZM55.034,34l5.5-.735a9.51,9.51,0,0,1-3.486,4.494l.315.483A8.881,8.881,0,0,0,62.93,32l-8,1.05-.336-2.793c.231-.189.315-.315.315-.441a.321.321,0,0,0-.357-.315H52.64l.168,1.071.315,2.709-3.318.441-.924-.042.168,1.3.882-.294,3.318-.441,1.071,9.24,1.806-.231Zm30.744-5.145a20.845,20.845,0,0,1-5.355,6.8C77.63,37.926,75.236,39,70.784,39.921l-1.113.021.756,1.869c.126.294.315.462.525.462.231,0,.4-.147.546-.483,4.746-1.071,7.728-2.5,10.311-4.935a17.7,17.7,0,0,0,4.557-7.728Zm-16.3-2.289a19.742,19.742,0,0,1,5.229,4.494l1.722-1.743a12.959,12.959,0,0,0-6.7-3.3Zm38.157,13.419c-2.877-2.9-7.854-8.484-10.269-11.571-.966-1.239-1.344-1.6-1.722-1.6-.357,0-.84.378-1.407,1.113-2.52,3.108-3.444,4.2-4.851,5.712l-1.05.882,1.176,1.6c.147.21.273.294.42.294.252,0,.378-.189.4-.588,1.932-2.772,4.347-6.174,4.893-6.888.231-.315.4-.483.483-.483s.252.147.42.4a133.891,133.891,0,0,0,10.017,12.915Zm-2.121-15.561a2.121,2.121,0,1,0,2.079,2.121A2.134,2.134,0,0,0,105.518,24.423Zm-.063.84a1.291,1.291,0,0,1,1.3,1.281,1.273,1.273,0,0,1-1.281,1.281,1.281,1.281,0,0,1-.021-2.562ZM127.9,33.516l-17.535-.651V35.07l17.535-.63Zm20.874-4.662a20.845,20.845,0,0,1-5.355,6.8c-2.793,2.268-5.187,3.339-9.639,4.263l-1.113.021.756,1.869c.126.294.315.462.525.462.231,0,.4-.147.546-.483,4.746-1.071,7.728-2.5,10.311-4.935a17.7,17.7,0,0,0,4.557-7.728Zm-16.3-2.289a19.742,19.742,0,0,1,5.229,4.494l1.722-1.743a12.959,12.959,0,0,0-6.7-3.3Zm28.329,2.583.84.168V28.14l-.84.168h-3.57V25.179c.273-.189.336-.273.336-.42,0-.189-.147-.273-.441-.273h-1.7v3.822h-3.129l-.84-.168v1.176l.84-.168h5.649a17.308,17.308,0,0,1-1.323,5.544,40.111,40.111,0,0,0-3.99-3.8l-.5.441a53.761,53.761,0,0,1,3.8,4.662l.042.063a18.98,18.98,0,0,1-4.641,5.817l.4.588a16.7,16.7,0,0,0,5.208-5.082,43.891,43.891,0,0,1,2.688,4.326l1.743-1.134a41.982,41.982,0,0,0-3.591-4.6,16.807,16.807,0,0,0,1.953-6.825Zm5.88.861h-4.809l-.84-.168v1.176l.84-.168h4.809V41.433c0,.861-.378,1.239-1.239,1.239H163.31v.882h3.276c1.344,0,1.932-.546,1.911-1.869V30.849h1.323l.84.168V29.841l-.84.168H168.5v-4.83c.273-.189.336-.273.336-.42,0-.189-.147-.273-.441-.273h-1.7Zm-5.46,3.318a32.162,32.162,0,0,1,2.52,4.557l1.785-1.281a14.65,14.65,0,0,0-3.843-3.675Zm22.512,3.318a8.449,8.449,0,0,0-2.709-3.171,9.874,9.874,0,0,0,1.05-.588l.336-.189H189.9V28.476h-6.825a15.78,15.78,0,0,0,3.486-2.625h-7.581l.084-.084.4-.4c.63-.1.756-.168.756-.4,0-.147-.147-.273-.336-.315l-1.68-.294a23.476,23.476,0,0,1-5.859,4.977l.21.546c.819-.315,1.344-.546,1.995-.861V32.7h5.334a31.039,31.039,0,0,1-7.518,2.982l.126.567a25.088,25.088,0,0,0,7.938-2.436,11.4,11.4,0,0,1,.777.861,27.681,27.681,0,0,1-8.778,3.843l.105.63a25.975,25.975,0,0,0,9.408-3.36,5.645,5.645,0,0,1,.5,1.176l-.063.042a21.786,21.786,0,0,1-4.263,2.646,29.078,29.078,0,0,1-5.775,2.1l.147.588a24.177,24.177,0,0,0,10.29-3.759,6.606,6.606,0,0,1,.063.924,4.5,4.5,0,0,1-.63,2.709c-.357.378-.651.483-1.449.483h-1.869v.882h2.31a2.9,2.9,0,0,0,2.163-.609,3.941,3.941,0,0,0,1.05-3.15,7.375,7.375,0,0,0-.483-2.688l.168-.042.147.21a13.418,13.418,0,0,0,6.258,5.418,8.383,8.383,0,0,1,1.155-1.785,15.58,15.58,0,0,1-7.077-4.011,24.152,24.152,0,0,0,4.872-2.121,2.08,2.08,0,0,0,.4.063c.273,0,.462-.147.462-.336,0-.1-.063-.189-.252-.336l-1.428-1.071a31.6,31.6,0,0,1-4.872,3.507Zm-.252-9.954a17.151,17.151,0,0,1-1.428,1.785h-6.552a17.347,17.347,0,0,0,2.52-1.785Zm-2.184,2.625v2.541h-5.124V29.316Zm1.617,0h5.292v2.541h-5.292ZM200.1,33.558V39c0,1.785.294,2.394,1.344,2.751a22.551,22.551,0,0,0,5.523.4c1.407,0,2.457-.042,3.885-.126V40.11a41.017,41.017,0,0,1-4.914.294,10.857,10.857,0,0,1-3.318-.315c-.42-.189-.525-.441-.525-1.281v-5.25h9.03l.945.189V32.4l-.945.189H202.1V27.426h6.951l.924.189V26.271l-.924.189H196.133l-.924-.189v1.344l.924-.189H200.1v5.166h-5.271l-.945-.189v1.344l.945-.189Zm31.6-.252.924.189V32.151l-.924.189h-16.17l-.924-.189v1.344l.924-.189h7.329a10.32,10.32,0,0,1-1.008,5.04,9.96,9.96,0,0,1-6.069,4.326l.168.714c3.129-.63,5.67-1.89,7.035-3.444,1.323-1.449,1.932-3.528,1.932-6.636ZM227.99,26.46H218.1l-.924-.189v1.344l.924-.189h9.891l.924.189V26.271Zm5.88-.126a4.147,4.147,0,0,0-2.478-2.184l-.336.294a8.44,8.44,0,0,1,1.407,2.646Zm-5.124-1.575a9.4,9.4,0,0,1,1.281,2.877l1.386-.672a4.007,4.007,0,0,0-2.289-2.478Zm16.842,17.913a10.4,10.4,0,0,0,6.237-3.8,14.7,14.7,0,0,0,3.045-6.909l-.651-.21c-1.386,3.948-4.011,7.161-6.762,8.274V26.46c.315-.21.42-.357.42-.546a.393.393,0,0,0-.4-.357L245.4,25.41l.189,1.26Zm-9.933.063a11.521,11.521,0,0,0,4.7-5c.861-1.869,1.239-4.326,1.239-8.19V27.174c.315-.21.42-.357.42-.546a.378.378,0,0,0-.4-.357l-2.142-.147.189,1.26v2.352c0,6.384-1.008,9.261-4.389,12.453Zm28.014.672V24.633H256.34a9.519,9.519,0,0,1,2.961,3,11.221,11.221,0,0,1,1.68,6.384A11.221,11.221,0,0,1,259.3,40.4a9.519,9.519,0,0,1-2.961,3Z" transform="translate(558.762 1202.149)" fill="#363636" stroke="rgba(0,0,0,0)" stroke-width="1"/>
    </g>
  </g>
</svg>
