<svg xmlns="http://www.w3.org/2000/svg" width="558" height="52" viewBox="0 0 558 52">
  <g id="label" transform="translate(-521 -1160)">
    <g id="bg" transform="translate(521 1160)" fill="none" stroke="#fff" stroke-width="1">
      <path d="M3,0H558a0,0,0,0,1,0,0V49a3,3,0,0,1-3,3H3a3,3,0,0,1-3-3V3A3,3,0,0,1,3,0Z" stroke="none"/>
      <path d="M3,.5H557.5a0,0,0,0,1,0,0V49a2.5,2.5,0,0,1-2.5,2.5H3A2.5,2.5,0,0,1,.5,49V3A2.5,2.5,0,0,1,3,.5Z" fill="none"/>
    </g>
    <g id="text" transform="translate(-141.806 -117.082)">
      <g id="日程" transform="translate(305.356 -536.628)">
        <g id="グループ_360" data-name="グループ 360" transform="translate(14.143)">
          <path id="パス_56" data-name="パス 56" d="M.817-15.181c.247-.171.3-.247.3-.38,0-.171-.133-.247-.4-.247H-.912v2.375c-.038,4.94-.57,7.771-1.786,9.69A11.818,11.818,0,0,1-8.74.969l.266.551C-2.926.133-.038-2.964.494-8.094c1.349,4.826,3.5,7.581,7.315,9.4A13.1,13.1,0,0,1,8.74-.551,12.587,12.587,0,0,1,3.059-4.883,16.228,16.228,0,0,1,.646-9.671C.76-11,.817-12.578.817-13.433ZM4.332-6.973a18.514,18.514,0,0,0,3.1-3.952c.4-.095.589-.247.589-.475,0-.114-.133-.266-.323-.323L5.8-12.35A29.356,29.356,0,0,1,3.762-7.277Zm-9.1-5.244-.779-.057a9.788,9.788,0,0,1-2.2,4.75L-5.947-6.4a5.47,5.47,0,0,0,.931-2.508,19.737,19.737,0,0,0,.247-2.869Z" transform="translate(831.406 1848.777)" fill="#fff"/>
          <g id="パス_55" data-name="パス 55" transform="translate(817.406 1827.777)" fill="none">
            <path d="M14,0A14,14,0,1,1,0,14,14,14,0,0,1,14,0Z" stroke="none"/>
            <path d="M 14 1 C 10.5275707244873 1 7.262990951538086 2.352239608764648 4.807609558105469 4.807609558105469 C 2.352239608764648 7.262990951538086 1 10.5275707244873 1 14 C 1 17.47241973876953 2.352239608764648 20.73701095581055 4.807609558105469 23.19239044189453 C 7.262990951538086 25.64776039123535 10.5275707244873 27 14 27 C 17.47241973876953 27 20.73701095581055 25.64776039123535 23.19239044189453 23.19239044189453 C 25.64776039123535 20.73701095581055 27 17.47241973876953 27 14 C 27 10.5275707244873 25.64776039123535 7.262990951538086 23.19239044189453 4.807609558105469 C 20.73701095581055 2.352239608764648 17.47241973876953 1 14 1 M 14 0 C 21.73197937011719 0 28 6.268009185791016 28 14 C 28 21.73197937011719 21.73197937011719 28 14 28 C 6.268009185791016 28 0 21.73197937011719 0 14 C 0 6.268009185791016 6.268009185791016 0 14 0 Z" stroke="none" fill="#fff"/>
          </g>
        </g>
        <path id="パス_54" data-name="パス 54" d="M-31.866-31.067A9.187,9.187,0,0,1-26.273-29.3a11.247,11.247,0,0,1,3.713,5.1,21.481,21.481,0,0,1,1.316,7.9A23.478,23.478,0,0,1-22.8-7.45a14.046,14.046,0,0,1-4.16,5.9A8.93,8.93,0,0,1-32.618.517,9.294,9.294,0,0,1-37.576-.917a10.18,10.18,0,0,1-3.643-3.831l1.5-.987a9.109,9.109,0,0,0,3.008,3.243A6.958,6.958,0,0,0-32.9-1.316q3.525,0,5.429-3.666a22.874,22.874,0,0,0,2.091-9.776,9.5,9.5,0,0,1-2.937,2.538,8.428,8.428,0,0,1-4.253,1.034,9.677,9.677,0,0,1-4.583-1.128,8.648,8.648,0,0,1-3.431-3.29,9.893,9.893,0,0,1-1.292-5.17A10.542,10.542,0,0,1-40.514-26.2a9.553,9.553,0,0,1,3.642-3.6A10.117,10.117,0,0,1-31.866-31.067Zm.235,18.142a5.442,5.442,0,0,0,3.972-1.6,8.4,8.4,0,0,0,2.233-3.807q-.329-5.5-2.139-8.366a5.558,5.558,0,0,0-4.912-2.867A4.393,4.393,0,0,0-36.542-27.4a11.1,11.1,0,0,0-1.292,5.734q0,4.371,1.762,6.556A5.474,5.474,0,0,0-31.631-12.925ZM-13.019.517a2.72,2.72,0,0,1-2-.823,2.72,2.72,0,0,1-.823-2,2.72,2.72,0,0,1,.823-2,2.72,2.72,0,0,1,2-.822,2.72,2.72,0,0,1,2,.822,2.72,2.72,0,0,1,.823,2,2.72,2.72,0,0,1-.823,2A2.72,2.72,0,0,1-13.019.517ZM8.319-16.45q6.58,2.115,6.58,7.8a8.075,8.075,0,0,1-1.528,4.935A9.764,9.764,0,0,1,9.424-.564,12.258,12.258,0,0,1,4.371.517,10.165,10.165,0,0,1-1.057-.94,10.733,10.733,0,0,1-4.794-4.747l1.5-.94a7.549,7.549,0,0,0,3.2,3.149A8.894,8.894,0,0,0,3.995-1.5a7.3,7.3,0,0,0,3.267-.752,6.054,6.054,0,0,0,2.491-2.3,6.989,6.989,0,0,0,.963-3.76,6.671,6.671,0,0,0-1.9-5.005,6.5,6.5,0,0,0-4.723-1.857H2.914v-1.457a7.965,7.965,0,0,0,3.243-.7,6.126,6.126,0,0,0,2.632-2.233,6.684,6.684,0,0,0,1.034-3.83,6.984,6.984,0,0,0-1.316-4.3A4.46,4.46,0,0,0,4.7-29.469,4.484,4.484,0,0,0,.681-27.425a10.31,10.31,0,0,0-1.527,5.1H-3.384v-5.64A9.3,9.3,0,0,1,.094-30.221,12.526,12.526,0,0,1,4.7-31.067a11.38,11.38,0,0,1,4.559.893,7.914,7.914,0,0,1,3.314,2.585,6.554,6.554,0,0,1,1.245,4Q13.818-18.847,8.319-16.45ZM31.631.517a8.719,8.719,0,0,1-5.64-1.974,12.616,12.616,0,0,1-3.784-5.569,23.537,23.537,0,0,1-1.34-8.248,23.34,23.34,0,0,1,1.34-8.225,12.534,12.534,0,0,1,3.807-5.546,8.812,8.812,0,0,1,5.663-1.974,8.879,8.879,0,0,1,5.664,1.951,12.366,12.366,0,0,1,3.807,5.523,23.34,23.34,0,0,1,1.34,8.225,23.17,23.17,0,0,1-1.363,8.249A12.86,12.86,0,0,1,37.294-1.48,8.747,8.747,0,0,1,31.631.517Zm.047-1.5q3.2,0,4.888-3.666t1.692-10.622q0-6.909-1.692-10.575t-4.888-3.666q-3.2,0-4.888,3.666T25.1-15.275q0,6.956,1.692,10.622T31.678-.987Z" transform="translate(779.061 1854.777)" fill="#fff"/>
        <path id="パス_53" data-name="パス 53" d="M-7.562-5.51A3.857,3.857,0,0,1-4.218-7.828,5.989,5.989,0,0,1-1.8-7.106l3.61,1.6a5.769,5.769,0,0,0,2.242.494c1.634,0,3.154-1.273,4.161-3.5l-.646-.38c-1.007,1.539-1.957,2.223-3.1,2.223A4.308,4.308,0,0,1,2.7-7.144l-4.18-1.8a5.865,5.865,0,0,0-2.242-.475A4.09,4.09,0,0,0-6.973-7.809,9.342,9.342,0,0,0-8.208-5.89Z" transform="translate(718.976 1849.777)" fill="#fff"/>
        <g id="グループ_359" data-name="グループ 359" transform="translate(-1.638)">
          <path id="パス_52" data-name="パス 52" d="M.817-15.181c.247-.171.3-.247.3-.38,0-.171-.133-.247-.4-.247H-.912v2.375c-.038,4.94-.57,7.771-1.786,9.69A11.818,11.818,0,0,1-8.74.969l.266.551C-2.926.133-.038-2.964.494-8.094c1.349,4.826,3.5,7.581,7.315,9.4A13.1,13.1,0,0,1,8.74-.551,12.587,12.587,0,0,1,3.059-4.883,16.228,16.228,0,0,1,.646-9.671C.76-11,.817-12.578.817-13.433ZM4.332-6.973a18.514,18.514,0,0,0,3.1-3.952c.4-.095.589-.247.589-.475,0-.114-.133-.266-.323-.323L5.8-12.35A29.356,29.356,0,0,1,3.762-7.277Zm-9.1-5.244-.779-.057a9.788,9.788,0,0,1-2.2,4.75L-5.947-6.4a5.47,5.47,0,0,0,.931-2.508,19.737,19.737,0,0,0,.247-2.869Z" transform="translate(688.406 1848.777)" fill="#fff"/>
          <g id="パス_51" data-name="パス 51" transform="translate(674.406 1827.777)" fill="none">
            <path d="M14,0A14,14,0,1,1,0,14,14,14,0,0,1,14,0Z" stroke="none"/>
            <path d="M 14 1 C 10.5275707244873 1 7.262990951538086 2.352239608764648 4.807609558105469 4.807609558105469 C 2.352239608764648 7.262990951538086 1 10.5275707244873 1 14 C 1 17.47241973876953 2.352239608764648 20.73701095581055 4.807609558105469 23.19239044189453 C 7.262990951538086 25.64776039123535 10.5275707244873 27 14 27 C 17.47241973876953 27 20.73701095581055 25.64776039123535 23.19239044189453 23.19239044189453 C 25.64776039123535 20.73701095581055 27 17.47241973876953 27 14 C 27 10.5275707244873 25.64776039123535 7.262990951538086 23.19239044189453 4.807609558105469 C 20.73701095581055 2.352239608764648 17.47241973876953 1 14 1 M 14 0 C 21.73197937011719 0 28 6.268009185791016 28 14 C 28 21.73197937011719 21.73197937011719 28 14 28 C 6.268009185791016 28 0 21.73197937011719 0 14 C 0 6.268009185791016 6.268009185791016 0 14 0 Z" stroke="none" fill="#fff"/>
          </g>
        </g>
        <path id="パス_50" data-name="パス 50" d="M-30.268-30.406a8.991,8.991,0,0,1,5.474,1.725A11.008,11.008,0,0,1-21.16-23.69a21.024,21.024,0,0,1,1.288,7.728A22.979,22.979,0,0,1-21.39-7.291a13.747,13.747,0,0,1-4.071,5.773A8.74,8.74,0,0,1-31,.506,9.1,9.1,0,0,1-35.857-.9a9.964,9.964,0,0,1-3.565-3.749l1.472-.966a8.915,8.915,0,0,0,2.944,3.174,6.81,6.81,0,0,0,3.726,1.15q3.45,0,5.313-3.588a22.387,22.387,0,0,0,2.047-9.568,9.3,9.3,0,0,1-2.875,2.484,8.248,8.248,0,0,1-4.163,1.012,9.472,9.472,0,0,1-4.485-1.1,8.464,8.464,0,0,1-3.358-3.22,9.683,9.683,0,0,1-1.265-5.06,10.318,10.318,0,0,1,1.334-5.313,9.35,9.35,0,0,1,3.565-3.519A9.9,9.9,0,0,1-30.268-30.406Zm.23,17.756a5.326,5.326,0,0,0,3.887-1.564,8.217,8.217,0,0,0,2.185-3.726q-.322-5.382-2.093-8.188a5.439,5.439,0,0,0-4.807-2.806,4.3,4.3,0,0,0-3.979,2.116,10.865,10.865,0,0,0-1.265,5.612q0,4.278,1.725,6.417A5.357,5.357,0,0,0-30.038-12.65ZM-11.822.506a2.662,2.662,0,0,1-1.955-.8,2.662,2.662,0,0,1-.805-1.955,2.662,2.662,0,0,1,.805-1.955,2.662,2.662,0,0,1,1.955-.8,2.662,2.662,0,0,1,1.955.8,2.662,2.662,0,0,1,.805,1.955A2.662,2.662,0,0,1-9.867-.3,2.662,2.662,0,0,1-11.822.506ZM11.454-1.656V0H-1.426V-1.656H3.312V-26.174L-1.242-23.23-2.208-24.7l7.59-5.106H6.946V-1.656Zm19.734-17.3a9.633,9.633,0,0,1,4.485,1.081,8.3,8.3,0,0,1,3.358,3.2A9.59,9.59,0,0,1,40.3-9.66a10.528,10.528,0,0,1-1.311,5.267A9.382,9.382,0,0,1,35.42-.782,9.837,9.837,0,0,1,30.452.506a8.833,8.833,0,0,1-5.474-1.771A11.172,11.172,0,0,1,21.367-6.3,21.082,21.082,0,0,1,20.1-13.938a22.378,22.378,0,0,1,1.564-8.671,13.893,13.893,0,0,1,4.163-5.773,8.985,8.985,0,0,1,5.635-2.024,8.489,8.489,0,0,1,4.3,1.15,10.354,10.354,0,0,1,3.427,3.266l-1.38,1.15a9.718,9.718,0,0,0-2.783-2.76,6.181,6.181,0,0,0-3.381-1.012q-3.45,0-5.359,3.611a22.353,22.353,0,0,0-2.139,9.545,9.3,9.3,0,0,1,2.875-2.484A8.248,8.248,0,0,1,31.188-18.952ZM31.234-.966a4.168,4.168,0,0,0,3.841-2.139A10.89,10.89,0,0,0,36.34-8.694q0-4.278-1.748-6.417a5.377,5.377,0,0,0-4.324-2.139,5.326,5.326,0,0,0-3.887,1.564,7.87,7.87,0,0,0-2.139,3.726Q24.564-6.624,26.45-3.8A5.592,5.592,0,0,0,31.234-.966Z" transform="translate(622.472 1854.777)" fill="#fff"/>
      </g>
      <path id="パス_49" data-name="パス 49" d="M-157.532-11l-.234-2.88c.216-.18.306-.288.306-.432,0-.2-.162-.324-.414-.324h-1.764l.216,1.008.216,2.736-4.95.324-.72-.108.072,1.116.7-.18,4.968-.324.378,4.572-6.48.414-.72-.09.072,1.116.7-.2,6.5-.414.486,5.76,1.674-.108-.486-5.76,6.138-.378.81.09-.09-1.134-.774.2-6.156.4-.378-4.572,5.256-.324.81.108-.072-1.152-.792.216Zm16.7,4.14,4.716-.63A8.152,8.152,0,0,1-139.1-3.636l.27.414a7.613,7.613,0,0,0,4.77-5.346l-6.858.9-.288-2.394c.2-.162.27-.27.27-.378a.275.275,0,0,0-.306-.27h-1.638l.144.918.27,2.322-2.844.378-.792-.036.144,1.116.756-.252,2.844-.378.918,7.92,1.548-.2Zm26.352-4.41a17.867,17.867,0,0,1-4.59,5.832,16.931,16.931,0,0,1-8.262,3.654l-.954.018.648,1.6c.108.252.27.4.45.4.2,0,.342-.126.468-.414,4.068-.918,6.624-2.142,8.838-4.23a15.172,15.172,0,0,0,3.906-6.624Zm-13.968-1.962a16.922,16.922,0,0,1,4.482,3.852l1.476-1.494a11.108,11.108,0,0,0-5.742-2.826Zm32.706,11.5C-98.2-4.212-102.47-9-104.54-11.646c-.828-1.062-1.152-1.368-1.476-1.368-.306,0-.72.324-1.206.954-2.16,2.664-2.952,3.6-4.158,4.9l-.9.756,1.008,1.368c.126.18.234.252.36.252.216,0,.324-.162.342-.5,1.656-2.376,3.726-5.292,4.194-5.9.2-.27.342-.414.414-.414s.216.126.36.342A114.763,114.763,0,0,0-97.016-.2Zm-1.818-13.338a1.829,1.829,0,0,0-1.854,1.8,1.828,1.828,0,0,0,1.818,1.836,1.824,1.824,0,0,0,1.818-1.818A1.817,1.817,0,0,0-97.556-15.066Zm-.054.72a1.106,1.106,0,0,1,1.116,1.1,1.091,1.091,0,0,1-1.1,1.1,1.1,1.1,0,0,1-1.1-1.1A1.111,1.111,0,0,1-97.61-14.346Zm19.242,7.074L-93.4-7.83v1.89l15.03-.54Zm17.892-4a17.867,17.867,0,0,1-4.59,5.832,16.931,16.931,0,0,1-8.262,3.654l-.954.018.648,1.6c.108.252.27.4.45.4.2,0,.342-.126.468-.414,4.068-.918,6.624-2.142,8.838-4.23a15.172,15.172,0,0,0,3.906-6.624ZM-74.444-13.23a16.922,16.922,0,0,1,4.482,3.852l1.476-1.494A11.108,11.108,0,0,0-74.228-13.7Zm30.69,8.424v4.59c0,.558-.234.792-.774.792H-46v.756h2.088c1.1,0,1.566-.432,1.548-1.458V-14.418h-5.8v3.024c0,5.31-.2,8.172-.648,9.414A6.7,6.7,0,0,1-50.9,1.062l.324.378c2.286-1.206,3.348-3.1,3.564-6.246Zm0-.72h-3.2V-5.58l.072-1.314c0-.108,0-.576.018-1.242,0-.144,0-.738.018-1.224h3.1Zm0-4.554h-3.078l.018-1.314v-2.3h3.06ZM-55-12.582v-1.836c.234-.162.288-.234.288-.36,0-.162-.126-.234-.378-.234h-1.26v2.43h-.774l-.72-.144v1.008l.72-.144h.774V-4.14H-57.47l-.72-.144v1.008l.72-.144h7.83l.72.144V-4.284l-.72.144h-.774v-7.722h.792l.72.144v-1.008l-.72.144h-.792v-1.836c.234-.162.288-.234.288-.342,0-.18-.126-.252-.378-.252h-1.26v2.43Zm0,.72h3.24V-9.9H-55Zm0,7.722V-6.426h3.24V-4.14Zm3.24-5.04v2.034H-55V-9.18ZM-58.028.792A11.3,11.3,0,0,0-54.9-1.656c.378,0,.612-.108.612-.288a.339.339,0,0,0-.18-.27l-1.206-.81A16.641,16.641,0,0,1-58.28.4Zm5.292-3.2A19.964,19.964,0,0,1-50.792.126l1.1-1.1a11.575,11.575,0,0,0-2.682-1.854ZM-28.346-.7V-7.074h-7.56V.36h1.386V-.7ZM-34.52-4.3V-6.354h4.788V-4.3Zm0,.72h4.788v2.16H-34.52Zm1.494-10.89h-6.5v15.8H-38.1v-9.99h5.076Zm-5.076.72h3.726v1.782H-38.1Zm3.726,2.5v1.872H-38.1V-11.25Zm3.168-3.222v5.814h5.31V-.342c0,.576-.252.828-.828.828h-1.512v.756h2.484c.9,0,1.278-.378,1.278-1.3V-14.472Zm1.35,3.222h3.96v1.872h-3.96Zm0-.72v-1.782h3.96v1.782ZM-8.982-3.906A1.226,1.226,0,0,0-10.224-2.7,1.21,1.21,0,0,0-9.018-1.476,1.214,1.214,0,0,0-7.794-2.7,1.214,1.214,0,0,0-8.982-3.906Zm0-8.28a1.226,1.226,0,0,0-1.242,1.206A1.225,1.225,0,0,0-9-9.756,1.21,1.21,0,0,0-7.794-10.98,1.214,1.214,0,0,0-8.982-12.186Z" transform="translate(883.762 1315.149)" fill="#fff"/>
    </g>
  </g>
</svg>
