<svg xmlns="http://www.w3.org/2000/svg" width="334" height="134" viewBox="0 0 334 134">
  <g id="intro-txt-sp" transform="translate(-601.762 -1147.149)">
    <path id="パス_71" data-name="パス 71" d="M0,0H334V134H0Z" transform="translate(601.762 1147.149)" fill="#fff"/>
    <path id="パス_70" data-name="パス 70" d="M-153.459-1.224h2.72V-20.808h-2.72v-1.224h5.814L-140.165-5l7.208-17.034h5.678v1.224H-130V-1.224h2.72V0h-8.33V-1.224h2.72v-17.17l-7.276,17.136h-1.564l-7.548-17.272V-1.224h2.618V0h-6.8Zm40.7,0V0h-9.554V-1.224h3.332V-20.808h-3.2v-1.224h9.282v1.224h-3.2V-1.224Zm4.964,0h2.72V-20.808h-2.72v-1.224h5.542L-92.021-5.508v-15.3h-2.72v-1.224h6.9v1.224h-2.72V0h-1.564l-11.492-18.734v17.51h2.72V0h-6.9Zm34.136,0V0h-9.554V-1.224h3.332V-20.808h-3.2v-1.224H-73.8v1.224h-3.2V-1.224Zm7.322-.846H-43.3l1.53.3V-4.08l-1.53.3h-23.04l-1.53-.3v2.31Zm3.84-16.89h15.24l1.53.3v-2.31l-1.53.3H-62.5l-1.53-.3v2.31Zm44.73,17.7.75-13.17h-11.19l-1.29-.27v1.92l1.29-.27h8.49l-.69,11.79h-10.71l-1.32-.27V.39l1.32-.27h17.31l1.32.27V-1.53l-1.32.27ZM22.7-12.12l-25.05-.93V-9.9l25.05-.9Zm15.54.06v7.77c0,2.55.42,3.42,1.92,3.93,1.23.39,3.72.57,7.89.57,2.01,0,3.51-.06,5.55-.18V-2.7a58.6,58.6,0,0,1-7.02.42,15.51,15.51,0,0,1-4.74-.45c-.6-.27-.75-.63-.75-1.83v-7.5h12.9l1.35.27v-1.92l-1.35.27h-12.9v-7.38h9.93l1.32.27v-1.92l-1.32.27H32.571l-1.32-.27v1.92l1.32-.27h5.67v7.38h-7.53l-1.35-.27v1.92l1.35-.27Zm47.55-.36,1.32.27v-1.92l-1.32.27h-23.1l-1.32-.27v1.92l1.32-.27h10.47c-.06,3.36-.51,5.64-1.44,7.2-1.56,2.82-4.74,5.04-8.67,6.18l.24,1.02c4.47-.9,8.1-2.7,10.05-4.92,1.89-2.07,2.76-5.04,2.76-9.48Zm-5.31-9.78H66.351l-1.32-.27v1.92l1.32-.27h14.13l1.32.27v-1.92Zm8.4-.18a5.924,5.924,0,0,0-3.54-3.12l-.48.42a12.058,12.058,0,0,1,2.01,3.78Zm-7.32-2.25a13.432,13.432,0,0,1,1.83,4.11l1.98-.96a5.725,5.725,0,0,0-3.27-3.54ZM108.021.96a14.863,14.863,0,0,0,8.91-5.43,21,21,0,0,0,4.35-9.87l-.93-.3c-1.98,5.64-5.73,10.23-9.66,11.82V-22.2c.45-.3.6-.51.6-.78a.561.561,0,0,0-.57-.51l-2.97-.21.27,1.8Zm-14.19.09a16.459,16.459,0,0,0,6.72-7.14c1.23-2.67,1.77-6.18,1.77-11.7v-3.39c.45-.3.6-.51.6-.78a.541.541,0,0,0-.57-.51l-3.06-.21.27,1.8v3.36c0,9.12-1.44,13.23-6.27,17.79Zm46.83-5.1h2.46v-5.1c2.04-.63,4.02-1.14,7.95-2.04a3.559,3.559,0,0,0,.9.15.537.537,0,0,0,.6-.54,1.324,1.324,0,0,0-.21-.57l-1.08-1.8-1.26.57c-1.41.42-2.43.72-2.88.87l-3.96,1.32-.09.03a4.422,4.422,0,0,0-.93-2.94,4.368,4.368,0,0,0-3.09-1.14,9.82,9.82,0,0,0-5.25,1.53c1.11-1.65,1.8-2.73,3.33-5.37h1.59c3.9-.03,5.85-.12,9.63-.45l.3-2.19-2.28.9c-3.66.27-4.38.3-8.37.36h-.12l1.38-2.46c.81-.27.96-.39.96-.69,0-.24-.21-.42-.63-.57l-2.37-.81-.42,1.32c-.87,1.74-1.23,2.49-1.65,3.24-1.68-.03-2.91-.06-5.4-.15l-1.86-.75.15,2.07c3.06.12,3.75.15,6.36.18a78.739,78.739,0,0,1-6.99,9.9l1.89,1.65,2.64-3.45c2.4-1.98,4.26-2.79,6.42-2.79a1.769,1.769,0,0,1,2.01,1.44,7.988,7.988,0,0,1,.27,2.1,32.943,32.943,0,0,0-3.84,1.71c-3.12,1.68-4.5,3.3-4.5,5.34a3.742,3.742,0,0,0,2.04,3.33c1.71.87,4.2,1.26,8.22,1.26a51.429,51.429,0,0,0,6.51-.36v-2.7a36.68,36.68,0,0,1-6.96.66c-3.18,0-5.37-.33-6.69-.96a1.865,1.865,0,0,1-1.02-1.65c0-1.68,1.86-3.09,6.24-4.71ZM-146.1,17.526A6.646,6.646,0,0,1-142.05,18.8a8.136,8.136,0,0,1,2.686,3.689,15.54,15.54,0,0,1,.952,5.712,16.984,16.984,0,0,1-1.122,6.409,10.161,10.161,0,0,1-3.009,4.267,6.46,6.46,0,0,1-4.1,1.5,6.723,6.723,0,0,1-3.587-1.037,7.364,7.364,0,0,1-2.635-2.771l1.088-.714A6.589,6.589,0,0,0-149.6,38.2a5.033,5.033,0,0,0,2.754.85,4.281,4.281,0,0,0,3.927-2.652,16.547,16.547,0,0,0,1.513-7.072,6.871,6.871,0,0,1-2.125,1.836,6.1,6.1,0,0,1-3.077.748,7,7,0,0,1-3.315-.816,6.256,6.256,0,0,1-2.482-2.38,7.157,7.157,0,0,1-.935-3.74,7.626,7.626,0,0,1,.986-3.927,6.911,6.911,0,0,1,2.635-2.6A7.319,7.319,0,0,1-146.1,17.526Zm.17,13.124a3.937,3.937,0,0,0,2.873-1.156,6.073,6.073,0,0,0,1.615-2.754,12.916,12.916,0,0,0-1.547-6.052,4.02,4.02,0,0,0-3.553-2.074,3.178,3.178,0,0,0-2.941,1.564,8.031,8.031,0,0,0-.935,4.148,7.449,7.449,0,0,0,1.275,4.743A3.96,3.96,0,0,0-145.926,30.65Zm33.344.98v7.56c0,.99-.42,1.41-1.38,1.41h-4.26v1.26h5.55c1.92,0,2.76-.78,2.73-2.55V15.91h-18.09v3.54c0,9.24-.18,12-.87,14.91a15.026,15.026,0,0,1-4.23,7.32l.57.72c4.23-2.61,6.09-5.58,6.75-10.77Zm0-1.2h-13.11c.18-2.16.21-3.15.24-5.16V24.19h12.87Zm0-7.44h-12.84l.03-3.54V17.11h12.81Zm18.96-1.29a88.507,88.507,0,0,1-6.24,18.72l2.67.75a100.537,100.537,0,0,0,6.18-19.53h.27a74.08,74.08,0,0,0,9.66-.75l.09-2.07-2.07.87c-2.37.3-3.9.42-7.56.57h-.09v-.09c.09-.36.15-.69.24-1.02.06-.33.24-1.2.42-2.13.39-.27.57-.48.57-.72a.633.633,0,0,0-.54-.54l-2.64-.51-.06,1.86c-.27,1.5-.39,2.07-.63,3.24h-4.89l-1.89-.63.18,2.01c4.44,0,4.98,0,6-.03Zm20.79-4.08a5.924,5.924,0,0,0-3.54-3.12l-.48.42a12.117,12.117,0,0,1,2.01,3.78Zm-15.21,14.46a8.342,8.342,0,0,0-1.02,3.93c0,3.48,2.88,5.07,9.24,5.07a33.162,33.162,0,0,0,5.16-.36V37.81a22.918,22.918,0,0,1-5.76.69q-7.11,0-7.11-3.42a8.551,8.551,0,0,1,.45-2.73Zm12.21-7.47a22.287,22.287,0,0,0-3.09-.21,16.139,16.139,0,0,0-8.19,1.89l.24.9a27.129,27.129,0,0,1,5.55-.48,20.955,20.955,0,0,1,5.49.6Zm-4.53-9.24a13.251,13.251,0,0,1,1.83,4.11l2.01-.96a5.851,5.851,0,0,0-3.3-3.54Zm34.29,8.31.09-.03a35.157,35.157,0,0,0,4.8-.54l.18-1.92-1.83.69c-1.26.18-2.13.27-3.24.36V17.05c.42-.27.6-.48.6-.75s-.24-.48-.6-.51l-2.85-.18.24,1.74v5.04c-.42.03-3.39.09-4.47.09-1.41,0-2.4-.03-4.38-.15l-1.38-.51.18,1.89c1.38.12,2.52.15,4.53.15,2.04,0,4.5-.03,5.52-.06v5.04c-.03,5.04-.87,7.44-3.39,9.63a11.94,11.94,0,0,1-4.98,2.46l.21.9a13.234,13.234,0,0,0,5.97-1.92c3.66-2.34,4.83-4.98,4.8-10.92Zm-15.99,14.94a43.159,43.159,0,0,1-1.05-10.47,69.45,69.45,0,0,1,.75-10.26c.42-.21.57-.39.57-.69s-.24-.48-.78-.54l-2.58-.33.12,1.71a98.583,98.583,0,0,0-.69,10.47A49.465,49.465,0,0,0-64.7,39.07Zm40.26,1.92a17.308,17.308,0,0,0,8.25-3,10.614,10.614,0,0,0,4.32-8.79c0-6.6-4.89-10.95-12.36-10.95a13.778,13.778,0,0,0-9,2.97A12.284,12.284,0,0,0-35,30.34c0,4.5,2.07,7.77,4.89,7.77,1.29,0,2.46-.66,3.78-2.07A18.4,18.4,0,0,0-23,30.25a48.826,48.826,0,0,0,2.55-10.89,8.086,8.086,0,0,1,4.62,1.53,9.186,9.186,0,0,1,3.69,7.65,10.465,10.465,0,0,1-5.13,9.09,17.538,17.538,0,0,1-4.77,1.98Zm-1.29-21.24a56.444,56.444,0,0,1-1.38,7.32c-1.5,5.7-3.84,9.93-5.52,9.93-1.41,0-2.55-2.67-2.55-6.09a11.786,11.786,0,0,1,2.91-7.86A9.491,9.491,0,0,1-23.092,19.3Zm43.2,10.95V25.9h2.76l1.2.24V24.46l-1.2.24h-6.9V20.11h5.1l1.2.24V18.67l-1.2.24h-5.1V16.15c.39-.3.48-.39.48-.6,0-.27-.21-.39-.63-.39h-2.34v3.75H8.768L7.6,18.67v1.68l1.17-.24h4.71V24.7H7.748l-1.2-.24v1.68l1.2-.24h9.87v4.35h-9.3l-1.2-.24v1.68l1.2-.24h9.3v8.37c-.03.96-.36,1.29-1.32,1.32h-2.94V42.4h4.23c1.77,0,2.52-.72,2.52-2.4V31.45H22.3l1.2.24V30.01l-1.2.24ZM1.688,42.22h2.34V31.36a22.312,22.312,0,0,0,3.36-1.89l-.18-.72c-1.71.6-2.43.84-3.18,1.08V22.96h1.89l1.2.24V21.52l-1.2.24H4.028V15.97c.39-.27.48-.39.48-.6,0-.27-.21-.39-.66-.39H1.688v6.78H-.622l.03-.09c.06-.36.12-.72.18-1.05,0-.06.12-.93.24-1.71.42-.27.6-.48.6-.66,0-.21-.21-.39-.45-.45l-2.19-.33a64.869,64.869,0,0,1-1.32,10.77l.93.27a25.015,25.015,0,0,0,1.77-5.55h2.52v7.56c-1.56.45-2.94.81-5.22,1.29l.81,2.16a.807.807,0,0,0,.57.48c.27,0,.45-.21.6-.69,1.47-.57,2.31-.93,3.24-1.32ZM8.8,33.76a22.255,22.255,0,0,1,3.36,4.83l2.25-2.19a20.161,20.161,0,0,0-4.92-3.39Zm27.36-8.19H43v-9.3H30.7v9.3h2.97v.15c-.06,7.47-1.5,11.91-4.8,14.85l.54.72c3.84-2.16,5.73-5.31,6.42-10.68h4.86c-.18,3.21-.3,4.71-.6,6.9s-.51,2.49-1.95,2.55h-2.79v1.26h3.9c1.92.03,2.79-.57,3.09-2.16a79.7,79.7,0,0,0,.84-9.75h-7.2c.12-1.23.18-2.46.18-3.72Zm-3.06-1.2v-6.9h7.44v6.9ZM46.178,36.1h2.4V18.7c.39-.27.48-.39.48-.6,0-.27-.21-.39-.63-.39h-2.25Zm2.19,5.97H52.3c1.83,0,2.61-.75,2.58-2.46V16.48c.36-.27.48-.39.48-.6,0-.27-.21-.39-.63-.39h-2.37v24c0,.93-.39,1.32-1.32,1.32h-2.67Zm25.47.33h2.4V33.82a19.615,19.615,0,0,0,11.52,7.41,12.9,12.9,0,0,1,1.11-2.46c-4.86-.78-9.84-3.21-12.36-5.97h10.02l1.2.24V31.36l-1.2.24H76.238V29.23c.39-.27.48-.39.48-.6,0-.27-.21-.39-.63-.39h-2.25V31.6H63.608l-1.2-.24v1.68l1.2-.24h9.12a30.159,30.159,0,0,1-11.46,7.74l.21.84a27.206,27.206,0,0,0,12.36-6.39Zm-2.31-24.69c.39-.42.69-.75,1.2-1.38.63-.15.93-.36.93-.63,0-.18-.21-.36-.51-.42l-2.43-.48a29.391,29.391,0,0,1-8.85,8.88l.48.78a24.427,24.427,0,0,0,7.32-4.89,14.713,14.713,0,0,0,3.93,4.77,45.854,45.854,0,0,1-12.33,4.83l.24.9a47.621,47.621,0,0,0,13.92-4.5,37.8,37.8,0,0,0,12.15,3.9,11.2,11.2,0,0,1,1.29-2.43,39.752,39.752,0,0,1-11.43-2.61,28.234,28.234,0,0,0,7.5-6.72Zm-1.14,1.2h10.47a29.626,29.626,0,0,1-5.61,4.47,12.6,12.6,0,0,1-4.89-4.47Zm27.27,23.31h2.37V21.79c.63-1.56,1.11-2.82,1.86-5.13.54-.09.78-.3.78-.6a.54.54,0,0,0-.48-.51l-2.58-.75a62.173,62.173,0,0,1-5.94,16.29l.69.51a33.926,33.926,0,0,0,3.3-4.86Zm8.22-20.55c.27-.69.48-1.29,1.08-3.03.57-.15.84-.39.84-.75,0-.27-.24-.45-.63-.54l-2.34-.51a36.331,36.331,0,0,1-3.78,10.92l.75.48a21.746,21.746,0,0,0,3.57-5.37h5.19v7.95h-7.89l-1.17-.24v1.68l1.17-.24h7.89V42.25h2.52V32.02h6.99l1.2.24V30.58l-1.2.24h-6.99V22.87h6.03l1.2.24V21.43l-1.2.24h-6.03V15.94c.39-.27.48-.39.48-.57,0-.3-.21-.42-.63-.42h-2.37v6.72Zm47.67,4.11a6.007,6.007,0,0,0-3.54-3.12l-.48.45a11.613,11.613,0,0,1,2.01,3.75Zm-7.56-2.25a12.984,12.984,0,0,1,1.83,4.14l2.01-.96a5.9,5.9,0,0,0-3.3-3.57Zm-19.17-5.64.21,2.07,18.21-.72a.573.573,0,0,1-.24.09,15.952,15.952,0,0,0-4.74,2.49,10.191,10.191,0,0,0-4.29,8.4,9.523,9.523,0,0,0,3.66,7.8c1.89,1.5,3.48,2.13,6.9,2.76l1.14-3.12c-3.09-.33-4.5-.81-6.18-2.04a7.079,7.079,0,0,1-2.94-6.09c0-4.11,2.37-7.29,6.84-9.15a17.577,17.577,0,0,1,6.42-1.32l.15-2.1-1.98.72-21.42.75ZM-18.3,57.62a6.007,6.007,0,0,0-3.54-3.12l-.48.42a12.058,12.058,0,0,1,2.01,3.78Zm-6.42.99a25.71,25.71,0,0,0-5.34-.45c-5.16,0-8.04.51-11.37,2.01l.24,1.02a50.544,50.544,0,0,1,8.46-.69,28.209,28.209,0,0,1,8.01.96ZM-41.64,69.5a9.531,9.531,0,0,0-1.62,5.07c0,2.43,1.74,4.41,4.77,5.43a28.088,28.088,0,0,0,7.77.87,64.533,64.533,0,0,0,8.7-.57V77.24a46.742,46.742,0,0,1-9.45.9c-6.84,0-10.11-1.56-10.11-4.83a7.61,7.61,0,0,1,.93-3.39Zm15.87-14.25a12.4,12.4,0,0,1,1.74,3.9l2.04-.96a5.989,5.989,0,0,0-3.24-3.33ZM-1.2,75.83V82.4H1.17V74.87A20.387,20.387,0,0,0,12.66,81.5a10.56,10.56,0,0,1,1.14-2.43c-4.65-.6-9.63-2.64-12.18-4.95h10.2l1.2.24V72.68l-1.2.24H1.17V71.36c.39-.27.48-.39.48-.6,0-.27-.21-.39-.63-.39H-1.2v2.55H-11.82l-1.2-.24v1.68l1.2-.24h9.24A30.456,30.456,0,0,1-13.8,80.81l.24.84c5.13-1.17,9.6-3.27,12.27-5.76Zm-3.87-9.24c1.71.33,2.94.6,4.86,1.05-2.73,1.5-5.97,2.22-11.94,2.7l.12.87c6.66-.06,11.46-1.02,14.34-2.88a60.449,60.449,0,0,1,8.07,3.09l1.83-2.01a54.545,54.545,0,0,0-8.28-2.34A12.773,12.773,0,0,0,6.45,63.5h4.08l1.2.24V62.06l-1.2.24H-2.16c.33-.45.57-.78,1.14-1.62.6-.12.9-.33.9-.6,0-.18-.21-.39-.48-.45l-2.16-.42c-.78,1.29-1.41,2.22-2.04,3.09h-5.67l-.9-.18a5.142,5.142,0,0,0,1.38-3.51H10.5a15.836,15.836,0,0,1-1.44,2.85l.6.54c2.34-1.62,3.45-2.85,4.14-4.59H1.14V55.79c.36-.27.48-.39.48-.6,0-.27-.21-.39-.63-.39H-1.44v2.61H-9.9v-.36a3.564,3.564,0,0,0-.06-.75h-.99a6.754,6.754,0,0,1-2.85,4.32l1.77,2.22.36-.39v1.29l1.2-.24h4.74c-.87,1.05-1.62,1.89-3.12,3.48l2.19.66c.57-.57.9-.87,1.11-1.14ZM3.84,63.5a10.139,10.139,0,0,1-2.52,3.12c-1.62-.27-4.02-.57-6.24-.81.39-.45,1.17-1.38,1.89-2.31Zm28.8,1.77a35.81,35.81,0,0,0,.6-4.41h8.67V78.89c0,1.17-.51,1.68-1.65,1.68h-3.3v1.26h4.68c2.07,0,2.91-.87,2.91-2.88V59.66H33.33c.09-1.05.12-2.01.12-3v-.87c.36-.27.45-.39.45-.6,0-.27-.21-.39-.6-.39H30.81v1.62c0,.48-.03,1.8-.12,3.24H20.25V82.01h2.64V60.86H30.6c-.36,6.15-2.16,9.48-6.81,12.66l.6.84c4.38-2.04,6.96-4.68,8.01-8.16a49.394,49.394,0,0,1,6.36,7.98l2.25-2.37A31.006,31.006,0,0,0,33,65.48Z" transform="translate(768.221 1185.649)" fill="#26d6c3" stroke="rgba(0,0,0,0)" stroke-width="1"/>
  </g>
</svg>
