<svg xmlns="http://www.w3.org/2000/svg" width="300" height="48" viewBox="0 0 300 48">
  <g id="グループ_396" data-name="グループ 396" transform="translate(-814 -2691)">
    <rect id="長方形_174" data-name="長方形 174" width="300" height="48" transform="translate(814 2691)" fill="#ed510d"/>
    <path id="パス_52" data-name="パス 52" d="M-85.022-9.128l.56.112V-9.8l-.56.112H-91.91c.154-.392.238-.658.406-1.19.266-.1.378-.2.378-.336s-.1-.21-.308-.266l-1.176-.28A20.137,20.137,0,0,1-93.2-9.688h-3.234l-.546-.112v.784l.546-.112h3.038c-.322.8-.336.854-.84,1.9l-.014.042-.616-.112V-6.02a18.38,18.38,0,0,1-2.3,3.206l.238.336a12.261,12.261,0,0,0,2.058-1.946v5.46h1.12v-7a18,18,0,0,0,1.61-3.164ZM-87.976-4.9V-7.728c.182-.126.224-.182.224-.28,0-.126-.1-.182-.294-.182h-1.106V-4.9h-2.66l-.56-.112v.784l.56-.112h2.66V-.112H-92.54l-.546-.112V.56l.546-.112h7.7l.56.112V-.224l-.56.112h-3.136V-4.34h2.548l.56.112v-.784l-.56.112Zm13.44-5.558v-.84c.182-.126.224-.182.224-.28,0-.126-.1-.182-.294-.182h-1.2v1.3h-5.138V-7.91c0,5.264-.182,6.706-1.092,8.708l.322.182a7.176,7.176,0,0,0,1.6-3.15,28.233,28.233,0,0,0,.35-5.74V-9.9h9.87l.56.112v-.784l-.56.112ZM-75.068-.9V.98h1.022V-.9h4.186l.56.112v-.784l-.56.112h-4.186V-2.534h3.584V-6.72h-3.584V-7.77h3.99l.56.112v-.784l-.56.112h-3.99v-.644c.182-.126.224-.182.224-.28,0-.126-.1-.182-.294-.182h-.952V-8.33h-3.514l-.546-.112v.784l.546-.112h3.514v1.05H-78.5v4.186h3.43v1.078h-4l-.56-.112v.784l.56-.112Zm0-2.2h-2.38V-4.382h2.38Zm0-1.848h-2.38V-6.16h2.38Zm1.022-1.218h2.506v1.218h-2.506Zm0,1.778h2.506v1.288h-2.506Zm16.6-2.31a7.675,7.675,0,0,0,.952-1.3c.238-.042.364-.126.364-.252a.254.254,0,0,0-.182-.2l-1.05-.322a14.407,14.407,0,0,1-.672,2.072h-1.834a12.919,12.919,0,0,0,1.456-2.856h3.01a8.793,8.793,0,0,1-.56,1.526l.308.21a5.09,5.09,0,0,0,1.61-2.3H-58.2l.294-.882c.266-.084.392-.182.392-.308s-.112-.224-.336-.266l-1.036-.2a12.622,12.622,0,0,1-.434,1.652h-1.526v-.21c0-.112,0-.168-.014-.35h-.462a3.382,3.382,0,0,1-1.092,2.156l.756.966a3.261,3.261,0,0,0,.784-2H-59.5a15.253,15.253,0,0,1-2.758,4.872l.238.28A8.259,8.259,0,0,0-60.886-5.4V1.05h1.036V.35h5.25l.56.112V-.322l-.56.112h-2.226V-1.974h1.5l.56.112v-.784l-.56.112h-1.5V-4.06h1.5l.56.112v-.784l-.56.112h-1.5V-6.132h2l.546.112V-6.8l-.546.112ZM-59.85-.21V-1.974h2.016V-.21Zm0-2.324V-4.06h2.016v1.526Zm0-2.086V-6.132h2.016V-4.62Zm-5.012-2.1a18.13,18.13,0,0,0,.952-3.64h1.54l.546.112v-.784l-.546.112h-3.906l-.56-.112v.784l.56-.112h1.2A20.912,20.912,0,0,1-66.92-3.822l.238.336a9.228,9.228,0,0,0,1.008-1.456v5.4h1.008V-.616h2.31v-6.1Zm.2.56h1.3v4.984h-1.3Zm23.94-4.2c-.084,1.554-.224,3.3-.35,4.116-.1.56-.224.714-.672.714H-42.7v.588h1.512c.812-.028,1.064-.238,1.2-.994.126-.63.28-2.87.364-4.984H-46.1l-.56-.112v.784l.56-.112h1.932a11.343,11.343,0,0,1-.2,1.694,16.787,16.787,0,0,0-1.764-.518l-.2.35c.784.378,1.148.574,1.764.91A4.88,4.88,0,0,1-46.928-5l.182.35a4.875,4.875,0,0,0,3.052-2.744c.532.35.8.532,1.47,1.008l.616-1.036A16.36,16.36,0,0,0-43.4-8.3a14.185,14.185,0,0,0,.308-2.058ZM-50.232.1h1.708V.63h.966V-3.4H-51.2V.8h.966Zm0-.518V-2.884h1.708V-.42ZM-44.9-3.85V-.294c-.014.7.308,1.008.994,1.008H-42.1c.672.014.952-.28,1.008-.98l.1-1.4-.574-.07L-41.636-.7c-.042.336-.14.434-.476.434h-1.274c-.35-.014-.462-.126-.476-.462V-3.416c.168-.126.21-.182.21-.252,0-.126-.1-.182-.294-.182ZM-48.1-11.13h-2.548l-.546-.112v.812l.546-.112H-48.1l.546.112v-.812Zm.546,1.932H-51.24l-.56-.112V-8.5l.56-.112h3.682L-47-8.5V-9.31ZM-48.1-7.266h-2.548l-.546-.112v.812l.546-.112H-48.1l.546.112v-.812Zm0,1.932h-2.548l-.546-.112v.812l.546-.112H-48.1l.546.112v-.812Zm1.806,1.96A7.269,7.269,0,0,1-47.334-.322l1.022.7a8.336,8.336,0,0,0,.56-3.234c0-.154,0-.252-.014-.434Zm2.66-1.19a14.868,14.868,0,0,1,1.176,1.876l.924-.826A7.105,7.105,0,0,0-43.386-4.83Zm2.548,1.288A16.092,16.092,0,0,1-39.97-.1l1.05-.756A8.724,8.724,0,0,0-40.74-3.5Zm10.864-3.556a1.521,1.521,0,0,0-1.54,1.512A1.521,1.521,0,0,0-30.24-3.794,1.527,1.527,0,0,0-28.728-5.32,1.53,1.53,0,0,0-30.226-6.832ZM-13.02-3.36h2.548v-7.812h-9.3V-3.36h2.324l-.014.042C-17.6-1.232-18.676-.21-21.56.56l.126.42c3.752-.574,5.012-1.61,5.25-4.34h2V-.406c.014.84.462,1.106,1.806,1.12h2.114C-9.3.714-8.876.336-8.806-.63l.126-1.526L-9.3-2.2l-.07,1.036c-.042.574-.28.784-.826.784h-1.932c-.672-.014-.9-.126-.9-.434Zm-5.572-.56V-5.978h6.944V-3.92Zm0-2.618V-8.316h6.944v1.778Zm0-2.338v-1.736h6.944v1.736ZM-4.34,1.036H-3.3v-6.51a13.949,13.949,0,0,1,.9,2.268l.8-.938A7.826,7.826,0,0,0-3.3-6.02v-1.5h.9l.56.112V-8.19l-.56.112h-.9v-2.38c.294-.07.49-.112,1.022-.266a2.242,2.242,0,0,0,.364.056.236.236,0,0,0,.252-.21c0-.07-.014-.112-.126-.21l-.7-.672a16.468,16.468,0,0,1-3.864,1.274l.056.392a18.879,18.879,0,0,0,1.96-.182v2.2H-5.8l-.56-.112v.784l.56-.112h1.3A25.463,25.463,0,0,1-6.44-1.75l.266.224A12.189,12.189,0,0,0-4.34-4.8ZM1.638-7.336H-1.246l-.546-.112v.784l.546-.112H5.88l.56.112v-.784l-.56.112H2.688V-8.428H4.8l.56.112V-9.1l-.56.112H2.688v-.966H5.572l.56.112v-.784l-.56.112H2.688v-.7c.182-.126.224-.182.224-.28,0-.126-.1-.182-.294-.182h-.98v1.162H-.98l-.546-.112v.784l.546-.112H1.638v.966H-.5l-.56-.112v.784l.56-.112H1.638Zm-2.744,6.3H5.53V-5.964H-1.106ZM-.084-3.08V-4H4.48v.924Zm0,.518H4.48v1.008H-.084Zm0-2.884H4.48v.924H-.084ZM-2.646,1.12A15.182,15.182,0,0,0,.98.182.929.929,0,0,0,1.162.2C1.386.2,1.6.1,1.6-.028a.321.321,0,0,0-.154-.21L.6-.812A11.8,11.8,0,0,1-2.772.756ZM2.814-.252a15.305,15.305,0,0,1,2.8,1.372L6.44.2a14.641,14.641,0,0,0-3.4-.854ZM14.322-.6c-.434.1-.756.168-1.6.322L13.1.742c.07.2.168.308.28.308.154,0,.252-.112.322-.364a26.947,26.947,0,0,0,5.32-2.156A11.476,11.476,0,0,0,20.8.546a14.39,14.39,0,0,1,.742-1.274A9.736,9.736,0,0,1,18.564-4.2a9.71,9.71,0,0,0,2.114-1.974c.35-.084.448-.154.448-.308,0-.1-.056-.168-.21-.252l-.98-.56a14.241,14.241,0,0,1-1.568,2.716,17.031,17.031,0,0,1-1.3-4.172h3.752l.56.112v-.784l-.56.112h-3.64v-1.806c.168-.126.224-.182.224-.28,0-.126-.1-.182-.308-.182h-1.12V-9.31H12.782l-.546-.112v.784l.546-.112h2.884l-.014.042a19.9,19.9,0,0,1-4.06,6.664l.238.308a11.079,11.079,0,0,0,2.492-2.422ZM15.4-5.754A16.261,16.261,0,0,0,16.674-8.4a16.239,16.239,0,0,0,2.1,6.538c-1.134.378-2.1.672-3.374,1.008ZM11.494-8.666c.21-.532.378-1.05.756-2.226.224-.042.336-.126.336-.28,0-.112-.084-.2-.224-.238l-1.176-.35a24.982,24.982,0,0,1-.742,3A29.08,29.08,0,0,1,8.68-4.158l.294.224A14.091,14.091,0,0,0,10.4-6.188V1.036h1.092Zm15.12,9.7h.952V-3.178a11.234,11.234,0,0,1,1.708,2.086l.77-.868a7.239,7.239,0,0,0-2.478-1.61v-.686h2.226V-7.882H27.566v-1.47h2.072l.546.112v-.784l-.546.112H27.566v-1.3c.182-.126.224-.182.224-.266a.2.2,0,0,0-.224-.2h-.952v1.764h-2.17l-.56-.112v.784l.56-.112h2.17v1.47H24.4v3.626h1.9A14.127,14.127,0,0,1,23.8-.154l.2.308a9.049,9.049,0,0,0,2.618-2.982Zm0-5.852h-1.26V-7.322h1.26Zm.952,0V-7.322H28.84v2.506Zm3.22-4.046v7.07h5.138v-7.07h-3.01a10.091,10.091,0,0,0,.966-1.75h2.156l.56.112v-.784l-.56.112H30.7l-.546-.112v.784l.546-.112h1.89c-.112.77-.126.91-.308,1.75Zm1.022,2.086V-8.3h3.066v1.526Zm0,.56h3.066v1.54H31.808Zm0,2.1h3.066v1.764H31.808Zm2.114,3.052A21.924,21.924,0,0,1,35.966,1.05L36.68,0a9.623,9.623,0,0,0-2.52-1.442ZM29.386,1.12a7.556,7.556,0,0,0,2.94-1.526h.112c.238,0,.448-.112.448-.252a.333.333,0,0,0-.14-.238l-.826-.658a9.531,9.531,0,0,1-2.688,2.3ZM47.67-7.84l.1,4.466a7.63,7.63,0,0,0-1.974-.28c-1.554,0-2.6.812-2.6,2.016a1.843,1.843,0,0,0,.49,1.246,3.684,3.684,0,0,0,2.576.9A2.721,2.721,0,0,0,48.65-.518a2.473,2.473,0,0,0,.308-1.288V-1.89A8.512,8.512,0,0,1,51.016-.378l.77-1.036a9.705,9.705,0,0,0-2.842-1.652l-.1-4.816c.784-.042,1.876-.154,2.618-.266L51.52-9.17l-.91.42a16.284,16.284,0,0,1-1.778.21l-.042-2.086c.182-.126.252-.238.252-.364a.258.258,0,0,0-.252-.238L47.5-11.312l.112.714.042,2.128c-.742.028-1.33.042-1.82.042-.42,0-1.05-.014-1.876-.042l-.84-.266.1.91c.924.028,1.344.042,1.988.042.49,0,.49,0,2.422-.056ZM47.81-2v.084a1.985,1.985,0,0,1-.224.854,1.813,1.813,0,0,1-1.568.616,3.064,3.064,0,0,1-1.764-.518.888.888,0,0,1-.364-.728c0-.714.672-1.162,1.722-1.162a5.169,5.169,0,0,1,2.184.49ZM41.692.28a32.886,32.886,0,0,1-.378-4.886,46.621,46.621,0,0,1,.434-5.782c.21-.14.28-.238.28-.35,0-.154-.126-.266-.336-.294l-1.176-.2v.728a52.549,52.549,0,0,0-.406,6.2A34.706,34.706,0,0,0,40.418.5ZM64.568-10.178a12.009,12.009,0,0,0-2.814-.266,11.489,11.489,0,0,0-5.25.938l.1.476a23.873,23.873,0,0,1,3.962-.322,14.146,14.146,0,0,1,4,.49ZM56.392-5.054a4.412,4.412,0,0,0-.756,2.366,2.794,2.794,0,0,0,2.226,2.52,12.317,12.317,0,0,0,3.584.42,29.848,29.848,0,0,0,4.1-.266V-1.442a22.165,22.165,0,0,1-4.4.42c-3.206,0-4.732-.728-4.732-2.254a3.551,3.551,0,0,1,.434-1.582ZM73.976-9.03a.348.348,0,0,1,.014-.112c.028-.224.126-.882.224-1.582.21-.112.294-.21.294-.322s-.1-.182-.308-.224l-1.19-.21.014.784c-.126,1.022-.2,1.568-.21,1.694H72.17c-.588,0-.924-.014-1.652-.07l-.742-.294.1.924c1.274.07,1.666.084,2.156.084h.686l-.014.042A33.166,33.166,0,0,1,71.414-3.01l1.106.266a4.993,4.993,0,0,1,4.41-2.31,3.023,3.023,0,0,1,1.876.5,2.046,2.046,0,0,1,.77,1.638c0,1.218-.952,2.2-2.674,2.7a14.672,14.672,0,0,1-3.458.546l.042.5A15.908,15.908,0,0,0,77.924.378c1.96-.56,3.052-1.736,3.052-3.234A2.706,2.706,0,0,0,79.7-5.166a4.906,4.906,0,0,0-2.576-.616,7.265,7.265,0,0,0-2.674.49,5.8,5.8,0,0,0-1.414.812,30.1,30.1,0,0,0,.826-3.906,58.645,58.645,0,0,0,6.748-.5L80.7-9.9l-.84.42a48.976,48.976,0,0,1-5.838.448ZM87.206-2.9a5.761,5.761,0,0,1,1.316-1.526,5.631,5.631,0,0,1,3.556-1.288c1.582,0,2.562.812,2.562,2.114S93.688-1.246,91.924-.56a15.839,15.839,0,0,1-3.472.826l.056.476A15.208,15.208,0,0,0,93.1.014C94.99-.7,96.04-1.946,96.04-3.5a2.706,2.706,0,0,0-.826-1.988,4.152,4.152,0,0,0-2.926-.952,6.25,6.25,0,0,0-4.76,2.03l.322-4.228c.2-.14.266-.224.266-.35s-.1-.224-.266-.238l-1.3-.14.1.728L86.268-2.9Zm.854-8.036a11.568,11.568,0,0,1,4.55,1.5l1.008-1.176a6.6,6.6,0,0,0-1.33-.462,13.7,13.7,0,0,0-3-.364c-.308,0-.588.014-1.19.042Z" transform="translate(964 2720)" fill="#fff"/>
  </g>
</svg>
