<svg xmlns="http://www.w3.org/2000/svg" width="265.678" height="93.697" viewBox="0 0 265.678 93.697">
  <g id="mv02-sp" transform="translate(-0.528 -95)">
    <path id="パス_61" data-name="パス 61" d="M.528.764H1.961V-9.556H.528V-10.2H3.592L7.533-1.225l3.8-8.976h2.992v.645H12.89V.764h1.433v.645H9.934V.764h1.433V-8.284L7.533.746H6.709l-3.977-9.1V.764h1.38v.645H.528Zm20.013,0v.645H15.506V.764h1.756V-9.556H15.578V-10.2h4.891v.645H18.785V.764Zm1.182,0h1.433V-9.556H21.723V-10.2h2.92l5.393,8.707V-9.556H28.6V-10.2H32.24v.645H30.807V1.409h-.824L23.927-8.463V.764H25.36v.645H21.723Zm16.555,0v.645H33.243V.764H35V-9.556H33.315V-10.2h4.891v.645H36.522V.764Zm7.74-11.144h2.336a24.994,24.994,0,0,0,1.1,7.023A13.069,13.069,0,0,0,52.79,2.255,11.356,11.356,0,0,1,53.919.672a10.7,10.7,0,0,1-1.834-2.038,15.4,15.4,0,0,1-2.148-4.64,19.722,19.722,0,0,1-.674-4.578c0-.11,0-.3.016-.533H46.018l-.627-.125v.988ZM39.841,2.4c2.3-1.756,4.045-5.314,4.75-9.735.345-.11.486-.251.486-.439s-.125-.3-.439-.376l-1.5-.376a26.394,26.394,0,0,1-1.082,5.3A14.254,14.254,0,0,1,39.5,2.02ZM63-10.02h5.173l.611.125V-10.8l-.611.125H56.6l-.627-.125v.909l.627-.125h4.97v4.844H57.4L56.772-5.3v.909l.627-.125h4.17V1.048H55.894L55.267.923v.909l.627-.125H68.859l.627.125V.923l-.627.125H63V-4.517h4.358l.627.125V-5.3l-.627.125H63ZM78.923-7.308A21.373,21.373,0,0,0,84.3-11.164H73.029L72.4-11.29v.909l.627-.125h8.622a18.036,18.036,0,0,1-2.869,2.681l-1.285-.3V-5h-6.02l-.627-.125v.909l.627-.125H77.5V1.017c0,.517-.219.737-.721.737H74.988V2.49h2.493c1,0,1.458-.423,1.442-1.4v-5.44h5.722l.627.125v-.909L84.645-5H78.923Zm13.211-3.574h.752L87.064,1.874h-.752ZM98.279.764h1.433V-9.556H98.279V-10.2h3.064l3.942,8.976,3.8-8.976h2.992v.645h-1.433V.764h1.433v.645h-4.39V.764h1.433V-8.284L105.285.746h-.824l-3.977-9.1V.764h1.38v.645H98.279Zm20.013,0v.645h-5.034V.764h1.756V-9.556h-1.684V-10.2h4.891v.645h-1.684V.764Zm1.182,0h1.433V-9.556h-1.433V-10.2h2.92l5.393,8.707V-9.556h-1.433V-10.2h3.637v.645h-1.433V1.409h-.824l-6.056-9.872V.764h1.433v.645h-3.637Zm16.555,0v.645h-5.035V.764h1.756V-9.556h-1.684V-10.2h4.891v.645h-1.684V.764Zm12.49-6.127V1.048c-.016.533-.188.705-.705.721H146.34v.658h2.085c.972,0,1.38-.376,1.38-1.285V-5.364h1.238l.627.125v-.878l-.627.125H149.8v-2.32c.188-.141.251-.2.251-.314,0-.141-.11-.2-.345-.2h-1.191v2.837h-4.248l-.611-.125v.878l.611-.125Zm-4.3-4.75h-5.769v2.665c0,5.832-.219,7.541-1.207,9.735l.361.219A8.143,8.143,0,0,0,139.4-1.053a33.88,33.88,0,0,0,.376-6.4V-9.487h11.068l.627.125v-.878l-.627.125H145.65v-1.129c.188-.141.251-.2.251-.314,0-.141-.11-.2-.329-.2h-1.348Zm-2.43,12.6h1.223V-6.336c.235-.47.376-.8.69-1.474.408-.125.517-.2.517-.376,0-.141-.094-.235-.267-.282l-1.317-.455a25.178,25.178,0,0,1-2.822,6.443l.329.314a10.419,10.419,0,0,0,1.646-2.007Zm2.477-6.1a10.254,10.254,0,0,1,1.677,3.073l1.207-1a6.645,6.645,0,0,0-2.571-2.352Zm16.492-5.111v-2.43c.2-.141.251-.2.251-.314,0-.141-.11-.2-.329-.2H159.4v2.947h-5.706v7.462h1.364V-2.276H159.4V2.569h1.364V-2.276h4.468v.894h1.364V-8.719Zm0,.627h4.468V-2.9h-4.468ZM159.4-2.9h-4.342V-8.092H159.4Zm14.81-7.979h.753L169.139,1.874h-.752ZM180.354.764h1.433V-9.556h-1.433V-10.2h3.064l3.942,8.976,3.8-8.976h2.992v.645h-1.433V.764h1.433v.645h-4.39V.764h1.433V-8.284L187.359.746h-.824l-3.977-9.1V.764h1.38v.645h-3.583Zm20.013,0v.645h-5.035V.764h1.756V-9.556H195.4V-10.2H200.3v.645h-1.684V.764Zm1.182,0h1.433V-9.556h-1.433V-10.2h2.92l5.393,8.707V-9.556h-1.433V-10.2h3.637v.645h-1.433V1.409h-.824l-6.056-9.872V.764h1.433v.645h-3.637Zm16.555,0v.645h-5.034V.764h1.756V-9.556h-1.684V-10.2h4.891v.645h-1.684V.764Zm3.868,1.805h1.238V-5.4a13.728,13.728,0,0,1,1.176,2.869l1.082-.925a7.444,7.444,0,0,0-2.257-2.43v-1.96h1.474l.627.125v-.878l-.627.125H223.21v-2.681c.2-.141.251-.2.251-.314,0-.141-.11-.2-.329-.2h-1.16v3.2h-1.928l-.627-.125v.878l.627-.125H221.8a23.511,23.511,0,0,1-2.477,6.678l.345.282a14.538,14.538,0,0,0,2.3-3.653Zm10.958-.282v-12.9h-6.9v13h1.254V1.22h4.342V2.286Zm-1.3-9.375h-4.342v-2.9h4.342Zm0,.627v3.073h-4.342V-6.461Zm0,3.7V.593h-4.342V-2.762Zm16.978,1.709.627.125v-.878l-.627.125h-3.935c.11-.643.125-.8.188-1.348h3.433V-7.684h-7.541v4.656h2.932a6.6,6.6,0,0,1-.172,1.348h-3.261l-.611-.125v.878l.611-.125h3.088c-.486,1.364-1.913,2.477-4.248,3.292l.125.439c2.837-.564,4.656-1.771,5.22-3.465A6.4,6.4,0,0,0,248.81,2.6a5.136,5.136,0,0,1,.611-1.207A7.557,7.557,0,0,1,244.7-1.053Zm-6.647-2.6V-5.1h5.111v1.442Zm0-2.069V-7.057h5.111v1.333Zm-4.64,8.293h1.176v-8.23a11.021,11.021,0,0,1,1.1,2.43l.894-.878a4.941,4.941,0,0,0-1.991-1.928V-7.794h1.1l.611.125v-.878l-.611.125h-1.1v-2.728c.2-.141.251-.2.251-.314,0-.141-.11-.2-.329-.2h-1.1v3.245h-1.6l-.627-.125v.878l.627-.125h1.474A26.327,26.327,0,0,1,235-1.162l.314.267a13.377,13.377,0,0,0,2.007-3.653Zm4.8-12.024v1.27h1.176v-1.27h2.163v1.27h1.176v-1.27h1.881l.627.125v-.878l-.627.125h-1.881v-1.05c.2-.157.251-.219.251-.314,0-.157-.094-.219-.329-.219h-1.1v1.583h-2.163v-1.05c.2-.157.251-.219.251-.314,0-.157-.094-.219-.329-.219h-1.1v1.583h-1.787l-.627-.125v.878l.627-.125Zm17.793,6.71h3.841V-8.5h-5.064a13.846,13.846,0,0,0,1.3-1.9h4.28l.627.125v-.878l-.627.125H251.993v2.085a65.585,65.585,0,0,1-.219,6.835,13.811,13.811,0,0,1-1.1,4.186l.329.267a9.393,9.393,0,0,0,1.834-3.637c.329-1.3.439-3.01.47-7.65V-10.4h5.111a16.288,16.288,0,0,1-.455,1.9h-3.229v5.753h3.872V1.283c0,.5-.219.721-.705.721h-1.176v.658h1.866c.925,0,1.333-.376,1.317-1.238Zm-3.935-5.126h6.49v1.866h-6.49Zm6.49,4.5h-6.49V-5.38h6.49Zm-9.39,5.487a9.411,9.411,0,0,0,3.559-2.885c.329-.047.517-.188.517-.345a.379.379,0,0,0-.219-.282l-1.176-.627a12.274,12.274,0,0,1-2.932,3.794Zm7.98-3.637a16.222,16.222,0,0,1,2.853,3.465L265.02.719A12.369,12.369,0,0,0,261.352-1.9Z" transform="translate(0.5 185.438)" fill="#fff" stroke="rgba(0,0,0,0)" stroke-width="1"/>
    <path id="パス_60" data-name="パス 60" d="M1.386-1.512h3.36V-25.7H1.386v-1.512H8.568l9.24,21.042,8.9-21.042h7.014V-25.7h-3.36V-1.512h3.36V0H23.436V-1.512H26.8v-21.21L17.808-1.554H15.876L6.552-22.89V-1.512H9.786V0h-8.4Zm46.914,0V0H36.5V-1.512h4.116V-25.7H36.666v-1.512H48.132V-25.7H44.184V-1.512Zm2.772,0h3.36V-25.7h-3.36v-1.512h6.846L70.56-6.8V-25.7H67.2v-1.512h8.526V-25.7h-3.36V0H70.434l-14.2-23.142v21.63H59.6V0H51.072Zm38.808,0V0h-11.8V-1.512h4.116V-25.7H78.246v-1.512H89.712V-25.7H85.764V-1.512Zm38.64,0V0h-9.744V-1.512h3.066l-3.024-8.526h-9.03l-3.024,8.526h3.066V0h-7.854V-1.512h2.982l9.282-25.7h1.974l9.324,25.7ZM118.23-11.634l-3.864-10.878H114.2l-3.864,10.878ZM140.868.5a9.3,9.3,0,0,1-6.678-2.352Q131.712-4.2,131.712-8.61V-25.7h-3.36v-1.512h10.29V-25.7h-3.36V-8.19q0,3.528,1.743,5.166a6.443,6.443,0,0,0,4.6,1.638,6.7,6.7,0,0,0,4.683-1.659,6.561,6.561,0,0,0,1.827-5.1V-25.7h-3.318v-1.512h8.442V-25.7H149.94V-7.98a8.037,8.037,0,0,1-2.478,6.174A9.282,9.282,0,0,1,140.868.5ZM160.23-1.512h3.7V-25.7h-5.208l-2.184,5.8H154.98v-7.308h21.378v7.308H174.8l-2.1-5.8H167.5V-1.512h3.7V0H160.23ZM190.6.5a9.3,9.3,0,0,1-6.678-2.352Q181.44-4.2,181.44-8.61V-25.7h-3.36v-1.512h10.29V-25.7h-3.36V-8.19q0,3.528,1.743,5.166a6.443,6.443,0,0,0,4.6,1.638,6.7,6.7,0,0,0,4.683-1.659,6.561,6.561,0,0,0,1.827-5.1V-25.7h-3.318v-1.512h8.442V-25.7h-3.318V-7.98a8.037,8.037,0,0,1-2.478,6.174A9.282,9.282,0,0,1,190.6.5Zm14.658-2.016h3.36V-25.7h-3.36v-1.512h7.182l9.24,21.042,8.9-21.042h7.014V-25.7h-3.36V-1.512h3.36V0H227.3V-1.512h3.36v-21.21L221.676-1.554h-1.932L210.42-22.89V-1.512h3.234V0h-8.4Zm35.112,0h3.36V-25.7h-3.36v-1.512h6.846L259.854-6.8V-25.7h-3.36v-1.512h8.526V-25.7h-3.36V0h-1.932l-14.2-23.142v21.63h3.36V0h-8.526ZM14.154,8.784q6.174,0,9.03,3.633a14.878,14.878,0,0,1,2.856,9.471A18.8,18.8,0,0,1,24.8,28.713a11.818,11.818,0,0,1-3.906,5.25A10.786,10.786,0,0,1,14.154,36H1.386V34.488h3.36V10.3H1.386V8.784Zm0,25.7a6.5,6.5,0,0,0,6.174-3.654,19.047,19.047,0,0,0,1.932-8.988q0-5.334-1.995-8.442A6.758,6.758,0,0,0,14.154,10.3H8.316V34.488Zm40.026,0V36H47.754l-7.98-12.558H35.868V34.488h3.318V36H28.938V34.488H32.3V10.3h-3.36V8.784H41.16q4.116,0,6.174,2.037a6.988,6.988,0,0,1,2.058,5.187,7.182,7.182,0,0,1-1.554,4.683,7.273,7.273,0,0,1-4.242,2.5l7.56,11.3ZM35.868,21.846H40.7a4.3,4.3,0,0,0,3.423-1.617,6.192,6.192,0,0,0,1.365-4.137,6.368,6.368,0,0,0-1.323-4.2A4.284,4.284,0,0,0,40.7,10.3h-4.83Zm31.71,12.642V36h-11.8V34.488h4.116V10.3H55.944V8.784H67.41V10.3H63.462V34.488ZM95.634,10.3h-3.15L83.454,36H81.522l-9.2-25.7h-3.36V8.784H79.422V10.3h-3.36l7.35,20.622L90.762,10.3H87.4V8.784h8.232ZM117.81,28.608V36H97.02V34.488h3.36V10.3H97.02V8.784h20.454v7.308h-1.6l-2.226-5.8h-9.7V20.838h6.594V17.6h1.932v8.064h-1.932V22.434H103.95V34.488h10.038l2.226-5.88Zm5.922,7.854a2.51,2.51,0,1,1,1.785-.735A2.43,2.43,0,0,1,123.732,36.462Z" transform="translate(0.5 122.216)" fill="#fff"/>
  </g>
</svg>
