<svg id="sec03-btn02" xmlns="http://www.w3.org/2000/svg" width="320" height="48" viewBox="0 0 320 48">
  <path id="パス_66" data-name="パス 66" d="M0,0H320V48H0Z"/>
  <path id="パス_63" data-name="パス 63" d="M-91.819-.5h1.12V-8.568h-1.12v-.5h2.394l3.08,7.014,2.968-7.014h2.338v.5h-1.12V-.5h1.12V0h-3.43V-.5h1.12v-7.07l-3,7.056h-.644L-90.1-7.63V-.5h1.078V0h-2.8Zm16.758,0V0H-79V-.5h1.372V-8.568h-1.316v-.5h3.822v.5h-1.316V-.5Zm2.044,0h1.12V-8.568h-1.12v-.5h2.282l4.214,6.8v-6.3h-1.12v-.5H-64.8v.5h-1.12V0h-.644l-4.732-7.714V-.5h1.12V0h-2.842Zm14.056,0V0h-3.934V-.5h1.372V-8.568h-1.316v-.5h3.822v.5h-1.316V-.5Zm12.208-5.544V-.322c-.014.476-.168.63-.63.644H-48.7V.91h1.862C-45.969.91-45.6.574-45.6-.238v-5.81H-44.5l.56.112V-6.72l-.56.112H-45.6V-8.68c.168-.126.224-.182.224-.28,0-.126-.1-.182-.308-.182h-1.064v2.534h-3.794l-.546-.112v.784l.546-.112Zm-3.836-4.242h-5.152v2.38c0,5.208-.2,6.734-1.078,8.694l.322.2A7.272,7.272,0,0,0-54.9-2.2a30.256,30.256,0,0,0,.336-5.712V-9.73h9.884l.56.112V-10.4l-.56.112h-4.634V-11.3c.168-.126.224-.182.224-.28,0-.126-.1-.182-.294-.182h-1.2ZM-52.759.966h1.092V-6.916c.21-.42.336-.714.616-1.316.364-.112.462-.182.462-.336,0-.126-.084-.21-.238-.252L-52-9.226a22.484,22.484,0,0,1-2.52,5.754l.294.28a9.3,9.3,0,0,0,1.47-1.792Zm2.212-5.446a9.157,9.157,0,0,1,1.5,2.744l1.078-.9a5.934,5.934,0,0,0-2.3-2.1ZM-34.7-9.044v-2.17c.182-.126.224-.182.224-.28,0-.126-.1-.182-.294-.182h-1.148v2.632h-5.1V-2.38h1.218v-.91h3.878V1.036H-34.7V-3.29h3.99v.8h1.218V-9.044Zm0,.56h3.99V-3.85H-34.7ZM-35.917-3.85h-3.878V-8.484h3.878Zm20.244-2.128h6.314l.56.112V-6.65l-.56.112h-11.76l-.56-.112v.784l.56-.112h.7V-.63c-.112.028-.182.028-.378.056-.294.042-.588.084-.882.112L-21.287.56c.056.14.154.224.252.224s.2-.084.266-.28a28.609,28.609,0,0,0,4.06-1.386v2h1.036ZM-16.709-4.27v1.246h-2.674V-4.27Zm-2.674-.56V-5.978h2.674V-4.83Zm2.674,2.366v1.12l-.28.056c-.7.168-1.722.378-2.394.49V-2.464Zm1.456,3.584A7.656,7.656,0,0,0-12.145-.56,7.157,7.157,0,0,0-9.4,1.036,7.055,7.055,0,0,1-8.8-.056,7.768,7.768,0,0,1-11.445-1.3,11.956,11.956,0,0,0-9.457-5h-5.026l-.56-.112v.784l.56-.112h.168a7.722,7.722,0,0,0,1.582,3.262A7.151,7.151,0,0,1-15.421.77Zm4.4-5.558A11.184,11.184,0,0,1-12.173-1.89a6.5,6.5,0,0,1-1.652-2.548Zm-9-6.818v3.738h9.31v-3.738Zm1.12,3.178V-9.142H-11.7v1.064Zm0-1.624V-10.7H-11.7V-9.7ZM-4.011-4.228A12.382,12.382,0,0,1-6.559-.35l.2.308a10.071,10.071,0,0,0,2.7-2.716l.028-.042V1.036h1.092V-2.912a10.925,10.925,0,0,1,1.456,1.89L-.357-2A6.564,6.564,0,0,0-2.2-3.136c-.28-.112-.28-.126-.336-.14v-.952h2.03l.56.112V-4.9l-.56.112h-2.03V-6.5H-.287l.546.112v-.784l-.546.112H-2.051A17.931,17.931,0,0,0-.987-9.52h.518l.56.112v-.784l-.56.112H-2.527v-1.134c.182-.126.224-.182.224-.28,0-.126-.1-.182-.294-.182H-3.675v1.6H-5.8l-.56-.112v.784l.56-.112h.448l.014.042a14.96,14.96,0,0,1,.462,2.142l.028.14.028.14h-1.19l-.546-.112v.784l.546-.112h2.38v1.708H-5.8l-.56-.112v.784l.56-.112Zm1.9-5.292A22.957,22.957,0,0,1-2.513-7.1l-.014.042H-4.613l.882-.56A8.045,8.045,0,0,0-4.893-9.478l-.028-.042Zm3.962-1.036L.749-10.962V-9.24A42.253,42.253,0,0,1,.525-3.01,6.777,6.777,0,0,1-1.2.756l.238.294A5.619,5.619,0,0,0,1.505-2.506a16.577,16.577,0,0,0,.336-3.92H3.675V1.036H4.8V-6.426h.966l.56.112V-7.1l-.56.112H1.855v-3.108a16.7,16.7,0,0,0,3.458-.434,1.453,1.453,0,0,0,.322.042c.112,0,.238-.084.238-.182a.256.256,0,0,0-.084-.14l-.812-.84A15.977,15.977,0,0,1,1.9-10.57ZM20.7-9.128l.56.112V-9.8l-.56.112H13.811c.154-.392.238-.658.406-1.19.266-.1.378-.2.378-.336s-.1-.21-.308-.266l-1.176-.28a20.137,20.137,0,0,1-.588,2.072H9.289L8.743-9.8v.784l.546-.112h3.038c-.322.8-.336.854-.84,1.9l-.014.042-.616-.112V-6.02a18.38,18.38,0,0,1-2.3,3.206l.238.336a12.261,12.261,0,0,0,2.058-1.946v5.46h1.12v-7a18,18,0,0,0,1.61-3.164ZM17.745-4.9V-7.728c.182-.126.224-.182.224-.28,0-.126-.1-.182-.294-.182H16.569V-4.9h-2.66l-.56-.112v.784l.56-.112h2.66V-.112H13.181l-.546-.112V.56l.546-.112h7.7l.56.112V-.224l-.56.112H17.745V-4.34h2.548l.56.112v-.784l-.56.112Zm13.44-5.558v-.84c.182-.126.224-.182.224-.28,0-.126-.1-.182-.294-.182h-1.2v1.3H24.773V-7.91c0,5.264-.182,6.706-1.092,8.708L24,.98a7.176,7.176,0,0,0,1.6-3.15,28.233,28.233,0,0,0,.35-5.74V-9.9h9.87l.56.112v-.784l-.56.112ZM30.653-.9V.98h1.022V-.9h4.186l.56.112v-.784l-.56.112H31.675V-2.534h3.584V-6.72H31.675V-7.77h3.99l.56.112v-.784l-.56.112h-3.99v-.644c.182-.126.224-.182.224-.28,0-.126-.1-.182-.294-.182h-.952V-8.33H27.139l-.546-.112v.784l.546-.112h3.514v1.05h-3.43v4.186h3.43v1.078h-4l-.56-.112v.784l.56-.112Zm0-2.2h-2.38V-4.382h2.38Zm0-1.848h-2.38V-6.16h2.38ZM31.675-6.16h2.506v1.218H31.675Zm0,1.778h2.506v1.288H31.675ZM46.711-7.14H43.435l-.546-.112v.784l.546-.112h7.686l.56.112v-.784l-.56.112h-3.3V-8.3h2.366l.56.112v-.784l-.56.112H47.817V-9.968h2.814l.546.112v-.784l-.546.112H47.817v-.686c.182-.126.224-.182.224-.28,0-.126-.1-.182-.294-.182H46.711v1.148h-2.7l-.56-.112v.784l.56-.112h2.7v1.106H44.569l-.56-.112v.784l.56-.112h2.142ZM47.5.378V.966h2.114c.7,0,.994-.294.994-1.008V-5.628h-6.58V1.036h1.092V-1.6H49.5v1.33c0,.448-.2.644-.658.644Zm-2.38-2.534v-1.2H49.5v1.2Zm0-1.764V-5.068H49.5V-3.92ZM39.571-4.942a6.052,6.052,0,0,0,.5-2.9c0-.476-.014-.882-.07-1.862h-.476A10.939,10.939,0,0,1,38.8-6.048Zm1.246-6.734V1.036h1.106v-12.25c.168-.126.224-.182.224-.28,0-.126-.1-.182-.294-.182Zm1.288,2.2a7.837,7.837,0,0,1,.882,2.058l.84-.784a3.712,3.712,0,0,0-1.47-1.47ZM61.677-6.286V-10.6h3.276c-.126,2.618-.168,2.73-1.064,2.744h-1.12v.588h1.54c.882.014,1.3-.2,1.484-.7a16.624,16.624,0,0,0,.266-3.192H60.6V1.036h1.078V.7l.21.252A9.189,9.189,0,0,0,64.029-.966,9.563,9.563,0,0,0,66.171.924,7.231,7.231,0,0,1,66.8-.2,10.549,10.549,0,0,1,64.617-1.82a11.272,11.272,0,0,0,1.442-4.466Zm.462.56a8.83,8.83,0,0,0,1.344,4.032A9.915,9.915,0,0,1,61.677.546V-5.726Zm2.716,0a11.287,11.287,0,0,1-.91,3.164,7.046,7.046,0,0,1-1.386-3.164ZM59.6-7.252l.56.112v-.784l-.56.112H57.561V-9.59h1.5l.56.112v-.784l-.56.112h-1.5V-11.3c.182-.126.224-.182.224-.28,0-.126-.1-.182-.294-.182h-.98v1.61H55.027l-.546-.112v.784l.546-.112h1.484v1.778h-2.03l-.56-.112v.784l.56-.112h.448A18.33,18.33,0,0,1,55.4-4.816h-.826l-.56-.112v.784l.56-.112h1.932V-2.38H54.9l-.56-.112v.784l.56-.112h1.61V1.05h1.05V-1.82h1.624l.56.112v-.784l-.56.112H57.561V-4.256h1.946l.56.112v-.784l-.56.112H58.079a10.756,10.756,0,0,0,1.246-2.436Zm-1.47,0a22.56,22.56,0,0,1-.56,2.436h-1.9l.8-.644a7.672,7.672,0,0,0-1.106-1.792ZM90.209-5.32l-9.156-4.858V-9.3L88.529-5.32,81.053-1.344v.882Z" transform="translate(160.819 29.76)" fill="#fff"/>
</svg>
