<svg xmlns="http://www.w3.org/2000/svg" xmlns:xlink="http://www.w3.org/1999/xlink" width="658.58" height="292.108" viewBox="0 0 658.58 292.108">
  <defs>
    <linearGradient id="linear-gradient" x1="0.5" x2="0.5" y2="1" gradientUnits="objectBoundingBox">
      <stop offset="0" stop-color="#26d6c3"/>
      <stop offset="1" stop-color="#07a393"/>
    </linearGradient>
    <filter id="パス_103" x="0" y="221.334" width="658.58" height="70.774" filterUnits="userSpaceOnUse">
      <feOffset dy="3" input="SourceAlpha"/>
      <feGaussianBlur stdDeviation="3" result="blur"/>
      <feFlood flood-opacity="0.161"/>
      <feComposite operator="in" in2="blur"/>
      <feComposite in="SourceGraphic"/>
    </filter>
  </defs>
  <g id="sec01-01" transform="translate(8.676 0.564)">
    <g id="_20万円分" data-name="20万円分" transform="translate(115.882 90.037)">
      <path id="パス_77" data-name="パス 77" d="M520.435,302.61a2002.625,2002.625,0,0,1,1.858-1.956,1444.33,1444.33,0,0,1,1.857-1.954,12.757,12.757,0,0,0,.93-.98,12.513,12.513,0,0,0,.926-.975,12.775,12.775,0,0,0,.931-.979,12.566,12.566,0,0,0,.927-.977,933.145,933.145,0,0,0,1.858-1.956,12.588,12.588,0,0,0,.928-.977,12.817,12.817,0,0,0,.929-.977,1868.465,1868.465,0,0,1,1.858-1.956,12.836,12.836,0,0,0,.928-.978,13,13,0,0,0,.926-.974,13.206,13.206,0,0,0,.932-.982,12.905,12.905,0,0,0,.926-.976,5706.608,5706.608,0,0,1,2.785-2.932,6037.149,6037.149,0,0,0,1.855-1.953,13.317,13.317,0,0,0,.933-.982,1134.7,1134.7,0,0,1,1.855-1.952,13.461,13.461,0,0,0,.928-.977,13.266,13.266,0,0,0,.931-.98c.323-.309.633-.634.926-.975a13.33,13.33,0,0,0,.929-.978q.486-.464.927-.975a2450.44,2450.44,0,0,1,1.859-1.957q.488-.466.93-.98c.324-.309.633-.635.926-.975q.488-.465.93-.978.487-.464.928-.977.489-.466.931-.98c.325-.31.635-.636.928-.977q.487-.465.926-.975.489-.468.931-.98c.323-.309.633-.635.925-.974q.488-.467.93-.979c.325-.311.636-.638.93-.978q.488-.466.927-.976.488-.468.93-.979.487-.466.926-.975.488-.467.93-.979.488-.466.928-.977c.326-.311.636-.638.929-.977q.489-.468.929-.978.488-.467.928-.976c.326-.313.637-.64.93-.98q.49-.469.93-.979c2.823-2.711,4.513-6.591,5.16-11.839.414-3.4.751-7.266,1.07-12.3a46.032,46.032,0,0,1,1.679-1.974,3060.789,3060.789,0,0,1,1.985-2.279,6757.574,6757.574,0,0,1,1.988-2.282,22.551,22.551,0,0,0,2.763-3.647,89.33,89.33,0,0,1,4.968-9.941l.065-.119a7.73,7.73,0,0,0-3.124-10.539c-11.684-6.259-18.624-14.935-19.541-24.432a7.729,7.729,0,0,0-7.694-6.987H544.375l-2.783-.531a10.217,10.217,0,0,0-9.275,5.742,7.647,7.647,0,0,0-.7,1.164l-2.757-1.259a9.51,9.51,0,0,0-11.058,5.365,2890.868,2890.868,0,0,0-1.443,2.666,32496.651,32496.651,0,0,1-1.442,2.665,5907.166,5907.166,0,0,1-1.442,2.663,3193.036,3193.036,0,0,1-1.442,2.663,3493.583,3493.583,0,0,1-1.442,2.664,8259.182,8259.182,0,0,1-1.443,2.666,6866.486,6866.486,0,0,1-1.443,2.664,7437.068,7437.068,0,0,0-1.442,2.664,8238.216,8238.216,0,0,0-1.441,2.664,2807.679,2807.679,0,0,0-1.44,2.66q-.419.562-.843,1.112V174.045a7.73,7.73,0,0,0-7.73-7.73H427.13a7.694,7.694,0,0,0-4.663,1.565,7.729,7.729,0,0,0-7.122-2.345l-2.783.53h-69.88l-2.783-.53a7.732,7.732,0,0,0-7.41,2.675,52.737,52.737,0,0,0-7.316-13.073,40.18,40.18,0,0,0-13.633-11.377,36.813,36.813,0,0,0-16.675-3.985,44.755,44.755,0,0,0-17.783,3.6,39.656,39.656,0,0,0-15,11.451,46.942,46.942,0,0,0-5.647,8.775c-.154-.316-.342-.688-.554-1.076-.034-.062-.068-.123-.1-.181-.218-.452-.413-.834-.617-1.207-.034-.061-.068-.122-.1-.186-.169-.353-.377-.77-.619-1.21a33.242,33.242,0,0,0-9.49-10.92,40.01,40.01,0,0,0-12.482-6.136,47.407,47.407,0,0,0-13.331-1.949,40.321,40.321,0,0,0-19.913,5.187,44.465,44.465,0,0,0-15.6,15.1,10.542,10.542,0,0,0,1.851,10.817,20472.25,20472.25,0,0,0,2.043,2.772,27317.86,27317.86,0,0,0,2.043,2.773,4638.022,4638.022,0,0,1,2.043,2.772,7.7,7.7,0,0,0,1.022,1.387,241413.158,241413.158,0,0,1,2.043,2.772,24011.32,24011.32,0,0,0,2.043,2.772,4949.331,4949.331,0,0,1,2.044,2.774,3598.825,3598.825,0,0,1,2.043,2.772,11426.87,11426.87,0,0,0,2.042,2.771,2864.981,2864.981,0,0,1,2.043,2.772,6384.24,6384.24,0,0,0,2.043,2.772,23435.926,23435.926,0,0,0,2.044,2.773,10020.171,10020.171,0,0,0,2.043,2.772,7.766,7.766,0,0,0,.741,1.065l-25.42,28.846a7.729,7.729,0,0,0-1.931,5.111v5.058a11.438,11.438,0,0,0,3.937,7.019,4096.3,4096.3,0,0,1,2.021,1.926,2264.236,2264.236,0,0,1,2.023,1.928,7.85,7.85,0,0,0,1.011.963,4755.839,4755.839,0,0,1,2.021,1.927,4448.618,4448.618,0,0,1,3.034,2.891,4306.644,4306.644,0,0,1,3.033,2.89,7.811,7.811,0,0,0,1.011.964,1751.9,1751.9,0,0,0,2.023,1.927,5656.5,5656.5,0,0,1,3.035,2.893,4193.791,4193.791,0,0,1,2.02,1.924,7482.568,7482.568,0,0,0,3.033,2.891,16028.958,16028.958,0,0,0,3.036,2.894,11872.3,11872.3,0,0,1,2.02,1.925,3852.825,3852.825,0,0,1,2.024,1.929,3519.455,3519.455,0,0,1,2.021,1.925,12614.834,12614.834,0,0,0,3.033,2.891,47967.033,47967.033,0,0,0,3.033,2.89A185388.906,185388.906,0,0,1,229.8,293.1a136322.47,136322.47,0,0,1,3.033,2.89,3045.055,3045.055,0,0,0,3.033,2.891,4135.066,4135.066,0,0,0,3.033,2.89,7.726,7.726,0,0,0,1.011.964c.116.133.241.257.366.381H519.95c.162-.169.332-.33.485-.51" transform="translate(-182.396 -139.774)" fill="url(#linear-gradient)"/>
      <path id="パス_102" data-name="パス 102" d="M431.4,250.571h9.584V216.4h48.5v24.586c.084,3.25-1.416,4.75-4.667,4.667H474.155v4.334h16.251c6,.167,8.835-2.667,8.668-8.667V178.315H431.4Zm38.253-68.256H489.49V212.4H469.655Zm-28.669,0h19.085V212.4H440.986Zm97.1,5.917c2.167-.417,3.084-1,3.084-2.168,0-.75-.416-1.25-1.583-1.75l-9.668-4.417c-6.418,15.5-12.835,26.336-20.5,35.086l2.417,3.084c10.334-6.833,18.418-16,26.252-29.835m26.086-12.751H547.916l-3.5-.667v5.667l3.5-.667h11.418a50.5,50.5,0,0,0,14.418,29.836H526.914l-3.5-.666v5.334l3.5-.667h8.168v.249c-1.417,18.669-8,27.336-25.669,34l1,3.751c23.919-5.084,32.836-14.836,34.753-38H564.5c-.5,11.5-1.418,22.418-2.168,27-.667,4.416-1.833,5.5-5.5,5.584H546.416v4.333h16.418c6,.084,8.667-2.5,9.5-9.25.75-6.168,1.25-14.168,1.833-27.669l.167-3.417a58.269,58.269,0,0,0,8.084,6.417,97.9,97.9,0,0,1,5.334-10.668c-14-7.5-22.418-18.418-23.585-30.5m-217.944,2.583-3.5-.667v5.667l3.5-.667h20.252v3.833c-.084,30.67-8,51.005-23.752,61.172l2,3.5c18.252-7.834,27.752-21.752,30.836-45.087h26.086c-.834,14.667-2.417,30-3.584,35.253-.666,3-2.5,4.334-5.833,4.167H380.977V249.9h17.168c6.334,0,9.334-2.166,10.417-7.584,1.584-8,2.917-21.835,3.834-40.836H376.06c.5-5.167.75-9.918.75-15.252V182.4h40.753l3.5.667V177.4l-3.5.667Zm-22.877-13.907a32.37,32.37,0,0,0-11.008-9.223,29.015,29.015,0,0,0-13.2-3.161,36.9,36.9,0,0,0-14.727,2.975,31.871,31.871,0,0,0-12.087,9.26,46.16,46.16,0,0,0-8.145,16.029q-2.975,9.744-2.975,23.356a70.462,70.462,0,0,0,1,11.9,61.4,61.4,0,0,0,2.975,11.157,49.646,49.646,0,0,0,4.872,9.744,35.636,35.636,0,0,0,6.731,7.735,29.8,29.8,0,0,0,8.591,5.132,28.357,28.357,0,0,0,10.413,1.86,34.663,34.663,0,0,0,14.727-3.2,33.1,33.1,0,0,0,12.05-9.632,48.831,48.831,0,0,0,8.145-16.141,77.212,77.212,0,0,0,3.012-22.8,65.849,65.849,0,0,0-2.827-20.12,47.671,47.671,0,0,0-7.55-14.876m-3.5,59.356a39.2,39.2,0,0,1-3.347,11.38A21.629,21.629,0,0,1,309.959,243a17.1,17.1,0,0,1-10.525,3.087,16.84,16.84,0,0,1-9.3-2.53,22.73,22.73,0,0,1-6.731-6.768,41.015,41.015,0,0,1-4.612-9.781,77.92,77.92,0,0,1-2.827-11.566q-1-6.025-1.413-12.124t-.41-11.455a87.428,87.428,0,0,1,.93-12.83,38.591,38.591,0,0,1,3.347-11.268A21.227,21.227,0,0,1,285,159.733a17.545,17.545,0,0,1,10.636-3.049,16.691,16.691,0,0,1,8.925,2.38,22.371,22.371,0,0,1,6.657,6.4,38.474,38.474,0,0,1,4.649,9.372,75.352,75.352,0,0,1,2.938,11.343,115.644,115.644,0,0,1,1.525,12.273q.446,6.286.446,12.161a89.117,89.117,0,0,1-.93,12.905m-93.1-2.492q5.205-5.8,10.265-10.674a112.857,112.857,0,0,0,8.963-9.632A48.44,48.44,0,0,0,252.3,190.9a25.55,25.55,0,0,0,2.417-11.157,24.64,24.64,0,0,0-2.789-12.012,25.456,25.456,0,0,0-7.289-8.4,32.136,32.136,0,0,0-10.078-4.946,39.5,39.5,0,0,0-11.157-1.636,32.538,32.538,0,0,0-16.141,4.2A36.667,36.667,0,0,0,194.4,169.476l5.652,3.2a29.17,29.17,0,0,1,9.893-9.632,26.424,26.424,0,0,1,6.322-2.678,25.478,25.478,0,0,1,6.843-.93,17.8,17.8,0,0,1,7.55,1.562,17.268,17.268,0,0,1,5.8,4.314,19.292,19.292,0,0,1,3.719,6.545,25.551,25.551,0,0,1,1.3,8.331,26.975,26.975,0,0,1-1.451,8.48,53.3,53.3,0,0,1-3.868,8.813,78.232,78.232,0,0,1-5.578,8.74q-3.161,4.314-6.582,8.256l-27.6,31.314v5.058h59.43v-11.9H210.24Z" transform="translate(-186.667 -144.044)" fill="#fff"/>
    </g>
    <g id="帯" transform="translate(0 226.996)">
      <g transform="matrix(1, 0, 0, 1, -8.68, -227.56)" filter="url(#パス_103)">
        <path id="パス_103-2" data-name="パス 103" d="M643.08,405.165H2.5l20.614-26.387L2.5,352.391H643.08l-20.614,26.387Z" transform="translate(6.5 -125.06)" fill="#26d6c3"/>
      </g>
      <path id="パス_109" data-name="パス 109" d="M4.862,1.924h1.9V-9.646h.052l1.118-.26.234-.052.26-.052c.208.754.26.962.468,1.794l1.69-.936A9.751,9.751,0,0,0,7.9-13.26l-.6.416a14.759,14.759,0,0,1,.858,2.028l-3.718.208.026-.052a49.927,49.927,0,0,0,4.836-6.032c.546-.13.78-.312.78-.572a.384.384,0,0,0-.234-.338l-1.846-1.04a51.191,51.191,0,0,1-4.81,8.06,6.372,6.372,0,0,1-.78.026L1.04-10.53l.546,1.794A.439.439,0,0,0,1.95-8.4c.182,0,.312-.13.572-.494,1.456-.234,1.664-.26,2.34-.39ZM1.04-17.29a21.8,21.8,0,0,1,2.99,4.134l1.3-1.95a7.342,7.342,0,0,0-1.56-1.4,26.173,26.173,0,0,0,2.678-3.458c.52-.1.806-.312.806-.572,0-.156-.13-.286-.338-.39l-2.054-.91A28.148,28.148,0,0,1,2.99-17a8.336,8.336,0,0,0-1.612-.858Zm12.4,10.634v-6.422c.338-.234.416-.338.416-.52,0-.234-.182-.338-.546-.338h-1.82V-3.38h1.95V-5.616h3.016V-.7c0,1.4.6,2.054,2,2.028h4c1.378,0,1.976-.52,2.132-1.924l.364-3.25L23.816-4,23.5-1.534c-.1.728-.338.962-1.092.962H19.344c-.676-.026-.91-.234-.936-.936V-5.616h5.33v-7.462c.338-.234.416-.338.416-.494,0-.26-.182-.364-.546-.364h-1.9v7.28h-3.3v-9.776l.884-.156c1.326-.208,1.638-.26,3.536-.676a3.411,3.411,0,0,0,.806.13c.312,0,.546-.182.546-.416,0-.156-.052-.234-.338-.52l-1.326-1.3a42.426,42.426,0,0,1-4.108,1.248V-20.67c.338-.26.416-.338.416-.52,0-.234-.182-.338-.546-.338h-1.82v3.848c-2.5.546-3.718.754-6.006,1.118l.1.78c2.366-.078,3.562-.156,5.9-.39v9.516Zm-5.928-.52A29.963,29.963,0,0,1,8.736-1.352l1.872-.962a14.616,14.616,0,0,0-2.444-5.1ZM2.054-7.41A46.363,46.363,0,0,1,1.04-.442l.624.26A22.468,22.468,0,0,0,3.744-5.85c.416-.156.6-.338.6-.624,0-.156-.1-.26-.39-.338ZM41.028-19.162h7.93l1.04.208v-1.508l-1.04.208H28.964l-1.04-.208v1.508l1.04-.208H38.74V-.572H33.41V-12.766c.338-.234.416-.338.416-.494,0-.26-.182-.364-.546-.364H31.122V-.572H28.054L27.04-.78V.728L28.054.52H49.92l1.04.208V-.78l-1.04.208H41.028V-9.984h6.76l1.04.208v-1.508l-1.04.208h-6.76Zm23.894,5.408c.364-.286.494-.468.494-.676a.486.486,0,0,0-.494-.416L62.3-15.054l.208,1.508v1.43c-.078,4.42-.806,6.734-2.756,8.632A16.754,16.754,0,0,1,54.106.026l.234.7a15.687,15.687,0,0,0,6.76-2.99,9.193,9.193,0,0,0,3.562-6.4c5.564-1.43,9.438-5.33,10.5-10.634H54.782l-1.144-.234v1.664l1.144-.234H72.15a13.374,13.374,0,0,1-7.358,8.45c.078-.884.13-1.716.13-2.574ZM87.672-17.5c.286-.572.52-1.144.91-2.158.494-.234.676-.39.676-.676,0-.234-.182-.39-.572-.468l-2.444-.52-.26,1.482A22.167,22.167,0,0,1,78.988-9.49l.416.624A17.445,17.445,0,0,0,87.048-16.3h8.138C94.3-11.934,91.65-7.046,88.842-4.654a25.553,25.553,0,0,1-9.75,5.1l.156.78C84.188.312,86.84-.7,89.7-2.756c4.29-3.12,7.15-8.164,8.346-14.742Zm23.374,2.938v-5.018c.39-.26.52-.442.52-.676a.486.486,0,0,0-.494-.442l-2.626-.182.234,1.586v4.94l-5.616.468-1.222-.13.13,1.69,1.2-.338,5.512-.494V-3.094c0,1.768.416,2.522,1.56,2.808A38.55,38.55,0,0,0,116.3,0a51.346,51.346,0,0,0,6.708-.286V-2.652a37.566,37.566,0,0,1-7.332.468c-4.212,0-4.628-.13-4.628-1.508v-9.672l10.322-.884a19.638,19.638,0,0,1-6.4,7.722l.416.676a15.948,15.948,0,0,0,9.256-9.906Zm31.746-.156H134.81V-19.11c.39-.286.52-.468.52-.676a.507.507,0,0,0-.494-.468l-2.522-.182.234,1.56v4.16h-4.03l-1.04-.208v1.612l1.04-.208h4.03v7.046h2.262V-13.52h7.982v1.456c-.052,4.758-.78,7.332-2.5,8.97A13.817,13.817,0,0,1,134.368.26l.26.884a16.484,16.484,0,0,0,6.968-2.86c2.652-2,3.51-4.524,3.562-10.348V-13.52h4.16l1.04.208v-1.612l-1.04.208h-4.16V-19.24c.39-.26.52-.442.52-.65a.489.489,0,0,0-.494-.468l-2.626-.182.234,1.56Zm16.224,16.3a16.33,16.33,0,0,0,7.124-2.834c3.354-2.548,4.212-4.966,4.186-11.7v-6.76c.39-.26.52-.442.52-.676a.468.468,0,0,0-.494-.442l-2.678-.182.234,1.56v6.656c-.026,5.668-.6,7.67-2.938,10.036A15.071,15.071,0,0,1,158.834.806ZM155.35-19.058V-6.422h2.418v-12.87c.39-.286.52-.468.52-.676a.468.468,0,0,0-.494-.442l-2.678-.208ZM197.782-10.5l-21.71-.806v2.73l21.71-.78ZM210.444-17.5c.286-.572.52-1.144.91-2.158.494-.234.676-.39.676-.676,0-.234-.182-.39-.572-.468l-2.444-.52-.26,1.482A22.167,22.167,0,0,1,201.76-9.49l.416.624A17.446,17.446,0,0,0,209.82-16.3h8.138c-.884,4.368-3.536,9.256-6.344,11.648a25.553,25.553,0,0,1-9.75,5.1l.156.78c4.94-.91,7.592-1.924,10.452-3.978,4.29-3.12,7.15-8.164,8.346-14.742Zm36.79,6.994-21.71-.806v2.73l21.71-.78Zm16.12-4.082h8.164l1.144.234v-1.664l-1.144.234h-8.164v-3.692c.364-.26.52-.442.52-.676a.468.468,0,0,0-.494-.442l-2.626-.182.234,1.534v3.458h-8.32l-1.144-.234v1.664l1.144-.234h8.32V-1.222c0,.884-.39,1.274-1.3,1.274h-2.652v1.2H261.4c1.352.026,1.95-.624,1.95-2.106Zm2.574,3.094a32.326,32.326,0,0,1,5.2,9.724l2.5-1.3a18.727,18.727,0,0,0-7.176-8.866ZM250.744-1.664a17.792,17.792,0,0,0,6.864-8.45c.468-.182.65-.364.65-.624a.548.548,0,0,0-.39-.494l-2.444-.884-.312,1.43a23.827,23.827,0,0,1-4.836,8.45ZM271.856-22.1a2.642,2.642,0,0,0-2.678,2.6,2.641,2.641,0,0,0,2.626,2.652,2.652,2.652,0,0,0,2.626-2.626A2.642,2.642,0,0,0,271.856-22.1Zm-.078,1.04a1.6,1.6,0,0,1,1.612,1.586,1.576,1.576,0,0,1-1.586,1.586,1.61,1.61,0,0,1-1.586-1.586A1.6,1.6,0,0,1,271.778-21.06Zm25.766,4.784a25.808,25.808,0,0,1-6.63,8.424c-3.458,2.808-6.422,4.134-11.934,5.278l-1.378.026.936,2.314c.156.364.39.572.65.572.286,0,.494-.182.676-.6,5.876-1.326,9.568-3.094,12.766-6.11a21.916,21.916,0,0,0,5.642-9.568ZM277.368-19.11a24.442,24.442,0,0,1,6.474,5.564l2.132-2.158a16.045,16.045,0,0,0-8.294-4.082Zm25.272,1.222L301.5-18.1v1.638l1.144-.234h14.872C316.186-8.164,311.532-2.626,303.446,0l.286.884c6.578-1.456,10.5-3.952,13.312-8.476a23.719,23.719,0,0,0,3.25-9.958,2.624,2.624,0,0,0,1.612.546,2.658,2.658,0,0,0,2.652-2.626,2.641,2.641,0,0,0-2.652-2.626,2.652,2.652,0,0,0-2.626,2.626,2.686,2.686,0,0,0,.676,1.768Zm19.266-3.328a1.593,1.593,0,0,1,1.612,1.56,1.582,1.582,0,0,1-1.586,1.612,1.615,1.615,0,0,1-1.612-1.586A1.61,1.61,0,0,1,321.906-21.216ZM329.03.494a25.132,25.132,0,0,0,11.284-4.316,18.876,18.876,0,0,0,7.124-9.568l-.728-.364a22.579,22.579,0,0,1-15.288,11.31V-18.9c.364-.26.52-.442.52-.65a.489.489,0,0,0-.494-.468L328.8-20.2l.234,1.56Zm27.924-14.586-5.538.494-1.222-.13.156,1.664,1.2-.338,5.408-.468V-2.834a3.2,3.2,0,0,0,.676,2.392c.468.416,1.066.546,2.808.624,1.274.026,3.2.078,4.316.078a55.425,55.425,0,0,0,6.526-.286V-2.392a37.544,37.544,0,0,1-7.358.468c-4.212,0-4.6-.13-4.6-1.508v-9.646l10.426-.91a20.11,20.11,0,0,1-6.422,7.748l.416.676A16.081,16.081,0,0,0,373-15.47l-13.676,1.2v-5.018c.39-.286.52-.442.52-.676a.507.507,0,0,0-.494-.468l-2.626-.182.234,1.612ZM374.3-19.344A5.293,5.293,0,0,0,371.28-22.1l-.442.364a10.144,10.144,0,0,1,1.69,3.276ZM367.848-21.4a10.275,10.275,0,0,1,1.456,3.406L371.1-18.8a5.2,5.2,0,0,0-2.756-2.938Zm29.562,5.122a25.808,25.808,0,0,1-6.63,8.424c-3.458,2.808-6.422,4.134-11.934,5.278l-1.378.026L378.4-.234c.156.364.39.572.65.572.286,0,.494-.182.676-.6,5.876-1.326,9.568-3.094,12.766-6.11a21.916,21.916,0,0,0,5.642-9.568ZM377.234-19.11a24.443,24.443,0,0,1,6.474,5.564L385.84-15.7a16.045,16.045,0,0,0-8.294-4.082Zm30.03-.7c.338-.182.52-.39.52-.624s-.208-.416-.52-.442l-2.6-.182.182,1.56V1.248h2.418v-13.78a25.827,25.827,0,0,1,9.7,6.708L418.73-8.19a27.748,27.748,0,0,0-11.466-5.3Z" transform="translate(110.284 37.03)" fill="#fff"/>
    </g>
    <g id="吹き出し" transform="translate(138.873 0.001)">
      <path id="パス_105" data-name="パス 105" d="M250.65,96.885,218.088,45.013l3.931-2.3,29.186,53.844Z" transform="translate(-218.088 -15.201)"/>
      <path id="パス_106" data-name="パス 106" d="M729.944,96.561l29.187-53.843,3.931,2.3L730.5,96.885Z" transform="translate(-400.228 -15.202)"/>
      <path id="パス_107" data-name="パス 107" d="M-3991.719,7105.142a6.613,6.613,0,0,0,2.06-3c.444-1.226.639-4.049.639-9.288v-2.984h5.719v14.1c.017,1.012-.445,1.438-1.527,1.438h-2.06v-.747h1.456c.533,0,.764-.229.764-.781v-4.529h-3.215c-.214,3.109-1.26,4.974-3.516,6.163Zm3.979-9.075c-.019.658-.019,1.119-.019,1.225l-.071,1.3v.053h3.162v-3.781h-3.055C-3987.741,7095.339-3987.741,7095.925-3987.741,7096.067Zm.053-3.214-.019,1.3h3.038v-3.569h-3.019Zm215.4,12.643v-5.025h11.2v4.937h-1.475v-.568h-8.257v.657Zm1.473-1.368h8.257v-2.946h-8.257Zm16.143,1.28v-7.778a17.406,17.406,0,0,1-2.06,3.89l-.39-.267a31.274,31.274,0,0,0,2.307-7.547h-1.509l-.692.143v-1l.692.142h1.651v-3.71h1.208c.266,0,.391.07.391.23,0,.125-.071.2-.284.356v3.124h1.136l.709-.142v1l-.709-.143h-1.136v2.379a5.482,5.482,0,0,1,2.024,2.255l-1.014.941a12.37,12.37,0,0,0-1.011-2.576v8.7Zm-201.474,0v-5.487h-4.919v1.153h-1.544v-8.452h6.464v-3.339h1.456c.249,0,.373.071.373.231,0,.125-.053.2-.284.355v2.753H-3948v8.311h-1.544v-1.012h-5.061v5.487Zm1.544-6.2h5.061v-5.877h-5.061Zm-6.464,0h4.919v-5.877h-4.919Zm-19.427,6.2v-15.593h6.41v5.737h-5.008v9.856Zm1.4-10.567h3.676v-1.847h-3.676Zm0-2.557h3.676v-1.758h-3.676Zm86.911,13.123v-7.672c-.655.125-.762.125-2.077.32-.16.214-.267.3-.39.3a.344.344,0,0,1-.267-.231l-.373-1.242,1.065-.019.373-.017h.391l.036-.054a40.185,40.185,0,0,0,3.462-5.435l1.279.711a.3.3,0,0,1,.177.267c0,.214-.142.32-.533.355a43.419,43.419,0,0,1-3.533,4.12h.213c1.349-.054,1.758-.072,2.5-.107l.338-.036a7.745,7.745,0,0,0-.693-1.42l.41-.231a6.249,6.249,0,0,1,2.147,2.823l-1.331.621c-.16-.621-.231-.888-.355-1.26-.2.054-.408.088-.622.143l-.8.16h-.054v7.9Zm-20.866-.373c1.19-2.238,1.4-3.836,1.35-10.78v-1.988h7.512c-.019-.409-.036-.834-.036-1.386V7089.2h1.332c.249,0,.373.07.373.23,0,.125-.053.178-.284.355v1.1c0,.569.017.977.036,1.386h4.971l.711-.142v.994l-.711-.142h-4.935a19.752,19.752,0,0,0,1.3,6.553,18.447,18.447,0,0,0,1.97-4.51l1.279.5c.231.105.337.212.337.373,0,.2-.142.3-.479.391a23.778,23.778,0,0,1-2.468,4.581l.036.053.036.089a8.536,8.536,0,0,0,1.918,2.343,1.513,1.513,0,0,0,.727.409c.321,0,.517-.728.711-2.771l.64.088a11.623,11.623,0,0,1-.461,3.285c-.2.587-.551.96-.906.96-1.012,0-2.485-1.333-3.657-3.267a12.7,12.7,0,0,1-5.683,3.267l-.16-.533a14.3,14.3,0,0,0,5.186-3.907,21.643,21.643,0,0,1-1.741-7.9h-6.073v1.278l-.017,1.794h4.919a45.605,45.605,0,0,1-.267,5.4c-.177.747-.675,1.067-1.563,1.067h-2.1v-.747h1.4c.657-.018.87-.248.94-1.012.089-1.244.179-2.77.2-4h-3.533a22.218,22.218,0,0,1-.267,4.458,7.382,7.382,0,0,1-2.166,4.12Zm30.917.284h-3.019v-.746h2.274a.936.936,0,0,0,1.03-.551c.248-.231.692-6.127.8-10.727h-4.741a12.383,12.383,0,0,1-2.167,2.806l-.425-.337a21.9,21.9,0,0,0,2.538-6.588l1.582.373a.41.41,0,0,1,.319.336c0,.2-.159.32-.516.409-.532,1.367-.709,1.794-.958,2.291h5.93c-.07,3.338-.425,9.181-.638,10.814-.157,1.4-.659,1.918-1.943,1.918Zm133.1,0v-.746h1.049c.585-.017.781-.2.8-.781v-6.3h-3.6l-.692.142v-.994l.692.141h3.6v-1.917h-2.752l-.71.141v-.994l.71.142h2.752v-1.74h-3.534l-.692.143v-.995l.692.141h1.846a9.693,9.693,0,0,0-1.029-2.2l.391-.231a5.94,5.94,0,0,1,2.077,1.723l-1.154.709h3.232a13.564,13.564,0,0,0,.87-2.521l1.368.373c.213.053.3.124.3.267,0,.2-.16.3-.48.336a7.433,7.433,0,0,1-1.4,1.544h2.77l.71-.141v.995l-.71-.143h-3.889v1.74h3.019l.709-.142V7095l-.709-.141h-3.019v1.917h4.12l.692-.141v.994l-.692-.142h-4.12v1.012a7.818,7.818,0,0,0,1.19,1.686,21.482,21.482,0,0,0,1.97-2.184l1.119.87a.223.223,0,0,1,.107.195c0,.2-.177.321-.479.321h-.214a19.042,19.042,0,0,1-2.111,1.189,11.662,11.662,0,0,0,3.426,2.38,11.284,11.284,0,0,0-.8,1.438,10.774,10.774,0,0,1-4.209-4.937v4.458c0,.994-.444,1.4-1.509,1.4Zm-220.333,0v-.746h1.492c.568,0,.817-.248.817-.817v-8.2h-5.238v-5.737h6.641v14.225c0,.905-.374,1.278-1.261,1.278Zm-1.6-10.478h3.907v-1.847h-3.907Zm0-2.557h3.907v-1.758h-3.907Zm179.437,9a4.282,4.282,0,0,1,1.972-3.5,9.066,9.066,0,0,1,2.788-1.332v-3.268c-.355.019-.64.019-1.1.019-1.049,0-1.742-.019-3.215-.107l-.106-1.153,1.065.355c.922.07,1.491.088,2.361.088.284,0,.568,0,1-.018v-1.989l-.143-1.1,1.616.124c.213.018.373.142.373.3s-.088.266-.354.443v2.167a24.045,24.045,0,0,0,3.711-.392l1.083-.55-.071,1.314c-.941.16-3.018.355-4.723.444v3a11.626,11.626,0,0,1,1.989-.16,7.752,7.752,0,0,1,3.977.835,4.247,4.247,0,0,1,2.114,3.765,3.946,3.946,0,0,1-4.1,4.067,3.566,3.566,0,0,1-2.468-.871l.266-.5a3.515,3.515,0,0,0,1.67.444,3.052,3.052,0,0,0,3.018-3.249,3.34,3.34,0,0,0-1.616-3,5.634,5.634,0,0,0-2.894-.623,12.607,12.607,0,0,0-1.954.16v5.913a2.177,2.177,0,0,1-.515,1.6,2.483,2.483,0,0,1-1.563.461C-3789.748,7104.982-3791.523,7103.4-3791.523,7101.289Zm2.344-2.38a3.459,3.459,0,0,0-.977,2.327,2.646,2.646,0,0,0,2.54,2.752c.621,0,.853-.319.853-1.208v-5.4A5.9,5.9,0,0,0-3789.179,7098.909ZM-3999,7104.485a16.5,16.5,0,0,0,2.575-3.375l1.189.8a.334.334,0,0,1,.178.267c0,.177-.232.284-.6.284a11.165,11.165,0,0,1-3.09,2.415Zm155.727-.143a52.43,52.43,0,0,0,3.694-11.081h-.2c-.6.018-.924.018-3.552.018l-.107-1.19,1.119.373h2.9c.141-.692.213-1.029.373-1.917l.036-1.1,1.563.3a.375.375,0,0,1,.319.32c0,.142-.107.266-.337.426-.107.551-.214,1.066-.249,1.262-.054.2-.089.39-.143.6v.053h.053c2.167-.088,3.072-.16,4.475-.337l1.226-.515-.054,1.225a43.894,43.894,0,0,1-5.717.444h-.16a59.483,59.483,0,0,1-3.659,11.56Zm34.667-.035a53.062,53.062,0,0,0,3.693-11.082l-.657.017c-1.083.018-1.314.018-1.936.018h-1.155l-.106-1.189,1.119.373h2.894c.177-.818.214-1.066.373-1.918l.036-1.119,1.563.321a.338.338,0,0,1,.3.3c0,.16-.106.284-.32.427-.2.941-.266,1.278-.337,1.633l-.053.267v.036c.425-.018.8-.036.87-.036,1.493-.054,2.149-.124,3.729-.3l1.225-.533-.071,1.225a42.289,42.289,0,0,1-5.931.444,61.57,61.57,0,0,1-3.658,11.578Zm-51.5,0a53.062,53.062,0,0,0,3.693-11.082l-.657.017c-1.083.018-1.314.018-1.936.018h-1.155l-.105-1.189,1.119.373h2.894c.177-.818.214-1.066.373-1.918l.036-1.119,1.563.321a.34.34,0,0,1,.3.3c0,.16-.107.284-.321.427-.194.941-.266,1.278-.337,1.633l-.053.267v.036c.426-.018.8-.036.87-.036,1.492-.054,2.149-.124,3.729-.3l1.225-.533-.071,1.225a42.3,42.3,0,0,1-5.932.444,61.5,61.5,0,0,1-3.658,11.578Zm23.228-2.575a4.948,4.948,0,0,1,.6-2.327l.568.16a5.064,5.064,0,0,0-.266,1.616q0,2.023,4.208,2.024a13.539,13.539,0,0,0,3.409-.409v1.724a19.59,19.59,0,0,1-3.055.212C-3835.176,7104.733-3836.88,7103.792-3836.88,7101.732Zm34.666-.036a5,5,0,0,1,.6-2.345l.568.16a5.441,5.441,0,0,0-.267,1.582,1.558,1.558,0,0,0,.835,1.456,7.176,7.176,0,0,0,3.392.621,13.076,13.076,0,0,0,3.392-.408v1.722a18.839,18.839,0,0,1-3,.214C-3800.51,7104.7-3802.214,7103.774-3802.214,7101.7Zm-51.5,0a5.016,5.016,0,0,1,.6-2.345l.568.16a5.441,5.441,0,0,0-.267,1.582,1.558,1.558,0,0,0,.835,1.456,7.178,7.178,0,0,0,3.392.621,13.073,13.073,0,0,0,3.392-.408v1.722a18.817,18.817,0,0,1-3,.214C-3852.011,7104.7-3853.715,7103.774-3853.715,7101.7Zm-72.527,2.4c-1.793-.6-2.822-1.776-2.822-3.215a5.636,5.636,0,0,1,.958-3l.585.249a4.511,4.511,0,0,0-.55,2.007c0,1.936,1.936,2.859,5.984,2.859a27.7,27.7,0,0,0,5.594-.532v1.812a38.349,38.349,0,0,1-5.15.337A16.617,16.617,0,0,1-3926.243,7104.094Zm-18.965-4.919a66.927,66.927,0,0,1,.533-8.2l-.019-.852,1.58.249c.231.035.374.16.374.3s-.107.267-.374.444a60.493,60.493,0,0,0-.551,7.53,26.748,26.748,0,0,0,.5,5.665l-1.616.3A26.976,26.976,0,0,1-3945.208,7099.174Zm-31.718,5.275v-7.335h7.458v6.287h-6.091v1.048Zm1.366-1.759h4.724v-2.131h-4.724Zm0-2.841h4.724v-2.024h-4.724Zm151.413,1.74a16.715,16.715,0,0,1-1.065-5.593c0-.16-.018-1.386-.036-3.676l-.088-1.065,1.6.106c.267.018.444.143.444.32s-.088.284-.39.5v1.137c0,3.534.337,6.037.994,7.6.5,1.138,1.136,1.971,1.544,1.971.427,0,.978-1.083,1.386-2.7l.781.248c-.568,2.558-1.437,3.979-2.433,3.979C-3822.424,7104.414-3823.383,7103.437-3824.146,7101.59Zm-51.5,0a16.715,16.715,0,0,1-1.065-5.593c0-.16-.017-1.386-.036-3.676l-.088-1.065,1.6.106c.267.018.445.143.445.32s-.09.284-.391.5v1.137c0,3.534.337,6.037.994,7.6.5,1.138,1.136,1.971,1.544,1.971.427,0,.978-1.083,1.386-2.7l.781.248c-.568,2.558-1.438,3.979-2.433,3.979C-3873.925,7104.414-3874.884,7103.437-3875.647,7101.59Zm-117.883.124.355-.408a11.4,11.4,0,0,1,2.646,1.829l-1.083,1.083A19.722,19.722,0,0,0-3993.531,7101.714Zm241.645,2.15-.532-1.227a29.77,29.77,0,0,0,4.634-1.686l.178.444a22.289,22.289,0,0,1-3.623,2.309c-.088.319-.194.461-.337.461C-3751.69,7104.165-3751.815,7104.041-3751.886,7103.864Zm-143.4-.073a22.265,22.265,0,0,0,.924-4.758l1.4.409c.2.053.267.141.267.284,0,.177-.124.284-.426.373a12.4,12.4,0,0,1-1.776,3.888Zm-43.812-.8a3.226,3.226,0,0,1-1.739-3.037,4.777,4.777,0,0,1,.585-2.29l.532.142a5.007,5.007,0,0,0-.229,1.527,2.333,2.333,0,0,0,1.1,2.165,6.372,6.372,0,0,0,3.2.587,18.7,18.7,0,0,0,3.889-.373v1.7a20.576,20.576,0,0,1-3.3.249A9.019,9.019,0,0,1-3939.1,7102.992Zm49.085-3.782.479-.177a10.124,10.124,0,0,1,1.882,3.5l-1.437.622A20.994,20.994,0,0,0-3890.015,7099.21Zm74.428-6.836.444-.337a13.452,13.452,0,0,1,4.545,8.293l-1.7.764A21.625,21.625,0,0,0-3815.587,7092.374Zm-51.5,0,.444-.337a13.452,13.452,0,0,1,4.545,8.293l-1.7.764A21.6,21.6,0,0,0-3867.088,7092.374Zm-19.623,4.457.461-.32a10.23,10.23,0,0,1,3.055,3.356l-1.473.995A14.728,14.728,0,0,0-3886.711,7096.83Zm-103.765,3.889h-7.726l-.709.142v-.993l.709.141h1.1v-7.618h-.764l-.71.142v-.994l.71.142h.764v-2.4h1.244c.249,0,.373.07.373.23,0,.125-.053.2-.284.355v1.812h3.2v-2.4h1.244c.249,0,.373.07.373.249,0,.107-.054.177-.284.336v1.812h.781l.71-.142v.994l-.71-.142h-.781v7.618h.764l.71-.141v.993Zm-5.292-.71h3.2v-2.256h-3.2Zm0-2.965h3.2v-2.007h-3.2Zm0-2.716h3.2v-1.936h-3.2Zm220.884,5.876a29.688,29.688,0,0,0,7.1-2.681,10.045,10.045,0,0,1-2.54-2.788,11.964,11.964,0,0,1-4.066,2.452l-.249-.391a15.322,15.322,0,0,0,4.954-4.884l1.456.462a.247.247,0,0,1,.178.212c0,.2-.178.3-.551.337-.355.391-.48.551-.657.729h7.955a17.886,17.886,0,0,1-4.1,3.87,22.181,22.181,0,0,0,6.854,1.528,7.774,7.774,0,0,0-.638,1.492,21.365,21.365,0,0,1-7.44-2.272,23.111,23.111,0,0,1-8.1,2.468Zm4.938-5.824a9.768,9.768,0,0,0,3.2,2.5,16.068,16.068,0,0,0,2.913-2.522h-6.091Zm19.107,4.138.391-.337a6.229,6.229,0,0,1,2.147,1.6l-1.189.924A9.807,9.807,0,0,0-3750.838,7098.518Zm-81.459-2.29a16.02,16.02,0,0,0-3.286.284l-.142-.534a9.56,9.56,0,0,1,4.848-1.118,13.018,13.018,0,0,1,1.829.124v1.6A12.383,12.383,0,0,0-3832.3,7096.228Zm34.648-.037a17.9,17.9,0,0,0-3.285.284l-.143-.514a5.281,5.281,0,0,1,1.261-.586,11.2,11.2,0,0,1,3.534-.549,11.6,11.6,0,0,1,1.882.141v1.6A11.588,11.588,0,0,0-3797.65,7096.191Zm-51.5,0a17.891,17.891,0,0,0-3.285.284l-.143-.514a5.279,5.279,0,0,1,1.26-.586,11.206,11.206,0,0,1,3.535-.549,11.59,11.59,0,0,1,1.881.141v1.6A11.582,11.582,0,0,0-3849.151,7096.191Zm-46.048-3.817.249-.391a6.326,6.326,0,0,1,1.189.64,17.983,17.983,0,0,0,1.4-3.445l1.456.621a.35.35,0,0,1,.248.3c0,.2-.141.3-.568.391a18.475,18.475,0,0,1-2.007,2.486,4.656,4.656,0,0,1,1.227,1.03l-.906,1.314A14.407,14.407,0,0,0-3895.2,7092.374Zm120.316.746a4.678,4.678,0,0,0,1.652-2.913h.6a2.709,2.709,0,0,1,.054.764h4.989v-1.793h1.492c.248,0,.373.071.373.23,0,.125-.053.2-.284.374v1.189h7.458a6.682,6.682,0,0,1-2.29,3.09l-.462-.267a17.325,17.325,0,0,0,.694-2.112h-12a3.76,3.76,0,0,1-1.243,2.734Zm-5.115-2.45.284-.284a5.872,5.872,0,0,1,3.409,2.983l-1.474.834A10.533,10.533,0,0,0-3780,7090.669Zm-160.2,2.326a10.166,10.166,0,0,1,5.487-1.385,14.2,14.2,0,0,1,2.272.158v1.618a15.02,15.02,0,0,0-3.268-.32,21.549,21.549,0,0,0-4.368.461Zm17.369-.443a30.067,30.067,0,0,0-5.008.407l-.142-.6a14.708,14.708,0,0,1,6.73-1.19,15.184,15.184,0,0,1,3.161.267v1.687A16.715,16.715,0,0,0-3922.832,7092.552Zm91.1-3.038.318-.23a3.461,3.461,0,0,1,1.954,2.1l-1.189.569A7.843,7.843,0,0,0-3831.729,7089.514Zm-69.615.32.408-.284a6.556,6.556,0,0,1,2.326,1.3l-1.42,1.012A10.945,10.945,0,0,0-3901.345,7089.834Zm-17.368-.39.319-.231a3.545,3.545,0,0,1,1.918,1.972l-1.208.568A7.32,7.32,0,0,0-3918.712,7089.444Zm89.06-.2.285-.248a3.5,3.5,0,0,1,2.1,1.847l-1.189.639A7.185,7.185,0,0,0-3829.653,7089.248Zm-87.018,0,.284-.248a3.557,3.557,0,0,1,2.1,1.847l-1.19.639A7.132,7.132,0,0,0-3916.671,7089.248Z" transform="translate(4051.303 -7089)" stroke="rgba(0,0,0,0)" stroke-width="1"/>
      <path id="パス_108" data-name="パス 108" d="M-3740.838,7128c3.284-3.12,5.485-8.9,5.881-15.372l2.856.559c.494.1.756.295.756.623,0,.3-.262.525-.854.821a38.134,38.134,0,0,1-1.084,4.665,9.813,9.813,0,0,0,6.373,5.124v-14.453h-9.525l-1.314.264v-1.841l1.314.264h21.68l1.314-.264v1.841l-1.314-.264h-9.4v6.405h8.115l1.313-.263v1.839l-1.313-.262h-8.115v7.228c2.1.164,4.369.229,7.261.229,1.609,0,3.086-.032,6.273-.1a12.56,12.56,0,0,0-1.118,2.726h-1.642c-8.18,0-11.924-.328-14.223-1.215-2.727-1.052-4.5-2.824-6.078-6.012a15.1,15.1,0,0,1-6.568,8.212Zm-152.91.724v-11.728a25.577,25.577,0,0,1-6.306,4.008l-.394-.788a25.085,25.085,0,0,0,8.146-8.606h-6.439l-1.281.263v-1.84l1.281.263h12.023V7107.5h-8.672l-1.281.263v-1.84l1.281.265h8.672v-2.629h-10.775l-1.281.262v-1.839l1.281.263h6.045a20.244,20.244,0,0,0-1.774-3.383l.788-.362a13.513,13.513,0,0,1,4.041,2.268l-2.463,1.478h9.23a23.454,23.454,0,0,0,1.117-3.745l3.055.723c.263.066.493.264.493.493,0,.328-.362.592-.985.656a8.141,8.141,0,0,1-2.2,1.873h7.128l1.314-.263v1.839l-1.314-.262h-11v2.629h8.9l1.314-.265v1.84l-1.314-.263h-8.9v2.792h12.285l1.314-.263v1.84l-1.314-.263h-17.574a20.752,20.752,0,0,1-1.939,2.791h17.509v14.126h-2.629v-1.117h-14.813v1.314Zm2.563-2.628h14.813v-2.76h-14.813Zm0-4.073h14.813v-2.53h-14.813Zm0-3.844h14.813v-2.464h-14.813Zm139.7,4.6a53.9,53.9,0,0,1-11.038,4.928c-.066.559-.264.821-.625.821-.23,0-.428-.2-.592-.592l-1.083-2.595c1.938-.361,2.2-.426,3.842-.788v-24.867h15.406v14.06h-7.982a16.7,16.7,0,0,0,2.628,5.881c.23-.2.428-.395.724-.657a21.984,21.984,0,0,0,3.844-4.337l2.1,1.643a.794.794,0,0,1,.394.591c0,.329-.362.56-.853.56h-.3a33.431,33.431,0,0,1-5.158,3.021l-.1.032a19.57,19.57,0,0,0,6.8,5.323,11.316,11.316,0,0,0-1.971,2.759A17.467,17.467,0,0,1-3751.482,7122.775Zm-6.933,1.15c2.464-.657,3.91-1.085,6.439-1.905a20.7,20.7,0,0,1-2.792-8.179l-.032-.1h-3.615Zm0-11.5h10.217v-5.257h-10.217Zm0-6.571h10.217V7101h-10.217Zm-43.59,22.666v-14.388a32.124,32.124,0,0,1-3.811,7.193l-.724-.492a57.825,57.825,0,0,0,4.271-13.961h-2.792l-1.281.264V7105.3l1.281.265h3.056V7098.7h2.233c.492,0,.722.131.722.427,0,.229-.13.361-.525.656v5.783h2.1l1.314-.265v1.841l-1.314-.264h-2.1v4.4a10.105,10.105,0,0,1,3.744,4.172l-1.871,1.74a22.848,22.848,0,0,0-1.873-4.762v16.095Zm-29.928,0V7117.75a53.033,53.033,0,0,1-7.128,2.726l-.329-1.083a51.446,51.446,0,0,0,12.187-6.7l.1-.065a28.113,28.113,0,0,0-4.927-4.6l.821-.724a26.606,26.606,0,0,1,6.538,3.449,43.548,43.548,0,0,0,7.554-7.588h-11a30.567,30.567,0,0,1-10.182,7.26l-.527-.854a41.109,41.109,0,0,0,10.775-11.07l2.989.625c.362.065.591.263.591.525,0,.362-.328.558-1.183.657l-1.215,1.444-.1.1h14.387a40.852,40.852,0,0,1-10.807,11,42.383,42.383,0,0,1-4.467,2.857h15.932v12.646h-2.891v-1.511h-14.289v1.676Zm2.825-2.989h14.289v-8.509h-14.289Zm-129.584,2.989V7116.83h7.62V7105h2.6c.458,0,.688.131.688.427,0,.23-.1.361-.524.656V7110h9.46l1.249-.264v1.84l-1.249-.263h-9.46v5.519h9.789v11.464h-2.759v-1.577H-3956v1.808Zm2.692-3.12h14.717v-7.26H-3956Zm-37.613,3.12V7117.29h19.808v11.069h-2.825v-1.445h-14.158v1.61Zm2.825-2.924h14.158v-7h-14.158Zm218.643,2.825v-28.743h10.052a38.143,38.143,0,0,1-4.6,9.822c2.66,2.891,3.613,4.828,3.613,7.457a5.842,5.842,0,0,1-.822,3.285c-.69.985-1.97,1.445-4.007,1.445h-.788v-1.381h.656a2.642,2.642,0,0,0,1.741-.591,3.765,3.765,0,0,0,.592-2.431,12.086,12.086,0,0,0-.854-4.828,22.042,22.042,0,0,0-1.576-2.826,62.853,62.853,0,0,0,2.66-8.639h-4.106v27.429Zm-194-.46c2.169-4.763,2.563-8.048,2.563-20.433v-5.387h12.055V7098.5h2.825c.459,0,.688.133.688.428,0,.229-.1.361-.525.657v2.562h10.874l1.313-.263v1.84l-1.313-.263h-23.093v4.072c-.032,7.786-.3,11.662-.92,13.829a16.8,16.8,0,0,1-3.744,7.063Zm174.59.394v-1.38h1.938c1.084-.032,1.446-.36,1.479-1.444v-11.662h-6.668l-1.281.264V7112.3l1.281.265h6.668v-3.548h-5.091l-1.314.262v-1.838l1.314.262h5.091v-3.219h-6.537l-1.281.263v-1.84l1.281.263h3.417a18.017,18.017,0,0,0-1.905-4.073l.723-.427a10.959,10.959,0,0,1,3.843,3.186l-2.135,1.314h5.979a25.13,25.13,0,0,0,1.609-4.665l2.531.69c.394.1.558.23.558.492,0,.361-.3.559-.888.625a13.835,13.835,0,0,1-2.6,2.857h5.125l1.313-.263v1.84l-1.313-.263h-7.194v3.219h5.583l1.314-.262v1.838l-1.314-.262h-5.583v3.548h7.621l1.281-.265v1.841l-1.281-.264h-7.621v1.873a14.528,14.528,0,0,0,2.2,3.121,40.07,40.07,0,0,0,3.645-4.042l2.07,1.61a.412.412,0,0,1,.2.362c0,.36-.328.591-.888.591h-.393a35.266,35.266,0,0,1-3.909,2.2,21.624,21.624,0,0,0,6.338,4.4,21.274,21.274,0,0,0-1.478,2.66,19.937,19.937,0,0,1-7.785-9.131v8.246c0,1.837-.822,2.593-2.792,2.593Zm-141.74-1.083a12.849,12.849,0,0,0,6.7-4.337c1.544-1.74,2.661-5.451,2.693-8.869v-.328h-7.457l-1.314.264v-1.841l1.314.265h11.989v-6.768h-6.34a18.814,18.814,0,0,1-4.434,5.419l-.789-.624a37,37,0,0,0,4.435-10.676l3.023.887c.328.1.525.3.525.559,0,.361-.329.624-1.051.788-.46,1.151-.69,1.643-1.019,2.333h5.649v-5.65h2.727c.46,0,.689.132.689.426,0,.231-.1.362-.525.658v4.566h8.41l1.313-.263v1.839l-1.313-.262h-8.41v6.768h11.5l1.281-.265v1.841l-1.281-.264h-8.376v9.821c0,1.053.328,1.282,1.675,1.347h4.993c1.15,0,1.643-.426,1.774-1.576l.361-3.022,1.479.23-.428,3.91c-.23,2.233-1.182,3.087-3.382,3.087h-5.289c-3.121.032-4.008-.69-4.008-3.253v-10.544h-4.829v.492c-.033,8.017-3.91,12.582-11.924,14.125Zm136.451-1.609-.985-2.268a55.2,55.2,0,0,0,8.573-3.119l.329.82a41,41,0,0,1-6.7,4.271c-.164.591-.361.854-.625.854C-3796.487,7126.225-3796.717,7126-3796.849,7125.667Zm-63.318.038a13.865,13.865,0,0,1-2.929-1.084,12.018,12.018,0,0,1-2.249-1.472,15.679,15.679,0,0,1-1.624-1.553l1.86-1.666a9.352,9.352,0,0,0,3.484,2.609,12.526,12.526,0,0,0,5.178.972,9.407,9.407,0,0,0,2.874-.445,6.7,6.7,0,0,0,2.485-1.416,7.118,7.118,0,0,0,1.75-2.512,9.483,9.483,0,0,0,.666-3.763,9.481,9.481,0,0,0-.527-3.29,6.775,6.775,0,0,0-1.486-2.416,6.307,6.307,0,0,0-2.3-1.5,8.388,8.388,0,0,0-3.013-.515h-1.832v-1.776a9.223,9.223,0,0,0,2.846-.472,8.1,8.1,0,0,0,2.637-1.431,7.621,7.621,0,0,0,1.943-2.4,7.2,7.2,0,0,0,.765-3.413,7.816,7.816,0,0,0-.5-2.931,5.766,5.766,0,0,0-1.347-2.04,5.39,5.39,0,0,0-1.971-1.194,7.205,7.205,0,0,0-2.375-.389,9.271,9.271,0,0,0-4.817,1.181,10.29,10.29,0,0,0-3.373,3.317l-2.055-1.248a12.96,12.96,0,0,1,4.539-4.4,11.558,11.558,0,0,1,5.706-1.457,14.28,14.28,0,0,1,3.971.568,10.99,10.99,0,0,1,3.54,1.735,8.915,8.915,0,0,1,2.541,2.971,8.916,8.916,0,0,1,.971,4.276,7.041,7.041,0,0,1-.431,2.414,9.359,9.359,0,0,1-1.165,2.236,10.325,10.325,0,0,1-1.708,1.874,8.678,8.678,0,0,1-2.082,1.333,13.762,13.762,0,0,1,2.221.943,8.461,8.461,0,0,1,2.138,1.609,8.07,8.07,0,0,1,1.6,2.444,8.7,8.7,0,0,1,.625,3.471,10.216,10.216,0,0,1-1.153,4.969,10.913,10.913,0,0,1-3,3.513,12.789,12.789,0,0,1-4.137,2.082,15.86,15.86,0,0,1-4.54.681A15.162,15.162,0,0,1-3860.167,7125.705Zm65.256-9.926.723-.624a11.558,11.558,0,0,1,3.974,2.956l-2.2,1.708A18.115,18.115,0,0,0-3794.91,7115.779ZM-3999,7117.29a42.492,42.492,0,0,0,13.632-6.438,19.508,19.508,0,0,1-4.467-6.471l-.066-.1a28.408,28.408,0,0,1-7.752,5.65l-.493-.822a38.616,38.616,0,0,0,9.361-10.61l2.825.559c.361.066.591.3.591.526,0,.362-.3.526-1.083.656-.722.919-1.084,1.38-1.413,1.773h14.519a35.686,35.686,0,0,1-8.113,8.9,34.228,34.228,0,0,0,12.679,4.04,29.172,29.172,0,0,0-1.117,2.957c-5.059-.985-10.642-3.253-13.631-5.519-4.5,2.989-8.114,4.4-15.177,5.913Zm9.953-13.928a19.1,19.1,0,0,0,5.419,6.143,35.379,35.379,0,0,0,5.945-6.176h-11.332Zm248.208,2.858a8.5,8.5,0,0,0,3.088-5.289h1.118a4.411,4.411,0,0,1,.1,1.347v.1h9.166V7098.5h2.824c.46,0,.69.133.69.428,0,.23-.13.361-.525.657v2.792h13.764c-.691,1.905-2.267,3.679-4.994,5.584l-.722-.492a24.98,24.98,0,0,0,1.838-3.777H-3736.6a6.556,6.556,0,0,1-2.2,4.992Z" transform="translate(4036.226 -7060.337)" stroke="rgba(0,0,0,0)" stroke-width="1"/>
    </g>
  </g>
</svg>
