<svg id="sec03-btn03" xmlns="http://www.w3.org/2000/svg" width="320" height="48" viewBox="0 0 320 48">
  <path id="パス_67" data-name="パス 67" d="M0,0H320V48H0Z"/>
  <path id="パス_64" data-name="パス 64" d="M-99.379-.5h1.12V-8.568h-1.12v-.5h2.394l3.08,7.014,2.968-7.014H-88.6v.5h-1.12V-.5h1.12V0h-3.43V-.5h1.12v-7.07l-3,7.056h-.644L-97.657-7.63V-.5h1.078V0h-2.8Zm16.758,0V0h-3.934V-.5h1.372V-8.568H-86.5v-.5h3.822v.5h-1.316V-.5Zm2.044,0h1.12V-8.568h-1.12v-.5h2.282l4.214,6.8v-6.3H-75.2v-.5h2.842v.5h-1.12V0h-.644l-4.732-7.714V-.5h1.12V0h-2.842Zm14.056,0V0h-3.934V-.5h1.372V-8.568H-70.4v-.5h3.822v.5h-1.316V-.5Zm4.508,1.54h1.106V-6.076a12.259,12.259,0,0,1,1.05,2.562l.966-.826a6.647,6.647,0,0,0-2.016-2.17V-8.26h1.316l.56.112v-.784l-.56.112h-1.316v-2.394c.182-.126.224-.182.224-.28,0-.126-.1-.182-.294-.182h-1.036V-8.82h-1.722l-.56-.112v.784l.56-.112h1.568A21,21,0,0,1-64.379-2.3l.308.252a12.983,12.983,0,0,0,2.058-3.262Zm9.786-.252V-10.738h-6.16V.868h1.12V-.168h3.878V.784Zm-1.162-8.372h-3.878v-2.59h3.878Zm0,.56v2.744h-3.878V-7.028Zm0,3.3v3h-3.878v-3ZM-37.107-2.2l.56.112V-2.87l-.56.112h-3.514c.1-.574.112-.714.168-1.2h3.066V-8.12h-6.734v4.158H-41.5a5.9,5.9,0,0,1-.154,1.2h-2.912l-.546-.112v.784l.546-.112h2.758C-42.245-.98-43.519.014-45.605.742l.112.392c2.534-.5,4.158-1.582,4.662-3.094a5.72,5.72,0,0,0,3.906,3.024,4.586,4.586,0,0,1,.546-1.078A6.749,6.749,0,0,1-40.593-2.2Zm-5.936-2.324V-5.81h4.564v1.288Zm0-1.848V-7.56h4.564v1.19Zm-4.144,7.406h1.05v-7.35a9.841,9.841,0,0,1,.98,2.17l.8-.784A4.412,4.412,0,0,0-46.137-6.65V-8.218h.98l.546.112V-8.89l-.546.112h-.98v-2.436c.182-.126.224-.182.224-.28,0-.126-.1-.182-.294-.182h-.98v2.9h-1.428l-.56-.112v.784l.56-.112H-47.3A23.511,23.511,0,0,1-49.259-2.3l.28.238A11.946,11.946,0,0,0-47.187-5.32ZM-42.9-9.7v1.134h1.05V-9.7h1.932v1.134h1.05V-9.7h1.68l.56.112v-.784l-.56.112h-1.68V-11.2c.182-.14.224-.2.224-.28,0-.14-.084-.2-.294-.2h-.98v1.414h-1.932V-11.2c.182-.14.224-.2.224-.28,0-.14-.084-.2-.294-.2h-.98v1.414h-1.6l-.56-.112v.784l.56-.112Zm17.01,5.992h3.43V-8.848h-4.522a12.365,12.365,0,0,0,1.162-1.694H-22l.56.112v-.784L-22-11.1H-32.963V-9.24a58.575,58.575,0,0,1-.2,6.1A12.334,12.334,0,0,1-34.139.6l.294.238a8.388,8.388,0,0,0,1.638-3.248c.294-1.162.392-2.688.42-6.832v-1.3h4.564a14.551,14.551,0,0,1-.406,1.694h-2.884V-3.71h3.458v3.6c0,.448-.2.644-.63.644h-1.05V1.12h1.666c.826,0,1.19-.336,1.176-1.106Zm-3.514-4.578h5.8v1.666h-5.8Zm5.8,4.018h-5.8V-6.062h5.8ZM-32,.63a8.4,8.4,0,0,0,3.178-2.576c.294-.042.462-.168.462-.308a.338.338,0,0,0-.2-.252l-1.05-.56A10.961,10.961,0,0,1-32.221.322Zm7.126-3.248A14.485,14.485,0,0,1-22.323.476l.994-1.092a11.046,11.046,0,0,0-3.276-2.338Zm16.758-3.36H-1.8l.56.112V-6.65l-.56.112h-11.76l-.56-.112v.784l.56-.112h.7V-.63c-.112.028-.182.028-.378.056-.294.042-.588.084-.882.112L-13.727.56c.056.14.154.224.252.224s.2-.084.266-.28A28.609,28.609,0,0,0-9.149-.882v2h1.036ZM-9.149-4.27v1.246h-2.674V-4.27Zm-2.674-.56V-5.978h2.674V-4.83Zm2.674,2.366v1.12l-.28.056c-.7.168-1.722.378-2.394.49V-2.464ZM-7.693,1.12A7.656,7.656,0,0,0-4.585-.56a7.157,7.157,0,0,0,2.744,1.6,7.055,7.055,0,0,1,.6-1.092A7.768,7.768,0,0,1-3.885-1.3,11.956,11.956,0,0,0-1.9-5H-6.923l-.56-.112v.784l.56-.112h.168A7.722,7.722,0,0,0-5.173-1.176,7.151,7.151,0,0,1-7.861.77Zm4.4-5.558A11.184,11.184,0,0,1-4.613-1.89,6.5,6.5,0,0,1-6.265-4.438Zm-9-6.818v3.738h9.31v-3.738Zm1.12,3.178V-9.142h7.042v1.064Zm0-1.624V-10.7h7.042V-9.7ZM3.549-4.228A12.382,12.382,0,0,1,1-.35l.2.308A10.071,10.071,0,0,0,3.9-2.758L3.927-2.8V1.036H5.019V-2.912a10.925,10.925,0,0,1,1.456,1.89L7.2-2A6.564,6.564,0,0,0,5.355-3.136c-.28-.112-.28-.126-.336-.14v-.952h2.03l.56.112V-4.9l-.56.112H5.019V-6.5H7.273l.546.112v-.784l-.546.112H5.509A17.931,17.931,0,0,0,6.573-9.52h.518l.56.112v-.784l-.56.112H5.033v-1.134c.182-.126.224-.182.224-.28,0-.126-.1-.182-.294-.182H3.885v1.6H1.757l-.56-.112v.784l.56-.112H2.2l.014.042a14.96,14.96,0,0,1,.462,2.142l.028.14.028.14H1.547L1-7.168v.784L1.547-6.5h2.38v1.708H1.757L1.2-4.9v.784l.56-.112Zm1.9-5.292A22.957,22.957,0,0,1,5.047-7.1l-.014.042H2.947l.882-.56A8.045,8.045,0,0,0,2.667-9.478L2.639-9.52Zm3.962-1.036-1.106-.406V-9.24a42.253,42.253,0,0,1-.224,6.23A6.777,6.777,0,0,1,6.363.756L6.6,1.05A5.619,5.619,0,0,0,9.065-2.506,16.577,16.577,0,0,0,9.4-6.426h1.834V1.036h1.12V-6.426h.966l.56.112V-7.1l-.56.112H9.415v-3.108a16.7,16.7,0,0,0,3.458-.434,1.453,1.453,0,0,0,.322.042c.112,0,.238-.084.238-.182a.256.256,0,0,0-.084-.14l-.812-.84a15.977,15.977,0,0,1-3.08,1.078ZM28.259-9.128l.56.112V-9.8l-.56.112H21.371c.154-.392.238-.658.406-1.19.266-.1.378-.2.378-.336s-.1-.21-.308-.266l-1.176-.28a20.137,20.137,0,0,1-.588,2.072H16.849L16.3-9.8v.784l.546-.112h3.038c-.322.8-.336.854-.84,1.9l-.014.042-.616-.112V-6.02a18.38,18.38,0,0,1-2.3,3.206l.238.336a12.261,12.261,0,0,0,2.058-1.946v5.46h1.12v-7a18,18,0,0,0,1.61-3.164ZM25.3-4.9V-7.728c.182-.126.224-.182.224-.28,0-.126-.1-.182-.294-.182H24.129V-4.9h-2.66l-.56-.112v.784l.56-.112h2.66V-.112H20.741l-.546-.112V.56l.546-.112h7.7L29,.56V-.224l-.56.112H25.3V-4.34h2.548l.56.112v-.784l-.56.112Zm13.44-5.558v-.84c.182-.126.224-.182.224-.28,0-.126-.1-.182-.294-.182h-1.2v1.3H32.333V-7.91c0,5.264-.182,6.706-1.092,8.708l.322.182a7.176,7.176,0,0,0,1.6-3.15,28.233,28.233,0,0,0,.35-5.74V-9.9h9.87l.56.112v-.784l-.56.112ZM38.213-.9V.98h1.022V-.9h4.186l.56.112v-.784l-.56.112H39.235V-2.534h3.584V-6.72H39.235V-7.77h3.99l.56.112v-.784l-.56.112h-3.99v-.644c.182-.126.224-.182.224-.28,0-.126-.1-.182-.294-.182h-.952V-8.33H34.7l-.546-.112v.784L34.7-7.77h3.514v1.05h-3.43v4.186h3.43v1.078h-4l-.56-.112v.784l.56-.112Zm0-2.2h-2.38V-4.382h2.38Zm0-1.848h-2.38V-6.16h2.38ZM39.235-6.16h2.506v1.218H39.235Zm0,1.778h2.506v1.288H39.235ZM54.271-7.14H50.995l-.546-.112v.784l.546-.112h7.686l.56.112v-.784l-.56.112h-3.3V-8.3h2.366l.56.112v-.784l-.56.112H55.377V-9.968h2.814l.546.112v-.784l-.546.112H55.377v-.686c.182-.126.224-.182.224-.28,0-.126-.1-.182-.294-.182H54.271v1.148h-2.7l-.56-.112v.784l.56-.112h2.7v1.106H52.129l-.56-.112v.784l.56-.112h2.142ZM55.055.378V.966h2.114c.7,0,.994-.294.994-1.008V-5.628h-6.58V1.036h1.092V-1.6h4.382v1.33c0,.448-.2.644-.658.644Zm-2.38-2.534v-1.2h4.382v1.2Zm0-1.764V-5.068h4.382V-3.92ZM47.131-4.942a6.052,6.052,0,0,0,.5-2.9c0-.476-.014-.882-.07-1.862h-.476a10.939,10.939,0,0,1-.728,3.654Zm1.246-6.734V1.036h1.106v-12.25c.168-.126.224-.182.224-.28,0-.126-.1-.182-.294-.182Zm1.288,2.2a7.837,7.837,0,0,1,.882,2.058l.84-.784a3.712,3.712,0,0,0-1.47-1.47ZM69.237-6.286V-10.6h3.276c-.126,2.618-.168,2.73-1.064,2.744h-1.12v.588h1.54c.882.014,1.3-.2,1.484-.7a16.624,16.624,0,0,0,.266-3.192h-5.46V1.036h1.078V.7l.21.252A9.189,9.189,0,0,0,71.589-.966,9.563,9.563,0,0,0,73.731.924a7.231,7.231,0,0,1,.63-1.12A10.55,10.55,0,0,1,72.177-1.82a11.272,11.272,0,0,0,1.442-4.466Zm.462.56a8.83,8.83,0,0,0,1.344,4.032A9.915,9.915,0,0,1,69.237.546V-5.726Zm2.716,0a11.287,11.287,0,0,1-.91,3.164,7.046,7.046,0,0,1-1.386-3.164Zm-5.25-1.526.56.112v-.784l-.56.112H65.121V-9.59h1.5l.56.112v-.784l-.56.112h-1.5V-11.3c.182-.126.224-.182.224-.28,0-.126-.1-.182-.294-.182h-.98v1.61H62.587l-.546-.112v.784l.546-.112h1.484v1.778h-2.03l-.56-.112v.784l.56-.112h.448a18.33,18.33,0,0,1,.476,2.436h-.826l-.56-.112v.784l.56-.112h1.932V-2.38h-1.61l-.56-.112v.784l.56-.112h1.61V1.05h1.05V-1.82h1.624l.56.112v-.784l-.56.112H65.121V-4.256h1.946l.56.112v-.784l-.56.112H65.639a10.755,10.755,0,0,0,1.246-2.436Zm-1.47,0a22.56,22.56,0,0,1-.56,2.436h-1.9l.8-.644a7.672,7.672,0,0,0-1.106-1.792ZM97.769-5.32l-9.156-4.858V-9.3L96.089-5.32,88.613-1.344v.882Z" transform="translate(160.379 29.76)" fill="#fff"/>
</svg>
